<?xml version="1.0" encoding="utf-8"?>
<!-- Generator: Adobe Illustrator 21.0.2, SVG Export Plug-In . SVG Version: 6.00 Build 0)  -->
<svg version="1.1" id="Layer_1" xmlns="http://www.w3.org/2000/svg" xmlns:xlink="http://www.w3.org/1999/xlink" x="0px" y="0px"
	 viewBox="0 0 504 504" style="enable-background:new 0 0 504 504;" xml:space="preserve">
<style type="text/css">
	.st0{fill:#212529;stroke:#000000;stroke-miterlimit:10;}
</style>
<g>
	<g>
		<path class="st0" d="M299.8,128.2c-12.3,0-22.4,10-22.4,22.4c0,12.3,10,22.4,22.4,22.4s22.4-10,22.4-22.4
			C322.2,138.2,312.1,128.2,299.8,128.2z"/>
	</g>
</g>
<g>
	<g>
		<path class="st0" d="M252.1,271.1c-40.3,0-73,32.7-73,73c0,40.3,32.7,73,73,73s73-32.7,73-73C325.1,303.8,292.4,271.1,252.1,271.1
			z M293.2,352.8h-31.7v32.5c0,5.2-4.3,9.5-9.5,9.5c-5.2,0-9.5-4.2-9.5-9.5v-32.5h-31.6c-5.2,0-9.5-4.3-9.5-9.5s4.2-9.5,9.5-9.5
			h31.6v-30.8c0-5.2,4.3-9.5,9.5-9.5c5.2,0,9.5,4.2,9.5,9.5v30.8h31.7c5.2,0,9.5,4.3,9.5,9.5S298.5,352.8,293.2,352.8z"/>
	</g>
</g>
<g>
	<g>
		<path class="st0" d="M439.3,70.2H64.9c-8.8,0-16.1,7.8-16.1,16.5v241.5c0,8.8,7.4,15,16.1,15h95.2c0-50.8,41.3-92,92-92
			c50.7,0,92,41.2,92,92h95.2c8.8,0,15.8-6.2,15.8-15V86.8C455.2,78,448.1,70.2,439.3,70.2z M364.5,179.6l-60,60l-91.4-91.4
			c-1.2-1.2-3.2-1.2-4.5,0l-58,58l-26.5-26.5c-1.2-1.2-3.4-1.2-4.6,0l-42.2,42.1v-123h349.2v138.5l-57.6-57.7
			C367.7,178.4,365.7,178.4,364.5,179.6z"/>
	</g>
</g>
</svg>
