<?xml version="1.0" encoding="utf-8"?>
<!-- Generator: Adobe Illustrator 21.0.2, SVG Export Plug-In . SVG Version: 6.00 Build 0)  -->
<svg version="1.1" id="Layer_1" xmlns="http://www.w3.org/2000/svg" xmlns:xlink="http://www.w3.org/1999/xlink" x="0px" y="0px"
	 viewBox="0 0 504 504" style="enable-background:new 0 0 504 504;" xml:space="preserve">
<style type="text/css">
	.st0{fill:#212529;stroke:#212529;stroke-miterlimit:10;}
</style>
<g>
	<g>
		<path class="st0" d="M311.5,71.8c-15.3,0-27.8,12.4-27.8,27.8c0,15.3,12.5,27.7,27.8,27.7c15.3,0,27.8-12.4,27.8-27.7
			S326.8,71.8,311.5,71.8z"/>
	</g>
</g>
<g>
	<g>
		<path class="st0" d="M252.3,249.2c-50,0-90.5,40.5-90.5,90.5c0,50,40.5,90.5,90.5,90.5s90.5-40.5,90.5-90.5
			C342.8,289.7,302.3,249.2,252.3,249.2z M303.3,350.4H264v40.3c0,6.5-5.3,11.7-11.8,11.7c-6.5,0-11.8-5.3-11.8-11.7v-40.3h-39.2
			c-6.5,0-11.7-5.3-11.7-11.8s5.3-11.8,11.7-11.8h39.2v-38.2c0-6.5,5.3-11.7,11.8-11.7c6.5,0,11.8,5.3,11.8,11.7v38.2h39.3
			c6.5,0,11.7,5.3,11.7,11.8S309.8,350.4,303.3,350.4z"/>
	</g>
</g>
<g>
	<g>
		<path class="st0" d="M484.5,0H20.1c-10.9,0-20,9.7-20,20.5V320c0,10.9,9.1,18.6,20,18.6h118.1c0-63,51.2-114.1,114.1-114.1
			c62.9,0,114.1,51.1,114.1,114.1h118.1c10.9,0,19.6-7.7,19.6-18.6V20.5C504.2,9.7,495.4,0,484.5,0z M391.7,135.7l-74.5,74.5
			L203.9,96.8c-1.5-1.5-4-1.5-5.6,0l-71.9,71.9l-32.8-32.8c-1.5-1.5-4.2-1.5-5.7,0L35.6,188V35.4h433.1v171.7l-71.5-71.5
			C395.7,134.1,393.2,134.1,391.7,135.7z"/>
	</g>
</g>
<g>
	<g>
		<path class="st0" d="M0.2,272.7L0,483.8c0,10.9,9.1,20.5,20,20.5h464.4c10.9,0,19.6-9.7,19.6-20.5V184.3l-35.4,7v277.6H35.4V268.7
			"/>
	</g>
</g>
</svg>
