<?xml version="1.0" encoding="utf-8"?>
<!-- Generator: Adobe Illustrator 21.0.2, SVG Export Plug-In . SVG Version: 6.00 Build 0)  -->
<svg version="1.1" id="Layer_1" xmlns="http://www.w3.org/2000/svg" xmlns:xlink="http://www.w3.org/1999/xlink" x="0px" y="0px"
	 viewBox="0 0 1000 1000" style="enable-background:new 0 0 1000 1000;" xml:space="preserve">
<g>
	<path d="M751.4,840.8H248.6c-55.5,0-100.6-46.9-100.6-104.8V605.1c0-14.4,11.3-26.2,25.1-26.2h50.3c13.9,0,25.1,11.7,25.1,26.2
		v78.6c0,28.9,22.5,52.4,50.3,52.4h402.2c27.8,0,50.3-23.5,50.3-52.4v-78.6c0-14.4,11.3-26.2,25.1-26.2h50.3
		c13.9,0,25.1,11.7,25.1,26.2V736C851.9,793.9,806.9,840.8,751.4,840.8L751.4,840.8z M704.3,463.5c-10.2,10.6-26.6,10.6-36.8,0
		L550.3,341.3v263.7c0,14.4-11.3,26.2-25.1,26.2h-50.3c-13.9,0-25.1-11.7-25.1-26.2V341.3L332.5,463.5c-10.2,10.6-26.6,10.6-36.8,0
		l-36.8-38.4c-10.2-10.6-10.2-27.8,0-38.4l207.6-216.4c0.9-0.9,17-11.2,33.3-11.2c16.4,0,33,10.3,33.9,11.2l207.7,216.3
		c10.2,10.6,10.2,27.8,0,38.4L704.3,463.5L704.3,463.5z"/>
</g>
</svg>
