<svg xmlns="http://www.w3.org/2000/svg" viewBox="0 0 512 512"><defs><style>.cls-1{fill:#fff;}.cls-2{fill:#555;}</style></defs><g id="Camada_2" data-name="Camada 2"><g id="Camada_1-2" data-name="Camada 1"><g id="Camada_2-2" data-name="Camada 2"><g id="Camada_1-2-2" data-name="Camada 1-2"><g id="Camada_2-2-2" data-name="Camada 2-2"><g id="Camada_1-2-2-2" data-name="Camada 1-2-2"><circle class="cls-1" cx="256.9" cy="251.54" r="233.7"/><path class="cls-2" d="M256,0C114.64,0,0,114.64,0,256S114.64,512,256,512,512,397.36,512,256,397.36,0,256,0ZM372.89,199.6c.11,2.52.17,5.05.16,7.6,0,77.64-59.1,167.18-167.18,167.18h0A166.36,166.36,0,0,1,115.8,348a118.73,118.73,0,0,0,87-24.34,58.81,58.81,0,0,1-54.89-40.81,58.63,58.63,0,0,0,26.54-1,58.77,58.77,0,0,1-47.15-57.59v-.75a58.36,58.36,0,0,0,26.62,7.34,58.82,58.82,0,0,1-18.2-78.44A166.82,166.82,0,0,0,256.84,213.8,58.79,58.79,0,0,1,357,160.19a117.68,117.68,0,0,0,37.31-14.26,59,59,0,0,1-25.84,32.5,117.12,117.12,0,0,0,33.75-9.26A119.35,119.35,0,0,1,372.89,199.6Z"/></g></g></g></g></g></g></svg>