<svg xmlns="http://www.w3.org/2000/svg" viewBox="0 0 512 511.59"><defs><style>.cls-1{fill:#fff;}</style></defs><g id="Camada_2" data-name="Camada 2"><g id="Capa_1" data-name="Capa 1"><path class="cls-1" d="M497,0H15A15,15,0,0,0,0,15V496.59a15,15,0,0,0,15,15H497a15,15,0,0,0,15-15V15A15,15,0,0,0,497,0ZM482,30v71.31H30V30ZM30,481.59V131.72H482V481.59Z"/><path class="cls-1" d="M121.81,293.07l56.82-55.83a15,15,0,1,0-21-21.4L90,282.28a15,15,0,0,0-.1,21.31l67.62,67.61A15,15,0,1,0,178.72,350Z"/><path class="cls-1" d="M364.49,215.94a15,15,0,0,0-21.21,21.21l56.91,56.92L343.37,349.9a15,15,0,0,0,21,21.4L432,304.86a15,15,0,0,0,.09-21.31Z"/><path class="cls-1" d="M284.78,212.4a15,15,0,0,0-19.15,9.13L218.09,355.59a15,15,0,0,0,28.28,10l47.54-134a15,15,0,0,0-9.13-19.16Z"/><path class="cls-1" d="M445.23,81.26c8.14,0,15.94-7.08,15.57-15.4S454,50.45,445.23,50.45c-8.14,0-15.94,7.09-15.56,15.41S436.51,81.26,445.23,81.26Z"/><path class="cls-1" d="M388.77,81.26c8.14,0,15.94-7.08,15.56-15.4s-6.84-15.41-15.56-15.41c-8.14,0-15.94,7.09-15.57,15.41S380,81.26,388.77,81.26Z"/></g></g></svg>