<svg xmlns="http://www.w3.org/2000/svg" viewBox="0 0 512 512"><defs><style>.cls-1{fill:#fff;}</style></defs><g id="Camada_2" data-name="Camada 2"><g id="Capa_1" data-name="Capa 1"><path class="cls-1" d="M467,0H45A45.05,45.05,0,0,0,0,45V467a45.05,45.05,0,0,0,45,45H467a45.05,45.05,0,0,0,45-45V45A45.05,45.05,0,0,0,467,0ZM30,45A15,15,0,0,1,45,30h75v90H30ZM482,467a15,15,0,0,1-15,15H45a15,15,0,0,1-15-15V150H482Zm0-347H150V30H467a15,15,0,0,1,15,15Z"/><path class="cls-1" d="M437,60H407a15,15,0,0,0,0,30h30a15,15,0,0,0,0-30Z"/><path class="cls-1" d="M347,60H316a15,15,0,0,0,0,30h31a15,15,0,0,0,0-30Z"/><path class="cls-1" d="M256,60H226a15,15,0,0,0,0,30h30a15,15,0,0,0,0-30Z"/><path class="cls-1" d="M437,422H422V227a15,15,0,0,0-15-15H347a15,15,0,0,0-15,15V422H301V287a15,15,0,0,0-15-15H226a15,15,0,0,0-15,15V422H180V347a15,15,0,0,0-15-15H105a15,15,0,0,0-15,15v75H75a15,15,0,0,0,0,30H437a15,15,0,0,0,0-30Zm-287,0H120V362h30Zm121,0H241V302h30Zm121,0H362V242h30Z"/></g></g></svg>