<svg xmlns="http://www.w3.org/2000/svg" viewBox="0 0 387.01 383"><defs><style>.cls-1{fill:#fff;}</style></defs><g id="Camada_2" data-name="Camada 2"><g id="Camada_1-2" data-name="Camada 1"><path class="cls-1" d="M85,367.51a45.82,45.82,0,0,0,23-6.19,46.17,46.17,0,0,0,76.71-34.63V50.78a39.48,39.48,0,1,0-78.34,6.9A59.59,59.59,0,0,0,33,131.23a44.28,44.28,0,0,0-11.5,73.3A59.54,59.54,0,0,0,38.85,306.19v15.14A46.24,46.24,0,0,0,85,367.51ZM12,250.34a47.62,47.62,0,0,1,47.57-47.57,6,6,0,1,0,0-12A59.11,59.11,0,0,0,32,197.59a32.32,32.32,0,0,1,1.37-52.86,33.41,33.41,0,0,1,4.12-2.32c.43.83.87,1.65,1.34,2.46a6,6,0,1,0,10.39-6,47.58,47.58,0,0,1,69.44-62.09,6,6,0,1,0,7.13-9.65c-1.45-1.07-3-2.06-4.48-3a27.48,27.48,0,1,1,51.51-13.34V326.69a34.16,34.16,0,0,1-55,27.12,46,46,0,0,0,13.39-32.48,6,6,0,0,0-12,0,34.18,34.18,0,0,1-68.36,0V309.27a59.34,59.34,0,0,0,8.73.65,6,6,0,0,0,0-12A47.63,47.63,0,0,1,12,250.34Z"/><path class="cls-1" d="M136.67,196.72A31.85,31.85,0,0,0,130,172a6,6,0,1,0-9.36,7.51,19.89,19.89,0,0,1,2.84,20A31.88,31.88,0,0,0,105,232.74,6,6,0,0,0,110.9,238a7.16,7.16,0,0,0,.8-.05,6,6,0,0,0,5.16-6.73,19.91,19.91,0,0,1,31.37-18.72,6,6,0,0,0,7-9.73A31.82,31.82,0,0,0,136.67,196.72Z"/><path class="cls-1" d="M70.67,175.75a6,6,0,0,0-.1-8.48,14.19,14.19,0,0,1-3.93-7.15,26.2,26.2,0,0,0,3.14-20.27,6,6,0,1,0-11.62,3,14.22,14.22,0,0,1-7.5,16.25,6,6,0,1,0,5.26,10.78c.45-.22.89-.47,1.33-.72a26.14,26.14,0,0,0,4.93,6.7,6,6,0,0,0,8.48-.1Z"/><path class="cls-1" d="M101.25,103.64a14.18,14.18,0,0,1,15.91,20.57A6,6,0,1,0,127.67,130a26.28,26.28,0,0,0,3.2-14.24,26,26,0,0,0,18-7.83,6,6,0,1,0-8.58-8.39,14.14,14.14,0,0,1-13.4,3.85c-.11-.17-.2-.34-.32-.5A26.17,26.17,0,0,0,98.27,92a6,6,0,1,0,3,11.62Z"/><path class="cls-1" d="M81.84,281.93a5.31,5.31,0,0,0,.19.65,25.48,25.48,0,0,1-5,22.74A6,6,0,0,0,86.34,313a37.52,37.52,0,0,0,8.53-22.8,37.36,37.36,0,0,0,30.91-5.51,6,6,0,1,0-6.89-9.83,25.39,25.39,0,0,1-26.17,1.75,37.4,37.4,0,0,0-8.81-13.89,6,6,0,1,0-8.48,8.48A25.4,25.4,0,0,1,81.84,281.93Z"/><path class="cls-1" d="M371,164.38A21,21,0,0,0,366.07,123L342.48,90.14a20.95,20.95,0,0,0-20.92-34.4l-24.2-10-2.44-15.64a6,6,0,0,0-3.7-4.65l-21.65-8.66a21,21,0,0,0-41.27.8L204.19,33.49a6.07,6.07,0,0,0-2.52,3.57l-5.5,22.28a6.3,6.3,0,0,0-.17,1.44V326.69a6,6,0,0,0,.75,2.91l11.64,21A21,21,0,1,0,246.11,368h30.48a21,21,0,0,0,39.91-12.46l14.67-17.76a21,21,0,0,0,18.27-35,58.36,58.36,0,0,0,6.74-4.26A21,21,0,0,0,377,262.14V219a6,6,0,0,0-3.56-5.48l-12.29-5.46a5.72,5.72,0,0,0,.71-1.78ZM375,144a9,9,0,1,1-9-9A9,9,0,0,1,375,144ZM336,76a9,9,0,1,1-9-9A9,9,0,0,1,336,76ZM249,12a9,9,0,1,1-9,9A9,9,0,0,1,249,12ZM226,121h19v24.88a21,21,0,0,0,0,40.23V195H208V89.73h12V115A6,6,0,0,0,226,121Zm55.39,0A21,21,0,0,0,296,137.11V160H271.11A21.07,21.07,0,0,0,257,145.88V121Zm20.6,5a9,9,0,1,1,9-9A9,9,0,0,1,302,126Zm-51,49a9,9,0,1,1,9-9A9,9,0,0,1,251,175ZM208,278h35.88A21.06,21.06,0,0,0,258,292.1V308a6,6,0,0,0,6,6h26v25.88A21,21,0,0,0,275.39,356H246.11a21,21,0,0,0-28.38-13.3L208,325.13Zm56,3a9,9,0,1,1,9-9A9,9,0,0,1,264,281Zm-38,90a9,9,0,1,1,9-9A9,9,0,0,1,226,371Zm70-2a9,9,0,1,1,9-9A9,9,0,0,1,296,369Zm14.09-24.53a21,21,0,0,0-8.09-4.59V308a6,6,0,0,0-6-6H270V292.1A21,21,0,1,0,243.88,266H208V207h57.34l8.85,34.5A6,6,0,0,0,280,246h35.89A21.07,21.07,0,0,0,330,260.11v36.27a21,21,0,0,0-10.06,36.16ZM336,249a9,9,0,1,1,9-9A9,9,0,0,1,336,249Zm-2,77a8.5,8.5,0,0,1-2.12-.27,6.18,6.18,0,0,0-1.76-.63,9,9,0,1,1,3.88.9Zm32-37a9,9,0,1,1,2.12-17.74,5.89,5.89,0,0,0,1.76.63A9,9,0,0,1,366,289ZM365,259A21,21,0,0,0,347.52,290a46.52,46.52,0,0,1-5.53,3.17v-33A21,21,0,1,0,315.88,234H284.65l-8.84-34.49A6,6,0,0,0,270,195H257v-8.87A21.07,21.07,0,0,0,271.11,172h48.82v26.82a6.37,6.37,0,0,0,3.63,5.66L365,222.89Zm-33.06-64V166a6,6,0,0,0-6-6H308V137.11A21,21,0,1,0,282.59,109H232V83.73a6,6,0,0,0-6-6H208V61.51l4.76-19.29L230.34,30.6a21,21,0,0,0,38-1.4l15.27,6.1,6.47,41.62a6,6,0,1,0,11.86-1.84l-2.41-15.47,10.35,4.28a20.93,20.93,0,0,0,22.28,32.44L354,126.78a21,21,0,0,0,4.82,36.93l-8.59,39.5Z"/></g></g></svg>