<svg xmlns="http://www.w3.org/2000/svg" viewBox="0 0 435.14 512.16"><defs><style>.cls-1{fill:#fff;}</style></defs><g id="Camada_2" data-name="Camada 2"><g id="Capa_1" data-name="Capa 1"><path class="cls-1" d="M431.48,247.58c13.33-72.42-8.43-172-87.74-219.4A220.36,220.36,0,0,0,179.07,7.46C102.21,28,45.71,83.17,27.94,155a146.26,146.26,0,0,0-5,44.75,151.17,151.17,0,0,0,5.16,27.66,119,119,0,0,1,5.1,35.47c-.35,14.3-10.2,29.14-18.9,42.23-9.49,14.28-17.68,26.62-12.93,38a27.86,27.86,0,0,0,21.33,13.67,11.64,11.64,0,0,0,1.55.16,8,8,0,0,1,9,8.53c0,17.73.45,26.88,7.77,31.07a15.68,15.68,0,0,0-1.32,4.22,15.18,15.18,0,0,0,4.8,13.45A26,26,0,0,0,58,421.12l1,.22a22.48,22.48,0,0,1,.27,3.84,91.34,91.34,0,0,1-.68,9.49c-1.42,13.65-3.36,32.35,23.95,41.27A55.75,55.75,0,0,0,99.43,478a266.79,266.79,0,0,0,75.86-14.54,96.48,96.48,0,0,1,12.47,40.17,8.54,8.54,0,0,0,8.53,8.54H409.62a8.48,8.48,0,0,0,8-5.9,8.73,8.73,0,0,0-3-9.61c-8.83-6.71-38.07-77.34-39-102.71,2.58-5.85,6-12.42,10.12-20.05A400.93,400.93,0,0,0,431.48,247.58Zm-73,145.51c.22,20.4,18.62,74.33,34.42,102H204.1a122.11,122.11,0,0,0-12.54-37.43c24.72-9.69,46.5-22.15,56.95-35.82A8.54,8.54,0,0,0,235,411.47c-24.15,31.6-124.64,55.59-147.07,48.25-14.21-4.64-13.64-10.1-12.27-23.28a108.62,108.62,0,0,0,.76-11.26c0-14.38-5.8-18.67-14.51-20.69a10.93,10.93,0,0,1-4.6-1.77,23.82,23.82,0,0,1,5.65-4,8.54,8.54,0,0,0-3.76-16.2c-3.09,0-6.51,0-8.31-.22a131.36,131.36,0,0,1-.55-16.83,25,25,0,0,0-25-25.58c-6.15-1.3-8-3-8.17-3.35-1.24-3,7-15.34,11.4-22,9.47-14.27,21.27-32,21.75-51.24a119.69,119.69,0,0,0-3.53-31.65,85.09,85.09,0,0,1,32.18-17.74,26.46,26.46,0,0,1,12.68.88,8.53,8.53,0,0,0,4.54-16.45,43.16,43.16,0,0,0-20.75-1.13,88,88,0,0,0-33.07,16.42A101.6,101.6,0,0,1,40,198.52a126.15,126.15,0,0,1,4.53-39.42C61,92.41,111.66,43.15,183.49,23.94A202.69,202.69,0,0,1,335,42.83c72.33,43.25,92,134.85,79.73,201.66a380.91,380.91,0,0,1-44.05,121.35c-4.69,8.75-8.74,16.31-11.67,23.3A8.46,8.46,0,0,0,358.44,393.09Z"/><path class="cls-1" d="M375.38,267.07a25.57,25.57,0,0,0-20.79-27.5l-16.34-22.65a25.66,25.66,0,0,0,2.29-5.86l15.82-6.33A25.54,25.54,0,1,0,381.08,163l-12.82-25.57a25.5,25.5,0,0,0-31.35-39.7L322.62,85.81a25.5,25.5,0,0,0-42.37-26.52L255,53a25.44,25.44,0,0,0-49-.3l-33.81,6.77A25.48,25.48,0,0,0,131.44,89.5l-16.57,22.06a25.52,25.52,0,0,0-1.46,49.92l13.7,33.82a25.56,25.56,0,1,0,42,26.73h45.81a24.71,24.71,0,0,0,27.93,16.67l28.33,43.09a25.53,25.53,0,1,0,44.11,21.5l21.15-16.9a25.48,25.48,0,0,0,38.93-19.32Zm.11-87.71a8.53,8.53,0,1,1-7.82,11.92,2,2,0,0,0,0-.24l-.05-.08a8.33,8.33,0,0,1-.62-3.07A8.53,8.53,0,0,1,375.49,179.36Zm-33.95-61.47a8.67,8.67,0,1,1,5.27,9.64l-.07,0c-.07,0-.15,0-.23,0A8.51,8.51,0,0,1,341.54,117.89Zm-8.49,20.86h0l-15.77,39.43-27.65-22.12a25.4,25.4,0,0,0,7.89-12.14l33.81-6.76C331.87,137.73,332.46,138.23,333.05,138.75ZM324,207.26a8.66,8.66,0,1,1-5.13-10.21l.08,0c.07,0,.15,0,.23,0A8.53,8.53,0,0,1,324,207.26ZM298.69,68.42A8.54,8.54,0,1,1,290.16,77,8.53,8.53,0,0,1,298.69,68.42Zm-44.91,1.84,19.49,4.87c0,.62-.18,1.2-.18,1.83A25.43,25.43,0,0,0,311.67,98.9L326,110.77a25.32,25.32,0,0,0-1.67,8.86c0,.51.12,1,.15,1.5l-27.79,5.56A25.59,25.59,0,0,0,277,111.49L245.78,80.25A25.65,25.65,0,0,0,253.78,70.26Zm27.84,66.43a8.53,8.53,0,1,1-8.53-8.53A8.53,8.53,0,0,1,281.62,136.69Zm-51.2-85.33a8.53,8.53,0,1,1-8.53,8.53A8.53,8.53,0,0,1,230.42,51.36Zm1.69,39.36,25.62,25.62a25.63,25.63,0,0,0-8.67,11.82H228.85a25.54,25.54,0,0,0-11.12-13.45Zm-53-15.27,27.79-5.56a25.72,25.72,0,0,0,10.66,12L202,107.69,175.25,90.51a25.32,25.32,0,0,0,4-13.55C179.22,76.44,179.1,76,179.07,75.45Zm34.29,61.24a8.54,8.54,0,1,1-8.54-8.53A8.53,8.53,0,0,1,213.36,136.69ZM153.62,68.42A8.54,8.54,0,1,1,145.09,77,8.54,8.54,0,0,1,153.62,68.42Zm-9.28,32.33a23.92,23.92,0,0,0,16.34.69L187,118.35a25.49,25.49,0,0,0-6.23,9.81H143.52a25.7,25.7,0,0,0-10.09-12.89Zm-24.85,44.47a8.53,8.53,0,1,1,8.53-8.53A8.53,8.53,0,0,1,119.49,145.22Zm25.6,76.8a8.53,8.53,0,1,1,8.53-8.53A8.53,8.53,0,0,1,145.09,222Zm4.85-33.64a25.49,25.49,0,0,0-4.85-.49c-.85,0-1.64.17-2.47.25L131,159.43a25.6,25.6,0,0,0,12.53-14.21H180.8a25.44,25.44,0,0,0,7.7,11Zm65,16.58H169.12a25.3,25.3,0,0,0-3.9-7.09l41.91-34.93,14.27,32A25.64,25.64,0,0,0,214.93,205Zm13.92-59.74h20.21a25.62,25.62,0,0,0,11.13,13.46l-17.74,29.56a27.32,27.32,0,0,0-3.49-.35c-.66,0-1.28.15-1.93.2l-14.65-32.86A25.64,25.64,0,0,0,228.85,145.22ZM239,222a8.53,8.53,0,1,1,8.53-8.53A8.53,8.53,0,0,1,239,222Zm36.42-55.5,23.83,19.07a25.44,25.44,0,0,0-7.89,12.14l-28.8,5.76a25.52,25.52,0,0,0-4.89-7.38Zm14.78,140.84a8.54,8.54,0,1,1,8.53-8.54A8.54,8.54,0,0,1,290.16,307.36Zm34.13-42.67a25.12,25.12,0,0,0,1.52,8.36L311.4,284.56a24.62,24.62,0,0,0-25.15-10.94l-28.33-43.09a25.43,25.43,0,0,0,5.47-9.81L292.2,215a25.56,25.56,0,0,0,33.43,13.61l10.52,14.59A25.55,25.55,0,0,0,324.29,264.69Zm8.31-78.86,16.28-40.71c.34,0,.66.1,1,.1a24.37,24.37,0,0,0,3.07-.31l10.33,20.62a25.48,25.48,0,0,0-13.4,22.36c0,.35.09.67.1,1l-11.47,4.59A25.58,25.58,0,0,0,332.6,185.83Zm17.29,87.39a8.53,8.53,0,1,1,8.53-8.53A8.53,8.53,0,0,1,349.89,273.22Z"/></g></g></svg>