<svg xmlns="http://www.w3.org/2000/svg" viewBox="0 0 464.95 406.1"><defs><style>.cls-1{fill:#ccc;}</style></defs><g id="Camada_2" data-name="Camada 2"><g id="Capa_1" data-name="Capa 1"><path class="cls-1" d="M464.87,348.8v-.2c0-.2-.1-.5-.1-.7s0-.1-.1-.2c-.1-.3-.2-.5-.3-.8v-.1a5,5,0,0,0-.4-.8h0L268.18,3.8c0-.1-.1-.1-.1-.2s-.21-.3-.3-.4-.1-.2-.2-.3-.21-.2-.21-.3l-.29-.3c-.11-.1-.11-.2-.21-.2l-.29-.3c-.11-.1-.21-.1-.21-.2s-.2-.2-.29-.2-.21-.1-.3-.2-.2-.1-.3-.2-.2-.1-.3-.2-.2-.1-.3-.1-.3-.1-.4-.2-.2-.1-.3-.1-.3-.1-.4-.1a.37.37,0,0,1-.3-.1c-.1,0-.3-.1-.4-.1a.37.37,0,0,1-.3-.1H204.87a2.2,2.2,0,0,0-.8.1h-.2a4.8,4.8,0,0,0-1.7.5c-.1,0-.1.1-.2.1a4.27,4.27,0,0,1-.69.3s-.11,0-.11.1a7.17,7.17,0,0,0-1.39,1.1l-.11.1-.5.5c0,.1-.1.1-.1.2-.2.2-.3.5-.5.7h0L1,345.9a7.75,7.75,0,0,0,0,7.5l28.3,49h0c.2.3.3.5.5.8h0c.2.2.4.5.6.7l.1.1c.21.2.4.3.61.5l.1.1a2.22,2.22,0,0,0,.79.5,3,3,0,0,0,.8.4h.1a7.17,7.17,0,0,0,2.9.6h393.3a7.32,7.32,0,0,0,6.5-3.8l28.3-49v-.1a3,3,0,0,0,.4-.8h0c.1-.3.2-.5.3-.8,0-.1,0-.1.1-.2a1.48,1.48,0,0,0,.1-.7v-.2c0-.3.1-.6.1-.8h0A1.39,1.39,0,0,0,464.87,348.8ZM35.77,383.7l-19.6-34L205,22.5,361.18,293.1H322L211.47,101.8v-.1c-.1-.1-.19-.3-.3-.4s-.1-.2-.2-.2l-.3-.3c-.1-.1-.1-.2-.2-.2l-.3-.3-.3-.3-.2-.2a1.46,1.46,0,0,0-.39-.3c-.11-.1-.11-.1-.2-.1s-.3-.2-.4-.3h-.1c-.11,0-.11-.1-.2-.1s-.3-.1-.4-.2a.37.37,0,0,0-.3-.1c-.1,0-.2-.1-.3-.1s-.3-.1-.4-.1-.2-.1-.3-.1-.3-.1-.4-.1a.37.37,0,0,1-.3-.1.6.6,0,0,1-.4-.1h-1.8a.37.37,0,0,0-.3.1c-.1,0-.3.1-.4.1s-.2.1-.3.1-.2.1-.4.1-.2.1-.4.1-.2.1-.3.1-.3.1-.4.2-.1.1-.2.1H201c-.1.1-.3.2-.4.3s-.1.1-.2.1-.3.2-.4.3l-.2.2-.3.3-.2.2c-.1.1-.1.2-.2.3l-.3.3c-.1.1-.1.2-.2.2s-.2.3-.3.4v.1Zm268.81-90.6H162l71.31-123.5Zm120.29,98.1H48.77L205,120.6l19.61,34L114.17,345.9a7,7,0,0,0-1,3.8,7.55,7.55,0,0,0,7.5,7.5h49.6a7.5,7.5,0,1,0,0-15h-36.6l19.6-34h216.6l19.6,34H172.37c-4.1,0,3.5,3.4,3.5,7.5s-7.6,7.5-3.5,7.5h272.1Zm-18-49L218,15h39.3l187.3,327.1h-37.7Z"/></g></g></svg>