<svg xmlns="http://www.w3.org/2000/svg" viewBox="0 0 456.85 398.1"><defs><style>.cls-1{fill:#fff;}</style></defs><g id="Camada_2" data-name="Camada 2"><g id="Camada_1-2" data-name="Camada 1"><g id="Camada_2-2" data-name="Camada 2"><g id="Capa_1" data-name="Capa 1"><path class="cls-1" d="M31.78,398.1a3.12,3.12,0,0,1-1.3-.27l-.5-.21-.13-.09-.15-.06c-.18-.16-.33-.27-.48-.39,0,0-.16-.21-.24-.29l0-.05c-.09-.14-.17-.28-.28-.44L.44,347.4a3.69,3.69,0,0,1,0-3.56L197.85,2a4.72,4.72,0,0,0,.27-.4l.93-.92v0l0,0h0l.43-.22A3.23,3.23,0,0,0,200,.13l.1,0h.54L201,0h57.09l.09,0a4.68,4.68,0,0,0,.73.21l.47.2a5.11,5.11,0,0,0,.48.33l.09.07.24.26.2.25c.07.11.16.23.26.36L456.52,344.06l0,.1c.08.24.15.43.23.63,0,0,.05.1.07.16v.61a6.31,6.31,0,0,0-.07.71,2.5,2.5,0,0,0-.07.26c-.07.15-.13.31-.19.48l-.65.92v.3L428.11,396.3a3.35,3.35,0,0,1-2.95,1.8Zm6-6.9H423.16l24.21-42h-279l-.62-.2-1,.16a5.09,5.09,0,0,1-.56,0h-49.6a3.55,3.55,0,0,1-3.5-3.53,3.13,3.13,0,0,1,.42-1.71L225.2,150.6,201,108.6ZM7.53,345.7l24.22,42,166-288,.07-.09.1-.1a4.33,4.33,0,0,0,.51-.61l.08-.08.35-.23.35-.18h0a4.62,4.62,0,0,0,.57-.15l.24-.07h1l0,0a3,3,0,0,0,.43.09,3.29,3.29,0,0,0,.57.16l.17.06a4.68,4.68,0,0,0,.45.2,3.13,3.13,0,0,0,.36.22l.89.9L315.67,293.1h48.41L201,10.5Zm396.53,2.61,1.82-6.21h41.59L255.59,7H207.05ZM122.72,342.2h43.53a3.43,3.43,0,0,1,.56.05l1,.15.62-.2h224l-24.21-42H146.93Zm28.33-49.1H307.48L229.29,157.6Z"/></g></g></g></g></svg>