<svg xmlns="http://www.w3.org/2000/svg" viewBox="0 0 290.13 512"><defs><style>.cls-1{fill:#fff;}</style></defs><g id="Camada_2" data-name="Camada 2"><g id="Camada_1-2" data-name="Camada 1"><g id="Camada_2-2" data-name="Camada 2"><g id="Capa_1" data-name="Capa 1"><path class="cls-1" d="M187.73,25.6H102.4a8.54,8.54,0,0,0,0,17.07h85.33a8.54,8.54,0,1,0,.58-17.07,5.61,5.61,0,0,0-.58,0Z"/><path class="cls-1" d="M247.47,25.6h-8.54a8.54,8.54,0,0,0,0,17.07h8.54a8.54,8.54,0,0,0,0-17.07Z"/><path class="cls-1" d="M155.66,435.2H134.48a23.58,23.58,0,0,0-23.55,23.54v4.13a23.57,23.57,0,0,0,23.54,23.53h21.19a23.56,23.56,0,0,0,23.54-23.53v-4.13A23.58,23.58,0,0,0,155.66,435.2Zm6.47,27.66a6.47,6.47,0,0,1-6.46,6.47H134.48a6.49,6.49,0,0,1-6.48-6.47v-4.12a6.49,6.49,0,0,1,6.48-6.47h21.18a6.47,6.47,0,0,1,6.47,6.47h0Z"/><path class="cls-1" d="M259.29,0H30.85A30.89,30.89,0,0,0,0,30.85v450.3A30.89,30.89,0,0,0,30.85,512H259.29a30.88,30.88,0,0,0,30.84-30.84V30.85A30.88,30.88,0,0,0,259.29,0Zm13.78,481.15a13.79,13.79,0,0,1-13.78,13.78H30.85a13.8,13.8,0,0,1-13.78-13.77V30.85A13.79,13.79,0,0,1,30.85,17.07H259.29a13.79,13.79,0,0,1,13.78,13.78Z"/><path class="cls-1" d="M281.6,51.2H8.53A8.53,8.53,0,0,0,0,59.73v358.4a8.55,8.55,0,0,0,8.53,8.54H281.6a8.55,8.55,0,0,0,8.53-8.54V59.73A8.53,8.53,0,0,0,281.6,51.2Zm-8.53,358.4h-256V68.27h256Z"/></g></g></g></g></svg>