<svg xmlns="http://www.w3.org/2000/svg" viewBox="0 0 353.98 443.98"><defs><style>.cls-1{fill:#fff;}</style></defs><g id="Camada_2" data-name="Camada 2"><g id="Camada_1-2" data-name="Camada 1"><path class="cls-1" d="M327.72,0H26.26A26.29,26.29,0,0,0,0,26.26V417.72A26.29,26.29,0,0,0,26.26,444H327.72A26.29,26.29,0,0,0,354,417.72V26.26A26.29,26.29,0,0,0,327.72,0ZM339,417.72A11.27,11.27,0,0,1,327.72,429H26.26A11.27,11.27,0,0,1,15,417.72V26.26A11.27,11.27,0,0,1,26.26,15H327.72A11.27,11.27,0,0,1,339,26.26Z"/><path class="cls-1" d="M324,47.91H30a5,5,0,0,0-5,5V391.07a5,5,0,0,0,5,5H324a5,5,0,0,0,5-5V52.91a5,5,0,0,0-5-5Zm-5,338.16H35V57.91H319Z"/><path class="cls-1" d="M177,406.48a7.51,7.51,0,1,0,5.3,2.2A7.55,7.55,0,0,0,177,406.48Z"/><path class="cls-1" d="M177,37.25a5,5,0,1,0-3.54-1.46A5,5,0,0,0,177,37.25Z"/></g></g></svg>