<svg xmlns="http://www.w3.org/2000/svg" viewBox="0 0 512 484.66"><defs><style>.cls-1{fill:#fff;}</style></defs><g id="Camada_2" data-name="Camada 2"><g id="Capa_1" data-name="Capa 1"><path class="cls-1" d="M497,0H15A15,15,0,0,0,0,15V392.8a15,15,0,0,0,15,15H197.61v46.86h-4.32a15,15,0,0,0,0,30H318.71a15,15,0,0,0,0-30h-4.32V407.8H497a15,15,0,0,0,15-15V15A15,15,0,0,0,497,0ZM30,30H482V299.73H30ZM284.39,454.66H227.61V407.8h56.78v46.86ZM482,377.8H30V329.73H482Z"/><path class="cls-1" d="M226.3,92.87a15,15,0,0,0-15,15v78.36c0,5.24-1.5,12-13.23,17.93a26.11,26.11,0,0,1-12,2.7h0a23.33,23.33,0,0,1-13-3.65c-9.1-5.81-11-11-11-16.9V107.87a15,15,0,0,0-30,0v78.44c0,17.48,8.35,31.67,24.81,42.19A53.28,53.28,0,0,0,186,236.86h.08A56.11,56.11,0,0,0,211.57,231c24.57-12.38,29.73-31.15,29.73-44.72V107.87a15,15,0,0,0-15-15Z"/><path class="cls-1" d="M373.55,95.61a15,15,0,0,0-20.9,3.62l-27.88,39.58L296.93,99.24a15,15,0,1,0-24.54,17.26l34,48.36-34.07,48.37a15,15,0,0,0,24.53,17.27l27.88-39.57,27.83,39.56a15,15,0,0,0,24.54-17.26l-34-48.36,34.07-48.36a15,15,0,0,0-3.62-20.9Z"/></g></g></svg>