<svg xmlns="http://www.w3.org/2000/svg" viewBox="0 0 480 480"><defs><style>.cls-1{fill:#fff;}</style></defs><g id="Camada_2" data-name="Camada 2"><g id="Outline"><path class="cls-1" d="M480,360V24A24,24,0,0,0,456,0H24A24,24,0,0,0,0,24V360a24,24,0,0,0,24,24H182.56l-13.34,80H136a8,8,0,0,0,0,16H344a8,8,0,0,0,0-16H310.78l-13.34-80h68.62l69.59,69.59a24,24,0,0,0,33.94,0h0a24,24,0,0,0,0-33.94L433.94,384H456A24,24,0,0,0,480,360ZM305.54,300.86l11.31-11.32,33.94,33.94L339.48,334.8ZM291.78,292l-21.86-5.46a23.88,23.88,0,0,1-17.56-17.89l-9.69-42,42,9.69a23.88,23.88,0,0,1,17.89,17.56L308,275.78Zm32.3-17.85-6-24.1a39.83,39.83,0,0,0-29.81-29.28L233.8,208.21a8,8,0,0,0-9.59,6,7.82,7.82,0,0,0,0,3.6l12.56,54.44A39.86,39.86,0,0,0,244.32,288H16V80H464V288H337.94ZM24,16H456a8,8,0,0,1,8,8V64H16V24A8,8,0,0,1,24,16ZM294.56,464H185.44l13.34-80h82.44ZM24,368a8,8,0,0,1-8-8V304H273.83l16.3,4.08L350.06,368Zm434.27,74.27a8,8,0,0,1-11.31,0h0l-96.17-96.16,11.32-11.31L458.27,431A8,8,0,0,1,458.27,442.27ZM353.94,304H464v56a8,8,0,0,1-8,8H417.94Z"/><path class="cls-1" d="M256,320H224a8,8,0,0,0,0,16h32a8,8,0,0,0,0-16Z"/><circle class="cls-1" cx="40" cy="40" r="8"/><circle class="cls-1" cx="72" cy="40" r="8"/><circle class="cls-1" cx="104" cy="40" r="8"/><path class="cls-1" d="M88,112h16a8,8,0,0,0,0-16H88a8,8,0,0,0,0,16Z"/><path class="cls-1" d="M136,112h16a8,8,0,0,0,0-16H136a8,8,0,0,0,0,16Z"/><path class="cls-1" d="M56,256H48v-8a8,8,0,0,0-16,0v16a8,8,0,0,0,8,8H56a8,8,0,0,0,0-16Z"/><path class="cls-1" d="M104,256H88a8,8,0,0,0,0,16h16a8,8,0,0,0,0-16Z"/><path class="cls-1" d="M152,256H136a8,8,0,0,0,0,16h16a8,8,0,0,0,0-16Z"/><path class="cls-1" d="M200,96H184a8,8,0,0,0,0,16h8v8a8,8,0,0,0,16,0V104A8,8,0,0,0,200,96Z"/><path class="cls-1" d="M200,144a8,8,0,0,0-8,8v16a8,8,0,0,0,16,0V152A8,8,0,0,0,200,144Z"/><path class="cls-1" d="M200,192a8,8,0,0,0-8,8v16a8,8,0,0,0,16,0V200A8,8,0,0,0,200,192Z"/><path class="cls-1" d="M200,240a8,8,0,0,0-8,8v8h-8a8,8,0,0,0,0,16h16a8,8,0,0,0,8-8V248A8,8,0,0,0,200,240Z"/><path class="cls-1" d="M40,128a8,8,0,0,0,8-8v-8h8a8,8,0,0,0,0-16H40a8,8,0,0,0-8,8v16A8,8,0,0,0,40,128Z"/><path class="cls-1" d="M40,176a8,8,0,0,0,8-8V152a8,8,0,0,0-16,0v16A8,8,0,0,0,40,176Z"/><path class="cls-1" d="M40,224a8,8,0,0,0,8-8V200a8,8,0,0,0-16,0v16A8,8,0,0,0,40,224Z"/><path class="cls-1" d="M280,176H232a8,8,0,0,0,0,16h48a8,8,0,0,0,0-16Z"/><path class="cls-1" d="M440,176H312a8,8,0,0,0,0,16H440a8,8,0,0,0,0-16Z"/><path class="cls-1" d="M440,208H328a8,8,0,0,0,0,16H440a8,8,0,0,0,0-16Z"/><path class="cls-1" d="M440,96H232a8,8,0,0,0-8,8v48a8,8,0,0,0,8,8H440a8,8,0,0,0,8-8V104A8,8,0,0,0,440,96Zm-8,48H240V112H432Z"/><path class="cls-1" d="M176,136a8,8,0,0,0-8-8H72a8,8,0,0,0-8,8v96a8,8,0,0,0,8,8h96a8,8,0,0,0,8-8Zm-16,88H80V144h80Z"/></g></g></svg>