<svg xmlns="http://www.w3.org/2000/svg" viewBox="0 0 464.93 406.1"><defs><style>.cls-1{fill:#fff;}</style></defs><g id="Camada_2" data-name="Camada 2"><g id="Camada_1-2" data-name="Camada 1"><g id="Camada_2-2" data-name="Camada 2"><g id="Capa_1" data-name="Capa 1"><path class="cls-1" d="M464.84,348.8v-.2c0-.2-.1-.5-.1-.7s0-.1-.1-.2c-.1-.3-.2-.5-.3-.8v-.1a6.63,6.63,0,0,0-.4-.8h0L268.15,3.8c0-.1-.1-.1-.1-.2s-.21-.3-.3-.4-.1-.2-.2-.3-.21-.2-.21-.3l-.29-.3c-.11-.1-.11-.2-.21-.2l-.29-.3c-.11-.1-.21-.1-.21-.2s-.2-.2-.29-.2a.53.53,0,0,1-.3-.2c-.09-.1-.2-.1-.3-.2s-.2-.1-.3-.2a.37.37,0,0,0-.3-.1.76.76,0,0,1-.4-.2.37.37,0,0,0-.3-.1c-.1,0-.3-.1-.4-.1a.34.34,0,0,1-.3-.1c-.1,0-.3-.1-.4-.1a.34.34,0,0,1-.3-.1H204.84a2.41,2.41,0,0,0-.8.1h-.2a4.77,4.77,0,0,0-1.7.5c-.1,0-.1.1-.2.1a4.23,4.23,0,0,1-.69.3s-.11,0-.11.1a7.09,7.09,0,0,0-1.39,1.1l-.11.1-.5.5c0,.1-.1.1-.1.2-.2.2-.3.5-.5.7h0L1,345.9a7.75,7.75,0,0,0,0,7.5l28.3,49h0c.2.3.3.5.5.8h0c.2.2.4.5.6.7l.1.1c.21.2.4.3.61.5l.1.1a2,2,0,0,0,.79.5,2.61,2.61,0,0,0,.8.4h.1a7,7,0,0,0,2.9.6h393.3a7.32,7.32,0,0,0,6.5-3.8l28.3-49v-.1a2.86,2.86,0,0,0,.4-.8h0c.1-.3.2-.5.3-.8,0-.1,0-.1.1-.2a1.51,1.51,0,0,0,.1-.7v-.2c0-.3.1-.6.1-.8h0A1.39,1.39,0,0,0,464.84,348.8ZM35.74,383.7l-19.6-34L205,22.5,361.15,293.1H322L211.44,101.8v-.1c-.1-.1-.19-.3-.3-.4s-.1-.2-.2-.2l-.3-.3c-.1-.1-.1-.2-.2-.2l-.3-.3-.3-.3-.2-.2a1.62,1.62,0,0,0-.39-.3c-.11-.1-.11-.1-.2-.1s-.3-.2-.4-.3h-.1c-.11,0-.11-.1-.2-.1a.79.79,0,0,1-.4-.2.41.41,0,0,0-.3-.1c-.1,0-.2-.1-.3-.1s-.3-.1-.4-.1-.2-.1-.3-.1-.3-.1-.4-.1a.34.34,0,0,1-.3-.1.58.58,0,0,1-.4-.1h-1.8a.41.41,0,0,0-.3.1c-.1,0-.3.1-.4.1s-.2.1-.3.1-.2.1-.4.1-.2.1-.4.1-.2.1-.3.1a.76.76,0,0,0-.4.2c-.1.1-.1.1-.2.1H201c-.1.1-.3.2-.4.3s-.1.1-.2.1-.3.2-.4.3l-.2.2-.3.3-.2.2c-.1.1-.1.2-.2.3l-.3.3c-.1.1-.1.2-.2.2s-.2.3-.3.4v.1Zm268.81-90.6H162l71.31-123.5Zm120.29,98.1H48.74L205,120.6l19.61,34L114.14,345.9a7,7,0,0,0-1,3.8,7.54,7.54,0,0,0,7.5,7.5h49.6a7.5,7.5,0,1,0,0-15h-36.6l19.6-34h216.6l19.6,34H172.34c-4.1,0,3.5,3.4,3.5,7.5s-7.6,7.5-3.5,7.5h272.1Zm-18-49L218,15h39.3l187.3,327.1h-37.7Z"/></g></g></g></g></svg>