<svg xmlns="http://www.w3.org/2000/svg" viewBox="0 0 92.41 92.42"><defs><style>.cls-1{fill:#fff;}.cls-2{fill:tomato;}.cls-3{opacity:0.3;}</style></defs><g id="Camada_2" data-name="Camada 2"><g id="Camada_1-2" data-name="Camada 1"><g id="dough"><path class="cls-1" d="M46.84,65.18a19,19,0,0,0,18-22.35l27-3.76a46.7,46.7,0,0,1,.54,7.14A46.2,46.2,0,0,1,47,92.41Z"/><path class="cls-2" d="M64.9,42.91a19,19,0,0,0-7.53-12.06l16.1-22A46.13,46.13,0,0,1,91.89,39.26C84.5,40.27,74,41.69,64.9,42.91Z"/><path class="cls-2" d="M46.21,0A46,46,0,0,1,73.47,8.9l-16.1,22A19,19,0,0,0,33,32.54L13.17,13.91A46.07,46.07,0,0,1,46.21,0Z"/><g class="cls-3"><path d="M46.21,0A46,46,0,0,1,73.47,8.9l-16.1,22A19,19,0,0,0,33,32.54L13.17,13.91A46.07,46.07,0,0,1,46.21,0Z"/></g><path class="cls-2" d="M33.18,32.4A19,19,0,0,0,30.58,57L8.5,72.91a46.2,46.2,0,0,1,5-59.36Z"/><path class="cls-2" d="M8.5,72.91,30.58,57a19,19,0,0,0,15.63,8.2h.63L47,92.41h-.81A46.15,46.15,0,0,1,8.5,72.91Z"/><g class="cls-3"><path d="M8.5,72.91,30.58,57a19,19,0,0,0,15.63,8.2h.63L47,92.41h-.81A46.15,46.15,0,0,1,8.5,72.91Z"/></g></g></g></g></svg>