<svg xmlns="http://www.w3.org/2000/svg" viewBox="0 0 440.67 384.99"><defs><style>.cls-1,.cls-5{fill:#272727;}.cls-1{opacity:0.4;}.cls-2{fill:#ffad97;}.cls-3{fill:#373737;}.cls-4{fill:#ffc5b3;}.cls-6{fill:#383838;}.cls-13,.cls-7{fill:#fff;}.cls-10,.cls-20,.cls-25,.cls-8{fill:#edcd00;}.cls-9{fill:#43439b;}.cls-10{stroke:#b29000;}.cls-10,.cls-17,.cls-20,.cls-25{stroke-miterlimit:10;}.cls-10,.cls-25{stroke-width:0.25px;}.cls-11{fill:#b29000;}.cls-12{fill:#147c77;}.cls-13{opacity:0.7;isolation:isolate;}.cls-14,.cls-17{fill:#fafafa;}.cls-15{fill:#e0e0e0;}.cls-16{fill:#f5f5f5;}.cls-17{stroke:#ebebeb;stroke-width:0.79px;}.cls-18{fill:#ebebeb;}.cls-19{opacity:0.3;}.cls-20,.cls-25{stroke:#fff;}.cls-20{stroke-width:0.28px;}.cls-21{opacity:0.3;}.cls-22{fill:#263238;}.cls-23{fill:#455a64;}.cls-24{opacity:0.2;}</style></defs><g id="Camada_2" data-name="Camada 2"><g id="Camada_1-2" data-name="Camada 1"><g id="mulher"><path class="cls-1" d="M74.57,211.32c37.2,10.63,57.6-18.43,32.58-26.36C67.9,172.56,51.38,204.76,74.57,211.32Z"/><path class="cls-2" d="M82.45,128c-.83-2.19,13.44-3.86,13.44-3.86s0,10.64.42,15.12c.58,6.77.45,10-1.5,19.08-.87,4-2,19.27-1.66,24.64.42,7.86,4,11.58,5.28,13.52s-3.45,3.78-6.42.95-3.27-3.39-4.94-4.27-1.11-3-1-7.46c.1-3.43-1.39-14.87-2-22.2-.81-10.41,1.47-10.64,1.31-15.9A78.09,78.09,0,0,0,82.45,128Z"/><path class="cls-3" d="M84.72,188v-.06a2.16,2.16,0,0,1,.09-.27h0a6.71,6.71,0,0,1,1.26-1.95s.71,6.3,4.41,8.9c4.13,2.9,6,3.33,7.94,1.88a41.75,41.75,0,0,0,3.27,4c1.22,1.35.2,2.71-3.4,2.45a9,9,0,0,1-6.13-3c-1.59-2-2.81-4.2-4.29-5.52-.23-.2-.42-.39-.62-.57h0c-.11,1.67-.06,2.74-.14,3.94-.35.56-.89.42-1.31,0-.24-1.33.07-2.55-.67-5A9.08,9.08,0,0,1,84.72,188Z"/><path class="cls-4" d="M71.44,133.66c-.83-2.2,13.44-3.86,13.44-3.86s0,10.64.42,15.12c.58,6.76.45,10-1.5,19.07-.87,4-2,19.28-1.66,24.65.42,7.86,4,11.58,5.28,13.52s-3.45,3.78-6.42,1-3.27-3.39-4.94-4.28-1.11-3-1-7.45c.1-3.43-1.39-14.87-2-22.21-.81-10.41,1.47-10.63,1.31-15.9A78.07,78.07,0,0,0,71.44,133.66Z"/><path class="cls-3" d="M73.75,193.48v-.06c0-.17.09-.27.09-.27h0a6.59,6.59,0,0,1,1.26-1.94s.7,6.29,4.4,8.89c4.13,2.9,6,3.33,7.94,1.89a40.52,40.52,0,0,0,3.28,4c1.22,1.36.19,2.72-3.41,2.46a9.11,9.11,0,0,1-6.13-3c-1.58-2-2.81-4.21-4.28-5.53l-.63-.57h0c-.11,1.66-.06,2.73-.14,3.94-.35.55-.88.42-1.3,0-.25-1.33.07-2.56-.68-5A9.08,9.08,0,0,1,73.75,193.48Z"/><path class="cls-5" d="M108.71,82.16c-.49-.8-1-1.57-1.46-2.29-3.71-5.61-8.86-18.3-15.59-20.77-6.9-2.53-8.15,2.3-8.15,2.3L100,89A16.14,16.14,0,0,0,108.71,82.16Z"/><path class="cls-6" d="M77.81,50.06s-3.33,3.74-4.44,12.41-.79,11.07-.79,11.07,7.43.92,9.1-2.88S77.81,50.06,77.81,50.06Z"/><path class="cls-5" d="M99.27,103.84a69.29,69.29,0,0,1,1,11.33c.18,9-.93,27.15-.93,27.15s-2.19,3.09-7.61,4.6c-3.61,1-9.63,1.24-13.79-.36-.92-4-1.73-10.1-1.73-10.1-.25,2.85-1.48,6.85-1.56,9.5a8.23,8.23,0,0,1-3.84-2.07s-.7-7.33-1.4-15.26c-.67-7.62-.3-14.71,3-23C77.53,92.75,99,96.85,99.27,103.84Z"/><path class="cls-7" d="M68.1,74.83C68.79,70,79.82,63.42,79.82,63.42s1.81,5.4,3.5,6.72a43.59,43.59,0,0,1,4.54,4.8h0a36.62,36.62,0,0,0-2-9.39c-.53-1.43.27-5.64.27-5.64s.67-.17,1.64-.34c1.46,1.61,4.33,5.9,5.88,7.68s5.92,7.66,4.57,13.27A61.47,61.47,0,0,0,96.6,94c.14,2.72,3,11.34,3,11.34s-2.84,7.08-13.26,5.46A30.37,30.37,0,0,1,73,104.91s1.87-11.81,1.62-16.68A13,13,0,0,1,68.1,74.83Z"/><path class="cls-3" d="M87.89,64.64s2.39,6.78,4.6,12.76,2.19,22.61,2.83,25.08c1.06,4,4,5.61,5.89,4.22,0,0-4.45-19.5-3-26.19s-.14-8.37-4.69-14.4-4.43-4.91-4.43-4.91Z"/><path class="cls-5" d="M89.11,62.47c1.76,2.37,5.09,6.89,5.09,6.89L92.89,71.2a7,7,0,0,1,2,1.84c0,3-.93,11.57-.93,11.57a59.73,59.73,0,0,0-6.74-17.42c-1.58-2.55-.66-2.59-.66-2.59S88.29,62.38,89.11,62.47Z"/><path class="cls-2" d="M86.64,60.55a44,44,0,0,0,1.25,7.76,1.54,1.54,0,0,1-1.27,1.8c-1.28.23-3.83,0-4.63-.59-3.62-2.9-4.17-4.43-4.17-4.43s.74-3.38.83-4.61c.14-2,0-8.7,0-8.7Z"/><path class="cls-8" d="M88,69.34A8.31,8.31,0,0,1,88.28,72c-.16,1.08-.86,1.44-2,.58a5.44,5.44,0,0,1-1.55-2.13A2.58,2.58,0,0,1,88,69.34Z"/><path class="cls-8" d="M87.9,72.06a24.7,24.7,0,0,1,3.17,7.26,155.91,155.91,0,0,1,3.48,15.9,13,13,0,0,1-2.17,4.27l-3.5-3L86.8,72.64Z"/><path class="cls-7" d="M87.79,63.42s1.12.81,2,4.76a6,6,0,0,1-.51,4.24l-3-3.33a8.94,8.94,0,0,0,.43-5.67C86.44,62.08,87.79,63.42,87.79,63.42Z"/><path class="cls-4" d="M80.14,43.35c3-2.57,10.45-3.73,13.58,3.85C97,55.14,90.2,65.63,86.21,64.12,84,63.27,79.45,61.19,77.93,57,76.22,52.28,77.78,45.34,80.14,43.35Z"/><path class="cls-3" d="M77.63,63.42a43,43,0,0,1,9.48,19.35A116.33,116.33,0,0,1,89.69,99.2c.34,6.48-.69,12-3.18,14-7.52,5.86-16.67-3-16.67-3s3.64-12.26,3-16S67.46,73.87,69,71.2,77.63,63.42,77.63,63.42Z"/><path class="cls-5" d="M78.35,62.47s-.3,3.23,3.64,7.64c6.05,6.75,5.9,17.1,5.9,17.1L80,77.21l1.35-2.93-3.11-.19a16.73,16.73,0,0,1-2.73-8.41C75.5,63.39,78.35,62.47,78.35,62.47Z"/><path class="cls-7" d="M85.19,74.38a26.25,26.25,0,0,0,1.11-5.29s-5.39-2.49-7.82-5.29C78.12,67.19,80.78,72.76,85.19,74.38Z"/><path class="cls-9" d="M65.36,110.18s2,1.48,4.2-.78,3.32-4.37,2.12-5.51-3.19-1.33-5.44.66A4.62,4.62,0,0,0,65.36,110.18Z"/><path class="cls-5" d="M71.84,68.81c-2.48-.27-5.92,5.33-10.19,12.78s-5.64,12.25-5.86,16a7.93,7.93,0,0,0,1.52,4c2.1,3.1,5.67,7.23,8,8.6.25-2.38.87-4.27,2.58-5.58a6,6,0,0,1,3.74-.71l-5.28-8.6s6.26-7.2,8.55-13.38C77,76.54,74.87,69.13,71.84,68.81Z"/><path class="cls-6" d="M87.94,49.11s-5.14,6-10.6,7.29c-2.58-5.81-3.08-7.41-1.85-11.09a6.14,6.14,0,0,1,5.82-4.15s4.46-5,10.75-.44c9.15,6.57,2.15,14.34,2.15,14.34S93.89,51.22,87.94,49.11Z"/><path class="cls-4" d="M81.94,55.56a7,7,0,0,0-1.27-1.38c-.57-.43-1.65-.56-2,1.09a2.76,2.76,0,0,0,1.38,3.09Z"/><path class="cls-5" d="M103.3,79c.39,0,16.24-2.13,18.24-2.21-.62,3.33-1.41,4.35,1.55,7.4-1.31,1.68-7.41,2.8-11.62,4-3.3.93-6.06,1.88-8.16,2A3.65,3.65,0,0,1,100,89C96.66,84.83,103.3,79,103.3,79Z"/><polygon class="cls-10" points="174.27 0.27 129 34.87 141.76 43.65 107.89 113.2 79.66 94.24 0.3 254.35 31.14 236.54 84.76 128.76 112.76 147.79 158.07 54.83 169.42 62.52 174.27 0.27"/><polygon class="cls-11" points="181.64 4.55 136.38 39.15 149.13 47.93 115.27 117.48 87.03 98.52 7.67 258.63 38.52 240.82 92.14 133.04 120.14 152.07 165.44 59.11 176.79 66.8 181.64 4.55"/><polygon class="cls-10" points="7.67 258.63 0.3 254.35 79.66 94.24 87.03 98.52 7.67 258.63"/><polygon class="cls-12" points="120.14 152.07 112.76 147.79 91.86 133.59 92.14 133.04 120.14 152.07"/><polygon class="cls-10" points="181.64 4.55 174.27 0.27 129 34.87 136.38 39.15 181.64 4.55"/><polygon class="cls-11" points="129 34.87 136.38 39.15 149.13 47.93 141.76 43.65 129 34.87"/><polygon class="cls-12" points="169.42 62.52 176.79 66.8 165.44 59.11 165.18 59.65 169.42 62.52"/><path class="cls-2" d="M121.33,77.43s1.46-1.63,3-3.05,2.09-3.45,2.69-4.18,1.65.42.77,2.22-1.9,3.9-1.9,3.9l-3.52,7.22S119.45,82.35,121.33,77.43Z"/><path class="cls-4" d="M65.63,108.77A6.54,6.54,0,0,0,67.5,111c1.2.59,2.19.53,3.29,1.12A11.43,11.43,0,0,0,75.74,114a3,3,0,0,0,2.85-4.9c-2.13-2.39-3.1-3.76-4.34-4a14.57,14.57,0,0,1-4.36-1.23C65.63,103.61,65.63,108.77,65.63,108.77Z"/></g><g id="Device"><g id="Laptop"><polygon class="cls-1" points="440.67 361.5 436.24 364.05 287.36 278.14 291.79 275.58 440.67 361.5"/><path class="cls-5" d="M338.17,306.46,151.58,198.78a10.78,10.78,0,0,0-9.74,0l-106,61.14a9.15,9.15,0,0,0,0,16.17L222.43,383.82a10.78,10.78,0,0,0,9.74,0l106-61.19a9.15,9.15,0,0,0,0-16.17Z"/><path class="cls-3" d="M35,260.55c-1.76,1.54-1.47,3.64.88,5L222.47,373.27a9.89,9.89,0,0,0,4.86,1.17v10.5a10,10,0,0,1-4.86-1.16L35.87,276.09A9.09,9.09,0,0,1,35,260.55Z"/><path class="cls-3" d="M232.18,373.28l106-61.2c2.49-1.45,2.67-3.74.49-5.3a9.13,9.13,0,0,1-.47,15.85l-106,61.19a9.82,9.82,0,0,1-4.86,1.16V374.45A10,10,0,0,0,232.18,373.28Z"/><path class="cls-3" d="M324.71,309.56l-5,2.63a5.36,5.36,0,0,1-4.87,0l-173.2-99.95c-1.35-.81-1.35-2,0-2.81l5-2.65a5.4,5.4,0,0,1,4.86,0l173.21,100C326.05,307.53,326.05,308.78,324.71,309.56Z"/><path class="cls-3" d="M139.48,217.08l171.69,97.49c1.33.76,1.42,1.72.26,2.58l-48.15,27.1a5.18,5.18,0,0,1-4.55-.16L87.21,246.69c-1.33-.76-1.43-1.72-.27-2.58l48-27.19A5.12,5.12,0,0,1,139.48,217.08Z"/><path class="cls-5" d="M237.92,301.66l5.37,3a.89.89,0,0,0,.78,0l5.11-2.88c.22-.14.23-.3,0-.44l-5.39-3.05a.85.85,0,0,0-.76,0L238,301.21C237.73,301.36,237.72,301.52,237.92,301.66Zm19.28-4.76-5.38-3a.93.93,0,0,0-.78,0l-5.11,2.88c-.22.15-.23.31,0,.45l5.37,3.05a.92.92,0,0,0,.79,0l5.11-2.88C257.39,297.2,257.4,297,257.2,296.9ZM239.82,287l-9.08-5.17a.93.93,0,0,0-.78,0l-5.11,2.88c-.22.14-.23.3,0,.44l9.1,5.17a.89.89,0,0,0,.78,0l5.17-2.91c.17-.14.15-.29-.07-.41Zm9.51,5.4L244,289.38a.86.86,0,0,0-.78,0l-5.11,2.87c-.23.14-.24.31,0,.44l5.37,3.05a.9.9,0,0,0,.78,0l5.11-2.88c.23-.14.23-.31,0-.44Zm-21.1-12-5.37-3a.89.89,0,0,0-.78,0L217,280.26c-.22.14-.24.31,0,.44l5.37,3.05a.9.9,0,0,0,.78,0l5.11-2.88C228.42,280.76,228.43,280.6,228.23,280.46ZM220.37,276,215,273a.87.87,0,0,0-.77,0l-5.13,2.88c-.2.14-.18.31.06.44l5.38,3.05a.89.89,0,0,0,.78,0l5.11-2.87c.2-.15.18-.32-.06-.45ZM198,288.1l5.38,3a.89.89,0,0,0,.78,0l5.11-2.87c.22-.15.23-.31,0-.45L204,284.81a.89.89,0,0,0-.78,0l-5.11,2.87C197.84,287.8,197.83,288,198,288.1Zm-7.86-4.46,5.39,3.05a.85.85,0,0,0,.76,0l5.13-2.88c.22-.14.23-.3,0-.44l-5.55-3a.89.89,0,0,0-.78,0L190,283.2C189.87,283.35,189.91,283.51,190.17,283.64Zm-7.85-4.46,5.38,3.05a.89.89,0,0,0,.78,0l5.11-2.88c.22-.14.23-.3,0-.44l-5.37-3.05a.92.92,0,0,0-.79,0l-5.11,2.87c-.22.15-.23.31,0,.45Zm-7.86-4.46,5.37,3a.88.88,0,0,0,.79,0l5.11-2.87c.22-.14.23-.31,0-.44l-5.38-3.05a.86.86,0,0,0-.78,0l-5.11,2.88C174.27,274.42,174.26,274.58,174.46,274.72ZM230,297.19l5.38,3.06a.89.89,0,0,0,.78,0l5.11-2.88c.22-.14.23-.3,0-.44l-5.38-3a.89.89,0,0,0-.78,0L230,296.77c-.18.14-.17.3,0,.42Zm-24.17-4.63,12,6.81a.89.89,0,0,0,.78,0l13.15-7.4c.22-.14.23-.3,0-.44l-6.2-3.52a.86.86,0,0,0-.78,0l-7.32,4.11a.9.9,0,0,1-.78,0l-5-2.81a.87.87,0,0,0-.77,0l-5.13,2.88C205.63,292.27,205.61,292.43,205.81,292.56Zm6.75-21-5.37-3.05a.88.88,0,0,0-.79,0l-5.11,2.88c-.22.14-.23.3,0,.43l5.38,3.06a.9.9,0,0,0,.78,0l5.11-2.88C212.75,271.84,212.76,271.68,212.56,271.54Zm-7.86-4.46L199.32,264a.89.89,0,0,0-.78,0l-5.11,2.87c-.2.15-.18.31.06.44l5.37,3.05a.88.88,0,0,0,.77,0l5.13-2.88c.19-.15.15-.31-.1-.44Zm-85.24-24c-.22.14-.23.3,0,.43l5.38,3.06a.89.89,0,0,0,.78,0l5.07-2.88c.22-.14.23-.3,0-.44l-5.37-3.05a.9.9,0,0,0-.78,0Zm22.35-11.66-5.38-3a.82.82,0,0,0-.76,0l-5.13,2.87c-.19.15-.17.31.06.44l5.37,3.06a.89.89,0,0,0,.78,0l5.11-2.88C142.07,231.69,142,231.52,141.81,231.39Zm-16.44,6c-.22.15-.23.31,0,.44l5.37,3.06a.89.89,0,0,0,.78,0l5.12-2.87c.22-.15.23-.31,0-.44l-5.35-3.06a.93.93,0,0,0-.78,0Zm-9.78,13,5.37,3a.87.87,0,0,0,.77,0l5.12-2.88c.21-.15.18-.31-.06-.44l-5.37-3.05a.89.89,0,0,0-.78,0l-5.11,2.88c-.21.14-.19.31,0,.44Zm-7.91-4.91c-.22.15-.23.31,0,.44L113,249a.89.89,0,0,0,.78,0L119,246.1c.22-.14.23-.3,0-.44l-5.37-3a.86.86,0,0,0-.78,0Zm42-9.6-5.37-3a.92.92,0,0,0-.79,0l-5.18,2.88c-.22.14-.23.3,0,.44l5.37,3a.88.88,0,0,0,.79,0l5.11-2.88C149.81,236.15,149.85,236,149.67,235.85ZM189,258.17l-5.37-3.05a.88.88,0,0,0-.79,0L177.68,258c-.22.14-.23.31,0,.44l5.38,3a.9.9,0,0,0,.78,0l5.11-2.87C189.14,258.47,189.15,258.31,189,258.17Zm-31.42-17.84-5.37-3.05a.86.86,0,0,0-.78,0l-5.12,2.88c-.22.14-.23.3,0,.43l5.38,3.06a.89.89,0,0,0,.78,0l5.2-2.91c.18-.15.16-.3-.06-.43Zm39.28,22.31-5.37-3.05a.9.9,0,0,0-.78,0l-5.11,2.88c-.22.14-.23.3,0,.44l5.37,3.06a.86.86,0,0,0,.78,0l5.11-2.87c.24-.15.25-.32,0-.46Zm-15.72-8.92-5.38-3.06a.85.85,0,0,0-.76,0l-5.13,2.88c-.19.14-.17.31.06.44l5.37,3.05a.89.89,0,0,0,.78,0l5.12-2.87c.22-.16.19-.33-.06-.46Zm-7.85-4.47-5.32-3.07a.89.89,0,0,0-.78,0L162,249c-.22.14-.23.31,0,.44l5.37,3.05a.9.9,0,0,0,.78,0l5.12-2.87c.2-.15.19-.31,0-.45Zm-7.86-4.46-5.38-3a.89.89,0,0,0-.78,0l-5.11,2.87c-.2.15-.18.32.06.45l5.37,3.05a.87.87,0,0,0,.77,0l5.13-2.87c.22-.15.2-.33-.06-.46Zm-6.63,21,5.37,3.05a.92.92,0,0,0,.79,0L170,266c.22-.15.23-.31,0-.45l-5.38-3.05a.9.9,0,0,0-.78,0l-5.11,2.88c-.2.13-.21.29,0,.42Zm115.79,41-5.32-3.07a.87.87,0,0,0-.77,0l-5.13,2.88c-.22.14-.23.3,0,.44l5.38,3.05a.89.89,0,0,0,.78,0l5.11-2.88c.21-.14.2-.31,0-.44Zm-9.5-5.4-5.39-3.05a.82.82,0,0,0-.76,0l-5.13,2.87c-.19.15-.17.31.06.44l5.37,3.06a.86.86,0,0,0,.78,0l5.11-2.87c.22-.15.2-.32,0-.46Zm17.36,9.86L277,308.19a.86.86,0,0,0-.78,0L271.13,311c-.22.14-.23.31,0,.44l5.38,3.06a.89.89,0,0,0,.78,0l5.18-2.9c.19-.15.18-.31,0-.44Zm-70.53-24.36,5.38,3.05a.86.86,0,0,0,.78,0l5.11-2.88c.2-.14.18-.3-.06-.43l-5.37-3.06a.88.88,0,0,0-.79,0l-5.11,2.87c-.18.14-.16.3.06.42Zm78.43,29.26c.22-.14.24-.31,0-.44L285,312.65a.9.9,0,0,0-.78,0l-5.11,2.87c-.22.15-.23.31,0,.45l5.37,3.05a.89.89,0,0,0,.78,0ZM166.61,270.27l5.38,3.05a.86.86,0,0,0,.78,0l5.11-2.88c.2-.14.18-.3-.06-.43L172.45,267a.84.84,0,0,0-.77,0l-5.13,2.87c-.18.14-.16.3.06.42ZM263,325l5.37,3a.9.9,0,0,0,.78,0l5.11-2.88c.22-.14.23-.31,0-.44l-5.37-3.05a.86.86,0,0,0-.78,0L263,324.53c-.21.14-.22.3,0,.43Zm.19-9,5.37,3.05a.89.89,0,0,0,.78,0l5.11-2.88c.22-.14.23-.3,0-.44l-5.37-3.05a.86.86,0,0,0-.78,0l-5.11,2.88c-.23.13-.28.29-.12.42Zm19.2,4.65c.2-.15.18-.31-.06-.44l-5.37-3.06a.92.92,0,0,0-.79,0L271,320c-.22.14-.24.3,0,.44l5.38,3.05a.83.83,0,0,0,.78,0Zm1.72.94L270.89,329c-.18.15-.16.31.06.44l5.38,3.05a.86.86,0,0,0,.78,0l13.15-7.4c.22-.14.23-.3,0-.44l-5.38-3.05a1.43,1.43,0,0,0-1,0Zm-17.42-10.31-5.37-3a.89.89,0,0,0-.78,0l-5.11,2.87c-.22.15-.24.31,0,.45l5.39,3.05a.85.85,0,0,0,.76,0l5.13-2.87c.16-.16.12-.32-.13-.44ZM207.51,277.7l-5.37-3.05a.86.86,0,0,0-.78,0l-5.11,2.87c-.22.14-.23.31,0,.44l5.37,3.05a.9.9,0,0,0,.78,0l5-2.85c.23-.15.21-.33,0-.47Zm47.67,42.36c-.2.14-.17.31.06.44l5.38,3.05a.86.86,0,0,0,.78,0l4.9-2.87c.22-.14.24-.31,0-.44L261,317.21a.82.82,0,0,0-.76,0Zm-40-37.89-5.37-3.05a.86.86,0,0,0-.78,0L204,282c-.22.15-.23.31,0,.44l5.37,3.06a.86.86,0,0,0,.78,0l5.11-2.87C215.42,282.47,215.44,282.3,215.23,282.17Zm-88-34.66c-.2.14-.18.31.06.44l5.38,3.05a.89.89,0,0,0,.78,0l5.11-2.88c.2-.14.18-.31-.06-.43l-5.38-3a.85.85,0,0,0-.76,0ZM144.52,242,139.14,239a.86.86,0,0,0-.78,0l-5.11,2.87c-.2.15-.18.31.06.44l5.37,3.05a.86.86,0,0,0,.78,0l5.12-2.87C144.78,242.31,144.75,242.15,144.52,242Zm-9.34,10.39,5.37,3.05a.9.9,0,0,0,.78,0l5.11-2.88c.22-.14.24-.3,0-.44l-5.48-3a.89.89,0,0,0-.78,0L135.1,252C134.91,252.12,134.94,252.28,135.18,252.41Zm7.86,4.46,5.38,3.05a.86.86,0,0,0,.78,0l5.11-2.88c.22-.14.23-.3,0-.44L149,253.57a.86.86,0,0,0-.78,0l-5.11,2.87c-.22.15-.24.31,0,.45Zm7.86,4.46,5.38,3.05a.89.89,0,0,0,.76,0l5.13-2.88c.19-.15.17-.31-.06-.44L156.74,258a.86.86,0,0,0-.78,0l-5.12,2.87c-.21.15-.2.31,0,.44Zm1.48-14.85-5.37-3a1,1,0,0,0-.79,0l-5,2.88c-.22.15-.23.31,0,.44l5.38,3a.9.9,0,0,0,.78,0l5.11-2.88c.2-.15.18-.31,0-.44Zm7.86,4.46-5.39-3.05a.82.82,0,0,0-.76,0L149,250.73c-.19.15-.16.31.06.44l5.37,3.06a.86.86,0,0,0,.78,0l5.11-2.87c.2-.15.19-.31,0-.44Zm31.42,17.84-5.44-3a.92.92,0,0,0-.79,0l-5.11,2.88c-.22.14-.23.31,0,.44l5.38,3.05a.93.93,0,0,0,.78,0l5.11-2.88c.24-.14.28-.31.1-.45Zm-7.86-4.45-5.38-3.06a.89.89,0,0,0-.78,0l-5.11,2.87c-.2.15-.18.31.06.44l5.37,3.05a.92.92,0,0,0,.79,0l5.11-2.88c.2-.15.18-.31-.06-.44Zm15.72,8.92-5.39-3.05a.82.82,0,0,0-.76,0L188.24,273c-.22.14-.23.3,0,.44l5.37,3.06a.88.88,0,0,0,.79,0l5.2-2.89c.18-.14.16-.3,0-.42ZM168.09,255.4l-5.38-3.05a.89.89,0,0,0-.78,0l-5.11,2.87c-.22.15-.23.31,0,.45l5.38,3.05a.89.89,0,0,0,.78,0l5.11-2.88c.22-.14.23-.3,0-.44Zm7.86,4.46-5.37-3.05a.86.86,0,0,0-.78,0l-5.11,2.88c-.22.14-.24.3,0,.43l5.37,3.06a.89.89,0,0,0,.78,0l5.11-2.88c.21-.14.21-.3,0-.44Zm-52.53-5,5.37,3.05a.9.9,0,0,0,.78,0l5.11-2.88c.22-.14.23-.3,0-.44l-5.37-3.05a.89.89,0,0,0-.78,0l-5.12,2.88c-.22.14-.23.3,0,.44Zm5.47-24.6,5.11-2.87c.22-.15.23-.31,0-.45l-5.37-3.05a.89.89,0,0,0-.78,0l-5.11,2.88c-.22.14-.24.31,0,.44l5.37,3.1A.89.89,0,0,0,128.89,230.22Zm-5.15,6.17,5.11-2.88c.22-.14.23-.3,0-.44l-8.28-4.7a.82.82,0,0,0-.76,0l-5.13,2.87c-.21.14-.22.31,0,.44l8.28,4.7a.81.81,0,0,0,.78,0ZM139,226l5.11-2.87c.22-.15.23-.31,0-.45l-6.61-3.75a.86.86,0,0,0-.78,0l-5.11,2.87c-.22.14-.24.31,0,.44l6.61,3.76A.9.9,0,0,0,139,226Zm5.15,2.88c-.22.14-.23.31,0,.44l5.38,3.05a.86.86,0,0,0,.78,0l5.11-2.88c.22-.14.23-.3,0-.44L150,226a.86.86,0,0,0-.78,0Zm-26.32,13.28,5.13-2.88c.19-.15.17-.31-.06-.44l-10.3-5.87a.86.86,0,0,0-.78,0l-5.11,2.87c-.22.14-.23.31,0,.44l10.3,5.87a1,1,0,0,0,.8,0Zm-11.76,2.4,5.11-2.87c.22-.15.23-.31,0-.45l-6.61-3.75a.86.86,0,0,0-.78,0l-5.11,2.88c-.22.14-.23.3,0,.44l6.63,3.75a.92.92,0,0,0,.71,0ZM202.51,262c-.22.14-.24.31,0,.44l5.37,3.05a.93.93,0,0,0,.78,0l5.11-2.88c.22-.15.23-.31,0-.45l-5.37-3.05a.86.86,0,0,0-.78,0Zm-15.71-8.92c-.22.14-.23.31,0,.44l5.37,3.05a.89.89,0,0,0,.78,0l5.11-2.88c.22-.14.23-.3,0-.44l-5.46-3a.93.93,0,0,0-.78,0Zm-34.87-19.79c-.23.15-.24.31,0,.44l5.37,3.06a.82.82,0,0,0,.76,0l5.13-2.87c.2-.15.17-.31-.06-.44l-5.37-3.05a.86.86,0,0,0-.78,0Zm42.69,24.25c-.22.14-.24.3,0,.44L200,261a.86.86,0,0,0,.78,0l5.11-2.87c.23-.14.24-.31,0-.44l-5.37-3.05a.86.86,0,0,0-.78,0Zm-15.7-8.92c-.22.14-.24.3,0,.44l5.39,3a.85.85,0,0,0,.76,0l5.13-2.87c.18-.15.16-.31-.06-.44l-5.37-3.06a.92.92,0,0,0-.79,0Zm-74.2-1.53c.22-.15.23-.31,0-.45l-8.27-4.69a.87.87,0,0,0-.77,0l-5.13,2.88c-.19.14-.17.31.06.44l8.26,4.69a.86.86,0,0,0,.78,0Zm62.91-4.87c-.19.14-.17.31.06.44l5.38,3a.86.86,0,0,0,.78,0l5.11-2.87c.2-.15.18-.31-.06-.44l-5.37-3a.87.87,0,0,0-.77,0Zm-7.84-4.42c-.22.14-.23.31,0,.44l5.37,3.05a.86.86,0,0,0,.78,0l5.11-2.87c.22-.14.23-.31,0-.44l-5.37-3.06a.86.86,0,0,0-.78,0Zm90.49,92c.22-.14.23-.31,0-.44L237,321.8a.88.88,0,0,0-.79,0l-5.11,2.87c-.22.14-.23.31,0,.44l13.24,7.52a.86.86,0,0,0,.78,0Zm-17.36-9.86c.18-.15.16-.31-.06-.44l-5.37-3.05a.88.88,0,0,0-.79,0l-5.11,2.88c-.22.14-.23.3,0,.44l5.39,3.05a.87.87,0,0,0,.77,0ZM131.28,259.28l5.37,3.05a.86.86,0,0,0,.78,0l5.12-2.87c.22-.15.23-.31,0-.44L137.18,256a.85.85,0,0,0-.76,0l-5.13,2.88C131.08,259,131.08,259.14,131.28,259.28ZM217.19,311c.22-.14.23-.31,0-.44l-5.37-3a.9.9,0,0,0-.78,0L206,310.32c-.22.14-.24.3,0,.44l5.37,3.06a.86.86,0,0,0,.78,0Zm40.95,23.23c.2-.15.18-.31-.06-.44l-5.37-3.06a.89.89,0,0,0-.78,0l-5.12,2.88c-.22.14-.23.31,0,.44l5.37,3.05a.82.82,0,0,0,.76,0Zm2.74,7.33L274,334.14c.23-.15.24-.31,0-.45l-5.37-3.05a.89.89,0,0,0-.78,0L254.77,338c-.22.14-.23.31,0,.44l5.37,3.05a.8.8,0,0,0,.76.05Zm-73-47.23c.22-.15.23-.31,0-.45l-6.61-3.75a.86.86,0,0,0-.78,0L175.4,293c-.22.14-.23.3,0,.43l6.61,3.76a.9.9,0,0,0,.78,0Zm19.85,11.25c.22-.14.23-.3,0-.44l-8.39-4.7a.82.82,0,0,0-.76,0l-5.13,2.87c-.23.14-.24.31,0,.44l8.26,4.7a.9.9,0,0,0,.78,0Zm-38-21.59c.2-.15.18-.32-.06-.45l-44.24-25.12a.87.87,0,0,0-.77,0l-5.13,2.88c-.2.14-.18.31.06.44L163.8,286.8a.89.89,0,0,0,.78,0ZM123,257.42c.22-.14.23-.3,0-.44l-6.63-3.76a.87.87,0,0,0-.77,0l-5.13,2.88c-.18.14-.16.31.06.44l6.61,3.76a.88.88,0,0,0,.79,0Zm55.83,31.7c.18-.15.16-.31-.06-.44l-6.61-3.76a.9.9,0,0,0-.78,0l-5.11,2.88c-.22.14-.23.31,0,.44l6.62,3.76a.91.91,0,0,0,.77,0Zm-64.93-36.87c.22-.14.23-.3,0-.44l-6.69-3.74a.9.9,0,0,0-.78,0l-5.11,2.88c-.22.14-.23.31,0,.44l6.61,3.76a.9.9,0,0,0,.78,0ZM197,299.45c.22-.14.23-.31,0-.44l-6.61-3.76a.9.9,0,0,0-.78,0l-5.11,2.88c-.22.14-.23.3,0,.44l6.61,3.76a.86.86,0,0,0,.78,0Zm28.12,16c.22-.14.23-.3,0-.44l-5.39-3.05a.85.85,0,0,0-.76,0l-5.13,2.88c-.19.15-.17.31.06.44l5.37,3.05a.86.86,0,0,0,.78,0Zm22,9.6,5.38,3.05a.83.83,0,0,0,.78,0l5.11-2.87c.22-.14.23-.31,0-.44L253,321.72a1,1,0,0,0-.79,0l-5.11,2.88c-.24.14-.26.31-.06.45Zm-1.28-18.9,5.39,3.05a.84.84,0,0,0,.77,0l5.09-2.86c.19-.15.17-.31-.06-.44l-5.38-3.05a.89.89,0,0,0-.78,0l-5.11,2.88c-.2.15-.19.32,0,.45ZM194.17,295l15.71,8.92a.89.89,0,0,0,.78,0l5.11-2.88c.23-.14.24-.31,0-.44L200,291.68a.92.92,0,0,0-.79,0l-5.11,2.88c-.2.15-.18.31.06.44Zm45,25.15c-.23.14-.24.31,0,.44l5.37,3.05a.89.89,0,0,0,.78,0l5.12-2.87c.2-.15.17-.31-.06-.44L245,317.27a.89.89,0,0,0-.76,0Zm8.09-4.08,5.38,3.05a.89.89,0,0,0,.78,0l5.11-2.88c.22-.14.23-.3,0-.44l-5.48-3a1,1,0,0,0-.79,0l-5.11,2.88c-.16.13-.15.28.05.41Zm-60.93-25.52,5.38,3.05a.89.89,0,0,0,.78,0l5.11-2.88c.22-.14.23-.3,0-.44l-5.38-3a.89.89,0,0,0-.78,0l-5.11,2.87C186.15,290.21,186.14,290.37,186.34,290.51Zm35.52,19.75c-.22.14-.24.31,0,.44l5.37,3.05a.9.9,0,0,0,.78,0l5.11-2.87c.22-.15.23-.31,0-.45l-5.44-3a.92.92,0,0,0-.79,0Zm-74.8-42.06,5.37,3.06a.91.91,0,0,0,.79,0l5.11-2.87c.22-.15.23-.31,0-.44L153,264.92a.87.87,0,0,0-.78,0l-5.11,2.88c-.24.14-.28.3-.1.44Zm7.86,4.46,5.38,3a.85.85,0,0,0,.76,0l5.08-2.88c.2-.15.18-.31-.06-.44l-5.38-3.05a.89.89,0,0,0-.78,0l-5.11,2.87c-.21.15-.19.31,0,.44Zm-15.8-8.91,5.38,3.05a.9.9,0,0,0,.78,0l5.11-2.88c.22-.14.23-.31,0-.44l-5.37-3.05a.92.92,0,0,0-.79,0l-5.11,2.88C138.93,263.45,138.92,263.61,139.12,263.75Zm31.44,17.84,5.37,3.05a.88.88,0,0,0,.79,0l5.11-2.88c.22-.14.23-.3,0-.43l-5.39-3.06a.87.87,0,0,0-.77,0l-5.13,2.87c-.21.15-.22.31,0,.45Zm-7.86-4.46,5.37,3.05a.9.9,0,0,0,.78,0l5.11-2.87c.22-.15.23-.31,0-.45l-5.37-3.05a.89.89,0,0,0-.78,0l-5.11,2.88c-.22.14-.23.3,0,.43Zm15.71,8.92,5.37,3.06a.89.89,0,0,0,.78,0l5.11-2.87c.22-.15.23-.31,0-.44l-5.37-3.05a.9.9,0,0,0-.78,0l-5.11,2.88c-.22.14-.23.3,0,.44Zm111.33,23.39c-.22.15-.23.31,0,.44l5.37,3.06a.93.93,0,0,0,.78,0l1.37-.77c.19-.14.17-.31-.06-.44l-5.37-3.05a.89.89,0,0,0-.78,0Zm-42.82-22.19c-.22.15-.23.31,0,.45l5.39,3.05a.85.85,0,0,0,.76,0l5.13-2.88c.2-.15.18-.31-.06-.44l-5.37-3a.89.89,0,0,0-.78,0Zm15.67,8.92c-.23.14-.24.31,0,.44l5.38,3.05a.86.86,0,0,0,.78,0l5.11-2.87c.2-.15.18-.32-.06-.44l-5.25-3.06a.89.89,0,0,0-.78,0Zm-25.3-14.37c-.21.15-.18.31.06.44l5.37,3.05a.86.86,0,0,0,.78,0l5.11-2.88c.23-.14.24-.3,0-.43L243.27,279a.87.87,0,0,0-.77,0Zm17.46,9.91c-.22.14-.23.3,0,.44l5.37,3.05a.86.86,0,0,0,.78,0l5.11-2.87c.22-.15.23-.31,0-.44l-5.37-3.06a.93.93,0,0,0-.78,0Zm-33.17-18.83c-.21.15-.18.31.06.44l5.37,3.05a.85.85,0,0,0,.76,0l5.13-2.88c.22-.14.23-.3,0-.44L227.56,270a.89.89,0,0,0-.78,0Zm7.86,4.46c-.22.14-.23.3,0,.44l5.37,3.05a.88.88,0,0,0,.79,0l5.11-2.87c.22-.15.23-.31,0-.44l-5.38-3.06a.93.93,0,0,0-.78,0ZM274,300.52c-.22.14-.23.3,0,.44l5.38,3.05a.89.89,0,0,0,.78,0l1.35-.77c.22-.14.23-.31,0-.44l-5.37-3.05a.92.92,0,0,0-.79,0Zm23.56,13.38c-.23.14-.24.31,0,.44l5.37,3.05a.89.89,0,0,0,.78,0l1.36-.76c.22-.15.23-.31,0-.45l-5.37-3a.9.9,0,0,0-.78,0Zm-10.74,6c-.2.15-.18.31.06.44l5.37,3a.87.87,0,0,0,.77,0l5.12-2.87c.23-.15.24-.31,0-.45l-5.37-3.05a.89.89,0,0,0-.78,0Zm-31.93,9.55,5.37,3.05a.89.89,0,0,0,.78,0l5.11-2.88c.22-.14.23-.31,0-.44l-5.37-3.05a.9.9,0,0,0-.78,0L254.87,329c-.22.15-.2.32,0,.46Zm27-24.51c-.23.14-.24.3,0,.44l5.37,3.05a.87.87,0,0,0,.77,0l1.37-.76c.22-.15.23-.31,0-.45L284,304.21a.87.87,0,0,0-.77,0Zm-68.11-36.56c-.22.14-.23.3,0,.44l5.38,3.05a.89.89,0,0,0,.78,0L225,269c.22-.15.23-.31,0-.45l-5.37-3a.92.92,0,0,0-.79,0Z"/><polygon class="cls-3" points="139.28 283.23 108.63 300.92 109.72 301.54 162.25 331.86 191.78 314.81 192.89 314.17 139.28 283.23"/><polygon class="cls-3" points="162.25 331.86 191.29 315.1 139.28 285.05 110.21 301.82 162.25 331.86"/><path class="cls-5" d="M338.17,306.46,151.58,198.73a10.72,10.72,0,0,1-4.87-8.43V43.9c0-3.1,1.61-4.38,4.13-5.81s5-2.55,7.69-1L345.12,144.78a10.79,10.79,0,0,1,4.87,8.47V299.64c0,3.08,0,5.32-2.38,7C345,308.46,342.24,309.21,338.17,306.46Z"/><path class="cls-3" d="M343,303.65V157.23a9.93,9.93,0,0,0-1.42-4.77l7-4a10,10,0,0,1,1.42,4.79V299.63c0,3.09,0,5.33-2.38,7-2.59,1.83-5.37,2.57-9.44-.17C340.84,308,343,306.78,343,303.65Z"/><path class="cls-3" d="M338.17,148.86,151.58,41.12c-2.69-1.55-4.87-.29-4.87,2.81V190.35a10.72,10.72,0,0,0,4.87,8.43L338.17,306.46c2.69,1.55,4.87.3,4.87-2.81V157.29A10.79,10.79,0,0,0,338.17,148.86Z"/><path class="cls-3" d="M338.48,159.53V292.91c0,1.86-1.31,2.62-2.92,1.69L155.65,190.76a6.43,6.43,0,0,1-2.92-5.06V52.32c0-1.87,1.31-2.62,2.92-1.69L335.56,154.47A6.51,6.51,0,0,1,338.48,159.53Z"/><path class="cls-8" d="M156.71,51.24V183.72a6.43,6.43,0,0,0,2.92,5.06L338.48,292V159.53a6.51,6.51,0,0,0-2.92-5.06Z"/><path class="cls-13" d="M156.71,51.24V183.72a6.43,6.43,0,0,0,2.92,5.06L338.48,292V159.53a6.51,6.51,0,0,0-2.92-5.06Z"/><g id="Window"><path class="cls-14" d="M167.41,183.61a6,6,0,0,1-1.49-3.72V76.76L328,170V272.69c-.13,2.11-1.32,2.8-3.22,1.85l-156-89.77a5.13,5.13,0,0,1-1.32-1.11Z"/><path class="cls-15" d="M327.54,170.26v102c-.12,2-1.23,2.61-3,1.75l-156-89.83a4.24,4.24,0,0,1-1.13-.94,4.46,4.46,0,0,1-1.09-2.9V77.44l161.22,92.85m.8-.45L165.53,76.08V179.41a7.52,7.52,0,0,0,1.88,4.6,5.81,5.81,0,0,0,1.52,1.28l156,89.83c2,1,3.28.27,3.41-2V169.84Z"/><polygon class="cls-8" points="165.53 76.08 165.53 90.8 328.33 184.54 328.33 169.81 165.53 76.08"/><path class="cls-14" d="M267.71,140.69v3.17a2.24,2.24,0,0,0,1,1.75l50,28.79v-5.53l-50-28.79C268.12,139.79,267.75,140,267.71,140.69Z"/><path class="cls-5" d="M324.12,172a2.19,2.19,0,0,1,1,1.74v3.17c0,.68-.4.9-1,.61l-5.38-3.1v-5.53Z"/><path class="cls-14" d="M323.74,175.88l-.59-.86a2.15,2.15,0,0,0,.09-.66,3.79,3.79,0,0,0-.54-1.91,2.83,2.83,0,0,0-.88-1c-.77-.3-1.21.12-1.19,1.12a3.79,3.79,0,0,0,.55,1.9,3.66,3.66,0,0,0,.37.54,2,2,0,0,0,.5.42c.47.24.82.19,1-.13l.6.88.07.08c.12.16.24.2.25.1a.8.8,0,0,0-.19-.47h0Zm-1.92-1.06a1.33,1.33,0,0,1-.42-.49,2.44,2.44,0,0,1-.33-1.27c0-.82.36-1.17,1-.94a.67.67,0,0,1,.26.21,1.45,1.45,0,0,1,.16.18,2.58,2.58,0,0,1,.33,1.28c0,.88-.35,1.25-1,1Z"/><path class="cls-3" d="M165.53,69c.13-2.24,1.39-3,3.4-2l156,89.85a7.52,7.52,0,0,1,3.41,5.92v7.13L165.53,76.08Z"/><path class="cls-8" d="M308.18,151.4c-.94-.47-1.54-.13-1.6.93a3.54,3.54,0,0,0,1.6,2.76c.93.44,1.51.08,1.55-1A3.4,3.4,0,0,0,308.18,151.4Z"/><path class="cls-8" d="M313.74,154.59c-.94-.47-1.53-.12-1.59.93a3.51,3.51,0,0,0,1.59,2.75c.94.48,1.53.14,1.6-.91A3.46,3.46,0,0,0,313.74,154.59Z"/><ellipse class="cls-8" cx="319.36" cy="159.71" rx="1.31" ry="2.25" transform="translate(-37.06 181.2) rotate(-30.02)"/><path class="cls-16" d="M167.41,183.61a6,6,0,0,1-1.49-3.72V91.53l31.14,17.89v91.63l-28.33-16.28a5.13,5.13,0,0,1-1.32-1.11Z"/><path class="cls-15" d="M196.67,109.63v90.72l-28.13-16.19a4.24,4.24,0,0,1-1.13-.94,4.46,4.46,0,0,1-1.09-2.9V92.17l30.35,17.46m.79-.45L165.53,90.81v88.6a7.52,7.52,0,0,0,1.88,4.6,5.81,5.81,0,0,0,1.52,1.28l28.53,16.42Z"/><path class="cls-15" d="M176.12,104.29l15.28,8.8a2.15,2.15,0,0,1,1,1.73v1.33c0,.67-.4.9-1,.62L176.12,108a2.17,2.17,0,0,1-1-1.74v-1.32C175.16,104.23,175.53,104,176.12,104.29Z"/><path class="cls-8" d="M171.91,103v1.33c0,.67-.4.9-1,.6l-1.15-.65a2.22,2.22,0,0,1-1-1.75v-1.33c0-.67.41-.9,1-.61l1.15.66A2.22,2.22,0,0,1,171.91,103Z"/><path class="cls-15" d="M176.12,111.61l15.28,8.8a2.16,2.16,0,0,1,1,1.74v1.32c0,.67-.4.9-1,.62l-15.28-8.8a2.16,2.16,0,0,1-1-1.74v-1.32C175.16,111.55,175.53,111.33,176.12,111.61Z"/><path class="cls-8" d="M171.91,110.37v1.33c0,.67-.4.9-1,.6l-1.15-.65a2.22,2.22,0,0,1-1-1.75v-1.33c0-.67.41-.9,1-.61l1.15.66A2.2,2.2,0,0,1,171.91,110.37Z"/><path class="cls-15" d="M176.12,119l15.28,8.8a2.17,2.17,0,0,1,1,1.74v1.32c0,.67-.4.9-1,.62l-15.28-8.8a2.15,2.15,0,0,1-1-1.73v-1.33C175.16,118.9,175.53,118.67,176.12,119Z"/><path class="cls-8" d="M171.91,117.71V119c0,.67-.4.9-1,.6l-1.15-.65a2.22,2.22,0,0,1-1-1.75v-1.33c0-.67.41-.9,1-.61l1.15.66A2.23,2.23,0,0,1,171.91,117.71Z"/><path class="cls-15" d="M176.12,143.29l15.28,8.8a2.17,2.17,0,0,1,1,1.74v1.33c0,.67-.4.9-1,.61L176.12,147a2.19,2.19,0,0,1-1-1.74v-1.33C175.16,143.24,175.53,143,176.12,143.29Z"/><path class="cls-8" d="M171.91,142.05v1.33c0,.68-.4.9-1,.61l-1.15-.66a2.22,2.22,0,0,1-1-1.75v-1.33c0-.67.41-.89,1-.6l1.15.65A2.3,2.3,0,0,1,171.91,142.05Z"/><path class="cls-15" d="M176.12,149.79l15.28,8.8a2.17,2.17,0,0,1,1,1.74v1.33c0,.67-.4.9-1,.61l-15.28-8.79a2.19,2.19,0,0,1-1-1.74v-1.33C175.16,149.74,175.53,149.51,176.12,149.79Z"/><path class="cls-8" d="M171.91,148.55v1.33c0,.68-.4.9-1,.61l-1.15-.66a2.21,2.21,0,0,1-1-1.75V146.8c0-.67.41-.89,1-.6l1.15.65A2.07,2.07,0,0,1,171.91,148.55Z"/><path class="cls-15" d="M176.12,156.29l15.28,8.8a2.19,2.19,0,0,1,1,1.74v1.33c0,.67-.4.9-1,.62L176.12,160a2.19,2.19,0,0,1-1-1.74v-1.33C175.16,156.24,175.53,156,176.12,156.29Z"/><path class="cls-8" d="M171.91,155.05v1.33c0,.68-.4.9-1,.61l-1.15-.66a2.21,2.21,0,0,1-1-1.75v-1.32c0-.67.4-.9,1-.61l1.15.65A2.3,2.3,0,0,1,171.91,155.05Z"/><polygon class="cls-8" points="175.1 125.79 175.1 128.08 177.09 128.08 175.1 125.79"/><path class="cls-15" d="M178.3,129a1.51,1.51,0,0,0,.68,1.16l12.76,7.37c.4.2.66.06.68-.39a1.47,1.47,0,0,0-.68-1.16L179,128.58C178.57,128.37,178.31,128.53,178.3,129Z"/><polygon class="cls-8" points="175.1 129.47 175.1 131.77 177.09 131.76 175.1 129.47"/><path class="cls-15" d="M178.3,132.68a1.48,1.48,0,0,0,.68,1.16l12.76,7.38c.4.2.66.05.68-.39a1.47,1.47,0,0,0-.68-1.17L179,132.3C178.58,132.1,178.33,132.24,178.3,132.68Z"/><polygon class="cls-8" points="175.1 133.16 175.1 135.45 177.09 135.45 175.1 133.16"/><path class="cls-15" d="M178.3,136.37a1.48,1.48,0,0,0,.68,1.15l12.76,7.38c.4.2.66,0,.68-.39a1.48,1.48,0,0,0-.68-1.17L179,136C178.58,135.78,178.33,135.92,178.3,136.37Z"/><polygon class="cls-8" points="175.1 136.84 175.1 139.13 177.09 139.13 175.1 136.84"/><path class="cls-15" d="M178.3,140.05a1.51,1.51,0,0,0,.68,1.16l12.76,7.37c.4.2.66.06.68-.39a1.5,1.5,0,0,0-.68-1.17L179,139.67C178.58,139.47,178.32,139.6,178.3,140.05Z"/><path class="cls-8" d="M207,126.39v19.19a2.76,2.76,0,0,0,1.26,2.18l21.12,12.15c.76.39,1.23.12,1.28-.72V143.43a2.79,2.79,0,0,0-1.26-2.19l-12.25-7a2.79,2.79,0,0,1-1.26-2.19v-.5a2.8,2.8,0,0,0-1.26-2.18l-6.35-3.64C207.56,125.3,207.08,125.56,207,126.39Z"/><path class="cls-15" d="M211.19,154v1.23a2.08,2.08,0,0,0,.94,1.63L228,166c.57.31.95.13,1-.49v-1.23a2.21,2.21,0,0,0-1-1.69l-15.84-9.12C211.57,153.16,211.22,153.37,211.19,154Z"/><path class="cls-8" d="M236.39,143.38v19.19a2.82,2.82,0,0,0,1.26,2.19l21.12,12.15c.75.37,1.21.1,1.26-.72V160.4a2.8,2.8,0,0,0-1.26-2.18l-12.25-7.06a2.76,2.76,0,0,1-1.26-2.18v-.5A2.79,2.79,0,0,0,244,146.3l-6.31-3.61C236.93,142.3,236.45,142.56,236.39,143.38Z"/><path class="cls-15" d="M240.54,171v1.23a2.22,2.22,0,0,0,1,1.7L257.38,183c.56.27.91.07.94-.56v-1.23a2,2,0,0,0-.94-1.62l-15.89-9.18C240.93,170.15,240.58,170.35,240.54,171Z"/><path class="cls-8" d="M207,164.92v19.19a2.76,2.76,0,0,0,1.26,2.18l21.12,12.16c.74.37,1.21.1,1.26-.74V182a2.79,2.79,0,0,0-1.26-2.18l-12.25-7.05a2.75,2.75,0,0,1-1.26-2.17v-.51a2.77,2.77,0,0,0-1.26-2.17l-6.35-3.66C207.56,163.85,207.09,164.11,207,164.92Z"/><path class="cls-15" d="M211.19,192.56v1.23a2.06,2.06,0,0,0,.94,1.62L228,204.53c.58.32.95.14,1-.49v-1.23a2.21,2.21,0,0,0-1-1.69L212.13,192C211.57,191.72,211.22,191.93,211.19,192.56Z"/><path class="cls-8" d="M236.39,181.94v19.19a2.8,2.8,0,0,0,1.26,2.19l21.12,12.15c.75.38,1.22.11,1.26-.72V199a2.8,2.8,0,0,0-1.26-2.19l-12.25-7.06a2.76,2.76,0,0,1-1.26-2.18v-.5a2.75,2.75,0,0,0-1.26-2.17l-6.31-3.66C236.93,180.87,236.45,181.12,236.39,181.94Z"/><path class="cls-15" d="M240.54,209.55v1.23a2.2,2.2,0,0,0,1,1.7l15.84,9.12c.56.27.91.07.94-.56v-1.23a2.06,2.06,0,0,0-.94-1.62l-15.84-9.12C241,208.75,240.59,208.93,240.54,209.55Z"/><path class="cls-8" d="M266.1,159.85V179a2.77,2.77,0,0,0,1.26,2.18l21.12,12.16c.75.37,1.21.1,1.26-.73V176.87a2.77,2.77,0,0,0-1.26-2.18l-12.26-7a2.77,2.77,0,0,1-1.26-2.17V165a2.77,2.77,0,0,0-1.26-2.18l-6.34-3.65C266.63,158.8,266.16,159.05,266.1,159.85Z"/><path class="cls-15" d="M269.91,188v1.23a2.06,2.06,0,0,0,.94,1.63L286.72,200c.56.27.91.07.95-.55v-1.23a2.11,2.11,0,0,0-.95-1.64l-15.87-9.1C270.31,187.21,270,187.4,269.91,188Z"/><path class="cls-8" d="M295.12,177.36v19.2a2.82,2.82,0,0,0,1.26,2.19l21.12,12.16c.74.37,1.21.1,1.26-.73V194.39a2.75,2.75,0,0,0-1.26-2.17l-12.26-7.09a2.82,2.82,0,0,1-1.26-2.19v-.5a2.79,2.79,0,0,0-1.26-2.18l-6.34-3.65C295.63,176.24,295.16,176.52,295.12,177.36Z"/><path class="cls-15" d="M299.27,205v1.27a2.2,2.2,0,0,0,1,1.7l15.84,9.11c.55.28.9.08.94-.54v-1.27a2.1,2.1,0,0,0-.94-1.64l-15.84-9.12C299.69,204.17,299.32,204.35,299.27,205Z"/><path class="cls-15" d="M269.91,226.53v1.23a2,2,0,0,0,.94,1.62l15.87,9.16c.56.28.91.08.95-.54v-1.23a2.11,2.11,0,0,0-.95-1.64L270.88,226C270.31,225.72,270,225.91,269.91,226.53Z"/><path class="cls-17" d="M270.3,200l16.42,9.45a3,3,0,0,1,1.36,2.36v19c-.05.89-.56,1.18-1.36.78l-16.43-9.46a3,3,0,0,1-1.36-2.35v-19C269,199.88,269.49,199.59,270.3,200Z"/><path class="cls-8" d="M276.43,200.72,272,198.66c-1-.4-1.6-.11-1.66.77v4.12a2.85,2.85,0,0,0,1.66,2.29l4.47,2.06c1,.4,1.6.11,1.67-.77V203A3,3,0,0,0,276.43,200.72Z"/><path class="cls-18" d="M271.56,214.54l13.67,7.88a1.55,1.55,0,0,1,.68,1.17v.25c0,.46-.28.6-.68.4l-13.68-7.88a1.55,1.55,0,0,1-.68-1.17v-.28C270.9,214.47,271.16,214.33,271.56,214.54Z"/><path class="cls-18" d="M271.56,218.22l13.67,7.84a1.55,1.55,0,0,1,.68,1.17v.26c0,.46-.28.6-.68.4L271.55,220a1.57,1.57,0,0,1-.68-1.18v-.27C270.91,218.14,271.17,218,271.56,218.22Z"/><path class="cls-18" d="M271.56,207.54l13.67,7.88a1.55,1.55,0,0,1,.68,1.17v.25c0,.46-.28.6-.68.4l-13.68-7.88a1.55,1.55,0,0,1-.68-1.17v-.28C270.9,207.47,271.16,207.33,271.56,207.54Z"/><path class="cls-18" d="M271.56,211.22l13.67,7.84a1.55,1.55,0,0,1,.68,1.17v.26c0,.46-.28.6-.68.4L271.55,213a1.57,1.57,0,0,1-.68-1.18v-.27C270.91,211.14,271.17,211,271.56,211.22Z"/><path class="cls-15" d="M298.64,243.06v1.23a2.1,2.1,0,0,0,.94,1.64l15.85,9.13c.55.27.9.06.94-.56v-1.23a2,2,0,0,0-.94-1.62l-15.85-9.13C299,242.24,298.67,242.44,298.64,243.06Z"/><path class="cls-17" d="M299,216.55,315.47,226a3,3,0,0,1,1.36,2.36v19c-.05.9-.56,1.19-1.36.78L299,238.7a3,3,0,0,1-1.36-2.36v-19C297.73,216.44,298.23,216.14,299,216.55Z"/><path class="cls-18" d="M300.29,231.08,314,239a1.62,1.62,0,0,1,.69,1.2v.26c0,.45-.29.59-.69.37l-13.67-7.86a1.57,1.57,0,0,1-.68-1.18v-.27C299.63,231,299.88,230.87,300.29,231.08Z"/><path class="cls-18" d="M300.29,234.76,314,242.63a1.6,1.6,0,0,1,.69,1.19v.27c0,.45-.29.59-.69.37l-13.67-7.86a1.57,1.57,0,0,1-.68-1.18v-.27C299.63,234.7,299.88,234.55,300.29,234.76Z"/><path class="cls-18" d="M300.29,223.08,314,231a1.62,1.62,0,0,1,.69,1.2v.26c0,.45-.29.59-.69.37l-13.67-7.86a1.57,1.57,0,0,1-.68-1.18v-.27C299.63,223,299.88,222.87,300.29,223.08Z"/><path class="cls-18" d="M300.29,226.76,314,234.63a1.6,1.6,0,0,1,.69,1.19v.27c0,.45-.29.59-.69.37l-13.67-7.86a1.57,1.57,0,0,1-.68-1.18v-.27C299.63,226.7,299.88,226.55,300.29,226.76Z"/><path class="cls-8" d="M306.43,216.72,302,214.66c-1-.4-1.6-.11-1.66.77v4.12a2.85,2.85,0,0,0,1.66,2.29l4.47,2.06c1,.4,1.6.11,1.67-.77V219A3,3,0,0,0,306.43,216.72Z"/></g><polygon class="cls-19" points="251.87 325.6 123.97 252.31 145.77 239.82 273.67 313.11 251.87 325.6"/></g></g><g id="Robô"><path class="cls-20" d="M303.53,217s-1.07-4.41-1.65-4.62a70.09,70.09,0,0,0-7.5.78s-2.25-3.14-2.6-3.55-1.08.62-.84,1.09,1.88,5.05,2.91,5.2a24.17,24.17,0,0,0,3.61,0l.84,2.81Z"/><path class="cls-1" d="M339.57,374.32c37.2,10.63,57.6-18.43,32.58-26.36C332.9,335.56,316.38,367.76,339.57,374.32Z"/><path class="cls-7" d="M345.46,351.11l0,0a.18.18,0,0,1,0,.27.17.17,0,0,1-.17,0,.18.18,0,0,1-.08-.24.19.19,0,0,1,.25-.08"/><path class="cls-8" d="M318.7,233.15l18.46,3.14-1,9.05s-21.66-3.06-23.88-5.52-12.93-17.74-12.93-17.74l6.86-3.08Z"/><path class="cls-7" d="M313.22,240.14a6.26,6.26,0,0,1,.17-1,7,7,0,0,1,.49-1.48,9,9,0,0,1,.95-1.66,9.14,9.14,0,0,1,1.3-1.41,8.75,8.75,0,0,1,1.25-.92,5.5,5.5,0,0,1,.94-.47,1.18,1.18,0,0,1,.36-.12s-.49.25-1.22.73a8.94,8.94,0,0,0-1.19.94,10.34,10.34,0,0,0-1.25,1.4,9.36,9.36,0,0,0-.94,1.62,8.8,8.8,0,0,0-.54,1.4,13.13,13.13,0,0,0-.32,1.41A1.34,1.34,0,0,1,313.22,240.14Z"/><path class="cls-7" d="M315.34,237.22l1.92.47c1.63.35,3.87.88,6.37,1.4s4.76.94,6.41,1.24l1.95.33a5.62,5.62,0,0,1,.71.16,4.45,4.45,0,0,1-.73,0c-.46,0-1.13-.14-2-.27-1.65-.24-3.92-.64-6.42-1.16s-4.75-1.09-6.37-1.52l-1.89-.55a2.82,2.82,0,0,1-.69-.24A5.42,5.42,0,0,1,315.34,237.22Z"/><path class="cls-7" d="M310.82,227c3.47,3.93,6.23,7.19,6.19,7.19s-2.89-3.1-6.36-7-6.2-7.18-6.2-7.18S307.35,223.07,310.82,227Z"/><path class="cls-7" d="M313.16,230.87a.2.2,0,1,1-.31.13l0-.07a.19.19,0,0,1,.27-.07"/><path class="cls-7" d="M324.37,238.11a.12.12,0,0,1,.05,0,.19.19,0,0,1-.05.27.17.17,0,0,1-.17,0,.18.18,0,0,1-.07-.25.17.17,0,0,1,.24-.07"/><path class="cls-7" d="M319,237l0,0a.22.22,0,0,1,0,.3.18.18,0,0,1-.2,0,.19.19,0,0,1-.07-.27.2.2,0,0,1,.27-.07"/><path class="cls-7" d="M310,227.43l0,0a.18.18,0,0,1,0,.27H310a.19.19,0,0,1-.2-.19.14.14,0,0,1,0-.06.19.19,0,0,1,.26-.09"/><path class="cls-7" d="M306.88,223.79a.21.21,0,0,1,.08.19.2.2,0,0,1-.23.16.2.2,0,0,1-.16-.22l0-.07a.19.19,0,0,1,.27-.07"/><g class="cls-21"><path class="cls-7" d="M326.16,234.51c3.48.56,6.26,1.29,6.21,1.6s-3,.11-6.39-.45-6.23-1.28-6.23-1.6S322.67,234,326.16,234.51Z"/></g><path class="cls-7" d="M329.05,239l0,0a.19.19,0,0,1,0,.28.17.17,0,0,1-.17,0,.19.19,0,0,1-.08-.25.19.19,0,0,1,.25-.07"/><path class="cls-22" d="M337.47,247.31a10.21,10.21,0,0,1-4.77-5.16,6.21,6.21,0,0,1,1.06-5.62,4.91,4.91,0,0,1,5.29-1.56"/><path class="cls-23" d="M337,246.68a7.93,7.93,0,0,1-1.06-1.11,6.76,6.76,0,0,1-1.13-2,7.24,7.24,0,0,1-.29-2.81A9.53,9.53,0,0,1,336.2,236a3.22,3.22,0,0,1,1.08-1.09,1.25,1.25,0,0,1,.41-.14h.16a1.6,1.6,0,0,0-.52.22,3.54,3.54,0,0,0-1,1.11,10,10,0,0,0-1.59,4.69,7.07,7.07,0,0,0,.28,2.71,6.94,6.94,0,0,0,1,2,11.12,11.12,0,0,0,1.41,1.56A4,4,0,0,1,337,246.68Z"/><path class="cls-22" d="M306.17,219a1.72,1.72,0,0,0,.57-1.94,2,2,0,0,0-1.53-1.3,4.31,4.31,0,0,0-2.08.16,10.5,10.5,0,0,0-4.91,3.08,3.7,3.7,0,0,0-1,1.64,1.7,1.7,0,0,0,.56,1.72c.72.52,1.72.17,2.52-.2a46.91,46.91,0,0,0,5.83-3.16"/><path class="cls-23" d="M297.71,221.16a6.32,6.32,0,0,1,.62-1,7.91,7.91,0,0,1,6.7-3.3,6.32,6.32,0,0,1,1.15.12,1.85,1.85,0,0,1,.42.11c0,.05-.6-.07-1.59-.07a8.47,8.47,0,0,0-6.56,3.19,10.86,10.86,0,0,0-.9,1.3A1.46,1.46,0,0,1,297.71,221.16Z"/><path class="cls-22" d="M344.42,268.89c.8.22,1.76.45,2.81.66a34,34,0,0,0,3.47.46c1.25,0,2.49.06,3.51,0s2-.14,2.81-.25a9.44,9.44,0,0,1,2.7-.24c0,.14-.9.63-2.54,1.05a21.16,21.16,0,0,1-2.95.51,25,25,0,0,1-3.67,0,25.85,25.85,0,0,1-3.61-.58,18.54,18.54,0,0,1-2.81-.94,6.18,6.18,0,0,1-2.37-1.4C341.85,268,342.82,268.34,344.42,268.89Z"/><path class="cls-22" d="M350.49,271.64c4.47.35,8.13,0,8.16.17s-.86.48-2.34.73a25.38,25.38,0,0,1-11.71-.84c-1.44-.48-2.22-.93-2.22-1.07C342.47,270.29,346,271.29,350.49,271.64Z"/><path class="cls-8" d="M337,217a13.06,13.06,0,0,0,0,2.34c.38,6.61,5.28,9.8,11.84,10.74,3.09.45,6.38.92,8,1.13,3.67.47,16.14,2.69,16.31-10.53s-14.57-15.94-14.57-15.94C344.46,201.58,338,210,337,217Z"/><path class="cls-22" d="M339.81,213.69h0a3.67,3.67,0,0,1,4.33-2.81l18.84,4h0a3.64,3.64,0,0,1,2.79,4.32h0v0a3.64,3.64,0,0,1-4.32,2.79l-18.84-4A3.66,3.66,0,0,1,339.81,213.69Z"/><circle class="cls-7" cx="358.92" cy="218.05" r="1.17"/><circle class="cls-7" cx="345.76" cy="215.25" r="1.17"/><path class="cls-7" d="M352.85,211.36c.08-.24.21-.59.38-1a11.07,11.07,0,0,1,1.8-3.08,6.29,6.29,0,0,1,3-2.08,4.83,4.83,0,0,1,1.07-.21,1.27,1.27,0,0,1,.39,0,9.55,9.55,0,0,0-1.4.35,6.61,6.61,0,0,0-2.81,2.08,12.69,12.69,0,0,0-1.83,3,11.37,11.37,0,0,1-.63,1.32A1,1,0,0,1,352.85,211.36Z"/><path class="cls-7" d="M352,230.37a10,10,0,0,1-.73-.86,7.67,7.67,0,0,1-1.4-3.43,12.68,12.68,0,0,1,.1-3.69l.23-1.1a1.79,1.79,0,0,1,.13-.39,9.61,9.61,0,0,1-.2,1.51,13.86,13.86,0,0,0,0,3.64,8.19,8.19,0,0,0,1.3,3.36,12.77,12.77,0,0,0,.91,1.21A1.92,1.92,0,0,1,352,230.37Z"/><g class="cls-21"><path d="M341.41,227.51A18.31,18.31,0,0,0,348,230s8.17,1.42,12.13,1.68a14.46,14.46,0,0,0,6-.55,7.21,7.21,0,0,0-2.53-3c-3.75-2.81-8.48-3.89-13.1-4.6a29.18,29.18,0,0,0-6.05-.4,11.68,11.68,0,0,0-5.74,1.74A10.24,10.24,0,0,0,341.41,227.51Z"/></g><path class="cls-7" d="M338.53,214a4.31,4.31,0,0,0,.22,1.95,4.48,4.48,0,0,0,2,2.35,13.4,13.4,0,0,0,3.94,1.29l10.67,2.27,3.09.67c1.05.22,2.12.49,3.21.63a4.93,4.93,0,0,0,3.22-.54,4.65,4.65,0,0,0,2-2.57,4.54,4.54,0,0,0-.4-3.31,4.87,4.87,0,0,0-2.4-2.21,9.43,9.43,0,0,0-1.57-.46l-1.59-.37-3.06-.73-5.62-1.4c-1.78-.4-3.41-.9-4.93-1.21a14.69,14.69,0,0,0-2.18-.32,8,8,0,0,0-1.95,0,6,6,0,0,0-2.81,1.15,4.46,4.46,0,0,0-1.27,1.52c-.19.4-.28.63-.28.63v-.17a3.19,3.19,0,0,1,.19-.48,4.44,4.44,0,0,1,1.25-1.57,6.21,6.21,0,0,1,2.9-1.21,7.37,7.37,0,0,1,2,0,16.36,16.36,0,0,1,2.2.29c1.53.31,3.16.82,4.95,1.2l5.62,1.32,3.07.72,1.59.38a8.12,8.12,0,0,1,1.6.46,5.2,5.2,0,0,1,2.53,2.3,4.77,4.77,0,0,1-1.67,6.31,5,5,0,0,1-3.36.56c-1.12-.14-2.19-.42-3.25-.63l-3.07-.67-10.66-2.34a12.79,12.79,0,0,1-4-1.4,4.65,4.65,0,0,1-2-2.46,4.43,4.43,0,0,1-.18-2,3.17,3.17,0,0,1,.17-.69S338.6,213.55,338.53,214Z"/><path class="cls-7" d="M370.13,221.28c-1.59-.79-3-1.14-3-1.23a3.36,3.36,0,0,1,.94.2,12.7,12.7,0,0,1,2.15.82,14.3,14.3,0,0,1,2,1.2,3.37,3.37,0,0,1,.72.64C372.88,223,371.72,222.06,370.13,221.28Z"/><path class="cls-7" d="M357.58,206.62a.2.2,0,0,1,.08.08.19.19,0,0,1-.08.25.17.17,0,0,1-.17,0,.19.19,0,0,1,.17-.33"/><path class="cls-7" d="M355.21,210l.05,0a.2.2,0,0,1-.05.28h-.06a.2.2,0,0,1-.19-.21.43.43,0,0,1,0-.05.2.2,0,0,1,.27-.09"/><path class="cls-7" d="M369.38,219.62l0,0a.2.2,0,0,1,0,.29l-.06,0a.2.2,0,0,1-.2-.2.14.14,0,0,1,0-.07.19.19,0,0,1,.27-.07"/><path class="cls-7" d="M372.31,221.26l0,0a.21.21,0,0,1,0,.3h-.07a.19.19,0,0,1-.19-.2l0-.09a.19.19,0,0,1,.26-.05"/><g class="cls-21"><path class="cls-7" d="M358.15,205.4a28,28,0,0,1,3.79,1.15,19.8,19.8,0,0,1,4.33,2.31,14.91,14.91,0,0,1,3.48,3.52,11.86,11.86,0,0,1,1.7,3.66,8.42,8.42,0,0,1,.28,2.69c0,.65,0,1-.22,1s-.12-1.41-.85-3.43a13,13,0,0,0-1.79-3.29,15.7,15.7,0,0,0-3.26-3.2,27.48,27.48,0,0,0-7.65-3.6,14.24,14.24,0,0,1-3.4-1.22A9.92,9.92,0,0,1,358.15,205.4Z"/></g><g class="cls-21"><path class="cls-7" d="M369.55,224.56c.54-.73,1-1.32,1.34-1.22s.25,1-.38,1.9-1.48,1.22-1.67,1S369,225.29,369.55,224.56Z"/></g><path class="cls-8" d="M369.78,237.08a80.15,80.15,0,0,1-1.41,14.16,26.87,26.87,0,0,1-6.19,12.65,16.36,16.36,0,0,1-12.65,5.43,12.37,12.37,0,0,1-9.83-5.83c-1.81-3.05-2.06-6.74-2.18-10.28-.18-6.62-.24-19.57.65-19.82C354.49,228.78,369.78,237.08,369.78,237.08Z"/><g class="cls-24"><path d="M368.94,238.89a59.48,59.48,0,0,1-3,8.43,19.72,19.72,0,0,1-5.29,7.13,49.54,49.54,0,0,1-4.34,2.89,14.48,14.48,0,0,0-3.94,3.37,6.39,6.39,0,0,0-1.32,4.88c.32,1.71,1.31,3.77,3,3.28a13,13,0,0,0,2.94-1.09,21.4,21.4,0,0,0,3.11-2,22.83,22.83,0,0,0,7-10,34.87,34.87,0,0,0,2-12.48"/></g><path class="cls-7" d="M358.15,261l0,0a.21.21,0,0,1,0,.3h-.07a.19.19,0,0,1-.2-.19.24.24,0,0,1,0-.08.2.2,0,0,1,.27-.06"/><path class="cls-7" d="M352.43,260.78l0,0a.2.2,0,0,1,0,.29.17.17,0,0,1-.14,0,.17.17,0,0,1-.1-.23.18.18,0,0,1,.24-.1"/><path class="cls-7" d="M346.13,254.85l0,0a.21.21,0,0,1,0,.3h-.06a.2.2,0,0,1-.2-.2.19.19,0,0,1,0-.07.21.21,0,0,1,.27-.07"/><path class="cls-7" d="M349,240.23l0,0a.2.2,0,0,1,0,.28H349a.2.2,0,0,1-.2-.2.19.19,0,0,1,0-.07.21.21,0,0,1,.27-.07"/><path class="cls-7" d="M343.13,242.62l.05,0a.19.19,0,0,1-.05.27.14.14,0,0,1-.09,0,.17.17,0,0,1-.16-.19.07.07,0,0,1,0,0,.2.2,0,0,1,.27-.09"/><path class="cls-7" d="M364.65,259.32l0,0a.19.19,0,0,1,0,.28h-.07a.19.19,0,0,1-.2-.19l0-.08a.19.19,0,0,1,.27-.06"/><path class="cls-7" d="M365.59,254.45l.05,0a.2.2,0,0,1-.05.28h-.06a.2.2,0,0,1-.19-.21s0,0,0,0a.19.19,0,0,1,.26-.09"/><path class="cls-7" d="M366,250l0,0a.22.22,0,0,1,0,.3H366a.2.2,0,0,1-.21-.2.19.19,0,0,1,0-.07A.2.2,0,0,1,366,250"/><path class="cls-7" d="M366.43,245.34l0,0a.21.21,0,0,1,0,.3h-.06a.2.2,0,0,1-.2-.2.19.19,0,0,1,0-.07.21.21,0,0,1,.27-.07"/><path class="cls-7" d="M339.67,241.48l0,0a.2.2,0,0,1,0,.28.17.17,0,0,1-.17,0,.18.18,0,0,1-.07-.25.18.18,0,0,1,.24-.08"/><path class="cls-7" d="M345.17,260.35l0,0a.19.19,0,0,1,0,.27l-.07,0a.2.2,0,0,1-.2-.2.19.19,0,0,1,0-.07.21.21,0,0,1,.27-.07"/><path class="cls-7" d="M344.55,265l0,0a.21.21,0,0,1,0,.3h-.05a.21.21,0,0,1-.22-.21.11.11,0,0,1,0-.07.2.2,0,0,1,.27-.07"/><g class="cls-21"><path class="cls-7" d="M355,238.49c7.36.28,13.32-1.07,13.32-.72a11.07,11.07,0,0,1-3.81,1.15,39.84,39.84,0,0,1-4.21.59,44.34,44.34,0,0,1-5.28.14,48.68,48.68,0,0,1-5.27-.49,40.52,40.52,0,0,1-4.22-.88,11,11,0,0,1-3.71-1.41C341.89,236.53,347.61,238.21,355,238.49Z"/></g><path class="cls-7" d="M359,266.64l.62-.65a9.14,9.14,0,0,0,1.79-2.67,12.91,12.91,0,0,0,.72-2.12c.22-.78.45-1.61.67-2.5.47-1.75.92-3.71,1.32-5.77a100.81,100.81,0,0,0,1.55-10.65c.13-1.36.27-2.47.27-3.25v-.88a.81.81,0,0,1,0-.31V239c0,.78-.1,1.86-.2,3.26A93.62,93.62,0,0,1,364.27,253c-.41,2.08-.87,4-1.33,5.79-.24.88-.47,1.71-.71,2.5a12.49,12.49,0,0,1-.74,2.13,9.39,9.39,0,0,1-1.88,2.62l-.66.6-.24.2S358.78,266.72,359,266.64Z"/><path class="cls-7" d="M347.46,260.54c-.54,4.4-1,8-1.09,7.95s.31-3.56.85-8,1-8,1.08-8S348,256.15,347.46,260.54Z"/><path class="cls-7" d="M354.93,232.84c-.17.24-.44.57-.75,1-.64.82-1.54,1.94-2.54,3.16l-.38.45-.07.1h0v.27a5,5,0,0,0-.08,1.07l-.11,1.82a11.65,11.65,0,0,1-.15,1.67,1.7,1.7,0,0,1,0-.45v-3a4.42,4.42,0,0,0,.09-1.09v-.29h0v-.1a.09.09,0,0,1,0-.07h0l.36-.46c1-1.23,1.93-2.32,2.6-3.12.34-.4.61-.72.8-.93a2.5,2.5,0,0,1,.33-.32A1.4,1.4,0,0,1,354.93,232.84Z"/><path class="cls-7" d="M348.47,259.5l1.54.14c1.31.13,3.12.21,5.12.37s3.8.15,5.12.15h1.56a2.62,2.62,0,0,1,.56,0,1.75,1.75,0,0,1-.56,0h-1.56c-1.32,0-3.14,0-5.14-.08s-3.81-.28-5.11-.44c-.66-.08-1.18-.15-1.55-.22a3.47,3.47,0,0,1-.56-.11Z"/><path class="cls-7" d="M338.76,242.59a25.33,25.33,0,0,0,3.16,1.14c1.26.38,2.42.63,3.26.8a9.67,9.67,0,0,1,1.4.29,6.57,6.57,0,0,1-1.4-.12,26.29,26.29,0,0,1-3.3-.75,18.56,18.56,0,0,1-3.16-1.21l-.9-.49a2.65,2.65,0,0,1-.3-.22S338,242.32,338.76,242.59Z"/><circle class="cls-22" cx="349.78" cy="247.47" r="5.24"/><circle class="cls-7" cx="349.14" cy="247.19" r="3.82"/><path class="cls-8" d="M348,247.69V246h0l2-1h0l1.9,1.23c-.1-.08,0,.12,0,.12h0v2.3h0l-2.05,1h0c-.62-.41-1.1-.73-1.41-1l-.48-.35a2.29,2.29,0,0,1,.55.31l1.41.85h-.09l2-1-.07.09v-2.24h0c-.07,0,0,.2,0,.1l-1.89-1.25H350l-2,1V246c-.06.68-.15,1.25-.15,1.64a4.52,4.52,0,0,1-.08.63A4.22,4.22,0,0,1,348,247.69Z"/><g class="cls-24"><path d="M338.23,233.39c16.25-4.75,31.6,3.68,31.6,3.68C345.19,240,338.17,233.39,338.23,233.39Z"/></g><path class="cls-7" d="M345.1,340.27l0,0a.2.2,0,0,1,0,.28.28.28,0,0,1-.18,0,.19.19,0,0,1-.07-.25.19.19,0,0,1,.25-.08"/><path class="cls-8" d="M342.1,272.54c-6.35,0-6,9-6,9a335,335,0,0,0,2.32,35.25,6,6,0,0,0,1.71,4.33,4,4,0,0,0,5.09-.83,11.25,11.25,0,0,0,2.34-5.06,141.13,141.13,0,0,0,4.22-32.41C351.94,276.12,348.45,272.55,342.1,272.54Z"/><g class="cls-24"><path d="M351.32,289.47c.35,5.58-2.46,20.19-2.46,20.19-3-2.38-3.82-6.24-4-10s.41-7.49-.34-11.37-2.6-7.64-2.15-11.56a4.84,4.84,0,0,1,1.58-3.3,2.5,2.5,0,0,1,3.37.11S351.07,285.41,351.32,289.47Z"/></g><path class="cls-7" d="M346.47,288.6v1c-.05.8-.15,2.09-.29,3.61-.28,3-.72,7.23-1.31,11.85s-1.24,8.8-1.74,11.8c-.25,1.51-.47,2.73-.63,3.56l-.19,1a1.4,1.4,0,0,1-.08.34v-.36l.14-1,.55-3.57c.46-3,1.05-7.18,1.68-11.8s1.1-8.81,1.41-11.85l.36-3.59.12-1a.92.92,0,0,1,0-.33S346.49,288.37,346.47,288.6Z"/><path class="cls-22" d="M365.65,277.7c0-2.81-4.82-4.22-4.82-4.22l-13.26-.43c-1.39-.05-3,0-3.87,1.11a4.55,4.55,0,0,0-.39,3.52c.59,3.58,1.24,7.31,3.29,10.3a7.68,7.68,0,0,0,9.24,2.72C359.89,288.68,365.65,280.51,365.65,277.7Z"/><path class="cls-8" d="M344.25,322.76a10.34,10.34,0,0,0-3.37-.29,3.76,3.76,0,0,0-2.81,1.64,5.63,5.63,0,0,0-.35,3.46l3.37,31.09a5,5,0,0,0,1,3c1.31,1.37,3.77.75,4.92-.74a9.36,9.36,0,0,0,1.4-5.38c.5-8.68.19-17.39-.12-26.09a11.18,11.18,0,0,0-.68-4.21,3.88,3.88,0,0,0-3.19-2.53"/><path class="cls-7" d="M346.2,363.63v-.41l.09-1.19c.07-1,.22-2.52.22-4.37.13-3.69.06-8.79-.09-14.43s-.29-10.73-.38-14.44a13.22,13.22,0,0,0-.68-4.28,6.22,6.22,0,0,0-.52-1.07l-.17-.26v0l.19.24a8.36,8.36,0,0,1,.56,1.07,12.31,12.31,0,0,1,.74,4.3c.13,3.72.3,8.79.45,14.44s.18,10.76,0,14.45c-.08,1.84-.19,3.35-.29,4.37,0,.51-.13.92-.13,1.18v.41Z"/><path class="cls-22" d="M340.26,364.82l.68-3.24a3.38,3.38,0,0,1,1.7-2.61,3.55,3.55,0,0,1,2-.28,3.71,3.71,0,0,1,2,.66,3.43,3.43,0,0,1,1.15,2.31,9.94,9.94,0,0,1-.13,2.67"/><path class="cls-8" d="M348.06,365.91s-13.5.56-13.5.09,5.62-1.74,5.62-1.74l7.71-.08Z"/><path class="cls-23" d="M349.63,274.24c-.05.24-.12.51-.19.84s-.16.68-.23,1.13-.1.9-.2,1.4a9.19,9.19,0,0,0-.09,1.59,19.73,19.73,0,0,0,1.11,7.18c.19.45.38.95.59,1.4l.31.65.32.59c.18.38.41.7.57,1a7.11,7.11,0,0,0,.5.72,5,5,0,0,1,.4.62,3.87,3.87,0,0,1-.49-.57,5.9,5.9,0,0,1-.5-.7,10.84,10.84,0,0,1-.64-1l-.32-.59c-.11-.19-.21-.42-.32-.64a15.89,15.89,0,0,1-.63-1.49,18.49,18.49,0,0,1-.9-3.57,20.62,20.62,0,0,1-.23-3.68c0-.56.06-1.11.14-1.6a13.71,13.71,0,0,1,.21-1.41c.07-.42.19-.78.27-1.12a6,6,0,0,1,.24-.83,4.22,4.22,0,0,1,.27-.7A6.66,6.66,0,0,1,349.63,274.24Z"/><path class="cls-7" d="M343.76,299.51l0,0a.22.22,0,0,1,0,.3s0,0-.06,0a.19.19,0,0,1-.19-.2.16.16,0,0,1,0-.09.18.18,0,0,1,.25-.05"/><path class="cls-7" d="M342.61,309.08l.05.05a.19.19,0,0,1-.05.27l-.09,0a.18.18,0,0,1-.16-.2.09.09,0,0,1,0-.05.2.2,0,0,1,.27-.09"/><path class="cls-7" d="M344.88,289.75l0,0a.2.2,0,0,1,0,.29h-.06a.2.2,0,0,1-.19-.2.16.16,0,0,1,0-.09.18.18,0,0,1,.25-.05"/><path class="cls-7" d="M344.88,331.14l0,0a.21.21,0,0,1,0,.3h-.06a.21.21,0,0,1-.19-.21.11.11,0,0,1,0-.08.18.18,0,0,1,.25-.06"/><path class="cls-23" d="M344.29,362.2a28.66,28.66,0,0,0,3.59-.13,3.69,3.69,0,0,1-1,.25,13,13,0,0,1-2.57.12,13.62,13.62,0,0,1-2.54-.43,3.54,3.54,0,0,1-1-.37A30.47,30.47,0,0,0,344.29,362.2Z"/><g class="cls-24"><path d="M348.62,349.27a207.45,207.45,0,0,0-.64-22.85,3.17,3.17,0,0,0-.88-2.25,3.11,3.11,0,0,0-3.13.15,2.89,2.89,0,0,0-1.88,1.74,3.45,3.45,0,0,0,.24,1.62,34,34,0,0,1,1.15,7.5,35.12,35.12,0,0,0,1.12,7.5,11.93,11.93,0,0,0,4.09,6.26"/></g><circle class="cls-22" cx="342.05" cy="321.39" r="5.49"/><path class="cls-23" d="M338.2,321.51a7.53,7.53,0,0,0,3.76.79,16.77,16.77,0,0,0,3.85-.72,11,11,0,0,1,1.57-.42s-.12.06-.39.17-.64.25-1.14.41a13.87,13.87,0,0,1-3.87.78,6.9,6.9,0,0,1-3.85-.87,4.25,4.25,0,0,1-1-.71,3.17,3.17,0,0,1-.3-.34A12.14,12.14,0,0,0,338.2,321.51Z"/><path class="cls-25" d="M395,281.86s.93,5.34,1.44,6.06c2.18,2.07,4.37,4,6.53,5.77,0,0,2,5.11,2.27,5.83s.94.32.73-.36-1.64-6.69-2.53-7.74c-1.05-1.14-2.1-2.2-3.15-3.16l-.73-3.55Z"/><path class="cls-25" d="M369,238.62c3.79,2.22,6.23,3.85,10,6,2.12,1.23,4.8,2.92,6.8,4.33a16.6,16.6,0,0,1,4.13,4.3,28.45,28.45,0,0,1,2.62,5.31,122.26,122.26,0,0,1,6.57,24.48l-4.56-3.6-8.28-21.55-15-9.19-2.45-9.48c-.16-.38-.13-.68.06-.67Z"/><path class="cls-22" d="M368.8,249.55c2.81,1.82,4.38,0,3.51-4.14a19,19,0,0,0-1.69-4.6c-.62-1.22-1.5-2.55-2.23-2.37a.65.65,0,0,0-.47.51C367.12,241.4,367.43,245.19,368.8,249.55Z"/><path class="cls-23" d="M371.1,250.18v.1a.53.53,0,0,1-.22,0,.55.55,0,0,1-.21-.13,1.15,1.15,0,0,1-.27-.27,1.89,1.89,0,0,1-.24-.47l-.2-.49a23,23,0,0,1-1.44-5.16,9,9,0,0,1,.09-4,.62.62,0,0,1,.57-.5.48.48,0,0,1,.34.12.76.76,0,0,0-.29,0,.7.7,0,0,0-.48.57,10.51,10.51,0,0,0,0,4,24.49,24.49,0,0,0,1.36,5,3.58,3.58,0,0,0,.38.87.83.83,0,0,0,.39.4C371,250.2,371.09,250.14,371.1,250.18Z"/><path class="cls-7" d="M386.27,257.93a2.4,2.4,0,0,1,0-.38,9.53,9.53,0,0,1,0-1.07,6.45,6.45,0,0,1,.22-1.35,2.76,2.76,0,0,1,.65-1.16,2.2,2.2,0,0,1,2.08-.49,3.38,3.38,0,0,1,.8.26.87.87,0,0,1,.32.16,7.86,7.86,0,0,0-1-.2,2.32,2.32,0,0,0-2.08.49,2.85,2.85,0,0,0-.65,1.09,5.94,5.94,0,0,0-.24,1.28C386.25,257.36,386.31,258,386.27,257.93Z"/><path class="cls-7" d="M372,247.87s3.17,1.69,7.11,3.94,7.17,4.15,7.19,4.25-3.17-1.69-7.12-4S372,247.93,372,247.87Z"/><path class="cls-7" d="M397.63,281.77a1.08,1.08,0,0,0-.08-.29l-.2-.8c-.16-.68-.4-1.69-.72-2.95-.61-2.47-1.56-6-2.74-9.89-.6-2-1.23-3.85-1.78-5.56s-1.12-3.28-1.6-4.58c-.23-.66-.47-1.27-.66-1.79l-.52-1.35-.33-.85c-.07-.2-.11-.3-.09-.29l.13.3.36.85c.15.38.34.84.53,1.36s.46,1.14.69,1.78c.51,1.33,1.06,2.89,1.65,4.62s1.23,3.66,1.8,5.6q1.53,5,2.69,9.88c.31,1.25.53,2.24.66,2.91l.16.78C397.6,281.59,397.62,281.69,397.63,281.77Z"/><path class="cls-7" d="M383.31,253.35c-.07,0-.09.12,0,.28,0,0,0,0,0,.05s.19.19.23.13a.05.05,0,0,0,0,0,.65.65,0,0,0-.18-.37l0,0"/><path class="cls-7" d="M389.68,257.58c-.08,0-.1.09-.05.23l.05.09c.07.13.17.19.21.14s0-.19-.06-.31a.42.42,0,0,0-.15-.15"/><path class="cls-7" d="M392.58,265.66c-.08,0-.1.09-.05.23l.05.09c.09.14.2.19.23.12a0,0,0,0,0,0,0,.66.66,0,0,0-.17-.37l-.06,0"/><path class="cls-7" d="M379.58,251.11c-.08,0-.09.12,0,.27a.08.08,0,0,0,0,.05c.09.14.19.2.23.14a.07.07,0,0,0,0,0,.61.61,0,0,0-.15-.34l-.07-.05"/><path class="cls-7" d="M375.37,248.54a.51.51,0,0,1-.23-.32l0-.06c0-.11.06-.13.15,0a.6.6,0,0,1,.08.08c.07.14.09.29,0,.32h0"/><path class="cls-22" d="M399.21,283.19a58.42,58.42,0,0,0-4.64-3.91c-.61-.47-1.32-.92-1.51-.44a3,3,0,0,0,.41,1.82,10.81,10.81,0,0,0,1.23,1.85,15.29,15.29,0,0,0,4.1,3.73,1.8,1.8,0,0,0,1.22.35c.35-.08.47-.55.33-1.26a4.76,4.76,0,0,0-1.15-2.14"/><path class="cls-23" d="M393.26,279.74s.41.58,1.07,1.46A17.13,17.13,0,0,0,397,284a5.94,5.94,0,0,0,2.45,1.27c.56.1.84,0,.87.07s0,.12-.19.1a1.66,1.66,0,0,1-.6,0c-1.47-.16-3.41-1.71-5.2-4.14-.26-.36-.52-.75-.77-1.14C393.47,280.09,393.36,279.91,393.26,279.74Z"/><path class="cls-8" d="M360.53,322.29a11.8,11.8,0,0,0-3.34-.5,3.81,3.81,0,0,0-2.92,1.49,5.59,5.59,0,0,0-.56,3.43l1.53,31.23a5,5,0,0,0,.83,3.06c1.22,1.44,3.72.94,5-.46a9.55,9.55,0,0,0,1.75-5.28c1-8.64,1.2-17.35,1.41-26.05a11.5,11.5,0,0,0-.42-4.21,4,4,0,0,0-3-2.71"/><path class="cls-8" d="M358.47,272.67c-6.34,0-6,9-6,9a335.13,335.13,0,0,0,2.28,35.25,5.88,5.88,0,0,0,1.75,4.32,4,4,0,0,0,5.09-.83,11.2,11.2,0,0,0,2.33-5,140.64,140.64,0,0,0,4.21-32.41C368.32,276.25,364.81,272.68,358.47,272.67Z"/><g class="cls-21"><path class="cls-7" d="M363.47,310.75c.49-3.79,1.22-9,1.9-14.75.33-2.88.62-5.63.88-8.13a37.26,37.26,0,0,0,.37-6.59,11,11,0,0,0-1-4.22l-.34-.6c-.08-.15-.17-.3-.26-.44s-.21-.38-.18-.4.15.07.36.26.25.25.37.38l.45.58a10,10,0,0,1,1.4,4.37,32.61,32.61,0,0,1-.13,6.77c-.19,2.56-.45,5.28-.8,8.18-.67,5.77-1.54,11-2.23,14.73a31.26,31.26,0,0,1-1.41,6A34.55,34.55,0,0,1,363.47,310.75Z"/></g><path class="cls-7" d="M359.3,321.57l.07-.37.29-1.4c.26-1.24.61-3,1-5.27.77-4.47,1.58-10.66,2.17-17.55.31-3.44.55-6.73.78-9.72.11-1.47.22-2.89.32-4.21a30.44,30.44,0,0,0,.13-3.7,10,10,0,0,0-.54-3,6.79,6.79,0,0,0-1.06-2A6.19,6.19,0,0,0,361,273a2.27,2.27,0,0,1,.44.27,5.9,5.9,0,0,1,1,1,6.57,6.57,0,0,1,1.12,2,10,10,0,0,1,.58,3,30.81,30.81,0,0,1-.1,3.72l-.31,4.22c-.21,3-.45,6.26-.76,9.7-.59,6.89-1.43,13.1-2.23,17.56-.41,2.24-.79,4-1.07,5.26l-.32,1.4-.1.38v.12A.93.93,0,0,1,359.3,321.57Z"/><path class="cls-7" d="M360.59,360.12l.1-1.08c.08-1,.2-2.31.34-4,.29-3.35.64-8,.92-13.09s.42-9.76.51-13.12c.08-1.66.08-3,.08-4v-1.46a1.21,1.21,0,0,1,0,.38v5.07c0,3.31-.17,8-.43,13.14s-.66,9.75-1,13.09c-.16,1.67-.3,3-.42,3.95a4,4,0,0,0-.12,1.08,2.29,2.29,0,0,1,0,.37S360.58,360.33,360.59,360.12Z"/><circle class="cls-22" cx="359.19" cy="321.51" r="5.49"/><path class="cls-22" d="M355.15,365.37l.19-3.3a3.4,3.4,0,0,1,1.3-2.81,4.36,4.36,0,0,1,4-.2,3.37,3.37,0,0,1,1.54,2.11,25.92,25.92,0,0,1,.25,4.22"/><path class="cls-8" d="M362.45,366.05s-13.44.28-13.52-.19,5.62-1.63,5.62-1.63l7.73.07Z"/><path class="cls-7" d="M362.05,292l0,0a.19.19,0,0,1,0,.28.17.17,0,0,1-.17,0,.19.19,0,0,1-.08-.25.18.18,0,0,1,.25-.07"/><path class="cls-7" d="M362.6,283.78l0,0a.22.22,0,0,1,0,.3h-.07a.19.19,0,0,1-.2-.19l0-.07a.19.19,0,0,1,.27-.07"/><path class="cls-7" d="M361.35,302.17l0,0a.22.22,0,0,1,0,.3h0a.22.22,0,0,1-.25-.2s0-.05,0-.07a.2.2,0,0,1,.27-.07"/><path class="cls-7" d="M360,313.55a.12.12,0,0,1,0,.05.19.19,0,0,1,0,.27.17.17,0,0,1-.17,0,.18.18,0,0,1-.07-.25.17.17,0,0,1,.24-.07"/><path class="cls-7" d="M361.53,330.94s0,0,0,0a.19.19,0,0,1,0,.28h-.07a.21.21,0,0,1-.2-.19l0-.08a.2.2,0,0,1,.27-.06"/><path class="cls-7" d="M360.62,339.92l0,0a.2.2,0,0,1,0,.28h-.07a.2.2,0,0,1-.2-.2s0-.05,0-.07a.2.2,0,0,1,.27-.07"/><path class="cls-7" d="M360.55,350l.06,0a.19.19,0,0,1-.06.25.15.15,0,0,1-.09,0,.18.18,0,0,1-.16-.2.09.09,0,0,1,0-.05.2.2,0,0,1,.27-.09"/><path class="cls-23" d="M355.28,321.34a8.28,8.28,0,0,0,7.76.19,12.9,12.9,0,0,0,1.4-.85,1.26,1.26,0,0,1-.34.31,6.7,6.7,0,0,1-1,.69,8.28,8.28,0,0,1-4,1,8.17,8.17,0,0,1-3.93-1.16,6,6,0,0,1-1-.73,1.62,1.62,0,0,1-.32-.32S354.31,320.84,355.28,321.34Z"/><path class="cls-23" d="M358.85,362.48a22.76,22.76,0,0,0,3.5-.2,3.69,3.69,0,0,1-1,.27,11.13,11.13,0,0,1-2.51.17,11,11,0,0,1-2.48-.4,3.11,3.11,0,0,1-1-.38A22.56,22.56,0,0,0,358.85,362.48Z"/><path class="cls-7" d="M350.89,217a1.88,1.88,0,0,0,.41.66,1.78,1.78,0,0,0,.83.45,1.67,1.67,0,0,0,.94,0,2,2,0,0,0,.67-.42,4.45,4.45,0,0,0,.43-.61,1.11,1.11,0,0,1-.34.69,1.68,1.68,0,0,1-.69.49,1.8,1.8,0,0,1-1.05.07,1.8,1.8,0,0,1-1.32-1.26,1.1,1.1,0,0,1,0-.76A2.7,2.7,0,0,0,350.89,217Z"/></g></g></g></svg>