<svg xmlns="http://www.w3.org/2000/svg" viewBox="0 0 176.26 369.09"><defs><style>.cls-1{fill:#ccc;}.cls-2{fill:#fff;}.cls-3{fill:#272727;}.cls-4{fill:#edcd00;}.cls-5{fill:#fafafa;}.cls-6{opacity:0.2;isolation:isolate;}.cls-7{fill:#e6e6e6;}</style></defs><g id="Camada_2" data-name="Camada 2"><g id="Camada_1-2" data-name="Camada 1"><g id="Documento"><g id="Document-4"><path class="cls-1" d="M1.31,3.23V252.56A21.85,21.85,0,0,0,4.18,261a23.26,23.26,0,0,0,5.9,7L173.21,368.64c1.8,1,2.93.37,3-1.6V113.87a12.39,12.39,0,0,0-.89-4.26c-1.7-4.64-5.23-9.6-7.89-11.09L8.5.41A4.19,4.19,0,0,1,7.61.14L6.79,0a6.15,6.15,0,0,1-.88.07L5.6.05,5,.07l-.49,0a4.48,4.48,0,0,1-.9.67c-.11.07-.25.12-.37.18L3.1,1a4.21,4.21,0,0,1-.48.35c-.26.19-.51.39-.76.59a4.75,4.75,0,0,1-.55.28"/><path class="cls-1" d="M1.31,2.24v1"/><path class="cls-2" d="M3.05,263.87,166.18,364.53c1.79,1,2.93.38,3-1.6V109.72a7.08,7.08,0,0,0-3-5.37L3.05,3.68c-1.8-1-2.93-.37-3,1.6V258.47A7.19,7.19,0,0,0,3.05,263.87Z"/><path class="cls-3" d="M169,100.07,5.79.36A1.63,1.63,0,0,0,4.63.15c-.23.16-.77.53-.92.62a3.6,3.6,0,0,0-1,.79c-.33.4-.65.77-1,1.12a1.69,1.69,0,0,0,.79,1.58L165.71,104a1.69,1.69,0,0,0,1.82,0l1.51-1A1.69,1.69,0,0,0,169,100.07Z"/><g id="Text"><polygon class="cls-3" points="26.66 18.32 141.45 89 141.45 115.1 26.66 44.47 26.66 18.32"/><polygon class="cls-4" points="164.4 137.94 72.76 81.43 72.76 101.05 164.4 157.54 164.4 137.94"/><path class="cls-5" d="M89.93,96.64s.13.1.18.2,0,.21,0,.24v1.58a.61.61,0,0,1,0,.33c0,.05-.09.05-.18,0l-1.72-1v7.67a.57.57,0,0,1,0,.32s-.1,0-.19,0l-1.27-.79-.2-.23a1,1,0,0,1-.08-.33V96.94l-1.72-1a.67.67,0,0,1-.19-.23.82.82,0,0,1-.08-.33V93.75a.29.29,0,0,1,.08-.23s.11,0,.19,0Z"/><path class="cls-5" d="M90.73,101A4.84,4.84,0,0,1,91,99.6a1.82,1.82,0,0,1,.61-.86,1.29,1.29,0,0,1,.94-.28,2.5,2.5,0,0,1,1.27.47A4.89,4.89,0,0,1,95.07,100a7.16,7.16,0,0,1,.94,1.44,7.59,7.59,0,0,1,.59,1.63,8.68,8.68,0,0,1,.24,1.74v2.65a4.64,4.64,0,0,1-.24,1.41,2,2,0,0,1-.59.88,1.4,1.4,0,0,1-.94.28,3.15,3.15,0,0,1-1.28-.47,5.64,5.64,0,0,1-1.27-1.1,6.83,6.83,0,0,1-.94-1.45,7.81,7.81,0,0,1-.61-1.67,8.41,8.41,0,0,1-.24-1.72v-1.29C90.73,101.92,90.72,101.44,90.73,101ZM95,106.27v-2.51a4.79,4.79,0,0,0-.11-.76,3,3,0,0,0-.24-.69,2.61,2.61,0,0,0-.37-.58,2,2,0,0,0-.53-.47,1,1,0,0,0-.52-.18.42.42,0,0,0-.38.13,1.35,1.35,0,0,0-.34,1v2.51a3.53,3.53,0,0,0,.34,1.43,2.48,2.48,0,0,0,.9,1.08c.4.25.72.27.9.07A1.72,1.72,0,0,0,95,106.27Z"/><path class="cls-5" d="M102.9,104.64a.43.43,0,0,1,.19.22.32.32,0,0,1,0,.24v1.57a1,1,0,0,1,0,.34s-.1,0-.19,0L101.18,106v7.64a.6.6,0,0,1,0,.33s-.1,0-.18,0l-1.29-.8a.42.42,0,0,1-.17-.21.53.53,0,0,1-.08-.33v-7.65l-1.73-1a.59.59,0,0,1-.19-.23,1,1,0,0,1-.08-.33v-1.57a.38.38,0,0,1,.08-.24c0-.06.1,0,.19,0Z"/><path class="cls-5" d="M107,107.15l.31.36a1.72,1.72,0,0,1,.14.42l2.14,10.7a.74.74,0,0,1,0,.21.56.56,0,0,1,0,.26c0,.05-.08.05-.15,0l-1.22-.75a.64.64,0,0,1-.29-.34,1,1,0,0,1-.1-.31l-.28-1.41-2.6-1.6-.28,1.06a.28.28,0,0,1-.11.19c-.06,0-.15,0-.27,0l-1.23-.75a.65.65,0,0,1-.16-.19.29.29,0,0,1,0-.19v-.25l2.14-8.07a1,1,0,0,1,.15-.24q.1-.07.3,0Zm-1.59,5.53,1.59,1-.78-4.08Z"/><path class="cls-5" d="M115.2,120.32l.19.23a1,1,0,0,1,.08.33v1.57a.38.38,0,0,1-.08.24c0,.11-.11.06-.19,0l-4.53-2.79-.19-.23a.68.68,0,0,1-.08-.33v-9.61a.33.33,0,0,1,.08-.24s.1,0,.19,0l1.27.79a.46.46,0,0,1,.19.23.68.68,0,0,1,.08.33v7.64Z"/><path class="cls-5" d="M135.83,124.79a7.08,7.08,0,0,1,1.45,2,5.73,5.73,0,0,1,.37,1,5,5,0,0,1,.15.84.63.63,0,0,1,0,.34.2.2,0,0,1-.2,0l-.68-.42c-.11-.13-.21-.17-.26-.3a2.3,2.3,0,0,1-.16-.37,4,4,0,0,0-.44-.92,2.72,2.72,0,0,0-.88-.81,2.43,2.43,0,0,0-.49-.24.9.9,0,0,0-.4,0,.64.64,0,0,0-.27.22.83.83,0,0,0-.1.45,1.76,1.76,0,0,0,.11.62,2,2,0,0,0,.35.59,8.32,8.32,0,0,0,.62.74l.91.87a9.48,9.48,0,0,1,1,1.07,4.6,4.6,0,0,1,.67,1.05,3.91,3.91,0,0,1,.37,1,5.54,5.54,0,0,1,.11,1.15,3.24,3.24,0,0,1-.14,1,1.57,1.57,0,0,1-.42.66,1.14,1.14,0,0,1-.68.24,2.29,2.29,0,0,1-.91-.18v1a.38.38,0,0,1-.08.24c0,.05-.11,0-.19,0l-.8-.49a.56.56,0,0,1-.18-.21.7.7,0,0,1-.08-.33v-1a7.86,7.86,0,0,1-.83-.87,6.43,6.43,0,0,1-.67-1,6.11,6.11,0,0,1-.47-1.12,4.63,4.63,0,0,1-.2-1.15.3.3,0,0,1,.08-.24c0-.05.11-.05.2,0l.68.42c.11.13.19.15.26.3s.09.11.14.34.1.32.16.49a2.28,2.28,0,0,0,.27.51,3.15,3.15,0,0,0,.42.5,3.07,3.07,0,0,0,.62.47,5.3,5.3,0,0,0,.57.3,1.38,1.38,0,0,0,.48.06.75.75,0,0,0,.34-.18.84.84,0,0,0,.12-.5,1.3,1.3,0,0,0-.14-.62,2.85,2.85,0,0,0-.42-.61,6.53,6.53,0,0,0-.68-.7l-1-.95a9.37,9.37,0,0,1-.86-1,5.51,5.51,0,0,1-.61-1,5,5,0,0,1-.35-1,5.75,5.75,0,0,1-.12-1.24,2.29,2.29,0,0,1,.16-1,1.19,1.19,0,0,1,1-.92,1.93,1.93,0,0,1,.79.11v-1c0-.12,0-.2.08-.23s.1,0,.18,0l.8.48a.67.67,0,0,1,.19.23,1,1,0,0,1,.08.33Z"/><path class="cls-5" d="M142.55,128.88a6.23,6.23,0,0,1,.84,1,8.32,8.32,0,0,1,.61,1,6,6,0,0,1,.38,1,5.28,5.28,0,0,1,.15.85.3.3,0,0,1-.08.24c0,.05-.11.05-.2,0l-.68-.42a.54.54,0,0,1-.24-.28,2.68,2.68,0,0,1-.16-.36,3.17,3.17,0,0,0-.45-.93,2.54,2.54,0,0,0-.87-.82,1.63,1.63,0,0,0-.5-.22.68.68,0,0,0-.4,0,.46.46,0,0,0-.27.21.78.78,0,0,0-.09.44,1.48,1.48,0,0,0,.11.63,2,2,0,0,0,.35.59,7.62,7.62,0,0,0,.6.72l.93.9a8.65,8.65,0,0,1,1,1.06,5.9,5.9,0,0,1,.67,1,4.34,4.34,0,0,1,.36,1.07,5,5,0,0,1,.12,1.15,2.89,2.89,0,0,1-.15,1,1.22,1.22,0,0,1-.43.64,1.19,1.19,0,0,1-.67.28,2,2,0,0,1-.92-.22v1c0,.24-.08.34-.26.26l-.79-.5c-.05,0-.13-.11-.18-.21a.78.78,0,0,1-.08-.35v-1.08a6.87,6.87,0,0,1-.83-.86,8.16,8.16,0,0,1-.69-1,6.25,6.25,0,0,1-.46-1.11,5.28,5.28,0,0,1-.24-1.2.6.6,0,0,1,0-.33.16.16,0,0,1,.19,0l.69.42a1.76,1.76,0,0,1,.26.31,1.66,1.66,0,0,1,.15.38l.16.48a3.63,3.63,0,0,0,.28.51,2.68,2.68,0,0,0,.41.5,3.87,3.87,0,0,0,.62.48,2.18,2.18,0,0,0,.56.27.73.73,0,0,0,.81-.1.7.7,0,0,0,.13-.5,1.36,1.36,0,0,0-.13-.61,2.78,2.78,0,0,0-.41-.62c-.24-.26-.47-.5-.7-.72l-.94-.91a10,10,0,0,1-.86-1,5.67,5.67,0,0,1-.61-1,4.27,4.27,0,0,1-.35-1.07,5.81,5.81,0,0,1-.13-1.24,3.12,3.12,0,0,1,.14-1,1.78,1.78,0,0,1,.42-.62,1.13,1.13,0,0,1,.62-.27,1.7,1.7,0,0,1,.8.11v-1a.24.24,0,0,1,.08-.24s.09,0,.17,0l.8.49s.13.1.18.2v0a.32.32,0,0,1,0,.24Z"/><path class="cls-5" d="M149.36,133.09a5.89,5.89,0,0,1,.84,1,6.21,6.21,0,0,1,.61,1,6.65,6.65,0,0,1,.37,1,4.87,4.87,0,0,1,.16.88.3.3,0,0,1-.08.24s-.11,0-.2,0l-.68-.44a.8.8,0,0,1-.26-.3,2.23,2.23,0,0,1-.14-.34,4,4,0,0,0-.45-.93,2.59,2.59,0,0,0-.89-.82,2,2,0,0,0-.48-.21.78.78,0,0,0-.4,0,.46.46,0,0,0-.27.21,1,1,0,0,0-.09.45,1.48,1.48,0,0,0,.11.63,2,2,0,0,0,.33.57c.21.27.42.52.62.73l.91.86a10.91,10.91,0,0,1,1,1.09,6,6,0,0,1,.67,1,4.34,4.34,0,0,1,.36,1.07,5,5,0,0,1,.12,1.16,2.87,2.87,0,0,1-.15,1,1.32,1.32,0,0,1-.43.64,1.14,1.14,0,0,1-.68.24,1.78,1.78,0,0,1-.91-.18v1a.3.3,0,0,1-.08.24c0,.05-.1.05-.18,0l-.79-.49a.52.52,0,0,1-.2-.23,1,1,0,0,1-.08-.33v-1a5.87,5.87,0,0,1-.83-.87,8.69,8.69,0,0,1-.67-1,6.32,6.32,0,0,1-.46-1.12,4.21,4.21,0,0,1-.19-1.15.64.64,0,0,1,0-.34.25.25,0,0,1,.19,0l.69.42c.11.13.19.15.25.3a1.15,1.15,0,0,1,.15.36c.05.16.11.33.17.49a2.17,2.17,0,0,0,.26.5,3.28,3.28,0,0,0,.43.51,3.69,3.69,0,0,0,.6.47,5.06,5.06,0,0,0,.58.28.77.77,0,0,0,.48.07.47.47,0,0,0,.33-.17.85.85,0,0,0,.13-.5,1.51,1.51,0,0,0-.14-.64,2.54,2.54,0,0,0-.42-.6,9.39,9.39,0,0,0-.68-.71l-1-.94a10,10,0,0,1-.85-1,5,5,0,0,1-.6-1,4.88,4.88,0,0,1-.37-1.07A6.25,6.25,0,0,1,146,134a3.21,3.21,0,0,1,.14-1,1.48,1.48,0,0,1,.42-.62.87.87,0,0,1,.62-.27,2.21,2.21,0,0,1,.78.09v-1a.33.33,0,0,1,.08-.24s.11,0,.19,0l.8.49a.48.48,0,0,1,.17.21.53.53,0,0,1,.08.33Z"/><path class="cls-5" d="M156.17,137.28a5.89,5.89,0,0,1,.84,1,7.15,7.15,0,0,1,.61,1,5.73,5.73,0,0,1,.37,1,3.26,3.26,0,0,1,.14.85.61.61,0,0,1,0,.33.19.19,0,0,1-.19,0l-.69-.42-.25-.3a3.35,3.35,0,0,1-.15-.35,4,4,0,0,0-.44-.92,3.89,3.89,0,0,0-.9-.84,2.64,2.64,0,0,0-.47-.21.68.68,0,0,0-.4,0,.4.4,0,0,0-.27.22.78.78,0,0,0-.1.44,1.7,1.7,0,0,0,.1.61,2,2,0,0,0,.35.59,5.91,5.91,0,0,0,.62.74l.91.88a9.79,9.79,0,0,1,1,1.08,5.34,5.34,0,0,1,.66,1,4.91,4.91,0,0,1,.38,1.09,7.16,7.16,0,0,1,.11,1.15,3.24,3.24,0,0,1-.14,1,1.18,1.18,0,0,1-1.12.88,2,2,0,0,1-.91-.19v1a.33.33,0,0,1-.08.24s-.11,0-.19,0l-.78-.47a.46.46,0,0,1-.19-.23.68.68,0,0,1-.08-.33v-1a5.28,5.28,0,0,1-.83-.86,6.24,6.24,0,0,1-1.13-2.12,4.09,4.09,0,0,1-.21-1.17.33.33,0,0,1,.08-.24s.11,0,.19,0l.69.42a1.13,1.13,0,0,1,.25.3,1.39,1.39,0,0,1,.14.36q.07.24.18.51a2.52,2.52,0,0,0,.25.49,3.55,3.55,0,0,0,.42.49,2.49,2.49,0,0,0,.62.49,2.85,2.85,0,0,0,.58.29,1.4,1.4,0,0,0,.47.08A.49.49,0,0,0,157,146a.82.82,0,0,0,.13-.49,1.48,1.48,0,0,0-.15-.63,2.78,2.78,0,0,0-.41-.62c-.23-.25-.46-.49-.69-.7s-.63-.6-1-.93a10,10,0,0,1-.85-1,5,5,0,0,1-.61-1,4.4,4.4,0,0,1-.36-1.08,5,5,0,0,1-.11-1.22,2.78,2.78,0,0,1,.14-1,1.75,1.75,0,0,1,.4-.65,1.13,1.13,0,0,1,.62-.27,2,2,0,0,1,.8.12v-1a.33.33,0,0,1,.08-.24c0-.06.1-.06.19,0l.78.47a.43.43,0,0,1,.19.22.74.74,0,0,1,.08.34Z"/><polygon class="cls-4" points="19.2 76.82 162.4 165.1 162.4 168.37 19.2 80.08 19.2 76.82"/><polygon class="cls-6" points="19.2 76.82 162.4 165.1 162.4 168.37 19.2 80.08 19.2 76.82"/><polygon class="cls-4" points="19.2 161.77 162.4 250.06 162.4 253.32 19.2 165.03 19.2 161.77"/><polygon class="cls-6" points="19.2 161.77 162.4 250.06 162.4 253.32 19.2 165.03 19.2 161.77"/><polygon class="cls-4" points="19.2 86.62 70.76 118.42 70.76 124.94 19.2 93.16 19.2 86.62"/><polygon class="cls-4" points="82.21 125.47 105.13 139.59 105.13 146.13 82.21 132.01 82.21 125.47"/><polygon class="cls-4" points="110.85 143.13 133.75 157.25 133.75 163.77 110.85 149.67 110.85 143.13"/><polygon class="cls-4" points="139.5 160.78 162.4 174.91 162.4 181.43 139.5 167.32 139.5 160.78"/><polygon class="cls-7" points="19.2 106.22 162.4 194.51 162.4 207.57 19.2 119.28 19.2 106.22"/><polygon class="cls-7" points="19.2 132.37 162.4 220.65 162.4 233.72 19.2 145.43 19.2 132.37"/><path class="cls-3" d="M24.94,104.28A4.5,4.5,0,0,1,23.89,102c0-.36.2-.46.51-.28L64.49,126.4a4.63,4.63,0,0,1,1.45,2.1c.28.84.12,1.27-.38,1L25.47,104.76A2.49,2.49,0,0,1,24.94,104.28Z"/><path class="cls-3" d="M87.93,140.24a2.94,2.94,0,0,1-.69-1.53c0-.24.13-.31.34-.18l17.2,10.67a3.25,3.25,0,0,1,.94,1.43c.15.5,0,.75-.24.6L88.29,140.66A2.61,2.61,0,0,1,87.93,140.24Z"/><path class="cls-3" d="M87.93,145a3.54,3.54,0,0,1-.6-1.07c-.2-.57-.08-.86.25-.66l17.2,10.69a3,3,0,0,1,1,1.38c.2.57.08.86-.25.66L88.29,145.38A2.5,2.5,0,0,1,87.93,145Z"/><path class="cls-3" d="M116.58,160.42a3,3,0,0,1-.7-1.53c0-.24.13-.31.35-.18L133.4,169.3a3,3,0,0,1,1,1.39c.2.56.09.86-.25.66l-17.19-10.61A1.43,1.43,0,0,1,116.58,160.42Z"/><path class="cls-3" d="M145.22,178.08a3.57,3.57,0,0,1-.61-1.07c-.19-.55-.09-.85.23-.66l0,0L162.05,187a3.15,3.15,0,0,1,1,1.41c.19.55.08.84-.24.64l0,0-17.18-10.57A1.75,1.75,0,0,1,145.22,178.08Z"/><path class="cls-3" d="M24.94,117.35A4.43,4.43,0,0,1,23.89,115c0-.35.2-.45.51-.27l28.7,17.73a4.78,4.78,0,0,1,1.46,2.1c.28.85.11,1.28-.4,1L25.53,117.91A2.49,2.49,0,0,1,24.94,117.35Z"/><path class="cls-3" d="M87.93,153.38a3.43,3.43,0,0,1-.6-1.07c-.2-.56-.08-.85.25-.65l17.2,10.6a3.05,3.05,0,0,1,1,1.39c.2.57.08.86-.25.66L88.29,153.7A1.42,1.42,0,0,1,87.93,153.38Z"/><path class="cls-3" d="M87.93,158.05a3,3,0,0,1-.69-1.53c0-.24.13-.31.34-.18l17.2,10.6a2.94,2.94,0,0,1,.94,1.35v0c.2.56.08.85-.25.64l-17.19-10.6A2,2,0,0,1,87.93,158.05Z"/><path class="cls-3" d="M116.58,173.5a3.8,3.8,0,0,1-.61-1.07c-.19-.57-.08-.86.26-.66l17.17,10.59a2.65,2.65,0,0,1,1,1.32c.24.6.19,1-.12.85a1.2,1.2,0,0,1-.17-.11l-17.19-10.6A1.43,1.43,0,0,1,116.58,173.5Z"/><path class="cls-3" d="M145.22,191.16a3.8,3.8,0,0,1-.61-1.07c-.19-.57-.08-.86.26-.66L162.05,200a3.05,3.05,0,0,1,1,1.4c.19.57.08.86-.25.66l0,0-17.18-10.58A1.67,1.67,0,0,1,145.22,191.16Z"/><path class="cls-3" d="M24.94,130.42a4.46,4.46,0,0,1-1.05-2.32c0-.35.2-.46.51-.28l45.83,28.26a4.6,4.6,0,0,1,1.44,2.1h0c.29.84.13,1.27-.36,1h0L25.47,130.9A2.25,2.25,0,0,1,24.94,130.42Z"/><path class="cls-3" d="M87.93,166.44a2.91,2.91,0,0,1-.69-1.52c0-.25.13-.32.34-.18l17.2,10.6a3.25,3.25,0,0,1,.94,1.43c.15.5,0,.76-.24.6l-17.19-10.6A1.74,1.74,0,0,1,87.93,166.44Z"/><path class="cls-3" d="M87.93,171.12a3.38,3.38,0,0,1-.6-1.06c-.2-.57-.08-.86.25-.66L104.78,180a3,3,0,0,1,1,1.38c.2.57.08.86-.25.66l-17.19-10.6A1.74,1.74,0,0,1,87.93,171.12Z"/><path class="cls-3" d="M116.58,186.56a2.74,2.74,0,0,1-.64-1.51c0-.2.15-.25.35-.12l17.18,10.58a2.85,2.85,0,0,1,.94,1.34l0,.07c.19.56.08.85-.26.64L117,187A1.68,1.68,0,0,1,116.58,186.56Z"/><path class="cls-3" d="M145.22,204.22a3.67,3.67,0,0,1-.61-1.07c-.19-.55-.09-.85.23-.66l0,0,17.18,10.59a3.05,3.05,0,0,1,1,1.4c.19.55.08.84-.24.65l0,0-17.18-10.59A1.67,1.67,0,0,1,145.22,204.22Z"/><path class="cls-3" d="M24.94,143.5a4.46,4.46,0,0,1-1.05-2.32c0-.35.2-.46.51-.28L47.32,155a4.76,4.76,0,0,1,1.45,2.12c.28.84.1,1.26-.4,1h0L25.47,144A2.49,2.49,0,0,1,24.94,143.5Z"/><path class="cls-3" d="M87.93,179.52a3.38,3.38,0,0,1-.6-1.06c-.2-.57-.08-.86.25-.66l17.2,10.6a3.05,3.05,0,0,1,1,1.39c.2.57.08.86-.25.66l-17.19-10.6A1.74,1.74,0,0,1,87.93,179.52Z"/><path class="cls-3" d="M87.93,184.19a2.94,2.94,0,0,1-.69-1.53c0-.24.13-.31.34-.18l17.2,10.6a2.86,2.86,0,0,1,.92,1.3l0,.09c.2.56.08.85-.25.65L88.29,184.51A1.65,1.65,0,0,1,87.93,184.19Z"/><path class="cls-3" d="M116.58,199.64a3.67,3.67,0,0,1-.61-1.07c-.19-.56-.08-.86.26-.65L133.4,208.5a2.65,2.65,0,0,1,1,1.32c.24.6.19,1-.12.85l-.17-.1L116.93,200A1.25,1.25,0,0,1,116.58,199.64Z"/><path class="cls-3" d="M145.22,217.3a2.89,2.89,0,0,1-.68-1.56c0-.21.13-.28.33-.17l17.18,10.59a3.09,3.09,0,0,1,1,1.41c.19.56.08.85-.25.65h0l-17.18-10.59A1.67,1.67,0,0,1,145.22,217.3Z"/><path class="cls-3" d="M24.94,156.56a4.46,4.46,0,0,1-1.05-2.32c0-.35.2-.46.51-.28l40.09,24.73a4.49,4.49,0,0,1,1.44,2.08c.3.85.13,1.29-.37,1L25.47,157A2.25,2.25,0,0,1,24.94,156.56Z"/><path class="cls-3" d="M87.93,192.59a2.94,2.94,0,0,1-.69-1.53c0-.24.13-.31.34-.18l17.2,10.6a3,3,0,0,1,.94,1.35v0c.2.56.08.85-.25.64l-17.19-10.6A1.65,1.65,0,0,1,87.93,192.59Z"/><path class="cls-3" d="M87.93,197.27a3.71,3.71,0,0,1-.6-1.08c-.19-.56-.08-.85.25-.65l17.2,10.61a3.25,3.25,0,0,1,.94,1.43c.15.5,0,.75-.24.6L88.29,197.59A1.65,1.65,0,0,1,87.93,197.27Z"/><path class="cls-3" d="M116.58,212.7a2.94,2.94,0,0,1-.7-1.52c0-.25.13-.32.35-.19l17.17,10.58a3.06,3.06,0,0,1,1,1.42c.19.56.07.85-.26.64L116.93,213A1.5,1.5,0,0,1,116.58,212.7Z"/><path class="cls-3" d="M145.22,230.3a3.8,3.8,0,0,1-.61-1.07c-.19-.55-.09-.85.23-.66l0,0,17.18,10.65a3.09,3.09,0,0,1,1,1.41c.19.55.08.84-.24.64l0,0-17.18-10.56A3.08,3.08,0,0,1,145.22,230.3Z"/><path class="cls-3" d="M116.58,232.31a3.09,3.09,0,0,1-.74-1.53c0-.32.17-.38.45-.15l17.18,10.58a3.08,3.08,0,0,1,1,1.39c.2.57.09.86-.25.66L117,232.66A1.34,1.34,0,0,1,116.58,232.31Z"/><path class="cls-3" d="M145.22,250a3.61,3.61,0,0,1-.61-1.06c-.19-.55-.09-.85.23-.66l0,0,17.18,10.58a3.09,3.09,0,0,1,1,1.41c.19.55.08.84-.24.64l0,0-17.18-10.58A1.5,1.5,0,0,1,145.22,250Z"/><path class="cls-3" d="M116.58,238.85a3.8,3.8,0,0,1-.61-1.07c-.19-.57-.08-.86.26-.66l17.17,10.67a3.24,3.24,0,0,1,.94,1.49c.13.44,0,.68-.22.57l-17.19-10.6A2,2,0,0,1,116.58,238.85Z"/><path class="cls-3" d="M145.22,256.5a3.61,3.61,0,0,1-.61-1.06c-.19-.56-.09-.85.23-.66l0,0,17.18,10.58a3.09,3.09,0,0,1,1,1.41c.19.55.08.84-.24.64l0,0-17.18-10.58A1.5,1.5,0,0,1,145.22,256.5Z"/><path class="cls-3" d="M24.94,188.88a3.34,3.34,0,0,1-.62-1.08c-.2-.56-.08-.85.25-.65l34.31,21.12a3,3,0,0,1,1,1.39c.2.56.09.86-.24.66L25.23,189.13A1,1,0,0,1,24.94,188.88Z"/><path class="cls-3" d="M24.94,195.42a3.53,3.53,0,0,1-.62-1.08c-.2-.56-.08-.85.25-.65l34.31,21.12a2.81,2.81,0,0,1,.94,1.33l0,.08c.19.56.08.84-.25.64L25.23,195.67A1.56,1.56,0,0,1,24.94,195.42Z"/><path class="cls-3" d="M24.94,202a3.46,3.46,0,0,1-.62-1.09c-.2-.56-.08-.85.25-.65l34.31,21.11a3.51,3.51,0,0,1,.94,1.5c.12.44,0,.67-.22.57L25.23,202.21A1.56,1.56,0,0,1,24.94,202Z"/><g id="documentos"><path class="cls-2" d="M36.65,29.56a9.09,9.09,0,0,1,2,1.72,10.38,10.38,0,0,1,1.42,2.18A11.71,11.71,0,0,1,41,36.07a16.77,16.77,0,0,1,.37,2.85v3.4A10.25,10.25,0,0,1,41,44.71a2.86,2.86,0,0,1-.87,1.43,1.88,1.88,0,0,1-1.39.4,4.41,4.41,0,0,1-2-.77l-3.94-2.5a.78.78,0,0,1-.28-.34,1.12,1.12,0,0,1-.13-.53V27.57a.45.45,0,0,1,.13-.35c.06-.07.16-.07.28,0Zm2.55,8A7.89,7.89,0,0,0,39,36a6.66,6.66,0,0,0-.48-1.4,5.68,5.68,0,0,0-.81-1.26,4.8,4.8,0,0,0-1.15-1L34.46,31V41.37l2.19,1.4a2.41,2.41,0,0,0,1.1.42,1.08,1.08,0,0,0,.78-.22,1.79,1.79,0,0,0,.48-.81,4.91,4.91,0,0,0,.19-1.25c0-1.09,0-2.23,0-3.4Z"/><path class="cls-2" d="M43,39.59a8.8,8.8,0,0,1,.33-2.21,3.13,3.13,0,0,1,.85-1.45,2,2,0,0,1,1.4-.43,4.41,4.41,0,0,1,2,.81,8.4,8.4,0,0,1,2,1.73A10.17,10.17,0,0,1,51,40.27a10.78,10.78,0,0,1,.86,2.6,13.25,13.25,0,0,1,.35,2.66v4.11a8.78,8.78,0,0,1-.33,2.2A2.84,2.84,0,0,1,51,53.26a1.83,1.83,0,0,1-1.41.43,4.59,4.59,0,0,1-2-.79,8.27,8.27,0,0,1-2-1.77,10.33,10.33,0,0,1-1.4-2.2,12.32,12.32,0,0,1-.85-2.5A15.19,15.19,0,0,1,43,43.79V40.56A5.22,5.22,0,0,1,43,39.59Zm7.08,4.6a7.09,7.09,0,0,0-.74-3,5,5,0,0,0-1.75-2.08c-.77-.46-1.38-.54-1.77-.21A2.69,2.69,0,0,0,45.1,41v3.87a6.8,6.8,0,0,0,.72,3,5,5,0,0,0,1.77,2c.76.46,1.37.53,1.75.21A2.59,2.59,0,0,0,50.08,48v-2c0-.71,0-1.27,0-1.84Z"/><path class="cls-2" d="M61,56a.44.44,0,0,1,.16-.34.29.29,0,0,1,.29,0l1.27.8a.88.88,0,0,1,.31.36,1.08,1.08,0,0,1,.11.51A6.43,6.43,0,0,1,62.79,59,2.43,2.43,0,0,1,62,60.2a2.21,2.21,0,0,1-1.44.32,5.28,5.28,0,0,1-2.07-.89,7.52,7.52,0,0,1-1.91-1.69,10.35,10.35,0,0,1-1.41-2.18,12.06,12.06,0,0,1-.89-2.64,13.48,13.48,0,0,1-.38-2.8V46.47a7.94,7.94,0,0,1,.38-2.3,3.07,3.07,0,0,1,.89-1.45,2.08,2.08,0,0,1,1.41-.43,4,4,0,0,1,1.91.7,8.35,8.35,0,0,1,2.07,1.8A11.76,11.76,0,0,1,62,46.93a10.63,10.63,0,0,1,.83,2.25,11.55,11.55,0,0,1,.32,2.06.46.46,0,0,1-.11.39.3.3,0,0,1-.31,0l-1.27-.8a.93.93,0,0,1-.29-.34A1.31,1.31,0,0,1,61,49.9a4.74,4.74,0,0,0-.22-1,5.58,5.58,0,0,0-.46-1.06,5.9,5.9,0,0,0-.75-1,5.28,5.28,0,0,0-1.07-.89,2.13,2.13,0,0,0-1.07-.4,1,1,0,0,0-.75.26,1.63,1.63,0,0,0-.48.78A6.34,6.34,0,0,0,56,47.74v3.85a10,10,0,0,0,.19,1.49,7.28,7.28,0,0,0,.48,1.4,5.8,5.8,0,0,0,.75,1.2,3.89,3.89,0,0,0,1.07,1,2.9,2.9,0,0,0,1.07.46,1.16,1.16,0,0,0,.75-.09,1,1,0,0,0,.48-.47A1.88,1.88,0,0,0,61,56Z"/><path class="cls-2" d="M73.39,52.9a.76.76,0,0,1,.31.36,1.22,1.22,0,0,1,.12.53v9.45a8.48,8.48,0,0,1-.28,2.39,2.81,2.81,0,0,1-.85,1.42,1.8,1.8,0,0,1-1.4.38,4.44,4.44,0,0,1-2-.75,8.44,8.44,0,0,1-2-1.68A10.49,10.49,0,0,1,66,62.87a10.63,10.63,0,0,1-.83-2.56,14.21,14.21,0,0,1-.27-2.74V48.11c0-.18,0-.3.13-.35s.16-.07.29,0l1.27.82a.78.78,0,0,1,.29.34,1.26,1.26,0,0,1,.13.52v9.29a8.07,8.07,0,0,0,.17,1.79,5.76,5.76,0,0,0,.48,1.39A4.75,4.75,0,0,0,68.45,63a4.69,4.69,0,0,0,1,.81,2.87,2.87,0,0,0,1,.43.93.93,0,0,0,.75-.15,1.63,1.63,0,0,0,.49-.77,5.5,5.5,0,0,0,.18-1.5V52.52a.46.46,0,0,1,.13-.36c0-.08.16-.07.3,0Z"/><path class="cls-2" d="M81.3,66.12l3-5.7c0-.1.11-.12.22-.21s.25-.11.45,0l1.07.69a.9.9,0,0,1,.3.35,1.33,1.33,0,0,1,.13.53V76.61a.53.53,0,0,1-.13.37.28.28,0,0,1-.3,0l-1.26-.8a.71.71,0,0,1-.3-.36,1.12,1.12,0,0,1-.13-.53v-9l-2,3.9a.85.85,0,0,1-.22.24c-.08.07-.2.06-.35,0l-.82-.5-.36-.44c-.09-.17-.16-.35-.23-.52l-2-6.45v9a.46.46,0,0,1-.13.35c-.06.08-.17.07-.3,0L76.6,71a.71.71,0,0,1-.3-.36,1.1,1.1,0,0,1-.12-.49V55.33A.49.49,0,0,1,76.3,55c.06-.06.17-.05.3,0l1.07.68a1.11,1.11,0,0,1,.46.55l.21.5Z"/><path class="cls-2" d="M96.15,80.54a.87.87,0,0,1,.3.36,1.12,1.12,0,0,1,.13.53V83a.39.39,0,0,1-.13.35c-.06.07-.16.07-.3,0L89.29,79a.82.82,0,0,1-.3-.36,1.22,1.22,0,0,1-.13-.51V63.33A.46.46,0,0,1,89,63a.29.29,0,0,1,.3,0L96,67.26a.88.88,0,0,1,.31.36,1.28,1.28,0,0,1,.12.53v1.58a.42.42,0,0,1-.12.35c-.06.08-.17.08-.31,0l-5-3.2v3.66l4.71,3a.83.83,0,0,1,.29.35,1,1,0,0,1,.12.51V76a.42.42,0,0,1-.12.35c-.06.07-.16.08-.29,0l-4.71-3v3.8Z"/><path class="cls-2" d="M105.61,89.36a1,1,0,0,1-.4-.48l-.21-.45-4.37-12.32v9.45a.39.39,0,0,1-.13.35c-.06.07-.16.07-.3,0l-1.26-.79a.81.81,0,0,1-.3-.36,1.26,1.26,0,0,1-.13-.53V69.41a.53.53,0,0,1,.13-.37c.06-.06.17-.06.3,0l1.09.68a1.08,1.08,0,0,1,.41.5l.21.45L105,83V73.56a.39.39,0,0,1,.13-.35c0-.09.16-.08.3,0l1.26.79a.77.77,0,0,1,.3.35,1,1,0,0,1,.11.5V89.69a.48.48,0,0,1-.11.37.29.29,0,0,1-.3,0Z"/><path class="cls-2" d="M116.85,80.5a.71.71,0,0,1,.3.36,1.12,1.12,0,0,1,.13.53V83a.46.46,0,0,1-.13.36c-.06.06-.17.05-.3,0L114,81.55v12.6a.46.46,0,0,1-.12.36c-.07.06-.17.06-.31,0l-1.26-.8a.82.82,0,0,1-.3-.36,1.35,1.35,0,0,1-.13-.51V80.21l-2.8-1.75a.88.88,0,0,1-.31-.36,1.28,1.28,0,0,1-.12-.53V76a.42.42,0,0,1,.12-.35c.07-.07.17-.07.31,0Z"/><path class="cls-2" d="M118.24,87.36a8.78,8.78,0,0,1,.33-2.2,2.79,2.79,0,0,1,.87-1.42,1.87,1.87,0,0,1,1.4-.45,4.59,4.59,0,0,1,2,.79,8.32,8.32,0,0,1,2,1.75,10.1,10.1,0,0,1,1.4,2.22,11.23,11.23,0,0,1,.86,2.6,13.78,13.78,0,0,1,.35,2.56v4.11a8.88,8.88,0,0,1-.33,2.22,3.2,3.2,0,0,1-.86,1.42,1.85,1.85,0,0,1-1.42.41,4.31,4.31,0,0,1-2-.79,8.62,8.62,0,0,1-2-1.73,10.34,10.34,0,0,1-1.4-2.22,10.85,10.85,0,0,1-.87-2.6,15.21,15.21,0,0,1-.33-2.63v-4ZM125.32,92a6.61,6.61,0,0,0-.72-3,5,5,0,0,0-1.77-2.1c-.76-.46-1.37-.53-1.75-.2a2.62,2.62,0,0,0-.72,2.11v3.87a6.55,6.55,0,0,0,.72,3,5,5,0,0,0,1.75,2.08c.77.48,1.38.56,1.77.24a2.58,2.58,0,0,0,.72-2.09v-2C125.32,93.21,125.35,92.59,125.32,92Z"/><path class="cls-2" d="M133.25,90.65a8.56,8.56,0,0,1,1.85,1.59,11.44,11.44,0,0,1,1.32,1.87,9.52,9.52,0,0,1,.81,1.88,6.94,6.94,0,0,1,.31,1.61c0,.19,0,.32-.12.38s-.18,0-.31,0L136,97.25a.89.89,0,0,1-.4-.47,3.25,3.25,0,0,1-.24-.56,5.88,5.88,0,0,0-.71-1.45,4.58,4.58,0,0,0-1.42-1.34,3,3,0,0,0-.77-.35,1,1,0,0,0-.64,0,.6.6,0,0,0-.43.3,1.24,1.24,0,0,0-.16.68,2.89,2.89,0,0,0,.15,1,3.16,3.16,0,0,0,.51.89,11.87,11.87,0,0,0,.92,1.1,19.74,19.74,0,0,0,1.44,1.4,17.59,17.59,0,0,1,1.59,1.69,8.56,8.56,0,0,1,1.76,3.37,7.54,7.54,0,0,1,.2,1.83,4.26,4.26,0,0,1-.3,1.73,1.79,1.79,0,0,1-.89.94,2.31,2.31,0,0,1-1.42.1,5.65,5.65,0,0,1-1.9-.84,9.09,9.09,0,0,1-1.67-1.37,10.84,10.84,0,0,1-1.41-1.78,10.44,10.44,0,0,1-1-2,7.89,7.89,0,0,1-.42-2.07c0-.19,0-.32.11-.37s.18-.06.31,0l1.1.71a1,1,0,0,1,.4.38,2.62,2.62,0,0,1,.24.56,7.27,7.27,0,0,0,.27.78,3.24,3.24,0,0,0,.41.78,5,5,0,0,0,.67.79,5.14,5.14,0,0,0,1,.78,5.38,5.38,0,0,0,.91.48,1.87,1.87,0,0,0,.76.14.74.74,0,0,0,.53-.27,1,1,0,0,0,.21-.75,2.13,2.13,0,0,0-.22-1,4.33,4.33,0,0,0-.66-.94,13.43,13.43,0,0,0-1.1-1.14c-.45-.43-.94-.91-1.51-1.5a16,16,0,0,1-1.38-1.51,10.42,10.42,0,0,1-1-1.55,7.41,7.41,0,0,1-.57-1.68,8.29,8.29,0,0,1-.18-1.88,4.21,4.21,0,0,1,.3-1.72,1.91,1.91,0,0,1,.87-.94,2.22,2.22,0,0,1,1.3-.14A4.77,4.77,0,0,1,133.25,90.65Z"/></g></g></g></g></g></g></svg>