<svg xmlns="http://www.w3.org/2000/svg" viewBox="0 0 178.46 211.52"><defs><style>.cls-1{fill:#b29000;}.cls-2,.cls-3{fill:#edcd00;}.cls-2{stroke:#b29000;stroke-miterlimit:10;stroke-width:0.2px;}</style></defs><g id="Camada_2" data-name="Camada 2"><g id="Camada_1-2" data-name="Camada 1"><g id="Graph"><polygon class="cls-1" points="43.65 134.75 21.86 147.24 18.57 55.02 21.86 50.36 43.65 37.87 43.65 134.75"/><polygon class="cls-1" points="21.86 50.36 13.99 51.94 6.14 41.35 27.93 28.86 43.65 37.87 21.86 50.36"/><polygon class="cls-2" points="21.86 147.24 6.14 138.23 6.14 41.35 21.86 50.36 21.86 147.24"/><polygon class="cls-1" points="71.7 150.83 49.9 163.31 46.61 122.99 49.9 79.47 71.7 66.97 71.7 150.83"/><polygon class="cls-1" points="49.9 79.47 42.04 81.04 34.18 70.45 55.98 57.97 71.7 66.97 49.9 79.47"/><polygon class="cls-3" points="49.9 163.31 34.18 154.31 34.18 70.45 49.9 79.47 49.9 163.31"/><polygon class="cls-1" points="99.75 166.9 77.95 179.39 74.66 112.88 77.95 108.22 99.75 95.73 99.75 166.9"/><polygon class="cls-1" points="77.95 108.22 70.09 109.8 62.23 99.22 84.03 86.73 99.75 95.73 77.95 108.22"/><polygon class="cls-3" points="77.95 179.39 62.23 170.38 62.23 99.22 77.95 108.22 77.95 179.39"/><polygon class="cls-1" points="127.79 182.97 105.99 195.47 102.7 169.88 105.99 137.89 127.79 125.41 127.79 182.97"/><polygon class="cls-1" points="105.99 137.89 98.13 139.47 90.28 128.88 112.07 116.39 127.79 125.41 105.99 137.89"/><polygon class="cls-3" points="105.99 195.47 90.28 186.45 90.28 128.88 105.99 137.89 105.99 195.47"/><polygon class="cls-1" points="155.84 199.03 134.04 211.52 130.75 194.15 134.04 162.16 155.84 149.66 155.84 199.03"/><polygon class="cls-1" points="134.04 162.16 126.18 163.74 118.32 153.14 140.12 140.66 155.84 149.66 134.04 162.16"/><polygon class="cls-3" points="134.04 211.52 118.32 202.52 118.32 153.14 134.04 162.16 134.04 211.52"/><polygon class="cls-3" points="7.25 37.29 13.72 33.59 33.21 18.08 8.45 9.35 7.25 37.29"/><polygon class="cls-1" points="26.75 21.79 33.21 18.08 6.62 0 0.15 3.71 15.07 19.16 26.75 21.79"/><polygon class="cls-1" points="87.05 84.13 93.52 80.42 45.73 53.03 35.03 56.74 60.02 72.66 87.05 84.13"/><polygon class="cls-1" points="39.26 56.74 45.73 53.03 26.16 23.68 19.7 27.39 28.4 45.71 39.26 56.74"/><polygon class="cls-1" points="124.21 139.86 130.68 136.16 93.52 80.42 87.05 84.13 98.14 108.39 124.21 139.86"/><polygon class="cls-1" points="172 177.54 178.46 173.84 178.47 163.55 170.46 165.01 167.7 168.13 172 177.54"/><polygon class="cls-1" points="172 167.25 178.47 163.55 130.68 136.16 124.21 139.86 144.97 155.79 172 167.25"/><polygon class="cls-2" points="0.15 3.71 26.75 21.79 19.7 27.39 39.26 56.74 87.05 84.13 124.21 139.86 172 167.25 172 177.54 121.03 148.33 83.87 92.59 36.09 65.2 13.94 31.98 7.25 37.29 0.15 3.71"/></g></g></g></svg>