<?xml version="1.0" encoding="utf-8"?>
<!-- Generator: Adobe Illustrator 24.1.2, SVG Export Plug-In . SVG Version: 6.00 Build 0)  -->
<svg version="1.1" id="Camada_1" xmlns="http://www.w3.org/2000/svg" xmlns:xlink="http://www.w3.org/1999/xlink" x="0px" y="0px"
	 viewBox="0 0 440.7 517.3" style="enable-background:new 0 0 440.7 517.3;" xml:space="preserve">

<g id="Camada_2_1_">
	<g id="Camada_1-2">
		<g id="mulher">
			<path class="st0" d="M74.6,343.6c37.2,10.6,57.6-18.4,32.6-26.4C67.9,304.9,51.4,337.1,74.6,343.6z"/>
			<path class="st1" d="M82.4,260.3c-0.8-2.2,13.4-3.9,13.4-3.9s0,10.6,0.4,15.1c0.6,6.8,0.4,10-1.5,19.1c-0.9,4-2,19.3-1.7,24.6
				c0.4,7.9,4,11.6,5.3,13.5s-3.4,3.8-6.4,1s-3.3-3.4-4.9-4.3s-1.1-3-1-7.5c0.1-3.4-1.4-14.9-2-22.2c-0.8-10.4,1.5-10.6,1.3-15.9
				C85.2,273.3,84.3,266.7,82.4,260.3z"/>
			<path class="st2" d="M84.7,320.3L84.7,320.3c0-0.2,0.1-0.3,0.1-0.3l0,0c0.3-0.7,0.7-1.4,1.3-2c0,0,0.7,6.3,4.4,8.9
				c4.1,2.9,6,3.3,7.9,1.9c1,1.4,2.1,2.7,3.3,4c1.2,1.4,0.2,2.7-3.4,2.5c-2.4-0.2-4.6-1.2-6.1-3c-1.6-2-2.8-4.2-4.3-5.5l-0.6-0.6
				l0,0c-0.1,1.7-0.1,2.7-0.1,3.9c-0.3,0.6-0.9,0.4-1.3,0c-0.2-1.3,0.1-2.5-0.7-5C84.6,323.5,84.4,321.9,84.7,320.3z"/>
			<path class="st3" d="M71.4,266c-0.8-2.2,13.4-3.9,13.4-3.9s0,10.6,0.4,15.1c0.6,6.8,0.4,10-1.5,19.1c-0.9,4-2,19.3-1.7,24.6
				c0.4,7.9,4,11.6,5.3,13.5s-3.4,3.8-6.4,1s-3.3-3.4-4.9-4.3s-1.1-3-1-7.5c0.1-3.4-1.4-14.9-2-22.2c-0.8-10.4,1.5-10.6,1.3-15.9
				C74.2,279,73.2,272.4,71.4,266z"/>
			<path class="st2" d="M73.8,325.8L73.8,325.8c0-0.2,0.1-0.2,0.1-0.3l0,0c0.3-0.7,0.7-1.4,1.3-1.9c0,0,0.7,6.3,4.4,8.9
				c4.1,2.9,6,3.3,7.9,1.9c1,1.4,2.1,2.7,3.3,4c1.2,1.4,0.2,2.7-3.4,2.5c-2.4-0.2-4.6-1.2-6.1-3c-1.6-2-2.8-4.2-4.3-5.5l-0.6-0.6
				l0,0c-0.1,1.7-0.1,2.7-0.1,3.9c-0.3,0.5-0.9,0.4-1.3,0c-0.3-1.3,0.1-2.6-0.7-5C73.6,329.1,73.4,327.4,73.8,325.8z"/>
			<path class="st4" d="M108.7,214.5c-0.5-0.8-1-1.6-1.5-2.3c-3.7-5.6-8.9-18.3-15.6-20.8c-6.9-2.5-8.2,2.3-8.2,2.3l16.5,27.6
				C103.6,220.1,106.7,217.7,108.7,214.5z"/>
			<path class="st5" d="M77.8,182.4c0,0-3.3,3.7-4.4,12.4s-0.8,11.1-0.8,11.1s7.4,0.9,9.1-2.9S77.8,182.4,77.8,182.4z"/>
			<path class="st4" d="M99.3,236.2c0.6,3.7,1,7.5,1,11.3c0.2,9-0.9,27.2-0.9,27.2s-2.2,3.1-7.6,4.6c-3.6,1-9.6,1.2-13.8-0.4
				c-0.9-4-1.7-10.1-1.7-10.1c-0.3,2.9-1.5,6.9-1.6,9.5c-1.4-0.3-2.8-1-3.8-2.1c0,0-0.7-7.3-1.4-15.3c-0.7-7.6-0.3-14.7,3-23
				C77.5,225.1,99,229.2,99.3,236.2z"/>
			<path class="st6" d="M68.1,207.1c0.7-4.9,11.7-11.4,11.7-11.4s1.8,5.4,3.5,6.7c1.6,1.5,3.2,3.1,4.5,4.8l0,0
				c-0.3-3.2-0.9-6.4-2-9.4c-0.5-1.4,0.3-5.6,0.3-5.6s0.7-0.2,1.6-0.3c1.5,1.6,4.3,5.9,5.9,7.7s5.9,7.6,4.6,13.3
				c-1,4.4-1.6,8.9-1.6,13.4c0.1,2.7,3,11.3,3,11.3s-2.8,7.1-13.3,5.5c-4.9-0.8-9.4-2.9-13.3-5.9c0,0,1.9-11.8,1.6-16.7
				C69.8,217.9,67.2,212.5,68.1,207.1z"/>
			<path class="st2" d="M87.9,197c0,0,2.4,6.8,4.6,12.8s2.2,22.6,2.8,25.1c1.1,4,4,5.6,5.9,4.2c0,0-4.4-19.5-3-26.2
				s-0.1-8.4-4.7-14.4s-4.4-4.9-4.4-4.9L87.9,197z"/>
			<path class="st4" d="M89.1,194.8c1.8,2.4,5.1,6.9,5.1,6.9l-1.3,1.8c0.8,0.5,1.5,1.1,2,1.9c0,3-0.9,11.6-0.9,11.6
				c-1.3-6.1-3.6-12-6.7-17.4c-1.6-2.6-0.7-2.6-0.7-2.6S88.3,194.7,89.1,194.8z"/>
			<path class="st1" d="M86.6,192.9c0.2,2.6,0.6,5.2,1.3,7.8c0.2,0.8-0.4,1.6-1.2,1.8c0,0,0,0,0,0c-1.3,0.2-3.8,0-4.6-0.6
				c-3.6-2.9-4.2-4.4-4.2-4.4s0.7-3.4,0.8-4.6c0.1-2,0-8.7,0-8.7L86.6,192.9z"/>
			<path class="st7" d="M88,201.7c0.2,0.9,0.3,1.8,0.3,2.6c-0.2,1.1-0.9,1.4-2,0.6c-0.7-0.6-1.2-1.3-1.6-2.1
				C85.4,201.6,86.8,201.1,88,201.7z"/>
			<path class="st7" d="M87.9,204.4c1.4,2.2,2.5,4.7,3.2,7.3c1.4,5.2,2.6,10.5,3.5,15.9c-0.5,1.5-1.2,3-2.2,4.3l-3.5-3L86.8,205
				L87.9,204.4z"/>
			<path class="st6" d="M87.8,195.7c0,0,1.1,0.8,2,4.8c0.4,1.4,0.2,2.9-0.5,4.2l-3-3.3c0.8-1.8,0.9-3.8,0.4-5.7
				C86.4,194.4,87.8,195.7,87.8,195.7z"/>
			<path class="st3" d="M80.1,175.7c3-2.6,10.4-3.7,13.6,3.9c3.3,7.9-3.5,18.5-7.5,16.9c-2.2-0.8-6.8-2.9-8.3-7.1
				C76.2,184.6,77.8,177.7,80.1,175.7z"/>
			<path class="st2" d="M77.6,195.7c4.8,5.5,8,12.2,9.5,19.4c1.3,5.4,2.1,10.9,2.6,16.4c0.3,6.5-0.7,12-3.2,14
				c-7.5,5.9-16.7-3-16.7-3s3.6-12.3,3-16s-5.4-20.3-3.8-23S77.6,195.7,77.6,195.7z"/>
			<path class="st4" d="M78.3,194.8c0,0-0.3,3.2,3.6,7.6c6.1,6.8,5.9,17.1,5.9,17.1l-7.9-10l1.3-2.9l-3.1-0.2
				c-1.6-2.5-2.6-5.4-2.7-8.4C75.5,195.7,78.3,194.8,78.3,194.8z"/>
			<path class="st6" d="M85.2,206.7c0.6-1.7,0.9-3.5,1.1-5.3c0,0-5.4-2.5-7.8-5.3C78.1,199.5,80.8,205.1,85.2,206.7z"/>
			<path class="st8" d="M65.4,242.5c0,0,2,1.5,4.2-0.8s3.3-4.4,2.1-5.5s-3.2-1.3-5.4,0.7C64.7,238.3,64.3,240.6,65.4,242.5z"/>
			<path class="st4" d="M71.8,201.1c-2.5-0.3-5.9,5.3-10.2,12.8S56,226.2,55.8,230c0.1,1.4,0.7,2.8,1.5,4c2.1,3.1,5.7,7.2,8,8.6
				c0.3-2.4,0.9-4.3,2.6-5.6c1.1-0.6,2.4-0.9,3.7-0.7l-5.3-8.6c0,0,6.3-7.2,8.6-13.4C77,208.9,74.9,201.4,71.8,201.1z"/>
			<path class="st5" d="M87.9,181.4c0,0-5.1,5.9-10.6,7.3c-2.6-5.8-3.1-7.4-1.8-11.1c0.9-2.5,3.2-4.2,5.8-4.1c0,0,4.5-5,10.8-0.4
				c9.2,6.6,2.2,14.3,2.2,14.3S93.9,183.5,87.9,181.4z"/>
			<path class="st3" d="M81.9,187.9c-0.4-0.5-0.8-1-1.3-1.4c-0.6-0.4-1.7-0.6-2,1.1c-0.3,1.2,0.3,2.5,1.4,3.1L81.9,187.9z"/>
			<path class="st4" d="M103.3,211.3c0.4,0,16.2-2.1,18.2-2.2c-0.6,3.3-1.4,4.3,1.6,7.4c-1.3,1.7-7.4,2.8-11.6,4
				c-3.3,0.9-6.1,1.9-8.2,2c-1.2,0.2-2.5-0.2-3.3-1.2C96.7,217.1,103.3,211.3,103.3,211.3z"/>
			<polygon class="st9" points="174.3,132.6 129,167.2 141.8,176 107.9,245.5 79.7,226.6 0.3,386.7 31.1,368.9 84.8,261.1 
				112.8,280.1 158.1,187.1 169.4,194.8 			"/>
			<polygon class="st10" points="181.6,136.9 136.4,171.5 149.1,180.3 115.3,249.8 87,230.8 7.7,391 38.5,373.1 92.1,265.4 
				120.1,284.4 165.4,191.4 176.8,199.1 			"/>
			<polygon class="st9" points="7.7,391 0.3,386.7 79.7,226.6 87,230.8 			"/>
			<polygon class="st11" points="120.1,284.4 112.8,280.1 91.9,265.9 92.1,265.4 			"/>
			<polygon class="st9" points="181.6,136.9 174.3,132.6 129,167.2 136.4,171.5 			"/>
			<polygon class="st10" points="129,167.2 136.4,171.5 149.1,180.3 141.8,176 			"/>
			<polygon class="st11" points="169.4,194.8 176.8,199.1 165.4,191.4 165.2,192 			"/>
			<path class="st1" d="M121.3,209.8c0,0,1.5-1.6,3-3.1s2.1-3.5,2.7-4.2s1.6,0.4,0.8,2.2s-1.9,3.9-1.9,3.9l-3.5,7.2
				C122.4,215.9,119.4,214.7,121.3,209.8z"/>
			<path class="st3" d="M65.6,241.1c0.4,0.9,1.1,1.6,1.9,2.2c1.2,0.6,2.2,0.5,3.3,1.1c1.5,1,3.2,1.7,4.9,1.9
				c1.6,0.3,3.2-0.7,3.5-2.4c0.2-0.9-0.1-1.8-0.7-2.5c-2.1-2.4-3.1-3.8-4.3-4c-1.5-0.2-3-0.6-4.4-1.2
				C65.6,235.9,65.6,241.1,65.6,241.1z"/>
		</g>
		<g id="Documento">
			<g id="Document-4">
				<path class="st12" d="M193.1,27.2v249.3c0.4,3,1.3,5.9,2.9,8.4c1.5,2.7,3.5,5.1,5.9,7L365,392.6c1.8,1,2.9,0.4,3-1.6V137.9
					c0-1.5-0.3-2.9-0.9-4.3c-1.7-4.6-5.2-9.6-7.9-11.1l-159-98.1c-0.3-0.1-0.6-0.1-0.9-0.3l-0.8-0.1c-0.3,0-0.6,0.1-0.9,0.1h-0.3
					h-0.6h-0.5c-0.3,0.3-0.6,0.5-0.9,0.7c-0.1,0.1-0.3,0.1-0.4,0.2l-0.1,0.1c-0.1,0.1-0.3,0.2-0.5,0.3l-0.8,0.6
					c-0.2,0.1-0.4,0.2-0.6,0.3"/>
				<line class="st13" x1="193.1" y1="26.2" x2="193.1" y2="27.2"/>
				<path class="st6" d="M194.9,287.9L358,388.5c1.8,1,2.9,0.4,3-1.6V133.7c-0.1-2.2-1.3-4.1-3-5.4L194.9,27.7c-1.8-1-2.9-0.4-3,1.6
					v253.2C192,284.6,193.1,286.6,194.9,287.9z"/>
				<path class="st4" d="M360.8,124.1L197.6,24.4c-0.3-0.2-0.8-0.3-1.1-0.2l-0.9,0.6c-0.4,0.2-0.7,0.5-1,0.8c-0.3,0.4-0.6,0.8-1,1.1
					c-0.1,0.6,0.2,1.2,0.8,1.6L357.5,128c0.6,0.4,1.3,0.4,1.8,0l1.5-1c0.8-0.5,1.1-1.5,0.6-2.3C361.3,124.4,361.1,124.2,360.8,124.1
					z"/>
				<g id="Text">
					<polygon class="st4" points="218.5,42.3 333.3,113 333.3,139.1 218.5,68.5 					"/>
					<polygon class="st7" points="356.2,161.9 264.6,105.4 264.6,125.1 356.2,181.5 					"/>
					<path class="st14" d="M281.8,120.6c0,0,0.1,0.1,0.2,0.2s0,0.2,0,0.2v1.6c0,0.1,0,0.2,0,0.3c0,0.1-0.1,0.1-0.2,0l-1.7-1v7.7
						c0,0.1,0,0.2,0,0.3c0,0-0.1,0-0.2,0l-1.3-0.8l-0.2-0.2c-0.1-0.1-0.1-0.2-0.1-0.3v-7.7l-1.7-1c-0.1-0.1-0.1-0.1-0.2-0.2
						c0-0.1-0.1-0.2-0.1-0.3v-1.6c0-0.1,0-0.2,0.1-0.2c0,0,0.1,0,0.2,0L281.8,120.6z"/>
					<path class="st14" d="M282.6,125c0-0.5,0.1-1,0.2-1.4c0.1-0.3,0.3-0.6,0.6-0.9c0.3-0.2,0.6-0.3,0.9-0.3c0.5,0,0.9,0.2,1.3,0.5
						c0.5,0.3,0.9,0.7,1.3,1.1c0.4,0.4,0.7,0.9,0.9,1.4c0.3,0.5,0.5,1.1,0.6,1.6c0.1,0.6,0.2,1.2,0.2,1.7v2.6c0,0.5-0.1,1-0.2,1.4
						c-0.1,0.3-0.3,0.6-0.6,0.9c-0.3,0.2-0.6,0.3-0.9,0.3c-0.5-0.1-0.9-0.2-1.3-0.5c-0.5-0.3-0.9-0.7-1.3-1.1
						c-0.4-0.4-0.7-0.9-0.9-1.4c-0.3-0.5-0.5-1.1-0.6-1.7c-0.1-0.6-0.2-1.1-0.2-1.7v-1.3C282.6,125.9,282.6,125.4,282.6,125z
						 M286.9,130.2v-2.5c0-0.3-0.1-0.5-0.1-0.8c-0.1-0.2-0.1-0.5-0.2-0.7c-0.1-0.2-0.2-0.4-0.4-0.6c-0.1-0.2-0.3-0.3-0.5-0.5
						c-0.2-0.1-0.3-0.2-0.5-0.2c-0.1,0-0.3,0-0.4,0.1c-0.2,0.3-0.4,0.6-0.3,1v2.5c0,0.5,0.1,1,0.3,1.4c0.2,0.4,0.5,0.8,0.9,1.1
						c0.4,0.3,0.7,0.3,0.9,0.1C286.7,131,286.9,130.6,286.9,130.2L286.9,130.2z"/>
					<path class="st14" d="M294.7,128.6c0.1,0,0.2,0.1,0.2,0.2c0,0.1,0,0.2,0,0.2v1.6c0,0.1,0,0.2,0,0.3c0,0-0.1,0-0.2,0l-1.7-1v7.6
						c0,0.1,0,0.2,0,0.3c0,0-0.1,0-0.2,0l-1.3-0.8c-0.1-0.1-0.1-0.1-0.2-0.2c-0.1-0.1-0.1-0.2-0.1-0.3V129l-1.7-1
						c-0.1-0.1-0.2-0.1-0.2-0.2c0-0.1-0.1-0.2-0.1-0.3v-1.6c0-0.1,0-0.2,0.1-0.2c0-0.1,0.1,0,0.2,0L294.7,128.6z"/>
					<path class="st14" d="M298.8,131.1l0.3,0.4c0.1,0.1,0.1,0.3,0.1,0.4l2.1,10.7c0,0.1,0,0.1,0,0.2c0,0.1,0,0.2,0,0.3
						c0,0-0.1,0-0.1,0l-1.2-0.8c-0.1-0.1-0.2-0.2-0.3-0.3c-0.1-0.1-0.1-0.2-0.1-0.3l-0.3-1.4l-2.6-1.6l-0.3,1.1
						c0,0.1-0.1,0.1-0.1,0.2c-0.1,0-0.2,0-0.3,0l-1.2-0.8c-0.1,0-0.1-0.1-0.2-0.2c0-0.1,0-0.2,0-0.2c0-0.1,0-0.2,0-0.3l2.1-8.1
						c0-0.1,0.1-0.2,0.1-0.2c0.1,0,0.2,0,0.3,0L298.8,131.1z M297.2,136.7l1.6,1l-0.8-4.1L297.2,136.7z"/>
					<path class="st14" d="M307,144.3l0.2,0.2c0.1,0.1,0.1,0.2,0.1,0.3v1.6c0,0.1,0,0.2-0.1,0.2c0,0.1-0.1,0.1-0.2,0l-4.5-2.8
						l-0.2-0.2c-0.1-0.1-0.1-0.2-0.1-0.3v-9.6c0-0.1,0-0.2,0.1-0.2c0,0,0.1,0,0.2,0l1.3,0.8c0.1,0.1,0.1,0.1,0.2,0.2
						c0,0.1,0.1,0.2,0.1,0.3v7.6L307,144.3z"/>
					<path class="st14" d="M327.7,148.8c0.3,0.3,0.6,0.6,0.8,1c0.2,0.3,0.4,0.6,0.6,1c0.1,0.3,0.3,0.7,0.4,1
						c0.1,0.3,0.1,0.6,0.1,0.8c0,0.1,0,0.2,0,0.3c-0.1,0-0.1,0-0.2,0l-0.7-0.4c-0.1-0.1-0.2-0.2-0.3-0.3c-0.1-0.1-0.1-0.2-0.2-0.4
						c-0.1-0.3-0.3-0.6-0.5-0.9c-0.2-0.3-0.5-0.6-0.9-0.8c-0.2-0.1-0.3-0.2-0.5-0.2c-0.1,0-0.3,0-0.4,0c-0.1,0-0.2,0.1-0.3,0.2
						c-0.1,0.1-0.1,0.3-0.1,0.4c0,0.2,0,0.4,0.1,0.6c0.1,0.2,0.2,0.4,0.4,0.6c0.2,0.3,0.4,0.5,0.6,0.7l0.9,0.9
						c0.4,0.3,0.7,0.7,1,1.1c0.3,0.3,0.5,0.7,0.7,1.1c0.2,0.3,0.3,0.7,0.4,1c0.1,0.4,0.1,0.8,0.1,1.1c0,0.3,0,0.7-0.1,1
						c-0.1,0.3-0.2,0.5-0.4,0.7c-0.2,0.2-0.4,0.2-0.7,0.2c-0.3,0-0.6-0.1-0.9-0.2v1c0,0.1,0,0.2-0.1,0.2c0,0.1-0.1,0-0.2,0l-0.8-0.5
						c-0.1-0.1-0.1-0.1-0.2-0.2c-0.1-0.1-0.1-0.2-0.1-0.3v-1c-0.3-0.3-0.6-0.6-0.8-0.9c-0.3-0.3-0.5-0.6-0.7-1
						c-0.2-0.4-0.4-0.7-0.5-1.1c-0.1-0.4-0.2-0.8-0.2-1.1c0-0.1,0-0.2,0.1-0.2c0-0.1,0.1-0.1,0.2,0l0.7,0.4c0.1,0.1,0.2,0.1,0.3,0.3
						s0.1,0.1,0.1,0.3s0.1,0.3,0.2,0.5c0.1,0.2,0.2,0.3,0.3,0.5c0.1,0.2,0.3,0.3,0.4,0.5c0.2,0.2,0.4,0.3,0.6,0.5
						c0.2,0.1,0.4,0.2,0.6,0.3c0.2,0,0.3,0.1,0.5,0.1c0.1,0,0.2-0.1,0.3-0.2c0.1-0.1,0.1-0.3,0.1-0.5c0-0.2-0.1-0.4-0.1-0.6
						c-0.1-0.2-0.3-0.4-0.4-0.6c-0.2-0.2-0.4-0.5-0.7-0.7l-1-0.9c-0.3-0.3-0.6-0.6-0.9-1c-0.2-0.3-0.4-0.6-0.6-1
						c-0.2-0.3-0.3-0.7-0.4-1c-0.1-0.4-0.1-0.8-0.1-1.2c0-0.3,0-0.7,0.2-1c0.1-0.5,0.5-0.9,1-0.9c0.3,0,0.5,0,0.8,0.1v-1
						c0-0.1,0-0.2,0.1-0.2s0.1,0,0.2,0l0.8,0.5c0.1,0.1,0.1,0.1,0.2,0.2c0.1,0.1,0.1,0.2,0.1,0.3L327.7,148.8z"/>
					<path class="st14" d="M334.4,152.9c0.3,0.3,0.6,0.6,0.9,1c0.2,0.3,0.4,0.7,0.6,1c0.2,0.3,0.3,0.7,0.4,1
						c0.1,0.3,0.1,0.6,0.1,0.9c0,0.1,0,0.2-0.1,0.2c0,0.1-0.1,0.1-0.2,0l-0.7-0.4c-0.1-0.1-0.2-0.2-0.2-0.3
						c-0.1-0.1-0.1-0.2-0.2-0.3c-0.1-0.3-0.2-0.6-0.4-0.9c-0.2-0.3-0.5-0.6-0.9-0.8c-0.2-0.1-0.3-0.2-0.5-0.2c-0.1,0-0.3,0-0.4,0
						c-0.1,0-0.2,0.1-0.3,0.2c-0.1,0.1-0.1,0.3-0.1,0.4c0,0.2,0,0.4,0.1,0.6c0.1,0.2,0.2,0.4,0.4,0.6c0.2,0.3,0.4,0.5,0.6,0.7
						l0.9,0.9c0.4,0.3,0.7,0.7,1,1.1c0.3,0.3,0.5,0.6,0.7,1c0.2,0.3,0.3,0.7,0.4,1.1c0.1,0.4,0.1,0.8,0.1,1.1c0,0.3,0,0.7-0.1,1
						c-0.1,0.3-0.2,0.5-0.4,0.6c-0.2,0.2-0.4,0.3-0.7,0.3c-0.3,0-0.6-0.1-0.9-0.2v1c0,0.2-0.1,0.3-0.3,0.3l-0.8-0.5
						c0,0-0.1-0.1-0.2-0.2c-0.1-0.1-0.1-0.2-0.1-0.4v-1.1c-0.3-0.3-0.6-0.6-0.8-0.9c-0.5-0.6-0.9-1.4-1.1-2.1
						c-0.1-0.4-0.2-0.8-0.2-1.2c0-0.1,0-0.2,0-0.3c0,0,0.1,0,0.2,0l0.7,0.4c0.1,0.1,0.2,0.2,0.3,0.3c0.1,0.1,0.1,0.2,0.2,0.4
						c0,0.2,0.1,0.3,0.2,0.5c0.1,0.2,0.2,0.3,0.3,0.5c0.1,0.2,0.3,0.3,0.4,0.5c0.2,0.2,0.4,0.3,0.6,0.5c0.2,0.1,0.4,0.2,0.6,0.3
						c0.3,0.2,0.6,0.1,0.8-0.1c0.1-0.1,0.1-0.3,0.1-0.5c0-0.2,0-0.4-0.1-0.6c-0.1-0.2-0.3-0.4-0.4-0.6c-0.2-0.3-0.5-0.5-0.7-0.7
						l-0.9-0.9c-0.3-0.3-0.6-0.6-0.9-1c-0.2-0.3-0.4-0.6-0.6-1c-0.2-0.3-0.3-0.7-0.4-1.1c-0.1-0.4-0.1-0.8-0.1-1.2
						c0-0.3,0-0.7,0.1-1c0.1-0.2,0.2-0.4,0.4-0.6c0.2-0.2,0.4-0.2,0.6-0.3c0.3,0,0.5,0,0.8,0.1v-1c0-0.1,0-0.2,0.1-0.2s0.1,0,0.2,0
						l0.8,0.5c0,0,0.1,0.1,0.2,0.2l0,0c0,0.1,0,0.2,0,0.2L334.4,152.9z"/>
					<path class="st14" d="M341.2,157.1c0.3,0.3,0.6,0.6,0.9,1c0.2,0.3,0.4,0.6,0.6,1c0.1,0.3,0.3,0.7,0.4,1
						c0.1,0.3,0.1,0.6,0.2,0.9c0,0.1,0,0.2-0.1,0.2c0,0-0.1,0-0.2,0l-0.7-0.4c-0.1-0.1-0.2-0.2-0.3-0.3c-0.1-0.1-0.1-0.2-0.1-0.3
						c-0.1-0.3-0.3-0.6-0.4-0.9c-0.2-0.3-0.5-0.6-0.9-0.8c-0.2-0.1-0.3-0.2-0.5-0.2c-0.1,0-0.3,0-0.4,0c-0.1,0-0.2,0.1-0.3,0.2
						c-0.1,0.1-0.1,0.3-0.1,0.4c0,0.2,0,0.4,0.1,0.6c0.1,0.2,0.2,0.4,0.3,0.6c0.2,0.3,0.4,0.5,0.6,0.7l0.9,0.9
						c0.4,0.3,0.7,0.7,1,1.1c0.3,0.3,0.5,0.6,0.7,1c0.2,0.3,0.3,0.7,0.4,1.1c0.1,0.4,0.1,0.8,0.1,1.2c0,0.3,0,0.7-0.1,1
						c-0.1,0.3-0.2,0.5-0.4,0.6c-0.2,0.2-0.4,0.2-0.7,0.2c-0.3,0-0.6,0-0.9-0.2v1c0,0.1,0,0.2-0.1,0.2s-0.1,0.1-0.2,0l-0.8-0.5
						c-0.1-0.1-0.2-0.1-0.2-0.2c-0.1-0.1-0.1-0.2-0.1-0.3v-1c-0.3-0.3-0.6-0.5-0.8-0.9c-0.3-0.3-0.5-0.6-0.7-1
						c-0.2-0.4-0.4-0.7-0.5-1.1c-0.1-0.4-0.2-0.8-0.2-1.1c0-0.1,0-0.2,0-0.3c0.1,0,0.1,0,0.2,0l0.7,0.4c0.1,0.1,0.2,0.1,0.3,0.3
						c0.1,0.1,0.1,0.2,0.1,0.4c0,0.2,0.1,0.3,0.2,0.5c0.1,0.2,0.2,0.3,0.3,0.5c0.1,0.2,0.3,0.4,0.4,0.5c0.2,0.2,0.4,0.3,0.6,0.5
						c0.2,0.1,0.4,0.2,0.6,0.3c0.1,0.1,0.3,0.1,0.5,0.1c0.1,0,0.2-0.1,0.3-0.2c0.1-0.1,0.1-0.3,0.1-0.5c0-0.2,0-0.4-0.1-0.6
						c-0.1-0.2-0.3-0.4-0.4-0.6c-0.2-0.2-0.4-0.5-0.7-0.7l-1-0.9c-0.3-0.3-0.6-0.6-0.8-1c-0.2-0.3-0.4-0.6-0.6-1
						c-0.2-0.3-0.3-0.7-0.4-1.1c-0.1-0.4-0.1-0.8-0.1-1.2c0-0.3,0-0.7,0.1-1c0.1-0.2,0.2-0.5,0.4-0.6c0.2-0.2,0.4-0.3,0.6-0.3
						c0.3,0,0.5,0,0.8,0.1v-1c0-0.1,0-0.2,0.1-0.2c0,0,0.1,0,0.2,0l0.8,0.5c0.1,0.1,0.1,0.1,0.2,0.2c0.1,0.1,0.1,0.2,0.1,0.3
						L341.2,157.1z"/>
					<path class="st14" d="M348,161.3c0.3,0.3,0.6,0.6,0.8,1c0.2,0.3,0.4,0.7,0.6,1c0.2,0.3,0.3,0.7,0.4,1c0.1,0.3,0.1,0.6,0.1,0.9
						c0,0.1,0,0.2,0,0.3c-0.1,0-0.1,0-0.2,0l-0.7-0.4l-0.3-0.3c-0.1-0.1-0.1-0.2-0.1-0.4c-0.1-0.3-0.3-0.6-0.5-0.9
						c-0.3-0.3-0.6-0.6-0.9-0.8c-0.2-0.1-0.3-0.2-0.5-0.2c-0.1,0-0.3,0-0.4,0c-0.1,0-0.2,0.1-0.3,0.2c-0.1,0.1-0.1,0.3-0.1,0.4
						c0,0.2,0,0.4,0.1,0.6c0.1,0.2,0.2,0.4,0.4,0.6c0.2,0.3,0.4,0.5,0.6,0.7l0.9,0.9c0.4,0.3,0.7,0.7,1,1.1c0.3,0.3,0.5,0.6,0.7,1
						c0.2,0.3,0.3,0.7,0.4,1.1c0.1,0.4,0.1,0.8,0.1,1.1c0,0.3,0,0.7-0.1,1c-0.1,0.5-0.6,0.9-1.1,0.9c-0.3,0-0.6-0.1-0.9-0.2v1
						c0,0.1,0,0.2-0.1,0.2c0,0-0.1,0-0.2,0l-0.8-0.5c-0.1,0-0.1-0.1-0.2-0.2c-0.1-0.1-0.1-0.2-0.1-0.3v-1c-0.3-0.3-0.6-0.5-0.8-0.9
						c-0.5-0.6-0.9-1.4-1.1-2.1c-0.1-0.4-0.2-0.8-0.2-1.2c0-0.1,0-0.2,0.1-0.2c0,0,0.1,0,0.2,0l0.7,0.4c0.1,0.1,0.2,0.2,0.3,0.3
						c0.1,0.1,0.1,0.2,0.1,0.4c0,0.2,0.1,0.3,0.2,0.5c0.1,0.2,0.2,0.3,0.3,0.5c0.1,0.2,0.3,0.3,0.4,0.5c0.2,0.2,0.4,0.4,0.6,0.5
						c0.2,0.1,0.4,0.2,0.6,0.3c0.2,0.1,0.3,0.1,0.5,0.1c0.1,0,0.3-0.1,0.3-0.2c0.1-0.1,0.1-0.3,0.1-0.5c0-0.2,0-0.4-0.1-0.6
						c-0.1-0.2-0.3-0.4-0.4-0.6c-0.2-0.3-0.5-0.5-0.7-0.7s-0.6-0.6-1-0.9c-0.3-0.3-0.6-0.6-0.9-1c-0.2-0.3-0.4-0.6-0.6-1
						c-0.2-0.3-0.3-0.7-0.4-1.1c-0.1-0.4-0.1-0.8-0.1-1.2c0-0.3,0-0.7,0.1-1c0.1-0.2,0.2-0.5,0.4-0.6c0.2-0.2,0.4-0.2,0.6-0.3
						c0.3,0,0.5,0,0.8,0.1v-1c0-0.1,0-0.2,0.1-0.2c0-0.1,0.1-0.1,0.2,0l0.8,0.5c0.1,0,0.1,0.1,0.2,0.2c0.1,0.1,0.1,0.2,0.1,0.3
						L348,161.3z"/>
					<polygon class="st7" points="211,100.8 354.2,189.1 354.2,192.4 211,104.1 					"/>
					<polygon class="st15" points="211,100.8 354.2,189.1 354.2,192.4 211,104.1 					"/>
					<polygon class="st7" points="211,185.8 354.2,274.1 354.2,277.3 211,189 					"/>
					<polygon class="st15" points="211,185.8 354.2,274.1 354.2,277.3 211,189 					"/>
					<polygon class="st7" points="211,110.6 262.6,142.4 262.6,148.9 211,117.2 					"/>
					<polygon class="st7" points="274,149.5 297,163.6 297,170.1 274,156 					"/>
					<polygon class="st7" points="302.7,167.1 325.6,181.3 325.6,187.8 302.7,173.7 					"/>
					<polygon class="st7" points="331.3,184.8 354.2,198.9 354.2,205.4 331.3,191.3 					"/>
					<polygon class="st16" points="211,130.2 354.2,218.5 354.2,231.6 211,143.3 					"/>
					<polygon class="st16" points="211,156.4 354.2,244.6 354.2,257.7 211,169.4 					"/>
					<path class="st4" d="M216.8,128.3c-0.6-0.7-0.9-1.5-1.1-2.3c0-0.4,0.2-0.5,0.5-0.3l40.1,24.7c0.7,0.5,1.2,1.3,1.5,2.1
						c0.3,0.8,0.1,1.3-0.4,1l-40.1-24.7C217.1,128.6,216.9,128.5,216.8,128.3z"/>
					<path class="st4" d="M279.8,164.2c-0.4-0.4-0.6-1-0.7-1.5c0-0.2,0.1-0.3,0.4-0.2l17.2,10.7c0.4,0.4,0.8,0.9,0.9,1.4
						c0.2,0.5,0,0.8-0.2,0.6l-17.2-10.6C280,164.5,279.9,164.4,279.8,164.2z"/>
					<path class="st4" d="M279.8,169c-0.3-0.3-0.5-0.7-0.6-1.1c-0.2-0.6-0.1-0.9,0.3-0.7l17.2,10.7c0.5,0.4,0.8,0.8,1,1.4
						c0.2,0.6,0.1,0.9-0.3,0.7l-17.2-10.6C280,169.3,279.9,169.2,279.8,169z"/>
					<path class="st4" d="M308.4,184.4c-0.4-0.4-0.6-1-0.7-1.5c0-0.2,0.1-0.3,0.4-0.2l17.2,10.6c0.5,0.4,0.8,0.8,1,1.4
						c0.2,0.6,0.1,0.9-0.3,0.7l-17.2-10.6C308.7,184.7,308.5,184.5,308.4,184.4z"/>
					<path class="st4" d="M337.1,202.1c-0.3-0.3-0.5-0.7-0.6-1.1c-0.2-0.6-0.1-0.9,0.2-0.7l0,0l17.2,10.7c0.5,0.4,0.8,0.9,1,1.4
						c0.2,0.6,0.1,0.8-0.2,0.6l0,0l-17.2-10.6C337.3,202.4,337.2,202.2,337.1,202.1z"/>
					<path class="st4" d="M216.8,141.4c-0.6-0.7-0.9-1.5-1.1-2.3c0-0.4,0.2-0.4,0.5-0.3l28.8,17.7c0.7,0.6,1.2,1.3,1.4,2.1
						c0.3,0.9,0.1,1.3-0.4,1L217.4,142C217.2,141.8,217,141.6,216.8,141.4z"/>
					<path class="st4" d="M279.8,177.4c-0.3-0.3-0.5-0.7-0.6-1.1c-0.2-0.6-0.1-0.9,0.3-0.6l17.2,10.6c0.5,0.4,0.8,0.8,1,1.4
						c0.2,0.6,0.1,0.9-0.3,0.7l-17.2-10.6C280,177.6,279.9,177.5,279.8,177.4z"/>
					<path class="st4" d="M279.8,182.1c-0.4-0.4-0.6-1-0.7-1.5c0-0.2,0.1-0.3,0.4-0.2l17.2,10.6c0.4,0.4,0.8,0.8,0.9,1.4l0,0
						c0.2,0.6,0.1,0.9-0.3,0.6l-17.2-10.6C280,182.3,279.9,182.2,279.8,182.1z"/>
					<path class="st4" d="M308.4,197.5c-0.3-0.3-0.5-0.7-0.6-1.1c-0.2-0.6-0.1-0.9,0.3-0.7l17.2,10.6c0.5,0.3,0.8,0.8,1,1.3
						c0.3,0.6,0.2,1-0.1,0.9c-0.1,0-0.1-0.1-0.2-0.1l-17.2-10.6C308.6,197.7,308.5,197.6,308.4,197.5z"/>
					<path class="st4" d="M337.1,215.2c-0.3-0.3-0.5-0.7-0.6-1.1c-0.2-0.6-0.1-0.9,0.3-0.7l17.2,10.6c0.5,0.4,0.8,0.8,1,1.4
						c0.2,0.6,0.1,0.9-0.3,0.7l0,0l-17.2-10.6C337.3,215.4,337.2,215.3,337.1,215.2z"/>
					<path class="st4" d="M216.8,154.4c-0.6-0.7-0.9-1.5-1.1-2.3c0-0.3,0.2-0.5,0.5-0.3l45.8,28.3c0.7,0.6,1.2,1.3,1.4,2.1l0,0
						c0.3,0.8,0.1,1.3-0.4,1l0,0l-45.8-28.3C217.1,154.8,216.9,154.6,216.8,154.4z"/>
					<path class="st4" d="M279.8,190.4c-0.4-0.4-0.6-1-0.7-1.5c0-0.3,0.1-0.3,0.4-0.2l17.2,10.6c0.4,0.4,0.8,0.9,0.9,1.4
						c0.2,0.5,0,0.8-0.2,0.6l-17.2-10.6C280,190.7,279.9,190.6,279.8,190.4z"/>
					<path class="st4" d="M279.8,195.1c-0.3-0.3-0.5-0.7-0.6-1.1c-0.2-0.6-0.1-0.9,0.3-0.7l17.2,10.6c0.5,0.4,0.8,0.8,1,1.4
						c0.2,0.6,0.1,0.9-0.3,0.7l-17.2-10.6C280,195.4,279.9,195.2,279.8,195.1z"/>
					<path class="st4" d="M308.4,210.6c-0.4-0.4-0.6-1-0.6-1.5c0-0.2,0.1-0.3,0.4-0.1l17.2,10.6c0.4,0.3,0.8,0.8,1,1.3
						c0,0,0,0.1,0,0.1c0.2,0.6,0.1,0.9-0.3,0.6L308.8,211C308.7,210.9,308.5,210.7,308.4,210.6z"/>
					<path class="st4" d="M337.1,228.2c-0.3-0.3-0.5-0.7-0.6-1.1c-0.2-0.6-0.1-0.9,0.2-0.7l0,0l17.2,10.6c0.5,0.4,0.8,0.8,1,1.4
						c0.2,0.6,0.1,0.8-0.2,0.6l0,0l-17.2-10.6C337.3,228.4,337.2,228.3,337.1,228.2z"/>
					<path class="st4" d="M216.8,167.5c-0.6-0.7-0.9-1.5-1.1-2.3c0-0.4,0.2-0.5,0.5-0.3l22.9,14.1c0.7,0.6,1.2,1.3,1.4,2.1
						c0.3,0.8,0.1,1.3-0.4,1l0,0L217.3,168C217.1,167.9,216.9,167.7,216.8,167.5z"/>
					<path class="st4" d="M279.8,203.5c-0.3-0.3-0.5-0.7-0.6-1.1c-0.2-0.6-0.1-0.9,0.3-0.7l17.2,10.6c0.5,0.4,0.8,0.8,1,1.4
						c0.2,0.6,0.1,0.9-0.3,0.7l-17.2-10.6C280,203.8,279.9,203.7,279.8,203.5z"/>
					<path class="st4" d="M279.8,208.2c-0.4-0.4-0.6-1-0.7-1.5c0-0.2,0.1-0.3,0.4-0.2l17.2,10.6c0.4,0.3,0.7,0.8,0.9,1.3
						c0,0,0,0.1,0,0.1c0.2,0.6,0.1,0.9-0.3,0.6l-17.2-10.6C280,208.4,279.9,208.3,279.8,208.2z"/>
					<path class="st4" d="M308.4,223.6c-0.3-0.3-0.5-0.7-0.6-1.1c-0.2-0.6-0.1-0.9,0.3-0.6l17.2,10.6c0.5,0.3,0.8,0.8,1,1.3
						c0.3,0.6,0.2,1-0.1,0.9l-0.2-0.1L308.8,224C308.6,223.9,308.5,223.8,308.4,223.6z"/>
					<path class="st4" d="M337.1,241.3c-0.4-0.4-0.6-1-0.7-1.6c0-0.2,0.1-0.3,0.3-0.2l17.2,10.6c0.5,0.4,0.8,0.9,1,1.4
						c0.2,0.6,0.1,0.9-0.3,0.6l0,0l-17.2-10.6C337.3,241.5,337.2,241.4,337.1,241.3z"/>
					<path class="st4" d="M216.8,180.6c-0.6-0.7-0.9-1.5-1.1-2.3c0-0.4,0.2-0.5,0.5-0.3l40.1,24.7c0.7,0.5,1.2,1.3,1.5,2.1
						c0.3,0.9,0.1,1.3-0.4,1L217.3,181C217.1,180.9,216.9,180.7,216.8,180.6z"/>
					<path class="st4" d="M279.8,216.6c-0.4-0.4-0.6-1-0.7-1.5c0-0.2,0.1-0.3,0.4-0.2l17.2,10.6c0.4,0.4,0.8,0.8,0.9,1.4l0,0
						c0.2,0.6,0.1,0.9-0.3,0.6l-17.2-10.6C280,216.8,279.9,216.7,279.8,216.6z"/>
					<path class="st4" d="M279.8,221.3c-0.3-0.3-0.5-0.7-0.6-1.1c-0.2-0.6-0.1-0.9,0.3-0.6l17.2,10.6c0.4,0.4,0.8,0.9,0.9,1.4
						c0.2,0.5,0,0.8-0.2,0.6l-17.2-10.6C280,221.5,279.9,221.4,279.8,221.3z"/>
					<path class="st4" d="M308.4,236.7c-0.4-0.4-0.6-1-0.7-1.5c0-0.3,0.1-0.3,0.4-0.2l17.2,10.6c0.5,0.4,0.8,0.9,1,1.4
						c0.2,0.6,0.1,0.9-0.3,0.6L308.8,237C308.6,236.9,308.5,236.8,308.4,236.7z"/>
					<path class="st4" d="M337.1,254.3c-0.3-0.3-0.5-0.7-0.6-1.1c-0.2-0.6-0.1-0.9,0.2-0.7l0,0l17.2,10.6c0.5,0.4,0.8,0.9,1,1.4
						c0.2,0.5,0.1,0.8-0.2,0.6l0,0l-17.2-10.6C337.3,254.6,337.2,254.4,337.1,254.3z"/>
					<path class="st4" d="M308.4,256.3c-0.4-0.4-0.6-1-0.7-1.5c0-0.3,0.2-0.4,0.5-0.1l17.2,10.6c0.5,0.4,0.8,0.8,1,1.4
						c0.2,0.6,0.1,0.9-0.2,0.7l-17.2-10.6C308.7,256.6,308.5,256.5,308.4,256.3z"/>
					<path class="st4" d="M337.1,274c-0.3-0.3-0.5-0.7-0.6-1.1c-0.2-0.5-0.1-0.9,0.2-0.7l0,0l17.2,10.6c0.5,0.4,0.8,0.9,1,1.4
						c0.2,0.5,0.1,0.8-0.2,0.6l0,0l-17.2-10.6C337.3,274.2,337.2,274.1,337.1,274z"/>
					<path class="st4" d="M308.4,262.9c-0.3-0.3-0.5-0.7-0.6-1.1c-0.2-0.6-0.1-0.9,0.3-0.7l17.2,10.7c0.4,0.4,0.8,0.9,0.9,1.5
						c0.1,0.4,0,0.7-0.2,0.6l-17.2-10.6C308.6,263.1,308.5,263,308.4,262.9z"/>
					<path class="st4" d="M337.1,280.5c-0.3-0.3-0.5-0.7-0.6-1.1c-0.2-0.6-0.1-0.9,0.2-0.7l0,0l17.2,10.6c0.5,0.4,0.8,0.9,1,1.4
						c0.2,0.5,0.1,0.8-0.2,0.6l0,0l-17.2-10.6C337.3,280.7,337.2,280.6,337.1,280.5z"/>
					<path class="st4" d="M216.8,212.9c-0.3-0.3-0.5-0.7-0.6-1.1c-0.2-0.6-0.1-0.9,0.3-0.6l34.3,21.1c0.5,0.4,0.8,0.8,1,1.4
						c0.2,0.6,0.1,0.9-0.2,0.7l-34.4-21.2C217,213.1,216.9,213,216.8,212.9z"/>
					<path class="st4" d="M216.8,219.4c-0.3-0.3-0.5-0.7-0.6-1.1c-0.2-0.6-0.1-0.9,0.3-0.6l34.3,21.1c0.4,0.3,0.8,0.8,0.9,1.3
						c0,0,0,0.1,0,0.1c0.2,0.6,0.1,0.8-0.3,0.6l-34.4-21.2C217,219.6,216.9,219.5,216.8,219.4z"/>
					<path class="st4" d="M216.8,226c-0.3-0.3-0.5-0.7-0.6-1.1c-0.2-0.6-0.1-0.9,0.3-0.6l34.3,21.1c0.4,0.4,0.8,0.9,0.9,1.5
						c0.1,0.4,0,0.7-0.2,0.6l-34.4-21.2C217,226.2,216.9,226.1,216.8,226z"/>
					<g id="documentos">
						<path class="st6" d="M228.5,53.6c0.7,0.5,1.4,1.1,2,1.7c0.6,0.7,1,1.4,1.4,2.2c0.4,0.8,0.7,1.7,0.9,2.6
							c0.2,0.9,0.3,1.9,0.4,2.8v3.4c0,0.8-0.1,1.6-0.4,2.4c-0.1,0.6-0.5,1-0.9,1.4c-0.4,0.3-0.9,0.5-1.4,0.4c-0.7-0.1-1.4-0.4-2-0.8
							l-3.9-2.5c-0.1-0.1-0.2-0.2-0.3-0.3c-0.1-0.2-0.1-0.3-0.1-0.5V51.6c0-0.1,0-0.3,0.1-0.3c0.1-0.1,0.2-0.1,0.3,0L228.5,53.6z
							 M231,61.6c0-0.5-0.1-1-0.2-1.5c-0.1-0.5-0.3-1-0.5-1.4c-0.2-0.5-0.5-0.9-0.8-1.3c-0.3-0.4-0.7-0.7-1.1-1l-2.1-1.4v10.4
							l2.2,1.4c0.3,0.2,0.7,0.4,1.1,0.4c0.3,0,0.6,0,0.8-0.2c0.2-0.2,0.4-0.5,0.5-0.8c0.1-0.4,0.2-0.8,0.2-1.3
							C231.1,63.8,231.1,62.7,231,61.6L231,61.6z"/>
						<path class="st6" d="M234.8,63.6c0-0.7,0.1-1.5,0.3-2.2c0.1-0.6,0.4-1.1,0.9-1.5c0.4-0.3,0.9-0.5,1.4-0.4
							c0.7,0.1,1.4,0.4,2,0.8c0.8,0.5,1.4,1.1,2,1.7c0.6,0.7,1,1.4,1.4,2.2c0.4,0.8,0.7,1.7,0.9,2.6c0.2,0.9,0.3,1.8,0.4,2.7v4.1
							c0,0.7-0.1,1.5-0.3,2.2c-0.1,0.6-0.4,1-0.9,1.4c-0.4,0.3-0.9,0.5-1.4,0.4c-0.7-0.1-1.4-0.4-2-0.8c-0.8-0.5-1.4-1.1-2-1.8
							c-0.6-0.7-1-1.4-1.4-2.2c-0.4-0.8-0.7-1.6-0.9-2.5c-0.2-0.9-0.3-1.8-0.3-2.6v-3.2C234.8,64.2,234.8,63.9,234.8,63.6z
							 M241.9,68.2c0-1-0.3-2.1-0.7-3c-0.4-0.8-1-1.6-1.8-2.1c-0.8-0.5-1.4-0.5-1.8-0.2c-0.5,0.6-0.8,1.3-0.7,2.1v3.9
							c0,1,0.3,2.1,0.7,3c0.4,0.8,1,1.5,1.8,2c0.8,0.5,1.4,0.5,1.8,0.2c0.5-0.5,0.8-1.3,0.7-2.1v-2
							C241.9,69.3,241.9,68.7,241.9,68.2L241.9,68.2z"/>
						<path class="st6" d="M252.8,80c0-0.1,0.1-0.3,0.2-0.3c0.1-0.1,0.2-0.1,0.3,0l1.3,0.8c0.3,0.2,0.4,0.5,0.4,0.9
							c0,0.6-0.1,1.1-0.3,1.7c-0.1,0.5-0.4,0.9-0.8,1.2c-0.4,0.3-0.9,0.4-1.4,0.3c-0.7-0.1-1.5-0.4-2.1-0.9c-0.7-0.5-1.4-1-1.9-1.7
							c-0.6-0.7-1-1.4-1.4-2.2c-0.4-0.8-0.7-1.7-0.9-2.6c-0.2-0.9-0.4-1.9-0.4-2.8v-3.8c0-0.8,0.1-1.6,0.4-2.3
							c0.2-0.6,0.5-1.1,0.9-1.4c0.4-0.3,0.9-0.5,1.4-0.4c0.7,0.1,1.3,0.3,1.9,0.7c0.8,0.5,1.5,1.1,2.1,1.8c0.6,0.7,1,1.4,1.4,2.1
							c0.4,0.7,0.6,1.5,0.8,2.3c0.2,0.7,0.3,1.4,0.3,2.1c0,0.1,0,0.3-0.1,0.4c-0.1,0.1-0.2,0.1-0.3,0l-1.3-0.8
							c-0.1-0.1-0.2-0.2-0.3-0.3c-0.1-0.2-0.2-0.4-0.2-0.6c0-0.3-0.1-0.7-0.2-1c-0.1-0.4-0.3-0.7-0.5-1.1c-0.2-0.4-0.5-0.7-0.8-1
							c-0.3-0.3-0.7-0.6-1.1-0.9c-0.3-0.2-0.7-0.4-1.1-0.4c-0.3,0-0.5,0.1-0.8,0.3c-0.2,0.2-0.4,0.5-0.5,0.8
							c-0.1,0.4-0.2,0.8-0.2,1.2v3.8c0,0.5,0.1,1,0.2,1.5c0.1,0.5,0.3,1,0.5,1.4c0.2,0.4,0.5,0.8,0.8,1.2c0.3,0.4,0.7,0.7,1.1,1
							c0.3,0.2,0.7,0.4,1.1,0.5c0.3,0.1,0.5,0,0.8-0.1c0.2-0.1,0.4-0.3,0.5-0.5C252.7,80.5,252.8,80.2,252.8,80z"/>
						<path class="st6" d="M265.2,76.9c0.1,0.1,0.2,0.2,0.3,0.4c0.1,0.2,0.1,0.3,0.1,0.5v9.5c0,0.8-0.1,1.6-0.3,2.4
							c-0.1,0.5-0.4,1-0.9,1.4c-0.4,0.3-0.9,0.5-1.4,0.4c-0.7-0.1-1.4-0.3-2-0.8c-0.8-0.4-1.4-1-2-1.7c-0.5-0.7-1-1.4-1.3-2.1
							c-0.4-0.8-0.7-1.7-0.8-2.6c-0.2-0.9-0.3-1.8-0.3-2.7v-9.5c0-0.1,0-0.3,0.1-0.3c0.1-0.1,0.2-0.1,0.3,0l1.3,0.8
							c0.1,0.1,0.2,0.2,0.3,0.3c0.1,0.2,0.1,0.3,0.1,0.5v9.3c0,0.6,0,1.2,0.2,1.8c0.1,0.5,0.3,0.9,0.5,1.4c0.2,0.4,0.5,0.8,0.8,1.1
							c0.3,0.3,0.6,0.6,1,0.8c0.3,0.2,0.6,0.3,1,0.4c0.3,0.1,0.5,0,0.8-0.2c0.2-0.2,0.4-0.5,0.5-0.8c0.1-0.5,0.2-1,0.2-1.5v-9.3
							c0-0.1,0-0.3,0.1-0.4c0-0.1,0.2-0.1,0.3,0L265.2,76.9z"/>
						<path class="st6" d="M273.1,90.1l3-5.7c0-0.1,0.1-0.1,0.2-0.2c0.1-0.1,0.2-0.1,0.4,0l1.1,0.7c0.1,0.1,0.2,0.2,0.3,0.3
							c0.1,0.2,0.1,0.3,0.1,0.5v14.8c0,0.1,0,0.3-0.1,0.4c-0.1,0.1-0.2,0.1-0.3,0l-1.3-0.8c-0.1-0.1-0.2-0.2-0.3-0.4
							c-0.1-0.2-0.1-0.3-0.1-0.5v-9l-2,3.9c-0.1,0.1-0.1,0.2-0.2,0.2c-0.1,0.1-0.2,0.1-0.4,0l-0.8-0.5l-0.4-0.4
							c-0.1-0.2-0.2-0.3-0.2-0.5l-2-6.4v9c0,0.1,0,0.3-0.1,0.3c-0.1,0.1-0.2,0.1-0.3,0l-1.3-0.8c-0.1-0.1-0.2-0.2-0.3-0.4
							c-0.1-0.2-0.1-0.3-0.1-0.5V79.3c0-0.1,0-0.3,0.1-0.4c0.1-0.1,0.2,0,0.3,0l1.1,0.7c0.2,0.1,0.4,0.3,0.5,0.5l0.2,0.5L273.1,90.1
							z"/>
						<path class="st6" d="M288,104.5c0.1,0.1,0.2,0.2,0.3,0.4c0.1,0.2,0.1,0.3,0.1,0.5v1.6c0,0.1,0,0.3-0.1,0.3
							c-0.1,0.1-0.2,0.1-0.3,0l-6.9-4.3c-0.1-0.1-0.2-0.2-0.3-0.4c-0.1-0.2-0.1-0.3-0.1-0.5V87.3c0-0.1,0-0.3,0.1-0.3
							c0.1-0.1,0.2-0.1,0.3,0l6.7,4.3c0.1,0.1,0.2,0.2,0.3,0.4c0.1,0.2,0.1,0.3,0.1,0.5v1.6c0,0.1,0,0.3-0.1,0.3
							c-0.1,0.1-0.2,0.1-0.3,0l-5-3.2v3.7l4.7,3c0.1,0.1,0.2,0.2,0.3,0.3c0.1,0.2,0.1,0.3,0.1,0.5v1.6c0,0.1,0,0.3-0.1,0.3
							c-0.1,0.1-0.2,0.1-0.3,0l-4.7-3v3.8L288,104.5z"/>
						<path class="st6" d="M297.5,113.4c-0.2-0.1-0.3-0.3-0.4-0.5l-0.2-0.4l-4.4-12.3v9.4c0,0.1,0,0.3-0.1,0.3
							c-0.1,0.1-0.2,0.1-0.3,0l-1.3-0.8c-0.1-0.1-0.2-0.2-0.3-0.4c-0.1-0.2-0.1-0.3-0.1-0.5V93.4c0-0.1,0-0.3,0.1-0.4
							c0.1-0.1,0.2-0.1,0.3,0l1.1,0.7c0.2,0.1,0.3,0.3,0.4,0.5c0.1,0.1,0.1,0.3,0.2,0.4l4.4,12.3v-9.4c0-0.1,0-0.3,0.1-0.3
							c0-0.1,0.2-0.1,0.3,0l1.3,0.8c0.1,0.1,0.2,0.2,0.3,0.3c0.1,0.2,0.1,0.3,0.1,0.5v14.8c0,0.1,0,0.3-0.1,0.4
							c-0.1,0.1-0.2,0.1-0.3,0L297.5,113.4z"/>
						<path class="st6" d="M308.7,104.5c0.1,0.1,0.2,0.2,0.3,0.4c0.1,0.2,0.1,0.3,0.1,0.5v1.6c0,0.1,0,0.3-0.1,0.4
							c-0.1,0.1-0.2,0.1-0.3,0l-2.8-1.8v12.6c0,0.1,0,0.3-0.1,0.4c-0.1,0.1-0.2,0.1-0.3,0l-1.3-0.8c-0.1-0.1-0.2-0.2-0.3-0.4
							c-0.1-0.2-0.1-0.3-0.1-0.5v-12.7l-2.8-1.8c-0.1-0.1-0.2-0.2-0.3-0.4c-0.1-0.2-0.1-0.3-0.1-0.5V100c0-0.1,0-0.3,0.1-0.3
							c0.1-0.1,0.2-0.1,0.3,0L308.7,104.5z"/>
						<path class="st6" d="M310.1,111.4c0-0.7,0.1-1.5,0.3-2.2c0.1-0.6,0.4-1,0.9-1.4c0.4-0.3,0.9-0.5,1.4-0.4
							c0.7,0.1,1.4,0.4,2,0.8c0.8,0.5,1.4,1.1,2,1.8c0.6,0.7,1,1.4,1.4,2.2c0.4,0.8,0.7,1.7,0.9,2.6c0.2,0.8,0.3,1.7,0.4,2.6v4.1
							c0,0.8-0.1,1.5-0.3,2.2c-0.2,0.5-0.5,1-0.9,1.4c-0.4,0.3-0.9,0.5-1.4,0.4c-0.7-0.1-1.4-0.4-2-0.8c-0.8-0.5-1.4-1.1-2-1.7
							c-1.1-1.4-1.9-3.1-2.3-4.9c-0.2-0.9-0.3-1.7-0.3-2.6L310.1,111.4L310.1,111.4z M317.2,116c0-1-0.2-2.1-0.7-3
							c-0.4-0.9-1-1.6-1.8-2.1c-0.8-0.5-1.4-0.5-1.8-0.2c-0.5,0.6-0.8,1.3-0.7,2.1v3.9c0,1,0.3,2.1,0.7,3c0.4,0.8,1,1.6,1.8,2.1
							c0.8,0.5,1.4,0.6,1.8,0.2c0.5-0.6,0.8-1.3,0.7-2.1v-2C317.2,117.2,317.2,116.6,317.2,116z"/>
						<path class="st6" d="M325.1,114.7c0.7,0.4,1.3,1,1.9,1.6c0.5,0.6,0.9,1.2,1.3,1.9c0.3,0.6,0.6,1.2,0.8,1.9
							c0.2,0.5,0.3,1.1,0.3,1.6c0,0.1,0,0.3-0.1,0.4c-0.1,0.1-0.2,0-0.3,0l-1.1-0.7c-0.2-0.1-0.3-0.3-0.4-0.5
							c-0.1-0.2-0.2-0.4-0.2-0.6c-0.2-0.5-0.4-1-0.7-1.4c-0.4-0.5-0.9-1-1.4-1.3c-0.2-0.2-0.5-0.3-0.8-0.3c-0.2-0.1-0.4-0.1-0.6,0
							c-0.2,0-0.3,0.1-0.4,0.3c-0.1,0.2-0.2,0.4-0.1,0.7c0,0.3,0,0.7,0.1,1c0.1,0.3,0.3,0.6,0.5,0.9c0.3,0.4,0.6,0.7,0.9,1.1
							c0.4,0.4,0.9,0.8,1.4,1.4c0.6,0.5,1.1,1.1,1.6,1.7c0.8,1,1.4,2.1,1.8,3.4c0.1,0.6,0.2,1.2,0.2,1.8c0,0.6-0.1,1.2-0.3,1.7
							c-0.2,0.4-0.5,0.7-0.9,0.9c-0.5,0.2-0.9,0.2-1.4,0.1c-0.7-0.2-1.3-0.4-1.9-0.8c-0.6-0.4-1.2-0.9-1.7-1.4
							c-0.5-0.5-1-1.1-1.4-1.8c-0.4-0.6-0.7-1.3-1-2c-0.2-0.7-0.4-1.4-0.4-2.1c0-0.2,0-0.3,0.1-0.4s0.2-0.1,0.3,0l1.1,0.7
							c0.2,0.1,0.3,0.2,0.4,0.4c0.1,0.2,0.2,0.4,0.2,0.6c0.1,0.3,0.2,0.5,0.3,0.8c0.1,0.3,0.2,0.5,0.4,0.8c0.2,0.3,0.4,0.6,0.7,0.8
							c0.3,0.3,0.6,0.6,1,0.8c0.3,0.2,0.6,0.3,0.9,0.5c0.2,0.1,0.5,0.1,0.8,0.1c0.2,0,0.4-0.1,0.5-0.3c0.2-0.2,0.2-0.5,0.2-0.8
							c0-0.3-0.1-0.7-0.2-1c-0.2-0.3-0.4-0.7-0.7-0.9c-0.3-0.4-0.7-0.8-1.1-1.1c-0.4-0.4-0.9-0.9-1.5-1.5c-0.5-0.5-0.9-1-1.4-1.5
							c-0.4-0.5-0.7-1-1-1.6c-0.3-0.5-0.4-1.1-0.6-1.7c-0.1-0.6-0.2-1.2-0.2-1.9c0-0.6,0.1-1.2,0.3-1.7c0.2-0.4,0.5-0.7,0.9-0.9
							c0.4-0.2,0.9-0.2,1.3-0.1C324,114.2,324.6,114.4,325.1,114.7z"/>
					</g>
				</g>
			</g>
		</g>
		<g id="robo_fiscal">
			<polygon class="st4" points="440.3,233.3 435.9,235.9 287,149.9 291.4,147.4 			"/>
			<polygon class="st4" points="440.3,249.1 435.9,251.6 435.9,235.9 440.3,233.3 			"/>
			<polygon class="st12" points="440.3,438.5 435.9,441.1 435.9,251.6 440.3,249.1 			"/>
			<polygon class="st2" points="435.9,235.9 287,149.9 287,165.7 435.9,251.6 			"/>
			<path class="st7" d="M418.1,232c-0.9-0.5-1.5-0.1-1.6,0.9c0.1,1.1,0.7,2.1,1.6,2.8c0.9,0.4,1.5,0.1,1.5-1
				C419.6,233.6,419,232.6,418.1,232z"/>
			<path class="st7" d="M423.7,235.2c-0.9-0.5-1.5-0.1-1.6,0.9c0.1,1.1,0.7,2.1,1.6,2.8c0.9,0.5,1.5,0.1,1.6-0.9
				C425.2,236.8,424.6,235.8,423.7,235.2z"/>
			
				<ellipse transform="matrix(0.8659 -0.5003 0.5003 0.8659 -62.6242 247.0076)" class="st7" cx="429.3" cy="240.3" rx="1.3" ry="2.3"/>
			<polygon class="st6" points="287,355.1 435.9,441.1 435.9,251.6 287,165.7 			"/>
			<polygon class="st10" points="416.6,267.3 413.6,269 386.2,253.3 389.3,251.5 			"/>
			<polygon class="st10" points="416.6,298.7 413.6,300.5 413.6,269 416.6,267.3 			"/>
			<polygon class="st7" points="413.6,269 386.2,253.3 386.2,284.7 413.6,300.5 			"/>
			<polygon class="st10" points="373.6,244.6 370.6,246.3 343.2,230.5 346.3,228.8 			"/>
			<polygon class="st10" points="373.6,276 370.6,277.8 370.6,246.3 373.6,244.6 			"/>
			<polygon class="st7" points="370.6,246.3 343.2,230.5 343.2,262 370.6,277.8 			"/>
			<polygon class="st10" points="329.6,220.8 326.6,222.6 299.2,206.8 302.3,205 			"/>
			<polygon class="st10" points="329.6,252.3 326.6,254 326.6,222.6 329.6,220.8 			"/>
			<polygon class="st7" points="326.6,222.6 299.2,206.8 299.2,238.2 326.6,254 			"/>
			<polygon class="st17" points="341.5,313.6 294.3,286.4 294.3,261.8 341.5,289.1 			"/>
			<polygon class="st7" points="297.3,286.3 302.5,289.3 302.5,285 297.3,282 			"/>
			<polygon class="st7" points="304.4,290.4 309.6,293.4 309.6,284.8 304.4,281.8 			"/>
			<polygon class="st7" points="311.4,294.5 316.6,297.5 316.6,285.2 311.4,282.2 			"/>
			<polygon class="st10" points="318.5,298.6 323.7,301.6 323.7,285.7 318.5,282.6 			"/>
			<polygon class="st10" points="325.6,302.6 330.8,305.6 330.8,285 325.6,282 			"/>
			<polygon class="st4" points="332.6,286.1 332.6,306.7 337.9,309.7 337.9,289.1 			"/>
			<polygon class="st17" points="412.8,418.9 345.6,380.1 345.6,289.4 412.8,328.2 			"/>
			<polygon class="st4" points="352.6,304 348.5,301.6 348.1,303.4 348.1,306.1 348.5,308.2 352.6,310.6 353,308.9 353,306.1 			"/>
			<polygon class="st10" points="352.6,315.1 348.5,312.8 348.1,314.5 348.1,317.2 348.5,319.3 352.6,321.7 353,320 353,317.2 			
				"/>
			<polygon class="st7" points="352.6,326.2 348.5,323.9 348.1,325.6 348.1,328.3 348.5,330.4 352.6,332.8 353,331.1 353,328.4 			
				"/>
			<polygon class="st4" points="345.6,380.1 368.9,338.6 377.3,345.9 389,330 399.3,346.9 412.8,328.2 412.8,343.7 409,406.2 			"/>
			<polygon class="st10" points="345.6,380.1 357.1,341.4 376.4,362 397,354.8 405.6,364.1 412.8,343.7 412.8,363.9 407.9,411.8 			
				"/>
			<polygon class="st7" points="345.6,380.1 365.3,359.4 374.2,380.6 389.3,373.2 399.7,385.4 412.8,363.9 412.8,418.9 			"/>
		</g>
		<g id="Device">
			<g id="Laptop">
				<polygon class="st0" points="440.7,493.8 436.2,496.4 287.4,410.5 291.8,407.9 				"/>
				<path class="st4" d="M338.2,438.8L151.6,331.1c-3.1-1.6-6.7-1.6-9.7,0l-106,61.1c-4.5,2.4-6.2,7.9-3.8,12.4
					c0.9,1.6,2.2,2.9,3.8,3.8l186.6,107.7c3.1,1.6,6.7,1.6,9.7,0l106-61.2c4.5-2.4,6.2-7.9,3.8-12.4
					C341.1,441,339.8,439.6,338.2,438.8L338.2,438.8z"/>
				<path class="st2" d="M35,392.9c-1.8,1.5-1.5,3.6,0.9,5l186.6,107.7c1.5,0.8,3.2,1.2,4.9,1.2v10.5c-1.7,0-3.4-0.4-4.9-1.2
					L35.9,408.4c-4.4-2.4-6.1-7.9-3.8-12.3C32.8,394.8,33.8,393.7,35,392.9z"/>
				<path class="st2" d="M232.2,505.6l106-61.2c2.5-1.5,2.7-3.7,0.5-5.3c4.3,2.6,5.7,8.2,3.1,12.5c-0.9,1.4-2.1,2.6-3.6,3.4
					l-106,61.2c-1.5,0.8-3.2,1.2-4.9,1.2v-10.6C229,506.8,230.7,506.4,232.2,505.6z"/>
				<path class="st2" d="M324.7,441.9l-5,2.6c-1.5,0.8-3.3,0.8-4.9,0l-173.2-100c-1.4-0.8-1.4-2,0-2.8l5-2.6c1.5-0.8,3.3-0.8,4.9,0
					l173.2,100C326,439.9,326,441.1,324.7,441.9z"/>
				<path class="st2" d="M139.5,349.4l171.7,97.5c1.3,0.8,1.4,1.7,0.3,2.6l-48.1,27.1c-1.5,0.7-3.1,0.6-4.5-0.2L87.2,379
					c-1.3-0.8-1.4-1.7-0.3-2.6l48-27.2C136.4,348.6,138.1,348.6,139.5,349.4z"/>
				<path class="st4" d="M237.9,434l5.4,3.1c0.2,0.1,0.5,0.1,0.8,0l5.1-2.9c0.2-0.1,0.2-0.3,0-0.4l-5.4-3c-0.2-0.1-0.5-0.1-0.8,0
					l-5,2.8C237.7,433.7,237.7,433.8,237.9,434z M257.2,429.3l-5.4-3c-0.2-0.1-0.5-0.1-0.8,0l-5.1,2.8c-0.2,0.1-0.2,0.3,0,0.5l5.4,3
					c0.2,0.1,0.5,0.1,0.8,0l5.1-2.9C257.4,429.5,257.4,429.4,257.2,429.3L257.2,429.3z M239.8,419.4l-9.1-5.2
					c-0.2-0.1-0.5-0.1-0.8,0l-5.1,2.8c-0.2,0.1-0.2,0.3,0,0.4l9.1,5.2c0.2,0.1,0.5,0.1,0.8,0l5.2-2.9c0.2-0.1,0.1-0.3-0.1-0.4
					L239.8,419.4z M249.3,424.8l-5.3-3.1c-0.2-0.1-0.5-0.1-0.8,0l-5.1,2.9c-0.2,0.1-0.2,0.3,0,0.4l5.4,3c0.2,0.1,0.5,0.1,0.8,0
					l5.1-2.9C249.6,425,249.6,424.9,249.3,424.8L249.3,424.8z M228.2,412.8l-5.4-3c-0.2-0.1-0.5-0.1-0.8,0l-5.1,2.8
					c-0.2,0.1-0.2,0.3,0,0.4l5.4,3c0.2,0.1,0.5,0.1,0.8,0l5.1-2.9C228.4,413.1,228.4,412.9,228.2,412.8L228.2,412.8z M220.4,408.3
					l-5.4-3.1c-0.2-0.1-0.5-0.1-0.8,0l-5.1,2.9c-0.2,0.1-0.2,0.3,0.1,0.4l5.4,3.1c0.2,0.1,0.5,0.1,0.8,0l5.1-2.9
					C220.6,408.6,220.6,408.4,220.4,408.3L220.4,408.3z M198,420.4l5.4,3c0.2,0.1,0.5,0.1,0.8,0l5.1-2.9c0.2-0.1,0.2-0.3,0-0.5
					l-5.3-3c-0.2-0.1-0.5-0.1-0.8,0l-5.2,2.9C197.8,420.1,197.8,420.3,198,420.4z M190.2,416l5.4,3c0.2,0.1,0.5,0.1,0.8,0l5.1-2.9
					c0.2-0.1,0.2-0.3,0-0.4l-5.6-3c-0.2-0.1-0.5-0.1-0.8,0l-5.1,2.8C189.9,415.7,189.9,415.8,190.2,416z M182.3,411.5l5.4,3.1
					c0.2,0.1,0.5,0.1,0.8,0l5.1-2.9c0.2-0.1,0.2-0.3,0-0.4l-5.4-3c-0.2-0.1-0.5-0.1-0.8,0l-5.1,2.9
					C182.1,411.2,182.1,411.4,182.3,411.5L182.3,411.5z M174.5,407l5.4,3c0.2,0.1,0.5,0.1,0.8,0l5.1-2.9c0.2-0.1,0.2-0.3,0-0.4
					l-5.4-3c-0.2-0.1-0.5-0.1-0.8,0l-5.1,2.9C174.3,406.7,174.3,406.9,174.5,407z M230,429.5l5.4,3.1c0.2,0.1,0.5,0.1,0.8,0l5.1-2.9
					c0.2-0.1,0.2-0.3,0-0.4l-5.4-3c-0.2-0.1-0.5-0.1-0.8,0l-5.1,2.8C229.8,429.2,229.8,429.4,230,429.5z M205.8,424.9l12,6.8
					c0.2,0.1,0.5,0.1,0.8,0l13.1-7.4c0.2-0.1,0.2-0.3,0-0.4l-6.2-3.5c-0.2-0.1-0.5-0.1-0.8,0l-7.3,4.1c-0.2,0.1-0.5,0.1-0.8,0
					l-5-2.8c-0.2-0.1-0.5-0.1-0.8,0l-5.1,2.9C205.6,424.6,205.6,424.8,205.8,424.9L205.8,424.9z M212.6,403.9l-5.4-3
					c-0.2-0.1-0.5-0.1-0.8,0l-5.1,2.9c-0.2,0.1-0.2,0.3,0,0.4l5.4,3.1c0.2,0.1,0.5,0.1,0.8,0l5.1-2.9
					C212.8,404.2,212.8,404,212.6,403.9L212.6,403.9z M204.7,399.4l-5.4-3.1c-0.2-0.1-0.5-0.1-0.8,0l-5.1,2.9
					c-0.2,0.1-0.2,0.3,0.1,0.4l5.4,3c0.2,0.1,0.5,0.1,0.8,0l5.1-2.9C205,399.7,204.9,399.5,204.7,399.4L204.7,399.4z M119.5,375.4
					c-0.2,0.1-0.2,0.3,0,0.4l5.4,3.1c0.2,0.1,0.5,0.1,0.8,0l5.1-2.9c0.2-0.1,0.2-0.3,0-0.4l-5.4-3c-0.2-0.1-0.5-0.1-0.8,0
					L119.5,375.4z M141.8,363.8l-5.4-3c-0.2-0.1-0.5-0.1-0.8,0l-5.1,2.9c-0.2,0.1-0.2,0.3,0.1,0.4l5.4,2.9c0.2,0.1,0.5,0.1,0.8,0
					l5.1-2.9C142.1,364,142,363.8,141.8,363.8L141.8,363.8z M125.4,369.8c-0.2,0.1-0.2,0.3,0,0.4l5.4,3c0.2,0.1,0.5,0.1,0.8,0
					l5.1-2.9c0.2-0.1,0.2-0.3,0-0.5l-5.4-3c-0.2-0.1-0.5-0.1-0.8,0L125.4,369.8z M115.6,382.8l5.4,3c0.2,0.1,0.5,0.1,0.8,0l5.1-2.9
					c0.2-0.1,0.2-0.3-0.1-0.4l-5.4-3c-0.2-0.1-0.5-0.1-0.8,0l-5.1,2.9C115.3,382.5,115.4,382.6,115.6,382.8L115.6,382.8z
					 M107.7,377.9c-0.2,0.1-0.2,0.3,0,0.4l5.4,3.1c0.2,0.1,0.5,0.1,0.8,0l5.2-2.9c0.2-0.1,0.2-0.3,0-0.4l-5.4-3
					c-0.2-0.1-0.5-0.1-0.8,0L107.7,377.9z M149.7,368.3l-5.4-3c-0.2-0.1-0.5-0.1-0.8,0l-5.2,2.8c-0.2,0.1-0.2,0.3,0,0.4l5.4,3
					c0.2,0.1,0.5,0.1,0.8,0l5.1-2.9C149.8,368.5,149.9,368.3,149.7,368.3L149.7,368.3z M189,390.5l-5.4-3c-0.2-0.1-0.5-0.1-0.8,0
					l-5.1,2.9c-0.2,0.1-0.2,0.3,0,0.4l5.4,3c0.2,0.1,0.5,0.1,0.8,0l5.1-2.9C189.1,390.8,189.1,390.6,189,390.5z M157.6,372.6l-5.4-3
					c-0.2-0.1-0.5-0.1-0.8,0l-5.1,2.9c-0.2,0.1-0.2,0.3,0,0.4l5.4,3.1c0.2,0.1,0.5,0.1,0.8,0l5.2-2.9
					C157.9,373,157.8,372.8,157.6,372.6L157.6,372.6z M196.8,395l-5.4-3c-0.2-0.1-0.5-0.1-0.8,0l-5.1,2.9c-0.2,0.1-0.2,0.3,0,0.4
					l5.4,3.1c0.2,0.1,0.5,0.1,0.8,0l5.1-2.9C197.1,395.4,197.1,395.2,196.8,395L196.8,395z M181.1,386l-5.4-3
					c-0.2-0.1-0.5-0.1-0.8,0l-5.1,2.9c-0.2,0.1-0.2,0.3,0.1,0.4l5.4,3c0.2,0.1,0.5,0.1,0.8,0l5.1-2.9
					C181.4,386.3,181.3,386.2,181.1,386L181.1,386z M173.2,381.5l-5.3-3.1c-0.2-0.1-0.5-0.1-0.8,0l-5.1,2.9c-0.2,0.1-0.2,0.3,0,0.4
					l5.4,3c0.2,0.1,0.5,0.1,0.8,0l5.1-2.9C173.5,381.8,173.5,381.6,173.2,381.5L173.2,381.5z M165.4,377.1l-5.4-3
					c-0.2-0.1-0.5-0.1-0.8,0l-5.1,2.9c-0.2,0.1-0.2,0.3,0.1,0.4l5.4,3.1c0.2,0.1,0.5,0.1,0.8,0l5.1-2.9
					C165.7,377.4,165.6,377.2,165.4,377.1L165.4,377.1z M158.7,398.1l5.4,3c0.2,0.1,0.5,0.1,0.8,0l5.1-2.9c0.2-0.1,0.2-0.3,0-0.5
					l-5.4-3c-0.2-0.1-0.5-0.1-0.8,0l-5.1,2.9C158.5,397.8,158.5,397.9,158.7,398.1L158.7,398.1z M274.5,439.1l-5.3-3.1
					c-0.2-0.1-0.5-0.1-0.8,0l-5.1,2.9c-0.2,0.1-0.2,0.3,0,0.5l5.4,3c0.2,0.1,0.5,0.1,0.8,0l5.1-2.9
					C274.8,439.4,274.8,439.2,274.5,439.1L274.5,439.1z M265,433.7l-5.4-3c-0.2-0.1-0.5-0.1-0.8,0l-5.1,2.9
					c-0.2,0.1-0.2,0.3,0.1,0.4l5.4,3.1c0.2,0.1,0.5,0.1,0.8,0l5.1-2.9C265.3,434,265.3,433.8,265,433.7L265,433.7z M282.4,443.5
					l-5.4-3c-0.2-0.1-0.5-0.1-0.8,0l-5.1,2.9c-0.2,0.1-0.2,0.3,0,0.4l5.4,3.1c0.2,0.1,0.5,0.1,0.8,0l5.2-2.9
					C282.6,443.8,282.6,443.7,282.4,443.5L282.4,443.5z M211.9,419.2l5.4,3c0.2,0.1,0.5,0.1,0.8,0l5.1-2.9c0.2-0.1,0.2-0.3-0.1-0.4
					l-5.4-3.1c-0.2-0.1-0.5-0.1-0.8,0l-5.1,2.9C211.6,418.9,211.7,419,211.9,419.2L211.9,419.2z M290.3,448.5c0.2-0.1,0.2-0.3,0-0.4
					l-5.3-3c-0.2-0.1-0.5-0.1-0.8,0l-5.1,2.9c-0.2,0.1-0.2,0.3,0,0.4l5.4,3.1c0.2,0.1,0.5,0.1,0.8,0L290.3,448.5z M166.6,402.6
					l5.4,3c0.2,0.1,0.5,0.1,0.8,0l5.1-2.9c0.2-0.1,0.2-0.3-0.1-0.4l-5.4-3.1c-0.2-0.1-0.5-0.1-0.8,0l-5.1,2.9
					C166.4,402.3,166.4,402.4,166.6,402.6L166.6,402.6z M263,457.3l5.4,3c0.2,0.1,0.5,0.1,0.8,0l5.1-2.9c0.2-0.1,0.2-0.3,0-0.4
					l-5.4-3c-0.2-0.1-0.5-0.1-0.8,0l-5.1,2.9C262.8,457,262.8,457.1,263,457.3L263,457.3z M263.2,448.3l5.4,3c0.2,0.1,0.5,0.1,0.8,0
					l5.1-2.9c0.2-0.1,0.2-0.3,0-0.4l-5.4-3c-0.2-0.1-0.5-0.1-0.8,0l-5.1,2.9c-0.2,0.1-0.3,0.3-0.1,0.4L263.2,448.3z M282.4,452.9
					c0.2-0.1,0.2-0.3-0.1-0.4l-5.4-3.1c-0.2-0.1-0.5-0.1-0.8,0l-5.2,2.9c-0.2,0.1-0.2,0.3,0,0.4l5.4,3c0.2,0.1,0.5,0.1,0.8,0
					L282.4,452.9z M284.1,453.9l-13.2,7.4c-0.2,0.1-0.2,0.3,0.1,0.4l5.4,3c0.2,0.1,0.5,0.1,0.8,0l13.1-7.4c0.2-0.1,0.2-0.3,0-0.4
					l-5.4-3c-0.3-0.1-0.7-0.1-1,0H284.1z M266.7,443.6l-5.4-3c-0.2-0.1-0.5-0.1-0.8,0l-5.1,2.9c-0.2,0.1-0.2,0.3,0,0.5l5.4,3
					c0.2,0.1,0.5,0.1,0.8,0l5.1-2.9c0.2-0.1,0.1-0.3-0.1-0.4H266.7z M207.5,410l-5.4-3c-0.2-0.1-0.5-0.1-0.8,0l-5.1,2.9
					c-0.2,0.1-0.2,0.3,0,0.4l5.4,3c0.2,0.1,0.5,0.1,0.8,0l5-2.9c0.2-0.1,0.2-0.3,0-0.5L207.5,410z M255.2,452.4
					c-0.2,0.1-0.2,0.3,0.1,0.4l5.4,3c0.2,0.1,0.5,0.1,0.8,0l4.9-2.9c0.2-0.1,0.2-0.3,0-0.4l-5.3-3c-0.2-0.1-0.5-0.1-0.8,0
					L255.2,452.4z M215.2,414.5l-5.4-3c-0.2-0.1-0.5-0.1-0.8,0l-5,2.9c-0.2,0.1-0.2,0.3,0,0.4l5.4,3.1c0.2,0.1,0.5,0.1,0.8,0
					l5.1-2.9C215.4,414.8,215.4,414.6,215.2,414.5L215.2,414.5z M127.2,379.8c-0.2,0.1-0.2,0.3,0.1,0.4l5.4,3c0.2,0.1,0.5,0.1,0.8,0
					l5.1-2.9c0.2-0.1,0.2-0.3-0.1-0.4l-5.4-3c-0.2-0.1-0.5-0.1-0.8,0L127.2,379.8z M144.4,374.3l-5.4-3.1c-0.2-0.1-0.5-0.1-0.8,0
					l-5.1,2.9c-0.2,0.1-0.2,0.3,0.1,0.4l5.4,3c0.2,0.1,0.5,0.1,0.8,0l5.1-2.9C144.8,374.6,144.8,374.5,144.4,374.3L144.4,374.3z
					 M135.1,384.7l5.4,3c0.2,0.1,0.5,0.1,0.8,0l5.1-2.9c0.2-0.1,0.2-0.3,0-0.4l-5.3-2.9c-0.2-0.1-0.5-0.1-0.8,0l-5.1,2.9
					C134.9,384.4,134.9,384.6,135.1,384.7L135.1,384.7z M142.9,389.2l5.4,3c0.2,0.1,0.5,0.1,0.8,0l5.1-2.9c0.2-0.1,0.2-0.3,0-0.4
					l-5.2-3c-0.2-0.1-0.5-0.1-0.8,0l-5.1,2.9c-0.2,0.1-0.2,0.3,0,0.5L142.9,389.2z M150.8,393.6l5.4,3c0.2,0.1,0.5,0.1,0.8,0
					l5.1-2.9c0.2-0.1,0.2-0.3-0.1-0.4l-5.4-3c-0.2-0.1-0.5-0.1-0.8,0l-5.1,2.9C150.5,393.3,150.6,393.5,150.8,393.6L150.8,393.6z
					 M152.3,378.8l-5.3-3c-0.2-0.1-0.5-0.1-0.8,0l-5,2.9c-0.2,0.1-0.2,0.3,0,0.4l5.4,3c0.2,0.1,0.5,0.1,0.8,0l5.1-2.9
					c0.2-0.1,0.2-0.3,0-0.4L152.3,378.8z M160.1,383.2l-5.4-3c-0.2-0.1-0.5-0.1-0.8,0l-5,2.9c-0.2,0.1-0.2,0.3,0.1,0.4l5.4,3.1
					c0.2,0.1,0.5,0.1,0.8,0l5.1-2.9c0.2-0.1,0.2-0.3,0-0.4L160.1,383.2z M191.6,401.1l-5.4-3c-0.2-0.1-0.5-0.1-0.8,0l-5.1,2.9
					c-0.2,0.1-0.2,0.3,0,0.4l5.4,3c0.2,0.1,0.5,0.1,0.8,0l5.1-2.9C191.7,401.4,191.8,401.2,191.6,401.1L191.6,401.1z M183.7,396.6
					l-5.4-3c-0.2-0.1-0.5-0.1-0.8,0l-5.1,2.9c-0.2,0.1-0.2,0.3,0.1,0.4l5.4,3c0.2,0.1,0.5,0.1,0.8,0l5.1-2.9
					C184,396.9,183.9,396.7,183.7,396.6L183.7,396.6z M199.4,405.5l-5.4-3c-0.2-0.1-0.5-0.1-0.8,0l-5.1,2.9c-0.2,0.1-0.2,0.3,0,0.4
					l5.4,3.1c0.2,0.1,0.5,0.1,0.8,0l5.2-2.9C199.7,405.8,199.7,405.7,199.4,405.5L199.4,405.5z M168,387.7l-5.4-3
					c-0.2-0.1-0.5-0.1-0.8,0l-5.1,2.9c-0.2,0.1-0.2,0.3,0,0.5l5.4,3c0.2,0.1,0.5,0.1,0.8,0l5.1-2.9C168.2,388,168.2,387.8,168,387.7
					z M175.9,392.2l-5.4-3c-0.2-0.1-0.5-0.1-0.8,0l-5,2.9c-0.2,0.1-0.2,0.3,0,0.4l5.4,3.1c0.2,0.1,0.5,0.1,0.8,0l5.1-2.9
					C176.2,392.5,176.2,392.3,175.9,392.2L175.9,392.2z M123.3,387.1l5.4,3.1c0.2,0.1,0.5,0.1,0.8,0l5.1-2.9c0.2-0.1,0.2-0.3,0-0.4
					l-5.4-3c-0.2-0.1-0.5-0.1-0.8,0l-5.1,2.9C123.1,386.9,123.1,387,123.3,387.1L123.3,387.1z M128.8,362.5l5.1-2.9
					c0.2-0.1,0.2-0.3,0-0.4l-5.4-3c-0.2-0.1-0.5-0.1-0.8,0l-5,2.9c-0.2,0.1-0.2,0.3,0,0.4l5.4,3.1
					C128.4,362.7,128.7,362.7,128.8,362.5L128.8,362.5z M123.7,368.7l5.1-2.9c0.2-0.1,0.2-0.3,0-0.4l-8.3-4.7
					c-0.2-0.1-0.5-0.1-0.8,0l-5.1,2.9c-0.2,0.1-0.2,0.3,0,0.4l8.3,4.7C123.1,368.8,123.4,368.8,123.7,368.7L123.7,368.7z M139,358.3
					l5.1-2.9c0.2-0.1,0.2-0.3,0-0.4l-6.6-3.8c-0.2-0.1-0.5-0.1-0.8,0l-5.1,2.9c-0.2,0.1-0.2,0.3,0,0.4l6.6,3.8
					C138.5,358.4,138.8,358.4,139,358.3z M144.1,361.2c-0.2,0.1-0.2,0.3,0,0.4l5.4,3c0.2,0.1,0.5,0.1,0.8,0l5.1-2.9
					c0.2-0.1,0.2-0.3,0-0.4l-5.4-3c-0.2-0.1-0.5-0.1-0.8,0L144.1,361.2z M117.8,374.4l5.1-2.9c0.2-0.1,0.2-0.3-0.1-0.4l-10.3-5.9
					c-0.2-0.1-0.5-0.1-0.8,0l-5.1,2.9c-0.2,0.1-0.2,0.3,0,0.4l10.3,5.9C117.3,374.6,117.6,374.6,117.8,374.4L117.8,374.4z
					 M106.1,376.9l5.1-2.9c0.2-0.1,0.2-0.3,0-0.4l-6.6-3.8c-0.2-0.1-0.5-0.1-0.8,0l-5.1,2.9c-0.2,0.1-0.2,0.3,0,0.4l6.6,3.8
					C105.5,376.9,105.8,376.9,106.1,376.9L106.1,376.9z M202.5,394.3c-0.2,0.1-0.2,0.3,0,0.4l5.4,3c0.2,0.1,0.5,0.1,0.8,0l5.1-2.9
					c0.2-0.1,0.2-0.3,0-0.5l-5.4-3c-0.2-0.1-0.5-0.1-0.8,0L202.5,394.3z M186.8,385.4c-0.2,0.1-0.2,0.3,0,0.4l5.4,3
					c0.2,0.1,0.5,0.1,0.8,0l5-2.9c0.2-0.1,0.2-0.3,0-0.4l-5.5-3c-0.2-0.1-0.5-0.1-0.8,0L186.8,385.4z M151.9,365.6
					c-0.2,0.1-0.2,0.3,0,0.4l5.4,3.1c0.2,0.1,0.5,0.1,0.8,0l5.1-2.9c0.2-0.1,0.2-0.3-0.1-0.4l-5.4-3c-0.2-0.1-0.5-0.1-0.8,0
					L151.9,365.6z M194.6,389.9c-0.2,0.1-0.2,0.3,0,0.4l5.4,3.1c0.2,0.1,0.5,0.1,0.8,0l5.1-2.9c0.2-0.1,0.2-0.3,0-0.4l-5.4-3
					c-0.2-0.1-0.5-0.1-0.8,0L194.6,389.9z M178.9,380.9c-0.2,0.1-0.2,0.3,0,0.5l5.4,3c0.2,0.1,0.5,0.1,0.8,0l5.1-2.9
					c0.2-0.1,0.2-0.3-0.1-0.4l-5.4-3.1c-0.2-0.1-0.5-0.1-0.8,0L178.9,380.9z M104.7,379.4c0.2-0.1,0.2-0.3,0-0.5l-8.3-4.7
					c-0.2-0.1-0.5-0.1-0.8,0l-5.1,2.9c-0.2,0.1-0.2,0.3,0.1,0.4l8.3,4.7c0.2,0.1,0.5,0.1,0.8,0L104.7,379.4z M167.6,374.5
					c-0.2,0.1-0.2,0.3,0.1,0.4l5.4,3c0.2,0.1,0.5,0.1,0.8,0l5.1-2.9c0.2-0.1,0.2-0.3-0.1-0.4l-5.4-3c-0.2-0.1-0.5-0.1-0.8,0
					L167.6,374.5z M159.8,370.1c-0.2,0.1-0.2,0.3,0,0.4l5.4,3c0.2,0.1,0.5,0.1,0.8,0l5.1-2.9c0.2-0.1,0.2-0.3,0-0.4l-5.4-3.1
					c-0.2-0.1-0.5-0.1-0.8,0L159.8,370.1z M250.3,462.1c0.2-0.1,0.2-0.3,0-0.4l-13.3-7.6c-0.2-0.1-0.5-0.1-0.8,0l-5.1,2.9
					c-0.2,0.1-0.2,0.3,0,0.4l13.2,7.5c0.2,0.1,0.5,0.1,0.8,0L250.3,462.1z M232.9,452.3c0.2-0.1,0.2-0.3-0.1-0.4l-5.4-3
					c-0.2-0.1-0.5-0.1-0.8,0l-5.1,2.9c-0.2,0.1-0.2,0.3,0,0.5l5.4,3c0.2,0.1,0.5,0.1,0.8,0L232.9,452.3z M131.3,391.6l5.4,3
					c0.2,0.1,0.5,0.1,0.8,0l5.1-2.9c0.2-0.1,0.2-0.3,0-0.5l-5.4-3c-0.2-0.1-0.5-0.1-0.8,0l-5.1,2.9
					C131.1,391.3,131.1,391.5,131.3,391.6z M217.2,443.3c0.2-0.1,0.2-0.3,0-0.4l-5.4-3.1c-0.2-0.1-0.5-0.1-0.8,0l-5,2.9
					c-0.2,0.1-0.2,0.3,0,0.4l5.4,3.1c0.2,0.1,0.5,0.1,0.8,0L217.2,443.3z M258.1,466.5c0.2-0.1,0.2-0.3-0.1-0.4l-5.4-3.1
					c-0.2-0.1-0.5-0.1-0.8,0l-5.1,2.9c-0.2,0.1-0.2,0.3,0,0.4l5.4,3c0.2,0.1,0.5,0.1,0.8,0L258.1,466.5z M260.9,473.9l13.2-7.4
					c0.2-0.1,0.2-0.3,0-0.4l-5.3-3c-0.2-0.1-0.5-0.1-0.8,0l-13.1,7.4c-0.2,0.1-0.2,0.3,0,0.4l5.4,3
					C260.4,474,260.7,474.1,260.9,473.9L260.9,473.9z M187.9,426.6c0.2-0.1,0.2-0.3,0-0.4l-6.6-3.8c-0.2-0.1-0.5-0.1-0.8,0l-5.1,2.9
					c-0.2,0.1-0.2,0.3,0,0.4l6.6,3.8c0.2,0.1,0.5,0.1,0.8,0L187.9,426.6z M207.7,437.9c0.2-0.1,0.2-0.3,0-0.4l-8.4-4.7
					c-0.2-0.1-0.5-0.1-0.8,0l-5.1,2.9c-0.2,0.1-0.2,0.3,0,0.4l8.3,4.7c0.2,0.1,0.5,0.1,0.8,0L207.7,437.9z M169.7,416.3
					c0.2-0.1,0.2-0.3-0.1-0.4l-44.2-25.1c-0.2-0.1-0.5-0.1-0.8,0l-5.1,2.9c-0.2,0.1-0.2,0.3,0.1,0.5l44.3,25.1
					c0.2,0.1,0.5,0.1,0.8,0L169.7,416.3z M123,389.7c0.2-0.1,0.2-0.3,0-0.4l-6.6-3.8c-0.2-0.1-0.5-0.1-0.8,0l-5.1,2.9
					c-0.2,0.1-0.2,0.3,0.1,0.4l6.6,3.8c0.2,0.1,0.5,0.1,0.8,0L123,389.7z M178.8,421.4c0.2-0.1,0.2-0.3-0.1-0.4l-6.6-3.8
					c-0.2-0.1-0.5-0.1-0.8,0l-5.1,2.9c-0.2,0.1-0.2,0.3,0,0.4l6.6,3.8c0.2,0.1,0.5,0.1,0.8,0L178.8,421.4z M113.9,384.6
					c0.2-0.1,0.2-0.3,0-0.4l-6.7-3.8c-0.2-0.1-0.5-0.1-0.8,0l-5.1,2.9c-0.2,0.1-0.2,0.3,0,0.4l6.6,3.8c0.2,0.1,0.5,0.1,0.8,0
					L113.9,384.6z M197,431.8c0.2-0.1,0.2-0.3,0-0.4l-6.6-3.8c-0.2-0.1-0.5-0.1-0.8,0l-5.1,2.9c-0.2,0.1-0.2,0.3,0,0.4l6.6,3.8
					c0.2,0.1,0.5,0.1,0.8,0L197,431.8z M225.1,447.8c0.2-0.1,0.2-0.3,0-0.4l-5.4-3c-0.2-0.1-0.5-0.1-0.8,0l-5.1,2.9
					c-0.2,0.1-0.2,0.3,0.1,0.4l5.4,3c0.2,0.1,0.5,0.1,0.8,0L225.1,447.8z M247.1,457.4l5.4,3c0.2,0.1,0.5,0.1,0.8,0l5.1-2.9
					c0.2-0.1,0.2-0.3,0-0.4L253,454c-0.3-0.1-0.5-0.1-0.8,0l-5.1,2.9C246.9,457,246.8,457.2,247.1,457.4L247.1,457.4z M245.8,438.5
					l5.4,3c0.2,0.1,0.5,0.1,0.8,0l5.1-2.9c0.2-0.1,0.2-0.3-0.1-0.4l-5.4-3.1c-0.2-0.1-0.5-0.1-0.8,0l-5.1,2.8
					c-0.2,0.1-0.2,0.3,0,0.5L245.8,438.5z M194.2,427.3l15.7,8.9c0.2,0.1,0.5,0.1,0.8,0l5.1-2.9c0.2-0.1,0.2-0.3,0-0.4L200,424
					c-0.2-0.1-0.5-0.1-0.8,0l-5.1,2.9C193.9,427,193.9,427.2,194.2,427.3L194.2,427.3z M239.2,452.5c-0.2,0.1-0.2,0.3,0,0.4l5.4,3
					c0.2,0.1,0.5,0.1,0.8,0l5.1-2.9c0.2-0.1,0.2-0.3-0.1-0.4l-5.4-3.1c-0.2-0.1-0.5-0.1-0.8,0L239.2,452.5z M247.3,448.4l5.4,3.1
					c0.2,0.1,0.5,0.1,0.8,0l5.1-2.9c0.2-0.1,0.2-0.3,0-0.4l-5.5-3c-0.2-0.1-0.5-0.1-0.8,0l-5.1,2.9C247,448.1,247,448.3,247.3,448.4
					L247.3,448.4z M186.4,422.9l5.4,3.1c0.2,0.1,0.5,0.1,0.8,0l5.1-2.9c0.2-0.1,0.2-0.3,0-0.4l-5.4-3.1c-0.2-0.1-0.5-0.1-0.8,0
					l-5.1,2.9C186.1,422.5,186.1,422.7,186.4,422.9L186.4,422.9z M221.9,442.6c-0.2,0.1-0.2,0.3,0,0.4l5.4,3c0.2,0.1,0.5,0.1,0.8,0
					l5.1-2.9c0.2-0.1,0.2-0.3,0-0.5l-5.4-3c-0.2-0.1-0.5-0.1-0.8,0L221.9,442.6z M147.1,400.6l5.4,3c0.2,0.1,0.5,0.1,0.8,0l5.1-2.9
					c0.2-0.1,0.2-0.3,0-0.5l-5.4-3c-0.2-0.1-0.5-0.1-0.8,0l-5.1,2.9c-0.2,0.1-0.3,0.3-0.1,0.4L147.1,400.6z M154.9,405l5.4,3
					c0.2,0.1,0.5,0.1,0.8,0l5.1-2.9c0.2-0.1,0.2-0.3-0.1-0.4l-5.4-3.1c-0.2-0.1-0.5-0.1-0.8,0l-5.1,2.9c-0.2,0.1-0.2,0.3,0,0.4
					L154.9,405z M139.1,396.1l5.4,3c0.2,0.1,0.5,0.1,0.8,0l5.1-2.9c0.2-0.1,0.2-0.3,0-0.4l-5.4-3c-0.2-0.1-0.5-0.1-0.8,0l-5.1,2.9
					C138.9,395.8,138.9,395.9,139.1,396.1L139.1,396.1z M170.6,414l5.4,3c0.2,0.1,0.5,0.1,0.8,0l5.1-2.9c0.2-0.1,0.2-0.3,0-0.4
					l-5.4-3.1c-0.2-0.1-0.5-0.1-0.8,0l-5.1,2.9C170.4,413.6,170.3,413.8,170.6,414L170.6,414z M162.7,409.5l5.4,3
					c0.2,0.1,0.5,0.1,0.8,0l5.1-2.9c0.2-0.1,0.2-0.3,0-0.5l-5.4-3c-0.2-0.1-0.5-0.1-0.8,0l-5.1,2.8
					C162.5,409.1,162.5,409.3,162.7,409.5L162.7,409.5z M178.4,418.4l5.4,3c0.2,0.1,0.5,0.1,0.8,0l5.1-2.9c0.2-0.1,0.2-0.3,0-0.4
					l-5.4-3.1c-0.2-0.1-0.5-0.1-0.8,0l-5.1,2.9C178.2,418.1,178.2,418.3,178.4,418.4z M289.8,441.8c-0.2,0.1-0.2,0.3,0,0.4l5.4,3
					c0.2,0.1,0.5,0.1,0.8,0l1.4-0.8c0.2-0.1,0.2-0.3-0.1-0.4l-5.4-3.1c-0.2-0.1-0.5-0.1-0.8,0L289.8,441.8z M247,419.6
					c-0.2,0.1-0.2,0.3,0,0.4l5.4,3.1c0.2,0.1,0.5,0.1,0.8,0l5.1-2.9c0.2-0.1,0.2-0.3-0.1-0.4l-5.4-3c-0.2-0.1-0.5-0.1-0.8,0
					L247,419.6z M262.6,428.5c-0.2,0.1-0.2,0.3,0,0.4l5.4,3c0.2,0.1,0.5,0.1,0.8,0l5.1-2.9c0.2-0.1,0.2-0.3-0.1-0.4l-5.3-3
					c-0.2-0.1-0.5-0.1-0.8,0L262.6,428.5z M237.3,414.2c-0.2,0.1-0.2,0.3,0.1,0.4l5.4,3c0.2,0.1,0.5,0.1,0.8,0l5.1-2.9
					c0.2-0.1,0.2-0.3,0-0.4l-5.4-3.1c-0.2-0.1-0.5-0.1-0.8,0L237.3,414.2z M254.8,424c-0.2,0.1-0.2,0.3,0,0.4l5.4,3
					c0.2,0.1,0.5,0.1,0.8,0l5.1-2.9c0.2-0.1,0.2-0.3,0-0.5l-5.4-3c-0.2-0.1-0.5-0.1-0.8,0L254.8,424z M221.6,405.2
					c-0.2,0.1-0.2,0.3,0.1,0.4l5.4,3c0.2,0.1,0.5,0.1,0.8,0l5.1-2.9c0.2-0.1,0.2-0.3,0-0.4l-5.4-3c-0.2-0.1-0.5-0.1-0.8,0
					L221.6,405.2z M229.4,409.7c-0.2,0.1-0.2,0.3,0,0.5l5.4,3c0.2,0.1,0.5,0.1,0.8,0l5.1-2.9c0.2-0.1,0.2-0.3,0-0.5l-5.4-3
					c-0.2-0.1-0.5-0.1-0.8,0L229.4,409.7z M274,432.8c-0.2,0.1-0.2,0.3,0,0.5l5.4,3c0.2,0.1,0.5,0.1,0.8,0l1.4-0.8
					c0.2-0.1,0.2-0.3,0-0.4l-5.4-3c-0.2-0.1-0.5-0.1-0.8,0L274,432.8z M297.6,446.2c-0.2,0.1-0.2,0.3,0,0.4l5.4,3
					c0.2,0.1,0.5,0.1,0.8,0l1.3-0.7c0.2-0.1,0.2-0.3,0-0.5l-5.4-3c-0.2-0.1-0.5-0.1-0.8,0L297.6,446.2z M286.8,452.2
					c-0.2,0.1-0.2,0.3,0.1,0.4l5.4,3c0.2,0.1,0.5,0.1,0.8,0l5.1-2.9c0.2-0.1,0.2-0.3,0-0.5l-5.4-3c-0.2-0.1-0.5-0.1-0.8,0
					L286.8,452.2z M254.9,461.8l5.4,3c0.2,0.1,0.5,0.1,0.8,0l5.1-2.9c0.2-0.1,0.2-0.3,0-0.4l-5.4-3c-0.2-0.1-0.5-0.1-0.8,0l-5.1,2.9
					C254.6,461.5,254.7,461.7,254.9,461.8L254.9,461.8z M281.9,437.3c-0.2,0.1-0.2,0.3,0,0.4l5.4,3c0.2,0.1,0.5,0.1,0.8,0l1.4-0.8
					c0.2-0.1,0.2-0.3,0-0.5l-5.4-3c-0.2-0.1-0.5-0.1-0.8,0L281.9,437.3z M213.7,400.7c-0.2,0.1-0.2,0.3,0,0.5l5.4,3
					c0.2,0.1,0.5,0.1,0.8,0l5.1-2.9c0.2-0.1,0.2-0.3,0-0.5l-5.4-3c-0.2-0.1-0.5-0.1-0.8,0L213.7,400.7z"/>
				<polygon class="st2" points="139.3,415.5 108.6,433.2 109.7,433.9 162.3,464.2 191.8,447.1 192.9,446.5 				"/>
				<polygon class="st2" points="162.3,464.2 191.3,447.4 139.3,417.4 110.2,434.1 				"/>
				<path class="st4" d="M338.2,438.8L151.6,331c-2.9-1.9-4.7-5-4.9-8.4V176.2c0-3.1,1.6-4.4,4.1-5.8s5-2.6,7.7-1l186.6,107.7
					c2.9,1.9,4.7,5,4.9,8.5V432c0,3.1,0,5.3-2.4,7C345,440.8,342.2,441.5,338.2,438.8z"/>
				<path class="st2" d="M343,436V289.5c-0.1-1.7-0.5-3.3-1.4-4.8l7-4c0.9,1.5,1.4,3.1,1.4,4.8V432c0,3.1,0,5.3-2.4,7
					c-2.6,1.8-5.4,2.6-9.4-0.2C340.8,440.3,343,439.1,343,436z"/>
				<path class="st2" d="M338.2,281.2L151.6,173.4c-2.7-1.6-4.9-0.3-4.9,2.8v146.4c0.2,3.4,2,6.6,4.9,8.4l186.6,107.7
					c2.7,1.5,4.9,0.3,4.9-2.8V289.6C342.8,286.2,341,283.1,338.2,281.2z"/>
				<path class="st2" d="M338.5,291.9v133.4c0,1.9-1.3,2.6-2.9,1.7L155.6,323.1c-1.7-1.1-2.8-3-2.9-5.1V184.6c0-1.9,1.3-2.6,2.9-1.7
					l179.9,103.8C337.3,287.9,338.4,289.8,338.5,291.9z"/>
				<path class="st7" d="M156.7,183.6V316c0.1,2.1,1.2,3.9,2.9,5.1l178.9,103.3V291.9c-0.1-2.1-1.2-3.9-2.9-5.1L156.7,183.6z"/>
				<path class="st18" d="M156.7,183.6V316c0.1,2.1,1.2,3.9,2.9,5.1l178.9,103.3V291.9c-0.1-2.1-1.2-3.9-2.9-5.1L156.7,183.6z"/>
				<g id="Window">
					<path class="st14" d="M167.4,315.9c-0.9-1-1.4-2.3-1.5-3.7V209.1l162,93.3V405c-0.1,2.1-1.3,2.8-3.2,1.8l-156-89.8
						C168.2,316.8,167.8,316.4,167.4,315.9L167.4,315.9z"/>
					<path class="st19" d="M327.5,302.6v102c-0.1,2-1.2,2.6-3,1.8l-156-89.8c-1.4-0.8-2.2-2.3-2.2-3.8V209.8L327.5,302.6
						 M328.3,302.2l-162.8-93.8v103.3c0.1,1.7,0.8,3.3,1.9,4.6c0.4,0.5,0.9,0.9,1.5,1.3l156,89.8c2,1,3.3,0.3,3.4-2V302.2
						L328.3,302.2z"/>
					<polygon class="st7" points="165.5,208.4 165.5,223.1 328.3,316.9 328.3,302.1 					"/>
					<path class="st14" d="M267.7,273v3.2c0,0.7,0.4,1.4,1,1.8l50,28.8v-5.5l-50-28.8C268.1,272.1,267.8,272.3,267.7,273z"/>
					<path class="st4" d="M324.1,304.3c0.6,0.4,1,1,1,1.7v3.2c0,0.7-0.4,0.9-1,0.6l-5.4-3.1v-5.5L324.1,304.3z"/>
					<path class="st14" d="M323.7,308.2l-0.6-0.9c0.1-0.2,0.1-0.4,0.1-0.7c0-0.7-0.2-1.3-0.5-1.9c-0.2-0.4-0.5-0.7-0.9-1
						c-0.8-0.3-1.2,0.1-1.2,1.1c0,0.7,0.2,1.3,0.5,1.9c0.1,0.2,0.2,0.4,0.4,0.5c0.1,0.2,0.3,0.3,0.5,0.4c0.5,0.2,0.8,0.2,1-0.1
						l0.6,0.9l0.1,0.1c0.1,0.2,0.2,0.2,0.3,0.1C324,308.5,323.9,308.3,323.7,308.2L323.7,308.2L323.7,308.2z M321.8,307.1
						c-0.2-0.1-0.3-0.3-0.4-0.5c-0.2-0.4-0.3-0.8-0.3-1.3c0-0.8,0.4-1.2,1-0.9c0.1,0,0.2,0.1,0.3,0.2c0.1,0.1,0.1,0.1,0.2,0.2
						c0.2,0.4,0.3,0.8,0.3,1.3C322.8,307,322.5,307.4,321.8,307.1L321.8,307.1z"/>
					<path class="st2" d="M165.5,201.3c0.1-2.2,1.4-3,3.4-2l156,89.8c2,1.3,3.3,3.5,3.4,5.9v7.1l-162.8-93.8V201.3z"/>
					<path class="st7" d="M308.2,283.7c-0.9-0.5-1.5-0.1-1.6,0.9c0.1,1.1,0.7,2.1,1.6,2.8c0.9,0.4,1.5,0.1,1.5-1
						C309.7,285.3,309.1,284.3,308.2,283.7z"/>
					<path class="st7" d="M313.7,286.9c-0.9-0.5-1.5-0.1-1.6,0.9c0.1,1.1,0.7,2.1,1.6,2.8c0.9,0.5,1.5,0.1,1.6-0.9
						C315.3,288.6,314.7,287.5,313.7,286.9z"/>
					
						<ellipse transform="matrix(0.8659 -0.5003 0.5003 0.8659 -103.2601 198.9525)" class="st7" cx="319.4" cy="292" rx="1.3" ry="2.3"/>
					<path class="st20" d="M167.4,315.9c-0.9-1-1.4-2.3-1.5-3.7v-88.4l31.1,17.9v91.6l-28.3-16.3
						C168.2,316.8,167.8,316.4,167.4,315.9L167.4,315.9z"/>
					<path class="st19" d="M196.7,242v90.7l-28.1-16.2c-1.4-0.8-2.2-2.3-2.2-3.8v-88.2L196.7,242 M197.5,241.6l-31.9-18.4v88.6
						c0.1,1.7,0.8,3.3,1.9,4.6c0.4,0.5,0.9,0.9,1.5,1.3l28.5,16.3L197.5,241.6z"/>
					<path class="st19" d="M176.1,236.6l15.3,8.8c0.6,0.4,1,1,1,1.7v1.3c0,0.7-0.4,0.9-1,0.6l-15.3-8.8c-0.6-0.4-1-1-1-1.7v-1.3
						C175.2,236.6,175.5,236.3,176.1,236.6z"/>
					<path class="st7" d="M171.9,235.4v1.3c0,0.7-0.4,0.9-1,0.6l-1.1-0.6c-0.6-0.4-1-1-1-1.8v-1.3c0-0.7,0.4-0.9,1-0.6l1.1,0.7
						C171.5,234,171.9,234.6,171.9,235.4z"/>
					<path class="st19" d="M176.1,243.9l15.3,8.8c0.6,0.4,1,1,1,1.8v1.3c0,0.7-0.4,0.9-1,0.6l-15.3-8.8c-0.6-0.4-1-1-1-1.7v-1.3
						C175.2,243.9,175.5,243.6,176.1,243.9z"/>
					<path class="st7" d="M171.9,242.7v1.3c0,0.7-0.4,0.9-1,0.6l-1.1-0.6c-0.6-0.4-1-1-1-1.8v-1.3c0-0.7,0.4-0.9,1-0.6l1.1,0.7
						C171.5,241.3,171.9,242,171.9,242.7z"/>
					<path class="st19" d="M176.1,251.3l15.3,8.8c0.6,0.4,1,1,1,1.8v1.3c0,0.7-0.4,0.9-1,0.6l-15.3-8.7c-0.6-0.4-1-1-1-1.7v-1.3
						C175.2,251.2,175.5,251,176.1,251.3z"/>
					<path class="st7" d="M171.9,250v1.3c0,0.7-0.4,0.9-1,0.6l-1.1-0.6c-0.6-0.4-1-1-1-1.8v-1.3c0-0.7,0.4-0.9,1-0.6l1.1,0.7
						C171.5,248.6,171.9,249.3,171.9,250z"/>
					<path class="st19" d="M176.1,275.6l15.3,8.8c0.6,0.4,1,1,1,1.8v1.3c0,0.7-0.4,0.9-1,0.6l-15.3-8.8c-0.6-0.4-1-1-1-1.7v-1.3
						C175.2,275.6,175.5,275.3,176.1,275.6z"/>
					<path class="st7" d="M171.9,274.4v1.3c0,0.7-0.4,0.9-1,0.6l-1.1-0.7c-0.6-0.4-1-1-1-1.8v-1.3c0-0.7,0.4-0.9,1-0.6l1.1,0.6
						C171.5,273,171.9,273.7,171.9,274.4z"/>
					<path class="st19" d="M176.1,282.1l15.3,8.8c0.6,0.4,1,1,1,1.8v1.4c0,0.7-0.4,0.9-1,0.6l-15.3-8.8c-0.6-0.4-1-1-1-1.7v-1.3
						C175.2,282.1,175.5,281.8,176.1,282.1z"/>
					<path class="st7" d="M171.9,280.9v1.3c0,0.7-0.4,0.9-1,0.6l-1.1-0.7c-0.6-0.4-1-1-1-1.8v-1.3c0-0.7,0.4-0.9,1-0.6l1.1,0.6
						C171.5,279.5,171.9,280.2,171.9,280.9z"/>
					<path class="st19" d="M176.1,288.6l15.3,8.8c0.6,0.4,1,1,1,1.8v1.3c0,0.7-0.4,0.9-1,0.6l-15.3-8.8c-0.6-0.4-1-1-1-1.7v-1.3
						C175.2,288.6,175.5,288.3,176.1,288.6z"/>
					<path class="st7" d="M171.9,287.4v1.3c0,0.7-0.4,0.9-1,0.6l-1.1-0.7c-0.6-0.4-1-1-1-1.8v-1.3c0-0.7,0.4-0.9,1-0.6l1.1,0.6
						C171.5,286,171.9,286.7,171.9,287.4z"/>
					<polygon class="st7" points="175.1,258.1 175.1,260.4 177.1,260.4 					"/>
					<path class="st19" d="M178.3,261.3c0,0.5,0.3,0.9,0.7,1.2l12.8,7.4c0.4,0.2,0.7,0,0.7-0.4c0-0.5-0.3-0.9-0.7-1.2l-12.7-7.4
						C178.6,260.7,178.3,260.8,178.3,261.3z"/>
					<polygon class="st7" points="175.1,261.8 175.1,264.1 177.1,264.1 					"/>
					<path class="st19" d="M178.3,265c0,0.5,0.3,0.9,0.7,1.2l12.8,7.4c0.4,0.2,0.7,0,0.7-0.4c0-0.5-0.3-0.9-0.7-1.2l-12.7-7.4
						C178.6,264.4,178.3,264.6,178.3,265z"/>
					<polygon class="st7" points="175.1,265.5 175.1,267.8 177.1,267.8 					"/>
					<path class="st19" d="M178.3,268.7c0,0.5,0.3,0.9,0.7,1.2l12.8,7.4c0.4,0.2,0.7,0,0.7-0.4c0-0.5-0.3-0.9-0.7-1.2l-12.7-7.4
						C178.6,268.1,178.3,268.2,178.3,268.7z"/>
					<polygon class="st7" points="175.1,269.2 175.1,271.5 177.1,271.5 					"/>
					<path class="st19" d="M178.3,272.4c0,0.5,0.3,0.9,0.7,1.2l12.8,7.4c0.4,0.2,0.7,0,0.7-0.4c0-0.5-0.3-0.9-0.7-1.2L179,272
						C178.6,271.8,178.3,271.9,178.3,272.4z"/>
					<path class="st7" d="M207,258.7v19.2c0,0.9,0.5,1.7,1.3,2.2l21.1,12.1c0.8,0.4,1.2,0.1,1.3-0.7v-15.8c0-0.9-0.5-1.7-1.3-2.2
						l-12.3-7c-0.7-0.5-1.2-1.3-1.3-2.2v-0.5c-0.1-0.9-0.5-1.7-1.3-2.2l-6.3-3.7C207.6,257.6,207.1,257.9,207,258.7z"/>
					<path class="st19" d="M211.2,286.3v1.2c0,0.7,0.4,1.3,0.9,1.6l15.9,9.1c0.6,0.3,0.9,0.1,1-0.5v-1.2c-0.1-0.7-0.4-1.3-1-1.7
						l-15.8-9.1C211.6,285.5,211.2,285.7,211.2,286.3z"/>
					<path class="st7" d="M236.4,275.7v19.2c0,0.9,0.5,1.7,1.3,2.2l21.1,12.2c0.8,0.4,1.2,0.1,1.3-0.7v-15.8
						c-0.1-0.9-0.5-1.7-1.3-2.2l-12.3-7.1c-0.7-0.5-1.2-1.3-1.3-2.2v-0.5c0-0.9-0.5-1.7-1.3-2.2l-6.3-3.6
						C236.9,274.6,236.4,274.9,236.4,275.7z"/>
					<path class="st19" d="M240.5,303.3v1.2c0,0.7,0.4,1.3,1,1.7l15.8,9.1c0.6,0.3,0.9,0.1,0.9-0.6v-1.2c0-0.7-0.4-1.3-0.9-1.6
						l-15.9-9.2C240.9,302.5,240.6,302.7,240.5,303.3z"/>
					<path class="st7" d="M207,297.2v19.2c0,0.9,0.5,1.7,1.3,2.2l21.1,12.2c0.7,0.4,1.2,0.1,1.3-0.7v-15.8c0-0.9-0.5-1.7-1.3-2.2
						l-12.3-7c-0.7-0.5-1.2-1.3-1.3-2.2v-0.5c0-0.9-0.5-1.7-1.3-2.2l-6.4-3.7C207.6,296.2,207.1,296.4,207,297.2z"/>
					<path class="st19" d="M211.2,324.9v1.2c0,0.7,0.4,1.3,0.9,1.6l15.9,9.1c0.6,0.3,0.9,0.1,1-0.5v-1.2c-0.1-0.7-0.4-1.3-1-1.7
						l-15.8-9.1C211.6,324,211.2,324.3,211.2,324.9z"/>
					<path class="st7" d="M236.4,314.3v19.2c0,0.9,0.5,1.7,1.3,2.2l21.1,12.2c0.8,0.4,1.2,0.1,1.3-0.7v-15.7c0-0.9-0.5-1.7-1.3-2.2
						l-12.3-7.1c-0.7-0.5-1.2-1.3-1.3-2.2v-0.5c0-0.9-0.5-1.7-1.3-2.2l-6.3-3.7C236.9,313.2,236.4,313.4,236.4,314.3z"/>
					<path class="st19" d="M240.5,341.9v1.2c0,0.7,0.4,1.3,1,1.7l15.8,9.1c0.6,0.3,0.9,0.1,0.9-0.6v-1.2c0-0.7-0.4-1.3-0.9-1.6
						l-15.8-9.1C241,341.1,240.6,341.3,240.5,341.9z"/>
					<path class="st7" d="M266.1,292.2v19.2c0,0.9,0.5,1.7,1.3,2.2l21.1,12.2c0.8,0.4,1.2,0.1,1.3-0.7v-15.8c0-0.9-0.5-1.7-1.3-2.2
						l-12.3-7c-0.7-0.5-1.2-1.3-1.3-2.2v-0.5c0-0.9-0.5-1.7-1.3-2.2l-6.3-3.6C266.6,291.1,266.2,291.4,266.1,292.2z"/>
					<path class="st19" d="M269.9,320.3v1.2c0,0.7,0.4,1.3,0.9,1.6l15.9,9.2c0.6,0.3,0.9,0.1,1-0.5v-1.2c0-0.7-0.4-1.3-1-1.6
						l-15.9-9.1C270.3,319.5,270,319.7,269.9,320.3z"/>
					<path class="st7" d="M295.1,309.7v19.2c0.1,0.9,0.5,1.7,1.3,2.2l21.1,12.2c0.7,0.4,1.2,0.1,1.3-0.7v-15.8
						c0-0.9-0.5-1.7-1.3-2.2l-12.3-7.1c-0.7-0.5-1.2-1.3-1.3-2.2v-0.5c0-0.9-0.5-1.7-1.3-2.2l-6.3-3.6
						C295.6,308.5,295.2,308.8,295.1,309.7z"/>
					<path class="st19" d="M299.3,337.3v1.3c0,0.7,0.4,1.3,1,1.7l15.8,9.1c0.5,0.3,0.9,0.1,0.9-0.5v-1.3c0-0.7-0.4-1.3-0.9-1.6
						l-15.8-9.1C299.7,336.5,299.3,336.7,299.3,337.3z"/>
					<path class="st19" d="M269.9,358.9v1.2c0,0.7,0.4,1.3,0.9,1.6l15.9,9.2c0.6,0.3,0.9,0.1,1-0.5v-1.2c0-0.7-0.4-1.3-1-1.6
						l-15.8-9.1C270.3,358,270,358.2,269.9,358.9z"/>
					<path class="st21" d="M270.3,332.3l16.4,9.5c0.8,0.5,1.3,1.4,1.4,2.4v19c0,0.9-0.6,1.2-1.4,0.8l-16.4-9.5
						c-0.8-0.5-1.3-1.4-1.4-2.4v-19C269,332.2,269.5,331.9,270.3,332.3z"/>
					<path class="st7" d="M276.4,333l-4.4-2c-1-0.4-1.6-0.1-1.7,0.8v4.1c0.1,1,0.7,1.9,1.7,2.3l4.5,2.1c1,0.4,1.6,0.1,1.7-0.8v-4.1
						C278,334.3,277.4,333.4,276.4,333z"/>
					<path class="st22" d="M271.6,346.9l13.7,7.9c0.4,0.3,0.6,0.7,0.7,1.2v0.3c0,0.5-0.3,0.6-0.7,0.4l-13.7-7.9
						c-0.4-0.3-0.6-0.7-0.7-1.2v-0.3C270.9,346.8,271.2,346.6,271.6,346.9z"/>
					<path class="st22" d="M271.6,350.5l13.7,7.8c0.4,0.3,0.6,0.7,0.7,1.2v0.3c0,0.5-0.3,0.6-0.7,0.4l-13.7-7.9
						c-0.4-0.3-0.6-0.7-0.7-1.2v-0.3C270.9,350.5,271.2,350.3,271.6,350.5z"/>
					<path class="st22" d="M271.6,339.9l13.7,7.9c0.4,0.3,0.6,0.7,0.7,1.2v0.3c0,0.5-0.3,0.6-0.7,0.4l-13.7-7.9
						c-0.4-0.3-0.6-0.7-0.7-1.2v-0.3C270.9,339.8,271.2,339.6,271.6,339.9z"/>
					<path class="st22" d="M271.6,343.5l13.7,7.8c0.4,0.3,0.6,0.7,0.7,1.2v0.3c0,0.5-0.3,0.6-0.7,0.4l-13.7-7.9
						c-0.4-0.3-0.6-0.7-0.7-1.2v-0.3C270.9,343.5,271.2,343.3,271.6,343.5z"/>
					<path class="st19" d="M298.6,375.4v1.2c0,0.7,0.4,1.3,0.9,1.6l15.9,9.1c0.5,0.3,0.9,0.1,0.9-0.6v-1.2c0-0.7-0.4-1.3-0.9-1.6
						l-15.9-9.1C299,374.6,298.7,374.8,298.6,375.4z"/>
					<path class="st21" d="M299,348.9l16.4,9.5c0.8,0.5,1.3,1.4,1.4,2.4v19c0,0.9-0.6,1.2-1.4,0.8L299,371c-0.8-0.5-1.3-1.4-1.4-2.4
						v-19C297.7,348.8,298.2,348.5,299,348.9z"/>
					<path class="st22" d="M300.3,363.4l13.7,7.9c0.4,0.3,0.7,0.7,0.7,1.2v0.3c0,0.5-0.3,0.6-0.7,0.4l-13.7-7.9
						c-0.4-0.3-0.6-0.7-0.7-1.2v-0.3C299.6,363.3,299.9,363.2,300.3,363.4z"/>
					<path class="st22" d="M300.3,367.1L314,375c0.4,0.3,0.7,0.7,0.7,1.2v0.3c0,0.5-0.3,0.6-0.7,0.4l-13.7-7.9
						c-0.4-0.3-0.6-0.7-0.7-1.2v-0.3C299.6,367,299.9,366.9,300.3,367.1z"/>
					<path class="st22" d="M300.3,355.4l13.7,7.9c0.4,0.3,0.7,0.7,0.7,1.2v0.3c0,0.5-0.3,0.6-0.7,0.4l-13.7-7.9
						c-0.4-0.3-0.6-0.7-0.7-1.2v-0.3C299.6,355.3,299.9,355.2,300.3,355.4z"/>
					<path class="st22" d="M300.3,359.1L314,367c0.4,0.3,0.7,0.7,0.7,1.2v0.3c0,0.5-0.3,0.6-0.7,0.4l-13.7-7.9
						c-0.4-0.3-0.6-0.7-0.7-1.2v-0.3C299.6,359,299.9,358.9,300.3,359.1z"/>
					<path class="st7" d="M306.4,349l-4.4-2c-1-0.4-1.6-0.1-1.7,0.8v4.1c0.1,1,0.7,1.9,1.7,2.3l4.5,2.1c1,0.4,1.6,0.1,1.7-0.8v-4.1
						C308,350.3,307.4,349.4,306.4,349z"/>
				</g>
				<polygon class="st23" points="251.9,457.9 124,384.6 145.8,372.1 273.7,445.4 				"/>
			</g>
		</g>
		<g id="Graph">
			<polygon class="st10" points="161.5,381.1 139.7,393.6 136.4,301.4 139.7,296.8 161.5,284.3 			"/>
			<polygon class="st10" points="139.7,296.8 131.8,298.3 124,287.7 145.8,275.3 161.5,284.3 			"/>
			<polygon class="st24" points="139.7,393.6 124,384.6 124,287.7 139.7,296.8 			"/>
			<polygon class="st10" points="189.5,397.2 167.7,409.7 164.4,369.4 167.7,325.9 189.5,313.4 			"/>
			<polygon class="st10" points="167.7,325.9 159.9,327.4 152,316.9 173.8,304.4 189.5,313.4 			"/>
			<polygon class="st7" points="167.7,409.7 152,400.7 152,316.9 167.7,325.9 			"/>
			<polygon class="st10" points="217.6,413.3 195.8,425.8 192.5,359.3 195.8,354.6 217.6,342.1 			"/>
			<polygon class="st10" points="195.8,354.6 187.9,356.2 180.1,345.6 201.9,333.1 217.6,342.1 			"/>
			<polygon class="st7" points="195.8,425.8 180.1,416.8 180.1,345.6 195.8,354.6 			"/>
			<polygon class="st10" points="245.6,429.4 223.8,441.9 220.5,416.3 223.8,384.3 245.6,371.8 			"/>
			<polygon class="st10" points="223.8,384.3 216,385.9 208.1,375.3 229.9,362.8 245.6,371.8 			"/>
			<polygon class="st7" points="223.8,441.9 208.1,432.8 208.1,375.3 223.8,384.3 			"/>
			<polygon class="st10" points="273.7,445.4 251.9,457.9 248.6,440.5 251.9,408.6 273.7,396.1 			"/>
			<polygon class="st10" points="251.9,408.6 244,410.1 236.1,399.5 258,387 273.7,396.1 			"/>
			<polygon class="st7" points="251.9,457.9 236.1,448.9 236.1,399.5 251.9,408.6 			"/>
			<polygon class="st7" points="125.1,283.7 131.6,280 151,264.5 126.3,255.7 			"/>
			<polygon class="st10" points="144.6,268.2 151,264.5 124.4,246.4 118,250.1 132.9,265.6 			"/>
			<polygon class="st10" points="204.9,330.5 211.4,326.8 163.6,299.4 152.9,303.1 177.9,319 			"/>
			<polygon class="st10" points="157.1,303.1 163.6,299.4 144,270.1 137.5,273.8 146.2,292.1 			"/>
			<polygon class="st10" points="242,386.3 248.5,382.6 211.4,326.8 204.9,330.5 216,354.8 			"/>
			<polygon class="st10" points="289.8,423.9 296.3,420.2 296.3,409.9 288.3,411.4 285.5,414.5 			"/>
			<polygon class="st10" points="289.8,413.6 296.3,409.9 248.5,382.6 242,386.3 262.8,402.2 			"/>
			<polygon class="st24" points="118,250.1 144.6,268.2 137.5,273.8 157.1,303.1 204.9,330.5 242,386.3 289.8,413.6 289.8,423.9 
				238.9,394.7 201.7,339 153.9,311.6 131.8,278.4 125.1,283.7 			"/>
		</g>
		<g id="Rob">
			<path class="st25" d="M303.5,349.3c0,0-1.1-4.4-1.6-4.6c-2.5,0.1-5,0.4-7.5,0.8c0,0-2.3-3.1-2.6-3.5s-1.1,0.6-0.8,1.1
				s1.9,5,2.9,5.2c1.2,0.1,2.4,0.1,3.6,0l0.8,2.8L303.5,349.3z"/>
			<path class="st0" d="M339.6,506.6c37.2,10.6,57.6-18.4,32.6-26.4C332.9,467.9,316.4,500.1,339.6,506.6z"/>
			<path class="st6" d="M345.5,483.4L345.5,483.4c0.1,0.1,0.1,0.2,0,0.3c0,0,0,0,0,0c-0.1,0-0.1,0-0.2,0c-0.1,0-0.1-0.2-0.1-0.3
				C345.3,483.4,345.4,483.3,345.5,483.4"/>
			<path class="st7" d="M318.7,365.5l18.5,3.1l-1,9c0,0-21.7-3.1-23.9-5.5s-12.9-17.7-12.9-17.7l6.9-3.1L318.7,365.5z"/>
			<path class="st6" d="M313.2,372.5c0-0.3,0.1-0.7,0.2-1c0.1-0.5,0.3-1,0.5-1.5c0.3-0.6,0.6-1.1,1-1.6c0.4-0.5,0.8-1,1.3-1.4
				c0.4-0.3,0.8-0.7,1.3-0.9c0.3-0.2,0.6-0.3,0.9-0.5c0.1-0.1,0.2-0.1,0.4-0.1c0,0-0.5,0.3-1.2,0.7c-0.4,0.3-0.8,0.6-1.2,1
				c-0.5,0.4-0.9,0.9-1.3,1.4c-0.4,0.5-0.7,1-0.9,1.6c-0.2,0.5-0.4,0.9-0.5,1.4c-0.1,0.5-0.2,0.9-0.3,1.4
				C313.2,372.8,313.2,372.6,313.2,372.5z"/>
			<path class="st6" d="M315.3,369.5l1.9,0.5c1.6,0.4,3.9,0.9,6.4,1.4s4.8,0.9,6.4,1.2l2,0.4c0.2,0,0.5,0.1,0.7,0.2H332
				c-0.5,0-1.1-0.1-2-0.3c-1.6-0.2-3.9-0.6-6.4-1.2s-4.8-1.1-6.4-1.5l-1.9-0.5c-0.2,0-0.5-0.1-0.7-0.2
				C314.9,369.4,315.1,369.5,315.3,369.5z"/>
			<path class="st6" d="M310.8,359.3c3.5,3.9,6.2,7.2,6.2,7.2s-2.9-3.1-6.4-7s-6.2-7.2-6.2-7.2S307.4,355.4,310.8,359.3z"/>
			<path class="st6" d="M313.2,363.2c0.1,0,0.1,0.1,0.1,0.2c0,0.1-0.1,0.2-0.2,0.2c-0.1,0-0.2-0.1-0.2-0.2v-0.1
				C312.9,363.2,313,363.1,313.2,363.2C313.1,363.2,313.1,363.2,313.2,363.2"/>
			<path class="st6" d="M324.4,370.4C324.4,370.4,324.4,370.5,324.4,370.4c0.1,0.1,0.1,0.3,0,0.3c0,0,0,0,0,0c-0.1,0-0.1,0-0.2,0
				c-0.1,0-0.1-0.2-0.1-0.2c0,0,0,0,0,0C324.2,370.4,324.3,370.4,324.4,370.4C324.4,370.4,324.4,370.4,324.4,370.4"/>
			<path class="st6" d="M319,369.3L319,369.3c0.1,0.1,0.1,0.2,0,0.3c-0.1,0-0.1,0-0.2,0c-0.1-0.1-0.1-0.2,0-0.3
				C318.8,369.2,318.9,369.2,319,369.3"/>
			<path class="st6" d="M310,359.8C310,359.8,310,359.8,310,359.8c0.1,0.1,0.1,0.2,0,0.3c0,0,0,0,0,0l0,0c-0.1,0-0.2-0.1-0.2-0.2
				c0,0,0,0,0,0c0,0,0,0,0-0.1C309.8,359.7,310,359.7,310,359.8C310.1,359.7,310.1,359.7,310,359.8"/>
			<path class="st6" d="M306.9,356.1c0.1,0,0.1,0.1,0.1,0.2c0,0.1-0.1,0.2-0.2,0.2c-0.1,0-0.2-0.1-0.2-0.2v-0.1
				C306.6,356.1,306.7,356,306.9,356.1C306.8,356.1,306.8,356.1,306.9,356.1"/>
			<g class="st26">
				<path class="st6" d="M326.2,366.8c3.5,0.6,6.3,1.3,6.2,1.6s-3,0.1-6.4-0.5s-6.2-1.3-6.2-1.6S322.7,366.3,326.2,366.8z"/>
			</g>
			<path class="st6" d="M329,371.3L329,371.3c0.1,0.1,0.1,0.2,0,0.3c0,0,0,0,0,0c-0.1,0-0.1,0-0.2,0c-0.1,0-0.1-0.2-0.1-0.3
				C328.8,371.3,329,371.2,329,371.3C329,371.3,329,371.3,329,371.3"/>
			<path class="st27" d="M337.5,379.6c-2.2-1.1-3.8-2.9-4.8-5.2c-0.6-1.9-0.2-4,1.1-5.6c1.3-1.6,3.4-2.2,5.3-1.6"/>
			<path class="st28" d="M337,379c-0.4-0.3-0.7-0.7-1.1-1.1c-0.5-0.6-0.9-1.3-1.1-2c-0.3-0.9-0.4-1.9-0.3-2.8
				c0.1-1.7,0.7-3.4,1.7-4.8c0.3-0.4,0.6-0.8,1.1-1.1c0.1-0.1,0.3-0.1,0.4-0.1h0.2c-0.2,0-0.4,0.1-0.5,0.2c-0.4,0.3-0.7,0.7-1,1.1
				c-0.9,1.4-1.5,3-1.6,4.7c-0.2,1.7,0.3,3.4,1.3,4.7c0.4,0.6,0.9,1.1,1.4,1.6C337.3,379.2,337.1,379.1,337,379z"/>
			<path class="st27" d="M306.2,351.3c0.6-0.5,0.8-1.2,0.6-1.9c-0.2-0.7-0.8-1.2-1.5-1.3c-0.7-0.1-1.4-0.1-2.1,0.2
				c-1.9,0.5-3.6,1.6-4.9,3.1c-0.5,0.4-0.8,1-1,1.6c-0.2,0.6,0.1,1.3,0.6,1.7c0.7,0.5,1.7,0.2,2.5-0.2
				C302.3,353.6,304.3,352.5,306.2,351.3"/>
			<path class="st28" d="M297.7,353.5c0.2-0.4,0.4-0.7,0.6-1c1.5-2.2,4.1-3.4,6.7-3.3c0.4,0,0.8,0.1,1.1,0.1c0.1,0,0.3,0.1,0.4,0.1
				c0,0-0.6-0.1-1.6-0.1c-2.6,0-5,1.2-6.6,3.2c-0.3,0.4-0.6,0.8-0.9,1.3C297.6,353.7,297.6,353.6,297.7,353.5z"/>
			<path class="st27" d="M344.4,401.2c0.8,0.2,1.8,0.5,2.8,0.7c1.1,0.2,2.3,0.4,3.5,0.5c1.3,0,2.5,0.1,3.5,0s2-0.1,2.8-0.3
				c0.9-0.2,1.8-0.3,2.7-0.2c0,0.1-0.9,0.6-2.5,1c-1,0.2-2,0.4-3,0.5c-1.2,0.1-2.4,0.1-3.7,0c-1.2-0.1-2.4-0.3-3.6-0.6
				c-1-0.2-1.9-0.6-2.8-0.9c-0.9-0.3-1.7-0.8-2.4-1.4C341.9,400.3,342.8,400.7,344.4,401.2z"/>
			<path class="st27" d="M350.5,404c4.5,0.4,8.1,0,8.2,0.2s-0.9,0.5-2.3,0.7c-3.9,0.6-7.9,0.3-11.7-0.9c-1.4-0.5-2.2-0.9-2.2-1.1
				C342.5,402.6,346,403.6,350.5,404z"/>
			<path class="st7" d="M337,349.4c-0.1,0.8-0.1,1.6,0,2.3c0.4,6.6,5.3,9.8,11.8,10.7c3.1,0.5,6.4,0.9,8,1.1
				c3.7,0.5,16.1,2.7,16.3-10.5s-14.6-15.9-14.6-15.9C344.5,333.9,338,342.3,337,349.4z"/>
			<path class="st27" d="M339.8,346L339.8,346c0.4-2,2.4-3.2,4.3-2.8l18.8,4l0,0c2,0.4,3.2,2.4,2.8,4.3l0,0l0,0
				c-0.4,2-2.4,3.2-4.3,2.8l-18.8-4C340.7,349.9,339.4,348,339.8,346z"/>
			<circle class="st6" cx="358.9" cy="350.4" r="1.2"/>
			<circle class="st6" cx="345.8" cy="347.6" r="1.2"/>
			<path class="st6" d="M352.9,343.7c0.1-0.2,0.2-0.6,0.4-1c0.4-1.1,1-2.2,1.8-3.1c0.8-1,1.8-1.7,3-2.1c0.3-0.1,0.7-0.2,1.1-0.2
				c0.1,0,0.3,0,0.4,0c-0.5,0.1-0.9,0.2-1.4,0.4c-1.1,0.4-2.1,1.1-2.8,2.1c-0.7,0.9-1.4,1.9-1.8,3c-0.2,0.5-0.4,0.9-0.6,1.3
				C352.8,343.9,352.8,343.8,352.9,343.7z"/>
			<path class="st6" d="M352,362.7c-0.3-0.3-0.5-0.6-0.7-0.9c-0.7-1-1.2-2.2-1.4-3.4c-0.1-1.2-0.1-2.5,0.1-3.7l0.2-1.1
				c0-0.1,0.1-0.3,0.1-0.4c0,0.5-0.1,1-0.2,1.5c-0.2,1.2-0.2,2.4,0,3.6c0.2,1.2,0.6,2.4,1.3,3.4c0.3,0.4,0.6,0.8,0.9,1.2
				C352.2,362.9,352.1,362.8,352,362.7z"/>
			<g class="st26">
				<path d="M341.4,359.8c2,1.2,4.2,2.1,6.5,2.5c0,0,8.2,1.4,12.1,1.7c2,0.2,4.1,0.1,6-0.5c-0.5-1.2-1.4-2.3-2.5-3
					c-3.8-2.8-8.5-3.9-13.1-4.6c-2-0.3-4-0.5-6-0.4c-2,0.1-4,0.7-5.7,1.8C339.4,358.2,340.3,359.1,341.4,359.8z"/>
			</g>
			<path class="st6" d="M338.5,346.4c-0.1,0.7,0,1.3,0.2,2c0.4,1,1.1,1.8,2,2.4c1.2,0.6,2.6,1.1,3.9,1.3l10.7,2.3l3.1,0.7
				c1,0.2,2.1,0.5,3.2,0.6c1.1,0.2,2.2,0,3.2-0.5c1-0.6,1.7-1.5,2-2.6c0.3-1.1,0.1-2.3-0.4-3.3c-0.5-1-1.4-1.8-2.4-2.2
				c-0.5-0.2-1-0.4-1.6-0.5l-1.6-0.4l-3.1-0.7l-5.6-1.4c-1.8-0.4-3.4-0.9-4.9-1.2c-0.7-0.2-1.4-0.3-2.2-0.3c-0.6-0.1-1.3-0.1-2,0
				c-1,0.1-2,0.5-2.8,1.1c-0.5,0.4-1,0.9-1.3,1.5c-0.2,0.4-0.3,0.6-0.3,0.6v-0.2c0-0.2,0.1-0.4,0.2-0.5c0.3-0.6,0.7-1.1,1.3-1.6
				c0.8-0.6,1.8-1.1,2.9-1.2c0.7-0.1,1.3-0.1,2,0c0.7,0,1.5,0.1,2.2,0.3c1.5,0.3,3.2,0.8,5,1.2l5.6,1.3l3.1,0.7l1.6,0.4
				c0.5,0.1,1.1,0.3,1.6,0.5c1.1,0.5,2,1.3,2.5,2.3c1.2,2.2,0.5,5-1.7,6.3c-1,0.6-2.2,0.8-3.4,0.6c-1.1-0.1-2.2-0.4-3.3-0.6
				l-3.1-0.7l-10.7-2.3c-1.4-0.2-2.8-0.7-4-1.4c-0.9-0.6-1.6-1.4-2-2.5C338.5,347.6,338.4,346.9,338.5,346.4c0-0.3,0.1-0.6,0.2-0.8
				C338.7,345.6,338.6,345.9,338.5,346.4z"/>
			<path class="st6" d="M370.1,353.6c-1.6-0.8-3-1.1-3-1.2c0.3,0,0.6,0.1,0.9,0.2c0.7,0.2,1.5,0.5,2.1,0.8c0.7,0.3,1.4,0.7,2,1.2
				c0.3,0.2,0.5,0.4,0.7,0.6C372.9,355.3,371.7,354.4,370.1,353.6z"/>
			<path class="st6" d="M357.6,338.9C357.6,339,357.6,339,357.6,338.9c0.1,0.2,0.1,0.3,0,0.3c-0.1,0-0.1,0-0.2,0
				c-0.1-0.1-0.1-0.2,0-0.3C357.4,338.9,357.5,338.9,357.6,338.9"/>
			<path class="st6" d="M355.2,342.3L355.2,342.3c0.1,0.1,0.1,0.3,0,0.3h-0.1c-0.1,0-0.2-0.1-0.2-0.2c0,0,0,0,0,0c0,0,0,0,0,0
				C355,342.3,355.1,342.3,355.2,342.3C355.2,342.3,355.2,342.3,355.2,342.3"/>
			<path class="st6" d="M369.4,351.9L369.4,351.9c0.1,0.1,0.1,0.2,0,0.3c0,0,0,0,0,0h-0.1c-0.1,0-0.2-0.1-0.2-0.2c0,0,0,0,0,0
				c0,0,0,0,0-0.1C369.2,351.9,369.3,351.9,369.4,351.9C369.4,351.9,369.4,351.9,369.4,351.9"/>
			<path class="st6" d="M372.3,353.6L372.3,353.6c0.1,0.1,0.1,0.2,0,0.3c0,0,0,0,0,0h-0.1c-0.1,0-0.2-0.1-0.2-0.2c0,0,0,0,0,0v-0.1
				C372.1,353.5,372.2,353.5,372.3,353.6"/>
			<g class="st26">
				<path class="st6" d="M358.1,337.7c1.3,0.3,2.6,0.7,3.8,1.1c1.5,0.6,3,1.4,4.3,2.3c1.3,1,2.5,2.2,3.5,3.5
					c0.8,1.1,1.3,2.4,1.7,3.7c0.2,0.9,0.3,1.8,0.3,2.7c0,0.6,0,1-0.2,1s-0.1-1.4-0.9-3.4c-0.4-1.2-1-2.3-1.8-3.3
					c-0.9-1.2-2-2.3-3.3-3.2c-2.3-1.6-4.9-2.8-7.6-3.6c-1.2-0.3-2.3-0.7-3.4-1.2C355.8,337.2,357,337.4,358.1,337.7z"/>
			</g>
			<g class="st26">
				<path class="st6" d="M369.5,356.9c0.5-0.7,1-1.3,1.3-1.2s0.3,1-0.4,1.9s-1.5,1.2-1.7,1S369,357.6,369.5,356.9z"/>
			</g>
			<path class="st7" d="M369.8,369.4c0,4.8-0.5,9.5-1.4,14.2c-0.9,4.7-3,9.1-6.2,12.6c-3.2,3.6-7.8,5.6-12.6,5.4
				c-4-0.2-7.7-2.4-9.8-5.8c-1.8-3-2.1-6.7-2.2-10.3c-0.2-6.6-0.2-19.6,0.6-19.8C354.5,361.1,369.8,369.4,369.8,369.4z"/>
			<g class="st29">
				<path d="M368.9,371.2c-0.8,2.9-1.8,5.7-3,8.4c-1.2,2.7-3,5.2-5.3,7.1c-1.4,1-2.8,2-4.3,2.9c-1.5,0.9-2.8,2-3.9,3.4
					c-1.1,1.4-1.6,3.1-1.3,4.9c0.3,1.7,1.3,3.8,3,3.3c1-0.2,2-0.6,3-1.1c1.1-0.6,2.1-1.2,3.1-2c3.2-2.6,5.6-6.1,7-10
					c1.4-4,2.1-8.2,2-12.5"/>
			</g>
			<path class="st6" d="M358.1,393.3L358.1,393.3c0.1,0.1,0.1,0.2,0,0.3c0,0,0,0,0,0h-0.1c-0.1,0-0.2-0.1-0.2-0.2c0,0,0-0.1,0-0.1
				C357.9,393.3,358.1,393.2,358.1,393.3"/>
			<path class="st6" d="M352.4,393.1L352.4,393.1c0.1,0.1,0.1,0.2,0,0.3c0,0,0,0,0,0c0,0-0.1,0-0.1,0c-0.1,0-0.1-0.1-0.1-0.2
				c0,0,0,0,0,0C352.2,393.1,352.3,393,352.4,393.1C352.4,393.1,352.4,393.1,352.4,393.1"/>
			<path class="st6" d="M346.1,387.2L346.1,387.2c0.1,0.1,0.1,0.2,0,0.3c0,0,0,0,0,0h-0.1c-0.1,0-0.2-0.1-0.2-0.2v0c0,0,0,0,0-0.1
				C345.9,387.1,346,387.1,346.1,387.2"/>
			<path class="st6" d="M349,372.5L349,372.5c0.1,0.1,0.1,0.2,0,0.3l0,0c-0.1,0-0.2-0.1-0.2-0.2v0c0,0,0,0,0-0.1
				C348.9,372.5,349,372.4,349,372.5"/>
			<path class="st6" d="M343.1,374.9L343.1,374.9c0.1,0.1,0.1,0.2,0,0.3c0,0,0,0,0,0H343c-0.1,0-0.2-0.1-0.2-0.2c0,0,0,0,0,0
				c0,0,0,0,0-0.1C342.9,374.9,343,374.8,343.1,374.9"/>
			<path class="st6" d="M364.6,391.6L364.6,391.6c0.1,0.1,0.1,0.2,0,0.3c0,0,0,0,0,0h-0.1c-0.1,0-0.2-0.1-0.2-0.2v-0.1
				C364.4,391.6,364.6,391.5,364.6,391.6C364.6,391.6,364.6,391.6,364.6,391.6"/>
			<path class="st6" d="M365.6,386.8L365.6,386.8c0.1,0.1,0.1,0.3,0,0.3c0,0,0,0,0,0h-0.1c-0.1,0-0.2-0.1-0.2-0.2c0,0,0,0,0,0
				c0,0,0,0,0,0C365.4,386.7,365.5,386.7,365.6,386.8C365.6,386.7,365.6,386.7,365.6,386.8"/>
			<path class="st6" d="M366,382.4L366,382.4c0.1,0.1,0.1,0.2,0,0.3l0,0c-0.1,0-0.2-0.1-0.2-0.2c0,0,0,0,0,0c0,0,0,0,0-0.1
				C365.8,382.3,366,382.3,366,382.4C366.1,382.3,366.1,382.3,366,382.4"/>
			<path class="st6" d="M366.4,377.7L366.4,377.7c0.1,0.1,0.1,0.2,0,0.3c0,0,0,0,0,0h-0.1c-0.1,0-0.2-0.1-0.2-0.2v0c0,0,0,0,0-0.1
				C366.2,377.6,366.3,377.6,366.4,377.7"/>
			<path class="st6" d="M339.7,373.8L339.7,373.8c0.1,0.1,0.1,0.2,0,0.3c-0.1,0-0.1,0-0.2,0c-0.1,0-0.1-0.2-0.1-0.2c0,0,0,0,0,0
				C339.5,373.7,339.6,373.7,339.7,373.8"/>
			<path class="st6" d="M345.2,392.7L345.2,392.7c0.1,0.1,0.1,0.2,0,0.3c0,0,0,0,0,0h-0.1c-0.1,0-0.2-0.1-0.2-0.2v0c0,0,0,0,0-0.1
				C345,392.6,345.1,392.5,345.2,392.7"/>
			<path class="st6" d="M344.5,397.3L344.5,397.3c0.1,0.1,0.1,0.2,0,0.3c0,0,0,0,0,0h0c-0.1,0-0.2-0.1-0.2-0.2c0,0,0,0,0,0
				c0,0,0,0,0-0.1C344.3,397.2,344.5,397.2,344.5,397.3"/>
			<g class="st26">
				<path class="st6" d="M355,370.8c7.4,0.3,13.3-1.1,13.3-0.7c-1.2,0.6-2.5,1-3.8,1.1c-1.4,0.3-2.8,0.5-4.2,0.6
					c-1.8,0.2-3.5,0.2-5.3,0.2c-1.8-0.1-3.5-0.2-5.3-0.5c-1.4-0.2-2.8-0.5-4.2-0.9c-1.3-0.2-2.6-0.7-3.7-1.4
					C341.9,368.9,347.6,370.5,355,370.8z"/>
			</g>
			<path class="st6" d="M359,399l0.6-0.6c0.7-0.8,1.4-1.7,1.8-2.7c0.3-0.7,0.5-1.4,0.7-2.1c0.2-0.8,0.5-1.6,0.7-2.5
				c0.5-1.8,0.9-3.7,1.3-5.8c0.7-3.5,1.2-7.1,1.5-10.6c0.1-1.4,0.3-2.5,0.3-3.3v-0.9c0-0.1,0-0.2,0-0.3v1.2c0,0.8-0.1,1.9-0.2,3.3
				c-0.3,3.6-0.8,7.2-1.5,10.7c-0.4,2.1-0.9,4-1.3,5.8c-0.2,0.9-0.5,1.7-0.7,2.5c-0.2,0.7-0.4,1.4-0.7,2.1c-0.5,1-1.1,1.9-1.9,2.6
				L359,399l-0.3,0.2C358.7,399.2,358.8,399,359,399z"/>
			<path class="st6" d="M347.5,392.9c-0.5,4.4-1,8-1.1,8s0.3-3.6,0.9-8s1-8,1.1-8S348,388.5,347.5,392.9z"/>
			<path class="st6" d="M354.9,365.2c-0.2,0.2-0.4,0.6-0.8,1c-0.6,0.8-1.5,1.9-2.5,3.2l-0.4,0.5l-0.1,0.1l0,0v0.3
				c-0.1,0.3-0.1,0.7-0.1,1.1L351,373c0,0.6-0.1,1.1-0.1,1.7c0-0.1,0-0.3,0-0.5v-3c0.1-0.4,0.1-0.7,0.1-1.1v-0.3l0,0v-0.1
				c0,0,0,0,0-0.1l0,0l0.4-0.5c1-1.2,1.9-2.3,2.6-3.1c0.3-0.4,0.6-0.7,0.8-0.9c0.1-0.1,0.2-0.2,0.3-0.3
				C355,364.9,355,365,354.9,365.2z"/>
			<path class="st6" d="M348.5,391.8l1.5,0.2c1.3,0.1,3.1,0.2,5.1,0.4s3.8,0.1,5.1,0.1h1.6c0.2,0,0.4,0,0.6,0c-0.2,0-0.4,0-0.6,0
				h-1.6c-1.3,0-3.1,0-5.1-0.1s-3.8-0.3-5.1-0.4C349.3,391.9,348.8,391.9,348.5,391.8c-0.2-0.1-0.4-0.1-0.6-0.1L348.5,391.8z"/>
			<path class="st6" d="M338.8,374.9c1,0.4,2.1,0.8,3.2,1.1c1.3,0.4,2.4,0.6,3.3,0.8c0.5,0.1,0.9,0.2,1.4,0.3c-0.5,0-0.9,0-1.4-0.1
				c-1.1-0.2-2.2-0.4-3.3-0.7c-1.1-0.3-2.1-0.7-3.2-1.2l-0.9-0.5c-0.1-0.1-0.2-0.1-0.3-0.2C337.5,374.4,338,374.6,338.8,374.9z"/>
			<circle class="st27" cx="349.8" cy="379.8" r="5.2"/>
			<circle class="st6" cx="349.1" cy="379.5" r="3.8"/>
			<path class="st7" d="M348,380v-1.7l0,0l2-1l0,0l1.9,1.2c-0.1-0.1,0,0.1,0,0.1l0,0v2.3l0,0l-2,1l0,0c-0.6-0.4-1.1-0.7-1.4-1
				l-0.5-0.4c0.2,0.1,0.4,0.2,0.5,0.3l1.4,0.9h-0.1l2-1l-0.1,0.1v-2.3l0,0c-0.1,0,0,0.2,0,0.1l-1.9-1.3h0.1l-2,1v-0.1
				c-0.1,0.7-0.1,1.3-0.1,1.6c0,0.2,0,0.4-0.1,0.6C347.8,380.4,347.9,380.2,348,380z"/>
			<g class="st29">
				<path d="M338.2,365.7c16.3-4.8,31.6,3.7,31.6,3.7C345.2,372.3,338.2,365.7,338.2,365.7z"/>
			</g>
			<path class="st6" d="M345.1,472.6L345.1,472.6c0.1,0.1,0.1,0.2,0,0.3c-0.1,0-0.1,0-0.2,0c-0.1-0.1-0.1-0.2-0.1-0.3
				C344.9,472.5,345,472.5,345.1,472.6"/>
			<path class="st7" d="M342.1,404.9c-6.4,0-6,9-6,9c0.2,11.8,0.9,23.5,2.3,35.3c0,1.6,0.6,3.2,1.7,4.3c1.7,1,3.8,0.7,5.1-0.8
				c1.2-1.5,2-3.2,2.3-5.1c2.7-10.6,4.1-21.5,4.2-32.4C351.9,408.4,348.5,404.9,342.1,404.9z"/>
			<g class="st29">
				<path d="M351.3,421.8c0.4,5.6-2.5,20.2-2.5,20.2c-3-2.4-3.8-6.2-4-10s0.4-7.5-0.3-11.4s-2.6-7.6-2.1-11.6
					c0.1-1.3,0.6-2.4,1.6-3.3c1-0.8,2.4-0.8,3.4,0.1C347.3,405.9,351.1,417.7,351.3,421.8z"/>
			</g>
			<path class="st6" d="M346.5,420.9v1c0,0.8-0.1,2.1-0.3,3.6c-0.3,3-0.7,7.2-1.3,11.9s-1.2,8.8-1.7,11.8c-0.3,1.5-0.5,2.7-0.6,3.6
				l-0.2,1c0,0.1,0,0.2-0.1,0.3v-0.4l0.1-1l0.5-3.6c0.5-3,1-7.2,1.7-11.8s1.1-8.8,1.4-11.9l0.4-3.6L346.5,420.9c0-0.1,0-0.2,0-0.3
				C346.5,420.6,346.5,420.7,346.5,420.9z"/>
			<path class="st27" d="M365.6,410c0-2.8-4.8-4.2-4.8-4.2l-13.3-0.4c-1.4,0-3,0-3.9,1.1c-0.6,1.1-0.7,2.3-0.4,3.5
				c0.6,3.6,1.2,7.3,3.3,10.3c2.1,3,5.9,4.1,9.2,2.7C359.9,421,365.6,412.8,365.6,410z"/>
			<path class="st7" d="M344.3,455.1c-1.1-0.3-2.2-0.4-3.4-0.3c-1.1,0.1-2.2,0.7-2.8,1.6c-0.5,1.1-0.6,2.3-0.4,3.5l3.4,31.1
				c0,1.1,0.4,2.1,1,3c1.3,1.4,3.8,0.8,4.9-0.7c1-1.6,1.5-3.5,1.4-5.4c0.5-8.7,0.2-17.4-0.1-26.1c0-1.4-0.2-2.9-0.7-4.2
				c-0.5-1.4-1.7-2.3-3.2-2.5"/>
			<path class="st6" d="M346.2,496v-0.4l0.1-1.2c0.1-1,0.2-2.5,0.2-4.4c0.1-3.7,0.1-8.8-0.1-14.4s-0.3-10.7-0.4-14.4
				c0-1.5-0.2-2.9-0.7-4.3c-0.1-0.4-0.3-0.7-0.5-1.1l-0.2-0.3l0,0l0.2,0.2c0.2,0.3,0.4,0.7,0.6,1.1c0.5,1.4,0.8,2.8,0.7,4.3
				c0.1,3.7,0.3,8.8,0.5,14.4s0.2,10.8,0,14.5c-0.1,1.8-0.2,3.4-0.3,4.4c0,0.5-0.1,0.9-0.1,1.2L346.2,496L346.2,496z"/>
			<path class="st27" d="M340.3,497.1l0.7-3.2c0.1-1.1,0.7-2.1,1.7-2.6c0.6-0.3,1.3-0.4,2-0.3c0.7,0,1.4,0.3,2,0.7
				c0.7,0.6,1.1,1.4,1.1,2.3c0.1,0.9,0,1.8-0.1,2.7"/>
			<path class="st7" d="M348.1,498.2c0,0-13.5,0.6-13.5,0.1s5.6-1.7,5.6-1.7l7.7-0.1L348.1,498.2z"/>
			<path class="st28" d="M349.6,406.6c0,0.2-0.1,0.5-0.2,0.8s-0.2,0.7-0.2,1.1s-0.1,0.9-0.2,1.4c-0.1,0.5-0.1,1.1-0.1,1.6
				c-0.1,2.4,0.3,4.9,1.1,7.2c0.2,0.5,0.4,1,0.6,1.4l0.3,0.6l0.3,0.6c0.2,0.4,0.4,0.7,0.6,1c0.2,0.3,0.3,0.5,0.5,0.7
				c0.2,0.2,0.3,0.4,0.4,0.6c-0.2-0.2-0.3-0.4-0.5-0.6c-0.2-0.2-0.4-0.5-0.5-0.7c-0.2-0.3-0.4-0.7-0.6-1l-0.3-0.6
				c-0.1-0.2-0.2-0.4-0.3-0.6c-0.2-0.5-0.4-1-0.6-1.5c-0.4-1.2-0.7-2.4-0.9-3.6c-0.2-1.2-0.3-2.4-0.2-3.7c0-0.6,0.1-1.1,0.1-1.6
				c0-0.5,0.1-0.9,0.2-1.4c0.1-0.4,0.2-0.8,0.3-1.1c0.1-0.3,0.1-0.6,0.2-0.8c0.1-0.2,0.2-0.5,0.3-0.7
				C349.8,406,349.7,406.3,349.6,406.6z"/>
			<path class="st6" d="M343.8,431.8L343.8,431.8c0.1,0.1,0.1,0.2,0,0.3h-0.1c-0.1,0-0.2-0.1-0.2-0.2c0,0,0,0,0,0c0,0,0-0.1,0-0.1
				C343.6,431.8,343.7,431.7,343.8,431.8C343.8,431.8,343.8,431.8,343.8,431.8"/>
			<path class="st6" d="M342.6,441.4L342.6,441.4c0.1,0.1,0.1,0.3,0,0.3c0,0,0,0,0,0h-0.1c-0.1,0-0.2-0.1-0.2-0.2c0,0,0,0,0,0
				c0,0,0,0,0,0C342.4,441.4,342.5,441.3,342.6,441.4C342.6,441.4,342.6,441.4,342.6,441.4"/>
			<path class="st6" d="M344.9,422.1L344.9,422.1c0.1,0.1,0.1,0.2,0,0.3c0,0,0,0,0,0h-0.1c-0.1,0-0.2-0.1-0.2-0.2c0,0,0,0,0,0
				c0,0,0-0.1,0-0.1C344.7,422,344.8,422,344.9,422.1C344.9,422,344.9,422,344.9,422.1"/>
			<path class="st6" d="M344.9,463.5L344.9,463.5c0.1,0.1,0.1,0.2,0,0.3c0,0,0,0,0,0h-0.1c-0.1,0-0.2-0.1-0.2-0.2c0,0,0-0.1,0-0.1
				C344.7,463.4,344.8,463.4,344.9,463.5C344.9,463.4,344.9,463.4,344.9,463.5"/>
			<path class="st28" d="M344.3,494.5c1.2,0,2.4,0,3.6-0.1c-0.3,0.1-0.7,0.2-1,0.3c-0.9,0.1-1.7,0.2-2.6,0.1
				c-0.9-0.1-1.7-0.2-2.5-0.4c-0.4-0.1-0.7-0.2-1-0.4C341.9,494.2,343.1,494.4,344.3,494.5z"/>
			<g class="st29">
				<path d="M348.6,481.6c0.2-7.6,0-15.3-0.6-22.9c0-0.8-0.3-1.6-0.9-2.3c-1-0.5-2.2-0.5-3.1,0.1c-0.9,0.3-1.6,0.9-1.9,1.7
					c-0.1,0.6,0,1.1,0.2,1.6c0.7,2.4,1,5,1.1,7.5c0.1,2.5,0.5,5,1.1,7.5c0.7,2.5,2.1,4.7,4.1,6.3"/>
			</g>
			<circle class="st27" cx="342" cy="453.7" r="5.5"/>
			<path class="st28" d="M338.2,453.8c1.2,0.6,2.5,0.9,3.8,0.8c1.3-0.1,2.6-0.3,3.9-0.7c0.5-0.2,1-0.3,1.6-0.4
				c-0.1,0.1-0.3,0.1-0.4,0.2c-0.3,0.1-0.6,0.3-1.1,0.4c-1.2,0.4-2.5,0.7-3.9,0.8c-1.3,0.1-2.7-0.2-3.9-0.9c-0.4-0.2-0.7-0.4-1-0.7
				c-0.1-0.1-0.2-0.2-0.3-0.3C337.3,453.3,337.7,453.6,338.2,453.8z"/>
			<path class="st30" d="M395,414.2c0,0,0.9,5.3,1.4,6.1c2.2,2.1,4.4,4,6.5,5.8c0,0,2,5.1,2.3,5.8s0.9,0.3,0.7-0.4s-1.6-6.7-2.5-7.7
				c-1-1.1-2.1-2.2-3.1-3.2l-0.7-3.5L395,414.2z"/>
			<path class="st30" d="M369,370.9c3.8,2.2,6.2,3.9,10,6c2.1,1.2,4.8,2.9,6.8,4.3c1.6,1.2,3,2.6,4.1,4.3c1.1,1.7,1.9,3.5,2.6,5.3
				c3,7.9,5.2,16.1,6.6,24.5l-4.6-3.6l-8.3-21.5l-15-9.2l-2.5-9.5c-0.2-0.4-0.1-0.7,0.1-0.7L369,370.9z"/>
			<path class="st27" d="M368.8,381.9c2.8,1.8,4.4,0,3.5-4.1c-0.4-1.6-0.9-3.1-1.7-4.6c-0.6-1.2-1.5-2.5-2.2-2.4
				c-0.2,0.1-0.4,0.3-0.5,0.5C367.1,373.7,367.4,377.5,368.8,381.9z"/>
			<path class="st28" d="M371.1,382.5v0.1c-0.1,0-0.1,0-0.2,0c-0.1,0-0.2-0.1-0.2-0.1c-0.1-0.1-0.2-0.2-0.3-0.3
				c-0.1-0.1-0.2-0.3-0.2-0.5l-0.2-0.5c-0.7-1.7-1.2-3.4-1.4-5.2c-0.3-1.3-0.2-2.7,0.1-4c0.1-0.3,0.3-0.5,0.6-0.5
				c0.1,0,0.2,0,0.3,0.1c-0.1,0-0.2,0-0.3,0c-0.3,0.1-0.4,0.3-0.5,0.6c-0.3,1.3-0.3,2.7,0,4c0.3,1.7,0.7,3.4,1.4,5
				c0.1,0.3,0.2,0.6,0.4,0.9c0.1,0.2,0.2,0.3,0.4,0.4C371,382.5,371.1,382.5,371.1,382.5z"/>
			<path class="st6" d="M386.3,390.3c0-0.1,0-0.3,0-0.4c0-0.4,0-0.7,0-1.1c0-0.5,0.1-0.9,0.2-1.4c0.1-0.4,0.3-0.8,0.6-1.2
				c0.6-0.5,1.3-0.7,2.1-0.5c0.3,0.1,0.5,0.1,0.8,0.3c0.1,0,0.2,0.1,0.3,0.2c-0.3-0.1-0.7-0.2-1-0.2c-0.7-0.2-1.5,0-2.1,0.5
				c-0.3,0.3-0.5,0.7-0.6,1.1c-0.1,0.4-0.2,0.8-0.2,1.3C386.3,389.7,386.3,390.3,386.3,390.3z"/>
			<path class="st6" d="M372,380.2c0,0,3.2,1.7,7.1,3.9s7.2,4.1,7.2,4.3s-3.2-1.7-7.1-4S372,380.3,372,380.2z"/>
			<path class="st6" d="M397.6,414.1c0-0.1,0-0.2-0.1-0.3l-0.2-0.8c-0.2-0.7-0.4-1.7-0.7-3c-0.6-2.5-1.6-6-2.7-9.9
				c-0.6-2-1.2-3.9-1.8-5.6s-1.1-3.3-1.6-4.6c-0.2-0.7-0.5-1.3-0.7-1.8l-0.5-1.4L389,386c-0.1-0.2-0.1-0.3-0.1-0.3l0.1,0.3l0.4,0.9
				c0.1,0.4,0.3,0.8,0.5,1.4s0.5,1.1,0.7,1.8c0.5,1.3,1.1,2.9,1.6,4.6s1.2,3.7,1.8,5.6c1,3.3,1.9,6.6,2.7,9.9
				c0.3,1.3,0.5,2.2,0.7,2.9l0.2,0.8C397.6,413.9,397.6,414,397.6,414.1z"/>
			<path class="st6" d="M383.3,385.7c-0.1,0-0.1,0.1,0,0.3s0,0,0,0s0.2,0.2,0.2,0.1l0,0C383.5,386,383.5,385.9,383.3,385.7
				L383.3,385.7"/>
			<path class="st6" d="M389.7,389.9c-0.1,0-0.1,0.1,0,0.2l0,0.1c0.1,0.1,0.2,0.2,0.2,0.1s0-0.2-0.1-0.3
				C389.8,390,389.7,389.9,389.7,389.9"/>
			<path class="st6" d="M392.6,398c-0.1,0-0.1,0.1,0,0.2l0,0.1c0.1,0.1,0.2,0.2,0.2,0.1l0,0C392.8,398.3,392.7,398.2,392.6,398
				L392.6,398"/>
			<path class="st6" d="M379.6,383.4c-0.1,0-0.1,0.1,0,0.3c0,0,0,0,0,0c0.1,0.1,0.2,0.2,0.2,0.1c0,0,0,0,0,0
				C379.8,383.7,379.7,383.6,379.6,383.4L379.6,383.4"/>
			<path class="st6" d="M375.4,380.9c-0.1-0.1-0.2-0.2-0.2-0.3c0,0,0,0,0-0.1c0-0.1,0.1-0.1,0.1,0c0,0,0.1,0.1,0.1,0.1
				C375.4,380.7,375.5,380.8,375.4,380.9L375.4,380.9"/>
			<path class="st27" d="M399.2,415.5c-1.5-1.4-3-2.7-4.6-3.9c-0.6-0.5-1.3-0.9-1.5-0.4c-0.1,0.6,0.1,1.3,0.4,1.8
				c0.3,0.7,0.8,1.3,1.2,1.9c1.1,1.5,2.5,2.7,4.1,3.7c0.4,0.3,0.8,0.4,1.2,0.4c0.4-0.1,0.5-0.6,0.3-1.3
				C400.2,416.8,399.8,416.1,399.2,415.5"/>
			<path class="st28" d="M393.3,412c0,0,0.4,0.6,1.1,1.5c0.8,1,1.7,2,2.7,2.8c0.7,0.6,1.5,1,2.5,1.3c0.6,0.1,0.8,0,0.9,0.1
				s0,0.1-0.2,0.1c-0.2,0-0.4,0-0.6,0c-1.5-0.1-3.4-1.7-5.2-4.1c-0.3-0.4-0.5-0.8-0.8-1.1C393.5,412.4,393.4,412.2,393.3,412z"/>
			<path class="st7" d="M360.5,454.6c-1.1-0.3-2.2-0.5-3.3-0.5c-1.1,0-2.2,0.6-2.9,1.5c-0.5,1.1-0.7,2.3-0.6,3.4l1.5,31.2
				c-0.1,1.1,0.2,2.2,0.8,3.1c1.2,1.4,3.7,0.9,5-0.5c1.1-1.5,1.7-3.4,1.8-5.3c1-8.6,1.2-17.4,1.4-26c0.1-1.4,0-2.8-0.4-4.2
				c-0.4-1.4-1.6-2.4-3-2.7"/>
			<path class="st7" d="M358.5,405c-6.3,0-6,9-6,9c0.1,11.8,0.9,23.5,2.3,35.2c0,1.6,0.6,3.2,1.8,4.3c1.7,1,3.8,0.6,5.1-0.8
				c1.2-1.5,2-3.2,2.3-5.1c2.7-10.6,4.1-21.5,4.2-32.4C368.3,408.6,364.8,405,358.5,405z"/>
			<g class="st26">
				<path class="st6" d="M363.5,443.1c0.5-3.8,1.2-9,1.9-14.8c0.3-2.9,0.6-5.6,0.9-8.1c0.3-2.2,0.4-4.4,0.4-6.6c0-1.5-0.4-2.9-1-4.2
					l-0.3-0.6c-0.1-0.1-0.2-0.3-0.3-0.4s-0.2-0.4-0.2-0.4s0.1,0.1,0.4,0.3s0.3,0.3,0.4,0.4l0.5,0.6c0.8,1.3,1.3,2.8,1.4,4.4
					c0.2,2.3,0.1,4.5-0.1,6.8c-0.2,2.6-0.5,5.3-0.8,8.2c-0.7,5.8-1.5,11-2.2,14.7c-0.3,2-0.7,4.1-1.4,6
					C362.9,447.1,363.1,445.1,363.5,443.1z"/>
			</g>
			<path class="st6" d="M359.3,453.9l0.1-0.4l0.3-1.4c0.3-1.2,0.6-3,1-5.3c0.8-4.5,1.6-10.7,2.2-17.5c0.3-3.4,0.5-6.7,0.8-9.7
				c0.1-1.5,0.2-2.9,0.3-4.2c0.1-1.2,0.2-2.5,0.1-3.7c0-1-0.2-2-0.5-3c-0.2-0.7-0.6-1.4-1.1-2c-0.4-0.5-0.9-1-1.4-1.3
				c0.2,0.1,0.3,0.2,0.4,0.3c0.4,0.3,0.7,0.6,1,1c0.5,0.6,0.9,1.3,1.1,2c0.3,1,0.5,2,0.6,3c0,1.2,0,2.5-0.1,3.7l-0.3,4.2
				c-0.2,3-0.5,6.3-0.8,9.7c-0.6,6.9-1.4,13.1-2.2,17.6c-0.4,2.2-0.8,4-1.1,5.3l-0.3,1.4L359.3,453.9l0,0.1
				C359.3,454,359.3,453.9,359.3,453.9z"/>
			<path class="st6" d="M360.6,492.4l0.1-1.1c0.1-1,0.2-2.3,0.3-4c0.3-3.4,0.6-8,0.9-13.1s0.4-9.8,0.5-13.1c0.1-1.7,0.1-3,0.1-4
				v-1.5c0,0.1,0,0.3,0,0.4v5.1c0,3.3-0.2,8-0.4,13.1s-0.7,9.8-1,13.1c-0.2,1.7-0.3,3-0.4,4C360.6,491.7,360.6,492,360.6,492.4
				c0,0.1,0,0.2,0,0.3C360.6,492.8,360.6,492.6,360.6,492.4z"/>
			<circle class="st27" cx="359.2" cy="453.8" r="5.5"/>
			<path class="st27" d="M355.1,497.7l0.2-3.3c0-1.1,0.4-2.1,1.3-2.8c1.2-0.7,2.7-0.8,4-0.2c0.8,0.5,1.3,1.2,1.5,2.1
				c0.2,1.4,0.3,2.8,0.3,4.2"/>
			<path class="st7" d="M362.5,498.4c0,0-13.4,0.3-13.5-0.2s5.6-1.6,5.6-1.6l7.7,0.1L362.5,498.4z"/>
			<path class="st6" d="M362,424.4L362,424.4c0.1,0.1,0.1,0.2,0,0.3c0,0,0,0,0,0c-0.1,0-0.1,0-0.2,0c-0.1,0-0.2-0.1-0.1-0.2
				C361.8,424.3,361.9,424.2,362,424.4C362,424.3,362,424.3,362,424.4"/>
			<path class="st6" d="M362.6,416.1L362.6,416.1c0.1,0.1,0.1,0.2,0,0.3h-0.1c-0.1,0-0.2-0.1-0.2-0.2c0,0,0,0,0,0v-0.1
				C362.4,416,362.5,416,362.6,416.1C362.6,416.1,362.6,416.1,362.6,416.1"/>
			<path class="st6" d="M361.4,434.5L361.4,434.5c0.1,0.1,0.1,0.2,0,0.3l0,0c-0.1,0-0.2-0.1-0.2-0.2c0,0,0,0,0,0c0,0,0,0,0-0.1
				C361.2,434.4,361.3,434.4,361.4,434.5"/>
			<path class="st6" d="M360,445.9C360,445.9,360,445.9,360,445.9c0.1,0.1,0.1,0.2,0,0.3c0,0,0,0,0,0c-0.1,0-0.1,0-0.2,0
				c-0.1,0-0.1-0.2-0.1-0.2c0,0,0,0,0,0C359.8,445.9,359.9,445.8,360,445.9C360,445.9,360,445.9,360,445.9"/>
			<path class="st6" d="M361.5,463.3L361.5,463.3c0.1,0.1,0.1,0.2,0,0.3c0,0,0,0,0,0h-0.1c-0.1,0-0.2-0.1-0.2-0.2v-0.1
				C361.3,463.2,361.4,463.2,361.5,463.3"/>
			<path class="st6" d="M360.6,472.2L360.6,472.2c0.1,0.1,0.1,0.2,0,0.3c0,0,0,0,0,0h-0.1c-0.1,0-0.2-0.1-0.2-0.2v0c0,0,0,0,0-0.1
				C360.4,472.1,360.5,472.1,360.6,472.2"/>
			<path class="st6" d="M360.5,482.3L360.5,482.3c0.1,0.1,0.1,0.3,0,0.3h-0.1c-0.1,0-0.2-0.1-0.2-0.2c0,0,0,0,0,0c0,0,0,0,0,0
				C360.3,482.3,360.5,482.2,360.5,482.3C360.6,482.3,360.6,482.3,360.5,482.3"/>
			<path class="st28" d="M355.3,453.7c2.4,1.3,5.3,1.4,7.8,0.2c0.5-0.3,1-0.5,1.4-0.9c-0.1,0.1-0.2,0.2-0.3,0.3
				c-0.3,0.3-0.6,0.5-1,0.7c-1.2,0.7-2.6,1-4,1c-1.4,0-2.7-0.4-3.9-1.2c-0.4-0.2-0.7-0.5-1-0.7c-0.1-0.1-0.2-0.2-0.3-0.3
				C353.9,452.8,354.3,453.2,355.3,453.7z"/>
			<path class="st28" d="M358.9,494.8c1.2,0,2.3,0,3.5-0.2c-0.3,0.1-0.7,0.2-1,0.3c-0.8,0.2-1.7,0.2-2.5,0.2c-0.8,0-1.7-0.2-2.5-0.4
				c-0.4-0.1-0.7-0.2-1-0.4C356.5,494.5,357.7,494.7,358.9,494.8z"/>
			<path class="st6" d="M350.9,349.3c0.1,0.2,0.2,0.5,0.4,0.7c0.2,0.2,0.5,0.4,0.8,0.5c0.3,0.1,0.6,0.1,0.9,0
				c0.2-0.1,0.5-0.2,0.7-0.4c0.2-0.2,0.3-0.4,0.4-0.6c0,0.3-0.1,0.5-0.3,0.7c-0.2,0.2-0.4,0.4-0.7,0.5c-0.3,0.1-0.7,0.2-1,0.1
				c-0.6-0.1-1.1-0.6-1.3-1.3c-0.1-0.2-0.1-0.5,0-0.8C350.8,348.9,350.8,349.1,350.9,349.3z"/>
		</g>
	</g>
</g>
</svg>
