<svg xmlns="http://www.w3.org/2000/svg" viewBox="0 0 153.32 293.68"><defs><style>.cls-1{fill:#272727;}.cls-2{fill:#ccc;}.cls-3{fill:#373737;}.cls-4{fill:#edcd00;}.cls-5{fill:#fff;}.cls-6{fill:#b29000;}.cls-7{fill:#fcecac;}</style></defs><g id="Camada_2" data-name="Camada 2"><g id="Camada_1-2" data-name="Camada 1"><g id="robo_fiscal" data-name="robo fiscal"><polygon class="cls-1" points="153.32 85.92 148.88 88.47 0 2.56 4.43 0 153.32 85.92"/><polygon class="cls-1" points="153.32 101.7 148.88 104.25 148.88 88.47 153.32 85.92 153.32 101.7"/><polygon class="cls-2" points="153.32 291.1 148.88 293.68 148.88 104.25 153.32 101.7 153.32 291.1"/><polygon class="cls-3" points="148.88 88.47 0 2.56 0 18.34 148.88 104.25 148.88 88.47"/><path class="cls-4" d="M131.13,84.59c-.94-.47-1.54-.13-1.6.93a3.54,3.54,0,0,0,1.6,2.76c.93.45,1.51.08,1.55-1A3.4,3.4,0,0,0,131.13,84.59Z"/><path class="cls-4" d="M136.69,87.78c-.94-.47-1.53-.12-1.59.93a3.51,3.51,0,0,0,1.59,2.75c.94.48,1.53.14,1.6-.91A3.46,3.46,0,0,0,136.69,87.78Z"/><ellipse class="cls-4" cx="142.31" cy="92.9" rx="1.31" ry="2.25" transform="translate(-27.39 83.66) rotate(-30.02)"/><polygon class="cls-5" points="0 207.76 148.88 293.68 148.88 104.25 0 18.34 0 207.76"/><polygon class="cls-6" points="129.67 119.89 126.61 121.66 99.23 105.86 102.28 104.08 129.67 119.89"/><polygon class="cls-6" points="129.67 151.34 126.61 153.1 126.61 121.66 129.67 119.89 129.67 151.34"/><polygon class="cls-4" points="126.61 121.66 99.23 105.86 99.23 137.29 126.61 153.1 126.61 121.66"/><polygon class="cls-6" points="86.67 97.17 83.61 98.94 56.23 83.13 59.28 81.36 86.67 97.17"/><polygon class="cls-6" points="86.67 128.61 83.61 130.37 83.61 98.94 86.67 97.17 86.67 128.61"/><polygon class="cls-4" points="83.61 98.94 56.23 83.13 56.23 114.57 83.61 130.37 83.61 98.94"/><polygon class="cls-6" points="42.67 73.45 39.61 75.21 12.23 59.4 15.29 57.64 42.67 73.45"/><polygon class="cls-6" points="42.67 104.89 39.61 106.65 39.61 75.21 42.67 73.45 42.67 104.89"/><polygon class="cls-4" points="39.61 75.21 12.23 59.4 12.23 90.85 39.61 106.65 39.61 75.21"/><polygon class="cls-7" points="54.5 166.23 7.32 138.99 7.32 114.43 54.5 141.67 54.5 166.23"/><polygon class="cls-4" points="10.3 138.92 15.52 141.93 15.52 137.62 10.3 134.6 10.3 138.92"/><polygon class="cls-4" points="17.37 143 22.59 146.02 22.59 137.38 17.37 134.37 17.37 143"/><polygon class="cls-4" points="24.45 147.09 29.66 150.1 29.66 137.82 24.45 134.81 24.45 147.09"/><polygon class="cls-6" points="31.52 151.16 36.74 154.18 36.74 138.27 31.52 135.26 31.52 151.16"/><polygon class="cls-6" points="38.59 155.25 43.8 158.26 43.8 137.62 38.59 134.6 38.59 155.25"/><polygon class="cls-1" points="45.66 138.69 45.66 159.34 50.88 162.35 50.88 141.7 45.66 138.69"/><polygon class="cls-7" points="125.82 271.53 58.58 232.71 58.58 142.03 125.82 180.85 125.82 271.53"/><polygon class="cls-1" points="65.6 156.59 61.53 154.25 61.16 155.96 61.16 158.68 61.53 160.83 65.6 163.17 65.98 161.46 65.98 158.74 65.6 156.59"/><polygon class="cls-6" points="65.6 167.71 61.53 165.37 61.16 167.07 61.16 169.79 61.53 171.93 65.6 174.28 65.98 172.57 65.98 169.85 65.6 167.71"/><polygon class="cls-4" points="65.6 178.83 61.53 176.49 61.16 178.2 61.16 180.91 61.53 183.05 65.6 185.4 65.98 183.69 65.98 180.96 65.6 178.83"/><polygon class="cls-1" points="58.58 232.71 81.94 191.17 90.35 198.5 101.97 182.56 112.36 199.46 125.82 180.85 125.82 196.32 121.99 258.82 58.58 232.71"/><polygon class="cls-6" points="58.58 232.71 70.12 194.03 89.42 214.66 110.06 207.41 118.62 216.68 125.82 196.32 125.82 216.5 120.92 264.37 58.58 232.71"/><polygon class="cls-4" points="58.58 232.71 78.32 211.96 87.25 233.2 102.33 225.83 112.71 238 125.82 216.5 125.82 271.53 58.58 232.71"/></g></g></g></svg>