<svg xmlns="http://www.w3.org/2000/svg" viewBox="0 0 600 497.08"><defs><style>.cls-1{fill:#e2b000;}.cls-2{fill:#fff;}.cls-3{fill:#edcd00;}</style></defs><g id="Camada_2" data-name="Camada 2"><g id="Object"><path class="cls-1" d="M300,32.35V24.14A24.14,24.14,0,0,0,275.86,0H24.14A24.14,24.14,0,0,0,0,24.14V459.45H600v-403a24.14,24.14,0,0,0-24.14-24.14Z"/><rect class="cls-2" x="26.64" y="67.14" width="552.34" height="396.73"/><path class="cls-3" d="M291.44,116.74l-8.9,24.7H24.14A24.14,24.14,0,0,0,0,165.58V472.94a24.14,24.14,0,0,0,24.14,24.14H575.86A24.14,24.14,0,0,0,600,472.94v-348a24.14,24.14,0,0,0-24.14-24.14H314.15A24.16,24.16,0,0,0,291.44,116.74Z"/><path class="cls-1" d="M600,472.94V272.55C433.34,434.65,144.27,478,6.71,489.61a24,24,0,0,0,17.43,7.47H575.86A24.14,24.14,0,0,0,600,472.94Z"/><path class="cls-1" d="M243.65,160.87h-204a19.5,19.5,0,0,0-19.49,19.49v43.18C54.46,200,131.9,170.41,243.65,160.87Z"/></g></g></svg>