<svg xmlns="http://www.w3.org/2000/svg" viewBox="0 0 471.74 491.55"><defs><style>.cls-1{fill:#edcd00;}</style></defs><g id="Camada_2" data-name="Camada 2"><g id="Camada_1-2" data-name="Camada 1"><path class="cls-1" d="M356.78.28C375.25,17.07,394,33.6,412.12,50.72c19.08,18,37.57,36.57,56.49,54.72,2.84,2.73,2.89,5.7,2.89,9q0,102.42,0,204.84,0,86.1.24,172.22H95.59c1.75-1.24.93-3.06.93-4.6.07-15.18-.17-30.36.15-45.53.12-5.34-1.25-7.19-6.9-7.12-24.53.29-49.07.13-73.6.1-11.56,0-16.1-4.28-16.11-15.65q-.09-87-.06-174a16.57,16.57,0,0,1,4.39-11.9c1,.29,1.28-.36,1.51-1.1a29.78,29.78,0,0,1,11-1.67q34.56.07,69.11,0c2.06,0,4.11-.31,6.16-.47,1.25.63,2.44.85,3.44-.44,1.85-1.13,1.13-3,1.13-4.52q.06-110,0-220a26.91,26.91,0,0,0-.36-3.08C98.82-.68,101.88.15,104.71.15Q208.28.08,311.86.12C326.83.12,341.8.23,356.78.28Zm97.4,297.2c0-57.26-.08-114.51.12-171.77,0-5.84-1.26-7.83-7.51-7.76-30.81.34-61.64,0-92.46.31-6.22.07-7.52-1.85-7.46-7.72.3-30.81.05-61.63.29-92.44,0-5.38-1.23-7-6.92-7q-110.26.31-220.54.09c-9.85,0-8.93-1-8.93,9,0,67.46.07,134.92-.14,202.38,0,6,1.6,7.61,7.61,7.6q106.84-.31,213.67-.12c13.77,0,17.57,3.8,17.57,17.35q0,84.33,0,168.65c0,14.44-3.65,18.11-18.08,18.11q-107.14,0-214.29-.07c-4.78,0-6.65,1.05-6.45,6.18.39,9.56.44,19.17,0,28.72-.29,5.83,1.21,7.73,7.41,7.72q164.62-.3,329.25,0c5.42,0,7-1.26,7-6.88C454.09,412.41,454.17,355,454.18,297.48ZM133.46,326c0,16.23.09,32.47-.06,48.7,0,3.85.86,5.64,5.18,5.57,15.61-.26,31.23.09,46.83-.31,18.77-.48,32.21-9.41,38.57-27.28,6.5-18.27,6.4-36.93-.8-54.94-6.56-16.41-19-25.22-37.22-25.08-15.61.12-31.23.14-46.83-.22-4.46-.1-5.79,1.1-5.74,5.49C133.6,294,133.47,310,133.46,326Zm-99.28.63q0,18.11,0,36.21c0,18.25,0,18.14,18.12,17.4,3.59-.14,4.67-1.27,4.61-4.73-.18-9.15.33-18.33-.2-27.46-.36-6.23,1.9-7.84,7.76-7.47a128.52,128.52,0,0,0,18.71-.41c29.09-2.41,39.74-23.75,33.49-46.78C113.26,280.88,103,273.07,90,272.84c-16.85-.3-33.72,0-50.57-.27-4.12-.06-5.37,1.34-5.32,5.39C34.29,294.19,34.18,310.42,34.18,326.65Zm212.62,0v36.82c0,17.29,0,17.16,17.49,16.83,4.13-.07,5.35-1.38,5.27-5.44-.25-11.23.22-22.48-.22-33.7-.21-5.43,1.85-6.8,6.76-6.62,8.31.3,16.65.44,25,.21,17.54-.48,13.51,2.4,14.16-14.69.14-3.75-1.13-5.19-5-5.07-7.07.23-14.16.3-21.22,0-6.35-.29-14.71,3-18.51-1.45-3.61-4.23-.64-12.38-1.08-18.79-.26-3.85,1.21-5,5-4.94,12.69.2,25.38.14,38.07,0,13.07-.11,11.05,1.91,11.42-11.76.11-3.9-.87-5.54-5.16-5.51q-33.39.29-66.79,0c-4.17,0-5.3,1.39-5.25,5.4C246.92,294.18,246.81,310.41,246.8,326.64Z"/><path class="cls-1" d="M159,326.4c0-10.41.14-20.82-.07-31.22-.08-3.92.92-5.73,5.19-5.43,5.81.41,11.66.15,17.47.53,12.49.82,19.75,6.76,22.28,18.88a82.47,82.47,0,0,1-.71,37.14c-2.32,9.31-8.3,14.59-17.62,16.29-7.65,1.39-15.37.64-23.06.87-3.93.11-3.45-2.75-3.45-5.21q0-15.93,0-31.85Z"/><path class="cls-1" d="M71.66,289.62c2.88.22,6.84.31,10.74.84,7.93,1.08,12.93,6.59,13.14,14.16s-4.29,13.39-12.15,15-15.73.75-23.62.89c-3.19.06-2.92-2.26-2.92-4.35,0-7.27.19-14.55-.08-21.81-.16-4,1.44-5.08,5.1-4.77C64.76,289.82,67.68,289.62,71.66,289.62Z"/></g></g></svg>