<svg xmlns="http://www.w3.org/2000/svg" viewBox="0 0 281.02 313.46"><defs><style>.cls-1,.cls-11{fill:#ccc;}.cls-1{opacity:0.4;}.cls-1,.cls-20,.cls-29,.cls-5{isolation:isolate;}.cls-2{fill:#272727;}.cls-3{fill:#373737;}.cls-4{fill:#edcd00;}.cls-17,.cls-18,.cls-19,.cls-5{fill:#fff;}.cls-5{opacity:0.7;}.cls-6,.cls-9{fill:#fafafa;}.cls-7{fill:#e0e0e0;}.cls-8{fill:#f5f5f5;}.cls-9{stroke:#ebebeb;}.cls-18,.cls-19,.cls-9{stroke-miterlimit:10;}.cls-19,.cls-9{stroke-width:0.5px;}.cls-10{fill:#ebebeb;}.cls-12{fill:#b29000;}.cls-13{fill:#95d359;}.cls-14{fill:#c13d1a;}.cls-15{fill:#db5126;}.cls-16{fill:#ef602e;}.cls-18,.cls-19{stroke:#ccc;}.cls-18{stroke-width:0.25px;}.cls-20{opacity:0.2;}.cls-21{fill:#e6e6e6;}.cls-22{fill:#212121;}.cls-23{fill:#383838;}.cls-24{fill:#efe8eb;}.cls-25{fill:#ffad97;}.cls-26{fill:#ffc5b3;}.cls-27,.cls-29{fill:#b59eab;}.cls-28{fill:#eadce1;}.cls-29{opacity:0.5;}.cls-30{fill:#9b8790;}.cls-31{fill:#ddccd3;}</style></defs><g id="Camada_2" data-name="Camada 2"><g id="Camada_1-2" data-name="Camada 1"><g id="Camada_2-2" data-name="Camada 2"><g id="Camada_1-2-2" data-name="Camada 1-2"><g id="Camada_2-2-2" data-name="Camada 2-2"><g id="Camada_1-2-2-2" data-name="Camada 1-2-2"><g id="Camada_2-2-2-2" data-name="Camada 2-2-2"><g id="Camada_1-2-2-2-2" data-name="Camada 1-2-2-2"><g id="Camada_2-2-2-2-2" data-name="Camada 2-2-2-2"><g id="Camada_1-2-2-2-2-2" data-name="Camada 1-2-2-2-2"><g id="Camada_2-2-2-2-2-2" data-name="Camada 2-2-2-2-2"><g id="Camada_1-2-2-2-2-2-2" data-name="Camada 1-2-2-2-2-2"><g id="Camada_2-2-2-2-2-2-2" data-name="Camada 2-2-2-2-2-2"><g id="Camada_1-2-2-2-2-2-2-2" data-name="Camada 1-2-2-2-2-2-2"><g id="Device"><g id="Laptop"><path class="cls-1" d="M173,296.6,62.68,232.91c-3.12-1.8-2.73-5,.88-7l75.11-43.35c3.6-2.08,9.06-2.31,12.18-.51l110.31,63.66c3.12,1.8,2.73,5-.88,7l-75.11,43.35C181.57,298.17,176.11,298.4,173,296.6Z"/><path class="cls-2" d="M252.93,234.29,134.16,165.75a6.84,6.84,0,0,0-6.2,0L60.49,204.67a5.55,5.55,0,0,0-2.42,2.42,5.82,5.82,0,0,0,2.27,7.9h.1l118.77,68.57a6.84,6.84,0,0,0,6.2,0l67.47-38.95a5.82,5.82,0,0,0,0-10.29Z"/><path class="cls-3" d="M59.93,205.07c-1.13,1-.94,2.31.56,3.18l118.79,68.57a6.31,6.31,0,0,0,3.1.74v6.69a6.42,6.42,0,0,1-3.1-.74L60.5,215a6.7,6.7,0,0,1-3.09-5.19A6.6,6.6,0,0,1,59.93,205.07Z"/><path class="cls-3" d="M185.46,276.82l67.48-38.95c1.58-.93,1.7-2.38.31-3.38a5.82,5.82,0,0,1,1.91,8,5.89,5.89,0,0,1-2.21,2.08l-67.47,38.95a6.2,6.2,0,0,1-3.1.74v-6.7A6.48,6.48,0,0,0,185.46,276.82Z"/><path class="cls-3" d="M244.41,236.26l-3.18,1.68a3.45,3.45,0,0,1-3.1,0l-110.3-63.62c-.86-.52-.86-1.3,0-1.79l3.18-1.69a3.45,3.45,0,0,1,3.1,0l110.3,63.65a.92.92,0,0,1,.61,1.15h0A1,1,0,0,1,244.41,236.26Z"/><path class="cls-3" d="M236,241.25l-28.8,16.49a3.23,3.23,0,0,1-2.84-.16L94.2,194c-.85-.49-1-1.22-.26-1.63l28.69-16.55a3.17,3.17,0,0,1,2.83.15l110.25,63.64C236.56,240.11,236.68,240.86,236,241.25Z"/><path class="cls-2" d="M141.57,202.44l3.05-1.76c.12-.07.1-.19-.05-.27l-3.45-2a.51.51,0,0,0-.48,0l-3,1.76c-.12.07-.1.19,0,.28l3.45,2A.62.62,0,0,0,141.57,202.44Zm3.85-6.77-3,1.75c-.12.07-.1.19.05.28l3.45,2a.51.51,0,0,0,.48,0l3-1.75a.16.16,0,0,0,0-.23h0l-3.45-2a.52.52,0,0,0-.54,0Zm11.64,6.44a.53.53,0,0,0-.46,0l-3.07,1.78c-.12.07-.1.19,0,.28l5.88,3.34a.53.53,0,0,0,.49,0l3-1.76c.12-.07.09-.19,0-.28ZM151,198.59a.51.51,0,0,0-.48,0l-3.06,1.75c-.12.07-.09.19,0,.28l3.45,2a.53.53,0,0,0,.49,0l3-1.76c.12-.07.1-.19,0-.28l-3.46-2Zm13,7.81-3,1.76c-.12.07-.1.19,0,.28l3.45,2a.53.53,0,0,0,.49,0l3.05-1.75c.11-.07.09-.2-.05-.28l-3.45-2a.6.6,0,0,0-.49,0Zm5.53,2.92a.53.53,0,0,0-.49,0l-3,1.75c-.12.07-.1.2,0,.28l3.45,2a.57.57,0,0,0,.48,0l3-1.76c.12-.07.1-.2,0-.28l-3.45-2ZM157.23,217l3.05-1.76c.12-.07.09-.19-.06-.28l-3.45-2a.51.51,0,0,0-.48,0l-3,1.76c-.12.07-.1.19,0,.28l3.46,2A.57.57,0,0,0,157.23,217Zm5,3,3-1.76c.12-.07.1-.19,0-.28l-3.45-2.05a.57.57,0,0,0-.48,0l-3,1.76c-.13.07-.11.19,0,.28l3.45,2a.53.53,0,0,0,.52,0Zm4.57,2.85a.51.51,0,0,0,.48,0l3-1.75c.13-.07.11-.2,0-.28l-3.46-2a.57.57,0,0,0-.48,0l-3,1.76c-.12.07-.1.2,0,.28l3.45,2Zm5.52,2.92,3.09-1.77c.12-.07.1-.2,0-.28l-3.45-2a.51.51,0,0,0-.48,0l-3,1.75c-.12.07-.1.19.05.28l3.45,2a.62.62,0,0,0,.5,0Zm-26.22-20.4a.53.53,0,0,0,.46,0l3.05-1.76c.12-.07.1-.2-.05-.28l-3.44-2a.51.51,0,0,0-.48,0l-3,1.76c-.12.07-.11.19,0,.28l3.46,2Zm6,8.77,3-1.76c.12-.07.1-.2,0-.28l-3.19-1.84c-.14-.09-.16-.21,0-.28l4.35-2.51c.12-.07.1-.2,0-.28l-4-2.3a.51.51,0,0,0-.48,0l-7.84,4.52c-.12.07-.1.2.05.28l7.7,4.45a.53.53,0,0,0,.49,0Zm21.92-1.9L171,214c-.12.07-.1.19,0,.28l3.46,2a.51.51,0,0,0,.48,0l3-1.75c.12-.07.09-.19-.06-.28l-3.45-2a.47.47,0,0,0-.4,0Zm5.53,2.92a.51.51,0,0,0-.48,0l-3,1.76c-.12.07-.1.19,0,.28l3.45,2a.51.51,0,0,0,.48,0l3.05-1.76c.12-.07.1-.19-.05-.28Zm31.1,29.26c.12-.07.09-.19,0-.28l-3.45-2a.6.6,0,0,0-.49,0l-3,1.75c-.12.07-.1.19,0,.28l3.46,2a.57.57,0,0,0,.48,0Zm8.77-6-3,1.75c-.12.07-.1.2,0,.28l3.45,2a.6.6,0,0,0,.49,0l3-1.77c.12-.06.09-.19-.05-.27l-3.45-2a.56.56,0,0,0-.36,0Zm-2.66,4c.12-.07.1-.19,0-.28l-3.45-2a.51.51,0,0,0-.48,0l-3,1.75a.14.14,0,0,0-.07.18h0a.13.13,0,0,0,.06.07l3.45,2a.6.6,0,0,0,.49,0Zm-17.09,5a.53.53,0,0,0,.49,0l3-1.76c.12-.07.1-.19,0-.28l-3.45-2a.51.51,0,0,0-.48,0l-3,1.76c-.12.07-.09.19,0,.28l3.45,2Zm8.58,1.16c.12-.07.09-.19,0-.28l-3.45-2a.6.6,0,0,0-.49,0l-3,1.78c-.12.07-.1.19,0,.28l3.46,2a.57.57,0,0,0,.48,0Zm6.13-13-3,1.77c-.12.07-.09.19.06.28l3.45,2a.57.57,0,0,0,.48,0l3-1.79c.12-.07.1-.19,0-.28l-3.45-2a.53.53,0,0,0-.49,0ZM189.22,221l-3.05,1.75c-.12.07-.1.2.05.28l3.45,2a.57.57,0,0,0,.48,0l3-1.76c.12-.07.1-.2,0-.28l-3.45-2A.48.48,0,0,0,189.22,221Zm20.68,11.65a.55.55,0,0,0-.47,0l-3.08,1.79c-.12.07-.1.2.05.28l3.45,2a.57.57,0,0,0,.48,0l3-1.76c.12-.07.1-.19,0-.28l-3.45-2ZM184.67,218a.55.55,0,0,0-.5,0l-3,1.76c-.12.07-.1.2,0,.28l3.46,2a.51.51,0,0,0,.48,0l3-1.76c.12-.07.09-.19-.06-.28l-3.45-2Zm10.09,5.83a.55.55,0,0,0-.5,0l-3,1.76c-.12.07-.1.2.05.28l3.45,2a.51.51,0,0,0,.48,0l3-1.76c.13-.06.11-.19,0-.27l-3.46-2Zm5.05,2.91a.51.51,0,0,0-.48,0l-3,1.76c-.12.07-.1.19,0,.28l3.45,2a.51.51,0,0,0,.48,0l3.05-1.78c.12-.07.1-.2-.05-.28l-3.47-2Zm5,2.92a.52.52,0,0,0-.51,0l-3,1.76c-.12.06-.1.19,0,.27l3.45,2a.57.57,0,0,0,.48,0l3-1.76a.15.15,0,0,0,.07-.2h0a.09.09,0,0,0-.06-.06l-3.46-2Zm-22.88,1.86a.55.55,0,0,0,.47,0l3-1.75c.12-.07.1-.2,0-.28l-3.45-2a.57.57,0,0,0-.48,0l-3.06,1.8c-.12.07-.1.2.05.28l3.46,2ZM134.72,189.2a.48.48,0,0,0-.49,0l-3,1.81c-.11.07-.09.2.05.28l3.45,2a.6.6,0,0,0,.49,0l3-1.77c.11-.06.09-.19,0-.27l-3.47-2Zm6.1,3.52a.55.55,0,0,0-.5,0l-3,1.76c-.13.07-.11.2,0,.28l3.46,2a.57.57,0,0,0,.48,0l3-1.76c.12-.07.1-.19,0-.27l-3.45-2Zm-11.15-6.44a.51.51,0,0,0-.48,0l-3.07,1.78c-.12.07-.1.19,0,.28l3.45,2a.53.53,0,0,0,.49,0l3-1.76c.12-.07.1-.19-.05-.28l-3.45-2ZM157.78,212a.53.53,0,0,0,.46,0l3-1.76c.12-.07.1-.2,0-.28l-3.46-2a.49.49,0,0,0-.47,0l-3.05,1.75c-.12.07-.1.2.05.28l3.45,2Zm-36.7-27c-.13.07-.1.19,0,.28l3.45,2a.57.57,0,0,0,.48,0l3-1.76c.12-.07.1-.19,0-.28l-3.45-2a.6.6,0,0,0-.49,0Zm55.81,43.52a.53.53,0,0,0,.46,0l3-1.76c.13-.07.11-.2,0-.28l-3.46-2a.49.49,0,0,0-.47,0l-3,1.85c-.12.07-.1.2.05.28l3.45,2ZM115,192.85a.55.55,0,0,0,.47,0l3-1.76c.12-.07.09-.19-.06-.28l-3.45-2a.57.57,0,0,0-.48,0l-3,1.76c-.12.07-.1.19,0,.28l3.45,2Zm9.83.18a.53.53,0,0,0,.46,0l3-1.76c.12-.07.1-.19,0-.28l-3.45-2a.51.51,0,0,0-.48,0l-3,1.75a.14.14,0,0,0-.07.18h0a.13.13,0,0,0,.06.07l3.45,2Zm-8.54-5.21c-.12.07-.1.19,0,.28l3.45,2a.51.51,0,0,0,.48,0l3-1.76c.13-.07.11-.2,0-.28l-3.46-2a.51.51,0,0,0-.48,0Zm2-2.38c.12-.05.08-.2,0-.35l-3.45-2a.57.57,0,0,0-.48,0l-7.84,4.52c-.12.07-.09.2,0,.28l3.45,2a.6.6,0,0,0,.49,0l7.83-4.53ZM130,192a.58.58,0,0,0-.48-.06l-3,1.76c-.12.07-.1.2,0,.28l3.45,2a.57.57,0,0,0,.48,0l3-1.76c.13-.07.11-.2,0-.28Zm38,21.92a.53.53,0,0,0-.52,0l-3,1.73c-.12.07-.1.19.05.28l3.45,2a.57.57,0,0,0,.48,0l3-1.76c.12-.07.11-.19,0-.28l-3.45-2ZM123.63,194.1c.12-.06.1-.19,0-.27l-3.46-2a.51.51,0,0,0-.48,0l-3,1.68c-.12.07-.09.19,0,.28l3.45,2a.53.53,0,0,0,.49,0ZM162.41,211l-3,1.75c-.12.07-.1.2.05.28l3.46,2a.55.55,0,0,0,.47,0l3-1.76c.12-.07.1-.19,0-.28l-3.45-2A.51.51,0,0,0,162.41,211Zm43.25,30.48c.12-.06.1-.19,0-.27l-3.44-2a.51.51,0,0,0-.48,0l-3,1.76c-.12.07-.09.2,0,.28l3.45,2a.53.53,0,0,0,.49,0Zm2.15-4.3-3,1.76c-.12.07-.1.2,0,.28l3.45,2a.51.51,0,0,0,.48,0l3-1.75c.12-.07.1-.2,0-.28l-3.45-2a.51.51,0,0,0-.48,0Zm-10.22,3.16,3-1.76c.12-.07.09-.19,0-.28l-3.45-2a.6.6,0,0,0-.49,0l-3,1.76c-.12.07-.1.19,0,.28l3.45,2A.6.6,0,0,0,197.59,240.34Zm-5.53-3a.6.6,0,0,0,.49,0l3-1.76c.12-.07.1-.19,0-.28l-3.45-2a.53.53,0,0,0-.49,0l-3,1.75c-.12.07-.1.2,0,.28l3.45,2Zm-5-2.91a.51.51,0,0,0,.48,0l3-1.75c.12-.07.1-.2,0-.28l-3.45-2a.6.6,0,0,0-.49,0l-3,1.77c-.11.07-.09.19.06.27l3.45,2Zm16.23-.18a.57.57,0,0,0-.48,0L199.72,236c-.11.07-.09.19.05.28l3.45,2a.53.53,0,0,0,.49,0l3-1.73c.12-.07.1-.2-.05-.28l-3.45-2Zm-5-2.92a.53.53,0,0,0-.49,0l-3,1.76c-.12.07-.1.19,0,.28l3.46,2a.57.57,0,0,0,.48,0l3-1.76c.12-.07.09-.19,0-.28ZM178.11,219.7a.53.53,0,0,0-.49,0l-3,1.76c-.12.07-.1.19,0,.28l3.45,2a.51.51,0,0,0,.48,0l3-1.76c.11-.07.09-.19,0-.28l-3.45-2Zm5,2.91a.53.53,0,0,0-.49,0l-3,1.76c-.12.07-.1.19,0,.28l3.45,2a.51.51,0,0,0,.48,0l3-1.76c.12-.07.11-.19,0-.28l-3.45-2ZM173,216.78a.53.53,0,0,0-.46,0l-3.15,1.81c-.12.07-.1.2.05.28l3.45,2a.6.6,0,0,0,.49,0l3-1.77c.12-.07.1-.19,0-.27l-3.45-2Zm20.18,11.66a.51.51,0,0,0-.48,0l-3,1.75c-.12.07-.09.19,0,.28l3.45,2a.53.53,0,0,0,.49,0l3-1.75c.12-.07.1-.2,0-.28l-3.45-2Zm-5-2.91a.53.53,0,0,0-.49,0l-3,1.76c-.12.07-.1.19,0,.28l3.45,2a.57.57,0,0,0,.48,0l3-1.76c.12-.07.09-.19,0-.28l-3.45-2Zm6.59,18.88a.57.57,0,0,0,.48,0l3-1.76c.12-.07.09-.2,0-.28l-3.45-2a.53.53,0,0,0-.49,0l-3,1.75c-.12.07-.1.19,0,.28l3.45,2Zm26.82-1.09,3.5,2a.57.57,0,0,0,.48,0l3-1.76c.12-.07.1-.19,0-.28l-3.45-2a.57.57,0,0,0-.48,0l-3,1.76c-.25.12-.25.24-.13.33Zm-6.67,1.41c-.12.07-.1.19.07.28l5.31,3.07a.6.6,0,0,0,.49,0l3-1.76c.12-.07.1-.2,0-.28l-5.35-3a.57.57,0,0,0-.48,0l-3,1.76Zm11.17-4.91,4.25,2.45a.6.6,0,0,0,.49,0l3-1.76c.12-.07.09-.19,0-.28l-4.25-2.45a.51.51,0,0,0-.48,0l-3,1.76c-.15.11-.13.23,0,.33Zm-.26-4c.12-.07.1-.19,0-.28l-3.45-2a.51.51,0,0,0-.48,0l-3,1.75c-.12.07-.09.2,0,.28l3.45,2a.6.6,0,0,0,.49,0Zm-17,10.86c-.12.07-.09.19,0,.29l6.64,3.81a.53.53,0,0,0,.49,0l3-1.75c.12-.07.09-.2,0-.28L212.25,245a.51.51,0,0,0-.48,0l-3.05,1.76Zm-2.4,4.14a.15.15,0,0,0-.06.2l.06.06,4.25,2.45a.51.51,0,0,0,.48,0l3-1.75c.12-.07.1-.19,0-.28l-4.23-2.5a.51.51,0,0,0-.48,0l-3,1.75Zm-18-36.64c.12-.07.1-.2,0-.28l-3.45-2a.51.51,0,0,0-.48,0l-3.05,1.75c-.11.07-.09.19.05.28l3.45,2a.53.53,0,0,0,.49,0Zm10,6c.11-.07.09-.19,0-.28l-3.43-2a.51.51,0,0,0-.48,0l-3,1.76c-.12.07-.1.19,0,.28l3.45,2a.6.6,0,0,0,.49,0Zm22.4,12.93c.12-.07.09-.2,0-.28l-3.45-2a.53.53,0,0,0-.49,0l-3,1.76c-.12.06-.1.19,0,.27l3.45,2a.57.57,0,0,0,.48,0Zm-27.42-15.86c.12-.07.1-.2,0-.28L190,215a.53.53,0,0,0-.49,0l-3,1.75c-.12.07-.1.2,0,.28l3.46,2a.57.57,0,0,0,.48,0Zm10,5.81c.12-.07.1-.2,0-.28l-3.46-2a.51.51,0,0,0-.48,0l-3,1.77c-.12.07-.1.19,0,.27l3.45,2a.51.51,0,0,0,.48,0Zm-2.91,30c-.12.07-.1.19,0,.28l5.31,3.06a.51.51,0,0,0,.48,0l3-1.76c.12-.07.1-.19,0-.27L204,251.25a.51.51,0,0,0-.48,0Zm10.15-25.85c.11-.06.1-.19,0-.27l-3.45-2a.53.53,0,0,0-.49,0l-3,1.76c-.12.07-.1.2,0,.28l3.45,2a.51.51,0,0,0,.48,0Zm5,2.91c.12-.07.1-.19,0-.28l-3.46-2a.57.57,0,0,0-.48,0l-3.05,1.76c-.12.07-.09.19.05.28l3.45,2a.53.53,0,0,0,.49,0ZM107,199.07c-.12.07-.1.2,0,.28l8.49,4.91a.53.53,0,0,0,.49,0l3-1.75c.12-.07.1-.2,0-.28l-8.49-4.94a.6.6,0,0,0-.49,0Zm11.16,6.45c-.12.07-.1.19,0,.27l3.45,2a.57.57,0,0,0,.48,0l3-1.76c.12-.07.09-.2,0-.28l-3.45-2a.6.6,0,0,0-.49,0Zm72,36,3-1.77c.12-.07.1-.19,0-.27l-3.46-2a.57.57,0,0,0-.48,0l-3,1.76c-.12.07-.09.2,0,.28l3.45,2a.64.64,0,0,0,.47,0Zm-61.88-30.17c-.12.07-.1.19,0,.28l3.46,2a.57.57,0,0,0,.48,0l3-1.76c.12-.07.09-.2,0-.28l-3.45-2a.53.53,0,0,0-.49,0ZM102,196.2c-.12.07-.1.19,0,.28l3.45,2a.51.51,0,0,0,.48,0l3-1.76c.12-.07.1-.2,0-.28l-3.45-2a.53.53,0,0,0-.49,0Zm-5-2.95c-.11.07-.09.2.07.28l3.45,2a.53.53,0,0,0,.49,0l7.83-4.52c.12-.07.1-.2,0-.28l-3.45-2a.51.51,0,0,0-.48,0Zm50.19,29c-.12.07-.1.19,0,.28l4.27,2.48a.57.57,0,0,0,.48,0l3-1.76c.12-.07.09-.19,0-.28l-4.25-2.45a.57.57,0,0,0-.48,0Zm-12.73-7.32c-.12.07-.09.19,0,.28l5.31,3.07a.6.6,0,0,0,.49,0l3-1.77c.12-.06.1-.19,0-.27L138,213.13a.57.57,0,0,0-.48,0ZM158.82,229c-.12.07-.1.2.05.28l28.41,16.4a.51.51,0,0,0,.48,0l3-1.76c.12-.06.11-.19,0-.27l-28.42-16.41a.51.51,0,0,0-.48,0Zm30,17.3c-.12.07-.1.2.05.28l4.25,2.45a.57.57,0,0,0,.48,0l3.05-1.76c.12-.07.1-.19-.05-.28l-4.25-2.45a.51.51,0,0,0-.48,0ZM153,225.67c-.12.07-.09.19.05.27l4.25,2.46a.57.57,0,0,0,.48,0l3-1.76c.12-.07.1-.19,0-.28l-4.24-2.45a.6.6,0,0,0-.49,0Zm41.69,24.06c-.12.07-.1.19.05.28l4.25,2.45a.49.49,0,0,0,.47,0l3-1.75c.12-.07.1-.19,0-.28L198.22,248a.57.57,0,0,0-.48,0Zm-53.37-30.84c-.12.07-.1.19.05.28l4.25,2.45a.51.51,0,0,0,.48,0l3.05-1.75c.12-.07.1-.19-.05-.28l-4.25-2.45a.51.51,0,0,0-.48,0Zm-18.06-10.45c-.12.07-.09.2.06.28l3.45,2a.57.57,0,0,0,.48,0l3-1.77c.12-.07.1-.19,0-.27l-3.45-2a.6.6,0,0,0-.49,0Zm-7.91-9.8a.6.6,0,0,0,.49,0l3-1.76c.12-.07.09-.2,0-.28l-3.46-2a.51.51,0,0,0-.48,0l-3,1.75c-.12.07-.1.19,0,.28l3.45,2Zm20.72.91a.6.6,0,0,0,.49,0l3-1.75c.12-.07.1-.2,0-.28l-3.45-2a.57.57,0,0,0-.48,0l-3,1.75c-.12.07-.1.19,0,.28l3.45,2Zm13.26,18.71a.51.51,0,0,0,.48,0l3-1.76c.12-.07.1-.2,0-.28l-10.07-5.87a.53.53,0,0,0-.49,0l-3,1.76c-.12.07-.1.2,0,.28l10.09,5.82Zm-25.4-18.42c.12-.07.1-.2,0-.28l-3.45-2a.51.51,0,0,0-.48,0l-3,1.75a.14.14,0,0,0-.07.18h0a.13.13,0,0,0,.06.07l3.45,2a.51.51,0,0,0,.48,0Zm1.25-1.05a.58.58,0,0,0,.45,0l3.05-1.76c.12-.07.09-.19-.06-.28l-3.4-2a.57.57,0,0,0-.48,0l-3,1.76c-.12.07-.1.2,0,.28l3.45,2Zm29.68,22.36,3-1.76c.12-.07.1-.19,0-.28l-3.46-2a.51.51,0,0,0-.48,0l-3,1.75c-.12.07-.1.2.05.28l3.45,2a.66.66,0,0,0,.44,0ZM135,206.24c.12-.07.1-.2,0-.28l-3.42-2a.57.57,0,0,0-.48,0l-3,1.76c-.13.07-.11.19,0,.28l3.45,2a.57.57,0,0,0,.48,0Zm44.56,29.48a.6.6,0,0,0,.49,0l3-1.76c.12-.07.1-.19-.05-.28l-3.45-2a.57.57,0,0,0-.48,0L176,233.44c-.12.07-.1.2.05.28l3.45,2Zm-5-2.92a.51.51,0,0,0,.48,0l3-1.76a.15.15,0,0,0,.07-.2h0a.09.09,0,0,0-.06-.06l-3.45-2a.51.51,0,0,0-.48,0l-3,1.74c-.12.06-.1.19,0,.27l3.45,2Zm10.56,5.83,3-1.76c.12-.07.1-.19,0-.28l-3.45-2a.57.57,0,0,0-.48,0l-3,1.76c-.13.07-.11.19,0,.28l3.45,2a.49.49,0,0,0,.44,0ZM164.41,227a.57.57,0,0,0,.48,0l3-1.76c.13-.07.11-.19,0-.27l-3.46-2a.51.51,0,0,0-.48,0l-3,1.75c-.12.07-.09.2,0,.28l3.45,2Zm5.05,2.91a.55.55,0,0,0,.47,0l3-1.75c.12-.07.09-.2-.06-.29l-3.45-2a.57.57,0,0,0-.48,0l-3,1.76c-.12.07-.1.19,0,.28l3.46,2Zm-10.05-5.85a.57.57,0,0,0,.48,0l3-1.76c.12-.07.09-.2,0-.28l-3.48-2a.53.53,0,0,0-.49,0l-3,1.76c-.12.07-.1.19,0,.28l3.45,2ZM132.34,183.3c.12-.07.1-.19,0-.28l-3.45-2a.6.6,0,0,0-.49,0l-.8.47c-.13.07-.1.19,0,.28l3.45,2a.51.51,0,0,0,.48,0Zm27.41,14.54a.16.16,0,0,0,0-.23h0l-3.45-2a.53.53,0,0,0-.49,0l-3.05,1.76c-.11.07-.09.2.05.28l3.45,2a.6.6,0,0,0,.49,0ZM149.64,192c.13-.07.11-.2,0-.28l-3.46-1.95a.51.51,0,0,0-.48,0l-3,1.75c-.12.07-.09.2,0,.28l3.45,2a.6.6,0,0,0,.49,0Zm16.25,9.35c.12-.06.1-.19,0-.27l-3.45-2a.51.51,0,0,0-.48,0l-3.05,1.75c-.12.07-.09.2.05.28l3.45,2a.6.6,0,0,0,.49,0Zm-11.2-6.43c.12-.07.09-.19-.05-.28l-3.45-2a.53.53,0,0,0-.49,0l-3,1.75c-.12.07-.1.2,0,.28l3.46,2a.51.51,0,0,0,.48,0ZM176,207.19c.12-.07.1-.19,0-.28l-3.45-2a.57.57,0,0,0-.48,0L169,206.67c-.11.07-.09.2.05.28l3.45,2a.53.53,0,0,0,.49,0Zm-5-2.88c.12-.07.09-.19,0-.28l-3.52-2a.53.53,0,0,0-.49,0l-3,1.75c-.12.07-.1.2,0,.28l3.46,2a.57.57,0,0,0,.48,0Zm-28.57-15.19a.15.15,0,0,0,.07-.2h0a.09.09,0,0,0-.06-.06l-3.45-2a.57.57,0,0,0-.48,0l-.82.47c-.12.07-.09.19,0,.28l3.45,2a.53.53,0,0,0,.49,0Zm-15.13-8.74c.12-.07.1-.19,0-.28l-3.45-2a.51.51,0,0,0-.48,0l-.81.46c-.12.07-.1.2,0,.28l3.45,2a.6.6,0,0,0,.49,0Zm-4.13,2.37c.12-.07.1-.2,0-.28l-3.45-2a.51.51,0,0,0-.48,0l-3,1.76c-.12.06-.1.19,0,.27l3.46,2a.49.49,0,0,0,.47,0ZM110.29,195.7a.55.55,0,0,0,.5,0l3.06-1.77c.12-.07.1-.19,0-.28l-3.45-2a.51.51,0,0,0-.48,0l-3,1.75c-.12.07-.1.2,0,.28l3.45,2Zm27.14-9.49c.13-.07.1-.19,0-.28l-3.45-2a.57.57,0,0,0-.48,0l-.81.48c-.12.06-.1.19,0,.27l3.45,2a.51.51,0,0,0,.48,0Zm43.66,23.9c.12-.07.1-.19,0-.28l-3.45-2a.6.6,0,0,0-.49,0l-3,1.76c-.12.07-.1.2,0,.28l3.45,2a.53.53,0,0,0,.49,0Z"/><polygon class="cls-3" points="128.41 218.22 108.9 229.48 109.59 229.87 143.03 249.17 161.83 238.32 162.54 237.91 128.41 218.22"/><polygon class="cls-3" points="143.03 249.17 161.52 238.5 128.41 219.38 109.91 230.05 143.03 249.17"/><path class="cls-2" d="M252.93,234.29,134.16,165.72a6.83,6.83,0,0,1-3.1-5.37V67.16c0-2,1-2.79,2.63-3.7s3.18-1.62,4.89-.63l118.77,68.55a6.82,6.82,0,0,1,3.1,5.39V230c0,2,0,3.39-1.51,4.45S255.52,236,252.93,234.29Z"/><path class="cls-3" d="M256,232.5V139.3a6.37,6.37,0,0,0-.91-3l4.46-2.54a6.48,6.48,0,0,1,.9,3v93.17c0,2,0,3.4-1.51,4.46s-3.42,1.63-6-.11C254.63,235.28,256,234.49,256,232.5Z"/><path class="cls-3" d="M252.93,134,134.16,65.39c-1.71-1-3.1-.18-3.1,1.79v93.2a6.83,6.83,0,0,0,3.1,5.37l118.77,68.54c1.71,1,3.1.19,3.1-1.79V139.34A6.87,6.87,0,0,0,252.93,134Z"/><path class="cls-3" d="M253.13,140.76v84.91c0,1.18-.84,1.66-1.86,1.07l-114.52-66.1a4.11,4.11,0,0,1-1.86-3.22V72.52c0-1.19.83-1.67,1.86-1.07l114.52,66.09A4.16,4.16,0,0,1,253.13,140.76Z"/><path class="cls-4" d="M137.41,71.83v84.33a4.11,4.11,0,0,0,1.86,3.22l113.86,65.73V140.76a4.16,4.16,0,0,0-1.86-3.22Z"/><path class="cls-5" d="M137.41,71.83v84.33a4.11,4.11,0,0,0,1.86,3.22l113.86,65.73V140.76a4.16,4.16,0,0,0-1.86-3.22Z"/><g id="Window"><path class="cls-6" d="M244.6,214.39a1.77,1.77,0,0,1-.84-.27L144.51,156.8a4.5,4.5,0,0,1-2-3.53V87.93l103.08,59.5v65.65c0,.79-.36,1.27-1,1.27Z"/><path class="cls-7" d="M142.73,88.38l102.56,59.2v65.49c0,.32-.06,1.05-.69,1.05a1.4,1.4,0,0,1-.72-.23L144.64,156.6a4.23,4.23,0,0,1-1.91-3.32V88.36m-.51-.87v65.78a4.78,4.78,0,0,0,2.19,3.74l99.24,57.29a2.08,2.08,0,0,0,1,.3c.7,0,1.19-.57,1.19-1.55V147.29L142.22,87.51Z"/><polygon class="cls-4" points="142.22 87.49 142.22 96.87 245.79 156.66 245.79 147.29 142.22 87.49"/><path class="cls-6" d="M180.15,112.32,148.33,93.93v3.52l31.82,18.39a.41.41,0,0,0,.56-.07.39.39,0,0,0,.08-.31v-2A1.42,1.42,0,0,0,180.15,112.32Z"/><path class="cls-2" d="M148.33,93.93v3.52l-3.43-2a1.41,1.41,0,0,1-.63-1.12v-2c0-.41.28-.58.63-.37Z"/><path class="cls-6" d="M145.12,94.7h0a.13.13,0,0,0-.12.14h0a.15.15,0,0,0,.16.12h0l.38-.12a1.67,1.67,0,0,0,.64.82.62.62,0,0,0,.32.09.48.48,0,0,0,.23-.07.84.84,0,0,0,.35-.8,1.92,1.92,0,0,0-.67-1.59.56.56,0,0,0-.56,0,.92.92,0,0,0-.35.82,2.05,2.05,0,0,0,.06.49l-.38.11Zm1.26.76a1.67,1.67,0,0,1-.65-1.39.65.65,0,0,1,.21-.57h.1a.27.27,0,0,1,.17.06,1.66,1.66,0,0,1,.63,1.34.63.63,0,0,1-.21.56.24.24,0,0,1-.26,0Z"/><path class="cls-3" d="M245.79,147.29,142.22,87.54V83c0-1.4,1-2,2.17-1.27L243.63,139a4.77,4.77,0,0,1,2.16,3.75Z"/><path class="cls-4" d="M153.41,90.41a2.23,2.23,0,0,0,1,1.77c.56.32,1,0,1-.59a2.21,2.21,0,0,0-1-1.76C153.85,89.5,153.41,89.77,153.41,90.41Z"/><path class="cls-4" d="M149.85,88.37a2.28,2.28,0,0,0,1,1.76c.56.32,1,0,1-.59a2.25,2.25,0,0,0-1-1.75C150.29,87.45,149.84,87.72,149.85,88.37Z"/><ellipse class="cls-4" cx="147.3" cy="86.91" rx="0.83" ry="1.44" transform="translate(-23.72 85.26) rotate(-29.99)"/><path class="cls-8" d="M244.6,214.39a1.77,1.77,0,0,1-.84-.27l-18-10.42V145.38l19.81,11.46v56.24c0,.79-.36,1.27-.95,1.27Z"/><path class="cls-7" d="M226,145.8,245.31,157v56.11c0,.31-.06,1-.69,1a1.69,1.69,0,0,1-.72-.23L226,203.5V145.8m-.5,58,18.15,10.48a2.08,2.08,0,0,0,1,.3c.7,0,1.19-.57,1.19-1.55v-56.4L225.53,144.9Z"/><path class="cls-7" d="M239.69,158.6v.84c0,.41-.28.59-.64.38l-9.72-5.62a1.45,1.45,0,0,1-.63-1.13v-.84c0-.42.28-.58.63-.37l9.72,5.61A1.43,1.43,0,0,1,239.69,158.6Z"/><path class="cls-4" d="M242.41,159.38l.73.42a1.43,1.43,0,0,1,.64,1.13v.85c0,.41-.28.58-.64.37l-.73-.42a1.43,1.43,0,0,1-.64-1.13v-.84C241.73,159.34,242,159.17,242.41,159.38Z"/><path class="cls-7" d="M239.69,163.26v.84c0,.42-.28.59-.64.38l-9.72-5.62a1.45,1.45,0,0,1-.63-1.13v-.84c0-.42.28-.58.63-.37l9.72,5.61A1.43,1.43,0,0,1,239.69,163.26Z"/><path class="cls-4" d="M242.41,164l.73.43a1.42,1.42,0,0,1,.64,1.12v.85c0,.41-.28.58-.64.37l-.73-.42a1.42,1.42,0,0,1-.64-1.12v-.85C241.73,164,242,163.84,242.41,164Z"/><path class="cls-7" d="M239.69,167.93v.85c0,.41-.28.58-.64.37l-9.72-5.62a1.41,1.41,0,0,1-.63-1.12v-.84c0-.42.28-.59.63-.38l9.72,5.61A1.43,1.43,0,0,1,239.69,167.93Z"/><path class="cls-4" d="M242.41,168.73l.73.42a1.42,1.42,0,0,1,.64,1.12v.85c0,.41-.28.58-.64.38l-.73-.43a1.42,1.42,0,0,1-.64-1.12v-.85C241.73,168.69,242,168.52,242.41,168.73Z"/><path class="cls-7" d="M239.69,183.42v.85c0,.42-.28.58-.64.38L229.33,179a1.41,1.41,0,0,1-.63-1.12V177c0-.41.28-.59.63-.38l9.72,5.62A1.48,1.48,0,0,1,239.69,183.42Z"/><path class="cls-4" d="M242.41,184.22l.73.43a1.41,1.41,0,0,1,.64,1.12v.84c0,.42-.28.58-.64.38l-.73-.42a1.43,1.43,0,0,1-.64-1.13v-.84C241.73,184.21,242,184,242.41,184.22Z"/><path class="cls-7" d="M239.69,187.56v.85c0,.41-.28.58-.64.37l-9.72-5.62a1.41,1.41,0,0,1-.63-1.12v-.84c0-.42.28-.59.63-.38l9.72,5.62A1.41,1.41,0,0,1,239.69,187.56Z"/><path class="cls-4" d="M242.41,188.39l.73.43a1.41,1.41,0,0,1,.64,1.12v.81c0,.42-.28.59-.64.38l-.73-.42a1.43,1.43,0,0,1-.64-1.13v-.85C241.73,188.32,242,188.15,242.41,188.39Z"/><path class="cls-7" d="M239.69,191.7v.85c0,.41-.28.58-.64.37l-9.72-5.61a1.45,1.45,0,0,1-.63-1.13v-.85c0-.41.28-.57.63-.37l9.72,5.61A1.43,1.43,0,0,1,239.69,191.7Z"/><path class="cls-4" d="M242.41,192.5l.73.42a1.43,1.43,0,0,1,.64,1.13v.84c0,.41-.28.58-.64.37l-.73-.42a1.42,1.42,0,0,1-.64-1.12v-.85C241.73,192.48,242,192.29,242.41,192.5Z"/><polygon class="cls-4" points="238.44 171.9 239.7 173.36 239.7 171.9 238.44 171.9"/><path class="cls-7" d="M237.24,170.84l-8.12-4.66a.28.28,0,0,0-.38,0,.26.26,0,0,0-.06.21,1,1,0,0,0,.44.75l8.12,4.68a.3.3,0,0,0,.38,0,.34.34,0,0,0,0-.2A1,1,0,0,0,237.24,170.84Z"/><polygon class="cls-4" points="238.44 174.25 239.7 175.71 239.7 174.25 238.44 174.25"/><path class="cls-7" d="M237.24,173.21l-8.12-4.69a.28.28,0,0,0-.38,0,.29.29,0,0,0-.06.22,1,1,0,0,0,.44.75l8.12,4.67a.27.27,0,0,0,.38-.06h0a.28.28,0,0,0,0-.18A1,1,0,0,0,237.24,173.21Z"/><polygon class="cls-4" points="238.44 176.6 239.7 178.05 239.7 176.6 238.44 176.6"/><path class="cls-7" d="M237.24,175.55l-8.12-4.68a.28.28,0,0,0-.38,0,.26.26,0,0,0-.06.21,1,1,0,0,0,.44.75l8.12,4.67a.26.26,0,0,0,.43-.23A1,1,0,0,0,237.24,175.55Z"/><polygon class="cls-4" points="238.44 178.94 239.7 180.39 239.7 178.94 238.44 178.94"/><path class="cls-7" d="M237.24,177.9l-8.12-4.69a.28.28,0,0,0-.38,0,.29.29,0,0,0-.06.22.94.94,0,0,0,.44.74l8.12,4.68a.27.27,0,0,0,.38-.06h0a.28.28,0,0,0,0-.18A1,1,0,0,0,237.24,177.9Z"/><path class="cls-4" d="M218.58,147.47l-4-2.33a.49.49,0,0,0-.69.05.47.47,0,0,0-.11.41v.32c0,.52-.36.72-.8.46l-7.8-4.5a.5.5,0,0,0-.7.09.51.51,0,0,0-.1.38v10a1.76,1.76,0,0,0,.82,1.4l13.43,7.76c.44.26.8.05.8-.46V148.86A1.78,1.78,0,0,0,218.58,147.47Z"/><path class="cls-7" d="M216.15,162.34l-10.08-5.82c-.36-.19-.63,0-.63.35v.78a1.38,1.38,0,0,0,.63,1l10.08,5.81a.37.37,0,0,0,.52,0,.36.36,0,0,0,.08-.3v-.78A1.33,1.33,0,0,0,216.15,162.34Z"/><path class="cls-4" d="M199.89,136.74l-4-2.33a.48.48,0,0,0-.68,0h0a.46.46,0,0,0-.11.4v.31c0,.52-.35.72-.8.47l-7.8-4.5a.5.5,0,0,0-.8.46v10a1.83,1.83,0,0,0,.8,1.39l13.44,7.75a.49.49,0,0,0,.69-.06.46.46,0,0,0,.11-.4V138.14A1.79,1.79,0,0,0,199.89,136.74Z"/><path class="cls-7" d="M197.47,151.62l-10.06-5.82a.37.37,0,0,0-.52,0,.34.34,0,0,0-.08.29v.79a1.36,1.36,0,0,0,.6,1l10,5.86c.37.19.63,0,.63-.35v-.79A1.26,1.26,0,0,0,197.47,151.62Z"/><path class="cls-4" d="M218.59,172l-4-2.33a.49.49,0,0,0-.69.05.47.47,0,0,0-.11.41v.32c0,.51-.36.71-.8.46l-7.79-4.5a.49.49,0,0,0-.69.05.47.47,0,0,0-.11.41v10a1.71,1.71,0,0,0,.8,1.39L218.63,186a.5.5,0,0,0,.7-.09.52.52,0,0,0,.1-.38V173.39A1.77,1.77,0,0,0,218.59,172Z"/><path class="cls-7" d="M216.15,186.89l-10.08-5.82c-.36-.19-.63,0-.63.34v.79a1.32,1.32,0,0,0,.63,1l10.08,5.8a.37.37,0,0,0,.52,0,.36.36,0,0,0,.08-.3v-.78A1.32,1.32,0,0,0,216.15,186.89Z"/><path class="cls-4" d="M199.89,161.29l-4-2.3a.48.48,0,0,0-.68,0h0a.5.5,0,0,0-.11.39v.32c0,.52-.35.72-.8.47l-7.8-4.5c-.43-.26-.8-.06-.8.46v10a1.79,1.79,0,0,0,.8,1.39l13.44,7.76a.5.5,0,0,0,.8-.46v-12.2A1.76,1.76,0,0,0,199.89,161.29Z"/><path class="cls-7" d="M197.41,176.17l-10-5.82a.37.37,0,0,0-.52.05.34.34,0,0,0-.08.29v.79a1.32,1.32,0,0,0,.6,1l10,5.86c.37.19.63,0,.63-.35v-.78A1.31,1.31,0,0,0,197.41,176.17Z"/><path class="cls-4" d="M181,125.46l-4-2.33a.49.49,0,0,0-.69.05.47.47,0,0,0-.11.41v.32c0,.51-.36.72-.81.46l-7.79-4.53a.48.48,0,0,0-.68,0h0a.46.46,0,0,0-.11.4v10a1.76,1.76,0,0,0,.81,1.39l13.4,7.76a.5.5,0,0,0,.7-.07.52.52,0,0,0,.11-.4v-12.1A1.78,1.78,0,0,0,181,125.46Z"/><path class="cls-7" d="M178.79,140.92l-10.09-5.85a.36.36,0,0,0-.49,0h0a.37.37,0,0,0-.09.32v.78a1.33,1.33,0,0,0,.61,1L178.79,143a.37.37,0,0,0,.52,0,.36.36,0,0,0,.08-.3v-.78A1.29,1.29,0,0,0,178.79,140.92Z"/><path class="cls-4" d="M162.55,115.27l-4-2.33a.5.5,0,0,0-.7.09.51.51,0,0,0-.1.38v.31c0,.51-.37.72-.81.47l-7.79-4.48a.48.48,0,0,0-.68,0h0a.5.5,0,0,0-.11.39v10a1.81,1.81,0,0,0,.81,1.38l13.43,7.76a.5.5,0,0,0,.81-.46v-12.1A1.79,1.79,0,0,0,162.55,115.27Z"/><path class="cls-7" d="M160.08,130.16,150,124.34a.37.37,0,0,0-.52,0,.36.36,0,0,0-.08.3v.81a1.36,1.36,0,0,0,.6,1l10.08,5.82c.37.19.63,0,.63-.35v-.81A1.27,1.27,0,0,0,160.08,130.16Z"/><path class="cls-7" d="M178.77,165.42l-10.07-5.81a.37.37,0,0,0-.52.06h0a.4.4,0,0,0-.08.28v.78a1.33,1.33,0,0,0,.61,1l10.09,5.81a.37.37,0,0,0,.52-.06h0a.4.4,0,0,0,.08-.28v-.78A1.38,1.38,0,0,0,178.77,165.42Z"/><path class="cls-9" d="M180,150.8v12.09c0,.55-.38.78-.86.5l-10.45-6a1.92,1.92,0,0,1-.87-1.49V143.8c0-.55.38-.77.87-.5l10.44,6A1.91,1.91,0,0,1,180,150.8Z"/><path class="cls-4" d="M166.56,145.38v2.7a1.9,1.9,0,0,0,.86,1.5l2.33,1.34c.49.28.87.05.87-.49v-2.7a1.91,1.91,0,0,0-.87-1.5l-2.34-1.34C167,144.62,166.59,144.84,166.56,145.38Z"/><path class="cls-10" d="M178.78,151.32v.18a.27.27,0,0,1-.25.29h0a.28.28,0,0,1-.18,0l-5.24-3a.92.92,0,0,1-.44-.75v-.16a.27.27,0,0,1,.22-.31.29.29,0,0,1,.22.06l5.23,3A1,1,0,0,1,178.78,151.32Z"/><path class="cls-10" d="M178.78,153.69v.17a.27.27,0,0,1-.22.3h0a.34.34,0,0,1-.2,0l-5.24-3a1,1,0,0,1-.44-.76v-.16a.27.27,0,0,1,.22-.31.29.29,0,0,1,.22.06l5.23,3A1,1,0,0,1,178.78,153.69Z"/><path class="cls-10" d="M178.78,156v.18a.27.27,0,0,1-.25.29h0a.28.28,0,0,1-.18,0l-5.24-3a1,1,0,0,1-.44-.75v-.17a.27.27,0,0,1,.22-.31.29.29,0,0,1,.22.06l5.23,3A1,1,0,0,1,178.78,156Z"/><path class="cls-10" d="M178.78,158.36v.18a.27.27,0,0,1-.22.3h0a.29.29,0,0,1-.2-.05l-8.71-5a1,1,0,0,1-.43-.75v-.16a.26.26,0,0,1,.21-.3h0a.34.34,0,0,1,.2,0l8.7,5A.9.9,0,0,1,178.78,158.36Z"/><path class="cls-10" d="M178.78,160.69v.17a.27.27,0,0,1-.22.3h0a.34.34,0,0,1-.2,0l-8.71-5a1,1,0,0,1-.43-.75v-.16a.26.26,0,0,1,.21-.3h0a.34.34,0,0,1,.2,0l8.7,5A1,1,0,0,1,178.78,160.69Z"/><path class="cls-7" d="M160.52,154.88l-10.11-5.82c-.33-.2-.59,0-.59.34v.78a1.37,1.37,0,0,0,.59,1L160.52,157a.37.37,0,0,0,.52,0,.36.36,0,0,0,.08-.3v-.79A1.32,1.32,0,0,0,160.52,154.88Z"/><path class="cls-9" d="M161.73,140.24v12.1c0,.55-.39.77-.87.5l-10.45-6a2,2,0,0,1-.87-1.5V133.21c0-.56.39-.78.87-.5l10.45,6A1.94,1.94,0,0,1,161.73,140.24Z"/><path class="cls-4" d="M148.31,134.84v2.69a2,2,0,0,0,.87,1.5l2.33,1.35a.54.54,0,0,0,.76-.09h0a.57.57,0,0,0,.11-.42v-2.69a2,2,0,0,0-.87-1.5l-2.33-1.34C148.7,134.06,148.33,134.28,148.31,134.84Z"/><path class="cls-10" d="M160.5,140.8v.2a.27.27,0,0,1-.22.31.29.29,0,0,1-.22-.06l-5.23-3a.94.94,0,0,1-.43-.75v-.17a.26.26,0,0,1,.21-.3h0a.29.29,0,0,1,.2.05l5.23,3A1,1,0,0,1,160.5,140.8Z"/><path class="cls-10" d="M160.5,143.14v.17a.27.27,0,0,1-.22.31.29.29,0,0,1-.22-.06l-5.23-3a.91.91,0,0,1-.43-.75v-.17a.28.28,0,0,1,.21-.31.26.26,0,0,1,.22.07l5.23,3A.94.94,0,0,1,160.5,143.14Z"/><path class="cls-10" d="M160.5,145.49v.18c0,.24-.19.38-.44.24l-5.23-3a1,1,0,0,1-.43-.75V142a.26.26,0,0,1,.21-.3h0a.34.34,0,0,1,.2,0l5.23,3A1,1,0,0,1,160.5,145.49Z"/><path class="cls-10" d="M160.5,147.82V148c0,.24-.19.38-.44.24l-8.69-5a.94.94,0,0,1-.44-.74v-.17a.27.27,0,0,1,.22-.31.29.29,0,0,1,.22.06l8.69,5A1,1,0,0,1,160.5,147.82Z"/><path class="cls-10" d="M160.5,150.17v.17a.27.27,0,0,1-.22.31.29.29,0,0,1-.22-.06l-8.69-5a.94.94,0,0,1-.44-.74v-.17a.27.27,0,0,1,.22-.31.29.29,0,0,1,.22.06l8.69,5A1,1,0,0,1,160.5,150.17Z"/></g></g></g><g id="Camada_2-2-2-2-2-2-2-2" data-name="Camada 2-2-2-2-2-2-2"><g id="Ñëîé_1" data-name="Ñëîé 1"><polygon class="cls-11" points="108.64 139.29 123.25 130.86 108.64 122.43 94.04 130.86 94.04 130.86 79.43 139.29 94.04 147.73 94.04 147.73 108.64 156.16 123.25 147.73 108.64 139.29 108.64 139.29"/><polygon class="cls-4" points="108.64 118.29 108.64 56.45 123.25 48.01 123.25 109.86 108.64 118.29"/><polygon class="cls-4" points="108.64 56.45 94.04 48.01 94.04 109.86 108.64 118.29 108.64 56.45"/><polygon class="cls-12" points="123.25 48.01 108.64 39.58 94.04 48.01 108.64 56.45 123.25 48.01"/><polygon class="cls-13" points="123.25 121.1 108.64 112.67 108.64 118.29 123.25 126.72 123.25 121.1"/><polygon class="cls-14" points="94.04 126.72 94.04 81.75 108.64 73.31 108.64 118.29 94.04 126.72"/><polygon class="cls-15" points="94.04 81.75 79.43 73.31 79.43 118.29 94.04 126.72 94.04 81.75"/><polygon class="cls-16" points="108.64 73.31 94.04 64.88 79.43 73.31 94.04 81.75 108.64 73.31"/><polygon class="cls-4" points="94.04 126.72 94.04 81.75 108.64 73.31 108.64 118.29 94.04 126.72"/><polygon class="cls-4" points="94.04 81.75 79.43 73.31 79.43 118.29 94.04 126.72 94.04 81.75"/><polygon class="cls-12" points="108.64 73.31 94.04 64.88 79.43 73.31 94.04 81.75 108.64 73.31"/><polygon class="cls-4" points="108.64 135.16 108.64 109.86 123.25 101.42 123.25 126.72 108.64 135.16"/><polygon class="cls-4" points="108.64 109.86 94.04 101.42 94.04 126.72 108.64 135.16 108.64 109.86"/><polygon class="cls-12" points="123.25 101.42 108.64 92.99 94.04 101.42 108.64 109.86 123.25 101.42"/><path class="cls-17" d="M130.24,150.27V55.64c0-18.94,13.34-42,29.75-51.52C168-.52,175.6-1.26,181.32,2s8.88,10.23,8.88,19.51v6.6l-.93.92V21.56c0-8.93-3-15.58-8.41-18.71S168.19.45,160.41,4.92C144.3,14.24,131.16,37,131.16,55.64v94.63c0,15.7-9.24,34.28-21.76,45.46v-1.24C121.41,183.43,130.24,165.48,130.24,150.27Z"/><path class="cls-11" d="M190.2,31h0a37.07,37.07,0,0,1,19-9.28c11.67-1.72,16.51,12,16.51,12A74.93,74.93,0,0,1,227,45c-.05,4.21-.35,19.51-.35,19.51L189.53,43.13h0a.46.46,0,0,1-.26-.41V31.85C189.58,31.54,189.89,31.36,190.2,31Z"/><path class="cls-18" d="M216.53,22.34,181.32,2l.14.5C176-1,167.83-1.37,156.86,6.67c-21.78,16-24.4,38.22-25.51,42.39s-.66,30.58-.66,30.58-.07,63.69-.14,71.1-2.23,15.72-6.39,24.69-14.85,19.87-14.85,19.87v13c1.7,14,7.66,17.29,16.52,18.08,7.15.65,14.77-4.51,20.86-10.14l-.37.38v13c1.7,14,7.66,17.28,16.52,18.08s18.44-7.32,24.94-14.19,12-17.36,15-26.82,2-21.69,2-21.69.07-69.63.14-83.35.51-11.33,5-25.13S226.41,53,226.41,53l28.64-8.53Z"/><path class="cls-11" d="M155.24,246.5c-.48-.65-6.76-4.86-8.35-12.27a57.29,57.29,0,0,1-.8-10.38s0-3.49.11-6.65l.21-.19v-1.25c-.06.06-.12.1-.17.16a14.8,14.8,0,0,1,.08-2c.18-3.29-2.25-10.31-2.25-10.31s-3.45-9.41-13.73-9.77c-9.12-.32-18.73,6.24-20.77,7.72v-4.25l-.42.27v-1.72l.21-.18v-1.24l-.18.15a13.33,13.33,0,0,1,.09-2c.18-3.3-2.26-10.32-2.26-10.32s-3.45-9.4-13.72-9.77c-9.13-.32-18.73,6.25-20.77,7.72V176c-.3.2-.61.4-.93.59V184c0,9,3,15.78,8.45,19.15h0l.19.11.15.1h.11l37.68,21.69h0Z"/><path class="cls-19" d="M100.41,174.09a5.46,5.46,0,0,0-.78-.35l-.46-.23L63.41,152.8a19.2,19.2,0,0,0-14.53-.54c-7.11,2.58-40.71,22.58-48.14,27a1,1,0,0,0-.35,1.37,1.17,1.17,0,0,0,.35.35L36.4,201.57h.1l36.9,21.27s20.88-12.94,35.33-21.29l.92-.53c5.91-3.39,10.6-5.93,12.07-6.32,8.91-2.36,15.1.52,16.72,1.4Z"/><path class="cls-4" d="M138.5,196.15l.43.25Z"/><path class="cls-11" d="M227.21,52.34h0a37.07,37.07,0,0,1,19-9.28c11.67-1.79,16.52,12,16.52,12A75.7,75.7,0,0,1,264,66.39c0,4.21-.35,19.51-.35,19.51L226.54,64.41h0a.47.47,0,0,1-.25-.41V53.14C226.59,52.83,226.9,52.65,227.21,52.34Z"/><path class="cls-11" d="M162.48,248.19c4.09,0,8.63-1.37,13.32-4.08,16.28-9.4,29.53-32.35,29.53-51.15V98.33c0-18.64,13.14-41.4,29.29-50.72,7.74-4.47,15-5.2,20.41-2.07s8.38,9.77,8.38,18.71V85.4a.47.47,0,0,0,.93,0V64.25c0-9.28-3.15-16.21-8.88-19.51s-13.3-2.57-21.33,2.06c-16.38,9.47-29.72,32.59-29.72,51.53V193c0,18.51-13,41.1-29.08,50.35-7.67,4.43-14.87,5.16-20.25,2s-8.35-9.7-8.35-18.57v-11.1c0-9.6-3.27-16.78-9.19-20.2s-13.77-2.66-22.09,2.14l-42,24.45a.47.47,0,0,0-.17.64.46.46,0,0,0,.63.16l42-24.44c8-4.63,15.54-5.4,21.16-2.15s8.73,10.14,8.73,19.4v11.1c0,9.21,3.13,16.09,8.81,19.38A15.6,15.6,0,0,0,162.48,248.19Z"/><polygon class="cls-1" points="209.3 306.82 220.79 300.18 232.29 306.82 220.79 313.46 209.3 306.82"/><polygon class="cls-1" points="233.7 292.54 245.2 285.91 256.69 292.54 245.2 299.18 233.7 292.54"/><polygon class="cls-1" points="258.03 278.61 269.53 271.97 281.02 278.61 269.53 285.24 258.03 278.61"/><polygon class="cls-14" points="245.2 292.54 245.2 257.14 233.7 250.51 233.7 285.91 245.2 292.54"/><polygon class="cls-4" points="245.2 257.14 256.69 250.51 256.69 285.91 245.2 292.54 245.2 257.14"/><polygon class="cls-4" points="245.2 292.54 245.2 257.14 233.7 250.51 233.7 285.91 245.2 292.54"/><polygon class="cls-4" points="220.79 306.82 220.79 286.91 209.3 280.27 209.3 300.18 220.79 306.82"/><polygon class="cls-4" points="220.79 286.91 232.29 280.27 232.29 300.18 220.79 306.82 220.79 286.91"/><polygon class="cls-12" points="209.3 280.27 220.79 273.63 232.29 280.27 220.79 286.91 209.3 280.27"/><polygon class="cls-4" points="269.53 278.61 269.53 229.93 258.03 223.29 258.03 271.97 269.53 278.61"/><polygon class="cls-4" points="269.53 229.93 281.02 223.29 281.02 271.97 269.53 278.61 269.53 229.93"/><polygon class="cls-12" points="258.03 223.29 269.53 216.66 281.02 223.29 269.53 229.93 258.03 223.29"/><polygon class="cls-12" points="233.7 250.51 245.2 243.87 256.69 250.51 245.2 257.14 233.7 250.51"/><path class="cls-17" d="M47.57,199a3.27,3.27,0,0,0,2.42-.15v-3.6H47.57Z"/><path class="cls-1" d="M102.27,286.56c-9.8-5.66-25.69-5.66-35.49,0s-9.8,14.83,0,20.49,25.69,5.66,35.49,0S112.07,292.22,102.27,286.56Zm-9.59,15c-4.5,2.6-11.81,2.6-16.31,0s-4.51-6.82,0-9.42,11.81-2.6,16.31,0,4.51,6.77,0,9.38Z"/><path class="cls-3" d="M63.08,283.21l9,.14A9.51,9.51,0,0,1,74.86,281c4.92-2.84,12.66-3.06,18-.66l5.32-5,8.19.12c-.4-.26-.82-.52-1.26-.77-11.38-6.58-29.83-6.58-41.21,0a21.88,21.88,0,0,0-5.13,4Z"/><polygon class="cls-3" points="106.39 262.44 106.39 275.43 98.2 275.31 98.2 262.31 106.39 262.44"/><polygon class="cls-3" points="92.88 267.31 92.88 280.31 98.2 275.31 98.2 262.31 92.88 267.31"/><path class="cls-3" d="M72,270.35v13l11.78-9.6,9.07,6.56v-13l-8.36-4.05s-11.5,3.52-12.1,3.67S72,270.35,72,270.35Z"/><polygon class="cls-3" points="63.08 270.21 63.08 283.21 72.03 283.35 72.03 270.35 63.08 270.21"/><polygon class="cls-3" points="58.79 265.65 58.79 278.64 63.08 283.21 63.08 270.21 58.79 265.65"/><path class="cls-2" d="M63.08,270.21l9,.14A9.51,9.51,0,0,1,74.86,268c4.92-2.84,12.66-3.06,18-.66l5.32-5,8.19.13q-.62-.42-1.26-.78c-11.38-6.58-29.83-6.58-41.21,0a21,21,0,0,0-5.13,4Z"/><path class="cls-12" d="M95.58,268.91v12l7.75-1.86s-.46-7-.62-7.18S95.58,268.91,95.58,268.91Z"/><path class="cls-2" d="M89.71,280.86v13l.84.89L96,291.6s-.84-9.92-.94-10.12A50.65,50.65,0,0,0,89.71,280.86Z"/><path class="cls-4" d="M100.26,277.5l-4.68,4.41c3.9,3.09,3.44,7.44-1.39,10.22a16.71,16.71,0,0,1-4.48,1.73L94.56,299l-4.29,4a39.32,39.32,0,0,0,14.86-4.6c9.79-5.65,11.15-14.31,4.11-20.81Z"/><polygon class="cls-4" points="90.27 290.05 90.27 303.05 100.89 298.95 113.66 286.76 113.62 272.96 100.1 283.67 90.27 290.05"/><path class="cls-12" d="M100.26,264.5l-4.68,4.41c3.9,3.09,3.44,7.44-1.39,10.23a17.16,17.16,0,0,1-4.48,1.72L94.56,286l-4.29,4a39.32,39.32,0,0,0,14.86-4.6c9.79-5.65,11.15-14.31,4.11-20.81Z"/><path class="cls-4" d="M90.23,299,86,294.4a20.36,20.36,0,0,1-11.1-2.27c-3.14-1.81-4.43-4.28-3.88-6.63l-10.16-.16L57,281.18c-3.42,5.86-1.09,12.6,7,17.27,5.94,3.44,13.82,5.07,21.61,4.92Z"/><polygon class="cls-4" points="85.53 290.37 85.53 303.37 55.39 286.66 55.39 273.65 59.79 275.43 85.53 290.37"/><polygon class="cls-2" points="90.23 285.95 90.23 298.95 85.53 303.37 85.53 290.37 90.23 285.95"/><path class="cls-12" d="M90.23,286,86,281.4a20.54,20.54,0,0,1-11.1-2.26c-3.14-1.81-4.43-4.29-3.88-6.64l-10.16-.16L57,268.18c-3.42,5.86-1.09,12.6,7,17.27,5.94,3.44,13.82,5.07,21.61,4.92Z"/><path class="cls-3" d="M217.65,67.52,190.91,52.08a1.39,1.39,0,0,0-1.38-.11h0l-2.59,1.5,1.82.67V73.59a5.14,5.14,0,0,0,2.15,4.11l25.56,14.76v2.28l2.62-1.51h0a1.93,1.93,0,0,0,.72-1.72V71.63A5.16,5.16,0,0,0,217.65,67.52Z"/><path class="cls-2" d="M215,94.66,188.27,79.22a5.14,5.14,0,0,1-2.15-4.11V55.23c0-1.58,1-2.31,2.15-1.62L215,69a5.14,5.14,0,0,1,2.15,4.11V93C217.16,94.62,216.2,95.35,215,94.66Z"/><path class="cls-17" d="M197.26,72.37c0,1.15-.8,1.62-1.8,1a4,4,0,0,1-1.8-3.12c0-1.15.8-1.62,1.8-1A4,4,0,0,1,197.26,72.37Z"/><path class="cls-17" d="M203.41,75.19c0,1.15-.8,1.62-1.8,1a4,4,0,0,1-1.8-3.12c0-1.15.8-1.62,1.8-1A4,4,0,0,1,203.41,75.19Z"/><path class="cls-17" d="M210,78.07c0,1.15-.8,1.62-1.8,1A4,4,0,0,1,206.39,76c0-1.15.81-1.62,1.81-1A4,4,0,0,1,210,78.07Z"/><path class="cls-12" d="M87.64,37.15,61.41,22a1.31,1.31,0,0,0-1.36-.11h0l-2.54,1.45L59.3,24V43.1a5,5,0,0,0,2.11,4L86.48,61.6v2.25l2.57-1.49h0a1.88,1.88,0,0,0,.71-1.68V41.18A5.08,5.08,0,0,0,87.64,37.15Z"/><path class="cls-4" d="M85.05,63.78,58.82,48.63a5,5,0,0,1-2.11-4V25.09c0-1.55.94-2.26,2.11-1.59L85.05,38.64a5.09,5.09,0,0,1,2.11,4v19.5C87.16,63.74,86.21,64.45,85.05,63.78Z"/><path class="cls-17" d="M67.64,41.91c0,1.13-.79,1.59-1.77,1a3.93,3.93,0,0,1-1.77-3.06c0-1.13.79-1.59,1.77-1A3.85,3.85,0,0,1,67.64,41.91Z"/><path class="cls-17" d="M73,45c0,1.12-.79,1.58-1.77,1a3.92,3.92,0,0,1-1.77-3c0-1.13.79-1.58,1.77-1A3.92,3.92,0,0,1,73,45Z"/><path class="cls-17" d="M78.41,48.1c0,1.13-.79,1.59-1.77,1A3.93,3.93,0,0,1,74.87,46c0-1.13.79-1.59,1.77-1A3.87,3.87,0,0,1,78.41,48.1Z"/></g></g><g id="Document-3"><g id="Document-4"><g id="Text"><path class="cls-7" d="M144.26,63.92l17.52,9.57a1.59,1.59,0,0,1,.72,1.3c0,.54-.29.74-.71.53l-17.52-9.56a1.8,1.8,0,0,1-.77-1.35C143.54,63.86,143.82,63.68,144.26,63.92Z"/><path class="cls-7" d="M144.28,67.6l17.53,9.59a1.59,1.59,0,0,1,.72,1.3c0,.53-.29.73-.71.53L144.3,69.44a1.8,1.8,0,0,1-.76-1.36C143.57,67.53,143.85,67.35,144.28,67.6Z"/><path class="cls-7" d="M144.36,71.26l17.53,9.58a1.6,1.6,0,0,1,.72,1.31c0,.53-.3.73-.71.53L144.36,73.1a1.76,1.76,0,0,1-.76-1.36C143.61,71.2,143.89,71,144.36,71.26Z"/><path class="cls-7" d="M144.36,74.93l17.53,9.58a1.59,1.59,0,0,1,.72,1.3c0,.54-.29.74-.71.53l-17.54-9.58a1.76,1.76,0,0,1-.76-1.35C143.64,74.88,143.92,74.7,144.36,74.93Z"/><path class="cls-7" d="M174.2,96.61l17.53,9.58a1.73,1.73,0,0,1,.76,1.35c0,.52-.33.71-.76.48l-17.52-9.58a1.76,1.76,0,0,1-.76-1.35C173.48,96.52,173.77,96.38,174.2,96.61Z"/><path class="cls-7" d="M174.23,100.27l17.52,9.64a1.76,1.76,0,0,1,.76,1.36c0,.52-.31.71-.75.48l-17.52-9.57a1.76,1.76,0,0,1-.76-1.36C173.51,100.23,173.79,100,174.23,100.27Z"/><path class="cls-7" d="M174.26,103.94l17.52,9.58a1.76,1.76,0,0,1,.77,1.39c0,.55-.32.72-.75.49l-17.52-9.58a1.76,1.76,0,0,1-.76-1.35C173.55,103.89,173.83,103.72,174.26,103.94Z"/><path class="cls-7" d="M174.29,107.62l17.52,9.57a1.69,1.69,0,0,1,.77,1.34c0,.55-.31.73-.75.48l-17.52-9.56a1.76,1.76,0,0,1-.76-1.35C173.57,107.55,173.85,107.37,174.29,107.62Z"/><path class="cls-7" d="M133.63,170.11l58.6,32a1.55,1.55,0,0,1,.68,1.19c0,.47-.29.62-.67.43l-58.57-32a1.51,1.51,0,0,1-.67-1.19C133,170.11,133.26,170,133.63,170.11Z"/><path class="cls-7" d="M133.66,173.36l58.6,32a1.56,1.56,0,0,1,.67,1.2c0,.47-.28.62-.66.42l-58.58-32a1.54,1.54,0,0,1-.66-1.2C133,173.34,133.28,173.17,133.66,173.36Z"/><path class="cls-7" d="M175.41,81.71l18.25,10a1.48,1.48,0,0,1,.64,1.15c0,.44-.27.59-.63.4l-18.25-9.93a1.46,1.46,0,0,1-.64-1.14C174.81,81.67,175.05,81.52,175.41,81.71Z"/><path class="cls-7" d="M175.44,84.84l18.24,10a1.46,1.46,0,0,1,.64,1.14c0,.44-.26.6-.62.41l-18.26-10a1.43,1.43,0,0,1-.64-1.13C174.85,84.76,175.08,84.65,175.44,84.84Z"/><path class="cls-7" d="M175.46,87.88l18.24,10a1.36,1.36,0,0,1,.64,1.13c0,.45-.25.61-.62.41l-18.25-10a1.46,1.46,0,0,1-.64-1.14C174.86,87.84,175.09,87.71,175.46,87.88Z"/><path class="cls-7" d="M175.48,91l18.25,10a1.46,1.46,0,0,1,.64,1.14c0,.44-.27.59-.63.4l-18.25-10a1.48,1.48,0,0,1-.64-1.15C174.88,90.92,175.11,90.77,175.48,91Z"/><polygon class="cls-4" points="134.66 143.3 200.6 179.32 200.61 181.1 134.66 145.08 134.66 143.3"/><polygon class="cls-20" points="134.77 142.08 200.58 178.04 200.6 179.81 134.78 143.86 134.77 142.08"/><polygon class="cls-4" points="134.45 101.15 158.15 114.1 158.18 117.66 134.48 104.72 134.45 101.15"/><polygon class="cls-4" points="162.3 116.35 173.15 122.27 173.18 125.94 162.32 120.02 162.3 116.35"/><polygon class="cls-4" points="175.87 123.75 186.71 129.68 186.74 133.34 175.89 127.43 175.87 123.75"/><polygon class="cls-4" points="189.43 131.17 200.28 137.09 200.3 140.75 189.46 134.84 189.43 131.17"/><polygon class="cls-21" points="134.53 111.83 200.35 147.78 200.41 154.89 134.59 118.94 134.53 111.83"/><polygon class="cls-21" points="134.65 126.07 200.46 162.01 200.52 169.14 134.7 133.18 134.65 126.07"/><path class="cls-2" d="M137.15,110.28a2.3,2.3,0,0,1-.49-1.17c0-.2.09-.27.24-.2L155.3,119a2.07,2.07,0,0,1,.67,1c.13.43.05.69-.17.57L137.4,110.5A.88.88,0,0,1,137.15,110.28Z"/><path class="cls-2" d="M165.06,124.14a1.59,1.59,0,0,1-.34-.8c0-.14.07-.18.17-.13L173,127.7a1.34,1.34,0,0,1,.45.71c.07.27,0,.43-.11.36l-8.15-4.43A1.37,1.37,0,0,1,165.06,124.14Z"/><path class="cls-2" d="M165.08,126.79a1.61,1.61,0,0,1-.29-.55c-.09-.3,0-.47.12-.38l8.14,4.49a1.29,1.29,0,0,1,.45.69c.1.3.05.48-.11.4L165.25,127A1.2,1.2,0,0,1,165.08,126.79Z"/><path class="cls-2" d="M178.64,133a1.6,1.6,0,0,1-.35-.8c0-.14.07-.18.17-.13l8.14,4.44a1.39,1.39,0,0,1,.46.7c.09.29,0,.47-.12.39l-8.14-4.45A.57.57,0,0,1,178.64,133Z"/><path class="cls-2" d="M191.32,139.49A2,2,0,0,1,191,139c-.09-.29-.05-.47.11-.39h0l8.14,4.44a1.42,1.42,0,0,1,.46.71c.09.29,0,.47-.11.38h0l-8.13-4.44A.8.8,0,0,1,191.32,139.49Z"/><path class="cls-2" d="M137.21,117.41a2.2,2.2,0,0,1-.5-1.17c0-.2.1-.27.24-.2l13.2,7.22a2.14,2.14,0,0,1,.67,1c.13.44.05.68-.18.55l-13.15-7.18A1.51,1.51,0,0,1,137.21,117.41Z"/><path class="cls-2" d="M165.12,131.56a1.61,1.61,0,0,1-.29-.55c-.1-.3,0-.48.11-.39l8.14,4.45a1.39,1.39,0,0,1,.46.7c.09.29,0,.47-.12.39l-8.14-4.45A.57.57,0,0,1,165.12,131.56Z"/><path class="cls-2" d="M165.14,134.13a1.44,1.44,0,0,1-.34-.79c0-.14.06-.19.16-.14l8.15,4.45a1.28,1.28,0,0,1,.44.67h0c.09.3,0,.47-.12.38l-8.14-4.44A.64.64,0,0,1,165.14,134.13Z"/><path class="cls-2" d="M178.69,140.32a1.93,1.93,0,0,1-.29-.55c-.1-.3,0-.47.11-.39l8.14,4.45a1.18,1.18,0,0,1,.48.64c.12.32.09.54-.06.49H187l-8.13-4.45A.81.81,0,0,1,178.69,140.32Z"/><path class="cls-2" d="M191.37,146.83a2.31,2.31,0,0,1-.28-.54c-.09-.3,0-.48.12-.4l8.13,4.44a1.46,1.46,0,0,1,.46.71c.1.3,0,.47-.11.39h0L191.55,147A.73.73,0,0,1,191.37,146.83Z"/><path class="cls-2" d="M137.27,124.55a2.11,2.11,0,0,1-.49-1.17c0-.2.08-.27.22-.2l21.07,11.51a1.9,1.9,0,0,1,.66,1h0c.14.43.07.68-.16.56h0l-21-11.49A1,1,0,0,1,137.27,124.55Z"/><path class="cls-2" d="M165.17,138.84a1.54,1.54,0,0,1-.33-.79c0-.14.06-.19.16-.14l8.14,4.45a1.5,1.5,0,0,1,.45.73c.08.26,0,.41-.11.35L165.34,139A1.29,1.29,0,0,1,165.17,138.84Z"/><path class="cls-2" d="M165.19,141.47a1.57,1.57,0,0,1-.29-.54c-.09-.3,0-.48.12-.4l8.14,4.45a1.39,1.39,0,0,1,.46.7c.09.3,0,.48-.12.39l-8.15-4.45A.75.75,0,0,1,165.19,141.47Z"/><path class="cls-2" d="M178.75,147.63a1.44,1.44,0,0,1-.31-.79c0-.11.07-.15.16-.1l8.14,4.44a1.37,1.37,0,0,1,.45.66h0c.08.3,0,.47-.13.39l-8.13-4.45A.65.65,0,0,1,178.75,147.63Z"/><path class="cls-2" d="M191.44,154.16a1.57,1.57,0,0,1-.29-.54c-.1-.3-.06-.47.1-.39h0l8.14,4.44a1.39,1.39,0,0,1,.46.7c.09.3,0,.46-.11.38h0l-8.14-4.41A.55.55,0,0,1,191.44,154.16Z"/><path class="cls-2" d="M137.35,131.65a2.33,2.33,0,0,1-.49-1.18c0-.19.09-.26.23-.19L147.6,136a2,2,0,0,1,.68,1c.14.43.05.68-.18.54h0l-10.51-5.73A1.43,1.43,0,0,1,137.35,131.65Z"/><path class="cls-2" d="M165.22,146.18a2.35,2.35,0,0,1-.29-.54c-.08-.3,0-.47.13-.4l8.14,4.46a1.31,1.31,0,0,1,.45.7c.1.29,0,.47-.11.38l-8.15-4.45A.8.8,0,0,1,165.22,146.18Z"/><path class="cls-2" d="M165.25,148.8a1.51,1.51,0,0,1-.34-.8c0-.13.06-.18.16-.13l8.14,4.45a1.19,1.19,0,0,1,.45.65h0c.1.29,0,.47-.11.38l-8.16-4.45A.71.71,0,0,1,165.25,148.8Z"/><path class="cls-2" d="M178.8,155a1.57,1.57,0,0,1-.29-.54c-.09-.3,0-.48.12-.4l8.14,4.44a1.21,1.21,0,0,1,.47.66c.12.31.1.53-.05.48h-.08L179,155.12Z"/><path class="cls-2" d="M191.49,161.51a1.64,1.64,0,0,1-.33-.82c0-.12.07-.17.15-.12l8.14,4.44a1.41,1.41,0,0,1,.47.7c.09.3,0,.47-.12.39h0l-8.13-4.45A.49.49,0,0,1,191.49,161.51Z"/><path class="cls-2" d="M137.35,138.76a2.3,2.3,0,0,1-.49-1.17c0-.2.09-.27.23-.2l18.4,10.07a2.07,2.07,0,0,1,.67,1c.14.43.06.68-.17.56l-18.4-10A1.2,1.2,0,0,1,137.35,138.76Z"/><path class="cls-2" d="M165.28,153.51a1.54,1.54,0,0,1-.33-.79c0-.13.06-.19.16-.13l8.14,4.45a1.2,1.2,0,0,1,.45.67h0c.09.3,0,.47-.12.39l-8.14-4.45A1.07,1.07,0,0,1,165.28,153.51Z"/><path class="cls-2" d="M165.3,156.14a1.61,1.61,0,0,1-.29-.55c-.09-.3,0-.47.12-.38l8.14,4.45a1.34,1.34,0,0,1,.45.71c.08.27,0,.43-.11.36l-8.14-4.44A.61.61,0,0,1,165.3,156.14Z"/><path class="cls-2" d="M178.86,162.3a1.44,1.44,0,0,1-.34-.79c0-.14.06-.19.17-.14l8.13,4.44a1.42,1.42,0,0,1,.46.71c.1.29,0,.47-.11.38L179,162.45A.5.5,0,0,1,178.86,162.3Z"/><path class="cls-2" d="M191.55,168.8a2,2,0,0,1-.3-.55c-.09-.29,0-.46.11-.38h0l8.13,4.46a1.42,1.42,0,0,1,.46.71c.1.29.05.47-.1.39h0L191.72,169A.55.55,0,0,1,191.55,168.8Z"/><path class="cls-2" d="M178.94,173.31a1.6,1.6,0,0,1-.35-.8c0-.18.07-.23.21-.12l8.13,4.44a1.28,1.28,0,0,1,.47.69c.09.3,0,.48-.12.39l-8.14-4.45A.43.43,0,0,1,178.94,173.31Z"/><path class="cls-2" d="M191.67,179.83a2.35,2.35,0,0,1-.29-.54c-.09-.29,0-.46.11-.39h0l8.14,4.45a1.42,1.42,0,0,1,.46.71c.09.29,0,.45-.11.37h0L191.84,180A.46.46,0,0,1,191.67,179.83Z"/><path class="cls-2" d="M179,177a1.61,1.61,0,0,1-.29-.55c-.1-.3,0-.48.11-.39l8.14,4.49a1.49,1.49,0,0,1,.45.75c.06.24,0,.38-.11.34l-8.13-4.45A1.54,1.54,0,0,1,179,177Z"/><path class="cls-2" d="M191.67,183.5a2.35,2.35,0,0,1-.29-.54c-.09-.3,0-.46.11-.39h0l8.13,4.44a1.39,1.39,0,0,1,.46.7c.1.3,0,.46-.11.38h0l-8.14-4.44A.75.75,0,0,1,191.67,183.5Z"/><polygon class="cls-4" points="199.21 191.29 157.29 168.4 157.37 179.03 199.29 201.92 199.21 191.29"/><path class="cls-6" d="M165.45,175.43a.16.16,0,0,1,.08.1v1a.54.54,0,0,1,0,.18.06.06,0,0,1-.08,0h0l-.81-.44v4.31a.49.49,0,0,1,0,.17.06.06,0,0,1-.08,0h0l-.6-.33-.1-.11a.54.54,0,0,1,0-.18v-4.3l-.82-.44a.21.21,0,0,1-.08-.11.41.41,0,0,1-.05-.18v-.88a.33.33,0,0,1,0-.14H163Z"/><path class="cls-6" d="M165.85,177.83a3.31,3.31,0,0,1,.1-.83,1.18,1.18,0,0,1,.28-.53.66.66,0,0,1,.45-.25,1,1,0,0,1,.6.16,2.13,2.13,0,0,1,.61.51,3,3,0,0,1,.44.73,4.93,4.93,0,0,1,.41,1.82v1.48a2.78,2.78,0,0,1-.11.81,1.42,1.42,0,0,1-.27.55.69.69,0,0,1-.44.24,1.24,1.24,0,0,1-.6-.15,2.3,2.3,0,0,1-.61-.51,3.68,3.68,0,0,1-.45-.73,4,4,0,0,1-.29-.88,4.94,4.94,0,0,1-.12-.93v-.73C165.85,178.33,165.84,178,165.85,177.83Zm2.05,2.56V179a3.07,3.07,0,0,0-.07-.42,1.58,1.58,0,0,0-.11-.37.75.75,0,0,0-.18-.28.56.56,0,0,0-.24-.22.36.36,0,0,0-.25-.06.19.19,0,0,0-.18.11,1.06,1.06,0,0,0-.16.6v1.41a2.32,2.32,0,0,0,.17.78,1.12,1.12,0,0,0,.44.52.33.33,0,0,0,.42,0,1.33,1.33,0,0,0,.16-.62Z"/><path class="cls-6" d="M171.59,178.78a.27.27,0,0,1,.09.12.15.15,0,0,1,0,.13v.87a.61.61,0,0,1,0,.19h-.09l-.81-.45v4.28a.61.61,0,0,1,0,.19h-.09l-.61-.34s-.06,0-.08-.11a.25.25,0,0,1,0-.17V179.2l-.82-.44a.31.31,0,0,1-.09-.11.54.54,0,0,1,0-.18v-.88a.33.33,0,0,1,0-.14h.09Z"/><path class="cls-6" d="M173.52,179.84l.15.18a.81.81,0,0,1,.07.22l1,5.81a.29.29,0,0,1,0,.13.38.38,0,0,1,0,.15h-.07l-.58-.31a.39.39,0,0,1-.14-.17.43.43,0,0,1,0-.16l-.14-.77-1.23-.67-.12.62-.05.11a.12.12,0,0,1-.14,0l-.57-.31a.14.14,0,0,1-.08-.09.21.21,0,0,1,0-.11v-.14l1-4.72.06-.14a.11.11,0,0,1,.15,0Zm-.73,3.24.76.42-.38-2.22Z"/><path class="cls-6" d="M177.44,186.51l.1.11a.54.54,0,0,1,0,.18v.87a.33.33,0,0,1,0,.14c0,.07,0,0-.09,0l-2.14-1.17-.1-.1a.61.61,0,0,1,0-.19V181a.33.33,0,0,1,0-.14.07.07,0,0,1,.09,0l.61.34.09.1a.61.61,0,0,1,0,.19v4.28Z"/><path class="cls-6" d="M187.19,187.22a2.38,2.38,0,0,1,.4.49,3.39,3.39,0,0,1,.29.53,3.27,3.27,0,0,1,.17.53,2.32,2.32,0,0,1,.07.46.31.31,0,0,1,0,.19.06.06,0,0,1-.08,0l-.33-.18c-.05-.06-.09-.08-.12-.15a1.42,1.42,0,0,1-.08-.18,2.06,2.06,0,0,0-.21-.48,1,1,0,0,0-.42-.38.5.5,0,0,0-.23-.09h-.19a.44.44,0,0,0-.12.15.61.61,0,0,0,0,.27,1,1,0,0,0,0,.34,1.22,1.22,0,0,0,.17.29l.29.36.43.42a3.78,3.78,0,0,1,.48.5,3.65,3.65,0,0,1,.32.54,2.72,2.72,0,0,1,.18.55,3.42,3.42,0,0,1,0,.64,1.91,1.91,0,0,1-.06.58.93.93,0,0,1-.2.41.51.51,0,0,1-.32.19.79.79,0,0,1-.43,0v.56a.33.33,0,0,1,0,.14.06.06,0,0,1-.08,0h0l-.38-.2a.39.39,0,0,1-.08-.1.54.54,0,0,1,0-.18v-.53a2.59,2.59,0,0,1-.4-.41,3.08,3.08,0,0,1-.65-1.74.17.17,0,0,1,0-.14h.08l.33.18c0,.06.09.06.12.14a.36.36,0,0,1,.07.18.31.31,0,0,0,.07.26.84.84,0,0,1,.13.27,2.2,2.2,0,0,0,.2.23,1.94,1.94,0,0,0,.29.21l.27.13h.23a.36.36,0,0,0,.16-.14.49.49,0,0,0,.06-.29.8.8,0,0,0-.07-.34,1.21,1.21,0,0,0-.2-.3c-.1-.11-.21-.23-.32-.33l-.46-.44a6.4,6.4,0,0,1-.41-.5,3.5,3.5,0,0,1-.29-.49,4.11,4.11,0,0,1-.17-.57,5.23,5.23,0,0,1-.07-.68,2.1,2.1,0,0,1,.07-.56.8.8,0,0,1,.48-.6.62.62,0,0,1,.38,0v-.7m.07,0h0l.38.2a.44.44,0,0,1,.08.11.54.54,0,0,1,0,.18Z"/><path class="cls-6" d="M190.37,188.93a2.38,2.38,0,0,1,.4.49,3.29,3.29,0,0,1,.29.52,3.65,3.65,0,0,1,.18.56,2.32,2.32,0,0,1,.07.46.17.17,0,0,1,0,.14h-.09l-.33-.18a.26.26,0,0,1-.11-.14,1.34,1.34,0,0,1-.07-.18,1.74,1.74,0,0,0-.22-.48,1,1,0,0,0-.41-.39,1.13,1.13,0,0,0-.24-.08.28.28,0,0,0-.18,0,.29.29,0,0,0-.13.14.57.57,0,0,0,0,.26,1,1,0,0,0,.05.35,1.11,1.11,0,0,0,.17.3c.09.12.19.24.29.35l.44.42a3.27,3.27,0,0,1,.47.51,3.46,3.46,0,0,1,.32.52,2.26,2.26,0,0,1,.17.56,3.39,3.39,0,0,1,.07.64,2.78,2.78,0,0,1-.07.57.84.84,0,0,1-.2.4.69.69,0,0,1-.75.21v.57c0,.13,0,.19-.11.18l-.38-.22s-.06,0-.09-.1a.61.61,0,0,1,0-.19v-.62a3.68,3.68,0,0,1-.39-.4,2.85,2.85,0,0,1-.33-.52,3.37,3.37,0,0,1-.34-1.24.28.28,0,0,1,0-.18.07.07,0,0,1,.09,0l.32.17a.64.64,0,0,1,.13.15,1.18,1.18,0,0,1,.07.2.35.35,0,0,0,.08.26c.08.08.08.18.13.27a2.2,2.2,0,0,0,.2.23,1.29,1.29,0,0,0,.3.22.85.85,0,0,0,.26.11.35.35,0,0,0,.38-.13.72.72,0,0,0,.06-.29,1,1,0,0,0-.06-.34,1.61,1.61,0,0,0-.21-.3,2.73,2.73,0,0,0-.33-.35l-.45-.43c-.14-.16-.28-.33-.41-.5a3.5,3.5,0,0,1-.29-.49,2.75,2.75,0,0,1-.16-.56,2.69,2.69,0,0,1-.06-.69,1.85,1.85,0,0,1,.06-.57,1,1,0,0,1,.19-.38.5.5,0,0,1,.29-.2.62.62,0,0,1,.38,0V188a.17.17,0,0,1,0-.14h.08l.37.2a.22.22,0,0,1,.09.1h0a.29.29,0,0,1,0,.13Z"/><path class="cls-6" d="M193.59,190.7a2.09,2.09,0,0,1,.4.49,2,2,0,0,1,.29.52,2.55,2.55,0,0,1,.18.53,2.67,2.67,0,0,1,.08.48.17.17,0,0,1,0,.14.08.08,0,0,1-.09,0l-.32-.18a.37.37,0,0,1-.13-.15.62.62,0,0,1-.07-.19,1.74,1.74,0,0,0-.22-.48,1,1,0,0,0-.42-.37.35.35,0,0,0-.22-.08.28.28,0,0,0-.32.17.57.57,0,0,0,0,.26,1,1,0,0,0,.06.34.64.64,0,0,0,.16.29,2,2,0,0,0,.29.36l.43.4a4.77,4.77,0,0,1,.48.52,2.58,2.58,0,0,1,.32.53,2.7,2.7,0,0,1,.18.57,3.39,3.39,0,0,1,.06.64,2.76,2.76,0,0,1-.06.57,1,1,0,0,1-.21.39.57.57,0,0,1-.32.2.64.64,0,0,1-.43,0v.57a.33.33,0,0,1,0,.14h-.08l-.38-.2a.35.35,0,0,1-.1-.11.54.54,0,0,1,0-.18v-.57a2.56,2.56,0,0,1-.39-.42,3.84,3.84,0,0,1-.32-.5,3.1,3.1,0,0,1-.21-.58,1.93,1.93,0,0,1-.1-.63.31.31,0,0,1,0-.19h.09l.32.18c0,.07.09.07.12.15a.44.44,0,0,1,.07.19l.08.25c0,.09.08.17.13.26a1.27,1.27,0,0,0,.21.25.83.83,0,0,0,.28.21l.28.11a.41.41,0,0,0,.22,0,.24.24,0,0,0,.15-.13.46.46,0,0,0,.06-.28.75.75,0,0,0-.07-.36,1.21,1.21,0,0,0-.2-.3,3.34,3.34,0,0,0-.32-.33l-.46-.45a6.12,6.12,0,0,1-.4-.49,3.6,3.6,0,0,1-.29-.5,2.21,2.21,0,0,1-.17-.57,5.23,5.23,0,0,1-.07-.68,2.22,2.22,0,0,1,.07-.57,1,1,0,0,1,.19-.38.46.46,0,0,1,.3-.21,1.09,1.09,0,0,1,.36,0v-.56a.33.33,0,0,1,0-.14.09.09,0,0,1,.1,0l.38.21a.24.24,0,0,1,.08.09.61.61,0,0,1,0,.19Z"/><path class="cls-6" d="M196.82,192.45a3.17,3.17,0,0,1,.4.49,3.39,3.39,0,0,1,.29.53,3.27,3.27,0,0,1,.17.53,1.77,1.77,0,0,1,.07.46.31.31,0,0,1,0,.19h-.08l-.33-.18-.12-.14a1.34,1.34,0,0,1-.07-.18,2.06,2.06,0,0,0-.21-.48,1.81,1.81,0,0,0-.43-.4l-.22-.07a.31.31,0,0,0-.19,0,.29.29,0,0,0-.13.14.57.57,0,0,0,0,.26,1.93,1.93,0,0,0,0,.34c.05.1.11.2.17.3a2.6,2.6,0,0,0,.3.36l.43.41a3,3,0,0,1,.48.52,2.72,2.72,0,0,1,.32.51,3,3,0,0,1,.18.58,4.6,4.6,0,0,1,.05.64,1.91,1.91,0,0,1-.06.58.7.7,0,0,1-.79.6h-.16V199a.17.17,0,0,1,0,.14.06.06,0,0,1-.08,0l-.38-.2a.31.31,0,0,1-.09-.11.54.54,0,0,1,0-.18v-.53a2.16,2.16,0,0,1-.39-.41,3.16,3.16,0,0,1-.55-1.08,3.41,3.41,0,0,1-.1-.64.33.33,0,0,1,0-.14h.09l.32.17.12.15a.44.44,0,0,1,.07.19,1.38,1.38,0,0,0,.08.27c0,.08.08.17.13.25a1,1,0,0,0,.2.25,1.4,1.4,0,0,0,.57.32.41.41,0,0,0,.22,0,.37.37,0,0,0,.15-.13.49.49,0,0,0,.06-.29.65.65,0,0,0-.07-.34,1.16,1.16,0,0,0-.2-.32c-.1-.12-.22-.23-.32-.33l-.46-.44a6.12,6.12,0,0,1-.4-.49,2.33,2.33,0,0,1-.46-1.07,5.08,5.08,0,0,1-.07-.67,2.6,2.6,0,0,1,.07-.56,1.23,1.23,0,0,1,.19-.4.51.51,0,0,1,.29-.21.77.77,0,0,1,.37,0v-.57a.33.33,0,0,1,0-.14h.09l.37.2.09.11a.54.54,0,0,1,0,.18Z"/><path class="cls-2" d="M137.5,156.36a2.1,2.1,0,0,1-.29-.53c-.08-.29,0-.46.12-.37L153.1,164a1.28,1.28,0,0,1,.44.67c.1.3.05.46-.11.39l-15.77-8.63Z"/><path class="cls-2" d="M137.53,159.93a1.57,1.57,0,0,1-.29-.54c-.09-.29,0-.45.11-.37l15.77,8.59a1.17,1.17,0,0,1,.44.65h0c.1.29.05.46-.11.37L137.68,160Z"/><path class="cls-2" d="M137.56,163.49a1.57,1.57,0,0,1-.29-.54c-.09-.29,0-.46.11-.38l15.77,8.6a1.42,1.42,0,0,1,.44.73c0,.23,0,.36-.1.33l-15.77-8.63A.91.91,0,0,1,137.56,163.49Z"/></g></g><path class="cls-7" d="M143.36,80.33l17.52,9.59a1.73,1.73,0,0,1,.76,1.35c0,.52-.32.7-.74.48l-17.53-9.59a1.76,1.76,0,0,1-.76-1.35C142.61,80.27,142.92,80.1,143.36,80.33Z"/><path class="cls-7" d="M143.38,84l17.52,9.58a1.73,1.73,0,0,1,.77,1.36c0,.52-.33.7-.76.48l-17.52-9.58a1.8,1.8,0,0,1-.76-1.36C142.67,84,143,83.77,143.38,84Z"/><path class="cls-7" d="M143.41,87.67l17.52,9.58a1.76,1.76,0,0,1,.76,1.35c0,.54-.31.72-.75.48l-17.51-9.57a1.77,1.77,0,0,1-.77-1.35C142.7,87.62,143,87.44,143.41,87.67Z"/><path class="cls-7" d="M143.43,91.38,161,101a1.68,1.68,0,0,1,.76,1.35c0,.52-.32.7-.75.48L143.49,93.2a1.76,1.76,0,0,1-.76-1.35C142.74,91.3,143,91.14,143.43,91.38Z"/></g></g></g><polygon class="cls-4" points="134.49 96.07 200.44 132.09 200.45 133.86 134.5 97.85 134.49 96.07"/><polygon class="cls-20" points="134.61 94.85 200.42 130.81 200.44 132.58 134.62 96.63 134.61 94.85"/></g></g><path class="cls-22" d="M43.05,143c-2.16,5.42-5.09,19.49-4.93,21.19.35,3.64,6.5,7.33,7.54,4.49,1.26-3.43,3.57-11.19,4.33-13.18A161,161,0,0,0,54.9,139c.34-6,3.37-16.24,7.33-20.36,0,0-3.39-1.76-5.93.56a37.32,37.32,0,0,0-6.71,8.65C48.75,129.53,44.75,138.72,43.05,143Z"/><path class="cls-23" d="M11.7,235.55c-2.61,2.55-3.42,3.28-5.85,5.65-1.42,1.39-.25,2.66,2.45,2.55a47.82,47.82,0,0,0,10.77-2.33,54,54,0,0,0,8.05-4.2,5.33,5.33,0,0,0,2.4-3V230l-12.87.55S14.53,232.79,11.7,235.55Z"/><path class="cls-23" d="M34.35,249c-2.62,2.55-3.43,3.28-5.86,5.65-1.41,1.38-.25,2.66,2.46,2.55a49,49,0,0,0,10.76-2.33,53.17,53.17,0,0,0,8.06-4.2,5.36,5.36,0,0,0,2.39-3v-7.51L39.29,244S37.17,246.23,34.35,249Z"/><path class="cls-22" d="M80.31,174.79,54.59,164.9a72.43,72.43,0,0,1-12,8.73c-4.52,2.73-17,10.06-21,12.88-2.46,1.73-3.56,5.48-4.52,13.92-1.58,13.94-2.74,29.86-2.74,29.86s2.78,3.89,9.08,3.87a24.66,24.66,0,0,0,8.46-1.52l1-32.08,21-12.17s-11.94,7.4-13.65,14a64.49,64.49,0,0,0-2,15.89c-.45,14.17-.6,23.44-.6,23.44s.94,4.7,7.24,4.67c4.84,0,8.83-3.95,8.83-3.95L55,209.93S73.19,197,78,191.48C83.29,185.34,80.31,174.79,80.31,174.79Z"/><path class="cls-23" d="M59.06,120.05s-7.69,6.21-8.6,15c-.46,4.36.72,19.3.76,28.92-3.71,2.51-14.26,8.7-14.26,8.7s8.5,2.62,11.83,8.48A28.88,28.88,0,0,0,55,177.51a52.08,52.08,0,0,1-2.27,4.85c2.31.7,10.23-1.15,17.59,2s12.47,1.76,12.47,1.76A40.38,40.38,0,0,0,83.11,174c-.81-5.3-2.79-11.18-2.38-14.3,1.27-9.75,3.16-25.51,2.82-28.09-.58-4.32-10.36-9-10.36-9S66.25,117.22,59.06,120.05Z"/><path class="cls-22" d="M63.52,119.22s-4.49,0-8.29,7.39c-1.36,2.65-2.27,4.08-2.27,4.08l2.27,2.21L52,134.44s-1.16,11.27-.23,15.93c1,5.15,6.26,14.53,6.26,14.53s3.4-10.52,4.88-13.14S70,141.88,70,141.88l-2.82-4.25,4.59-1.5s6.48-8.12,5.8-10.57A7.9,7.9,0,0,0,72,120.05Z"/><path class="cls-24" d="M58.23,127.6a103.47,103.47,0,0,0-2.83,10.53c-1,5,1.79,21.35,1.79,21.35s2.47-16,5.73-20.6a108.11,108.11,0,0,1,8.89-10.69S61.56,126.32,58.23,127.6Z"/><path class="cls-4" d="M60.14,128.63l-.55,4.27a11.7,11.7,0,0,0-3.06,5.42c-.54,3-.38,14.15-.38,14.15l1,7,1.5-4.83S59.8,148,60.8,143.91a25.86,25.86,0,0,1,.44-3.72,29.18,29.18,0,0,0,.83-6.17l2.67-3.19-2.55-3Z"/><path class="cls-25" d="M61.81,119.78l-.47,6.76a18.24,18.24,0,0,0,3.18,3.27c2.44-.77,8.11-6,8.11-6l-1.89-10.49Z"/><path class="cls-26" d="M71.79,101.75c-2.55-3.24-9.86-6-14.62,1.08-5,7.39-.27,19.47,4.1,18.76,2.45-.39,8-2.63,10.38-6.57C74.37,110.58,73.76,104.27,71.79,101.75Z"/><path class="cls-17" d="M61.68,121.62l.55,6.25-4.45,1.82S57.32,123.07,61.68,121.62Z"/><path class="cls-17" d="M72,120.05a33.34,33.34,0,0,1-4.14,4.82,15.7,15.7,0,0,1-5.59,3l1.68,5s6.15-2.82,8.41-5.28C72.32,127.62,75,123,72,120.05Z"/><path class="cls-23" d="M55.3,105.3c1,1.62,2.59,3.51,6.66,3.73a16.51,16.51,0,0,0,6-.82l-.29,4.45a3.91,3.91,0,0,0,1.22-.17c.45-1.69,1.17-2.09,2-1.37s.79,3.9.79,3.9a11.38,11.38,0,0,0,3.51-8.14c0-3.18-2.78-10-8.6-10.78s-10,2.32-11.38,5.43A4.11,4.11,0,0,0,55.3,105.3Z"/><rect class="cls-27" x="22.56" y="178.46" width="1.7" height="1.32"/><path class="cls-27" d="M46.78,194.41l-23.39-13.5c-1.23-.71-1.08-2,.35-2.79l15.62-9a5.38,5.38,0,0,1,4.82-.2l23.39,13.51c1.23.71,1.08,2-.34,2.78l-15.63,9A5.38,5.38,0,0,1,46.78,194.41Z"/><rect class="cls-27" x="67.35" y="182.3" width="1.05" height="1.29"/><path class="cls-28" d="M46.78,193.18l-23.39-13.5c-1.23-.71-1.08-2,.35-2.78l15.62-9a5.38,5.38,0,0,1,4.82-.2l23.39,13.51c1.23.71,1.08,2-.34,2.78L51.6,193A5.38,5.38,0,0,1,46.78,193.18Z"/><polygon class="cls-29" points="42.24 168.12 25.75 177.63 50.33 191.74 66.86 182.26 42.24 168.12"/><polygon class="cls-28" points="40.84 167.96 39.58 168.69 64.15 182.8 65.46 182.1 40.84 167.96"/><polygon class="cls-28" points="59.59 181.16 58.33 181.89 62.05 184.01 63.35 183.31 59.59 181.16"/><polygon class="cls-28" points="55.51 178.79 54.25 179.53 56.86 181.03 58.16 180.33 55.51 178.79"/><polygon class="cls-28" points="52.25 176.94 50.99 177.68 53.6 179.18 54.91 178.48 52.25 176.94"/><polygon class="cls-28" points="49.02 175.09 47.75 175.82 50.37 177.33 51.67 176.62 49.02 175.09"/><polygon class="cls-28" points="56.81 184.68 55.55 185.41 57.39 186.47 58.7 185.76 56.81 184.68"/><polygon class="cls-28" points="54.13 183.12 52.87 183.85 54.71 184.91 56.02 184.2 54.13 183.12"/><polygon class="cls-28" points="50.83 181.25 49.57 181.98 52.18 183.49 53.49 182.78 50.83 181.25"/><polygon class="cls-28" points="54.66 185.93 53.39 186.66 55.23 187.72 56.54 187.01 54.66 185.93"/><polygon class="cls-28" points="51.98 184.37 50.71 185.1 52.55 186.16 53.86 185.45 51.98 184.37"/><polygon class="cls-28" points="52.36 187.13 51.1 187.86 52.93 188.92 54.24 188.22 52.36 187.13"/><polygon class="cls-28" points="49.68 185.57 48.42 186.3 50.25 187.36 51.56 186.66 49.68 185.57"/><polygon class="cls-28" points="48.67 182.5 47.41 183.23 50.02 184.74 51.33 184.03 48.67 182.5"/><polygon class="cls-28" points="47.69 179.4 46.43 180.13 49.04 181.64 50.35 180.94 47.69 179.4"/><polygon class="cls-28" points="44.45 177.54 43.19 178.28 45.8 179.78 47.11 179.08 44.45 177.54"/><polygon class="cls-28" points="56.69 182.01 55.42 182.74 59.77 185.22 61.08 184.52 56.69 182.01"/><polygon class="cls-28" points="53.24 180 51.97 180.74 54.59 182.24 55.89 181.54 53.24 180"/><polygon class="cls-28" points="49.98 178.16 48.72 178.89 51.33 180.4 52.64 179.69 49.98 178.16"/><polygon class="cls-28" points="46.74 176.3 45.48 177.03 48.09 178.54 49.4 177.84 46.74 176.3"/><path class="cls-26" d="M57.09,171.42s-3.84,2-6.26,3.19-9.61,7.41-8.08,8.83,5.3,3.07,6.33,2.86,3.47-2.77,3.86-3.36,5.06-2.36,6.41-4.4S57.09,171.42,57.09,171.42Z"/><path class="cls-30" d="M50.77,170.8l.07,19.88a1.94,1.94,0,0,1-1.94,1.92,1.91,1.91,0,0,1-.9-.23L24.51,179a1.94,1.94,0,0,1-1-1.67l-.08-19.88a1.92,1.92,0,0,1,1.9-1.94h0a1.85,1.85,0,0,1,1,.26l23.44,13.42A1.88,1.88,0,0,1,50.77,170.8Z"/><polygon class="cls-30" points="50.13 192.22 48.88 192.95 47.36 191.37 50.35 189.53 50.13 192.22"/><polygon class="cls-30" points="24.32 155.79 23.46 156.29 25.69 156.32 24.32 155.79"/><path class="cls-31" d="M49.8,171.37l.07,19.88a2,2,0,0,1-1.95,1.93,2.1,2.1,0,0,1-.92-.24L23.54,179.52a2,2,0,0,1-1-1.67L22.49,158a1.92,1.92,0,0,1,1.9-1.94h0a1.85,1.85,0,0,1,1,.26l23.44,13.42A2,2,0,0,1,49.8,171.37Z"/><polygon class="cls-28" points="30.02 184.73 24.48 181.53 24.48 179.12 30.02 182.31 30.02 184.73"/><polygon class="cls-28" points="45.11 193.45 39.58 190.26 39.58 187.84 45.11 191.04 45.11 193.45"/><path class="cls-4" d="M37.42,175.23c0,1.16-1,1.51-2.31.77a4.62,4.62,0,0,1-2.3-3.43c0-1.16,1-1.5,2.3-.77A4.64,4.64,0,0,1,37.42,175.23Z"/><path class="cls-22" d="M88,152.83c1.48-10.42,1.4-19.41-4.26-23.14C79.65,127,77.22,138,76.1,146.25c-.27,2-2.14,11.08-2.59,13.23-2.76.66-17.71,10.38-19.58,12.16.47.94,4,3.54,5,9.18,6.21-1.37,16-7.41,22.53-10.76C86.25,167.58,87.33,157.72,88,152.83Z"/></g></g></g></g></g></g></g></g></g></g></svg>