<svg xmlns="http://www.w3.org/2000/svg" viewBox="0 0 1593.67 761.28"><defs><style>.cls-1{fill:#272727;opacity:0.4;isolation:isolate;}.cls-2{fill:#fff;}.cls-3,.cls-6,.cls-9{fill:#edcd00;}.cls-3,.cls-9{stroke:#fff;stroke-miterlimit:10;}.cls-3{stroke-width:0.59px;}.cls-4{fill:#263238;}.cls-5{fill:#455a64;}.cls-7{opacity:0.3;}.cls-8{opacity:0.2;}.cls-9{stroke-width:0.66px;}.cls-10{fill:#b29000;}.cls-11{fill:#2b2b2b;}.cls-12{fill:#444;}.cls-13{fill:#383838;}.cls-14{fill:#212121;}.cls-15{fill:#efe8eb;}.cls-16{fill:#ffad97;}.cls-17{fill:#ffc5b3;}.cls-18,.cls-20{fill:#b59eab;}.cls-19{fill:#eadce1;}.cls-20{opacity:0.5;}.cls-21{fill:#9b8790;}.cls-22{fill:#ddccd3;}.cls-23{fill:#0156bd;}.cls-24{fill:#474747;}.cls-25{fill:#ccb8c1;}.cls-26{fill:#e2c227;}</style></defs><g id="Camada_2" data-name="Camada 2"><g id="Camada_1-2" data-name="Camada 1"><g id="Robô"><path class="cls-1" d="M162.24,494.62c-58.87,18.66-10.87,87,76.67,62C293.47,541.21,254.6,465.44,162.24,494.62Z"/><path class="cls-2" d="M225.05,501.92a.43.43,0,1,1,.4.75.41.41,0,0,1-.4,0s0,0,0,0a.42.42,0,0,1,0-.6h0"/><path class="cls-3" d="M263.69,345.29s-2.88,12.42-2.43,14.45c2.83,6.48,5.8,12.67,8.86,18.49,0,0-.35,12.91-.42,14.72s1.74,1.55,1.91-.12,2.58-16,1.61-19.09c-1.23-3.43-2.53-6.69-3.93-9.74l1.67-8.36Z"/><path class="cls-3" d="M247,227.74c6.18,8.29,10,14.06,16.17,22.17,3.47,4.61,7.73,10.73,10.77,15.62a39.11,39.11,0,0,1,5,13.1,67.5,67.5,0,0,1,.81,13.91,288,288,0,0,1-8.2,59.08l-6.58-12,1.81-54.3-24.09-33.66,3.38-22.79c0-1,.34-1.6.74-1.4Z"/><path class="cls-4" d="M250.13,229.19c-4.73-6.3-9.67-3.56-11.12,6.29A44.58,44.58,0,0,0,239,247c.38,3.19,1.24,6.85,3,7a1.54,1.54,0,0,0,1.45-.74C247.22,248.56,249.61,239.93,250.13,229.19Z"/><path class="cls-5" d="M245.56,225.93l.08-.22a1.45,1.45,0,0,1,.49.18,1.37,1.37,0,0,1,.36.46,2.7,2.7,0,0,1,.37.81,4.34,4.34,0,0,1,.15,1.24l0,1.24a53.56,53.56,0,0,1-1,12.57,21,21,0,0,1-3.45,8.76,1.44,1.44,0,0,1-1.66.64,1.12,1.12,0,0,1-.65-.54,1.59,1.59,0,0,0,.64.23,1.64,1.64,0,0,0,1.52-.87,24.71,24.71,0,0,0,3.25-8.83,57.57,57.57,0,0,0,1.06-12.15,8.8,8.8,0,0,0-.13-2.23,2,2,0,0,0-.54-1.2C245.8,226,245.55,226,245.56,225.93Z"/><path class="cls-2" d="M266.71,285.42a4.93,4.93,0,0,1,.35-.82,21.49,21.49,0,0,1,1-2.32,14.47,14.47,0,0,1,1.71-2.72,6.44,6.44,0,0,1,2.47-1.92,5.16,5.16,0,0,1,5,.84,8,8,0,0,1,1.49,1.3,1.88,1.88,0,0,1,.55.64,17.72,17.72,0,0,0-2-1.35,5.48,5.48,0,0,0-5-.85,6.79,6.79,0,0,0-2.41,1.77,14.46,14.46,0,0,0-1.69,2.55C267.19,284.17,266.73,285.61,266.71,285.42Z"/><path class="cls-2" d="M245,250.54s5.32,6.57,11.8,15.06,11.73,15.56,11.69,15.8-5.33-6.57-11.77-15.2S245,250.67,245,250.54Z"/><path class="cls-2" d="M269.47,347.5a2.37,2.37,0,0,0,.1-.7l.3-1.92c.27-1.62.68-4,1.14-7.05.94-5.91,2.12-14.43,3.13-23.95.53-4.88.86-9.47,1.24-13.68s.58-8.13.73-11.39c.1-1.64.14-3.18.21-4.48l.11-3.41.06-2.14c0-.5,0-.75.07-.71V281c0,1,0,2.13-.1,3.43s-.05,2.89-.13,4.49c-.12,3.35-.36,7.24-.66,11.53s-.69,9.06-1.23,13.78q-1.27,12.24-3.23,23.88c-.48,3-.91,5.34-1.24,6.91l-.37,1.84A5.33,5.33,0,0,1,269.47,347.5Z"/><path class="cls-2" d="M264.49,272.78c-.15-.06-.3.18-.26.61l0,.11c-.05.11.24.58.38.49h0a1.54,1.54,0,0,0-.05-1h0"/><path class="cls-2" d="M274.42,287.79c-.18-.07-.3.1-.32.45l0,.24c0,.35.2.57.33.5s.18-.41.16-.73a1,1,0,0,0-.19-.46"/><path class="cls-2" d="M273.3,308c-.18-.07-.3.1-.32.45l0,.24c.07.39.26.6.39.47h0a1.54,1.54,0,0,0,0-.95l-.13-.06"/><path class="cls-2" d="M258.46,264.51c-.17-.07-.31.18-.25.58a.21.21,0,0,0,0,.11c.06.39.22.61.37.52h0a1.47,1.47,0,0,0,0-.88l-.1-.17"/><path class="cls-2" d="M251.69,255.08a1.16,1.16,0,0,1-.2-.9l0-.13c.1-.24.25-.23.33.13a1.86,1.86,0,0,1,.1.25c0,.37-.07.71-.3.69h0"/><path class="cls-4" d="M271.6,352a140.82,140.82,0,0,0-6.47-12.73c-.9-1.58-2-3.2-2.87-2.34a7,7,0,0,0-.78,4.32,24.94,24.94,0,0,0,1,5.14,35.78,35.78,0,0,0,5.46,11.84,4.22,4.22,0,0,0,2.33,1.88c.83.15,1.52-.76,1.87-2.43a11.36,11.36,0,0,0-.53-5.69"/><path class="cls-5" d="M261.86,339.1s.36,1.63,1,4.14a39.51,39.51,0,0,0,3.22,8.52,13.91,13.91,0,0,0,4.14,5c1.12.74,1.82.77,1.82.95s-.11.26-.5.05a4,4,0,0,1-1.3-.55c-3-1.7-5.82-6.83-7.48-13.74-.23-1-.44-2.1-.62-3.18A4.39,4.39,0,0,1,261.86,339.1Z"/><path class="cls-4" d="M233.73,306.84a14.59,14.59,0,0,1-5.58,3.3,43.83,43.83,0,0,1-6.61,2.21,61.17,61.17,0,0,1-8.5,1.37,59.19,59.19,0,0,1-8.63,0,49.38,49.38,0,0,1-6.94-1.21c-3.86-1-6-2.14-6-2.47a22.62,22.62,0,0,1,6.35.57c1.91.26,4.22.45,6.62.59s5.31,0,8.26,0a77.58,77.58,0,0,0,8.16-1.09c2.47-.49,4.73-1,6.61-1.55C231.26,307.27,233.54,306.47,233.73,306.84Z"/><path class="cls-4" d="M232.29,312.66c0,.33-1.83,1.38-5.22,2.51a59.7,59.7,0,0,1-27.56,2c-3.48-.59-5.57-1.32-5.5-1.72s8.68.43,19.2-.4S232.08,311.86,232.29,312.66Z"/><path class="cls-6" d="M198.42,160s-35,3.92-36.86,35,27.83,27.93,36.53,27.44c3.83-.23,11.63-.78,19-1.32,15.56-1.11,27.59-7.78,29.58-23.23a29.82,29.82,0,0,0,.39-5.5C245.84,175.79,232.09,155,198.42,160Z"/><path class="cls-4" d="M233.69,193.77,188.8,200a8.57,8.57,0,0,1-9.67-7.27h0a8.57,8.57,0,0,1,7.27-9.68h0l44.89-6.24a8.63,8.63,0,0,1,9.69,7.32h0A8.61,8.61,0,0,1,233.69,193.77Z"/><circle class="cls-2" cx="195.4" cy="191.19" r="2.75" transform="translate(-9.17 372.54) rotate(-85.93)"/><circle class="cls-2" cx="226.75" cy="186.81" r="2.75" transform="matrix(0.07, -1, 1, 0.07, 24.33, 399.75)"/><path class="cls-2" d="M210.77,177.4a26.07,26.07,0,0,1-1.26-3.21,29.89,29.89,0,0,0-3.79-7.34,15.64,15.64,0,0,0-6.25-5.35,21.78,21.78,0,0,0-3.23-1.06,3.09,3.09,0,0,1,.91.07,11.23,11.23,0,0,1,2.48.67,14.74,14.74,0,0,1,6.7,5.38,26.17,26.17,0,0,1,3.71,7.53c.33,1,.57,1.83.72,2.41A2.48,2.48,0,0,1,210.77,177.4Z"/><path class="cls-2" d="M208.75,221.79a28.43,28.43,0,0,0,2.33-2.69,19.2,19.2,0,0,0,3.62-7.66,32.72,32.72,0,0,0,.6-8.55,22.5,22.5,0,0,1-.21-3.58,5.19,5.19,0,0,1,.24.94l.35,2.62a29.73,29.73,0,0,1-.38,8.68,18,18,0,0,1-3.86,7.82,23.57,23.57,0,0,1-1.85,1.89A4.39,4.39,0,0,1,208.75,221.79Z"/><g class="cls-7"><path d="M241.7,210.57a27.45,27.45,0,0,0-13.19-5,68.66,68.66,0,0,0-14.26-.07c-11,.89-22.25,2.64-31.52,8.61a17,17,0,0,0-6.44,6.62A35.38,35.38,0,0,0,191.71,223c9.32-.61,27.33-1.94,27.33-1.94a43.2,43.2,0,0,0,15.88-4.74A24.16,24.16,0,0,0,241.7,210.57Z"/></g><path class="cls-2" d="M243.66,183.32a7.7,7.7,0,0,1,.28,1.65,10.45,10.45,0,0,1-.75,4.66,11,11,0,0,1-5.11,5.44,29.84,29.84,0,0,1-9.62,2.62l-25.41,3.72-7.32,1.06c-2.52.31-5.08.79-7.73.93a11.75,11.75,0,0,1-7.8-1.87,11.22,11.22,0,0,1-2.86-15.09,12.23,12.23,0,0,1,6.32-5,19.2,19.2,0,0,1,3.83-.81l3.8-.63,7.32-1.17L212,176.69c4.27-.6,8.18-1.52,11.82-2a39.49,39.49,0,0,1,5.21-.31,17.62,17.62,0,0,1,4.7.33,14.63,14.63,0,0,1,6.6,3.33,10.57,10.57,0,0,1,2.68,3.89,8.17,8.17,0,0,1,.36,1.16l0,.4s-.17-.56-.55-1.53a10.54,10.54,0,0,0-2.73-3.78,14.14,14.14,0,0,0-6.4-3.16,18.51,18.51,0,0,0-4.58-.33,34.41,34.41,0,0,0-5.17.39c-3.62.47-7.53,1.37-11.77,2l-13.43,2.34-7.3,1.21-3.79.6a22,22,0,0,0-3.77.82,11.46,11.46,0,0,0-6,4.79,10.68,10.68,0,0,0-1.49,7.7,10.91,10.91,0,0,0,4.27,6.36,11.56,11.56,0,0,0,7.46,1.81c2.59-.15,5.14-.6,7.64-.94l7.37-1.06,25.42-3.55a31.38,31.38,0,0,0,9.47-2.37,10.57,10.57,0,0,0,5.08-5.18,10,10,0,0,0,.84-4.54A11.81,11.81,0,0,0,243.66,183.32Z"/><path class="cls-2" d="M161.68,200.26a7.83,7.83,0,0,1,1.8-1.38,34.59,34.59,0,0,1,4.89-2.49,30.28,30.28,0,0,1,5.18-1.56,7.77,7.77,0,0,1,2.24-.31c0,.21-3.38.79-7.24,2.38S161.81,200.48,161.68,200.26Z"/><path class="cls-2" d="M200.45,164.59a.42.42,0,0,1,.45.18.44.44,0,0,1-.11.62.39.39,0,0,1-.39,0,.44.44,0,0,1-.15-.6.41.41,0,0,1,.2-.17"/><path class="cls-2" d="M205.41,172.75h0a.46.46,0,0,1,.61.25.49.49,0,0,1,0,.12h0a.46.46,0,0,1-.48.46h-.14a.47.47,0,0,1-.07-.66h.12"/><path class="cls-2" d="M170.57,193h0a.45.45,0,0,1,.59.22.33.33,0,0,1,0,.17h0a.46.46,0,0,1-.5.43h-.14l0,0a.47.47,0,0,1,.07-.66h0"/><path class="cls-2" d="M163.44,196.4a.44.44,0,0,1,.6.16v.23a.45.45,0,0,1-.48.42h-.17a.5.5,0,0,1,.05-.7h0"/><g class="cls-7"><path class="cls-2" d="M207.81,161.26a33.32,33.32,0,0,1-8.18,2.3,64.81,64.81,0,0,0-18.56,7.17,37.41,37.41,0,0,0-8.19,7,30.61,30.61,0,0,0-4.75,7.43c-2,4.61-2,7.94-2.56,7.9s-.46-.85-.35-2.38a20,20,0,0,1,1.1-6.27,28,28,0,0,1,4.6-8.3,35.18,35.18,0,0,1,8.76-7.69,47.27,47.27,0,0,1,10.55-4.7,65.68,65.68,0,0,1,9.09-2.06A23.32,23.32,0,0,1,207.81,161.26Z"/></g><g class="cls-7"><path class="cls-2" d="M170.75,208.76c-.48.48-2.43-.41-3.75-2.63s-1.39-4.34-.58-4.52,1.8,1.28,2.94,3.09S171.23,208.28,170.75,208.76Z"/></g><path class="cls-6" d="M242.2,225c2.09.58,2,31.06,1.53,46.64-.28,8.33-.87,17-5.13,24.19a29.1,29.1,0,0,1-23.13,13.71A38.48,38.48,0,0,1,185.7,296.8,63.26,63.26,0,0,1,171.14,267a187.34,187.34,0,0,1-3.32-33.32S203.8,214.18,242.2,225Z"/><g class="cls-8"><path d="M169.42,248.35a82,82,0,0,0,4.7,29.36,53.69,53.69,0,0,0,16.48,23.53,49.22,49.22,0,0,0,7.31,4.71,30.63,30.63,0,0,0,6.92,2.56c4,1.16,6.31-3.69,7.06-7.71a15,15,0,0,0-3.1-11.49,34.12,34.12,0,0,0-9.28-7.93,113.83,113.83,0,0,1-10.21-6.8,46.41,46.41,0,0,1-12.45-16.77A142.25,142.25,0,0,1,169.79,238"/></g><path class="cls-2" d="M195.18,289.93a.47.47,0,0,1,.64.14.54.54,0,0,1,0,.18v0a.44.44,0,0,1-.47.42h-.17a.49.49,0,0,1,0-.69h0"/><path class="cls-2" d="M208.64,289.38h0a.42.42,0,0,1,.55.24v0a.4.4,0,0,1-.25.51.38.38,0,0,1-.33,0v0a.47.47,0,0,1,0-.66h0"/><path class="cls-2" d="M223.45,275.43a.5.5,0,0,1,.63.16.48.48,0,0,1,0,.17h0a.47.47,0,0,1-.47.47h-.15a.49.49,0,0,1,0-.7h0"/><path class="cls-2" d="M216.55,241a.51.51,0,0,1,.64.17.43.43,0,0,1,0,.16h0a.47.47,0,0,1-.47.47h0a.47.47,0,0,1,0-.66h0"/><path class="cls-2" d="M230.48,246.72h0a.47.47,0,0,1,.63.21h0v0a.4.4,0,0,1-.38.42.37.37,0,0,1-.21,0h0a.45.45,0,0,1-.1-.62h.12"/><path class="cls-2" d="M179.89,285.92h0a.43.43,0,0,1,.61.16v.21a.44.44,0,0,1-.47.42h-.16l0,0a.45.45,0,0,1,0-.63h0"/><path class="cls-2" d="M177.65,274.54h0a.45.45,0,0,1,.6.22h0a.47.47,0,0,1-.45.49h-.15a.48.48,0,0,1-.11-.66h.12"/><path class="cls-2" d="M176.71,264.11a.5.5,0,0,1,.5.07.49.49,0,0,1,0,.17v0a.49.49,0,0,1-.5.45h0a.53.53,0,0,1,0-.71h0"/><path class="cls-2" d="M175.68,253.05a.49.49,0,0,1,.63.17.43.43,0,0,1,0,.16h0a.47.47,0,0,1-.47.47h-.15a.49.49,0,0,1,0-.69h0"/><path class="cls-2" d="M238.67,244a.41.41,0,0,1,.56.18v0a.42.42,0,0,1-.17.57.41.41,0,0,1-.4,0,.47.47,0,0,1,0-.66h0"/><path class="cls-2" d="M225.73,288.3a.49.49,0,0,1,.63.17.43.43,0,0,1,0,.16h0a.47.47,0,0,1-.47.47h-.17a.44.44,0,0,1,0-.63h0"/><path class="cls-2" d="M227.19,299.29a.46.46,0,0,1,.63.17.22.22,0,0,1,0,.16v0a.48.48,0,0,1-.52.47h-.12a.49.49,0,0,1,0-.7h0"/><g class="cls-7"><path class="cls-2" d="M233.61,233.22a25.78,25.78,0,0,1-8.73,3.31A93.59,93.59,0,0,1,215,238.6a114.53,114.53,0,0,1-12.4,1.16,107.27,107.27,0,0,1-12.42-.33,94.11,94.11,0,0,1-9.91-1.39,25.91,25.91,0,0,1-9-2.71c0-.82,14,2.36,31.35,1.7S233.45,232.42,233.61,233.22Z"/></g><path class="cls-2" d="M193.87,303.74l-.57-.47-1.55-1.41a21.93,21.93,0,0,1-4.42-6.17,28.6,28.6,0,0,1-1.75-5c-.56-1.86-1.1-3.81-1.67-5.88-1.08-4.22-2.16-8.73-3.13-13.63a221.76,221.76,0,0,1-3.46-25.27c-.23-3.3-.47-5.84-.47-7.67V235.5a1.8,1.8,0,0,1,0,.73v2.07c0,1.83.33,4.45.64,7.65A238.22,238.22,0,0,0,181.14,271c.94,4.84,2,9.46,3.1,13.57.52,2.1,1.06,4.05,1.58,5.89a31.07,31.07,0,0,0,1.69,5,21.58,21.58,0,0,0,4.22,6.29l1.45,1.53A1.35,1.35,0,0,1,193.87,303.74Z"/><path class="cls-2" d="M218.36,270c.19,0,1.27,8.38,2.54,18.83s2.22,18.7,2,18.82-1.29-8.35-2.56-18.71S218.17,270,218.36,270Z"/><path class="cls-2" d="M202.53,223.05a6.07,6.07,0,0,1,.77.75c.45.5,1.09,1.25,1.89,2.19,1.57,1.88,3.76,4.45,6.11,7.34l.85,1.09h0a.22.22,0,0,1,0,.16v.24h0v.68a10.47,10.47,0,0,0,.21,2.56v7.06a3.76,3.76,0,0,1,0,1.06,27.2,27.2,0,0,1-.35-3.93l-.26-4.28a11.84,11.84,0,0,0-.19-2.52v-.63h0l-.16-.24-.9-1.06c-2.35-2.87-4.47-5.5-6-7.43-.73-1-1.37-1.79-1.77-2.36A3.2,3.2,0,0,1,202.53,223.05Z"/><path class="cls-2" d="M219.33,286a8.33,8.33,0,0,1-1.32.26c-.87.16-2.09.33-3.65.52-3.06.37-7.32.84-12,1s-9,.19-12.1.19h-3.67a4.17,4.17,0,0,1-1.32,0,5.83,5.83,0,0,1,1.32,0h3.67c3.11,0,7.34,0,12-.35s9-.57,12.05-.87l3.62-.33Z"/><path class="cls-2" d="M243.73,245.36a6.16,6.16,0,0,1-.71.52L240.91,247a44.94,44.94,0,0,1-7.44,2.85,62.38,62.38,0,0,1-7.77,1.76,15.14,15.14,0,0,1-3.29.28,23.15,23.15,0,0,1,3.29-.68c2-.4,4.71-1,7.68-1.88a61.53,61.53,0,0,0,7.43-2.68A17.88,17.88,0,0,0,243.73,245.36Z"/><circle class="cls-4" cx="214.88" cy="258.16" r="12.33"/><circle class="cls-2" cx="216.39" cy="257.5" r="8.99"/><path class="cls-6" d="M219.61,260a10.51,10.51,0,0,1-.19-1.48c0-.92-.21-2.26-.35-3.86v.38l-4.71-2.36h.31l-4.45,2.94c0,.24.17-.23,0-.23h0v5.27l-.16-.21,4.7,2.35h-.21l3.32-2a5.3,5.3,0,0,1,1.29-.73l-1.13.82a36.17,36.17,0,0,1-3.31,2.36h0l-4.83-2.36h0v-5.41h0s.24-.47,0-.28l4.47-2.89h0l4.71,2.35h0v4A10.69,10.69,0,0,1,219.61,260Z"/><g class="cls-8"><path d="M167.7,233.69s36.12-19.84,74.36-8.66C242.2,225,225.68,240.58,167.7,233.69Z"/></g><path class="cls-2" d="M225.89,476.41a.44.44,0,0,1,.59.19.45.45,0,0,1-.16.59.79.79,0,0,1-.43,0,.47.47,0,0,1,0-.66h0"/><path class="cls-6" d="M210.17,341.34a332.44,332.44,0,0,0,9.93,76.26,26.44,26.44,0,0,0,5.51,11.91,9.41,9.41,0,0,0,12,1.95,14.07,14.07,0,0,0,4-10.18,787.93,787.93,0,0,0,5.46-82.95s.82-21.18-14.12-21.18S209.8,325.57,210.17,341.34Z"/><g class="cls-8"><path d="M220.67,319.5a5.9,5.9,0,0,1,7.93-.26,11.42,11.42,0,0,1,3.72,7.77c1.06,9.22-3.3,18.07-5.06,27.2s-.38,17.91-.8,26.76S224.1,398.9,217,404.5c0,0-6.61-34.38-5.78-47.51C211.84,347.44,220.67,319.5,220.67,319.5Z"/></g><path class="cls-2" d="M222.62,354.14a2,2,0,0,1,0,.78l.28,2.35.85,8.45c.73,7.15,1.84,17,3.32,27.88s2.87,20.71,4,27.77l1.3,8.4.33,2.35V433a3.21,3.21,0,0,1-.19-.8l-.45-2.35c-.38-2-.89-4.83-1.48-8.38-1.18-7.06-2.71-16.9-4.1-27.77s-2.42-20.82-3.08-27.88c-.33-3.58-.56-6.61-.68-8.5v-2.35C222.62,354.4,222.62,354.14,222.62,354.14Z"/><path class="cls-4" d="M200.62,359.88a18.07,18.07,0,0,0,21.74-6.4c4.83-7,6.36-15.81,7.74-24.23a10.71,10.71,0,0,0-.91-8.29c-2.05-2.61-5.84-2.73-9.11-2.61l-31.2,1s-11.34,3.32-11.34,9.93S191.09,355.13,200.62,359.88Z"/><path class="cls-6" d="M227.49,435.21a9.11,9.11,0,0,0-7.5,6,26.14,26.14,0,0,0-1.6,9.91c-.73,20.47-1.46,41-.29,61.39a22,22,0,0,0,3.3,12.66c2.7,3.5,8.49,5,11.58,1.74a11.81,11.81,0,0,0,2.35-7.06l7.93-73.16a13.24,13.24,0,0,0-.83-8.14,8.85,8.85,0,0,0-6.61-3.86,24.36,24.36,0,0,0-7.93.68"/><path class="cls-2" d="M223.33,531.52v-1c0-.61-.31-1.57-.31-2.77-.23-2.4-.49-6-.68-10.29-.42-8.68-.35-20.7,0-34s.75-25.22,1.06-34a28.89,28.89,0,0,1,1.74-10.12,19.34,19.34,0,0,1,1.32-2.51l.44-.57h0l-.4.61a15.41,15.41,0,0,0-1.22,2.52,31.34,31.34,0,0,0-1.6,10.07c-.21,8.73-.54,20.71-.89,34s-.52,25.27-.22,34c0,4.35.36,7.93.52,10.28l.21,2.8v1Z"/><path class="cls-4" d="M219.87,533.14a23.19,23.19,0,0,1-.31-6.28,8.05,8.05,0,0,1,2.71-5.44,8.7,8.7,0,0,1,4.7-1.55,8.37,8.37,0,0,1,4.71.66,7.94,7.94,0,0,1,4,6.14l1.6,7.62"/><path class="cls-6" d="M219.33,532.79l18.14.19s13.22,3,13.22,4.09-31.76-.21-31.76-.21Z"/><path class="cls-5" d="M214.79,319.32a9.57,9.57,0,0,1,.63,1.64,14.67,14.67,0,0,1,.57,2c.18.8.47,1.64.63,2.63s.39,2.21.5,3.32a24.62,24.62,0,0,1,.32,3.76,48.22,48.22,0,0,1-.54,8.66,43.24,43.24,0,0,1-2.11,8.4,36.22,36.22,0,0,1-1.49,3.51c-.26.52-.49,1.06-.75,1.51l-.75,1.38a24.21,24.21,0,0,1-1.51,2.36,13.33,13.33,0,0,1-1.18,1.64,8.73,8.73,0,0,1-1.15,1.35,11.71,11.71,0,0,1,.94-1.46,16.61,16.61,0,0,0,1.18-1.7c.38-.7.92-1.46,1.34-2.35l.75-1.39.73-1.53c.5-1.06.94-2.23,1.39-3.29a46.25,46.25,0,0,0,2.61-16.9,21.28,21.28,0,0,0-.21-3.74c-.23-1.18-.3-2.23-.47-3.29s-.38-1.89-.54-2.66-.33-1.41-.45-2A16.25,16.25,0,0,1,214.79,319.32Z"/><path class="cls-2" d="M229.05,380.52h0a.41.41,0,0,1,.58.12.38.38,0,0,1,0,.21v0a.45.45,0,0,1-.44.45h-.14a.51.51,0,0,1,0-.71h0"/><path class="cls-2" d="M231.7,403.09h0a.47.47,0,0,1,.63.22.24.24,0,0,1,0,.12h0a.43.43,0,0,1-.38.47h-.21v0a.45.45,0,0,1-.11-.62l.12-.12"/><path class="cls-2" d="M226.41,357.53h0a.42.42,0,0,1,.59.12.37.37,0,0,1,0,.21.47.47,0,0,1-.45.47h-.14l0,0a.46.46,0,0,1,0-.66h0"/><path class="cls-2" d="M226.41,454.92h0a.42.42,0,0,1,.58.15.28.28,0,0,1,0,.18.5.5,0,0,1-.45.5h-.15a.5.5,0,0,1,0-.7h0"/><path class="cls-5" d="M236.08,526.81a8.21,8.21,0,0,1-2.35.87,31.15,31.15,0,0,1-6,1,29.9,29.9,0,0,1-6.05-.28,8.36,8.36,0,0,1-2.35-.59,68.13,68.13,0,0,0,8.45.31A72.41,72.41,0,0,0,236.08,526.81Z"/><g class="cls-8"><path d="M217.44,496.93a28.08,28.08,0,0,0,9.63-14.73,82.27,82.27,0,0,0,2.63-17.65,80.36,80.36,0,0,1,2.71-17.65,8.14,8.14,0,0,0,.57-3.81,6.85,6.85,0,0,0-4.43-4.1,7.32,7.32,0,0,0-7.36-.35,7.41,7.41,0,0,0-2.07,5.3,487.16,487.16,0,0,0-1.51,53.76"/></g><circle class="cls-4" cx="233.07" cy="432.1" r="12.92"/><path class="cls-5" d="M245.35,430.24a7.56,7.56,0,0,1-.7.8,10,10,0,0,1-2.36,1.67,16.26,16.26,0,0,1-9.06,2.05,32.58,32.58,0,0,1-9.1-1.84c-1.18-.37-2-.7-2.68-1s-.92-.4-.92-.4a26.08,26.08,0,0,1,3.69,1,39.9,39.9,0,0,0,9.06,1.69,17.63,17.63,0,0,0,8.85-1.86A27.67,27.67,0,0,0,245.35,430.24Z"/><path class="cls-6" d="M188.93,434.22a9.39,9.39,0,0,0-7.06,6.37,27,27,0,0,0-1,9.91c.49,20.47,1,41,3.32,61.3a22.41,22.41,0,0,0,4.11,12.42c3,3.3,8.9,4.47,11.77,1.09a11.8,11.8,0,0,0,1.95-7.2l3.6-73.49a13.12,13.12,0,0,0-1.32-8.07,8.92,8.92,0,0,0-6.87-3.51,27.57,27.57,0,0,0-7.86,1.18"/><path class="cls-6" d="M171.7,341.76A330.86,330.86,0,0,0,181.61,418a26.32,26.32,0,0,0,5.48,11.76,9.41,9.41,0,0,0,12,2,13.85,13.85,0,0,0,4.11-10.17,787.47,787.47,0,0,0,5.37-82.95s.8-21.17-14.12-21.17S171.25,325.88,171.7,341.76Z"/><g class="cls-7"><path class="cls-2" d="M184.12,421.51a74.12,74.12,0,0,1-3.31-14.12c-1.63-8.78-3.67-21.08-5.25-34.66-.82-6.82-1.44-13.22-1.88-19.25a76.42,76.42,0,0,1-.31-15.93,23.58,23.58,0,0,1,3.3-10.28l1.05-1.37a11.64,11.64,0,0,1,.88-.89c.49-.45.77-.66.84-.61s-.21.61-.42.94-.42.68-.61,1l-.8,1.42a25.82,25.82,0,0,0-2.36,9.93,88.32,88.32,0,0,0,.87,15.5c.62,5.89,1.3,12.36,2.08,19.13,1.6,13.53,3.31,25.79,4.47,34.71A81.56,81.56,0,0,1,184.12,421.51Z"/></g><path class="cls-2" d="M192.6,432.66v-.28l-.24-.89-.75-3.3c-.66-3-1.56-7.1-2.52-12.37-1.88-10.5-3.86-25.11-5.25-41.32-.73-8.1-1.29-15.77-1.79-22.83l-.73-9.93a73,73,0,0,1-.23-8.75,23.63,23.63,0,0,1,1.36-7.06,15.51,15.51,0,0,1,2.64-4.71,14.51,14.51,0,0,1,2.35-2.35,5.29,5.29,0,0,1,1-.64,14.65,14.65,0,0,0-3.44,3.18,15.9,15.9,0,0,0-2.49,4.71,23.52,23.52,0,0,0-1.27,7.06,70.21,70.21,0,0,0,.3,8.7c.24,3.11.5,6.45.76,9.91.54,7,1.1,14.78,1.83,22.87,1.39,16.21,3.3,30.78,5.11,41.3.92,5.34,1.74,9.48,2.35,12.4l.68,3.29.17.87Z"/><path class="cls-2" d="M189.49,524a6.32,6.32,0,0,1,0-.87,9.47,9.47,0,0,0-.28-2.54c-.28-2.24-.61-5.37-1-9.29-.8-7.86-1.74-18.71-2.35-30.81s-1-23.13-1-30.92V437.65a3.32,3.32,0,0,1,0-.89v3.43c0,2.36,0,5.51.19,9.42.21,7.9.54,18.89,1.2,30.87s1.49,22.92,2.17,30.8c.33,4,.61,7.06.8,9.41l.23,2.55C189.47,523.73,189.49,524,189.49,524Z"/><circle class="cls-4" cx="192.74" cy="432.38" r="12.92"/><path class="cls-4" d="M185.11,535.64a62.17,62.17,0,0,1,.59-9.93,7.92,7.92,0,0,1,3.63-5,10.26,10.26,0,0,1,9.41.47,8,8,0,0,1,3.06,6.61l.44,7.77"/><path class="cls-6" d="M185.47,533.07l18.19-.16s13.41,2.73,13.22,3.83-31.81.45-31.81.45Z"/><path class="cls-2" d="M186,362.85h0a.43.43,0,0,1,.58.17.45.45,0,0,1-.19.59.41.41,0,0,1-.4,0l0,0a.44.44,0,0,1,0-.63h0"/><path class="cls-2" d="M184.71,343.53l0,0a.46.46,0,0,1,.61.18v.19a.46.46,0,0,1-.47.43h-.17a.53.53,0,0,1,0-.71h0"/><path class="cls-2" d="M187.61,386.78a.47.47,0,0,1,.63.16v.2a.52.52,0,0,1-.59.44h0a.53.53,0,0,1,0-.71h0"/><path class="cls-2" d="M190.83,413.65h0a.4.4,0,0,1,.54.18h0a.41.41,0,0,1-.17.57.36.36,0,0,1-.4,0h0a.44.44,0,0,1,0-.63.24.24,0,0,1,0-.12"/><path class="cls-2" d="M187.23,454.45a.48.48,0,0,1,.64.15v.18a.5.5,0,0,1-.47.45h-.17l0,0a.45.45,0,0,1,0-.63h0"/><path class="cls-2" d="M189.37,475.56a.48.48,0,0,1,.64.17v.16h0a.47.47,0,0,1-.47.47h-.17a.47.47,0,0,1,0-.66h0"/><path class="cls-2" d="M189.49,499.21h0a.47.47,0,0,1,.63.21.24.24,0,0,1,0,.12h0a.43.43,0,0,1-.38.47.37.37,0,0,1-.21,0,.44.44,0,0,1-.14-.59h.14"/><path class="cls-5" d="M205.3,429.93a3.86,3.86,0,0,1-.75.76,14.17,14.17,0,0,1-2.35,1.72,18.37,18.37,0,0,1-18.66.37,15.91,15.91,0,0,1-2.36-1.62,2.93,2.93,0,0,1-.8-.73,32.55,32.55,0,0,0,3.3,2,19.48,19.48,0,0,0,18.26-.45A20.93,20.93,0,0,0,205.3,429.93Z"/><path class="cls-5" d="M201.75,527.52a7.36,7.36,0,0,1-2.35.89,25.7,25.7,0,0,1-5.84.94,26,26,0,0,1-5.91-.4,8.7,8.7,0,0,1-2.35-.63,54,54,0,0,0,8.24.47A53.08,53.08,0,0,0,201.75,527.52Z"/><path class="cls-2" d="M214.82,188.47a2.6,2.6,0,0,1-.13,1.78,4.23,4.23,0,0,1-3.31,2.74,4.31,4.31,0,0,1-2.45-.34,4,4,0,0,1-1.54-1.27,2.6,2.6,0,0,1-.68-1.67,10,10,0,0,0,.91,1.5,4.66,4.66,0,0,0,1.5,1.1,4,4,0,0,0,2.21.16,4.24,4.24,0,0,0,2-.92,4.46,4.46,0,0,0,1.07-1.48A6.36,6.36,0,0,0,214.82,188.47Z"/><path class="cls-9" d="M160.39,347.51l3.94,5.67a57.35,57.35,0,0,0-5.3,6.64c-1.23,2.12,4.79,11.85,5.3,13s3.48,1.3,3.24.06-2.72-10-2.72-10a165,165,0,0,0,12.44-12.65c.46-1.38-6.08-9.81-6.08-9.81Z"/><path class="cls-5" d="M154.14,344.78a24.26,24.26,0,0,0,3.71.25,19.91,19.91,0,0,0,15.49-7.39c1.45-1.82,2.11-3.1,2.2-3a4.39,4.39,0,0,1-.41.94,14.86,14.86,0,0,1-1.47,2.29,18.6,18.6,0,0,1-15.89,7.49A14.06,14.06,0,0,1,155,345,2.92,2.92,0,0,1,154.14,344.78Z"/><path class="cls-6" d="M171.46,332.53l-15.73,8.11s-12.41-42.12-13.68-49.82,24.87-52,24.87-52L185,250.22l-21.3,38.57Z"/><path class="cls-2" d="M142,288a32.07,32.07,0,0,0,3.07,1.48,20.8,20.8,0,0,0,3.36,1.06,22.18,22.18,0,0,0,4.36.65,25,25,0,0,0,4.41-.25,20.91,20.91,0,0,0,3.48-.81,33.07,33.07,0,0,0,3.13-1.18,2.49,2.49,0,0,1-.75.49,12.31,12.31,0,0,1-2.24,1,21.31,21.31,0,0,1-8,1.27,21.68,21.68,0,0,1-4.45-.68,16.92,16.92,0,0,1-3.44-1.27,14.23,14.23,0,0,1-2.09-1.16A2.94,2.94,0,0,1,142,288Z"/><path class="cls-2" d="M150.5,290.57a6.79,6.79,0,0,1,.57-1.62l1.76-4.28c1.58-3.61,3.83-8.59,6.54-13.95s5.31-10.13,7.29-13.52a41.08,41.08,0,0,1,2.43-4.07,10.75,10.75,0,0,1,1.07-1.35,12.94,12.94,0,0,1-.74,1.55l-2.26,4.07c-1.86,3.47-4.41,8.25-7.12,13.61s-5,10.26-6.76,13.77l-2,4.23A12.86,12.86,0,0,1,150.5,290.57Z"/><path class="cls-2" d="M167,334.29s-2-9.84-4.12-21.94-3.61-21.9-3.55-22,2,9.79,4.15,21.93S167,334.29,167,334.29Z"/><path class="cls-2" d="M159.77,302.42v0a.44.44,0,0,1-.52.36l-.13-.1a.47.47,0,0,1-.25-.45.48.48,0,0,1,.51-.43.47.47,0,0,1,.43.5"/><path class="cls-2" d="M163,271.16v0a.4.4,0,0,1-.48.31h0a.43.43,0,0,1-.34-.5.39.39,0,0,1,.24-.31h0a.45.45,0,0,1,.55.31.23.23,0,0,1-.07.1"/><path class="cls-2" d="M157.17,282.65a.47.47,0,0,1-.52.4h0a.45.45,0,0,1-.36-.52.42.42,0,0,1,.3-.36.51.51,0,0,1,.55.44h0"/><path class="cls-2" d="M161.72,313.18v0a.45.45,0,0,1-.54.32.27.27,0,0,1-.12-.09h0a.44.44,0,0,1,0-.63h.05a.44.44,0,0,1,.45.4h0"/><path class="cls-2" d="M163.59,324.36v0a.44.44,0,0,1-.52.35l-.13-.1a.46.46,0,0,1,.46-.8.49.49,0,0,1,.24.42"/><g class="cls-7"><path class="cls-2" d="M163.61,285.53c-.59-.47,2.25-6.75,6.19-13.81s7.9-12.78,8.55-12.42-2.1,6.55-6.17,13.77S164.2,286,163.61,285.53Z"/></g><path class="cls-2" d="M168.23,261.23a.44.44,0,0,1-.49.36.46.46,0,0,1-.35-.52.4.4,0,0,1,.25-.31h0a.46.46,0,0,1,.48.42h0"/><path class="cls-4" d="M162.66,244.14a11.57,11.57,0,0,1,10-8.22A14.6,14.6,0,0,1,185,241.31a24,24,0,0,1,3.71,16.11"/><path class="cls-5" d="M188.32,257a26.37,26.37,0,0,0-1.17-4.81,16.17,16.17,0,0,0-2.56-4.59,16.54,16.54,0,0,0-4.9-4.14,23.55,23.55,0,0,0-11.23-3.12,8.4,8.4,0,0,0-3.48.47,4.12,4.12,0,0,0-1.12.72l.22-.31a3,3,0,0,1,.81-.61,7.6,7.6,0,0,1,3.55-.66,22.55,22.55,0,0,1,11.48,3,16.92,16.92,0,0,1,5.08,4.29,16,16,0,0,1,2.4,4.85,19.29,19.29,0,0,1,.75,3.53A8.62,8.62,0,0,1,188.32,257Z"/><path class="cls-4" d="M171.34,332.68A110,110,0,0,0,157,338.77c-1.85.93-4,2.26-4.06,4.34a4,4,0,0,0,2.34,3.56,8.72,8.72,0,0,0,4.49.56,24.74,24.74,0,0,0,12.87-4.51,10.12,10.12,0,0,0,3.34-3.6,4.69,4.69,0,0,0-.15-4.72,4.05,4.05,0,0,0-4.4-1.8"/></g><path class="cls-10" d="M1288.33,106.34V243.2c1.79,24.5,21.69,48.83,58.4,65.95,47.64,22.23,110.43,26.16,161.37,13.24v-216Z"/><path class="cls-11" d="M1593.53,243.2V143.4l-85.43-37.06V322.39c20.11-5.1,38.44-12.74,53.17-23.06C1584.56,283,1595,263.06,1593.53,243.2Z"/><path class="cls-6" d="M1320.59,50.21c-23.29,16.31-33.71,36.27-32.26,56.13h152.53V19.89C1395.54,18.86,1350.7,29.14,1320.59,50.21Z"/><path class="cls-6" d="M1288.33,158.15c1.79,24.49,21.69,48.82,58.4,65.94,47.64,22.23,110.43,26.16,161.37,13.25l-67.24-79.19Z"/><path class="cls-12" d="M1593.53,133.06c-1.79-24.5-21.69-48.83-58.4-65.95-28-13.06-61.26-19.76-94.27-20.51v86.46l67.24,79.19c20.11-5.11,38.44-12.75,53.17-23.06C1584.56,172.88,1595,152.92,1593.53,133.06Z"/><rect class="cls-10" x="1288.33" y="106.34" width="152.54" height="51.8"/><polygon class="cls-13" points="1508.1 212.25 1440.86 133.06 1440.86 158.15 1508.1 237.34 1508.1 212.25"/><path class="cls-14" d="M1336.21,97.78c-4.5,11.29-10.61,40.6-10.27,44.14.73,7.58,13.54,15.24,15.71,9.35,2.62-7.15,7.41-23.31,9-27.45,4.24-11.06,9.46-30.5,10.24-34.23.7-12.58,7-33.82,15.26-42.4,0,0-7.08-3.67-12.36,1.17-3.18,2.9-10.33,10.86-14,18C1348.08,69.82,1339.74,89,1336.21,97.78Z"/><path class="cls-13" d="M1270.93,290.57c-5.44,5.31-7.13,6.84-12.18,11.78-3,2.88-.52,5.52,5.1,5.31,5-.19,16.15-2.6,22.41-4.85,4.46-1.6,12.61-6.11,16.78-8.75a11.08,11.08,0,0,0,5-6.29V278.9L1281.23,280S1276.82,284.83,1270.93,290.57Z"/><path class="cls-13" d="M1318.08,318.55c-5.44,5.31-7.13,6.84-12.18,11.78-3,2.88-.53,5.53,5.1,5.31,5-.19,16.15-2.6,22.41-4.85,4.45-1.6,12.61-6.11,16.78-8.75a11.08,11.08,0,0,0,5-6.29V300.11L1328.38,308S1324,312.81,1318.08,318.55Z"/><path class="cls-14" d="M1413.78,164.06l-53.54-20.59s-8.74,8.43-24.9,18.19c-9.43,5.68-35.36,20.93-43.67,26.8-5.12,3.62-7.42,11.42-9.42,29-3.29,29-5.7,62.17-5.7,62.17s5.79,8.1,18.91,8.05a51,51,0,0,0,17.61-3.17l2-66.8L1359,192.39s-24.86,15.39-28.43,29.05c-2.87,11-3.83,19.39-4.27,33.09-.93,29.5-1.24,48.81-1.24,48.81s1.94,9.79,15.07,9.74c10.07,0,18.38-8.24,18.38-8.24l2.65-67.62s37.86-27,47.78-38.4C1420,186,1413.78,164.06,1413.78,164.06Z"/><path class="cls-13" d="M1369.54,50.07s-16,12.94-17.91,31.21c-1,9.07,1.5,40.18,1.58,60.21-7.72,5.23-29.7,18.11-29.7,18.11s17.71,5.46,24.64,17.66a59.68,59.68,0,0,0,12.83-7.54s-.72,2-4.73,10.1c4.82,1.46,21.31-2.38,36.63,4.25s26,3.67,26,3.67,2.65-13.18.78-25.38c-1.69-11.05-5.81-23.28-5-29.78,2.64-20.3,6.59-53.12,5.87-58.49-1.19-9-21.56-18.72-21.56-18.72S1384.51,44.18,1369.54,50.07Z"/><path class="cls-14" d="M1378.83,48.36s-9.35,0-17.27,15.39c-2.83,5.51-4.71,8.49-4.71,8.49l4.71,4.6-6.7,3.21s-2.42,23.46-.48,33.16c2.14,10.74,13,30.26,13,30.26s7.08-21.9,10.17-27.36,14.82-20.56,14.82-20.56l-5.87-8.86,9.56-3.12s13.49-16.91,12.08-22a16.54,16.54,0,0,0-11.78-11.49Z"/><path class="cls-15" d="M1367.82,65.8a218.31,218.31,0,0,0-5.89,21.93c-2.09,10.42,3.71,44.46,3.71,44.46s5.15-33.26,11.94-42.89A219.55,219.55,0,0,1,1396.09,67S1374.75,63.14,1367.82,65.8Z"/><path class="cls-6" d="M1371.78,67.94l-1.13,8.9s-5.26,5.07-6.38,11.28-.8,29.47-.8,29.47l2.17,14.6,3.12-10.06s2.41-13.82,4.48-22.35a51.59,51.59,0,0,1,.93-7.75c1.42-4.2,1.72-12.83,1.72-12.83l5.56-6.65-5.3-6.18Z"/><path class="cls-16" d="M1375.26,49.51l-1,14.08a38.11,38.11,0,0,0,6.61,6.81c5.09-1.59,16.89-12.55,16.89-12.55L1393.86,36Z"/><path class="cls-17" d="M1396,12c-5.3-6.75-20.51-12.44-30.43,2.24-10.4,15.38-.57,40.54,8.54,39.07,5.1-.82,16.58-5.47,21.61-13.68C1401.43,30.36,1400.15,17.22,1396,12Z"/><path class="cls-2" d="M1375,53.35l1.16,13-9.28,3.78S1365.92,56.36,1375,53.35Z"/><path class="cls-2" d="M1396.39,50.07a68.56,68.56,0,0,1-8.62,10c-4.24,4.13-11.62,6.25-11.62,6.25l3.49,10.47s12.8-5.87,17.5-11C1397.14,65.85,1402.7,56.26,1396.39,50.07Z"/><path class="cls-13" d="M1361.71,19.36c2.11,3.37,5.4,7.32,13.88,7.77A33.59,33.59,0,0,0,1388,25.42l-.6,9.27a8.15,8.15,0,0,0,2.55-.35c.91-3.52,2.42-4.34,4.14-2.86,2,1.68,1.66,8.13,1.66,8.13a23.76,23.76,0,0,0,7.31-16.95c0-6.61-5.8-20.94-17.91-22.44s-20.74,4.83-23.69,11.3A8.49,8.49,0,0,0,1361.71,19.36Z"/><rect class="cls-18" x="1293.54" y="171.7" width="3.53" height="2.74"/><path class="cls-18" d="M1344,204.92l-48.71-28.12c-2.57-1.48-2.24-4.09.72-5.79l32.53-18.79c3-1.7,7.47-1.89,10-.41l48.7,28.12c2.57,1.48,2.24,4.09-.72,5.79L1354,204.51C1351.05,206.21,1346.54,206.4,1344,204.92Z"/><rect class="cls-18" x="1386.8" y="179.7" width="2.18" height="2.68"/><path class="cls-19" d="M1344,202.36l-48.71-28.12c-2.57-1.48-2.24-4.09.72-5.79l32.53-18.79c3-1.71,7.47-1.89,10-.41l48.7,28.12c2.57,1.48,2.24,4.09-.72,5.79L1354,202C1351.05,203.65,1346.54,203.84,1344,202.36Z"/><polygon class="cls-20" points="1334.53 150.17 1300.19 169.97 1351.36 199.36 1385.79 179.61 1334.53 150.17"/><polygon class="cls-19" points="1331.6 149.84 1328.97 151.36 1380.13 180.75 1382.86 179.28 1331.6 149.84"/><polygon class="cls-19" points="1370.64 177.33 1368.02 178.85 1375.76 183.26 1378.48 181.8 1370.64 177.33"/><polygon class="cls-19" points="1362.14 172.4 1359.52 173.92 1364.95 177.06 1367.68 175.59 1362.14 172.4"/><polygon class="cls-19" points="1355.37 168.55 1352.74 170.07 1358.18 173.21 1360.9 171.75 1355.37 168.55"/><polygon class="cls-19" points="1348.63 164.68 1346 166.21 1351.43 169.35 1354.16 167.88 1348.63 164.68"/><polygon class="cls-19" points="1364.87 184.65 1362.24 186.17 1366.06 188.38 1368.78 186.91 1364.87 184.65"/><polygon class="cls-19" points="1359.29 181.4 1356.66 182.92 1360.48 185.13 1363.2 183.66 1359.29 181.4"/><polygon class="cls-19" points="1352.41 177.51 1349.78 179.04 1355.22 182.18 1357.94 180.71 1352.41 177.51"/><polygon class="cls-19" points="1360.37 187.25 1357.74 188.77 1361.56 190.98 1364.29 189.51 1360.37 187.25"/><polygon class="cls-19" points="1354.79 184 1352.16 185.52 1355.98 187.73 1358.7 186.26 1354.79 184"/><polygon class="cls-19" points="1355.59 189.76 1352.96 191.29 1356.78 193.49 1359.51 192.03 1355.59 189.76"/><polygon class="cls-19" points="1350.01 186.51 1347.38 188.04 1351.2 190.24 1353.93 188.78 1350.01 186.51"/><polygon class="cls-19" points="1347.91 180.11 1345.28 181.64 1350.72 184.78 1353.44 183.31 1347.91 180.11"/><polygon class="cls-19" points="1345.87 173.66 1343.24 175.19 1348.68 178.33 1351.4 176.86 1345.87 173.66"/><polygon class="cls-19" points="1339.13 169.8 1336.5 171.32 1341.94 174.46 1344.66 173 1339.13 169.8"/><polygon class="cls-19" points="1364.6 179.09 1361.97 180.61 1371.03 185.78 1373.75 184.32 1364.6 179.09"/><polygon class="cls-19" points="1357.41 174.92 1354.79 176.44 1360.22 179.58 1362.94 178.12 1357.41 174.92"/><polygon class="cls-19" points="1350.63 171.07 1348.01 172.59 1353.44 175.73 1356.17 174.27 1350.63 171.07"/><polygon class="cls-19" points="1343.89 167.21 1341.27 168.73 1346.7 171.87 1349.43 170.4 1343.89 167.21"/><path class="cls-17" d="M1365.43,157s-8,4.14-13,6.65-20,15.42-16.82,18.39,11,6.39,13.17,6,7.23-5.78,8-7,10.53-4.93,13.35-9.17S1365.43,157,1365.43,157Z"/><path class="cls-21" d="M1352.27,155.76l.15,41.4a4,4,0,0,1-6,3.5l-48.82-27.94a4.05,4.05,0,0,1-2-3.48l-.15-41.39a4,4,0,0,1,6-3.5l48.82,27.94A4,4,0,0,1,1352.27,155.76Z"/><polygon class="cls-21" points="1350.94 200.35 1348.34 201.87 1345.17 198.59 1351.4 194.75 1350.94 200.35"/><polygon class="cls-21" points="1297.2 124.5 1295.42 125.54 1300.07 125.6 1297.2 124.5"/><path class="cls-22" d="M1350.25,157l.15,41.39a4,4,0,0,1-6,3.51l-48.82-27.94a4,4,0,0,1-2-3.48l-.16-41.39a4,4,0,0,1,6-3.5l48.82,27.94A4,4,0,0,1,1350.25,157Z"/><polygon class="cls-19" points="1309.07 184.76 1297.54 178.1 1297.54 173.07 1309.07 179.73 1309.07 184.76"/><polygon class="cls-19" points="1340.5 202.93 1328.97 196.27 1328.97 191.23 1340.5 197.89 1340.5 202.93"/><path class="cls-2" d="M1324.48,165c0,2.42-2.15,3.13-4.8,1.6s-4.79-4.72-4.79-7.13,2.14-3.13,4.79-1.6S1324.48,162.57,1324.48,165Z"/><path class="cls-14" d="M1429.85,118.35c3.09-21.7,2.93-40.43-8.86-48.2-8.58-5.64-13.64,17.34-16,34.48-.56,4.12-4.45,23.07-5.39,27.56-5.75,1.37-36.88,21.61-40.77,25.31,1,2,8.23,7.37,10.34,19.13,12.93-2.87,33.35-15.44,46.91-22.41C1426.16,149.05,1428.4,128.51,1429.85,118.35Z"/><path class="cls-23" d="M287,527.46c-31.22-13.35-67.81-19.81-104.1-19.84-52.39,0-104.13,13.32-138.1,38.77C21.69,563.73,10.35,584,10,604.22H182.93v0L302.67,535Q295.33,531,287,527.46Z"/><polygon class="cls-10" points="10.01 460.85 10.01 603.9 182.87 578.78 182.87 433.25 10.01 460.85"/><polygon class="cls-10" points="302.67 391.64 182.87 433.25 182.87 578.78 302.67 561.38 302.67 391.64"/><path class="cls-6" d="M287,384.09c-31.22-13.35-67.81-19.8-104.1-19.83C130.54,364.21,78.8,377.57,44.83,403,21.69,420.36,10.35,440.66,10,460.85H182.93v0l119.74-69.19Q295.33,387.65,287,384.09Z"/><rect class="cls-13" x="196.3" y="522.93" width="172.88" height="87.06"/><path class="cls-12" d="M369.18,522.93c-.7-25.5-18.9-50.63-53.14-69.22L196.3,522.9v0Z"/><polygon class="cls-13" points="172.9 502.24 172.9 645.77 51.01 693.18 51.01 572.67 172.9 502.24"/><path class="cls-11" d="M0,502.24V624H0c.14,25.36,17.66,50.44,51,69.2V526.79Z"/><path class="cls-12" d="M0,502.24C-.41,528,17.14,553.61,51,572.68L172.9,502.24Z"/><path class="cls-10" d="M66.73,625.12v78.45a182.92,182.92,0,0,0,17.84,8.8c76.27,32.62,184.7,24.15,242.2-18.93,23.61-17.69,34.93-38.46,34.82-59.06h0v-79.7Z"/><path class="cls-6" d="M188.67,554.68h0L66.73,625.12a185.22,185.22,0,0,0,17.84,8.8c31.21,13.35,67.81,19.8,104.1,19.83,52.39,0,104.13-13.31,138.1-38.76,24.08-18,35.36-39.3,34.78-60.31Z"/><path class="cls-14" d="M323.18,617.58s-14.78,4-25.87,10.67-16.39,13.8-23.91,9.75S262,607.74,262,607.74L327.12,596S331.25,612.59,323.18,617.58Z"/><path class="cls-17" d="M320,588.5s16.16,13.52,15,27.81c-.63,7.79.31,11.27-.93,21-1.17,9.14-.21,42.37.32,54.39.26,6,10.25,13.33,14.83,16.65s2.61,7.87,4.09,10c3,4.21-9.71,7.54-16.64,1.53s-18.3-10.53-18.79-20.45C317.34,688.29,316,670.24,312,654c-2.36-9.74-2.11-21.65-2-30.65.09-6-22-25.12-22.82-27C285.16,591.51,320,588.5,320,588.5Z"/><path class="cls-17" d="M298.14,611.6c3.83,3.83,7.81,11.55,6.19,19.82-1.5,7.67-2.69,13.52-2.73,21.65,0,9.21-4.22,48.6-3.69,60.62.38,8.8,3.15,17.44,3.62,22.71.24,2.78-1.63,6.71-1.45,9.61.32,5.13-12.14,4.22-16,2.42s-3.43-27.56-.53-34.69c-.12-9.23-2.52-24.69-6.46-40.92s1.13-38.05-2.23-42.07c-6.77-8.11-20.94-15.16-21.43-23.39-.6-10.23,9.61-27.09,19.73-22.5C276.56,586.4,285.52,599,298.14,611.6Z"/><path class="cls-14" d="M224,562.4s-9.29,25.08-.68,40.62c7.1,12.81,50.07,35,50.07,35s3.17-16.43,13.74-23c8.92-5.59,40-19,40-19l-53.19-40.83S254.05,579.69,224,562.4Z"/><path class="cls-17" d="M301.07,543.14c3.62-1.76,7.33-3.32,11.1-4.71a151.54,151.54,0,0,0-6.84-15.7,172.69,172.69,0,0,0-9.62-16.6c-3.2-4.25-12.68-17.81-12.68-17.81l-14,10.49s17.16,20.26,19.39,23.27,11.37,17.1,12.57,20.17A2.55,2.55,0,0,1,301.07,543.14Z"/><path class="cls-14" d="M349.23,708.3s8,4.11,11.89,9-.52,12.2-11.07,10.61c-5.57-.84-13-6.82-16-9-4.21-3.12-11.57-6.66-14.87-9.5s-1.27-10-1.27-10a15.52,15.52,0,0,0,5.2,7.2c4.41,3.29,10.28,6.7,12.89,7.62,6.54,2.29,11.14,3.9,13.68.83C352.07,712.08,349.23,708.3,349.23,708.3Z"/><path class="cls-14" d="M301.1,733.42s.77,7-1.83,10.66-9.17,3.93-12.95-2.6c-3.54-6.1-3.92-14.64-4.19-18.7a27.62,27.62,0,0,1,1.45-9,7.22,7.22,0,0,0-3.25,8c1.24,5.56-.33,13.75-.06,18,.66,10,3.24,17.32,10.41,20.54,5.77,2.59,14.22.69,14.09-9A49.42,49.42,0,0,0,301.1,733.42Z"/><path class="cls-24" d="M271.35,501.67a23.9,23.9,0,0,0,5.8-4,29.46,29.46,0,0,0,5.93-7.87s-5.1-19-19.7-24.66c-7.13-2.78-16.45,5.08-16.45,5.08Z"/><path class="cls-2" d="M282,486.56l2.13,3.91s-4.84,9.4-11.17,11.2-3.07-4-3.07-4S273.75,499.3,282,486.56Z"/><path class="cls-24" d="M209.4,497.56c1.19-5.94,18.56-19.13,18.56-19.13s10.43,7.51,14.1,10.11c3.51,2.49,9.49,9,10,9.58l.08,0a76.61,76.61,0,0,0-5.21-19.46c-1.25-3,0-11.85,0-11.85s1.39-.42,3.4-.88c3.22,3.23,9.66,11.93,13.1,15.49s16.06,14.06,13.19,25.82a95,95,0,0,1-3.58,10.9c-1.82,4.89-1.25,14-.74,19,.57,5.67,6.59,20.42,6.59,20.42s-12.32,15.76-26.35,15.82C236.16,573.38,224,562.4,224,562.4s2.71-24.91,1.69-35.1C225.7,527.3,205.48,517.18,209.4,497.56Z"/><path class="cls-2" d="M252.48,475.84s10.24,11.67,9.45,16.32c-2.58,2.47-8.58,7.35-8.58,7.35l-6.91-22.82Z"/><path class="cls-17" d="M273.4,568.85c-9.71-7.28-19.89-14.17-30.63-19.46-3.54-4-4.9-6.49-7.14-12.69s-5.88-15.11-5.88-15.11l-18.54,6.19s7.21,16.68,10.53,22.15c2.15,3.52,5.73,10.24,10.7,13.93,5.25,3.88,11.84,8.56,35.33,15.59C268.53,575.17,273.48,568.91,273.4,568.85Z"/><path class="cls-13" d="M267.5,438s3.85,11.68,1.68,38.54a53.89,53.89,0,0,1-5.72,19.73s-5.78-16-14.08-21.27c-5.84-3.72,2.91-10.68,2.91-10.68Z"/><path class="cls-16" d="M248.05,468.1s.35,10.11,2.41,15.42c1.6,2.26,3.47,9.54,2.89,16-3.4-1.71-9.13-7.17-12.38-10-3.94-3.41-14.25-10.06-14.25-10.06l.35-30Z"/><path class="cls-17" d="M236,432.54c6.62-5,22.3-6.66,28,9.54,6,17-9.37,38.22-17.57,34.61-4.58-2-14.23-9.19-16.95-18.14C226.43,448.49,230.84,436.46,236,432.54Z"/><path class="cls-2" d="M226.8,473.31a68.63,68.63,0,0,1,12.1,9.81c8.81,9.16,14.45,16.39,14.45,16.39s-2.8,2-13.26,2.88c-8.46-8.16-15.74-13.16-18.68-18.63C221.56,481.26,226.8,473.31,226.8,473.31Z"/><path class="cls-24" d="M214.13,534.39c-3.62-4.54-7.87-9-8.72-11.81-2.25-7.36-6.1-19.1,5.56-28.17,9.18-7.14,18.06,10.19,19.9,16.64,2,7,1.52,12.11,1.52,17.14C229.7,531.75,220.54,537,214.13,534.39Z"/><path class="cls-2" d="M232.78,526.35a36.35,36.35,0,0,0,.8,4.88,23.09,23.09,0,0,1-10.25,5.52,33,33,0,0,1-7.56,1.23l-2.69-4.89a39,39,0,0,0,10.25-1.69C227.22,530.11,232.78,526.35,232.78,526.35Z"/><path class="cls-13" d="M249.38,439.93s.75,12.26-5,21-5.84,16.73-5.64,25.73c.34,15.66,4.52,20.33,4.52,20.33a34.87,34.87,0,0,1-21.8-29.74c-2.05-22.08-1.6-39.5,4.09-47.73,5.18-7.5,15.49-5.7,15.49-5.7s13.37-10,24.37,9.1c5,8.6,2.06,15.48,0,18.69C260.46,441,249.38,439.93,249.38,439.93Z"/><path class="cls-25" d="M326.08,520.48c-.45-.3-1.25-.26-2.38.24l-24,13.91a19.43,19.43,0,0,0-7.7,7L266,586.55c-.9,1.54-.94,2.59-.33,3l0,0,2.57,1.48,1.2-2.52,22.67-13.13a19.41,19.41,0,0,0,7.7-7l25.94-44.93c.07-.11.1-.21.16-.32l.59.57,2-1.84-2.43-1.43Z"/><path class="cls-15" d="M326.19,522.15l-24,13.91a19.36,19.36,0,0,0-7.7,7L268.52,588c-1.55,2.69-.62,3.93,2.07,2.77l24-13.92a19.41,19.41,0,0,0,7.7-7l25.94-44.92C329.81,522.23,328.88,521,326.19,522.15Z"/><path class="cls-17" d="M316.26,545.69c-6.14,3.86-11.16,11.13-10.28,15.22s5.92.39,8.25-3.29S317.83,550.06,316.26,545.69Z"/><path class="cls-17" d="M267,564.16s4.64,2.14,7,.42c3.8-2.76,6.35-2.8,6.35-2.8s-2.08,3.18.83,4.32,3.29,1.48,7.49.36c3.11-.84,5.71-.42,3,5.15-2,4.08-8.09,8.61-11.2,9.42-4.75,1.23-9.77-.55-15.14-2.25C256.39,576,267,564.16,267,564.16Z"/><path class="cls-26" d="M1562.37,367.94c-10.86-6.56-26.29-10.69-43.46-10.69s-32.61,4.13-43.46,10.69l-16,4.83v17.94c0,5.19,2.16,10.08,5.9,14.46V372h5.13v38.13a51.75,51.75,0,0,0,8.92,5.59V382.2h5.12V418a81.2,81.2,0,0,0,10.06,3.24v-35.6h5.12v36.73a98.62,98.62,0,0,0,11.49,1.51V387.13h5.12v37c.86,0,1.71.08,2.59.08,3.12,0,6.17-.18,9.16-.44V384.86h5.12v38.29a92.64,92.64,0,0,0,11.49-2.32V386.38h5.12v32.87a68.07,68.07,0,0,0,10.46-4.53v-38.3h5.12v35.12a37.57,37.57,0,0,0,7.85-7.28V367.94Z"/><path class="cls-10" d="M1465.36,372v33.22a37,37,0,0,0,5.13,4.91V372Z"/><path class="cls-10" d="M1573.23,404.26a21.78,21.78,0,0,0,5.12-13.55V373l-5.12-5.09Z"/><path class="cls-10" d="M1479.41,382.2v33.47c1.63.82,3.33,1.59,5.12,2.31V382.2Z"/><path class="cls-10" d="M1560.26,376.42v38.3a54.26,54.26,0,0,0,5.12-3.18V376.42Z"/><path class="cls-10" d="M1494.59,385.62v35.6q2.51.63,5.12,1.13V385.62Z"/><path class="cls-10" d="M1511.2,387.13v36.73c1.68.12,3.39.19,5.12.23v-37Z"/><path class="cls-10" d="M1528.07,384.86v38.87c1.74-.15,3.44-.34,5.12-.58V384.86Z"/><path class="cls-10" d="M1544.68,386.38v34.45c1.76-.48,3.46-1,5.12-1.58V386.38Z"/><path class="cls-6" d="M1578.35,373c0,18.48-26.61,33.46-59.44,33.46s-59.45-15-59.45-33.46,26.61-33.46,59.45-33.46S1578.35,354.55,1578.35,373Z"/><path class="cls-26" d="M1570.68,371.72c0,14.55-23,26.35-51.37,26.35s-51.39-11.8-51.39-26.35,23-26.35,51.39-26.35S1570.68,357.17,1570.68,371.72Z"/><path class="cls-6" d="M1564.69,371.78c0,12.68-20.37,23-45.5,23s-45.5-10.27-45.5-23,20.37-22.94,45.5-22.94S1564.69,359.11,1564.69,371.78Z"/><path class="cls-6" d="M1560.91,371.17c0,11.46-18.43,20.75-41.16,20.75s-41.15-9.29-41.15-20.75,18.43-20.76,41.15-20.76S1560.91,359.71,1560.91,371.17Z"/><path class="cls-10" d="M1518.84,399.44c-28.7,0-52-12.33-52-27.49s23.35-27.49,52-27.49,52,12.33,52,27.49S1547.54,399.44,1518.84,399.44Zm0-52.71c-27.45,0-49.78,11.32-49.78,25.22s22.33,25.21,49.78,25.21,49.77-11.31,49.77-25.21S1546.28,346.73,1518.84,346.73Z"/><path class="cls-2" d="M1538.38,386.12a32.87,32.87,0,0,1-11.48,3.11L1517,383l4.7-3,3.84,2.44a3.73,3.73,0,0,0,3.1.75,11.62,11.62,0,0,0,3.29-1.11l-12.39-7.85c-6.45,1.47-13.36,2.1-21-2.77-6.62-4.19-7.47-8.88-3-12.41l-6.09-3.85,3.91-2.06,6,3.78a33,33,0,0,1,10.59-2.64l9.35,5.91-4.71,2.93-3.58-2.26a3.69,3.69,0,0,0-3.1-.76,16,16,0,0,0-2.39.72l11.67,7.38,0,0c6.37-1.27,13.75-2.15,21.77,2.93,7.15,4.53,7.56,9.3,3.1,12.87l6.82,4.32-3.9,2.05Zm-26.84-17-9.55-6c-.93,1.34-.45,2.85,2.2,4.53A11,11,0,0,0,1511.54,369.14Zm13.51,4,10.34,6.54c1-1.39.59-3.06-2.53-5A11.29,11.29,0,0,0,1525.05,373.17Z"/><path class="cls-26" d="M1461.13,329.11c-10.85-6.56-26.28-10.68-43.46-10.68s-32.6,4.12-43.46,10.68l-16,4.83v17.94c0,5.19,2.16,10.08,5.9,14.46V333.12h5.13v38.13a51.75,51.75,0,0,0,8.92,5.59V343.37h5.12v35.78a80.66,80.66,0,0,0,10.06,3.24v-35.6h5.12v36.73A98.62,98.62,0,0,0,1410,385V348.31h5.12v37c.86,0,1.71.07,2.58.07,3.13,0,6.17-.18,9.17-.44V346H1432v38.3a92.63,92.63,0,0,0,11.49-2.33V347.55h5.12v32.88a67.53,67.53,0,0,0,10.45-4.54V337.6h5.13v35.11a37,37,0,0,0,7.85-7.28V329.11Z"/><path class="cls-10" d="M1364.13,333.12v33.22a35.9,35.9,0,0,0,5.13,4.91V333.12Z"/><path class="cls-10" d="M1472,365.43a21.78,21.78,0,0,0,5.12-13.55V334.2l-5.12-5.09Z"/><path class="cls-10" d="M1378.18,343.37v33.47c1.63.82,3.33,1.59,5.12,2.31V343.37Z"/><path class="cls-10" d="M1459,337.6v38.29a53.18,53.18,0,0,0,5.13-3.18V337.6Z"/><path class="cls-10" d="M1393.36,346.79v35.6q2.51.63,5.12,1.13V346.79Z"/><path class="cls-10" d="M1410,348.31V385c1.68.12,3.39.19,5.12.24v-37Z"/><path class="cls-10" d="M1426.84,346V384.9c1.73-.15,3.44-.34,5.12-.57V346Z"/><path class="cls-10" d="M1443.45,347.55V382c1.76-.48,3.46-1,5.12-1.57V347.55Z"/><path class="cls-6" d="M1477.12,334.2c0,18.48-26.62,33.46-59.45,33.46s-59.44-15-59.44-33.46,26.61-33.45,59.44-33.45S1477.12,315.73,1477.12,334.2Z"/><path class="cls-26" d="M1469.45,332.89c0,14.56-23,26.35-51.38,26.35s-51.38-11.79-51.38-26.35,23-26.35,51.38-26.35S1469.45,318.34,1469.45,332.89Z"/><path class="cls-6" d="M1463.46,333c0,12.67-20.37,22.94-45.5,22.94s-45.5-10.27-45.5-22.94S1392.83,310,1418,310,1463.46,320.28,1463.46,333Z"/><path class="cls-6" d="M1459.68,332.34c0,11.46-18.43,20.75-41.16,20.75s-41.15-9.29-41.15-20.75,18.42-20.75,41.15-20.75S1459.68,320.88,1459.68,332.34Z"/><path class="cls-10" d="M1417.6,360.61c-28.69,0-52-12.33-52-27.49s23.35-27.49,52-27.49,52.05,12.33,52.05,27.49S1446.3,360.61,1417.6,360.61Zm0-52.7c-27.44,0-49.77,11.31-49.77,25.21s22.33,25.21,49.77,25.21,49.78-11.31,49.78-25.21S1445.05,307.91,1417.6,307.91Z"/><path class="cls-2" d="M1437.15,347.3a32.86,32.86,0,0,1-11.48,3.1l-9.88-6.25,4.7-3,3.84,2.44a3.73,3.73,0,0,0,3.1.75,11.32,11.32,0,0,0,3.29-1.11l-12.39-7.84c-6.46,1.46-13.36,2.09-21-2.77-6.62-4.2-7.47-8.89-3-12.42l-6.09-3.85,3.91-2.05,6,3.77a33,33,0,0,1,10.59-2.64l9.35,5.91-4.71,2.93-3.58-2.26a3.69,3.69,0,0,0-3.1-.76,16,16,0,0,0-2.39.72l11.67,7.38,0,0c6.37-1.28,13.75-2.15,21.77,2.92,7.15,4.53,7.56,9.3,3.1,12.87l6.82,4.32-3.91,2.05Zm-26.84-17-9.55-6c-.93,1.34-.45,2.85,2.2,4.53A10.93,10.93,0,0,0,1410.31,330.31Zm13.51,4,10.34,6.54c1-1.39.59-3.06-2.53-5A11.24,11.24,0,0,0,1423.82,334.34Z"/><path class="cls-26" d="M1479.48,300.36c-10.85-6.55-26.28-10.68-43.45-10.68s-32.61,4.13-43.47,10.68l-16,4.83v17.95c0,5.18,2.16,10.08,5.9,14.46V304.38h5.13V342.5a51.75,51.75,0,0,0,8.92,5.59V314.63h5.12V350.4a79,79,0,0,0,10.06,3.25V318h5.12v36.74a100.84,100.84,0,0,0,11.49,1.5V319.56h5.12v37c.86,0,1.71.07,2.59.07,3.12,0,6.16-.17,9.16-.43V317.28h5.12v38.3a92.63,92.63,0,0,0,11.49-2.33V318.8h5.12v32.88a68.08,68.08,0,0,0,10.46-4.54V308.85h5.12V344a37.27,37.27,0,0,0,7.85-7.27V300.36Z"/><path class="cls-10" d="M1382.48,304.38V337.6a36.4,36.4,0,0,0,5.13,4.9V304.38Z"/><path class="cls-10" d="M1490.35,336.69a21.8,21.8,0,0,0,5.12-13.55V305.46l-5.12-5.1Z"/><path class="cls-10" d="M1396.53,314.63v33.46c1.63.82,3.33,1.6,5.12,2.31V314.63Z"/><path class="cls-10" d="M1477.38,308.85v38.29a52.27,52.27,0,0,0,5.12-3.18V308.85Z"/><path class="cls-10" d="M1411.71,318v35.61c1.67.42,3.38.79,5.12,1.13V318Z"/><path class="cls-10" d="M1428.32,319.56v36.72c1.68.12,3.39.2,5.12.24v-37Z"/><path class="cls-10" d="M1445.19,317.28v38.88c1.73-.16,3.44-.35,5.12-.58v-38.3Z"/><path class="cls-10" d="M1461.8,318.8v34.45c1.76-.48,3.46-1,5.12-1.57V318.8Z"/><path class="cls-6" d="M1495.47,305.46c0,18.47-26.61,33.45-59.44,33.45s-59.45-15-59.45-33.45S1403.19,272,1436,272,1495.47,287,1495.47,305.46Z"/><path class="cls-26" d="M1487.8,304.15c0,14.55-23,26.35-51.38,26.35S1385,318.7,1385,304.15s23-26.35,51.38-26.35S1487.8,289.59,1487.8,304.15Z"/><path class="cls-6" d="M1481.81,304.21c0,12.67-20.37,23-45.5,23s-45.5-10.28-45.5-23,20.37-22.95,45.5-22.95S1481.81,291.54,1481.81,304.21Z"/><path class="cls-6" d="M1478,303.59c0,11.46-18.43,20.76-41.16,20.76s-41.15-9.3-41.15-20.76,18.43-20.75,41.15-20.75S1478,292.13,1478,303.59Z"/><path class="cls-10" d="M1436,331.87c-28.7,0-52-12.34-52-27.5s23.35-27.49,52-27.49,52,12.33,52,27.49S1464.66,331.87,1436,331.87Zm0-52.71c-27.45,0-49.78,11.31-49.78,25.21s22.33,25.22,49.78,25.22,49.77-11.31,49.77-25.22S1463.4,279.16,1436,279.16Z"/><path class="cls-2" d="M1455.5,318.55a32.65,32.65,0,0,1-11.48,3.1l-9.88-6.25,4.7-3,3.84,2.43a3.69,3.69,0,0,0,3.1.75,11,11,0,0,0,3.29-1.11l-12.39-7.84c-6.46,1.46-13.36,2.1-21-2.77-6.62-4.19-7.47-8.89-3-12.41l-6.09-3.86,3.91-2.05,6,3.78a33.28,33.28,0,0,1,10.59-2.65l9.35,5.92-4.71,2.93-3.58-2.27a3.72,3.72,0,0,0-3.1-.75,14.84,14.84,0,0,0-2.39.71l11.67,7.38,0,0c6.37-1.27,13.75-2.15,21.77,2.92,7.15,4.53,7.56,9.31,3.1,12.87l6.82,4.32-3.91,2.05Zm-26.84-17-9.55-6c-.93,1.33-.45,2.84,2.2,4.52A10.94,10.94,0,0,0,1428.66,301.57Zm13.51,4,10.34,6.55c1-1.39.59-3.07-2.53-5A11.29,11.29,0,0,0,1442.17,305.59Z"/></g></g></svg>