<svg xmlns="http://www.w3.org/2000/svg" viewBox="0 0 475.42 443.82"><defs><style>.cls-1,.cls-14{fill:#fafafa;}.cls-2{fill:#e6e6e6;}.cls-3{fill:#edcd00;}.cls-11,.cls-12,.cls-4{fill:#fff;}.cls-14,.cls-4{opacity:0.3;}.cls-11,.cls-13,.cls-14,.cls-15,.cls-16,.cls-17,.cls-4,.cls-5,.cls-6{isolation:isolate;}.cls-5{opacity:0.25;}.cls-6{opacity:0.45;}.cls-7{fill:#373737;}.cls-8{fill:#e0e0e0;}.cls-9{fill:#f0f0f0;}.cls-10,.cls-17{fill:#272727;}.cls-11{opacity:0.65;}.cls-13{opacity:0.2;}.cls-15{opacity:0.15;}.cls-16,.cls-19{fill:#474747;}.cls-16{opacity:0.9;}.cls-17{opacity:0.95;}.cls-18{opacity:0.5;}.cls-20{fill:#212121;}.cls-21{fill:#383838;}.cls-22{fill:#ffad97;}.cls-23{fill:#ffc5b3;}.cls-24{fill:#ddccd3;}</style></defs><g id="Camada_2" data-name="Camada 2"><g id="Camada_1-2" data-name="Camada 1"><g id="Camada_2-2" data-name="Camada 2"><g id="Floor"><ellipse id="Floor-2" class="cls-1" cx="237.71" cy="323.04" rx="237.71" ry="120.78"/></g><g id="Shadows"><path id="Shadow" class="cls-2" d="M58.79,380.3l17.63,10.18a9,9,0,0,0,8.14,0L233,304.8c2.25-1.29,2.25-3.4,0-4.7l-17.64-10.18a9,9,0,0,0-8.14,0L58.79,375.6C56.5,376.89,56.5,379,58.79,380.3Z"/><path id="Shadow-2" class="cls-2" d="M108.93,388.91l7.13,4.09a9,9,0,0,0,8.14,0l124.13-71.66c2.25-1.3,2.25-3.4,0-4.7l-7.13-4.12a9,9,0,0,0-8.14,0L108.93,384.21C106.68,385.5,106.68,387.61,108.93,388.91Z"/><ellipse id="Shadow-3" class="cls-2" cx="351.56" cy="352.81" rx="64.15" ry="37.03"/></g><g id="Device"><g id="Mobile"><path class="cls-3" d="M198.24,1.85,75,73a13.24,13.24,0,0,0-6.64,11V370.23c0,4.51,2.78,9.78,6.22,11.76s9.39,1.77,13.3-.49l122.78-70.88a15.71,15.71,0,0,0,7.1-12.25V13.12c0-4.51-2.79-9.78-6.22-11.76S202.15-.41,198.24,1.85Z"/><path class="cls-4" d="M198.24,1.85,75,73a13.24,13.24,0,0,0-6.64,11V370.23c0,4.51,2.78,9.78,6.22,11.76s9.39,1.77,13.3-.49l122.78-70.88a15.71,15.71,0,0,0,7.1-12.25V13.12c0-4.51-2.79-9.78-6.22-11.76S202.15-.41,198.24,1.85Z"/><path class="cls-3" d="M86.22,382.31c-3.78,1.47-8.63,1.4-11.6-.32-3.44-2-6.22-7.25-6.22-11.76V84a12.61,12.61,0,0,1,1.79-6.07l11.42,6.48a13.79,13.79,0,0,0-3.3,8.25V376C78.3,381.4,81.79,384,86.22,382.31Z"/><path class="cls-5" d="M86.22,382.31c-3.78,1.47-8.63,1.4-11.6-.32-3.44-2-6.22-7.25-6.22-11.76V84a12.61,12.61,0,0,1,1.79-6.07l11.42,6.48a13.79,13.79,0,0,0-3.3,8.25V376C78.3,381.4,81.79,384,86.22,382.31Z"/><path class="cls-3" d="M84.54,81.86A13.81,13.81,0,0,0,78.3,92.67V376c0,6.1,4.32,8.59,9.6,5.54l122.79-70.92a15.71,15.71,0,0,0,7.1-12.25V13.12c0-4.49-3.18-6.33-7.08-4.09Z"/><path class="cls-3" d="M90.94,99.33A14.82,14.82,0,0,0,84.22,111V354.71c0,4.29,3,6,6.72,3.89l115.5-66.7a14.94,14.94,0,0,0,6.73-11.64V36.52c0-4.27-3-6-6.73-3.88Z"/><path class="cls-6" d="M90.94,99.33A14.82,14.82,0,0,0,84.22,111V354.71c0,4.29,3,6,6.72,3.89l115.5-66.7a14.94,14.94,0,0,0,6.73-11.64V36.52c0-4.27-3-6-6.73-3.88Z"/><path class="cls-7" d="M204.66,274.65v-241L90.94,99.33A14.82,14.82,0,0,0,84.22,111V352l113.71-65.7A15,15,0,0,0,204.66,274.65Z"/><path d="M139.07,59.64l20.47-11.82c1.22-.7,2.21-.2,2.21,1.12a4.76,4.76,0,0,1-2.21,3.67L139.07,64.43c-1.22.71-2.21.21-2.21-1.12A4.73,4.73,0,0,1,139.07,59.64Z"/><path d="M174.19,39.33c1.15-.66,2.08-.13,2.08,1.2a4.6,4.6,0,0,1-2.08,3.59c-1.14.66-2.07.13-2.07-1.2A4.59,4.59,0,0,1,174.19,39.33Z"/><path d="M182.5,34.54c1.14-.66,2.07-.12,2.07,1.2a4.61,4.61,0,0,1-2.07,3.59c-1.15.66-2.08.13-2.08-1.19A4.54,4.54,0,0,1,182.5,34.54Z"/><path d="M116.11,72.87c1.14-.66,2.07-.12,2.07,1.2a4.61,4.61,0,0,1-2.07,3.59c-1.15.66-2.08.13-2.08-1.2A4.56,4.56,0,0,1,116.11,72.87Z"/><path d="M124.41,68.08c1.15-.66,2.08-.12,2.08,1.2a4.6,4.6,0,0,1-2.08,3.59c-1.14.67-2.07.13-2.07-1.19A4.57,4.57,0,0,1,124.41,68.08Z"/></g></g><g id="Window_2" data-name="Window 2"><g id="Window"><g id="Window-2"><path class="cls-8" d="M118.61,379V123.35a9.83,9.83,0,0,1,1.47-4.86l-6.29-3.59a10,10,0,0,0-1.49,4.9V375.4a3.27,3.27,0,0,0,1.88,3c-.59-.33.11.07.17.1s4.83,2.8,5.84,3.37A3.25,3.25,0,0,1,118.61,379Z"/><path class="cls-1" d="M122,381.84a2.85,2.85,0,0,1-2.85-2.84V123.36a10.26,10.26,0,0,1,4.68-8.06l118-67.75a4,4,0,0,1,1.92-.6,1.94,1.94,0,0,1,.88.19,1.43,1.43,0,0,1,.36.2c.82.54,1,1.4,1,2.6V305.55a10.31,10.31,0,0,1-4.66,8.06l-110,63.2-8,4.72a2.88,2.88,0,0,1-1.29.31Z"/><path class="cls-8" d="M243.69,47.45a1.51,1.51,0,0,1,.69.15l.25.14h0c.62.4.74,1.1.74,2.16V305.55a9.88,9.88,0,0,1-4.4,7.62l-110,63.2h0L123,381a2.4,2.4,0,0,1-1.08.27,2.36,2.36,0,0,1-2.34-2.31V123.35a9.83,9.83,0,0,1,4.4-7.61L242,48a3.31,3.31,0,0,1,1.67-.54m0-1a4.39,4.39,0,0,0-2.17.67l-118,67.76a10.82,10.82,0,0,0-4.9,8.48V379a3.34,3.34,0,0,0,3.28,3.39,3.41,3.41,0,0,0,1.63-.39l8-4.71h0l110-63.21a10.86,10.86,0,0,0,4.9-8.49V49.94a3.31,3.31,0,0,0-1.19-3,2.76,2.76,0,0,0-.44-.25,2.35,2.35,0,0,0-1.1-.24Z"/><path class="cls-9" d="M241.51,47.11l-118,67.76a9.93,9.93,0,0,0-3.45,3.63l-6.27-3.6a9.73,9.73,0,0,1,3.4-3.58l118-67.76a3.46,3.46,0,0,1,3.56-.29c.88.54,4.95,2.85,6,3.41A3.5,3.5,0,0,0,241.51,47.11Z"/></g><path class="cls-10" d="M123.79,127.71v-1.54a1,1,0,0,1,.3-.77l.08-.05c.16-.09.29.1.29.43v1.55a1,1,0,0,1-.29.77l-.08.05C123.92,128.24,123.79,128.05,123.79,127.71Z"/><path class="cls-10" d="M125.13,126.94v-2.66a1,1,0,0,1,.3-.78h.08c.16-.1.29.1.29.43v2.66a1,1,0,0,1-.29.78h-.08C125.26,127.47,125.13,127.27,125.13,126.94Z"/><path class="cls-10" d="M126.47,126.17v-3.79a1,1,0,0,1,.3-.77h.08c.16-.09.29.1.29.43v3.79a1,1,0,0,1-.29.77h-.08C126.6,126.69,126.47,126.5,126.47,126.17Z"/><path class="cls-10" d="M127.79,125.39v-6.53a1,1,0,0,1,.29-.78h.09c.16-.1.29.1.29.43V125a1,1,0,0,1-.29.77h-.09C127.94,125.92,127.79,125.73,127.79,125.39Z"/><path class="cls-10" d="M131.44,123.75a.34.34,0,0,1,0-.2v-1l-1.51.87c-.08,0-.12,0-.12-.13V123a.6.6,0,0,1,0-.19.54.54,0,0,1,0-.18l1.59-4.36a.89.89,0,0,1,.08-.17.18.18,0,0,1,.1-.09l.21-.12h.14a.37.37,0,0,1,0,.21v3.36l.33-.2h.14a.74.74,0,0,1,0,.21v.23a1,1,0,0,1,0,.24.32.32,0,0,1-.14.14l-.33.19v1a1,1,0,0,1,0,.24.4.4,0,0,1-.14.15l-.25.15S131.46,123.78,131.44,123.75Zm.06-2v-2.39l-1.09,3Z"/><path class="cls-10" d="M133.22,122.14a3.13,3.13,0,0,1-.44-2,6.29,6.29,0,0,1,.44-2.47,3,3,0,0,1,1.24-1.5,1.45,1.45,0,0,1,.61-.22.62.62,0,0,1,.46.06.14.14,0,0,1,0,.09.2.2,0,0,1,0,.11l-.13.5c0,.06,0,.1-.06.11h-.06a.82.82,0,0,0-.77.13,2,2,0,0,0-.85,1,4.71,4.71,0,0,0-.3,1.82,2.47,2.47,0,0,0,.29,1.48.58.58,0,0,0,.81.07h0l.37-.27a2.35,2.35,0,0,0,.3-.33v-1.56l-.63.36h-.13s0-.1,0-.21v-.22a.49.49,0,0,1,0-.24.2.2,0,0,1,.13-.14l1-.58q.11-.06.15,0a.53.53,0,0,1,0,.25v2.42a.47.47,0,0,1-.06.15,3.34,3.34,0,0,1-1.19,1.17C133.93,122.5,133.51,122.48,133.22,122.14Z"/><path class="cls-10" d="M238.72,57.39a.47.47,0,0,0-.62-.24l0,0L233,60.1a2.58,2.58,0,0,0-.78,2v3.79a2.16,2.16,0,0,0,.3,1.21.66.66,0,0,0,.27.25.41.41,0,0,0,.4,0l5.07-2.93a2.59,2.59,0,0,0,.78-2V58.6A2.2,2.2,0,0,0,238.72,57.39Zm-6,9.27a1,1,0,0,1-.11-.55V62.32a2,2,0,0,1,.6-1.56l5.07-2.93a.2.2,0,0,1,.21,0,.28.28,0,0,1,.09.07,1.17,1.17,0,0,1,.11.56v3.79a2,2,0,0,1-.6,1.56L233,66.73a.2.2,0,0,1-.27,0,.19.19,0,0,1-.07-.11Z"/><path class="cls-10" d="M235.88,59.87v4.49l-2.73,1.57h-.09V62.4a1.57,1.57,0,0,1,.44-1.16Z"/><path class="cls-10" d="M239.27,58.48c.19-.11.34.43.34,1.21v.71a3,3,0,0,1-.34,1.64l-.35.23V58.68Z"/><path class="cls-10" d="M141.79,116.7a2.32,2.32,0,0,1-.87,1.84c-.48.28-.87-.1-.87-.84a2.29,2.29,0,0,1,.87-1.84C141.42,115.58,141.79,116,141.79,116.7Z"/><path class="cls-10" d="M140.94,113.66a5.22,5.22,0,0,0-2,3,.57.57,0,0,0,.09.62h0c.16.1.41-.11.5-.46a3.61,3.61,0,0,1,1.43-2.14.9.9,0,0,1,1.27.19.81.81,0,0,1,.15.31c.1.23.35.16.51-.14h0a1,1,0,0,0,.1-.71,1.33,1.33,0,0,0-1.65-.88A1.39,1.39,0,0,0,140.94,113.66Z"/><path class="cls-10" d="M140.94,111.52a8.08,8.08,0,0,0-3.11,4.42c-.1.29-.07.58.07.67h0c.16.1.39-.09.5-.42a6.51,6.51,0,0,1,2.54-3.62,1.69,1.69,0,0,1,2.35.35,2.27,2.27,0,0,1,.19.34c.11.2.34.13.5-.15h0a.87.87,0,0,0,.07-.75,2.05,2.05,0,0,0-2.71-1.07A1.6,1.6,0,0,0,140.94,111.52Z"/><path class="cls-10" d="M177.17,99.33a.74.74,0,0,1,0,.21.53.53,0,0,1-.12.14l-.25.14a.09.09,0,0,1-.12,0,.18.18,0,0,1-.05-.15V94.49l-1,1.73q-.06.11-.12.12a.09.09,0,0,1-.12,0l-.14-.2a.25.25,0,0,1,0-.17.37.37,0,0,1,.06-.21l1.3-2.29a.29.29,0,0,1,.1-.12l.1-.07.25-.14a.09.09,0,0,1,.12,0,.38.38,0,0,1,0,.15Z"/><path class="cls-10" d="M178.61,94.33a.08.08,0,0,1,.11,0,.19.19,0,0,1,0,.15v.63a.67.67,0,0,1,0,.2.53.53,0,0,1-.11.15l-.42.23a.08.08,0,0,1-.1,0h0a.19.19,0,0,1,0-.15v-.63a.34.34,0,0,1,0-.2.26.26,0,0,1,.11-.14Zm0,3.29a.08.08,0,0,1,.11,0,.22.22,0,0,1,0,.16v.63a.67.67,0,0,1,0,.2.36.36,0,0,1-.11.14l-.42.24a.08.08,0,0,1-.11,0,.19.19,0,0,1,0-.15V98.2a.37.37,0,0,1,0-.21.26.26,0,0,1,.11-.14Z"/><path class="cls-10" d="M181.61,97a.09.09,0,0,1-.12,0,.19.19,0,0,1,0-.15V95.57l-1.91,1.1a.09.09,0,0,1-.12,0,.18.18,0,0,1-.05-.15v-.34a.43.43,0,0,1,0-.16,1,1,0,0,1,.07-.21l1.92-5a1,1,0,0,1,.11-.23.27.27,0,0,1,.13-.13l.25-.15a.08.08,0,0,1,.11,0,.19.19,0,0,1,0,.15v3.93l.52-.31a.09.09,0,0,1,.12,0,.19.19,0,0,1,0,.15v.34a.74.74,0,0,1,0,.21.53.53,0,0,1-.12.14l-.52.3V96.5a.74.74,0,0,1,0,.21.53.53,0,0,1-.11.15Zm-.17-2.3V92.07l-1.32,3.42Z"/><path class="cls-10" d="M183.73,94.21a1.44,1.44,0,0,0,.08.25.35.35,0,0,0,.17.17.48.48,0,0,0,.29,0,2.14,2.14,0,0,0,.47-.2,3,3,0,0,0,.35-.27,2.38,2.38,0,0,0,.31-.4,2.92,2.92,0,0,0,.19-.49,2.24,2.24,0,0,0,.08-.57,1.25,1.25,0,0,0-.07-.47.42.42,0,0,0-.2-.23.51.51,0,0,0-.3,0,1.17,1.17,0,0,0-.36.16l-.51.3a.13.13,0,0,1-.12,0,.19.19,0,0,1,0-.15V92a.54.54,0,0,1,0-.18l.06-.16,1.1-2.46-1.76,1a.11.11,0,0,1-.11,0,.14.14,0,0,1,0-.15V89.7a.37.37,0,0,1,0-.21.26.26,0,0,1,.11-.14l2.4-1.35a.08.08,0,0,1,.11,0,.28.28,0,0,1,0,.16v.33a.54.54,0,0,1,0,.18c0,.06,0,.13-.08.2l-1.08,2.42a1,1,0,0,1,.56-.17.57.57,0,0,1,.43.13.88.88,0,0,1,.28.44,2.32,2.32,0,0,1,.1.74,3.57,3.57,0,0,1-.12.92,5.26,5.26,0,0,1-.32.83,3.2,3.2,0,0,1-.49.67,2.74,2.74,0,0,1-.58.49,2,2,0,0,1-.71.26.76.76,0,0,1-.49-.11.78.78,0,0,1-.29-.36,1.78,1.78,0,0,1-.1-.55.25.25,0,0,1,0-.17.14.14,0,0,1,.09-.11l.28-.17a.08.08,0,0,1,.11,0A.19.19,0,0,1,183.73,94.21Z"/><path class="cls-8" d="M178.08,134.8l36.26-21c1.19-.69,2.16-.19,2.16,1.11a4.71,4.71,0,0,1-2.16,3.62l-36.26,20.93c-1.2.69-2.17.2-2.17-1.09A4.6,4.6,0,0,1,178.08,134.8Z"/><path class="cls-8" d="M178.08,144.19l44.41-25.65c1.2-.69,2.17-.2,2.17,1.09a4.69,4.69,0,0,1-2.17,3.6l-44.41,25.65c-1.2.69-2.17.2-2.17-1.09A4.6,4.6,0,0,1,178.08,144.19Z"/><path class="cls-9" d="M177.38,160.16a1.5,1.5,0,0,1-1.5-1.5,1.46,1.46,0,0,1,.75-1.3l40.62-23.45a1.49,1.49,0,1,1,1.67,2.48l-.17.11L178.13,160A1.64,1.64,0,0,1,177.38,160.16Z"/><path class="cls-9" d="M177.38,167.78a1.5,1.5,0,0,1-1.5-1.5,1.46,1.46,0,0,1,.75-1.3l40.62-23.45a1.5,1.5,0,1,1,1.5,2.6l-40.62,23.45A1.53,1.53,0,0,1,177.38,167.78Z"/><path class="cls-8" d="M218.67,148.86l12-6.87c1.19-.68,2.16-.19,2.16,1.1a4.67,4.67,0,0,1-2.16,3.6l-12,6.9c-1.2.69-2.17.19-2.17-1.12A4.62,4.62,0,0,1,218.67,148.86Z"/><path class="cls-3" d="M135.47,154.67l32-18.46c2.39-1.38,4.33-.26,4.33,2.5v36.91a9.62,9.62,0,0,1-4.33,7.5l-32,18.45c-2.39,1.38-4.33.26-4.34-2.5l-.07-36.91A9.51,9.51,0,0,1,135.47,154.67Z"/><path class="cls-11" d="M135.47,154.67l32-18.46c2.39-1.38,4.33-.26,4.33,2.5v36.91a9.62,9.62,0,0,1-4.33,7.5l-32,18.45c-2.39,1.38-4.33.26-4.34-2.5l-.07-36.91A9.51,9.51,0,0,1,135.47,154.67Z"/><path class="cls-8" d="M178.08,256.88l36.26-21c1.19-.69,2.16-.19,2.16,1.11a4.71,4.71,0,0,1-2.16,3.62l-36.26,20.93c-1.2.69-2.17.2-2.17-1.1A4.61,4.61,0,0,1,178.08,256.88Z"/><path class="cls-8" d="M178.08,266.27l44.41-25.65c1.2-.69,2.17-.2,2.17,1.09a4.69,4.69,0,0,1-2.17,3.6L178.08,271c-1.2.69-2.17.2-2.17-1.1A4.63,4.63,0,0,1,178.08,266.27Z"/><path class="cls-9" d="M177.38,282.24a1.5,1.5,0,0,1-1.5-1.5,1.46,1.46,0,0,1,.75-1.3L217.25,256a1.5,1.5,0,0,1,1.5,2.6L178.13,282A1.58,1.58,0,0,1,177.38,282.24Z"/><path class="cls-9" d="M177.38,289.86a1.5,1.5,0,0,1-1.5-1.5,1.46,1.46,0,0,1,.75-1.3l40.62-23.45a1.5,1.5,0,0,1,1.5,2.6l-40.62,23.45A1.53,1.53,0,0,1,177.38,289.86Z"/><path class="cls-8" d="M218.67,270.94l12-6.87c1.19-.69,2.16-.19,2.16,1.1a4.67,4.67,0,0,1-2.16,3.6l-12,6.9c-1.2.69-2.17.19-2.17-1.12A4.62,4.62,0,0,1,218.67,270.94Z"/><path class="cls-3" d="M135.47,276.75l32-18.46c2.39-1.38,4.33-.26,4.33,2.5v36.9a9.59,9.59,0,0,1-4.33,7.5l-32,18.46c-2.39,1.38-4.33.26-4.34-2.5l-.07-36.91A9.49,9.49,0,0,1,135.47,276.75Z"/><path class="cls-11" d="M135.47,276.75l32-18.46c2.39-1.38,4.33-.26,4.33,2.5v36.9a9.59,9.59,0,0,1-4.33,7.5l-32,18.46c-2.39,1.38-4.33.26-4.34-2.5l-.07-36.91A9.49,9.49,0,0,1,135.47,276.75Z"/><path class="cls-8" d="M178.08,195.84l36.26-21c1.19-.69,2.16-.19,2.16,1.11a4.71,4.71,0,0,1-2.16,3.62L178.08,200.5c-1.2.69-2.17.2-2.17-1.1A4.61,4.61,0,0,1,178.08,195.84Z"/><path class="cls-8" d="M178.08,205.23l44.41-25.65c1.2-.69,2.17-.2,2.17,1.09a4.69,4.69,0,0,1-2.17,3.6l-44.41,25.65c-1.2.69-2.17.2-2.17-1.09A4.6,4.6,0,0,1,178.08,205.23Z"/><path class="cls-9" d="M177.38,221.2a1.5,1.5,0,0,1-1.5-1.5,1.46,1.46,0,0,1,.75-1.3L217.25,195a1.49,1.49,0,1,1,1.67,2.48l-.17.11L178.13,221A1.53,1.53,0,0,1,177.38,221.2Z"/><path class="cls-9" d="M177.38,228.82a1.5,1.5,0,0,1-1.5-1.5,1.46,1.46,0,0,1,.75-1.3l40.62-23.45a1.5,1.5,0,1,1,1.5,2.6l-40.62,23.45A1.53,1.53,0,0,1,177.38,228.82Z"/><path class="cls-8" d="M218.67,209.9l12-6.87c1.19-.69,2.16-.19,2.16,1.1a4.67,4.67,0,0,1-2.16,3.6l-12,6.9c-1.2.69-2.17.19-2.17-1.12A4.62,4.62,0,0,1,218.67,209.9Z"/><path class="cls-3" d="M135.47,215.71l32-18.46c2.39-1.38,4.33-.26,4.33,2.5v36.9a9.59,9.59,0,0,1-4.33,7.5l-32,18.46c-2.39,1.38-4.33.26-4.34-2.5l-.07-36.91A9.51,9.51,0,0,1,135.47,215.71Z"/><path class="cls-11" d="M135.47,215.71l32-18.46c2.39-1.38,4.33-.26,4.33,2.5v36.9a9.59,9.59,0,0,1-4.33,7.5l-32,18.46c-2.39,1.38-4.33.26-4.34-2.5l-.07-36.91A9.51,9.51,0,0,1,135.47,215.71Z"/><g id="Button"><path class="cls-8" d="M137.66,352.74a2.72,2.72,0,0,1-1.37-.36,3.51,3.51,0,0,1-1.49-3.24V345a10.23,10.23,0,0,1,4.61-7.93L167.33,321a3.13,3.13,0,0,1,5.08,2.94V328a10.16,10.16,0,0,1-4.58,7.93l-28,16.16A4.54,4.54,0,0,1,137.66,352.74Zm2-15.22.25.44a9.09,9.09,0,0,0-4.12,7v4.12a2.13,2.13,0,0,0,3.54,2.06l28-16.15a9,9,0,0,0,4.08-7.07v-4.07a2.16,2.16,0,0,0-1.61-2.6,2.12,2.12,0,0,0-2,.53L139.93,338Z"/><path class="cls-8" d="M145.79,342a.28.28,0,0,1,0-.18.18.18,0,0,1,.1-.11l.42-.24a.09.09,0,0,1,.1,0v.13a4.48,4.48,0,0,1-.11.72,5.17,5.17,0,0,1-.27.75,4.22,4.22,0,0,1-.48.71,2.87,2.87,0,0,1-.69.56,1.43,1.43,0,0,1-.63.21.79.79,0,0,1-.47-.19,1.13,1.13,0,0,1-.3-.53,3.26,3.26,0,0,1-.13-.81v-1.35a5.59,5.59,0,0,1,.13-1,3.32,3.32,0,0,1,.3-.87,2.71,2.71,0,0,1,.47-.72,1.9,1.9,0,0,1,.63-.53,1.3,1.3,0,0,1,.69-.24.77.77,0,0,1,.48.16,1.05,1.05,0,0,1,.27.44,2.36,2.36,0,0,1,.11.59.54.54,0,0,1,0,.18l-.1.12-.42.24a.09.09,0,0,1-.1,0,.21.21,0,0,0-.06-.12.77.77,0,0,0-.07-.27.4.4,0,0,0-.16-.18.3.3,0,0,0-.24-.05.66.66,0,0,0-.36.13,1,1,0,0,0-.35.29,1.55,1.55,0,0,0-.25.41,1.86,1.86,0,0,0-.16.47,2.1,2.1,0,0,0-.06.51v1.34a1.14,1.14,0,0,0,.06.44.76.76,0,0,0,.16.29.33.33,0,0,0,.25.11.63.63,0,0,0,.35-.11,1.93,1.93,0,0,0,.36-.28,2.7,2.7,0,0,0,.25-.34c.06-.12.11-.24.16-.36A2.08,2.08,0,0,0,145.79,342Z"/><path class="cls-8" d="M148.86,336.42H149a.39.39,0,0,1,.07.16l1.27,4.32V341a.48.48,0,0,1,0,.17.29.29,0,0,1-.1.12l-.38.22h-.14a.24.24,0,0,1-.06-.09l-.22-.76-1.64.95-.23,1v.17a.54.54,0,0,1-.15.15l-.37.21a.09.09,0,0,1-.1,0h0a.15.15,0,0,1,0-.13v-.06l1.27-5.79a.73.73,0,0,1,.08-.25.24.24,0,0,1,.12-.14Zm.29,3.35-.57-1.95-.57,2.61Z"/><path class="cls-8" d="M153.22,339.51h-.13l-.07-.07L151.57,337v3.3a.37.37,0,0,1,0,.17.34.34,0,0,1-.09.12l-.43.25a.07.07,0,0,1-.09,0h0a.15.15,0,0,1,0-.13v-5.16a.35.35,0,0,1,0-.18.22.22,0,0,1,.09-.12l.37-.21h.13l.07.07L153,337.6v-3.29a.28.28,0,0,1,0-.18.15.15,0,0,1,.1-.12l.42-.24a.05.05,0,0,1,.08,0h0a.19.19,0,0,1,.05.13V339a.37.37,0,0,1-.05.17.38.38,0,0,1-.09.13Z"/><path class="cls-8" d="M156.79,335.65a.6.6,0,0,1,.06-.19.22.22,0,0,1,.09-.1l.42-.25a.08.08,0,0,1,.11,0v.13a4.48,4.48,0,0,1-.11.72,4,4,0,0,1-.28.75,4.08,4.08,0,0,1-.47.7,2.53,2.53,0,0,1-.69.57,1.3,1.3,0,0,1-.64.2.7.7,0,0,1-.47-.18,1.26,1.26,0,0,1-.29-.53,2.85,2.85,0,0,1-.13-.81v-1.35a4.72,4.72,0,0,1,.13-1,3.87,3.87,0,0,1,.29-.87,2.94,2.94,0,0,1,.47-.73,2.51,2.51,0,0,1,.64-.53,1.42,1.42,0,0,1,.69-.23.63.63,0,0,1,.47.16.9.9,0,0,1,.28.43,2.36,2.36,0,0,1,.11.59.54.54,0,0,1,0,.18.32.32,0,0,1-.11.12l-.42.24a.07.07,0,0,1-.09,0h0a.3.3,0,0,1-.06-.12,1.07,1.07,0,0,0-.07-.27.43.43,0,0,0-.16-.19.36.36,0,0,0-.25,0,.71.71,0,0,0-.35.13,1,1,0,0,0-.36.3,1.5,1.5,0,0,0-.25.4,1.92,1.92,0,0,0-.15.48,2.73,2.73,0,0,0-.07.51v1.34a1.75,1.75,0,0,0,.07.44.62.62,0,0,0,.15.29.41.41,0,0,0,.25.11A.94.94,0,0,0,156,337a1.87,1.87,0,0,0,.35-.28,2.7,2.7,0,0,0,.25-.34,3.61,3.61,0,0,0,.23-.36A2,2,0,0,0,156.79,335.65Z"/><path class="cls-8" d="M160.62,334.24a.07.07,0,0,1,.1,0,.24.24,0,0,1,0,.12v.57a.54.54,0,0,1,0,.18l-.1.12-2.28,1.31a.09.09,0,0,1-.1,0h0a.15.15,0,0,1,0-.13v-5.17a.25.25,0,0,1,0-.17.15.15,0,0,1,.1-.12l2.24-1.3a.05.05,0,0,1,.08,0h0a.19.19,0,0,1,.05.13v.56a.61.61,0,0,1-.05.18.34.34,0,0,1-.09.12l-1.68,1v1.27l1.56-.9a.07.07,0,0,1,.1,0,.24.24,0,0,1,0,.12v.57a.54.54,0,0,1,0,.18.29.29,0,0,1-.1.12l-1.56.9v1.33Z"/><path class="cls-8" d="M163.87,332.36a.07.07,0,0,1,.1,0v.69a.54.54,0,0,1,0,.18.29.29,0,0,1-.1.12l-2.28,1.31a.09.09,0,0,1-.1,0,.15.15,0,0,1,0-.13v-5.17a.54.54,0,0,1,0-.18.29.29,0,0,1,.1-.12l.42-.24h.1s0,.07,0,.13v4.38Z"/></g><g id="Button-2"><path class="cls-3" d="M200.56,302.41l27.89-16.11c2.4-1.38,4.33-.26,4.33,2.5v4.07a9.62,9.62,0,0,1-4.33,7.5l-28,16.16c-2.39,1.38-4.32.26-4.3-2.5v-4.12A9.59,9.59,0,0,1,200.56,302.41Z"/><path class="cls-1" d="M203.88,308.57a.48.48,0,0,1,.06-.18.2.2,0,0,1,.09-.11l.42-.25a.08.08,0,0,1,.11,0v.13a3.6,3.6,0,0,1-.38,1.47,4.08,4.08,0,0,1-.47.7,2.53,2.53,0,0,1-.69.57,1.3,1.3,0,0,1-.64.2.7.7,0,0,1-.47-.18,1.26,1.26,0,0,1-.29-.53,2.54,2.54,0,0,1-.13-.81v-1.35a4.15,4.15,0,0,1,.13-1,4.44,4.44,0,0,1,.29-.87,2.94,2.94,0,0,1,.47-.73,2.32,2.32,0,0,1,.64-.53,1.42,1.42,0,0,1,.69-.23.69.69,0,0,1,.47.16.9.9,0,0,1,.28.43,2.35,2.35,0,0,1,.1.6.25.25,0,0,1,0,.17.32.32,0,0,1-.11.12l-.42.25a.09.09,0,0,1-.1,0,.13.13,0,0,1,0-.12.77.77,0,0,0-.08-.27.39.39,0,0,0-.4-.24.71.71,0,0,0-.35.13,1.16,1.16,0,0,0-.36.3,1.5,1.5,0,0,0-.25.4,1.94,1.94,0,0,0-.16.48,4,4,0,0,0-.06.51v1.34a1.72,1.72,0,0,0,.06.44.76.76,0,0,0,.16.29.41.41,0,0,0,.25.11.66.66,0,0,0,.36-.11,1.87,1.87,0,0,0,.35-.28,2.7,2.7,0,0,0,.25-.34,2.83,2.83,0,0,0,.16-.36C203.87,308.77,203.88,308.67,203.88,308.57Z"/><path class="cls-1" d="M205.13,306.12a5.52,5.52,0,0,1,.11-.91,4,4,0,0,1,.28-.85,3,3,0,0,1,.47-.74,2.22,2.22,0,0,1,.67-.55,1.19,1.19,0,0,1,.66-.22.63.63,0,0,1,.46.2,1.12,1.12,0,0,1,.29.52,2.88,2.88,0,0,1,.11.78v1.43a4,4,0,0,1-.11.91,3.68,3.68,0,0,1-.28.85,3.42,3.42,0,0,1-.47.74,2.93,2.93,0,0,1-.66.55,1.43,1.43,0,0,1-.67.21.67.67,0,0,1-.47-.19,1.2,1.2,0,0,1-.28-.52,3.49,3.49,0,0,1-.11-.78v-1.09C205.12,306.33,205.13,306.22,205.13,306.12Zm2.35-1.32a1,1,0,0,0-.24-.76.53.53,0,0,0-.58,0,1.43,1.43,0,0,0-.59.65,2.45,2.45,0,0,0-.24,1V307a1,1,0,0,0,.24.75.49.49,0,0,0,.59,0,1.65,1.65,0,0,0,.58-.65,2.53,2.53,0,0,0,.24-1v-.68C207.48,305.21,207.49,305,207.48,304.8Z"/><path class="cls-1" d="M211.28,306.08h-.13a.23.23,0,0,1-.07-.07l-1.46-2.49v3.3a.48.48,0,0,1,0,.17.29.29,0,0,1-.1.12l-.42.25a.09.09,0,0,1-.1,0,.15.15,0,0,1,0-.13v-5.16a.54.54,0,0,1,0-.18.2.2,0,0,1,.1-.12l.37-.21h.13l.07.07,1.45,2.49v-3.29a.54.54,0,0,1,0-.18.23.23,0,0,1,.1-.12l.43-.24a.06.06,0,0,1,.09,0,.19.19,0,0,1,0,.13v5.17a.61.61,0,0,1,0,.18.94.94,0,0,1-.09.12Z"/><path class="cls-1" d="M215.07,298.29a.07.07,0,0,1,.1,0,.24.24,0,0,1,0,.12V299a.54.54,0,0,1,0,.18.29.29,0,0,1-.1.12l-.94.54v4.38a.54.54,0,0,1,0,.18.34.34,0,0,1-.09.12l-.43.24a.09.09,0,0,1-.1,0,.15.15,0,0,1,0-.13v-4.38l-.93.53a.09.09,0,0,1-.1,0,.15.15,0,0,1,0-.13v-.57a.25.25,0,0,1,0-.17.22.22,0,0,1,.1-.13Z"/><path class="cls-1" d="M215.92,303.4a.09.09,0,0,1-.1,0,.15.15,0,0,1,0-.13V298.1a.48.48,0,0,1,0-.17.2.2,0,0,1,.1-.12l.42-.24h.1a.28.28,0,0,1,0,.13v5.17a.48.48,0,0,1,0,.17.41.41,0,0,1-.1.13Z"/><path class="cls-1" d="M219.7,301.21h-.13a.46.46,0,0,1-.07-.07l-1.45-2.49V302a.54.54,0,0,1,0,.18l-.1.12-.42.25a.09.09,0,0,1-.1,0,.15.15,0,0,1,0-.13v-5.17a.25.25,0,0,1,0-.17.2.2,0,0,1,.1-.12l.36-.22a.12.12,0,0,1,.14,0l.06.07,1.46,2.49V296a.25.25,0,0,1,0-.17.2.2,0,0,1,.1-.12l.42-.25a.07.07,0,0,1,.1,0,.28.28,0,0,1,0,.13v5.17a.48.48,0,0,1,0,.17.29.29,0,0,1-.1.12Z"/><path class="cls-1" d="M223.88,293.2a.07.07,0,0,1,.1,0,.28.28,0,0,1,0,.13v3.28a5.17,5.17,0,0,1-.09.95,4.45,4.45,0,0,1-.28.85,3.64,3.64,0,0,1-.47.71,2.75,2.75,0,0,1-.65.53,1.4,1.4,0,0,1-.65.22.61.61,0,0,1-.47-.17,1.12,1.12,0,0,1-.27-.53,3,3,0,0,1-.09-.84v-3.28a.28.28,0,0,1,0-.18.22.22,0,0,1,.09-.12l.43-.24a.05.05,0,0,1,.08,0h0a.19.19,0,0,1,0,.13v3.24a1.57,1.57,0,0,0,0,.53.57.57,0,0,0,.16.28.38.38,0,0,0,.25.08,1,1,0,0,0,.32-.12,1.54,1.54,0,0,0,.32-.25A1.78,1.78,0,0,0,223,298a3.06,3.06,0,0,0,.17-.48,3,3,0,0,0,.06-.59v-3.24a.28.28,0,0,1,0-.18.2.2,0,0,1,.1-.12Z"/><path class="cls-1" d="M227.28,295.84a.07.07,0,0,1,.1,0,.24.24,0,0,1,0,.12v.57a.54.54,0,0,1,0,.18.29.29,0,0,1-.1.12L225,298.15a.09.09,0,0,1-.1,0,.15.15,0,0,1,0-.13v-5.17a.25.25,0,0,1,0-.17.2.2,0,0,1,.1-.12l2.24-1.3a.07.07,0,0,1,.1,0,.28.28,0,0,1,0,.13V292a.48.48,0,0,1,0,.17.29.29,0,0,1-.1.12l-1.68,1v1.27l1.56-.9h.1a.28.28,0,0,1,0,.13v.56a.54.54,0,0,1,0,.18.23.23,0,0,1-.1.12l-1.56.9v1.33Z"/></g></g></g><g id="Canceled_icon" data-name="Canceled icon"><g id="Canceled_icon-2" data-name="Canceled icon-2"><path class="cls-8" d="M139,187.52c-1.37-.77-6.71-3.86-8.08-4.67a24.27,24.27,0,0,0-12.09-3.12,32.91,32.91,0,0,0-16.52,4.83,53.93,53.93,0,0,0-11.68,9.32A69.13,69.13,0,0,0,80.5,207.69c-5.07,9.08-8.2,19.23-8.2,28.61,0,11.62,4.72,21,12.92,25.71l8.09,4.67a23.89,23.89,0,0,0,12.21,3.25A33.17,33.17,0,0,0,122.09,265a55.56,55.56,0,0,0,11.62-9.26A62.9,62.9,0,0,0,143.79,242c5.13-9,8.14-19.17,8.14-28.73C151.94,201.8,147.28,192.42,139,187.52ZM92.19,241a45.33,45.33,0,0,1,4.17-18l20.77,19.9a41.68,41.68,0,0,1-9,7.26c-4.57,2.63-8.76,3.51-12.38,3.06C93.54,250.31,92.19,246.23,92.19,241Zm39.87-32.34a45.62,45.62,0,0,1-4.24,18l-20.65-19.91a39.32,39.32,0,0,1,9-7.25c4.53-2.63,8.7-3.51,12.32-3.08,2.22,2.92,3.57,7,3.57,12.21Z"/><path class="cls-8" d="M80.39,241c0-9.38,3.13-19.53,8.2-28.61a68.07,68.07,0,0,1,10.09-13.81,53.63,53.63,0,0,1,11.68-9.32,32.87,32.87,0,0,1,16.51-4.83A24.27,24.27,0,0,1,139,187.55c-1.37-.77-6.71-3.86-8.08-4.67a24.3,24.3,0,0,0-12.09-3.15,32.91,32.91,0,0,0-16.52,4.83,53.93,53.93,0,0,0-11.68,9.32A69.13,69.13,0,0,0,80.5,207.69c-5.07,9.08-8.2,19.23-8.2,28.61,0,11.62,4.72,21,12.92,25.71l8.09,4.67C85.11,262,80.39,252.59,80.39,241Z"/><path class="cls-12" d="M139,187.52a24.27,24.27,0,0,0-12.09-3.12,32.87,32.87,0,0,0-16.51,4.83,53.63,53.63,0,0,0-11.68,9.32,68.07,68.07,0,0,0-10.09,13.81c-5.07,9.08-8.2,19.23-8.2,28.61,0,11.62,4.72,21,12.92,25.71a23.89,23.89,0,0,0,12.21,3.25A33.17,33.17,0,0,0,122.09,265a55.56,55.56,0,0,0,11.62-9.26A62.9,62.9,0,0,0,143.79,242c5.13-9,8.14-19.17,8.14-28.73C151.94,201.8,147.28,192.42,139,187.52ZM116.2,254.83c-6.67,3.83-12.63,4.19-17,1.65s-7-7.85-7-15.51c0-6.49,1.94-13.57,5.19-20.18l27.84,26.78A41.85,41.85,0,0,1,116.2,254.83Zm-9-48.08a39.32,39.32,0,0,1,9-7.25c6.6-3.84,12.56-4.19,16.93-1.71s7,7.9,7,15.51c0,6.49-2,13.57-5.2,20.17Z"/><path class="cls-1" d="M93.31,266.68a24.32,24.32,0,0,0,7.15,2.63,25.76,25.76,0,0,0,7.59.29,35,35,0,0,0,14.23-5.05A60.6,60.6,0,0,0,143,242.63c5.11-8.77,8.43-18.71,8.63-28.89a34.78,34.78,0,0,0-2.82-14.83A25.16,25.16,0,0,0,139,187.52a25,25,0,0,1,10.21,11.21,35.36,35.36,0,0,1,3.09,15,53,53,0,0,1-2.39,15.2A68.56,68.56,0,0,1,143.72,243a63.73,63.73,0,0,1-9.15,12.38,55.37,55.37,0,0,1-12,9.67A35.37,35.37,0,0,1,108.09,270,24.35,24.35,0,0,1,93.31,266.68Z"/><path class="cls-1" d="M140.15,213.3a44.46,44.46,0,0,1-1.72,10.3,51.43,51.43,0,0,1-1.7,4.94c-.58,1.45-1.21,2.89-1.89,4.29l-6.54-6.34-7-6.64c-2.32-2.23-4.69-4.39-7-6.59s-4.73-4.36-7.12-6.51q3.36,3.47,6.78,6.86c2.29,2.25,4.54,4.54,6.86,6.77l6.91,6.72,7,6.65.38.36.22-.47c.77-1.59,1.47-3.21,2.08-4.86s1.11-3.31,1.55-5A38.21,38.21,0,0,0,140.15,213.3Z"/><path class="cls-8" d="M80.39,241a45.71,45.71,0,0,1,.52-6.51l-8.12-4.7a45.71,45.71,0,0,0-.52,6.51c0,11.62,4.72,21,12.92,25.71l8.09,4.67C85.11,262,80.39,252.59,80.39,241Z"/><polygon class="cls-13" points="117.13 242.9 125.22 247.57 97.38 220.79 96.36 222.99 117.13 242.9"/></g><g id="Canceled_icon-3" data-name="Canceled icon-3"><path class="cls-3" d="M206.29,238.37c-1.62-.91-7.91-4.55-9.53-5.5a28.57,28.57,0,0,0-14.25-3.68,38.64,38.64,0,0,0-19.45,5.7,63,63,0,0,0-13.76,11,80.82,80.82,0,0,0-11.89,16.26c-6,10.7-9.66,22.65-9.66,33.7,0,13.69,5.56,24.74,15.22,30.3l9.53,5.5a28.24,28.24,0,0,0,14.38,3.83c6.33,0,12.93-2,19.53-5.77A65.57,65.57,0,0,0,200.1,318.8,74.6,74.6,0,0,0,212,302.61c6.05-10.64,9.6-22.59,9.6-33.85C221.58,255.19,216.09,244.14,206.29,238.37Zm-55.11,63a53.46,53.46,0,0,1,4.91-21.18l24.48,23.47a49.17,49.17,0,0,1-10.63,8.54c-5.39,3.1-10.33,4.14-14.59,3.61-2.56-3.47-4.17-8.28-4.17-14.48Zm47-38.09c0,6.81-1.89,14.15-5,21.18L168.79,261a46.17,46.17,0,0,1,10.63-8.55c5.34-3.1,10.26-4.14,14.52-3.62,2.62,3.46,4.21,8.26,4.21,14.41Z"/><path class="cls-4" d="M137.28,301.33c0-11.05,3.68-23,9.66-33.7a81.2,81.2,0,0,1,11.85-16.26,63.27,63.27,0,0,1,13.76-11,38.8,38.8,0,0,1,19.46-5.7,28.57,28.57,0,0,1,14.25,3.68c-1.62-.91-7.91-4.55-9.53-5.5a28.57,28.57,0,0,0-14.25-3.68,38.64,38.64,0,0,0-19.45,5.7,63,63,0,0,0-13.76,11,80.82,80.82,0,0,0-11.89,16.26c-6,10.7-9.66,22.65-9.66,33.7,0,13.69,5.56,24.74,15.22,30.3l9.53,5.5C142.84,326.07,137.28,315,137.28,301.33Z"/><path class="cls-13" d="M156.09,280.15l24.48,23.47a49.17,49.17,0,0,1-10.63,8.54c-5.39,3.1-10.33,4.14-14.59,3.61a14.17,14.17,0,0,0,4.1,3.84c5.14,3,12.16,2.57,20-1.95a48.4,48.4,0,0,0,10.63-8.54l-32.8-31.55A18.82,18.82,0,0,0,156.09,280.15Z"/><path class="cls-13" d="M199.41,250.47c-3-1.72-6.74-2.12-10.83-1.38a18.46,18.46,0,0,1,5.4-.23c2.58,3.43,4.17,8.23,4.17,14.38,0,6.81-1.89,14.15-5,21.18L168.79,261l32.73,31.48c3.82-7.78,6.12-16.12,6.12-23.77C207.68,259.78,204.48,253.45,199.41,250.47Z"/><path class="cls-3" d="M206.29,238.37A28.57,28.57,0,0,0,192,234.69a38.8,38.8,0,0,0-19.46,5.7,63.27,63.27,0,0,0-13.76,11,81.06,81.06,0,0,0-11.88,16.26c-6,10.7-9.66,22.65-9.66,33.7,0,13.69,5.56,24.74,15.22,30.3a28.24,28.24,0,0,0,14.38,3.83c6.33,0,12.93-2,19.53-5.77A65.57,65.57,0,0,0,200.1,318.8,74.6,74.6,0,0,0,212,302.61c6.05-10.64,9.6-22.59,9.6-33.85C221.58,255.19,216.09,244.14,206.29,238.37Zm-26.83,79.29c-7.85,4.52-14.87,4.94-20,1.95s-8.27-9.24-8.27-18.28c0-7.64,2.29-16,6.11-23.76l32.8,31.55A48.69,48.69,0,0,1,179.46,317.66ZM168.79,261a46.17,46.17,0,0,1,10.63-8.55c7.79-4.52,14.8-4.93,20-2s8.27,9.31,8.27,18.27c0,7.65-2.3,16-6.12,23.77Z"/><path class="cls-3" d="M152.5,331.63a28.33,28.33,0,0,0,8.42,3.09,30.11,30.11,0,0,0,8.94.34,40.9,40.9,0,0,0,16.76-5.95A71.39,71.39,0,0,0,211,303.3c6-10.34,9.93-22.05,10.16-34.05a41.08,41.08,0,0,0-3.32-17.47,29.6,29.6,0,0,0-11.57-13.41,29.59,29.59,0,0,1,12,13.21,41.7,41.7,0,0,1,3.64,17.68,62.6,62.6,0,0,1-2.81,17.91,80.21,80.21,0,0,1-7.25,16.62,75.1,75.1,0,0,1-10.78,14.59A65.25,65.25,0,0,1,187,329.77a41.52,41.52,0,0,1-17.11,5.78A28.7,28.7,0,0,1,152.5,331.63Z"/><path class="cls-14" d="M152.5,331.63a28.33,28.33,0,0,0,8.42,3.09,30.11,30.11,0,0,0,8.94.34,40.9,40.9,0,0,0,16.76-5.95A71.39,71.39,0,0,0,211,303.3c6-10.34,9.93-22.05,10.16-34.05a41.08,41.08,0,0,0-3.32-17.47,29.6,29.6,0,0,0-11.57-13.41,29.59,29.59,0,0,1,12,13.21,41.7,41.7,0,0,1,3.64,17.68,62.6,62.6,0,0,1-2.81,17.91,80.21,80.21,0,0,1-7.25,16.62,75.1,75.1,0,0,1-10.78,14.59A65.25,65.25,0,0,1,187,329.77a41.52,41.52,0,0,1-17.11,5.78A28.7,28.7,0,0,1,152.5,331.63Z"/><path class="cls-3" d="M207.68,268.74a51.6,51.6,0,0,1-2,12.14q-.85,3-2,5.82c-.69,1.7-1.43,3.4-2.24,5.05l-7.7-7.47-8.22-7.83c-2.73-2.62-5.53-5.17-8.29-7.76s-5.57-5.13-8.38-7.66q4,4.07,8,8.08c2.7,2.65,5.36,5.35,8.08,8l8.14,7.92,8.22,7.83.45.43.26-.55A61.44,61.44,0,0,0,206.24,281,45.26,45.26,0,0,0,207.68,268.74Z"/><path class="cls-14" d="M207.68,268.74a51.6,51.6,0,0,1-2,12.14q-.85,3-2,5.82c-.69,1.7-1.43,3.4-2.24,5.05l-7.7-7.47-8.22-7.83c-2.73-2.62-5.53-5.17-8.29-7.76s-5.57-5.13-8.38-7.66q4,4.07,8,8.08c2.7,2.65,5.36,5.35,8.08,8l8.14,7.92,8.22,7.83.45.43.26-.55A61.44,61.44,0,0,0,206.24,281,45.26,45.26,0,0,0,207.68,268.74Z"/><path class="cls-3" d="M137.28,301.33a53.12,53.12,0,0,1,.61-7.67l-9.53-5.49a54.43,54.43,0,0,0-.61,7.66c0,13.69,5.56,24.74,15.22,30.3l9.53,5.5C142.84,326.07,137.28,315,137.28,301.33Z"/><path class="cls-15" d="M137.28,301.33a53.12,53.12,0,0,1,.61-7.67l-9.53-5.49a54.43,54.43,0,0,0-.61,7.66c0,13.69,5.56,24.74,15.22,30.3l9.53,5.5C142.84,326.07,137.28,315,137.28,301.33Z"/><polygon class="cls-13" points="180.57 303.62 190.1 309.12 157.29 277.57 156.09 280.15 180.57 303.62"/></g></g><g id="Window_1" data-name="Window 1"><g id="Window-3"><g id="Instagram_Window" data-name="Instagram Window"><g id="Dark_Window" data-name="Dark Window"><path class="cls-16" d="M168.45,232.75V198.92h0V138.74a9.57,9.57,0,0,1,1.43-4.77l-6.09-3.52a9.92,9.92,0,0,0-1.46,4.8v15.6h0V229.3a3.35,3.35,0,0,0,1.84,2.93l5.88,3.4A3.33,3.33,0,0,1,168.45,232.75Z"/><path class="cls-17" d="M293.63,65.84a2.11,2.11,0,0,0-.08-.45.14.14,0,0,0,0-.09,1.51,1.51,0,0,0-.11-.43,2.43,2.43,0,0,0-.28-.61A.89.89,0,0,0,293,64a.86.86,0,0,0-.14-.18,1.34,1.34,0,0,0-.32-.31h0a1.91,1.91,0,0,0-.41-.24,3.45,3.45,0,0,0-3.23.41L173.24,130.42a10.63,10.63,0,0,0-4.8,8.31v94a3.2,3.2,0,0,0,3.09,3.3,3.25,3.25,0,0,0,1.7-.42h0l7.84-4.54h0l107.77-61.92a10.63,10.63,0,0,0,4.81-8.31V66.43A5.43,5.43,0,0,0,293.63,65.84Z"/><g class="cls-18"><path class="cls-19" d="M288.85,63.67l-115.6,66.75a9.7,9.7,0,0,0-3.38,3.56l-6.1-3.53a9.43,9.43,0,0,1,3.34-3.5L282.72,60.19a3.35,3.35,0,0,1,3.49-.28c.86.53,4.84,2.79,5.85,3.33A3.44,3.44,0,0,0,288.85,63.67Z"/></g></g></g><path class="cls-1" d="M264.3,120.12a3.56,3.56,0,0,0-1.53,1.61,6.08,6.08,0,0,0-.47,2.63v7.09a1.44,1.44,0,0,1-.15.6.94.94,0,0,1-.33.41l-1.35.78a.27.27,0,0,1-.34,0,.56.56,0,0,1-.14-.44V120.07a1.36,1.36,0,0,1,.14-.6.91.91,0,0,1,.34-.41l1.35-.78a.24.24,0,0,1,.33,0,.58.58,0,0,1,.15.44v.63a7.82,7.82,0,0,1,1-1.58,4.6,4.6,0,0,1,1.37-1.15l.8-.46a.27.27,0,0,1,.34,0,.59.59,0,0,1,.14.43v1.8a1.59,1.59,0,0,1-.14.6,1.15,1.15,0,0,1-.34.42Z"/><path class="cls-12" d="M193.08,161.84v2.38a5.67,5.67,0,0,0,.31,1.62,2,2,0,0,0,.61.86,1.3,1.3,0,0,0,.8.21,2.13,2.13,0,0,0,.91-.3,6.09,6.09,0,0,0,.93-.67,5.15,5.15,0,0,0,.64-.76,6.78,6.78,0,0,0,.45-.84c.12-.29.24-.6.36-.94s.19-.52.31-.79a1.05,1.05,0,0,1,.42-.55l1.68-1a.35.35,0,0,1,.43,0,.67.67,0,0,1,.16.55,9.07,9.07,0,0,1-.33,1.93,13.27,13.27,0,0,1-1,2.51,14.59,14.59,0,0,1-1.66,2.54,9.37,9.37,0,0,1-2.43,2,4.16,4.16,0,0,1-2.19.63,2.76,2.76,0,0,1-1.68-.73,4.27,4.27,0,0,1-1.13-1.83,9.46,9.46,0,0,1-.49-2.68c0-.39-.05-.84-.05-1.34a12.46,12.46,0,0,1,.05-1.41,16.62,16.62,0,0,1,1.61-6.42,12.52,12.52,0,0,1,1.68-2.67,8,8,0,0,1,2.2-1.9,4.47,4.47,0,0,1,2.43-.76,2.68,2.68,0,0,1,1.66.62,3.35,3.35,0,0,1,1,1.4,5,5,0,0,1,.33,1.54,1.48,1.48,0,0,1-.16.74,1.21,1.21,0,0,1-.43.52l-1.68,1a.3.3,0,0,1-.42-.06,3.11,3.11,0,0,1-.31-.43,4.1,4.1,0,0,0-.36-.53,1.14,1.14,0,0,0-.45-.31,1,1,0,0,0-.64,0,3.08,3.08,0,0,0-.93.4,3.83,3.83,0,0,0-.91.74,5.7,5.7,0,0,0-.8,1.14,7.77,7.77,0,0,0-.61,1.56A10.09,10.09,0,0,0,193.08,161.84Z"/><path class="cls-12" d="M203,156.23a6.14,6.14,0,0,1,.32-1.41,9.1,9.1,0,0,1,1.88-3.26,6.13,6.13,0,0,1,1.59-1.28,3.66,3.66,0,0,1,1.63-.57,1.72,1.72,0,0,1,1.25.35,2.66,2.66,0,0,1,.8,1.32,7.83,7.83,0,0,1,.29,2.31v8a1.44,1.44,0,0,1-.15.6.94.94,0,0,1-.33.41l-1.35.78a.27.27,0,0,1-.34,0,.54.54,0,0,1-.14-.43v-.9a8.21,8.21,0,0,1-1.07,2,6.16,6.16,0,0,1-1.78,1.59,3.16,3.16,0,0,1-1.36.47,1.48,1.48,0,0,1-1-.3,2.19,2.19,0,0,1-.62-1,4.75,4.75,0,0,1-.22-1.58,6.9,6.9,0,0,1,.86-3.45,9.7,9.7,0,0,1,2.32-2.78l2.89-2.43c0-.75-.16-1.18-.47-1.31a1.4,1.4,0,0,0-1.19.22,2,2,0,0,0-.69.59,4,4,0,0,0-.48.8,4.66,4.66,0,0,1-.3.47,1.41,1.41,0,0,1-.29.25l-1.64,1a.29.29,0,0,1-.31,0A.55.55,0,0,1,203,156.23Zm2.95,6a4.58,4.58,0,0,0,1.08-.88,6,6,0,0,0,.78-1.15,5.84,5.84,0,0,0,.48-1.26,5,5,0,0,0,.16-1.21v-.27l-2.41,2a4.32,4.32,0,0,0-1,1.17,2.09,2.09,0,0,0-.32,1.17c0,.39.13.6.38.63a1.42,1.42,0,0,0,.85-.21Z"/><path class="cls-12" d="M250,128.06a6.8,6.8,0,0,1,.32-1.42A8.91,8.91,0,0,1,251,125a8.28,8.28,0,0,1,1.15-1.61,6.13,6.13,0,0,1,1.59-1.28,3.8,3.8,0,0,1,1.63-.58,1.77,1.77,0,0,1,1.25.36,2.66,2.66,0,0,1,.8,1.32,7.83,7.83,0,0,1,.29,2.31v8a1.44,1.44,0,0,1-.15.6.94.94,0,0,1-.33.41l-1.35.78a.27.27,0,0,1-.34,0,.54.54,0,0,1-.14-.43V134a9,9,0,0,1-1.07,2,5.86,5.86,0,0,1-1.78,1.58,3.31,3.31,0,0,1-1.36.48,1.49,1.49,0,0,1-1-.31,2.14,2.14,0,0,1-.62-1,4.75,4.75,0,0,1-.22-1.58,6.9,6.9,0,0,1,.86-3.45,9.7,9.7,0,0,1,2.32-2.78l2.89-2.44c0-.74-.16-1.18-.47-1.3a1.34,1.34,0,0,0-1.19.22,2,2,0,0,0-.69.59,4,4,0,0,0-.48.79,2.66,2.66,0,0,1-.3.47,1,1,0,0,1-.29.25l-1.65,1a.27.27,0,0,1-.3,0A.55.55,0,0,1,250,128.06Zm3,6a5.08,5.08,0,0,0,1.08-.88,6.36,6.36,0,0,0,.75-1.18,5.84,5.84,0,0,0,.48-1.26,5.58,5.58,0,0,0,.16-1.21v-.28l-2.41,2a4.27,4.27,0,0,0-1,1.16,2.12,2.12,0,0,0-.32,1.18c0,.39.12.59.38.63a1.61,1.61,0,0,0,.83-.17Z"/><path class="cls-12" d="M221.79,155.36a1.59,1.59,0,0,1-.14.6,1,1,0,0,1-.34.41l-1.35.78a.26.26,0,0,1-.33,0,.54.54,0,0,1-.14-.43v-6.93a4.19,4.19,0,0,0-.5-2.33c-.33-.47-.84-.5-1.53-.11a3.61,3.61,0,0,0-1.47,1.84,7.31,7.31,0,0,0-.55,2.93V159a1.42,1.42,0,0,1-.14.6.94.94,0,0,1-.33.41l-1.35.78a.27.27,0,0,1-.34,0,.54.54,0,0,1-.14-.43V147.64a1.36,1.36,0,0,1,.14-.6.94.94,0,0,1,.34-.42l1.35-.77a.24.24,0,0,1,.33,0,.63.63,0,0,1,.14.44v.63a9.7,9.7,0,0,1,1.09-1.8,4.5,4.5,0,0,1,1.47-1.31,2.89,2.89,0,0,1,1.8-.53A1.67,1.67,0,0,1,221,144a3.9,3.9,0,0,1,.63,1.66,14,14,0,0,1,.19,2.34Z"/><path class="cls-12" d="M226,145.61v1.93a4.47,4.47,0,0,0,.25,1.3,1.47,1.47,0,0,0,.49.69,1,1,0,0,0,.65.17,1.58,1.58,0,0,0,.72-.24,4,4,0,0,0,.75-.54,4.23,4.23,0,0,0,.51-.61,6.19,6.19,0,0,0,.36-.67c.1-.23.2-.48.3-.76s.15-.41.25-.63a.77.77,0,0,1,.33-.44L232,145a.27.27,0,0,1,.34,0,.54.54,0,0,1,.14.44,9.15,9.15,0,0,1-.27,1.55,10.23,10.23,0,0,1-2.11,4,7.41,7.41,0,0,1-2,1.65,3.18,3.18,0,0,1-1.75.5,2.21,2.21,0,0,1-1.36-.58,3.51,3.51,0,0,1-.9-1.47,8,8,0,0,1-.4-2.16v-2.2a13,13,0,0,1,.39-2.63,13.15,13.15,0,0,1,.91-2.53,9.54,9.54,0,0,1,1.35-2.14,6.46,6.46,0,0,1,1.76-1.53,3.64,3.64,0,0,1,2-.6,2.12,2.12,0,0,1,1.34.49,2.69,2.69,0,0,1,.77,1.13,4.29,4.29,0,0,1,.27,1.24,1.38,1.38,0,0,1-.14.59,1.15,1.15,0,0,1-.34.42l-1.35.77a.25.25,0,0,1-.33,0h0a2,2,0,0,1-.25-.34,3.19,3.19,0,0,0-.3-.42.83.83,0,0,0-.36-.26.74.74,0,0,0-.51,0,2.27,2.27,0,0,0-.75.32,2.91,2.91,0,0,0-.72.59,4,4,0,0,0-.65.92,5.91,5.91,0,0,0-.49,1.25A8.13,8.13,0,0,0,226,145.61Z"/><path class="cls-12" d="M233.91,142a15.54,15.54,0,0,1,.3-3.05,13.93,13.93,0,0,1,.87-2.84,10.16,10.16,0,0,1,1.37-2.37,6.16,6.16,0,0,1,1.8-1.61,2.93,2.93,0,0,1,1.8-.48,2.18,2.18,0,0,1,1.37.71,4.19,4.19,0,0,1,.88,1.7,9.86,9.86,0,0,1,.31,2.48v1.23a1.59,1.59,0,0,1-.14.6,1,1,0,0,1-.34.41l-5.92,3.42a2.45,2.45,0,0,0,.17,1,1,1,0,0,0,1.11.66,2.32,2.32,0,0,0,.76-.28,4.6,4.6,0,0,0,.92-.71,4.46,4.46,0,0,0,.58-.79,3.08,3.08,0,0,1,.32-.48,1,1,0,0,1,.34-.28l1.42-.82a.27.27,0,0,1,.34,0,.54.54,0,0,1,.14.44,5,5,0,0,1-.28,1.14,9.23,9.23,0,0,1-.77,1.62,11.23,11.23,0,0,1-1.27,1.72,7.18,7.18,0,0,1-1.74,1.41,3.19,3.19,0,0,1-1.8.51,2,2,0,0,1-1.37-.72,4.43,4.43,0,0,1-.87-1.83A11,11,0,0,1,233.91,142Zm4.34-6.59a2.82,2.82,0,0,0-.88.73,4.61,4.61,0,0,0-.61,1,5,5,0,0,0-.38,1,4.75,4.75,0,0,0-.17,1l4-2.31a4.88,4.88,0,0,0-.13-.78,1.39,1.39,0,0,0-.32-.64.8.8,0,0,0-.58-.26,1.79,1.79,0,0,0-.93.26Z"/><path class="cls-12" d="M246.84,140.89a1.59,1.59,0,0,1-.14.6,1,1,0,0,1-.34.41l-1.34.78a.27.27,0,0,1-.34,0,.56.56,0,0,1-.14-.44V124.33a1.36,1.36,0,0,1,.14-.6.94.94,0,0,1,.34-.42l1.34-.77a.25.25,0,0,1,.34,0,.63.63,0,0,1,.14.44Z"/><path class="cls-1" d="M272.13,109.58a4.12,4.12,0,0,1,1.66-.58,2.14,2.14,0,0,1,1.4.24,2.34,2.34,0,0,1,1,1.15,5.25,5.25,0,0,1,.38,2.15,9,9,0,0,1-.23,2,12.53,12.53,0,0,1-.56,1.77c-.23.55-.48,1.08-.76,1.61l-.77,1.46a11.18,11.18,0,0,0-.63,1.36,3.89,3.89,0,0,0-.33,1.31,2.61,2.61,0,0,1-.16.61.83.83,0,0,1-.32.4l-1.35.78a.27.27,0,0,1-.34,0,.52.52,0,0,1-.14-.44,9.57,9.57,0,0,1,.3-2,12.33,12.33,0,0,1,.62-1.8,15.92,15.92,0,0,1,.78-1.61l.77-1.44c.21-.43.41-.86.58-1.3a3.69,3.69,0,0,0,.23-1.18,1.22,1.22,0,0,0-.87-1.51,1.2,1.2,0,0,0-1.2.33,5.5,5.5,0,0,0-2.22,3.6c-.05.19-.11.37-.18.56a.9.9,0,0,1-.33.34l-1.44.83a.23.23,0,0,1-.27,0,.43.43,0,0,1-.12-.37,8,8,0,0,1,.39-2.17,12.57,12.57,0,0,1,1-2.36,11.53,11.53,0,0,1,1.44-2.15A6.17,6.17,0,0,1,272.13,109.58Zm.71,15.09a.24.24,0,0,1,.33,0,.57.57,0,0,1,.15.44v2.4a1.44,1.44,0,0,1-.15.6.94.94,0,0,1-.33.41l-1.53.88a.26.26,0,0,1-.33,0,.55.55,0,0,1-.14-.44v-2.4a1.23,1.23,0,0,1,.14-.6.79.79,0,0,1,.33-.41Z"/><g id="Button-3"><path class="cls-8" d="M184.92,211.89a2.72,2.72,0,0,1-1.37-.36,3.5,3.5,0,0,1-1.5-3.24v-4.12a10.23,10.23,0,0,1,4.61-7.93l27.9-16.1a3.12,3.12,0,0,1,5.08,2.93v4.07a10.16,10.16,0,0,1-4.58,7.93l-28,16.16A4.51,4.51,0,0,1,184.92,211.89Zm2.27-14.78a9.08,9.08,0,0,0-4.11,7.07v4.12a2.13,2.13,0,0,0,3.55,2.06l28-16.15a9,9,0,0,0,4.08-7.07v-4.07a2.16,2.16,0,0,0-3.62-2.07Z"/><path class="cls-8" d="M189.92,203a.53.53,0,0,1,.06-.19.22.22,0,0,1,.09-.1l.42-.25a.11.11,0,0,1,.11,0,.17.17,0,0,1,0,.14,4.36,4.36,0,0,1-.11.71,3.51,3.51,0,0,1-.75,1.46,2.91,2.91,0,0,1-.69.57,1.3,1.3,0,0,1-.64.2.65.65,0,0,1-.46-.18,1.13,1.13,0,0,1-.3-.53,2.6,2.6,0,0,1-.13-.82v-1.34a4.15,4.15,0,0,1,.13-1,3.2,3.2,0,0,1,.3-.87,2.91,2.91,0,0,1,.46-.73,2.32,2.32,0,0,1,.64-.53,1.29,1.29,0,0,1,.69-.23.63.63,0,0,1,.47.16.9.9,0,0,1,.28.43,2.36,2.36,0,0,1,.11.59.54.54,0,0,1,0,.18.32.32,0,0,1-.11.12l-.42.24H190a.11.11,0,0,1-.06-.12.77.77,0,0,0-.08-.27.49.49,0,0,0-.15-.19.36.36,0,0,0-.25,0,.71.71,0,0,0-.35.13,1.16,1.16,0,0,0-.36.3,1.5,1.5,0,0,0-.25.4,1.94,1.94,0,0,0-.16.48,4,4,0,0,0-.06.51v1.34a1.72,1.72,0,0,0,.06.44.76.76,0,0,0,.16.29.41.41,0,0,0,.25.11.94.94,0,0,0,.36-.11,1.87,1.87,0,0,0,.35-.28,2.7,2.7,0,0,0,.25-.34,3,3,0,0,0,.16-.37A2.41,2.41,0,0,0,189.92,203Z"/><path class="cls-8" d="M191.17,200.52a5.27,5.27,0,0,1,.11-.9,3.63,3.63,0,0,1,.29-.86A2.91,2.91,0,0,1,192,198a2.22,2.22,0,0,1,.67-.55,1.19,1.19,0,0,1,.66-.22.59.59,0,0,1,.46.2,1.12,1.12,0,0,1,.29.52,3.34,3.34,0,0,1,.12.78v1.43a4.73,4.73,0,0,1-.12.91,3.68,3.68,0,0,1-.28.85,3.14,3.14,0,0,1-.47.73,2.73,2.73,0,0,1-.66.56,1.43,1.43,0,0,1-.67.21.64.64,0,0,1-.46-.19,1.22,1.22,0,0,1-.29-.52,3.49,3.49,0,0,1-.11-.78v-1.09C191.16,200.74,191.17,200.63,191.17,200.52Zm2.35-1.31a1,1,0,0,0-.24-.76.45.45,0,0,0-.58,0,1.43,1.43,0,0,0-.59.65,2.45,2.45,0,0,0-.24,1v1.35a1,1,0,0,0,.24.75.53.53,0,0,0,.59,0,1.61,1.61,0,0,0,.58-.66,2.53,2.53,0,0,0,.24-1v-.68c0-.24,0-.46,0-.65Z"/><path class="cls-8" d="M197.32,200.49h-.13l-.07-.07-1.46-2.49v3.3a.48.48,0,0,1,0,.17.29.29,0,0,1-.1.12l-.42.25a.09.09,0,0,1-.1,0,.15.15,0,0,1,0-.13v-5.17a.48.48,0,0,1,0-.17.23.23,0,0,1,.1-.12l.37-.21h.13l.07.07,1.45,2.49v-3.29a.54.54,0,0,1,0-.18.23.23,0,0,1,.1-.12l.43-.25a.06.06,0,0,1,.09,0,.28.28,0,0,1,0,.13V200a.48.48,0,0,1,0,.17.34.34,0,0,1-.09.12Z"/><path class="cls-8" d="M201.11,192.7a.09.09,0,0,1,.1,0,.28.28,0,0,1,0,.13v.57a.54.54,0,0,1,0,.18.29.29,0,0,1-.1.12l-.94.54v4.38a.54.54,0,0,1,0,.18.34.34,0,0,1-.09.12l-.43.24a.09.09,0,0,1-.1,0,.13.13,0,0,1,0-.12v-4.39l-.93.54a.09.09,0,0,1-.1,0,.15.15,0,0,1,0-.13v-.57a.28.28,0,0,1,0-.18.29.29,0,0,1,.1-.12Z"/><path class="cls-8" d="M202,197.81a.09.09,0,0,1-.1,0,.15.15,0,0,1,0-.13V192.5a.48.48,0,0,1,0-.17.2.2,0,0,1,.1-.12l.42-.25a.07.07,0,0,1,.1,0,.28.28,0,0,1,0,.13v5.17a.48.48,0,0,1,0,.17.29.29,0,0,1-.1.12Z"/><path class="cls-8" d="M205.79,195.62h-.13l-.07-.07-1.45-2.49v3.29a.54.54,0,0,1,0,.18.29.29,0,0,1-.1.12l-.42.24a.09.09,0,0,1-.1,0,.15.15,0,0,1,0-.13V191.6a.28.28,0,0,1,0-.18.23.23,0,0,1,.1-.12l.36-.21a.12.12,0,0,1,.14,0l.06.07,1.46,2.49v-3.3a.25.25,0,0,1,0-.17.2.2,0,0,1,.1-.12l.42-.25a.07.07,0,0,1,.1,0,.28.28,0,0,1,0,.13v5.16a.54.54,0,0,1,0,.18.29.29,0,0,1-.1.12Z"/><path class="cls-8" d="M209.92,187.61a.07.07,0,0,1,.1,0V191a5.17,5.17,0,0,1-.09.95,4.45,4.45,0,0,1-.28.85,3.64,3.64,0,0,1-.47.71,2.75,2.75,0,0,1-.65.53,1.52,1.52,0,0,1-.65.22.71.71,0,0,1-.47-.17,1.12,1.12,0,0,1-.27-.53,3.08,3.08,0,0,1-.09-.85v-3.28a.25.25,0,0,1,0-.17.2.2,0,0,1,.1-.12l.42-.25a.05.05,0,0,1,.08,0h0a.19.19,0,0,1,.05.13v3.24a2.44,2.44,0,0,0,0,.53.66.66,0,0,0,.16.28.31.31,0,0,0,.25.07.76.76,0,0,0,.32-.11,1.59,1.59,0,0,0,.57-.61,3.06,3.06,0,0,0,.17-.48,3,3,0,0,0,.06-.59v-3.24a.28.28,0,0,1,0-.18.2.2,0,0,1,.1-.12Z"/><path class="cls-8" d="M213.32,190.25a.09.09,0,0,1,.1,0,.28.28,0,0,1,0,.13V191a.54.54,0,0,1,0,.18.29.29,0,0,1-.1.12L211,192.62a.09.09,0,0,1-.1,0,.15.15,0,0,1,0-.13v-5.17a.25.25,0,0,1,0-.17.2.2,0,0,1,.1-.12l2.24-1.3a.07.07,0,0,1,.1,0,.28.28,0,0,1,0,.13v.56a.54.54,0,0,1,0,.18.29.29,0,0,1-.1.12l-1.68,1V189l1.56-.9h.1a.17.17,0,0,1,.05.12v.57a.61.61,0,0,1-.05.18.23.23,0,0,1-.1.12l-1.56.9v1.33Z"/></g><g id="Button-4"><path class="cls-3" d="M247.79,161.56l27.89-16.11c2.39-1.38,4.33-.26,4.33,2.5V152a9.62,9.62,0,0,1-4.33,7.5l-28,16.15c-2.39,1.38-4.32.26-4.3-2.5V169A9.63,9.63,0,0,1,247.79,161.56Z"/><path class="cls-12" d="M254.4,165.89a.31.31,0,0,1,0-.19.17.17,0,0,1,.1-.1l.42-.25a.07.07,0,0,1,.1,0v.13a4.48,4.48,0,0,1-.11.72,4,4,0,0,1-.28.75,4.08,4.08,0,0,1-.47.7,2.91,2.91,0,0,1-.69.57,1.3,1.3,0,0,1-.64.2.7.7,0,0,1-.46-.18,1.13,1.13,0,0,1-.3-.53,3.34,3.34,0,0,1-.13-.82v-1.34a5.47,5.47,0,0,1,.13-1,3.32,3.32,0,0,1,.3-.87,3.22,3.22,0,0,1,.46-.73,2.51,2.51,0,0,1,.64-.53,1.42,1.42,0,0,1,.69-.23.69.69,0,0,1,.47.16.9.9,0,0,1,.28.43,2.36,2.36,0,0,1,.11.59.54.54,0,0,1,0,.18.29.29,0,0,1-.1.12l-.42.25h-.1a.16.16,0,0,1-.06-.12.77.77,0,0,0-.07-.27.4.4,0,0,0-.16-.18.39.39,0,0,0-.25-.06.71.71,0,0,0-.35.13,1,1,0,0,0-.35.3,1.84,1.84,0,0,0-.26.4,1.92,1.92,0,0,0-.15.48,2.73,2.73,0,0,0-.07.51v1.34a1.75,1.75,0,0,0,.07.44.62.62,0,0,0,.15.29.47.47,0,0,0,.26.11.89.89,0,0,0,.35-.11,1.87,1.87,0,0,0,.35-.28,2,2,0,0,0,.25-.34,2.83,2.83,0,0,0,.16-.36C254.32,166.1,254.36,166,254.4,165.89Z"/><path class="cls-12" d="M257.44,160.31h.13a.59.59,0,0,1,.07.16l1.27,4.32v.05a.54.54,0,0,1,0,.18.34.34,0,0,1-.09.12l-.38.22h-.14a.27.27,0,0,1-.06-.1l-.22-.76-1.65,1-.22,1-.06.16a.43.43,0,0,1-.14.16l-.38.21a.07.07,0,0,1-.09,0h0a.12.12,0,0,1,0-.12v-.06l1.27-5.79a1,1,0,0,1,.07-.25.25.25,0,0,1,.13-.14Zm.29,3.35-.58-1.95-.57,2.61Z"/><path class="cls-12" d="M261.79,163.39h-.13l-.07-.07-1.46-2.49v3.29a.54.54,0,0,1,0,.18.29.29,0,0,1-.1.12l-.42.24a.09.09,0,0,1-.1,0,.15.15,0,0,1,0-.13v-5.17a.54.54,0,0,1,0-.18.29.29,0,0,1,.1-.12l.37-.21a.09.09,0,0,1,.13,0l.07.07,1.45,2.49v-3.3a.48.48,0,0,1,0-.17.2.2,0,0,1,.1-.12l.42-.25h.1a.28.28,0,0,1,0,.13v5.17a.48.48,0,0,1,0,.17.23.23,0,0,1-.1.12Z"/><path class="cls-12" d="M265.4,159.54a.31.31,0,0,1,.06-.19.24.24,0,0,1,.09-.11L266,159a.09.09,0,0,1,.1,0,.17.17,0,0,1,0,.14,3.59,3.59,0,0,1-.38,1.47,4.08,4.08,0,0,1-.47.7,3.23,3.23,0,0,1-.7.57,1.3,1.3,0,0,1-.63.2.67.67,0,0,1-.47-.19,1.24,1.24,0,0,1-.3-.52,2.91,2.91,0,0,1-.12-.82v-1.34a5.47,5.47,0,0,1,.12-1,4.48,4.48,0,0,1,.3-.87,2.88,2.88,0,0,1,.47-.72,2,2,0,0,1,.63-.53,1.25,1.25,0,0,1,.7-.23.67.67,0,0,1,.47.16.9.9,0,0,1,.28.43,2.35,2.35,0,0,1,.1.59.28.28,0,0,1,0,.18.29.29,0,0,1-.1.12l-.42.24h-.1a.15.15,0,0,1,0-.13.77.77,0,0,0-.08-.27.45.45,0,0,0-.15-.18.36.36,0,0,0-.25,0,.78.78,0,0,0-.36.13.92.92,0,0,0-.35.3,1.5,1.5,0,0,0-.25.4,1.86,1.86,0,0,0-.16.47,2.1,2.1,0,0,0-.06.51v1.35a1.59,1.59,0,0,0,.06.43.56.56,0,0,0,.16.29.33.33,0,0,0,.25.11.64.64,0,0,0,.35-.1,1.93,1.93,0,0,0,.36-.28,2.8,2.8,0,0,0,.25-.35,1.89,1.89,0,0,0,.16-.36A2.17,2.17,0,0,0,265.4,159.54Z"/><path class="cls-12" d="M269.19,158.12h.1a.28.28,0,0,1,0,.13v.57a.48.48,0,0,1,0,.17.23.23,0,0,1-.1.12l-2.28,1.32a.09.09,0,0,1-.1,0,.13.13,0,0,1,0-.12v-5.17a.54.54,0,0,1,0-.18.2.2,0,0,1,.1-.12l2.24-1.29a.07.07,0,0,1,.1,0v.69a.54.54,0,0,1,0,.18.29.29,0,0,1-.1.12l-1.68,1v1.27l1.57-.9a.07.07,0,0,1,.1,0,.28.28,0,0,1,0,.13v.57a.54.54,0,0,1,0,.18l-.1.12-1.57.9v1.33Z"/><path class="cls-12" d="M272.45,156.25a.07.07,0,0,1,.1,0,.28.28,0,0,1,0,.13V157a.48.48,0,0,1,0,.17.41.41,0,0,1-.1.13l-2.28,1.31a.09.09,0,0,1-.1,0,.13.13,0,0,1,0-.12v-5.17a.28.28,0,0,1,0-.18.2.2,0,0,1,.1-.12l.42-.24a.09.09,0,0,1,.1,0,.28.28,0,0,1,0,.13v4.39Z"/></g></g></g><g id="Caracter"><path class="cls-20" d="M335.8,140.65c8.55-18.44,13.76-40.4,13.76-40.4l-2.25-3.53s-9.33-1-17.58,15.67-17.63,33.47-12.92,41C322.4,156.37,326,151,335.8,140.65Z"/><path class="cls-21" d="M328.47,319.9s-3.41,3.7-8,8.14c-4.2,4.1-5.51,5.28-9.41,9.09-2.28,2.23-.41,4.27,3.94,4.11,3.82-.15,12.48-2,17.32-3.75a88,88,0,0,0,13-6.76,8.57,8.57,0,0,0,3.85-4.86V319Z"/><path class="cls-21" d="M374.31,341.53s-.79,7-1.27,15.83.76,16.6,3.46,17.57,10.36.84,14.73-11.39A48.71,48.71,0,0,0,393,339.43Z"/><path class="cls-20" d="M391.3,207.82c1.61-25.12-12.23-38.32-12.23-38.32,1.1-8.46-38.16,3.38-38.16,3.38s-8.41,45.5-12,69.46c-4,27.23-2.27,75.84-2.27,75.84s.51,5.92,10.66,5.88c7.78,0,14.2-6.37,14.2-6.37l.8-56.74,10.54-38.9s-.21,38.72,4.29,54.45c6.71,23.46,4.58,68.35,4.58,68.35s13.16,4.7,22.18.19,7.24-9.54,7.24-9.54,2.94-38.55-8.65-64.63C391.55,251.07,390.56,219.35,391.3,207.82Z"/><path class="cls-21" d="M347.86,99S334.31,110,332.69,125.45c-.8,7.68,1.55,33.55,1.62,50.51,0,9.51-3.74,36.2-3.74,36.2A87.55,87.55,0,0,0,343,219c0-6.77,2.55-17.35,2.55-17.35s.77,11.92.77,18.48a46.81,46.81,0,0,0,13.83,2c12.54-.06,33.19-8.78,33.19-8.78s0-28.55-3.82-44.33c-4.07-16.84,2.11-45.15,1.5-49.69-1-7.61-18.25-15.84-18.25-15.84S360.53,94.06,347.86,99Z"/><path class="cls-20" d="M353.76,97.59a80.15,80.15,0,0,0-12.66,13,26.26,26.26,0,0,0-4,7.18l4,3.9-5.67,2.71s-3.17,21.37,1.13,28.55,9.5,25.13,9.5,25.13,6-18.54,8.6-23.16,12.54-17.4,12.54-17.4l-5-7.5,6.32-2.06s13.19-14.89,12-19.21a14,14,0,0,0-10-9.72Z"/><path class="cls-12" d="M346.4,112.35a183.71,183.71,0,0,0-5,18.57c-1.76,8.81,4.65,38.14,4.65,38.14s2.85-28.67,8.6-36.82a185.92,185.92,0,0,1,15.67-18.85S352.26,110.1,346.4,112.35Z"/><path class="cls-3" d="M349.75,114.16l-1,7.54s-4.44,4.29-5.4,9.55.06,24.29.06,24.29l2.61,13.52,1.14-9s2-11.7,3.78-18.92a44.44,44.44,0,0,1,.79-6.56c1.21-3.55,1.46-10.86,1.46-10.86l4.7-5.62-4.48-5.23Z"/><path class="cls-22" d="M352.69,98.57l-.81,11.91a31.74,31.74,0,0,0,5.59,5.76c4.3-1.34,14.3-10.61,14.3-10.61l-3.33-18.49Z"/><path class="cls-23" d="M373.59,70.32c-3.09-6.56-14.57-14.13-25.53-3.89-11.48,10.73-7,32.33,1.5,33.82,4.31.76,12.88-1.36,18.58-7.19C374.56,86.51,376,75.42,373.59,70.32Z"/><path class="cls-24" d="M352.38,103.18l1.07,9.66L345.6,116S344.7,105.72,352.38,103.18Z"/><path class="cls-24" d="M371.08,101.82a21.89,21.89,0,0,1-8.07,7.72c-2.88,1.63-9.56,3.3-9.56,3.3l2.95,8.86s9.34-3.79,13.93-7.43C370.33,114.27,376.42,107.06,371.08,101.82Z"/><path class="cls-20" d="M358.82,173.81c2.4,4.19,7,4.28,12.95,0,12.55-9,20.76-29.52,23.25-40.26,3.13-13.47-2.11-18.66-9.34-21.79-4,1-7.62,7.54-12.19,20.17C369.39,143.24,354.61,166.45,358.82,173.81Z"/><path class="cls-21" d="M370.39,62.41c-5.33-10.61-17.81-9.57-24.13-2-6.08,7.26-5.82,7.27-10.47,10,10.27,10.81,23.43,5.41,28.11,3.74-2.24,6.52.6,12.73,1.49,12.63,1.42-2.73,2.82-3.13,4-1.58,1.28,1.75-.17,7-.17,7a20.11,20.11,0,0,0,9.24-12.61C379.65,74.11,380.25,65.49,370.39,62.41Z"/><path class="cls-23" d="M359.14,118.63s.46-10.49.76-12.64a47,47,0,0,1,1.35-6.84c1-3,1.09-4.86-.92-3.38s-2.55,3.79-4.45,4.74-4.75-4.44-8.59-6.09-5.84-3.27-6.76-1.45a17.42,17.42,0,0,0-.45,8.9c.75,3.08,6.56,4,9.81,7.39a5.67,5.67,0,0,1,1.67,2.74,57.56,57.56,0,0,1,.51,6Z"/><path class="cls-12" d="M350.46,122.39v-9.55a9.42,9.42,0,0,0,4,.64,24.5,24.5,0,0,0,6.59-1.42s.83,7.39.75,9.42S350.73,124.74,350.46,122.39Z"/><path class="cls-20" d="M362.48,117.43a34.22,34.22,0,0,1-13,1.2s-1,17.51.33,29.57c1.37,12.82,1.81,23.92,6.3,27.1s12.15-2.52,12.15-2.52,2.11-20.75,0-32.36C365.71,126.26,365.42,126.19,362.48,117.43Z"/><path class="cls-23" d="M342,152.68a51.67,51.67,0,0,0,13.75,10.39c1.23.61,9.2,2.29,6.1,4.68-2.11,1.63-9.94-2.85-8.37,1.63,1.45,4.13,14.89,2.87,12.68,7.34-5.28,4.25-13,2.06-16.84-.94-1.74-1.35-9.9-13.32-9.9-13.32Z"/><path class="cls-12" d="M341.7,150.71a47.2,47.2,0,0,1,7.81,5.5c-3.94,3-6.52,9.74-6.52,13.17a58.88,58.88,0,0,0-6.78-4.48Z"/><path class="cls-20" d="M323.57,141.94s-7.52.69-7.89,4.22c-.64,6.11-2.22,9.19,1.95,12.51,4.69,3.73,16.5,8.49,23,10.39-2.47-9.18,5.64-17,5.64-17S335.4,141.25,323.57,141.94Z"/><path class="cls-22" d="M342.86,92.41A13,13,0,0,1,348,94.78c2.59,2,4.69,4.12,5.47,4.75-.76-1-1.85-4.51-5.3-6.43S342.86,92.41,342.86,92.41Z"/><path class="cls-22" d="M357.47,99.14s1.73-2.85,2.86-3.37,1.62,0,1.62,0-.62-1.91-2.24-.82S357.47,99.14,357.47,99.14Z"/></g></g></g></g></svg>