<svg xmlns="http://www.w3.org/2000/svg" viewBox="0 0 472.12 473.88"><defs><style>.cls-1{fill:#f0f0f0;}.cls-2{opacity:0.07;}.cls-10,.cls-11,.cls-12,.cls-17,.cls-18,.cls-19,.cls-2,.cls-20,.cls-21,.cls-22,.cls-23,.cls-24,.cls-28,.cls-30,.cls-33,.cls-34,.cls-9{isolation:isolate;}.cls-3{fill:#e0e0e0;}.cls-18,.cls-19,.cls-23,.cls-4{fill:#edcd00;}.cls-12,.cls-18,.cls-5{opacity:0.1;}.cls-10,.cls-11,.cls-17,.cls-22,.cls-34,.cls-6,.cls-9{fill:#fff;}.cls-7{fill:#373737;}.cls-8{fill:#272727;}.cls-9{opacity:0.8;}.cls-10,.cls-21{opacity:0.4;}.cls-11{opacity:0.65;}.cls-13{fill:#455a64;}.cls-14{fill:#37474f;}.cls-15{fill:#ebebeb;}.cls-16{fill:#fafafa;}.cls-17{opacity:0.55;}.cls-19,.cls-28,.cls-29{opacity:0.6;}.cls-20{opacity:0.25;}.cls-22{opacity:0.7;}.cls-23,.cls-24,.cls-25,.cls-34{opacity:0.3;}.cls-26{fill:#ffa8a7;}.cls-27,.cls-28{fill:#263238;}.cls-30{opacity:0.15;}.cls-31{fill:#f5f5f5;}.cls-32{fill:#f28f8f;}.cls-33{opacity:0.2;}.cls-35{fill:#212121;}.cls-36{fill:#383838;}.cls-37{fill:#ffc5b3;}.cls-38{fill:#ffad97;}</style></defs><g id="Camada_2" data-name="Camada 2"><g id="Camada_1-2" data-name="Camada 1"><g id="Camada_2-2" data-name="Camada 2"><g id="Floor"><ellipse id="Floor-2" class="cls-1" cx="236.06" cy="337.59" rx="236.06" ry="136.29"/></g><g id="Shadows"><path id="Shadow" class="cls-2" d="M285.12,458.34,45.72,320.12a1.33,1.33,0,0,1-.83-1.68,1.35,1.35,0,0,1,.83-.82L187.63,235.7a4.79,4.79,0,0,1,4.33,0L431.35,373.91a1.32,1.32,0,0,1,.83,1.67,1.34,1.34,0,0,1-.83.83l-141.9,81.93A4.79,4.79,0,0,1,285.12,458.34Z"/><ellipse id="Shadow-2" class="cls-3" cx="138.96" cy="427.29" rx="37.43" ry="21.61"/><ellipse id="Shadow-3" class="cls-3" cx="370.5" cy="312.37" rx="35.66" ry="20.59"/></g><g id="Plants"><g id="Plants-2"><path class="cls-4" d="M390.59,305.6c2.22-3.08,8.61-6.19,16.81-7.39s16.46-2.81,14.92-7.63c-1.66-5.19-9.15-5.95-16.7-3.44-8.26,2.74-14.75,10.49-15.21,15.6Z"/><g class="cls-5"><path d="M390.59,305.6c2.22-3.08,8.61-6.19,16.81-7.39s16.46-2.81,14.92-7.63c-1.66-5.19-9.15-5.95-16.7-3.44-8.26,2.74-14.75,10.49-15.21,15.6Z"/></g><path class="cls-6" d="M390.06,304.09a.63.63,0,0,0,.56-.3c7.32-12.84,22.34-14,27-12.93a.61.61,0,0,0,.42-1.15l-.15,0c-4.87-1.1-20.64.07-28.3,13.51a.62.62,0,0,0,.24.83.72.72,0,0,0,.25.07Z"/><path class="cls-4" d="M390.62,303.79s1.85-12,15.21-20.79a91.92,91.92,0,0,0,8.69-7.05c5-4.22,3.36-9.28-3.09-9.63-9.58-.51-17.14,7.07-20.88,17.41A31.11,31.11,0,0,0,390.62,303.79Z"/><path class="cls-6" d="M389.47,299.55a.6.6,0,0,0,.64-.5c3.12-19.33,18.63-28.1,22.74-28.86a.61.61,0,0,0,.48-.71.6.6,0,0,0-.68-.49h0c-5,.92-20.52,10.06-23.72,29.85a.62.62,0,0,0,.5.7Z"/></g><g id="Plants-3"><path class="cls-4" d="M90.27,321.65l8.16-2.93s2.39-17.81.18-32.44c-3.32-21.9-21.85-43.1-35.06-47.2-24.36-7.57-24.18,15.45-5.84,28.28C73.66,278.52,87.87,295.2,90.27,321.65Z"/><path class="cls-6" d="M94.27,320.64h-.09a1,1,0,0,1-.74-1.14c4.38-20-11.15-57.85-33-69.07a1,1,0,0,1,0-1.42,1,1,0,0,1,.91-.29c22.54,11.57,38.55,50.54,34,71.19A1,1,0,0,1,94.27,320.64Z"/><path class="cls-4" d="M101,333.09c.39-2.37.64-5.86.71-6.71a22.15,22.15,0,0,0-1.06-9c-.44-1.27-1.31-2.5-1.46-3.79s.14-2.44-.19-3.72a9.87,9.87,0,0,0-4.57-6.14c-2.18-1.25-5-1.8-6.23-4-.82-1.48-.63-3.28-.56-5,.1-2.59-.21-5.37-1.87-7.35-2.14-2.56-5.88-3.06-9.2-2.72S70,286,66.67,285.72c-5.61-.46-10.4-4.44-16-5.26a17.44,17.44,0,0,0-5.94.24c-2.88.6-5.83,2-7.16,4.62a8.11,8.11,0,0,0,.59,7.71c1.55,2.57,4,4.18,6.6,5.6s4.55,3,3.24,6.37a9.78,9.78,0,0,0-.88,3,5.31,5.31,0,0,0,2.73,4.48,15.68,15.68,0,0,0,5.2,1.71l6.36,1.3c1.86.38,4.13,1.22,4.23,3.11,0,1.17-.82,2.15-1.27,3.23a6,6,0,0,0,1.68,6.41A11.4,11.4,0,0,0,72.42,331c2.32.34,4.69.3,7,.56a26.9,26.9,0,0,1,10.27,3.35A8.66,8.66,0,0,0,92.26,336C93.6,336.27,100.7,334.58,101,333.09Z"/><g class="cls-5"><path d="M101,333.09c.39-2.37.64-5.86.71-6.71a22.15,22.15,0,0,0-1.06-9c-.44-1.27-1.31-2.5-1.46-3.79s.14-2.44-.19-3.72a9.87,9.87,0,0,0-4.57-6.14c-2.18-1.25-5-1.8-6.23-4-.82-1.48-.63-3.28-.56-5,.1-2.59-.21-5.37-1.87-7.35-2.14-2.56-5.88-3.06-9.2-2.72S70,286,66.67,285.72c-5.61-.46-10.4-4.44-16-5.26a17.44,17.44,0,0,0-5.94.24c-2.88.6-5.83,2-7.16,4.62a8.11,8.11,0,0,0,.59,7.71c1.55,2.57,4,4.18,6.6,5.6s4.55,3,3.24,6.37a9.78,9.78,0,0,0-.88,3,5.31,5.31,0,0,0,2.73,4.48,15.68,15.68,0,0,0,5.2,1.71l6.36,1.3c1.86.38,4.13,1.22,4.23,3.11,0,1.17-.82,2.15-1.27,3.23a6,6,0,0,0,1.68,6.41A11.4,11.4,0,0,0,72.42,331c2.32.34,4.69.3,7,.56a26.9,26.9,0,0,1,10.27,3.35A8.66,8.66,0,0,0,92.26,336C93.6,336.27,100.7,334.58,101,333.09Z"/></g><path class="cls-6" d="M97.1,335.29a.86.86,0,0,1-.74-.56c-8-21.07-26.94-37.91-53.4-47.43a.88.88,0,0,1,.6-1.65c26.94,9.7,46.27,26.91,54.43,48.46a.88.88,0,0,1-.51,1.13A1,1,0,0,1,97.1,335.29Z"/></g></g><g id="Document"><g id="Analysis"><path class="cls-7" d="M96.42,344.81l-3.33-1.93a4.19,4.19,0,0,1-1.91-3.3V92.32a4.21,4.21,0,0,1,1.9-3.3L246.48.46a4.19,4.19,0,0,1,3.81,0l3.34,1.92a4.21,4.21,0,0,1,1.9,3.3V253a4.19,4.19,0,0,1-1.9,3.29l-153.4,88.57A4.23,4.23,0,0,1,96.42,344.81Z"/><path class="cls-8" d="M255.51,5.37c-.13-1-.93-1.34-1.88-.79L100.23,93.15a3.81,3.81,0,0,0-1.35,1.41l-7.15-4.12A4,4,0,0,1,93.08,89L246.48.46a4.19,4.19,0,0,1,3.81,0l3.34,1.92A4.29,4.29,0,0,1,255.51,5.37Z"/><path class="cls-8" d="M99.9,345h-.12a.62.62,0,0,1-.19.07h-.08l-.35.09h0a4.28,4.28,0,0,1-2.27-.19,2.68,2.68,0,0,1-.42-.19l-3.34-1.93a4.21,4.21,0,0,1-1.9-3.29V92.32a3.88,3.88,0,0,1,.55-1.88l7.15,4.12a3.89,3.89,0,0,0-.56,1.88V343.71a1.63,1.63,0,0,0,.29,1,1,1,0,0,0,1,.33Z"/><path class="cls-4" d="M153.68,82.39a1.55,1.55,0,0,0-.35-.7l-.12-.1a.73.73,0,0,0-.71-.11.66.66,0,0,0-.27.12,3.11,3.11,0,0,0-1.07,1.31,4.5,4.5,0,0,0-.45,1.91,1.9,1.9,0,0,0,.43,1.37.85.85,0,0,0,1.09.08,2,2,0,0,0,.59-.52,4.16,4.16,0,0,0,.41-.62,4.76,4.76,0,0,0,.52-2.06A3.08,3.08,0,0,0,153.68,82.39Zm24.94-55.73a3.47,3.47,0,0,0-1.83-.49,6.94,6.94,0,0,0-3.44,1.11A15.49,15.49,0,0,0,167,34.89c-.21.45-.4.91-.57,1.37s-.34.93-.5,1.4-.31,1-.45,1.44l-.15.48-.28,1v.14c-.17.59-.32,1.19-.48,1.78-.09.33-.16.65-.25,1s-.16.63-.25,1c-.33,1.26-.68,2.47-1.06,3.63-.08.24-.15.47-.24.7s-.24.66-.36,1-.2.49-.3.72c-.16.39-.33.77-.51,1.12l-.34.68c-2.69,5.16-6,7.18-7.87,9.84-1.67,2.31-2.14,4.17-4.38,7.83-.71,1.17-1.6,2.52-2.77,4.13-3.24,4.46-4.39,6.67-4.8,8v.11a1.47,1.47,0,0,1-.08.3v.09a.42.42,0,0,1-.05.25,6.84,6.84,0,0,0-.05.79v9.92l3.57,2.06v-10a4.66,4.66,0,0,1,.23-1.53c.39-1.34,1.54-3.53,4.78-8,1.18-1.62,2.07-3,2.79-4.14,2.22-3.65,2.7-5.51,4.37-7.8h0c1.9-2.67,5.18-4.68,7.87-9.85A27.3,27.3,0,0,0,166,51.73c1.73-4.3,2.5-10,4.61-14.79a15.49,15.49,0,0,1,6.34-7.6c2.17-1.25,3.77-1.35,5-.78Zm15.65,12.68h0a3.56,3.56,0,0,0-1-.38c-1.34-.32-3.35.46-5.37.23,2.83,3.67,6.77,1.31,8.94,1.83a3.59,3.59,0,0,1,1,.39h0ZM201.83,53a1.29,1.29,0,0,0-.3.22l-.14.15-.15.16a4.44,4.44,0,0,0-.94,2.69,2,2,0,0,0,.43,1.36l.12.1a.78.78,0,0,0,.71.11,1.11,1.11,0,0,0,.27-.12l.31-.22a3.72,3.72,0,0,0,.41-.48,4.5,4.5,0,0,0,.8-2.5C203.35,53.15,202.67,52.49,201.83,53Zm2.34-9a12.14,12.14,0,0,0-3.69-1.31c-.55-.12-1-.26-1.48-.4a10.39,10.39,0,0,0,5,2.46,14.15,14.15,0,0,1,3.3,1.07Z"/><path class="cls-9" d="M153.68,82.39a1.55,1.55,0,0,0-.35-.7l-.12-.1a.73.73,0,0,0-.71-.11.66.66,0,0,0-.27.12,3.11,3.11,0,0,0-1.07,1.31,4.5,4.5,0,0,0-.45,1.91,1.9,1.9,0,0,0,.43,1.37.85.85,0,0,0,1.09.08,2,2,0,0,0,.59-.52,4.16,4.16,0,0,0,.41-.62,4.76,4.76,0,0,0,.52-2.06A3.08,3.08,0,0,0,153.68,82.39Zm24.94-55.73a3.47,3.47,0,0,0-1.83-.49,6.94,6.94,0,0,0-3.44,1.11A15.49,15.49,0,0,0,167,34.89c-.21.45-.4.91-.57,1.37s-.34.93-.5,1.4-.31,1-.45,1.44l-.15.48-.28,1v.14c-.17.59-.32,1.19-.48,1.78-.09.33-.16.65-.25,1s-.16.63-.25,1c-.33,1.26-.68,2.47-1.06,3.63-.08.24-.15.47-.24.7s-.24.66-.36,1-.2.49-.3.72c-.16.39-.33.77-.51,1.12l-.34.68c-2.69,5.16-6,7.18-7.87,9.84-1.67,2.31-2.14,4.17-4.38,7.83-.71,1.17-1.6,2.52-2.77,4.13-3.24,4.46-4.39,6.67-4.8,8v.11a1.47,1.47,0,0,1-.08.3v.09a.42.42,0,0,1-.05.25,6.84,6.84,0,0,0-.05.79v9.92l3.57,2.06v-10a4.66,4.66,0,0,1,.23-1.53c.39-1.34,1.54-3.53,4.78-8,1.18-1.62,2.07-3,2.79-4.14,2.22-3.65,2.7-5.51,4.37-7.8h0c1.9-2.67,5.18-4.68,7.87-9.85A27.3,27.3,0,0,0,166,51.73c1.73-4.3,2.5-10,4.61-14.79a15.49,15.49,0,0,1,6.34-7.6c2.17-1.25,3.77-1.35,5-.78Zm15.65,12.68h0a3.56,3.56,0,0,0-1-.38c-1.34-.32-3.35.46-5.37.23,2.83,3.67,6.77,1.31,8.94,1.83a3.59,3.59,0,0,1,1,.39h0ZM201.83,53a1.29,1.29,0,0,0-.3.22l-.14.15-.15.16a4.44,4.44,0,0,0-.94,2.69,2,2,0,0,0,.43,1.36l.12.1a.78.78,0,0,0,.71.11,1.11,1.11,0,0,0,.27-.12l.31-.22a3.72,3.72,0,0,0,.41-.48,4.5,4.5,0,0,0,.8-2.5C203.35,53.15,202.67,52.49,201.83,53Zm2.34-9a12.14,12.14,0,0,0-3.69-1.31c-.55-.12-1-.26-1.48-.4a10.39,10.39,0,0,0,5,2.46,14.15,14.15,0,0,1,3.3,1.07Z"/><path class="cls-4" d="M207.62,46l-.28-.16a14.17,14.17,0,0,0-3.3-1.08,10.3,10.3,0,0,1-5-2.46,7.41,7.41,0,0,0-1.16-.86,3.59,3.59,0,0,0-1-.39c-2.17-.52-6.11,1.84-8.94-1.83l-.09-.11c-2-2.67-2.7-8.61-5.66-10.37l-.3-.16c-1.22-.57-2.82-.47-5,.78-7.85,4.54-8.12,15.31-10.95,22.39s-6.83,9.31-9,12.36-2.33,5.31-7.16,12-5,8.29-5,9.55v9.92l64.29-37.13v-10A2.51,2.51,0,0,0,207.62,46ZM152.23,86.3c-.83.48-1.51-.17-1.51-1.46a4,4,0,0,1,1.51-3.22c.85-.49,1.51.17,1.51,1.47a4,4,0,0,1-1.51,3.19Zm24.68-29.9a3.25,3.25,0,0,1-4.52-.78,3.56,3.56,0,0,1-.39-.75,9.19,9.19,0,0,1-.78-4c0-4.87,2.57-10.3,5.73-12.13a4.84,4.84,0,0,1,1.38-.54c2.5-.49,4.35,1.91,4.35,6.06,0,4.86-2.6,10.29-5.77,12.12Zm24.92,1.26c-.84.48-1.52-.17-1.52-1.45A4,4,0,0,1,201.83,53c.84-.48,1.51.17,1.51,1.46a4,4,0,0,1-1.51,3.18Z"/><path class="cls-10" d="M207.62,46l-.28-.16a14.17,14.17,0,0,0-3.3-1.08,10.3,10.3,0,0,1-5-2.46,7.41,7.41,0,0,0-1.16-.86,3.59,3.59,0,0,0-1-.39c-2.17-.52-6.11,1.84-8.94-1.83l-.09-.11c-2-2.67-2.7-8.61-5.66-10.37l-.3-.16c-1.22-.57-2.82-.47-5,.78-7.85,4.54-8.12,15.31-10.95,22.39s-6.83,9.31-9,12.36-2.33,5.31-7.16,12-5,8.29-5,9.55v9.92l64.29-37.13v-10A2.51,2.51,0,0,0,207.62,46ZM152.23,86.3c-.83.48-1.51-.17-1.51-1.46a4,4,0,0,1,1.51-3.22c.85-.49,1.51.17,1.51,1.47a4,4,0,0,1-1.51,3.19Zm24.68-29.9a3.25,3.25,0,0,1-4.52-.78,3.56,3.56,0,0,1-.39-.75,9.19,9.19,0,0,1-.78-4c0-4.87,2.57-10.3,5.73-12.13a4.84,4.84,0,0,1,1.38-.54c2.5-.49,4.35,1.91,4.35,6.06,0,4.86-2.6,10.29-5.77,12.12Zm24.92,1.26c-.84.48-1.52-.17-1.52-1.45A4,4,0,0,1,201.83,53c.84-.48,1.51.17,1.51,1.46a4,4,0,0,1-1.51,3.18Z"/><path class="cls-4" d="M145,84.06a4.66,4.66,0,0,0-.23,1.53v9.93l-3.57-2.06V83.54a6.84,6.84,0,0,1,.05-.79.49.49,0,0,1,.05-.25v-.09a1.22,1.22,0,0,1,.08-.3V82h0Z"/><path class="cls-4" d="M156.94,64.12c-1.67,2.29-2.15,4.15-4.37,7.8L149,69.86c2.24-3.66,2.71-5.52,4.38-7.83h0Z"/><path class="cls-4" d="M170.57,36.94c-2.11,4.81-2.88,10.49-4.61,14.79a25.91,25.91,0,0,1-1.14,2.52l-3.57-2.06.34-.68c.18-.35.35-.73.51-1.12l.3-.72c.12-.31.25-.64.36-1s.16-.46.24-.7c.38-1.16.73-2.37,1.06-3.63.09-.32.16-.63.25-1s.16-.63.25-1c.16-.59.31-1.19.48-1.78v-.14c.1-.32.19-.64.28-1l.15-.48q.21-.72.45-1.44c.16-.47.33-.93.5-1.4s.36-.92.57-1.37Z"/><path class="cls-11" d="M145,84.06a4.66,4.66,0,0,0-.23,1.53v9.93l-3.57-2.06V83.54a6.84,6.84,0,0,1,.05-.79.49.49,0,0,1,.05-.25v-.09a1.22,1.22,0,0,1,.08-.3V82h0Z"/><path class="cls-11" d="M156.94,64.12c-1.67,2.29-2.15,4.15-4.37,7.8L149,69.86c2.24-3.66,2.71-5.52,4.38-7.83h0Z"/><path class="cls-11" d="M170.57,36.94c-2.11,4.81-2.88,10.49-4.61,14.79a25.91,25.91,0,0,1-1.14,2.52l-3.57-2.06.34-.68c.18-.35.35-.73.51-1.12l.3-.72c.12-.31.25-.64.36-1s.16-.46.24-.7c.38-1.16.73-2.37,1.06-3.63.09-.32.16-.63.25-1s.16-.63.25-1c.16-.59.31-1.19.48-1.78v-.14c.1-.32.19-.64.28-1l.15-.48q.21-.72.45-1.44c.16-.47.33-.93.5-1.4s.36-.92.57-1.37Z"/><path class="cls-4" d="M151.16,82.91a4.5,4.5,0,0,0-.45,1.91,1.9,1.9,0,0,0,.43,1.37,2,2,0,0,1-.42-1.37A4.68,4.68,0,0,1,151.16,82.91Zm2.59.16a3.08,3.08,0,0,0-.07-.68,3.82,3.82,0,0,1,.06.68,4.78,4.78,0,0,1-.51,2.06A4.76,4.76,0,0,0,153.75,83.07Zm47.1-25.42a.78.78,0,0,0,.71.11A.85.85,0,0,1,200.85,57.65Z"/><path class="cls-4" d="M182.64,44.25c0,4.87-2.56,10.3-5.73,12.13a3.25,3.25,0,0,1-4.52-.77,3.49,3.49,0,0,1-.39-.74,4.64,4.64,0,0,0,1.39-.55c3.16-1.83,5.72-7.26,5.72-12.13a9,9,0,0,0-.78-4C180.79,37.69,182.64,40.1,182.64,44.25Z"/><path class="cls-12" d="M182.64,44.25c0,4.87-2.56,10.3-5.73,12.13a3.25,3.25,0,0,1-4.52-.77,3.49,3.49,0,0,1-.39-.74,4.64,4.64,0,0,0,1.39-.55c3.16-1.83,5.72-7.26,5.72-12.13a9,9,0,0,0-.78-4C180.79,37.69,182.64,40.1,182.64,44.25Z"/><path class="cls-13" d="M153.22,85.12a4.18,4.18,0,0,1-.4.63,2,2,0,0,1-.59.52.85.85,0,0,1-1.09-.08,1.9,1.9,0,0,1-.43-1.37,4.5,4.5,0,0,1,.45-1.91,3.11,3.11,0,0,1,1.07-1.31.66.66,0,0,1,.27-.12.78.78,0,0,1,.83.21,1.45,1.45,0,0,1,.35.7,3.08,3.08,0,0,1,.07.68A4.47,4.47,0,0,1,153.22,85.12Z"/><path class="cls-14" d="M203.35,54.44a4.5,4.5,0,0,1-.8,2.5,3.72,3.72,0,0,1-.41.48l-.31.22a1.11,1.11,0,0,1-.27.12.78.78,0,0,1-.83-.21,2,2,0,0,1-.43-1.36,4.44,4.44,0,0,1,.94-2.69l.15-.16.14-.15a1.29,1.29,0,0,1,.3-.22C202.67,52.49,203.35,53.15,203.35,54.44Z"/><path class="cls-6" d="M248.35,41.59c-.14-.47-.58-.62-1.1-.32L113.76,118.34a2.28,2.28,0,0,0-.81.85l-3.57-2.06a2.33,2.33,0,0,1,.17-.26,2.2,2.2,0,0,1,.2-.23,2.17,2.17,0,0,1,.44-.36L243.68,39.21a1.66,1.66,0,0,1,.33-.15,2.58,2.58,0,0,1,1.69,0,1.15,1.15,0,0,1,.25.12l1.3.74a1.33,1.33,0,0,1,.19.14.7.7,0,0,1,.16.14,2.18,2.18,0,0,1,.21.22,1.43,1.43,0,0,1,.14.2,1.64,1.64,0,0,1,.14.22,2.55,2.55,0,0,1,.2.48A1.31,1.31,0,0,1,248.35,41.59Z"/><path class="cls-15" d="M425.85,369.48,333.5,320.13h0L320.92,312a147.29,147.29,0,0,1-28.29-23.89A167.65,167.65,0,0,1,248.39,174.6v-49l-4.07-2.34-131.7-2.91a2.47,2.47,0,0,1,.33-1.13l-3.57-2.06a2.44,2.44,0,0,0-.14.28,2.24,2.24,0,0,0-.19.85v83.33H109v49c0,2.33,0,4.67.07,7v.08a139.07,139.07,0,0,0,1.37,17.88q.88,5.91,2.2,11.72a167.73,167.73,0,0,0,40.17,76.81A146.93,146.93,0,0,0,181.08,388l12.58,8.15L285.12,449h0l4,2.32a4.79,4.79,0,0,0,4.33,0L425,375.43a1.54,1.54,0,0,0,.89-1.25Z"/><path class="cls-12" d="M425.85,369.48v4.7a1.49,1.49,0,0,1-.89,1.25L293.52,451.31a4.54,4.54,0,0,1-2.17.52v-4.7a4.32,4.32,0,0,0,2.17-.52L425,370.73A1.51,1.51,0,0,0,425.85,369.48Z"/><path class="cls-16" d="M425,368.23l-91.46-52.8h0L321,307.28a147.29,147.29,0,0,1-28.29-23.89A167.67,167.67,0,0,1,248.39,169.9V41.9a1.93,1.93,0,0,0,0-.34c-.14-.47-.58-.62-1.1-.32l-133.53,77.1a2.28,2.28,0,0,0-.81.85,2.47,2.47,0,0,0-.33,1.13v128A167.78,167.78,0,0,0,156.86,361.8a147.29,147.29,0,0,0,28.29,23.89l12.58,8.15,91.46,52.8a4.79,4.79,0,0,0,4.33,0L425,370.73a1.33,1.33,0,0,0,.83-1.68A1.35,1.35,0,0,0,425,368.23Z"/><path class="cls-4" d="M166.22,69.5c-.07.1-.12.2-.18.3a7,7,0,0,0-.91,2.25v.13h0L163,84.44l-.69,3.93a2.77,2.77,0,0,1-.11.48,1.59,1.59,0,0,1-.14.47l-.12.32,3.57,2.06a6.36,6.36,0,0,0,.37-1.27l.7-3.92,2.16-12.26a6.62,6.62,0,0,1,1.12-2.73Z"/><path class="cls-4" d="M141.64,109.05c-.36.57-.7,1.14-1,1.71-.15.28-.3.56-.43.84s-.34.71-.5,1.08-.33.79-.48,1.19-.3.81-.43,1.22-.31.93-.44,1.41c-.09.31-.18.62-.26,1-.2.75-.38,1.52-.54,2.29-.06.27-.11.55-.16.82s-.13.65-.19,1h0c0,.26,0,.43.12.51h.12l3-2.42.49-.39.24-.19.27-.21.21-.16.18-.14a27.26,27.26,0,0,1,4.41-9l-3.57-2.07C142.34,108,142,108.54,141.64,109.05Z"/><path class="cls-4" d="M180.26,42.53c-.16.27-.31.55-.46.82s-.18.32-.26.48-.24.46-.35.69l-.28.56-.49,1.09c-.17.4-.33.79-.48,1.18h0c-.15.35-.27.71-.39,1.06-.19.54-.35,1.07-.49,1.61a7.38,7.38,0,0,0-.22.84v.07a2.41,2.41,0,0,1-.1.43c-.07.33-.14.67-.2,1s-.1.53-.17.79-.14.55-.23.83l-.26.79v.07c-.1.28-.22.58-.34.88s-.24.59-.38.9a2.56,2.56,0,0,0-.11.24c-.1.23-.22.45-.32.67l-.57,1.1c-.12.25-.26.49-.39.73l3.58,2.07a24.65,24.65,0,0,0,2.79-7,30.38,30.38,0,0,1,3.76-9.86Z"/><path class="cls-4" d="M201.5,50.48a1.34,1.34,0,0,0-.58-.2,4.35,4.35,0,0,0,3.18,2,2.1,2.1,0,0,1,.89.2Z"/><path class="cls-9" d="M201.5,50.48a1.34,1.34,0,0,0-.58-.2,4.35,4.35,0,0,0,3.18,2,2.1,2.1,0,0,1,.89.2Z"/><path class="cls-4" d="M214.76,66a3.82,3.82,0,0,0-3.57.1c-4.15,1.84-5.95,2.66-8.09,3.56-.42,2.76,1.2,3,2,2.69,3-1.2,4.56-1.93,9.65-4.17a3.81,3.81,0,0,1,3.55-.11Z"/><path class="cls-9" d="M214.76,66a3.82,3.82,0,0,0-3.57.1c-4.15,1.84-5.95,2.66-8.09,3.56-.42,2.76,1.2,3,2,2.69,3-1.2,4.56-1.93,9.65-4.17a3.81,3.81,0,0,1,3.55-.11Z"/><path class="cls-4" d="M165.44,91.74a14.82,14.82,0,0,1-3.15,4.49l-11.19,8.39a30.39,30.39,0,0,0-4.8,4.95l-3.57-2.07a29.59,29.59,0,0,1,4.81-4.94l11.19-8.4a14.87,14.87,0,0,0,3.14-4.48Z"/><path class="cls-9" d="M165.44,91.74a14.82,14.82,0,0,1-3.15,4.49l-11.19,8.39a30.39,30.39,0,0,0-4.8,4.95l-3.57-2.07a29.59,29.59,0,0,1,4.81-4.94l11.19-8.4a14.87,14.87,0,0,0,3.14-4.48Z"/><path class="cls-4" d="M177.29,61.45a38.05,38.05,0,0,1-5.65,7.86,12.88,12.88,0,0,0-1.85,2.25l-3.57-2.06a13,13,0,0,1,1.85-2.26,38,38,0,0,0,5.64-7.86Z"/><path class="cls-9" d="M177.29,61.45a38.05,38.05,0,0,1-5.65,7.86,12.88,12.88,0,0,0-1.85,2.25l-3.57-2.06a13,13,0,0,1,1.85-2.26,38,38,0,0,0,5.64-7.86Z"/><path class="cls-4" d="M197.45,35.07c-1.31-.69-3.06-.57-5.13.51-3.06,1.61-6.14,5-8.48,9l-3.58-2.07c2.34-4,5.42-7.41,8.49-9a7.09,7.09,0,0,1,3.27-.92,3.88,3.88,0,0,1,2,.49Z"/><path class="cls-9" d="M197.45,35.07c-1.31-.69-3.06-.57-5.13.51-3.06,1.61-6.14,5-8.48,9l-3.58-2.07c2.34-4,5.42-7.41,8.49-9a7.09,7.09,0,0,1,3.27-.92,3.88,3.88,0,0,1,2,.49Z"/><path class="cls-11" d="M146.3,109.57a27.26,27.26,0,0,0-4.41,9l-.18.14-.21.16-.27.21-.24.19-.49.39-3,2.42h0a.24.24,0,0,1-.12,0c-.11-.08-.16-.25-.12-.51h0c.06-.32.12-.65.19-1s.1-.55.16-.82c.16-.77.34-1.54.54-2.29.08-.33.17-.64.26-1a12.32,12.32,0,0,1,.44-1.41c.17-.41.27-.82.43-1.22s.31-.8.48-1.19.33-.73.5-1.08.28-.56.43-.84c.31-.57.65-1.14,1-1.71s.7-1,1.09-1.55Z"/><path class="cls-11" d="M169.79,71.56a6.62,6.62,0,0,0-1.12,2.73l-2.16,12.26-.7,3.92a6.36,6.36,0,0,1-.37,1.27l-3.57-2.06.12-.32a2.26,2.26,0,0,1,.14-.47,2.77,2.77,0,0,0,.11-.48l.69-3.93,2.17-12.26h0v-.13a7.2,7.2,0,0,1,.9-2.29c.06-.1.11-.2.18-.3Z"/><path class="cls-11" d="M183.84,44.6a30.38,30.38,0,0,0-3.76,9.86,24.65,24.65,0,0,1-2.79,7l-3.58-2.07c.13-.24.27-.48.39-.73l.57-1.1c.1-.22.22-.44.32-.67a2.56,2.56,0,0,1,.11-.24c.13-.3.25-.61.38-.9s.24-.6.34-.88V54.8c.09-.27.18-.52.26-.79s.16-.56.23-.83.12-.53.17-.79l.2-1a2.07,2.07,0,0,1,.1-.43v-.07a7.38,7.38,0,0,1,.22-.84c.14-.54.3-1.07.49-1.61.12-.35.24-.71.39-1.06h0c.15-.39.31-.78.48-1.18l.49-1.09.28-.56c.11-.23.23-.46.35-.69l.26-.48c.09-.16.3-.55.46-.82Z"/><path class="cls-4" d="M137.44,122.09h0l3-2.42C139.25,120.62,137.61,121.91,137.44,122.09Z"/><path class="cls-4" d="M218.37,68.08h-.06a3.84,3.84,0,0,0-3.55.12c-5.09,2.24-6.63,3-9.65,4.17-.81.33-2.44.06-2-2.69V69.5l.7-3.93,1.92-10.68s.44-1.68-.67-2.32H205a2.09,2.09,0,0,0-.89-.19,4.35,4.35,0,0,1-3.18-2,8,8,0,0,1-1.2-6.11c.81-4.58-.08-7.79-2.11-9l-.16-.09c-1.31-.7-3.07-.59-5.13.5-5.42,2.85-10.9,11.29-12.24,18.87-.85,4.79-5.66,12.15-8.44,14.86s-3,5-3,5l-2.16,12.26-.7,3.92c-.51,2.93-3.52,5.76-3.52,5.76l-11.18,8.39a26.94,26.94,0,0,0-9.21,13.94s-4.2,3.26-4.46,3.52h0l1.44-.81L216.09,77s.89-.49,1.08-.61,3.31-3.06,3.31-3.06C220.4,70.65,219.66,68.85,218.37,68.08ZM196,45.54c-.82,4.66-4.18,9.86-7.53,11.61-2.3,1.21-4,.46-4.54-1.66a8.78,8.78,0,0,1,0-3.61c.82-4.67,4.19-9.86,7.54-11.61a7.24,7.24,0,0,1,1-.41C195.22,39,196.78,41.36,196,45.54Z"/><path class="cls-17" d="M218.37,68.08h-.06a3.84,3.84,0,0,0-3.55.12c-5.09,2.24-6.63,3-9.65,4.17-.81.33-2.44.06-2-2.69V69.5l.7-3.93,1.92-10.68s.44-1.68-.67-2.32H205a2.09,2.09,0,0,0-.89-.19,4.35,4.35,0,0,1-3.18-2,8,8,0,0,1-1.2-6.11c.81-4.58-.08-7.79-2.11-9l-.16-.09c-1.31-.7-3.07-.59-5.13.5-5.42,2.85-10.9,11.29-12.24,18.87-.85,4.79-5.66,12.15-8.44,14.86s-3,5-3,5l-2.16,12.26-.7,3.92c-.51,2.93-3.52,5.76-3.52,5.76l-11.18,8.39a26.94,26.94,0,0,0-9.21,13.94s-4.2,3.26-4.46,3.52h0l1.44-.81L216.09,77s.89-.49,1.08-.61,3.31-3.06,3.31-3.06C220.4,70.65,219.66,68.85,218.37,68.08ZM196,45.54c-.82,4.66-4.18,9.86-7.53,11.61-2.3,1.21-4,.46-4.54-1.66a8.78,8.78,0,0,1,0-3.61c.82-4.67,4.19-9.86,7.54-11.61a7.24,7.24,0,0,1,1-.41C195.22,39,196.78,41.36,196,45.54Z"/><path class="cls-4" d="M137.45,122.09l78.69-45.23s.89-.49,1.08-.61,3.31-3.07,3.31-3.07L141.9,118.57S137.13,122.26,137.45,122.09Z"/><path class="cls-4" d="M192.46,39.86a7.24,7.24,0,0,0-1,.41c-3.35,1.75-6.72,6.94-7.54,11.61a8.78,8.78,0,0,0,0,3.61c.56,2.12,2.24,2.87,4.54,1.66,3.35-1.75,6.71-6.95,7.53-11.61C196.78,41.36,195.22,39,192.46,39.86ZM184.17,55.4a8.91,8.91,0,0,1,0-3.49c.82-4.6,4.15-9.73,7.43-11.44a5.1,5.1,0,0,1,.9-.39,8.84,8.84,0,0,1,0,3.4c-.82,4.66-4.19,9.86-7.53,11.61a7.19,7.19,0,0,1-.76.32Z"/><path class="cls-12" d="M192.46,39.86a7.24,7.24,0,0,0-1,.41c-3.35,1.75-6.72,6.94-7.54,11.61a8.78,8.78,0,0,0,0,3.61c.56,2.12,2.24,2.87,4.54,1.66,3.35-1.75,6.71-6.95,7.53-11.61C196.78,41.36,195.22,39,192.46,39.86ZM184.17,55.4a8.91,8.91,0,0,1,0-3.49c.82-4.6,4.15-9.73,7.43-11.44a5.1,5.1,0,0,1,.9-.39,8.84,8.84,0,0,1,0,3.4c-.82,4.66-4.19,9.86-7.53,11.61a7.19,7.19,0,0,1-.76.32Z"/><path class="cls-18" d="M120.76,165.54v50.81c0,.91.64,1.28,1.43.82l75.55-43.52a3.16,3.16,0,0,0,1.43-2.47V120.37c0-.91-.64-1.28-1.43-.83l-75.55,43.53A3.13,3.13,0,0,0,120.76,165.54Z"/><path class="cls-4" d="M124.1,212.31s6.83-9,8.81-12.82c3-5.7,2.28-16.75,7.92-20s4.77,11.34,12.08,7.16,7.3-9.13,11-11.54,6.94,2.41,11.29,0c5-2.78,7.3-19.8,12.46-22.63,5.77-3.17,8.06,12.32,8.06,12.32V171Z"/><path class="cls-19" d="M124.1,212.31s3.21-17.3,6.69-19.32c5-2.91,3.24,9.95,10,5.79,5.55-3.39,4.52-18.11,11.72-22.16,5.42-3,5.06,8.53,11.71,4.77s5.05-22.33,11.71-26.07,5.79,16.12,10.92,13c6.08-3.66,4.06-8.57,8.83-12.86V171Z"/><path class="cls-20" d="M124.1,212.31s3.21-17.3,6.69-19.32c5-2.91,3.24,9.95,10,5.79,5.55-3.39,4.52-18.11,11.72-22.16,5.42-3,5.06,8.53,11.71,4.77s5.05-22.33,11.71-26.07,5.79,16.12,10.92,13c6.08-3.66,4.06-8.57,8.83-12.86V171Z"/><path class="cls-4" d="M127.44,168.4c0,1.07.75,1.5,1.68,1a3.69,3.69,0,0,0,1.67-2.9c0-1.07-.75-1.5-1.67-1A3.71,3.71,0,0,0,127.44,168.4Z"/><path class="cls-20" d="M127.44,168.4c0,1.07.75,1.5,1.68,1a3.69,3.69,0,0,0,1.67-2.9c0-1.07-.75-1.5-1.67-1A3.71,3.71,0,0,0,127.44,168.4Z"/><path class="cls-13" d="M135,163.27l28.4-16.4c.47-.27.86-.06.86.47a1.91,1.91,0,0,1-.86,1.47L135,165.2c-.47.28-.86.07-.86-.47A1.88,1.88,0,0,1,135,163.27Z"/><path class="cls-4" d="M127.44,176.13c0,1.07.75,1.5,1.68,1a3.69,3.69,0,0,0,1.67-2.9c0-1.07-.75-1.5-1.67-1A3.68,3.68,0,0,0,127.44,176.13Z"/><path class="cls-13" d="M135,171l28.4-16.4c.47-.27.86-.06.86.47a1.91,1.91,0,0,1-.86,1.47L135,172.93c-.47.28-.86.07-.86-.47A1.88,1.88,0,0,1,135,171Z"/><path class="cls-18" d="M120.75,225.53v33.6c0,.61.42.85.94.55l40.18-23.19a2.14,2.14,0,0,0,.94-1.64v-33.6c0-.61-.42-.85-.94-.55l-40.18,23.19A2.08,2.08,0,0,0,120.75,225.53Z"/><polygon class="cls-4" points="125.18 252.56 125.18 227 126.7 226.12 126.7 251.68 125.18 252.56"/><polygon class="cls-13" points="124.83 254.53 127.05 253.25 127.05 254.04 124.83 255.32 124.83 254.53"/><polygon class="cls-4" points="128.08 250.88 128.08 230.43 129.6 229.56 129.6 250.01 128.08 250.88"/><polygon class="cls-13" points="127.73 252.86 129.95 251.58 129.95 252.36 127.73 253.64 127.73 252.86"/><polygon class="cls-4" points="132.51 248.33 132.51 226.12 134.03 225.24 134.03 247.45 132.51 248.33"/><polygon class="cls-13" points="132.17 250.29 134.38 249.01 134.38 249.8 132.17 251.07 132.17 250.29"/><polygon class="cls-4" points="135.41 246.65 135.41 228.27 136.94 227.39 136.94 245.77 135.41 246.65"/><polygon class="cls-13" points="135.07 248.61 137.28 247.34 137.28 248.12 135.07 249.4 135.07 248.61"/><polygon class="cls-4" points="139.84 244.1 139.84 233.85 141.36 232.97 141.36 243.22 139.84 244.1"/><polygon class="cls-13" points="139.49 246.07 141.7 244.79 141.7 245.57 139.49 246.85 139.49 246.07"/><polygon class="cls-4" points="142.74 242.42 142.74 230.79 144.27 229.91 144.27 241.54 142.74 242.42"/><polygon class="cls-13" points="142.39 244.39 144.61 243.11 144.61 243.9 142.39 245.17 142.39 244.39"/><polygon class="cls-4" points="147.17 239.86 147.17 225.85 148.69 224.97 148.69 238.98 147.17 239.86"/><polygon class="cls-13" points="146.84 241.83 149.06 240.55 149.06 241.33 146.84 242.61 146.84 241.83"/><polygon class="cls-4" points="150.07 238.19 150.07 229.07 151.6 228.19 151.6 237.31 150.07 238.19"/><polygon class="cls-13" points="149.75 240.15 151.96 238.87 151.96 239.66 149.75 240.93 149.75 240.15"/><polygon class="cls-4" points="154.5 235.63 154.5 231.65 156.02 230.77 156.02 234.75 154.5 235.63"/><polygon class="cls-4" points="125.18 252.56 125.18 227 126.7 226.12 126.7 251.68 125.18 252.56"/><polygon class="cls-4" points="132.51 248.33 132.51 226.12 134.03 225.24 134.03 247.45 132.51 248.33"/><polygon class="cls-4" points="139.84 244.1 139.84 233.85 141.36 232.97 141.36 243.22 139.84 244.1"/><polygon class="cls-4" points="147.17 239.86 147.17 225.85 148.69 224.97 148.69 238.98 147.17 239.86"/><polygon class="cls-4" points="154.5 235.63 154.5 231.65 156.02 230.77 156.02 234.75 154.5 235.63"/><polygon class="cls-13" points="154.18 237.59 156.39 236.31 156.39 237.09 154.18 238.37 154.18 237.59"/><polygon class="cls-4" points="157.4 233.96 157.4 231.97 158.93 231.09 158.93 233.08 157.4 233.96"/><polygon class="cls-13" points="157.08 235.91 159.29 234.63 159.29 235.42 157.08 236.69 157.08 235.91"/><polygon class="cls-4" points="147.31 213.32 145.65 214.28 145.65 216.19 147.31 215.23 147.31 213.32"/><polygon class="cls-20" points="147.31 213.32 145.65 214.28 145.65 216.19 147.31 215.23 147.31 213.32"/><path class="cls-13" d="M160.16,206.17,148.3,213a.94.94,0,0,0-.44.75v.37c0,.28.2.39.44.25l11.86-6.85a1,1,0,0,0,.44-.75v-.37C160.6,206.14,160.4,206,160.16,206.17Z"/><polygon class="cls-4" points="147.31 216.51 145.65 217.47 145.65 219.39 147.31 218.43 147.31 216.51"/><path class="cls-13" d="M160.16,209.36l-11.86,6.85a1,1,0,0,0-.44.75v.38c0,.27.2.38.44.25l11.86-6.85a1,1,0,0,0,.44-.75v-.38C160.6,209.34,160.4,209.23,160.16,209.36Z"/><polygon class="cls-4" points="125.18 252.56 125.18 227 126.7 226.12 126.7 251.68 125.18 252.56"/><polygon class="cls-4" points="132.51 248.33 132.51 226.12 134.03 225.24 134.03 247.45 132.51 248.33"/><polygon class="cls-4" points="139.84 244.1 139.84 233.85 141.36 232.97 141.36 243.22 139.84 244.1"/><polygon class="cls-4" points="147.17 239.86 147.17 225.85 148.69 224.97 148.69 238.98 147.17 239.86"/><polygon class="cls-4" points="125.18 252.56 125.18 227 126.7 226.12 126.7 251.68 125.18 252.56"/><polygon class="cls-4" points="132.51 248.33 132.51 226.12 134.03 225.24 134.03 247.45 132.51 248.33"/><polygon class="cls-4" points="139.84 244.1 139.84 233.85 141.36 232.97 141.36 243.22 139.84 244.1"/><polygon class="cls-4" points="147.17 239.86 147.17 225.85 148.69 224.97 148.69 238.98 147.17 239.86"/><polygon class="cls-4" points="154.5 235.63 154.5 231.65 156.02 230.77 156.02 234.75 154.5 235.63"/><polygon class="cls-20" points="125.18 252.56 125.18 227 126.7 226.12 126.7 251.68 125.18 252.56"/><polygon class="cls-20" points="132.51 248.33 132.51 226.12 134.03 225.24 134.03 247.45 132.51 248.33"/><polygon class="cls-20" points="139.84 244.1 139.84 233.85 141.36 232.97 141.36 243.22 139.84 244.1"/><polygon class="cls-20" points="147.17 239.86 147.17 225.85 148.69 224.97 148.69 238.98 147.17 239.86"/><polygon class="cls-20" points="154.5 235.63 154.5 231.65 156.02 230.77 156.02 234.75 154.5 235.63"/><path class="cls-18" d="M167.24,198.72v33.61c0,.6.42.84.94.54l30-17.35a2.08,2.08,0,0,0,.94-1.63V180.28c0-.6-.42-.84-.94-.54l-30,17.35A2.08,2.08,0,0,0,167.24,198.72Z"/><polygon class="cls-4" points="171.11 197.96 169.45 198.91 169.45 200.83 171.11 199.87 171.11 197.96"/><path class="cls-13" d="M177.24,194.91l-5.48,3.16a.55.55,0,0,0-.26.45V199c0,.17.11.23.26.15l5.48-3.16a.59.59,0,0,0,.26-.45V195C177.5,194.89,177.38,194.83,177.24,194.91Z"/><polygon class="cls-4" points="180.52 192.52 178.86 193.48 178.86 195.4 180.52 194.44 180.52 192.52"/><polygon class="cls-20" points="180.52 192.52 178.86 193.48 178.86 195.4 180.52 194.44 180.52 192.52"/><path class="cls-13" d="M186.68,189.53l-5.48,3.16a.55.55,0,0,0-.26.45v.52a.16.16,0,0,0,.26.15l5.48-3.16a.64.64,0,0,0,.26-.45v-.52C186.94,189.51,186.82,189.44,186.68,189.53Z"/><polygon class="cls-4" points="189.93 187.08 188.27 188.04 188.27 189.96 189.93 189 189.93 187.08"/><polygon class="cls-21" points="189.93 187.08 188.27 188.04 188.27 189.96 189.93 189 189.93 187.08"/><path class="cls-13" d="M196.12,184.14l-5.48,3.16a.59.59,0,0,0-.26.45v.52c0,.17.12.24.26.15l5.48-3.16a.59.59,0,0,0,.26-.45v-.52a.17.17,0,0,0-.13-.19A.2.2,0,0,0,196.12,184.14Z"/><path class="cls-4" d="M183.73,198.43c-4.89,2.82-8.85,9.69-8.85,15.34s4,7.93,8.85,5.11,8.86-9.69,8.86-15.34S188.62,195.61,183.73,198.43Zm-1.36,18.09a5.3,5.3,0,0,1-2.59.84c-1.9,0-2.18-2.25-2.18-3.59,0-4.69,3.43-10.64,7.49-13a5.25,5.25,0,0,1,2.6-.85c1.89,0,2.17,2.26,2.17,3.6,0,4.71-3.43,10.65-7.49,13Z"/><path class="cls-20" d="M185.09,200.79a5.25,5.25,0,0,1,2.6-.85c1.17,0,1.73.88,2,1.86l2-2.28c-1.46-2.52-4.45-3.09-7.92-1.09v3.3A12.16,12.16,0,0,1,185.09,200.79Z"/><path class="cls-21" d="M191.65,199.52l-2,2.28a7.25,7.25,0,0,1,.19,1.74,11.46,11.46,0,0,1-.13,1.65l2.86-1.65a8,8,0,0,0-.94-4Z"/><path class="cls-4" d="M141.3,257.76,224,210a1.65,1.65,0,0,1,2.31.36,1.6,1.6,0,0,1,.31.85l.19,1.06a3.8,3.8,0,0,1-1.72,3.71L142.5,263.67a1.7,1.7,0,0,1-2.36-.4,1.66,1.66,0,0,1-.3-.8l-.21-1A3.68,3.68,0,0,1,141.3,257.76Z"/><path class="cls-4" d="M149.33,304l66.8-38.57a1.65,1.65,0,0,1,2.32.27l.06.09a2,2,0,0,1-1.07,2.35l-66.89,38.61c-1,.56-2,.39-2.34-.37A2.05,2.05,0,0,1,149.33,304Z"/><path class="cls-22" d="M149.33,304l66.8-38.57a1.65,1.65,0,0,1,2.32.27l.06.09a2,2,0,0,1-1.07,2.35l-66.89,38.61c-1,.56-2,.39-2.34-.37A2.05,2.05,0,0,1,149.33,304Z"/><path class="cls-4" d="M152,309.41l40.9-23.59c1-.55,2-.4,2.39.35a2,2,0,0,1-1.08,2.35l-41,23.65c-1,.55-2,.38-2.34-.38A2.07,2.07,0,0,1,152,309.41Z"/><path class="cls-4" d="M163.88,330.39l67.38-38.9a2,2,0,0,1,2.6.23c.48.69.1,1.68-.86,2.24l-67.43,38.92a2,2,0,0,1-2.58-.24C162.52,332,162.92,331,163.88,330.39Z"/><path class="cls-22" d="M163.88,330.39l67.38-38.9a2,2,0,0,1,2.6.23c.48.69.1,1.68-.86,2.24l-67.43,38.92a2,2,0,0,1-2.58-.24C162.52,332,162.92,331,163.88,330.39Z"/><path class="cls-4" d="M167.31,335.34l26.46-15.27a2,2,0,0,1,2.61.21c.49.67.1,1.66-.85,2.22l-26.45,15.26a2,2,0,0,1-2.62-.21C166,336.88,166.35,335.89,167.31,335.34Z"/><path class="cls-4" d="M172.78,342.52l67.52-39a2.21,2.21,0,0,1,2.7.18c.54.65.2,1.63-.76,2.18l-67.53,39a2.2,2.2,0,0,1-2.7-.17C171.48,344,171.82,343.07,172.78,342.52Z"/><path class="cls-22" d="M172.78,342.52l67.52-39a2.21,2.21,0,0,1,2.7.18c.54.65.2,1.63-.76,2.18l-67.53,39a2.2,2.2,0,0,1-2.7-.17C171.48,344,171.82,343.07,172.78,342.52Z"/><path class="cls-4" d="M176.66,347.14,203,331.94a2.3,2.3,0,0,1,2.75.17c.56.65.24,1.62-.72,2.18l-26.29,15.17a2.33,2.33,0,0,1-2.76-.16C175.39,348.66,175.7,347.69,176.66,347.14Z"/><path class="cls-4" d="M156.07,317.52,208.92,287a1.82,1.82,0,0,1,2.49.29,1.78,1.78,0,0,1-1,2.29l-52.92,30.56a1.78,1.78,0,0,1-2.46-.31A1.85,1.85,0,0,1,156.07,317.52Z"/><path class="cls-22" d="M156.07,317.52,208.92,287a1.82,1.82,0,0,1,2.49.29,1.78,1.78,0,0,1-1,2.29l-52.92,30.56a1.78,1.78,0,0,1-2.46-.31A1.85,1.85,0,0,1,156.07,317.52Z"/><path class="cls-4" d="M159.06,322.76l48.18-27.82a1.89,1.89,0,0,1,2.54.28,1.75,1.75,0,0,1-.93,2.28h0l-48.24,27.82a1.84,1.84,0,0,1-2.5-.28A1.76,1.76,0,0,1,159.06,322.76Z"/><path class="cls-4" d="M236.86,264.78a2.11,2.11,0,0,1,2.84,1l0,0a2.22,2.22,0,0,1-.66,3,2.13,2.13,0,0,1-2.85-1l0,0A2.19,2.19,0,0,1,236.86,264.78Z"/><path class="cls-4" d="M249.73,285.15a2.47,2.47,0,0,1,3.11.79,1.8,1.8,0,0,1-.14,2.54,2.35,2.35,0,0,1-.32.23,2.54,2.54,0,0,1-3.11-.79,1.85,1.85,0,0,1,.21-2.6A2.2,2.2,0,0,1,249.73,285.15Z"/><path class="cls-22" d="M249.73,285.15a2.47,2.47,0,0,1,3.11.79,1.8,1.8,0,0,1-.14,2.54,2.35,2.35,0,0,1-.32.23,2.54,2.54,0,0,1-3.11-.79,1.85,1.85,0,0,1,.21-2.6A2.2,2.2,0,0,1,249.73,285.15Z"/><path class="cls-18" d="M200.63,374.45l100.42-58a6.12,6.12,0,0,1,5.5,0l53.13,30.68c1.52.88,1.52,2.3,0,3.18l-100.41,58a6.12,6.12,0,0,1-5.5,0l-53.14-30.68C199.11,376.75,199.11,375.33,200.63,374.45Z"/><path class="cls-13" d="M268.61,392.74a.66.66,0,0,1,.17.12.41.41,0,0,1,.12.14.87.87,0,0,1,.07.17v.2l-.06.45.76-.43h.17l.37.21v.06h0l-1.58.91h-.18l-.3-.17-.09-.07a.17.17,0,0,1,0-.1l.16-.94a.25.25,0,0,0,0-.17.23.23,0,0,0-.12-.1h-.35a.44.44,0,0,0-.16.06.27.27,0,0,0-.11.1.14.14,0,0,0,0,.09.09.09,0,0,0,0,.07v.05a0,0,0,0,1,0,.07v.05l-.37.21H267a1.06,1.06,0,0,1-.23-.19.53.53,0,0,1-.11-.24.39.39,0,0,1,.07-.26.73.73,0,0,1,.29-.26,1.26,1.26,0,0,1,.42-.16,1.55,1.55,0,0,1,.43,0,7.89,7.89,0,0,1,.78.13Z"/><path class="cls-13" d="M269,391.56a1.66,1.66,0,0,1,.47-.17,1.24,1.24,0,0,1,.47,0,1.44,1.44,0,0,1,.46.08,2.17,2.17,0,0,1,.42.17l.32.18.3.18a1.13,1.13,0,0,1,.3.24.7.7,0,0,1,.14.27.38.38,0,0,1-.07.27,1,1,0,0,1-.31.27,2,2,0,0,1-.46.18,1.93,1.93,0,0,1-.48,0,1.38,1.38,0,0,1-.45-.08,2.26,2.26,0,0,1-.43-.17l-.31-.17-.3-.19a1.76,1.76,0,0,1-.3-.24.51.51,0,0,1-.14-.26.45.45,0,0,1,.06-.28A.92.92,0,0,1,269,391.56Zm1.87.71c-.19-.12-.39-.23-.59-.34l-.18-.08h-.18a.54.54,0,0,0-.18,0,.4.4,0,0,0-.18.07.29.29,0,0,0-.12.1.2.2,0,0,0,0,.11.61.61,0,0,0,.07.1.71.71,0,0,0,.14.1c.18.12.38.23.58.34l.18.08h.36l.19-.07c.06,0,.1-.07.11-.11a.09.09,0,0,0,0-.1.41.41,0,0,0-.07-.11Z"/><path class="cls-13" d="M270.92,391.4a.14.14,0,0,1-.09,0v0l.08-.71v-.06l0-.06.36-.21h.18l2.24,1.29a0,0,0,0,1,0,0,0,0,0,0,1,0,.05l-.39.23h-.18l-1.51-.88v.39h-.09Z"/><path class="cls-13" d="M275.07,389.94a.81.81,0,0,1,.3.25.42.42,0,0,1,.07.27.54.54,0,0,1-.11.27,1,1,0,0,1-.28.23,2.05,2.05,0,0,1-.41.16,2.32,2.32,0,0,1-.46.07,2.4,2.4,0,0,1-.46-.05,1.39,1.39,0,0,1-.44-.17l-.18-.12a1.13,1.13,0,0,1-.1-.13.75.75,0,0,1-.07-.12.61.61,0,0,1-.05-.12l-.32-.84v-.05h0l.48-.27h.13l.22.58a1.27,1.27,0,0,1,.39-.12,1.48,1.48,0,0,1,.42,0,1.55,1.55,0,0,1,.43,0A1.46,1.46,0,0,1,275.07,389.94Zm-1.24.71.17.07h.35l.14-.06.11-.08a.17.17,0,0,0,0-.1.17.17,0,0,0,0-.1.24.24,0,0,0-.1-.1.49.49,0,0,0-.17-.06.49.49,0,0,0-.17,0,.49.49,0,0,0-.17,0h-.15a.28.28,0,0,0-.1.09.12.12,0,0,0-.05.1.17.17,0,0,0,0,.1.22.22,0,0,0,.14.14Z"/><path class="cls-13" d="M294.73,377.86l.18.12a.53.53,0,0,1,.12.14.49.49,0,0,1,.06.17.67.67,0,0,1,0,.2v.45l.75-.43H296l.37.21h0a0,0,0,0,1,0,0l-1.59.92h-.17l-.3-.17-.09-.08a.14.14,0,0,1,0-.09l.16-1a.25.25,0,0,0,0-.17l-.12-.1h-.35a.49.49,0,0,0-.27.15.14.14,0,0,0,0,.09.11.11,0,0,0,0,.08v.11a.1.1,0,0,1-.06.05l-.37.21h-.14a1.5,1.5,0,0,1-.23-.2.44.44,0,0,1-.11-.24.35.35,0,0,1,.07-.26.64.64,0,0,1,.29-.25,1.28,1.28,0,0,1,.42-.17,1.55,1.55,0,0,1,.43,0l.42.06A1.4,1.4,0,0,1,294.73,377.86Z"/><path class="cls-13" d="M295.13,376.69a1.28,1.28,0,0,1,.47-.18,1.85,1.85,0,0,1,.47,0,2.33,2.33,0,0,1,.46.08,3.12,3.12,0,0,1,.42.18l.32.17.3.18a2.17,2.17,0,0,1,.29.24.54.54,0,0,1,.14.27.33.33,0,0,1-.06.27,1,1,0,0,1-.31.27,1.83,1.83,0,0,1-.46.18,1.93,1.93,0,0,1-.48,0,2.33,2.33,0,0,1-.46-.08,3.12,3.12,0,0,1-.42-.18l-.31-.17-.3-.18a1.76,1.76,0,0,1-.3-.24.59.59,0,0,1-.14-.27.32.32,0,0,1,.06-.27A1,1,0,0,1,295.13,376.69Zm1.86.7a6.65,6.65,0,0,0-.58-.33l-.18-.08-.18-.05h-.18a.4.4,0,0,0-.18.07.29.29,0,0,0-.12.1.2.2,0,0,0,0,.11.23.23,0,0,0,.07.1l.14.11a6.65,6.65,0,0,0,.58.33l.18.08.18.05h.18a.56.56,0,0,0,.18-.07.29.29,0,0,0,.12-.1.2.2,0,0,0,0-.11.27.27,0,0,0-.08-.1.43.43,0,0,0-.12-.11Z"/><path class="cls-13" d="M297,376.53h-.08a.06.06,0,0,1,0-.06l.07-.7v-.06a.13.13,0,0,1,.05-.07l.37-.21h.18l2.24,1.29v0a0,0,0,0,1,0,.05l-.4.23h-.17l-1.52-.87v.39h-.09Z"/><path class="cls-13" d="M300.46,376.36h0l-1.1-1.38-.9.51h-.17l-.37-.21v-.11l1.43-.82a.14.14,0,0,1,.09,0h.09l.32.19a.4.4,0,0,1,.13.13l1,1.33a0,0,0,0,1,0,.05h0l-.42.25h-.07Z"/><path class="cls-13" d="M322.15,362l.17.12a.44.44,0,0,1,.13.14.49.49,0,0,1,.06.17.67.67,0,0,1,0,.2l-.06.46.76-.44h.17l.37.21a0,0,0,0,1,0,.05,0,0,0,0,1,0,0l-1.58.92H322l-.3-.17-.09-.08a.14.14,0,0,1,0-.09l.15-1a.25.25,0,0,0,0-.17.29.29,0,0,0-.12-.1h-.34a.27.27,0,0,0-.17.06.18.18,0,0,0-.1.09.14.14,0,0,0,0,.09.11.11,0,0,0,0,.08h.05v.06c0,.06,0,0-.06.05l-.37.21a.09.09,0,0,1-.07,0h-.07a.91.91,0,0,1-.24-.2.44.44,0,0,1-.11-.24.39.39,0,0,1,.07-.26.78.78,0,0,1,.29-.25,1.26,1.26,0,0,1,.42-.16,1.3,1.3,0,0,1,.44-.05,2.7,2.7,0,0,1,.41.06A1.66,1.66,0,0,1,322.15,362Z"/><path class="cls-13" d="M322.55,360.79a1.3,1.3,0,0,1,.46-.18,1.85,1.85,0,0,1,.47,0,2.33,2.33,0,0,1,.46.08,3.12,3.12,0,0,1,.42.18l.32.17.3.18a1.42,1.42,0,0,1,.3.25.51.51,0,0,1,.14.26.38.38,0,0,1-.07.27.81.81,0,0,1-.31.27,1.3,1.3,0,0,1-.46.18,1.85,1.85,0,0,1-.47,0,2.33,2.33,0,0,1-.46-.08,3.12,3.12,0,0,1-.42-.18l-.31-.17-.31-.18a1.76,1.76,0,0,1-.3-.24.59.59,0,0,1-.14-.27.37.37,0,0,1,.07-.27A.8.8,0,0,1,322.55,360.79Zm1.86.7c-.19-.12-.39-.23-.58-.33l-.19-.08-.18-.05h-.18a.67.67,0,0,0-.18.07.29.29,0,0,0-.12.1.11.11,0,0,0,0,.11.36.36,0,0,0,.07.1l.14.11c.18.11.38.23.58.33l.18.08a.59.59,0,0,0,.19.05h.18l.18-.07a.29.29,0,0,0,.12-.1.11.11,0,0,0,0-.11.18.18,0,0,0-.07-.1Z"/><path class="cls-13" d="M324.46,360.63h-.09a.06.06,0,0,1,0-.06l.08-.7v-.06l.05-.07.37-.21H325l2.24,1.29v.05h0l-.39.23h-.18l-1.51-.87-.05.39h-.69Z"/><path class="cls-13" d="M326,359.65a.61.61,0,0,1-.24-.21.37.37,0,0,1-.06-.25.53.53,0,0,1,.11-.24,1.13,1.13,0,0,1,.27-.22,1.4,1.4,0,0,1,.38-.16,2,2,0,0,1,.85,0,1.09,1.09,0,0,1,.38.14.68.68,0,0,1,.21.17.34.34,0,0,1,.09.19h.37a1.09,1.09,0,0,1,.34.13.64.64,0,0,1,.24.22.36.36,0,0,1,.06.25.6.6,0,0,1-.13.25,1,1,0,0,1-.29.24,2.09,2.09,0,0,1-.41.17,2.13,2.13,0,0,1-.44.07,1.55,1.55,0,0,1-.43,0,1.18,1.18,0,0,1-.37-.14.6.6,0,0,1-.23-.19.37.37,0,0,1-.08-.22,1.64,1.64,0,0,1-.32-.05A1.05,1.05,0,0,1,326,359.65Zm.55-.32a.4.4,0,0,0,.24.05.54.54,0,0,0,.28-.08.29.29,0,0,0,.15-.16c0-.06,0-.1-.1-.14a.41.41,0,0,0-.24-.06.47.47,0,0,0-.28.09c-.09.05-.14.1-.14.16s.06.1.13.14Zm.94.59a.43.43,0,0,0,.25.05.75.75,0,0,0,.32-.1c.11-.07.17-.13.18-.19s0-.1-.09-.14a.37.37,0,0,0-.25-.05.68.68,0,0,0-.31.11c-.12.06-.18.12-.19.18a.13.13,0,0,0,.12.14h0Z"/><path class="cls-13" d="M344.8,348.89l.17.12a.41.41,0,0,1,.12.14.49.49,0,0,1,.06.17.67.67,0,0,1,0,.2V350l.75-.43a.14.14,0,0,1,.09,0h.09l.36.22a.08.08,0,0,1,.05.05v.05l-1.59.91h-.17l-.3-.17a.22.22,0,0,1-.09-.07.17.17,0,0,1,0-.1l.16-.94a.25.25,0,0,0,0-.17.29.29,0,0,0-.12-.1H344a.44.44,0,0,0-.16.06.27.27,0,0,0-.11.1.14.14,0,0,0,0,.09.09.09,0,0,0,0,.07v.12l-.06,0-.37.21h-.14a1.5,1.5,0,0,1-.23-.2.44.44,0,0,1-.11-.24.35.35,0,0,1,.07-.26.73.73,0,0,1,.29-.26,1.26,1.26,0,0,1,.42-.16,1.55,1.55,0,0,1,.43,0,1.52,1.52,0,0,1,.42.06A1.73,1.73,0,0,1,344.8,348.89Z"/><path class="cls-13" d="M345.19,347.72a1.28,1.28,0,0,1,.47-.18,1.24,1.24,0,0,1,.47,0,1.44,1.44,0,0,1,.46.08,2.17,2.17,0,0,1,.42.17l.32.18.3.18a1,1,0,0,1,.29.24.54.54,0,0,1,.14.27.33.33,0,0,1-.06.27,1,1,0,0,1-.31.27,2,2,0,0,1-.46.18,1.93,1.93,0,0,1-.48,0,1.44,1.44,0,0,1-.46-.08,1.94,1.94,0,0,1-.42-.17l-.31-.17-.3-.19a1.76,1.76,0,0,1-.3-.24.51.51,0,0,1-.14-.26.35.35,0,0,1,.06-.28A.8.8,0,0,1,345.19,347.72Zm1.86.7-.58-.34-.18-.08h-.36a.4.4,0,0,0-.18.07.29.29,0,0,0-.12.1.2.2,0,0,0,0,.11.36.36,0,0,0,.07.1.71.71,0,0,0,.14.1c.19.12.38.24.58.34l.18.08a.54.54,0,0,0,.18,0H347l.19-.07a.57.57,0,0,0,.11-.11.17.17,0,0,0,0-.1.28.28,0,0,0-.08-.11A.56.56,0,0,0,347.05,348.42Z"/><path class="cls-13" d="M347.1,347.55H347l.07-.71v-.06l.06-.06.36-.21h.18l2.24,1.29h0a0,0,0,0,1,0,.05l-.4.23h-.17l-1.51-.87v.38a0,0,0,0,1,0,.05h-.09Z"/><path class="cls-13" d="M348.69,346.7a.73.73,0,0,1-.29-.26.39.39,0,0,1-.08-.27.47.47,0,0,1,.11-.26,1.13,1.13,0,0,1,.27-.22,1.34,1.34,0,0,1,.39-.16,1.74,1.74,0,0,1,.45-.06,1.85,1.85,0,0,1,.47,0,1.49,1.49,0,0,1,.44.17l.16.12.11.12a.75.75,0,0,1,.07.12v.12l.34.86h0v0l-.48.28h-.13l-.24-.58a1.58,1.58,0,0,1-.37.11,1.48,1.48,0,0,1-.42,0,2.81,2.81,0,0,1-.41,0A1.3,1.3,0,0,1,348.69,346.7Zm1.2-.7-.15-.06h-.34l-.14.06a.25.25,0,0,0-.1.08.17.17,0,0,0,0,.1.17.17,0,0,0,0,.1l.1.09.15.05h.34l.14-.05a.28.28,0,0,0,.1-.09.14.14,0,0,0,0-.09.17.17,0,0,0,0-.1A.28.28,0,0,0,349.89,346Z"/><path class="cls-23" d="M247.15,394.56c2.45-1.48-16.82-13-8.36-17.7s22.15,6.53,30.65,1.61c8.08-4.68-16.71-16.13-8.36-20.91s24.68,7.93,33.43,3.22c7.61-4.1-1.53-8.66,2.07-12.14s13.22.8,19.46-2.61-17.31-11-4.41-18.48l30.09,17.37-90,52.29Z"/><path class="cls-4" d="M248.19,394.75l-2.08-.38c.6-.38-1.64-2.53-3.43-4.25-4.5-4.32-10.67-10.24-4.91-13.46a11.85,11.85,0,0,1,5.14-1.36c3.9-.21,7.94,1,11.86,2.11,3.53,1,7.18,2.08,10,1.92a8,8,0,0,0,3.62-1.06c3.74-2.16-.34-6.15-4.29-10-4.2-4.11-8.54-8.35-4.07-10.91a10.89,10.89,0,0,1,4.9-1.27c4.24-.2,8.73,1.24,13.48,2.76,4.19,1.34,8.53,2.73,11.76,2.59a7.48,7.48,0,0,0,3.31-.87c4.14-2.23,3-4.63,2-7-.84-1.81-1.63-3.52,0-5.1,2.13-2.05,6.5-1.8,10-1.6,3.67.22,6.84.4,9.55-1.09,2.24-1.22-.11-3.26-2.82-5.62-4.24-3.69-9.52-8.28-1.6-12.85l2.06.39c-7.36,4.25-2.31,8.65,1.76,12.18,2.94,2.55,5.48,4.76,2.63,6.32-3.55,1.94-8.23,1.67-12,1.45s-5.9-.33-7.36,1.08-.69,3,.1,4.72c1.08,2.35,2.31,5-2.29,7.5a11.72,11.72,0,0,1-5,1.24c-4.36.18-8.9-1.27-13.71-2.81-4.13-1.32-8.4-2.69-11.5-2.55a6.93,6.93,0,0,0-3.17.89c-3.93,2.25.23,6.32,4.26,10.25,4.31,4.21,8.38,8.18,4.1,10.66a11.83,11.83,0,0,1-5.29,1.44c-3.94.23-8-1-12-2.11-3.51-1-7.13-2.06-9.93-1.92a7.7,7.7,0,0,0-3.47,1c-5.19,2.9,1,8.85,5.11,12.79C247.89,392.71,249.26,394.1,248.19,394.75Z"/><path class="cls-13" d="M263.35,358.88a1.1,1.1,0,0,1-.62-.06l-.46-.27c-.13-.07,0-.16.17-.2a.94.94,0,0,1,.62,0l.46.27C263.65,358.74,263.57,358.83,263.35,358.88Z"/><path class="cls-13" d="M289.6,374a1,1,0,0,1-.6,0l-.93-.54c-.13-.07-.05-.17.16-.21a1.13,1.13,0,0,1,.63.06l.94.54C289.89,373.89,289.82,374,289.6,374Zm-1.87-1a1.13,1.13,0,0,1-.63-.06l-.94-.54c-.12-.07-.05-.17.17-.21a1,1,0,0,1,.63.06l.93.54C288,372.81,287.94,372.9,287.73,373Zm-1.88-1.09a1,1,0,0,1-.62-.05l-.94-.54c-.13-.08-.05-.17.17-.21a1.09,1.09,0,0,1,.62.05l.94.54c.12,0,.05.12-.17.16ZM284,370.78a1.13,1.13,0,0,1-.63,0l-.94-.55c-.12-.07-.05-.16.17-.2a1,1,0,0,1,.63,0l.93.54C284.27,370.65,284.2,370.74,284,370.78Zm-1.88-1.08a1.1,1.1,0,0,1-.62-.06l-.94-.54c-.13-.07-.05-.16.17-.21a1.1,1.1,0,0,1,.62.06l.94.54c.11.07,0,.17-.19.21Zm-1.87-1.08a1.13,1.13,0,0,1-.63-.06l-.94-.54c-.12-.07-.05-.17.17-.21a1,1,0,0,1,.63.06l.93.54c.11.07,0,.16-.18.21Zm-1.88-1.09a1.09,1.09,0,0,1-.62,0l-.94-.54c-.13-.08-.05-.17.17-.21a1.09,1.09,0,0,1,.62,0l.94.55c.11.07,0,.16-.19.2Zm-1.87-1.08a1.23,1.23,0,0,1-.63-.05l-.94-.55c-.12-.07-.05-.16.17-.2a1,1,0,0,1,.63.05l.93.54c.11.08,0,.17-.18.21Zm-1.88-1.08a1.1,1.1,0,0,1-.62-.06l-.94-.54c-.13-.07-.05-.16.17-.21a1.1,1.1,0,0,1,.62.06l.94.54c.11.07,0,.17-.19.21Zm-1.87-1.08a1.13,1.13,0,0,1-.63-.06l-.94-.54c-.12-.07-.05-.17.17-.21a1,1,0,0,1,.63.06l.94.54c.08.07.08.16-.19.21Zm-1.88-1.09a1,1,0,0,1-.62-.05l-.94-.54c-.13-.08-.05-.17.17-.21a1.09,1.09,0,0,1,.62.05l.94.55c.11.07,0,.16-.19.2ZM269,362.12a1.23,1.23,0,0,1-.63-.05l-.93-.54c-.13-.08-.06-.17.16-.21a1,1,0,0,1,.63.05l.94.54C269.27,362,269.2,362.08,269,362.12ZM267.1,361a1.1,1.1,0,0,1-.62-.06l-.94-.54c-.13-.07-.05-.16.17-.21a1.1,1.1,0,0,1,.62.06l.94.54C267.4,360.9,267.32,361,267.1,361Zm-1.87-1a1.13,1.13,0,0,1-.63-.06l-.93-.54c-.13-.07-.06-.17.16-.21a1,1,0,0,1,.63.06l.94.54C265.52,359.82,265.45,359.92,265.23,360Z"/><path class="cls-13" d="M291,374.83a1,1,0,0,1-.63-.05l-.46-.27c-.12-.07-.05-.16.17-.2a1,1,0,0,1,.63.05l.45.27C291.29,374.7,291.21,374.79,291,374.83Z"/><path class="cls-13" d="M261.86,389.92a1.09,1.09,0,0,1-.62-.06l-.94-.54c-.13-.07-.05-.16.17-.21a1.1,1.1,0,0,1,.62.06l.94.54C262.16,389.78,262.08,389.88,261.86,389.92ZM260,388.84a1.13,1.13,0,0,1-.63-.06l-.93-.54c-.13-.07-.06-.17.16-.21a1,1,0,0,1,.63.06l.94.54C260.28,388.7,260.21,388.79,260,388.84Zm-1.88-1.09a1,1,0,0,1-.62-.05l-.94-.54c-.13-.08-.05-.17.17-.21a1.09,1.09,0,0,1,.62.05l.94.55c.12.07,0,.16-.18.2Zm-1.87-1.08a1.23,1.23,0,0,1-.63-.05l-.93-.55c-.13-.07-.06-.16.16-.2a1,1,0,0,1,.63.05l.94.54c.11.08,0,.17-.18.21Zm-1.88-1.08a1.1,1.1,0,0,1-.62-.06l-.94-.54c-.13-.07-.05-.16.17-.21a1.1,1.1,0,0,1,.62.06l.94.54c.12.07,0,.17-.18.21Zm-1.87-1.08a1.13,1.13,0,0,1-.63-.06l-.93-.54c-.13-.07-.06-.17.16-.21a1,1,0,0,1,.63.06l.94.54c.11.07,0,.16-.18.21Zm-1.88-1.09a1,1,0,0,1-.62-.05l-.94-.54c-.12-.08-.05-.17.17-.21a1,1,0,0,1,.63.06l.93.54c.12.07,0,.16-.18.2Zm-1.87-1.08a1.12,1.12,0,0,1-.63,0l-.93-.54c-.13-.08-.05-.17.17-.21a.94.94,0,0,1,.62,0l.94.54c.08.08.08.17-.18.21Zm-1.87-1.08a1.13,1.13,0,0,1-.63-.06l-.94-.54c-.12-.07-.05-.16.17-.21a1.13,1.13,0,0,1,.63.06l.93.54c.12.07,0,.17-.17.21ZM245,380.18a1.1,1.1,0,0,1-.62-.06l-.94-.54c-.13-.07-.05-.17.17-.21a1,1,0,0,1,.62.06l.94.54C245.29,380,245.21,380.14,245,380.18Zm-1.87-1.08a1.13,1.13,0,0,1-.63-.06l-.94-.54c-.12-.08-.05-.17.17-.21a1,1,0,0,1,.63.06l.93.54c.12.11.05.16-.17.21Zm-1.89-1.1a1.19,1.19,0,0,1-.62-.05l-.94-.54c-.13-.08-.05-.17.17-.21a1.09,1.09,0,0,1,.62.05l.94.54C241.54,377.88,241.46,378,241.24,378Z"/><path class="cls-13" d="M263.26,390.72a1,1,0,0,1-.63-.05l-.45-.27c-.13-.07-.06-.16.16-.2a1,1,0,0,1,.63.05l.46.27C263.55,390.59,263.48,390.68,263.26,390.72Z"/><path class="cls-13" d="M299.76,348.56a1.13,1.13,0,0,1-.63-.06l-.46-.26c-.12-.07-.05-.17.17-.21a1,1,0,0,1,.63.06l.45.26C300.05,348.42,300,348.52,299.76,348.56Z"/><path class="cls-13" d="M316.5,358.23a1.1,1.1,0,0,1-.62-.06l-.93-.53c-.13-.08-.05-.17.17-.21a1.09,1.09,0,0,1,.62.05l.93.54C316.8,358.09,316.72,358.19,316.5,358.23Zm-1.86-1.07a1.1,1.1,0,0,1-.62-.06l-.93-.54c-.13-.07,0-.16.16-.21a1.13,1.13,0,0,1,.63.06l.93.54C314.94,357,314.86,357.11,314.64,357.16Zm-1.86-1.08a1.1,1.1,0,0,1-.62-.06l-.93-.53c-.13-.08-.06-.17.16-.21a1.13,1.13,0,0,1,.63.05l.93.54c.13.13.05.13-.17.21ZM310.92,355a1.1,1.1,0,0,1-.62-.06l-.93-.54c-.13-.07-.06-.16.16-.21a1.13,1.13,0,0,1,.63.06l.93.54C311.22,354.87,311.14,355,310.92,355Zm-1.86-1.08a1.23,1.23,0,0,1-.63-.05l-.93-.54c-.12-.07-.05-.17.17-.21a1,1,0,0,1,.63.06l.93.53c.12.09,0,.18-.17.22Zm-1.86-1.07a1.13,1.13,0,0,1-.63-.06l-.93-.54c-.12-.07-.05-.16.17-.2a1,1,0,0,1,.63.05l.93.54c.12.08.05.18-.17.22Zm-1.86-1.08a1.12,1.12,0,0,1-.63,0l-.93-.54c-.12-.07,0-.17.17-.21a1,1,0,0,1,.63.06l.93.53c.12,0,.05.13-.17.17Zm-1.86-1.07a1.13,1.13,0,0,1-.63-.06l-.93-.53c-.12-.08-.05-.17.17-.21a.94.94,0,0,1,.62,0l.94.54c.12.13.05.23-.17.27Zm-1.86-1.08a1,1,0,0,1-.63-.05l-.93-.54c-.13-.07-.05-.17.17-.21a1.1,1.1,0,0,1,.62.06l.93.54c.13.08.06.17-.16.21Z"/><path class="cls-13" d="M317.89,359a1.09,1.09,0,0,1-.62,0l-.46-.27c-.13-.07-.05-.17.17-.21a1.1,1.1,0,0,1,.62.06l.46.26C318.19,358.9,318.11,359,317.89,359Z"/><polygon class="cls-13" points="259.49 353.05 255.19 350.56 249.53 353.85 253.83 356.33 256.18 354.96 258.89 355.9 257.68 354.09 257.68 354.1 259.49 353.05"/><polygon class="cls-13" points="236.97 372.8 232.67 370.32 227 373.6 231.3 376.08 233.66 374.72 236.36 375.65 235.16 373.85 235.15 373.85 236.97 372.8"/><polygon class="cls-13" points="297.25 343.84 292.95 341.36 287.29 344.64 291.58 347.12 293.94 345.75 296.65 346.69 295.44 344.89 295.44 344.89 297.25 343.84"/><path class="cls-13" d="M284.87,408.67h.26l.54.31a.16.16,0,0,1,.07.07v.08l.08.67a2.54,2.54,0,0,1,.91-.13,1.72,1.72,0,0,1,.85.25c.38.22.55.45.52.69s-.26.49-.67.72a2.9,2.9,0,0,1-.65.28,2.76,2.76,0,0,1-.64.1,2.81,2.81,0,0,1-.58,0,1.77,1.77,0,0,1-.46-.15s-.05,0-.05-.07h0l.56-.32a.33.33,0,0,1,.19-.06h.47a1.27,1.27,0,0,0,.32-.13.53.53,0,0,0,.26-.25.22.22,0,0,0-.12-.23.54.54,0,0,0-.39-.06,1.11,1.11,0,0,0-.43.15l-.37.21h-.26l-.43-.25a.18.18,0,0,1-.07-.08v-.08l-.08-.58-1.15.66h-.25l-.54-.31a.1.1,0,0,1-.06-.08V410Z"/><path class="cls-13" d="M286.8,407.49a2.34,2.34,0,0,1,.68-.26,2.3,2.3,0,0,1,.69-.05,2.62,2.62,0,0,1,.68.12,2.7,2.7,0,0,1,.61.25c.15.08.31.16.47.26l.44.26a2.11,2.11,0,0,1,.43.36.68.68,0,0,1,.21.38.58.58,0,0,1-.1.4,1.16,1.16,0,0,1-.45.4,2.66,2.66,0,0,1-.68.26,3.21,3.21,0,0,1-.69.05,2.62,2.62,0,0,1-.68-.12,3.26,3.26,0,0,1-.61-.25c-.15-.07-.3-.16-.46-.25l-.45-.27a2.44,2.44,0,0,1-.43-.35.75.75,0,0,1-.21-.39.56.56,0,0,1,.1-.4A1.16,1.16,0,0,1,286.8,407.49Zm2.73,1c-.28-.17-.56-.33-.86-.49l-.26-.11a.9.9,0,0,0-.27-.07h-.26a.88.88,0,0,0-.27.1.44.44,0,0,0-.17.16.19.19,0,0,0,0,.15.33.33,0,0,0,.11.15l.2.16c.27.17.55.33.86.49l.26.12a1.1,1.1,0,0,0,.26.06,1.22,1.22,0,0,0,.27,0,.82.82,0,0,0,.26-.1.55.55,0,0,0,.18-.16.2.2,0,0,0,0-.15.33.33,0,0,0-.11-.15Z"/><path class="cls-13" d="M290.59,406.17l.39.22a1.37,1.37,0,0,1,.23.19.41.41,0,0,1,.1.21.27.27,0,0,1-.06.21,1.21,1.21,0,0,1-.24.21,2.24,2.24,0,0,1-.36.14h-.36l-.36-.06a2.26,2.26,0,0,1-.33-.13l-.2-.11-.19-.11-.23-.2a.42.42,0,0,1-.1-.2.29.29,0,0,1,.06-.22.52.52,0,0,1,.24-.2,1.17,1.17,0,0,1,.35-.14,1.15,1.15,0,0,1,.37,0,1.13,1.13,0,0,1,.36.06A1.33,1.33,0,0,1,290.59,406.17Zm-.51.71.24.09a.37.37,0,0,0,.21,0q.09-.06.06-.12a.4.4,0,0,0-.15-.14,2.79,2.79,0,0,0-.33-.19.75.75,0,0,0-.25-.09.23.23,0,0,0-.2,0,.08.08,0,0,0-.07.11.57.57,0,0,0,.16.15Zm1-1.69v-.08a.12.12,0,0,1,.07-.07l.36-.21h.21l1.13,3.16a.11.11,0,0,1,0,.08.11.11,0,0,1-.06.07l-.36.21h-.21Zm3.32.83a3.84,3.84,0,0,1,.39.22,1,1,0,0,1,.23.19.41.41,0,0,1,.1.21.27.27,0,0,1-.06.21.78.78,0,0,1-.24.2,1.13,1.13,0,0,1-.36.14h-.37a2,2,0,0,1-.35-.06,2,2,0,0,1-.34-.13l-.2-.11-.18-.12a1.06,1.06,0,0,1-.23-.19.41.41,0,0,1-.1-.21.3.3,0,0,1,.05-.21.6.6,0,0,1,.25-.2,1.22,1.22,0,0,1,.72-.17,1.49,1.49,0,0,1,.36,0,2.11,2.11,0,0,1,.34.16Zm-.51.71.24.08a.34.34,0,0,0,.2,0,.08.08,0,0,0,.07-.12.4.4,0,0,0-.15-.14,1.63,1.63,0,0,0-.34-.19.54.54,0,0,0-.24-.09.23.23,0,0,0-.2,0,.08.08,0,0,0-.07.11.5.5,0,0,0,.15.14l.35.21Z"/><path class="cls-4" d="M279,405.75l-3.71-1.09a5.52,5.52,0,0,0-1.28,4.69l4.11-.37A4,4,0,0,1,279,405.75Z"/><path class="cls-4" d="M275.8,404.12l3.71,1.1a8.18,8.18,0,0,1,1.73-1.32,11.19,11.19,0,0,1,2.27-1l-1.89-2.15a16.84,16.84,0,0,0-3.32,1.44A11.44,11.44,0,0,0,275.8,404.12Z"/><path class="cls-4" d="M290,402.12l.65-2.37a25,25,0,0,0-8.13.74l1.89,2.14A18.15,18.15,0,0,1,290,402.12Z"/><path class="cls-4" d="M278.32,409.57l-4.12.37a8.44,8.44,0,0,0,3.75,4.24l2.94-1.7A6.16,6.16,0,0,1,278.32,409.57Z"/><path class="cls-4" d="M281.62,412.9l-2.94,1.7a20.42,20.42,0,0,0,7.33,2.16l.65-2.37A14.82,14.82,0,0,1,281.62,412.9Z"/><path class="cls-4" d="M287.69,414.48l-.65,2.37a25,25,0,0,0,8.13-.74L293.28,414A18.13,18.13,0,0,1,287.69,414.48Z"/><path class="cls-4" d="M296.48,412.7a12.83,12.83,0,0,1-2.28,1l1.89,2.14a16.93,16.93,0,0,0,3.33-1.44,11.4,11.4,0,0,0,2.5-1.92l-3.72-1.09A8.15,8.15,0,0,1,296.48,412.7Z"/><path class="cls-4" d="M298.67,410.85l3.72,1.09a5.52,5.52,0,0,0,1.28-4.69l-4.11.38A4,4,0,0,1,298.67,410.85Z"/><path class="cls-4" d="M296.09,403.7l3-1.7a20.33,20.33,0,0,0-7.34-2.16l-.65,2.38A14.53,14.53,0,0,1,296.09,403.7Z"/><path class="cls-4" d="M299.4,407l4.11-.37a8.25,8.25,0,0,0-3.74-4.24l-2.94,1.7A6,6,0,0,1,299.4,407Z"/><path class="cls-24" d="M275.8,404.12l3.71,1.1a8.18,8.18,0,0,1,1.73-1.32,11.19,11.19,0,0,1,2.27-1l-1.89-2.15a16.84,16.84,0,0,0-3.32,1.44A11.44,11.44,0,0,0,275.8,404.12Z"/><path class="cls-24" d="M290,402.12l.65-2.37a25,25,0,0,0-8.13.74l1.89,2.14A18.15,18.15,0,0,1,290,402.12Z"/><g class="cls-25"><path d="M296.09,403.7l3-1.7a20.33,20.33,0,0,0-7.34-2.16l-.65,2.38A14.53,14.53,0,0,1,296.09,403.7Z"/></g><path class="cls-13" d="M322.22,390h.55a.72.72,0,0,0,.2-.09.58.58,0,0,0,.15-.11.37.37,0,0,0,.07-.14.33.33,0,0,0,0-.14.47.47,0,0,0-.15-.13.7.7,0,0,0-.4-.1,1.06,1.06,0,0,0-.43.12l-.1.08a.41.41,0,0,0-.05.09v.12l-.69.4h-.25L319.44,389a.06.06,0,0,1-.06-.07v-.07l1.88-1.09h.26l.53.31a.09.09,0,0,1,.06.08v.07l-1.28.74.42.28a.86.86,0,0,1,.1-.16,1,1,0,0,1,.2-.15,1.86,1.86,0,0,1,.55-.22,2.1,2.1,0,0,1,.61-.09,2.7,2.7,0,0,1,.63.07,2.63,2.63,0,0,1,.6.25,1.43,1.43,0,0,1,.44.37.58.58,0,0,1,.12.38.68.68,0,0,1-.16.38,1.7,1.7,0,0,1-.42.33,2.89,2.89,0,0,1-.63.26,2.84,2.84,0,0,1-1.23,0,2.3,2.3,0,0,1-.5-.18l-.05-.06a.06.06,0,0,1,0-.06L322,390h.22Z"/><path class="cls-13" d="M323.09,386.53a2.34,2.34,0,0,1,.68-.26,2,2,0,0,1,.69,0,3,3,0,0,1,.67.11,3.7,3.7,0,0,1,.62.26l.47.25.43.27a2.12,2.12,0,0,1,.44.35.83.83,0,0,1,.21.39.58.58,0,0,1-.1.4,1.13,1.13,0,0,1-.45.39,2.68,2.68,0,0,1-.68.27,2.73,2.73,0,0,1-.7,0,2.55,2.55,0,0,1-.67-.12,4.6,4.6,0,0,1-.61-.25l-.46-.25-.45-.27a2.11,2.11,0,0,1-.43-.36.75.75,0,0,1-.21-.39.57.57,0,0,1,.09-.4A1.33,1.33,0,0,1,323.09,386.53Zm2.72,1c-.27-.17-.56-.34-.85-.49l-.26-.12-.27-.06a.57.57,0,0,0-.26,0,.88.88,0,0,0-.27.1.35.35,0,0,0-.17.15.22.22,0,0,0,0,.16.33.33,0,0,0,.11.15,1,1,0,0,0,.2.15c.27.17.55.34.85.5l.27.11a.77.77,0,0,0,.26.07h.27a.82.82,0,0,0,.26-.1.65.65,0,0,0,.18-.15.19.19,0,0,0,0-.15.36.36,0,0,0-.11-.16.74.74,0,0,0-.21-.13Z"/><path class="cls-13" d="M326.88,385.21a2.08,2.08,0,0,1,.38.22,1.12,1.12,0,0,1,.24.19.41.41,0,0,1,.1.21.27.27,0,0,1-.06.21.78.78,0,0,1-.24.2,1.13,1.13,0,0,1-.36.14h-.37a2,2,0,0,1-.35-.06,2,2,0,0,1-.34-.13l-.2-.11-.18-.12a1.06,1.06,0,0,1-.23-.19.35.35,0,0,1-.1-.21.3.3,0,0,1,.05-.21.6.6,0,0,1,.25-.2,1.17,1.17,0,0,1,.35-.14,1.15,1.15,0,0,1,.37,0,1.49,1.49,0,0,1,.36.05Zm-.51.71.24.09a.34.34,0,0,0,.2,0,.08.08,0,0,0,.07-.12.4.4,0,0,0-.15-.14,1.68,1.68,0,0,0-.34-.2.75.75,0,0,0-.24-.08.23.23,0,0,0-.2,0,.08.08,0,0,0-.07.11.5.5,0,0,0,.15.14,3.79,3.79,0,0,0,.34.2Zm1-1.7v-.07a.12.12,0,0,1,.07-.07l.36-.21H328l1.13,3.16a.11.11,0,0,1,0,.08l-.07.07-.36.21h-.2Zm3.32.83a3,3,0,0,1,.38.23.88.88,0,0,1,.24.19.35.35,0,0,1,.1.2.29.29,0,0,1-.06.22.82.82,0,0,1-.25.2,1.22,1.22,0,0,1-.72.17,1.34,1.34,0,0,1-.35-.05,2,2,0,0,1-.34-.14l-.2-.1-.18-.12a1.06,1.06,0,0,1-.23-.19.41.41,0,0,1-.1-.21.3.3,0,0,1,0-.21.6.6,0,0,1,.25-.2,1,1,0,0,1,.35-.14,1.15,1.15,0,0,1,.37,0,2,2,0,0,1,.35.06,2,2,0,0,1,.35.09Zm-.51.71a1,1,0,0,0,.24.09.34.34,0,0,0,.2,0,.08.08,0,0,0,.07-.11.4.4,0,0,0-.15-.14,2.33,2.33,0,0,0-.34-.2.75.75,0,0,0-.24-.08.23.23,0,0,0-.2,0,.09.09,0,0,0-.07.12.5.5,0,0,0,.15.14,2.31,2.31,0,0,0,.35.18Z"/><path class="cls-4" d="M315.38,384.76l-3.72-1.09a5.52,5.52,0,0,0-1.28,4.69l4.11-.37A4,4,0,0,1,315.38,384.76Z"/><path class="cls-4" d="M312.14,383.13l3.71,1.09a8.15,8.15,0,0,1,1.72-1.31,11.86,11.86,0,0,1,2.28-1L318,379.77a16.84,16.84,0,0,0-3.32,1.44A11.32,11.32,0,0,0,312.14,383.13Z"/><path class="cls-4" d="M326.36,381.13l.65-2.37a25,25,0,0,0-8.13.74l1.9,2.14A18.06,18.06,0,0,1,326.36,381.13Z"/><path class="cls-4" d="M314.66,388.58l-4.12.37a8.42,8.42,0,0,0,3.74,4.24l2.94-1.7A6.09,6.09,0,0,1,314.66,388.58Z"/><path class="cls-4" d="M318,391.91l-2.95,1.7a20.53,20.53,0,0,0,7.34,2.16l.65-2.37A14.82,14.82,0,0,1,318,391.91Z"/><path class="cls-4" d="M324,393.49l-.66,2.37a25.06,25.06,0,0,0,8.14-.74l-1.9-2.14A18.06,18.06,0,0,1,324,393.49Z"/><path class="cls-4" d="M332.81,391.71a11.78,11.78,0,0,1-2.27,1l1.89,2.15a17.45,17.45,0,0,0,3.32-1.44,11.4,11.4,0,0,0,2.5-1.92l-3.71-1.09A8.8,8.8,0,0,1,332.81,391.71Z"/><path class="cls-4" d="M335,389.86l3.72,1.09a5.49,5.49,0,0,0,1.27-4.69l-4.1.38A4,4,0,0,1,335,389.86Z"/><path class="cls-4" d="M332.43,382.71l2.95-1.7a20.33,20.33,0,0,0-7.34-2.16l-.65,2.37A14.6,14.6,0,0,1,332.43,382.71Z"/><path class="cls-4" d="M335.73,386l4.12-.37a8.38,8.38,0,0,0-3.74-4.24l-2.95,1.7A6,6,0,0,1,335.73,386Z"/><path class="cls-24" d="M312.14,383.13l3.71,1.09a8.15,8.15,0,0,1,1.72-1.31,11.86,11.86,0,0,1,2.28-1L318,379.77a16.84,16.84,0,0,0-3.32,1.44A11.32,11.32,0,0,0,312.14,383.13Z"/><path class="cls-24" d="M326.36,381.13l.65-2.37a25,25,0,0,0-8.13.74l1.9,2.14A18.06,18.06,0,0,1,326.36,381.13Z"/><path class="cls-24" d="M335,389.86l3.72,1.09a5.49,5.49,0,0,0,1.27-4.69l-4.1.38A4,4,0,0,1,335,389.86Z"/><g class="cls-25"><path d="M332.43,382.71l2.95-1.7a20.33,20.33,0,0,0-7.34-2.16l-.65,2.37A14.6,14.6,0,0,1,332.43,382.71Z"/></g><path class="cls-24" d="M335.73,386l4.12-.37a8.38,8.38,0,0,0-3.74-4.24l-2.95,1.7A6,6,0,0,1,335.73,386Z"/><path class="cls-13" d="M359.25,369.66h0l-1.61-2-1.31.75h-.26l-.54-.31a.1.1,0,0,1-.06-.08.09.09,0,0,1,0-.07l2.1-1.21h.26l.47.27a.58.58,0,0,1,.19.19l1.61,2v.15l-.62.35h-.11Z"/><path class="cls-13" d="M359.28,365.63a2.1,2.1,0,0,1,.68-.27,2.3,2.3,0,0,1,.69-.05,2.55,2.55,0,0,1,.67.12,2.78,2.78,0,0,1,.62.25l.47.26.44.26a2.11,2.11,0,0,1,.43.36.68.68,0,0,1,.21.38.6.6,0,0,1-.1.41,1.3,1.3,0,0,1-.45.39,2.66,2.66,0,0,1-.68.26,2.76,2.76,0,0,1-.7.06,3.05,3.05,0,0,1-.67-.13,3.26,3.26,0,0,1-.61-.25c-.15-.07-.3-.16-.46-.25l-.45-.27a2.44,2.44,0,0,1-.43-.35.75.75,0,0,1-.21-.39.57.57,0,0,1,.09-.4A1.23,1.23,0,0,1,359.28,365.63Zm2.73,1c-.28-.18-.56-.34-.86-.5l-.26-.11a1.34,1.34,0,0,0-.27-.07h-.26a.64.64,0,0,0-.27.11.35.35,0,0,0-.17.15.2.2,0,0,0,0,.15.33.33,0,0,0,.11.15,1,1,0,0,0,.2.16c.27.17.55.33.85.49l.27.12a1.1,1.1,0,0,0,.26.06.89.89,0,0,0,.53-.11.46.46,0,0,0,.18-.16.2.2,0,0,0,0-.15.33.33,0,0,0-.11-.15,1.06,1.06,0,0,0-.21-.11Z"/><path class="cls-13" d="M363.07,364.3l.39.22a2.11,2.11,0,0,1,.23.19.41.41,0,0,1,.1.21.27.27,0,0,1-.06.21,1.21,1.21,0,0,1-.24.21,2.24,2.24,0,0,1-.36.14,1.09,1.09,0,0,1-.36,0l-.36-.06a1.4,1.4,0,0,1-.34-.13l-.19-.1-.19-.12a1.1,1.1,0,0,1-.23-.2.42.42,0,0,1-.1-.2.3.3,0,0,1,.05-.21.72.72,0,0,1,.25-.21,1.51,1.51,0,0,1,.35-.14,1.15,1.15,0,0,1,.37,0,2.25,2.25,0,0,1,.36.06A1.33,1.33,0,0,1,363.07,364.3Zm-.51.71a1,1,0,0,0,.24.09.34.34,0,0,0,.2,0,.08.08,0,0,0,.07-.12.4.4,0,0,0-.15-.14,2.79,2.79,0,0,0-.33-.19.75.75,0,0,0-.25-.09.23.23,0,0,0-.2,0,.09.09,0,0,0-.07.12.67.67,0,0,0,.15.14Zm1-1.69v-.08a.23.23,0,0,1,.07-.07L364,363h.21l1.13,3.16a.11.11,0,0,1,0,.08.11.11,0,0,1-.06.07l-.37.21a.18.18,0,0,1-.2,0h0Zm3.32.83a2.88,2.88,0,0,1,.38.22,1.12,1.12,0,0,1,.24.19.51.51,0,0,1,.1.21.27.27,0,0,1-.06.21,1.21,1.21,0,0,1-.24.21,2.24,2.24,0,0,1-.36.14h-.37a2,2,0,0,1-.35-.06,2,2,0,0,1-.34-.13l-.2-.11-.18-.12a1.06,1.06,0,0,1-.23-.19.42.42,0,0,1-.1-.2.3.3,0,0,1,.05-.21.72.72,0,0,1,.25-.21,1.22,1.22,0,0,1,.72-.17,1,1,0,0,1,.35.06,1.58,1.58,0,0,1,.35.16Zm-.51.71a1.17,1.17,0,0,0,.24.09.34.34,0,0,0,.2,0,.08.08,0,0,0,.07-.12.4.4,0,0,0-.15-.14,2.27,2.27,0,0,0-.34-.19.54.54,0,0,0-.24-.09.23.23,0,0,0-.2,0,.08.08,0,0,0-.07.11.54.54,0,0,0,.15.15Z"/><path class="cls-4" d="M351.72,363.77,348,362.68a5.52,5.52,0,0,0-1.28,4.69l4.11-.37A3.94,3.94,0,0,1,351.72,363.77Z"/><path class="cls-4" d="M348.47,362.14l3.72,1.09a8.15,8.15,0,0,1,1.72-1.31,11.28,11.28,0,0,1,2.28-1l-1.9-2.15a16.84,16.84,0,0,0-3.32,1.44A11.14,11.14,0,0,0,348.47,362.14Z"/><path class="cls-4" d="M362.7,360.14l.65-2.37a25,25,0,0,0-8.13.74l1.89,2.14A18.15,18.15,0,0,1,362.7,360.14Z"/><path class="cls-4" d="M351,367.59l-4.12.37a8.48,8.48,0,0,0,3.75,4.24l2.94-1.7A6.16,6.16,0,0,1,351,367.59Z"/><path class="cls-4" d="M354.3,370.92l-2.95,1.7a20.48,20.48,0,0,0,7.33,2.16l.65-2.37A14.76,14.76,0,0,1,354.3,370.92Z"/><path class="cls-4" d="M360.36,372.5l-.65,2.37a25,25,0,0,0,8.13-.74L366,372A18.16,18.16,0,0,1,360.36,372.5Z"/><path class="cls-4" d="M369.15,370.72a11.86,11.86,0,0,1-2.28,1l1.9,2.15a17.45,17.45,0,0,0,3.32-1.44,11.4,11.4,0,0,0,2.5-1.92l-3.72-1.09A8.45,8.45,0,0,1,369.15,370.72Z"/><path class="cls-4" d="M371.35,368.87l3.71,1.09a5.52,5.52,0,0,0,1.28-4.69l-4.11.38A4,4,0,0,1,371.35,368.87Z"/><path class="cls-4" d="M368.76,361.72l2.95-1.7a20.28,20.28,0,0,0-7.33-2.16l-.65,2.37A14.54,14.54,0,0,1,368.76,361.72Z"/><path class="cls-4" d="M372.07,365.05l4.11-.37a8.27,8.27,0,0,0-3.73-4.24l-2.95,1.7A6,6,0,0,1,372.07,365.05Z"/><g class="cls-25"><path d="M348.47,362.14l3.72,1.09a8.15,8.15,0,0,1,1.72-1.31,11.28,11.28,0,0,1,2.28-1l-1.9-2.15a16.84,16.84,0,0,0-3.32,1.44A11.14,11.14,0,0,0,348.47,362.14Z"/><path d="M362.7,360.14l.65-2.37a25,25,0,0,0-8.13.74l1.89,2.14A18.15,18.15,0,0,1,362.7,360.14Z"/><path d="M360.36,372.5l-.65,2.37a25,25,0,0,0,8.13-.74L366,372A18.16,18.16,0,0,1,360.36,372.5Z"/><path d="M369.15,370.72a11.86,11.86,0,0,1-2.28,1l1.9,2.15a17.45,17.45,0,0,0,3.32-1.44,11.4,11.4,0,0,0,2.5-1.92l-3.72-1.09A8.45,8.45,0,0,1,369.15,370.72Z"/><path d="M371.35,368.87l3.71,1.09a5.52,5.52,0,0,0,1.28-4.69l-4.11.38A4,4,0,0,1,371.35,368.87Z"/><path d="M368.76,361.72l2.95-1.7a20.28,20.28,0,0,0-7.33-2.16l-.65,2.37A14.54,14.54,0,0,1,368.76,361.72Z"/><path d="M372.07,365.05l4.11-.37a8.27,8.27,0,0,0-3.73-4.24l-2.95,1.7A6,6,0,0,1,372.07,365.05Z"/></g><g class="cls-25"><path d="M206,178.66a.5.5,0,0,1-.25-.93L238.29,159a.48.48,0,0,1,.67.17h0a.51.51,0,0,1-.18.69l-32.5,18.76A.7.7,0,0,1,206,178.66Z"/><path d="M206,183.35a.5.5,0,0,1-.25-.93l32.5-18.76a.48.48,0,0,1,.67.17h0a.51.51,0,0,1-.18.69l-32.5,18.76A.54.54,0,0,1,206,183.35Z"/><path d="M206,188a.5.5,0,0,1-.43-.25.49.49,0,0,1,.18-.68l32.5-18.76a.48.48,0,0,1,.67.17h0a.51.51,0,0,1-.18.69L206.29,188A.71.71,0,0,1,206,188Z"/><path d="M206,192.74a.5.5,0,0,1-.25-.94L238.29,173a.48.48,0,0,1,.67.17h0a.51.51,0,0,1-.18.69l-32.5,18.76A.57.57,0,0,1,206,192.74Z"/><path d="M206,197.43a.5.5,0,0,1-.25-.94l32.5-18.76a.48.48,0,0,1,.67.17h0a.51.51,0,0,1-.18.69l-32.5,18.76A.55.55,0,0,1,206,197.43Z"/><path d="M206,202.12a.5.5,0,0,1-.25-.94l32.5-18.76a.48.48,0,0,1,.67.17h0a.51.51,0,0,1-.18.69l-32.5,18.76A.55.55,0,0,1,206,202.12Z"/><path d="M206,206.81a.5.5,0,0,1-.25-.94l32.5-18.76a.48.48,0,0,1,.67.17h0a.51.51,0,0,1-.18.69l-32.5,18.76A.43.43,0,0,1,206,206.81Z"/><path d="M206,122.38a.5.5,0,0,1-.25-.94l32.5-18.76a.48.48,0,0,1,.67.17h0a.51.51,0,0,1-.18.69l-32.5,18.76A.55.55,0,0,1,206,122.38Z"/><path d="M206,127.07a.5.5,0,0,1-.25-.94l32.5-18.76a.49.49,0,0,1,.67.17v0a.49.49,0,0,1-.18.68L206.29,127A.5.5,0,0,1,206,127.07Z"/><path d="M206,131.76a.5.5,0,0,1-.25-.94l32.5-18.76a.49.49,0,0,1,.68.18.51.51,0,0,1-.18.69l-32.5,18.76A.43.43,0,0,1,206,131.76Z"/><path d="M206,136.45a.5.5,0,0,1-.25-.94l32.5-18.76a.49.49,0,0,1,.68.18.51.51,0,0,1-.18.69l-32.5,18.76A.43.43,0,0,1,206,136.45Z"/><path d="M206,141.14a.5.5,0,0,1-.25-.93l32.5-18.77a.51.51,0,0,1,.68.19.49.49,0,0,1-.17.67h0l-32.5,18.76A.43.43,0,0,1,206,141.14Z"/><path d="M206,145.83a.5.5,0,0,1-.25-.93l32.5-18.77a.51.51,0,0,1,.68.19.49.49,0,0,1-.17.67h0l-32.5,18.76A.43.43,0,0,1,206,145.83Z"/><path d="M206,150.52a.5.5,0,0,1-.25-.93l32.5-18.76a.5.5,0,0,1,.59.81l-.09.05-32.5,18.76A.43.43,0,0,1,206,150.52Z"/><path d="M206,155.21a.5.5,0,0,1-.25-.93l32.5-18.76a.5.5,0,0,1,.59.81l-.09,0-32.5,18.76A.43.43,0,0,1,206,155.21Z"/><path d="M206,159.9a.5.5,0,0,1-.25-.93l32.5-18.76a.5.5,0,0,1,.59.81l-.09,0-32.5,18.76A.43.43,0,0,1,206,159.9Z"/><path d="M206,164.59a.5.5,0,0,1-.25-.93l32.5-18.76a.5.5,0,0,1,.59.81l-.09,0-32.5,18.77A.54.54,0,0,1,206,164.59Z"/><path d="M206,169.28a.5.5,0,0,1-.25-.93L222,159a.49.49,0,0,1,.66.25.5.5,0,0,1-.16.61l-16.25,9.39A.54.54,0,0,1,206,169.28Z"/><path d="M131.76,277.05a.5.5,0,0,1-.25-.94L237.89,214.7a.5.5,0,0,1,.59.81l-.09.05L132,277A.69.69,0,0,1,131.76,277.05Z"/><path d="M133.27,283a.53.53,0,0,1-.64-.37A.52.52,0,0,1,133,282l106.4-61.4a.49.49,0,0,1,.68.18.51.51,0,0,1-.18.69L133.52,282.88A.58.58,0,0,1,133.27,283Z"/><path d="M135,288.74a.5.5,0,0,1-.25-.93l106.38-61.42a.49.49,0,0,1,.67.17v0a.49.49,0,0,1-.18.68L135.28,288.67A.45.45,0,0,1,135,288.74Z"/><path d="M136.9,294.51a.5.5,0,0,1-.25-.93L243,232.16a.48.48,0,0,1,.67.17h0a.51.51,0,0,1-.18.69L137.15,294.44A.43.43,0,0,1,136.9,294.51Z"/><path d="M139.07,300.14a.52.52,0,0,1-.44-.25.51.51,0,0,1,.19-.69l106.37-61.41a.5.5,0,0,1,.59.81l-.09.05L139.32,300.07A.55.55,0,0,1,139.07,300.14Z"/><path d="M174,356a.52.52,0,0,1-.38-.17c-3.65-4.15-11.52-13.4-15.24-18.75-7.93-11.85-13.68-22.21-17.57-31.67a.52.52,0,0,1,.27-.66.51.51,0,0,1,.66.28c3.86,9.4,9.57,19.7,17.47,31.49,3.68,5.3,11.53,14.52,15.16,18.65a.48.48,0,0,1-.37.83Z"/><path d="M242.56,264.4a.5.5,0,0,1-.25-.93l11.55-6.67a.5.5,0,1,1,.5.86l-11.55,6.67A.43.43,0,0,1,242.56,264.4Z"/><path d="M238.58,273.77a.5.5,0,0,1-.25-.94L257.12,262a.51.51,0,0,1,.68.19.49.49,0,0,1-.17.67h0L238.83,273.7A.72.72,0,0,1,238.58,273.77Z"/><path d="M255.91,284.7a.5.5,0,0,1-.25-.93l11.5-6.63a.51.51,0,0,1,.69.18.52.52,0,0,1-.19.69l-11.5,6.62A.43.43,0,0,1,255.91,284.7Z"/><path d="M252.46,293.73a.5.5,0,0,1-.43-.24.51.51,0,0,1,.18-.69l18.54-11a.47.47,0,0,1,.66.14l0,0a.49.49,0,0,1-.16.67h0l-18.54,11A.5.5,0,0,1,252.46,293.73Z"/><path d="M178.27,360.31a.5.5,0,0,1-.43-.25.49.49,0,0,1,.18-.68l107-61.77a.5.5,0,0,1,.59.81l-.09.05-107,61.78A.54.54,0,0,1,178.27,360.31Z"/><path d="M182.75,364.46a.5.5,0,0,1-.25-.94l107-61.77a.5.5,0,0,1,.59.81l-.09.05L183,364.39A.55.55,0,0,1,182.75,364.46Z"/><path d="M187.09,368.23a.5.5,0,0,1-.25-.93l107-61.78a.49.49,0,0,1,.68.18.51.51,0,0,1-.18.69l-107,61.77A.43.43,0,0,1,187.09,368.23Z"/><path d="M192.17,372.36a.5.5,0,0,1-.25-.93l107-61.77a.49.49,0,0,1,.66.25.5.5,0,0,1-.16.61l-107,61.78A.54.54,0,0,1,192.17,372.36Z"/><path d="M295.2,422.68a.5.5,0,0,1-.25-.93L315.26,410a.5.5,0,1,1,.5.87L295.45,422.6A.73.73,0,0,1,295.2,422.68Z"/><path d="M299.27,425a.49.49,0,0,1-.51-.49.48.48,0,0,1,.26-.45l20.31-11.72a.5.5,0,0,1,.7.11.51.51,0,0,1-.11.7l-.09.05L299.52,425A.53.53,0,0,1,299.27,425Z"/><path d="M303.33,427.37a.5.5,0,0,1-.25-.93l20.31-11.73a.49.49,0,0,1,.68.18.51.51,0,0,1-.18.69L303.58,427.3A.55.55,0,0,1,303.33,427.37Z"/><path d="M331.76,401.58a.5.5,0,0,1-.25-.94l20.31-11.72a.5.5,0,0,1,.7.11.51.51,0,0,1-.11.7l-.09,0L332,401.51A.48.48,0,0,1,331.76,401.58Z"/><path d="M335.82,403.92a.5.5,0,0,1-.25-.93l20.31-11.73a.51.51,0,0,1,.69.18.52.52,0,0,1-.19.69l-20.31,11.72A.43.43,0,0,1,335.82,403.92Z"/><path d="M339.89,406.26a.5.5,0,0,1-.44-.25.51.51,0,0,1,.19-.68L360,393.61a.5.5,0,0,1,.7.11.51.51,0,0,1-.11.7l-.09.05L340.14,406.2A.54.54,0,0,1,339.89,406.26Z"/><path d="M368.32,380.47a.5.5,0,0,1-.25-.93l20.31-11.73a.48.48,0,0,1,.67.17h0a.51.51,0,0,1-.18.69L368.57,380.4A.55.55,0,0,1,368.32,380.47Z"/><path d="M372.38,382.81a.5.5,0,0,1-.25-.93l20.31-11.73a.5.5,0,0,1,.68.19.49.49,0,0,1-.17.67h0l-20.31,11.73A.54.54,0,0,1,372.38,382.81Z"/><path d="M376.44,385.16a.5.5,0,0,1-.25-.93L396.5,372.5a.51.51,0,0,1,.69.18.49.49,0,0,1-.17.67h0l-20.31,11.73A.43.43,0,0,1,376.44,385.16Z"/></g></g></g><g id="Character_2" data-name="Character 2"><g id="Character"><path class="cls-26" d="M357.3,206.44c-1.79,3.21-13.3,13.36-14.39,14.56s-2.28,2.23-3.32,3.19c-1.25,1.16-2.23,2.48-3.87,3.14a1.77,1.77,0,0,1-1.46.07c-.22-.12-.39-.33-.62-.45a5.61,5.61,0,0,1-1.1-.43c-.31-.24-.47-1-.93-1.34a2.77,2.77,0,0,0-.67-.27c-.4-.17-.66-.85-.83-1.24-.1-.2-.18-.68-.49-.64a19.6,19.6,0,0,0-2.47.77c-1.87.61-3.07.74-3.35-.17-.39-1.27,1.08-1.59,3.35-2.55s7-2.94,6.79-3.45-1.78-1.44-2.42-2.6-.41-2.63.43-2c.49.37,2.35,1.31,3.17,1.78s2.3,1.37,3.3,1,11.18-13,11.18-13,8.12-17.39,10.15-21,3.63-5.59,7-5.71l.43,6.42-.88,7.25S358.75,203.86,357.3,206.44Z"/><path class="cls-8" d="M367.81,176s-3.29-.82-5.4,1.48-3,4.06-4.77,7.75S351,199.46,351,199.46a9.28,9.28,0,0,0,8.41,3.82l8.89-16.83Z"/><path class="cls-14" d="M361.37,192.18A31.12,31.12,0,0,1,362,200c-.24,3.44-2.68,9.75-2.68,9.75s1.92,1.75,7.17.93c4.27-.67,2.76-13.54.31-16A8.14,8.14,0,0,0,361.37,192.18Z"/><path class="cls-27" d="M390.92,302a31.73,31.73,0,0,1,.49,5.15c.06,3.12.63,4.23.71,6.8.08,2.92-.42,4-1.61,5.67s-4.31,3.14-5.63.35-1.15-4.6-.72-7.48.49-4.61.74-6.87c.22-2,.49-3.52.49-3.52Z"/><path class="cls-26" d="M382.05,277.46l10.29-.19c-.15,6.87-1.24,18.31-1.42,24.75,0,1.22,0,9.43-.43,11.93-.69,3.75-5.14,3.24-5.37,1s.28-11.84.27-12.83c0-4.13-1.9-14.92-2.92-22.34C382.42,279.42,382.1,277.81,382.05,277.46Z"/><path class="cls-27" d="M366.93,296.68s.53,0,.61.46.13,1.33.34,2.18a12.12,12.12,0,0,1,.37,4.07c-.18,1-2.37,2.39-3.87,2.64a11.55,11.55,0,0,0-4.78,2.84,11.49,11.49,0,0,1-6.66,2.61c-2.49,0-4.24-.83-5.06-2.17s.75-1.5,3.61-3.35l2.21-1.44c4.53-3,6.19-4.54,7.47-7.5Z"/><path class="cls-26" d="M361.13,295.07c.08-2.13-1-17.8-1-17.8l8.85,1c-2.09,12.49-2.26,16.75-2,18.56h0a2.32,2.32,0,0,1,0,.53c0,2.42-2.75,3.73-4.88,5.35a19.83,19.83,0,0,1-5.56,3.47c-1.64.56-4.68.78-5.07-.22a68.9,68.9,0,0,0,8.2-6.85A5.34,5.34,0,0,0,361.13,295.07Z"/><path class="cls-8" d="M385,203.31a37.38,37.38,0,0,1,6.48,13.34c2.92,11.8-1.67,37-1.67,37,.15,1.71,2.1,5.08,2.83,12.61C393.47,275.2,391,299,391,299a5.68,5.68,0,0,1-5.76.12s-6.23-35-7.35-43.86c-1-7.72-3-23.76-3-23.76l-4.46,23.72s.62,4.33.94,7.62c.5,5.21-4.57,31.33-4.57,31.33a7.21,7.21,0,0,1-5.74-.11s-2.24-33.75-2.71-40c-.49-6.45,1.19-21.49,2.42-33.46.38-3.61,2.21-14.75,2.85-17.84Z"/><path class="cls-28" d="M375,231.53l-1.07-7.31a18.3,18.3,0,0,1-8.6-2.78,11,11,0,0,0,7.2,4l.67,6.54-2.2,20.4Z"/><path class="cls-4" d="M363.15,195.52c.11,2.14.54,7.25.54,7.25,8.76,5.93,21.28.54,21.28.54l1.83-12.46s-4.58-6.4-.28-13.14l-6.85-1.36-8.17-.67-4.76.43c-2.67,2-4.45,6-5.31,8.16A10.38,10.38,0,0,0,363.15,195.52Z"/><g class="cls-29"><path class="cls-6" d="M363.15,195.52c.11,2.14.54,7.25.54,7.25,8.76,5.93,21.28.54,21.28.54l1.83-12.46s-4.58-6.4-.28-13.14l-6.85-1.36-8.17-.67-4.76.43c-2.67,2-4.45,6-5.31,8.16A10.38,10.38,0,0,0,363.15,195.52Z"/></g><path class="cls-7" d="M380.35,176.13s7.52.65,9,1.36,3.93,4.94,1.73,11.1-4.18,13.39-4,14.85,5.46,9,5.46,9a14.23,14.23,0,0,1-4.82,2.31L385,208.89l.63,6.23a32,32,0,0,1-8.28.87S374.87,192.08,380.35,176.13Z"/><polygon class="cls-7" points="344.85 201.54 367.04 203.03 378.32 228.04 357.12 226.08 344.85 201.54"/><path class="cls-30" d="M365.38,218.84a5,5,0,0,0,4,3.17,11,11,0,0,0,5.76-1.08l-.94-2.09Z"/><path class="cls-30" d="M351.76,204.14l-.33-.77c-.18-.43,1.06-.68,2.76-.58l3.27.21c1.71.11,3.24.54,3.42,1l.33.77Z"/><path class="cls-1" d="M349.71,201.39c-.11-.27.38-.44,1.09-.38l1.3.1s-.7-1.67,2.15-1.59a4.36,4.36,0,0,1,3.83,1.95l1.39.12a2.47,2.47,0,0,1,1.64.59l.25.47-11.43-.77Z"/><path class="cls-3" d="M351.38,202c1,0,1.48.1,1.76.75s.5,1.32.5,1.32l5.06.34s-.42-.95-.57-1.32,0-.63.78-.58v-.32l-7.91-.47Z"/><path class="cls-31" d="M351.64,204.24s-.14-.34-.33-.77,1.06-.68,2.77-.57l3.26.2c1.71.11,3.24.55,3.42,1l.33.77Z"/><path class="cls-7" d="M379.61,175H361.18V158.54a13.45,13.45,0,0,1,13.45-13.45h0a13.45,13.45,0,0,1,13.45,13.45h0v8A8.48,8.48,0,0,1,379.61,175Z"/><path class="cls-26" d="M364.85,153c-.79.33-2.4,1.7-2.44,9.71,0,6.79,2.13,8.52,3.22,9s3.23.27,5.31,0l-.06,3.34a14.85,14.85,0,0,0-1.64,10.2c4.26-3.29,10.65-8.88,10.65-8.88l.2-9.4s1.18,1.21,3.3-.54c1.75-1.44,2.39-3.94,1.1-5.33a3,3,0,0,0-4.24.08,2.91,2.91,0,0,0-.52.74c-4.44,0-6.35-5-6.63-8C371.53,155,367.24,156,364.85,153Z"/><path class="cls-7" d="M367.28,158.89a7.59,7.59,0,0,0,5.82-5s2.63-7-4.37-7.42c-10.73-.7-9.73,12.42-9.73,12.42Z"/><path class="cls-27" d="M363.27,158.89l1.73-1.13a1,1,0,0,0-1.37-.35l0,0A1.09,1.09,0,0,0,363.27,158.89Z"/><path class="cls-32" d="M371,171.93c2.15-.22,6.6-1.37,7.34-3.09A4.5,4.5,0,0,1,376.7,171c-1.35,1.1-5.74,2.25-5.74,2.25Z"/><path class="cls-26" d="M367.89,215.39a14.06,14.06,0,0,0,4.3-1.24,10,10,0,0,1-2.41-.66,1.49,1.49,0,0,1-.92-1.82c.12-.3.85.06,2.17,0a15.49,15.49,0,0,1,4.61,0c.66.14,1.58.6,2.17.26a148.15,148.15,0,0,0,12.8-8.88h0l-3.89-11.67a15.45,15.45,0,0,1,1-13.89c2.66.45,4.7.95,6.68,8,2.08,7.41,5,17,4.85,20.06s-8.14,6.2-14.13,9.18c-2.52,1.26-6.71,3.66-8.34,4.51-5.67,3-8.43,2.67-10.4.76C363.29,216.93,364.49,215.82,367.89,215.39Z"/><path class="cls-8" d="M387.42,177c5.37.34,6,4.47,7.53,8.57,1.46,3.83,3.34,13.89,3.34,13.89s-3.94,4-8.14,2.92l-3.74-11.69S382,181.66,387.42,177Z"/></g></g><g id="Character_1" data-name="Character 1"><g id="Character-2"><g id="Glass"><g id="Magnifying_glass" data-name="Magnifying glass"><path class="cls-7" d="M179.92,292.11h0c.54-1.25,1.9-2.16,4-2.41a14.42,14.42,0,0,1,12,5.13c1.25,1.66,1.55,3.27,1,4.53h0L162.6,389.28h0c-.66,1.9-2.6,3.27-5.64,3.64-5.78.7-13.31-2.5-16.81-7.16-1.83-2.45-2.19-4.8-1.28-6.59h0Z"/><path class="cls-14" d="M195.92,294.83c2.51,3.33,1.18,6.44-3,6.94a14.5,14.5,0,0,1-12-5.12c-2.5-3.34-1.18-6.44,3-6.95A14.42,14.42,0,0,1,195.92,294.83Z"/><path class="cls-4" d="M196.81,266a8.72,8.72,0,0,1,7.28,3.1,2.8,2.8,0,0,1,.61,2.74h0L193.57,298h0a2.81,2.81,0,0,1-2.4,1.46,8.76,8.76,0,0,1-7.27-3.1,2.76,2.76,0,0,1-.61-2.74l11.12-26.12h0A2.77,2.77,0,0,1,196.81,266Z"/><path class="cls-33" d="M196.81,266a8.72,8.72,0,0,1,7.28,3.1,2.8,2.8,0,0,1,.61,2.74h0L193.57,298h0a2.81,2.81,0,0,1-2.4,1.46,8.76,8.76,0,0,1-7.27-3.1,2.76,2.76,0,0,1-.61-2.74l11.12-26.12h0A2.77,2.77,0,0,1,196.81,266Z"/><path class="cls-33" d="M189.28,279.47l.78.45h0l.11.07h0l.16.08.16.09c.49.29,1,.55,1.51.8s1.28.59,1.93.84a15.44,15.44,0,0,0,1.76.65,7.14,7.14,0,0,0,.93.28,5.76,5.76,0,0,0,1,.3c.33.1.66.19,1,.26a6.41,6.41,0,0,0,.76.16l.26.05,5-11.69h0a2.8,2.8,0,0,0-.61-2.74,6.52,6.52,0,0,0-1-1.07,38,38,0,0,1-9.57,1.65Z"/><path class="cls-30" d="M188.91,301.49,152.7,392.78a16.07,16.07,0,0,0,4.27.13c3-.37,5-1.74,5.63-3.64h0l34.32-89.9c-.54,1.26-1.9,2.15-4,2.4A12,12,0,0,1,188.91,301.49Z"/><path class="cls-7" d="M302.07,157.87c0-.76-.05-1.5-.12-2.24s-.09-1.46-.16-2.18a11.29,11.29,0,0,0-.15-1.45c-.13-1.25-.31-2.49-.52-3.67-.09-.54-.19-1.09-.29-1.63s-.21-1-.32-1.52c-.31-1.36-.65-2.7-1-4-.2-.61-.39-1.21-.6-1.81a1.52,1.52,0,0,1-.09-.28c-.22-.59-.42-1.16-.65-1.72s-.51-1.29-.81-1.91c-.21-.46-.4-.9-.65-1.34a6.08,6.08,0,0,0-.47-1,9.78,9.78,0,0,0-.62-1.15,1.35,1.35,0,0,0-.15-.26c-.18-.33-.39-.66-.58-1s-.28-.42-.41-.63a32.1,32.1,0,0,0-3.19-4.23c-.2-.23-.4-.45-.58-.67l-.51-.52c-.2-.22-.42-.42-.65-.65a18.42,18.42,0,0,0-1.92-1.72,10.63,10.63,0,0,0-1-.77c-.33-.26-.66-.5-1-.74a14.89,14.89,0,0,0-1.64-1.07l-.44-.28-.09-.07h0l-10.34-6.08h0l-.14-.09A32.84,32.84,0,0,0,256.51,109c-8.58,0-18.27,2.81-28.54,8.73-35.35,20.43-64,69.95-64,110.68,0,20.31,7.11,34.59,18.59,41.28l.11.06h0l10.36,6.06h0l.11.07h0l.16.08.16.09a16.64,16.64,0,0,0,1.51.79c.63.31,1.27.6,1.93.85s1.16.46,1.75.65a7.79,7.79,0,0,0,.94.28,7.12,7.12,0,0,0,1,.29c.35.11.68.19,1,.27s.51.12.77.16c.44.09.92.19,1.39.24a.81.81,0,0,0,.31.06c.55.09,1.11.17,1.66.22,9.51,1,20.57-1.68,32.41-8.51C273.44,251,302,201.47,302,160.76A21.47,21.47,0,0,0,302.07,157.87ZM185.7,254a62.46,62.46,0,0,1-2.16-16.71c0-38.59,28.24-87.51,61.66-106.81A60,60,0,0,1,260.84,124a34.13,34.13,0,0,1,8.05-1,24.23,24.23,0,0,1,4.08.32h.11c6.85,8.09,7.85,21.06,7.85,28,0,38.59-28.21,87.51-61.64,106.79-8.51,4.91-16.68,7.5-23.7,7.5a16.54,16.54,0,0,1-4.31-.55h0A30.42,30.42,0,0,1,185.7,254Z"/><path class="cls-20" d="M292.94,158c0,20.5-8,43.9-20.45,64.25-.58,1-1.18,1.91-1.8,2.86s-1.05,1.64-1.6,2.45c-1.18,1.74-2.36,3.46-3.61,5.14-.58.8-1.17,1.6-1.78,2.38s-1.32,1.71-2,2.56q-1.92,2.43-4,4.74c-.88,1-1.79,2-2.71,3a103.55,103.55,0,0,1-23.74,19.4c-1.6.93-3.17,1.77-4.74,2.52a47.5,47.5,0,0,1-16.26,4.86c-.91.09-1.81.13-2.68.13h-1.41a23.83,23.83,0,0,1-2.53-.26c-.41-.06-.82-.13-1.21-.22a11.57,11.57,0,0,1-1.16-.29,18.68,18.68,0,0,1-10-6.48,16.54,16.54,0,0,0,4.31.55c7,0,15.19-2.59,23.7-7.5,33.43-19.28,61.64-68.2,61.64-106.79,0-6.93-1-19.9-7.85-28H273c8.72,1.4,13.68,7.32,16.47,14.17a40.6,40.6,0,0,1,1.9,6,2.09,2.09,0,0,0,.08.34c.09.37.18.74.25,1.11l.21,1.08a.6.6,0,0,0,.05.28c.07.39.14.77.2,1.15.22,1.43.4,2.82.52,4.16,0,.39.07.76.09,1.12a5.08,5.08,0,0,0,.06.84v.34a4.44,4.44,0,0,0,.06.89v1.31A18.4,18.4,0,0,1,292.94,158Z"/><path class="cls-8" d="M192.19,275.34l-9.58-5.64c-11.49-6.7-18.61-21-18.61-41.26,0-18.17,5.69-38.07,15.11-56.35L190,178.37c-9.43,18.28-15.68,38-15.68,56.14C174.37,254.37,181.13,268.46,192.19,275.34Z"/><path class="cls-7" d="M283.52,119.49l-.09-.07h0l-10.34-6.08h0l-.14-.09a32.83,32.83,0,0,0-16.47-4.16c-8.58,0-18.27,2.8-28.54,8.72-19.54,11.29-37,31.54-48.74,54.28l10.86,6.4c-.07.15-.15.3-.23.45,11.74-22.5,29.15-42.86,48.48-55,17.51-11,34.12-11.17,45.71-4.12Z"/></g><path class="cls-34" d="M287.39,154.76c0,38.59-28.24,87.51-61.66,106.81A59.84,59.84,0,0,1,210.09,268a34.66,34.66,0,0,1-8.05,1,23,23,0,0,1-8.18-1.4c-4.15-3.48-6.66-8.52-8.16-13.7a62.46,62.46,0,0,1-2.16-16.71c0-38.59,28.24-87.51,61.66-106.81A59.85,59.85,0,0,1,260.84,124a34.13,34.13,0,0,1,8.05-1,22.82,22.82,0,0,1,8.18,1.4c4.15,3.47,6.66,8.52,8.16,13.7A62,62,0,0,1,287.39,154.76Z"/></g><path class="cls-35" d="M179.15,310.77l-10.93-6.21c-3-1.71-3.81.27-4.92,2.39l-9.69,18.49c-1.11,2.11-2,3.59.41,5.1l10.57,6.09c1.68,1.14,2.8,1.27,4-1l10.06-19.2C179.77,314.34,181.45,312.2,179.15,310.77Z"/><path class="cls-36" d="M178.3,310.26l-10.92-6.2c-3-1.71-3.82.27-4.92,2.38l-9.69,18.49c-1.11,2.11-2,3.59.41,5.1l10.57,6.09c1.68,1.14,2.8,1.27,4-1l10.07-19.2C178.93,313.83,180.6,311.7,178.3,310.26Z"/><polygon class="cls-6" points="153.61 326.32 166.67 333.72 178.2 312.17 165.16 304.72 153.61 326.32"/><polygon class="cls-6" points="157.31 330.9 160.35 332.65 160.97 331.55 157.93 329.8 157.31 330.9"/><path class="cls-37" d="M153.7,305.39a67,67,0,0,0,9.11,1.7c3.83.31,5.6.43,5.6.85,0,1.16-1.44,1.11-1.95,1.21a19.47,19.47,0,0,1-3.58.06s.31.67-.47,1.82a11.18,11.18,0,0,1-1.36,2.28c-2.69,2.58-10.92-.63-10.92-.63Z"/><path class="cls-35" d="M130.08,277.94s-4.65-3.18-9.05-.31c-3.26,2.12-6.84,8-5.45,16.95,2.43,15.5,26.9,25.08,26.9,25.08Z"/><path class="cls-4" d="M146.21,301.61s8.84,3.16,10.47,4.05,1.5,5.23,0,7.09-11.25.13-11.25.13Z"/><path class="cls-36" d="M165.8,426.15c-1.68-1-12.53,2-12.53,2L141.58,432l.89,8.81s4.16,4.45,9.93.57c3.43-2.32,10.07-5.3,12.57-8.89C166.78,429.92,167.47,427.2,165.8,426.15Z"/><path class="cls-36" d="M136.86,409.07c-1.67-1-12.52,2-12.52,2L112.64,415l.9,8.8s4.16,4.45,9.92.57c3.44-2.32,10.08-5.3,12.58-8.89C137.85,412.84,138.54,410.12,136.86,409.07Z"/><path class="cls-35" d="M121.9,328.48s-5.39,5.27-6.22,16.35c-.38,5,2.29,26.26,2.29,26.26s-4.1,11-5.11,18.09C111.66,397.6,112,414,112,414c.69,2.19,3,4.27,7.53,3.93s8-6.35,8-6.35S129.09,398,130.61,389c.87-5.14,1.86-8.54,2.34-12.82.2-4.91.7-16.87.7-16.87s5.62,22.36,7.4,29.19c-3.47,11.39-.39,42.38-.06,44.84,6.94,5.47,11.22.3,14.09-4.18-.17-6.89.93-19.05,1.18-28.68.21-7.59.08-10.78.21-13.33.24-5-2-19.88-3.16-31.3-1.34-13.31-1.61-22.94-1.61-22.94Z"/><path class="cls-36" d="M151,294.67c-.11,7.66-.21,17.49-.05,21.6a249.6,249.6,0,0,0,3.53,28.44c-2.47,2.47-12.49,8.75-20.88,7-6-1.28-15.31-4.54-18.82-10.53,0-1.17,3.28-11.41,3.28-18.8,0-10-.86-19.9-1.08-27.38-.15-5.23,2.65-12.43,4.78-14.61,2.31-2.37,3.48-3,7.44-1.92,3.19.3,10.36,4.35,12.7,5.68C147.75,286.46,151,292.41,151,294.67Z"/><path class="cls-38" d="M126.7,282.32l1.28-7.13,9.94,2.35s-1.22,3.76,0,6.89C138,284.54,130.38,284.06,126.7,282.32Z"/><path class="cls-37" d="M128,275.19c3.76,3.85,9.42,5.24,12.26,4.74,5.58-1,8.56-15.24,1-22.32-7.23-6.75-14.8-1.76-16.84,2.58C122.8,263.55,123.74,270.86,128,275.19Z"/><path class="cls-36" d="M146.48,257a8.78,8.78,0,0,1-2.47,5.24,26,26,0,0,1-6.51,3.53,17.21,17.21,0,0,0,.42,3.2,2.28,2.28,0,0,1-.65,2.49s-2.23-3.54-3.73-.7a3.25,3.25,0,0,0,1.18,4.42,11.62,11.62,0,0,1-2.41,3.59,35.62,35.62,0,0,1-3.12,2.47,42.1,42.1,0,0,0-4.49-8.53c-2.84-4-3.66-7.33-3.67-9a8.8,8.8,0,0,1,5.67-8.43c4.44-4.14,9.46-1.64,10.76-1.18s4.08,1.16,6.4-.34a9.51,9.51,0,0,1-1.35,4A26.74,26.74,0,0,0,146.48,257Z"/><path class="cls-35" d="M134.2,280.62a9.7,9.7,0,0,1,7.67,3.48s-6.11,3.64-10.15,2c-2.13-.89-5.47-2.72-6.24-3.71-1-1.34,2.07-4.79,2.07-4.79S129,280.62,134.2,280.62Z"/><path class="cls-37" d="M172.81,323.84a14.48,14.48,0,0,0,1-3c.16-.87-.45-2-1.45-.41a21.43,21.43,0,0,1-2.93,3.31l-3.75,6.61s4.23,4.4,8.48,1.71,1.67-7.35,1.08-7.82A5.33,5.33,0,0,0,172.81,323.84Z"/><path class="cls-35" d="M157.76,315.39c-1-5.87-1.94-10.22-2.83-15.82-1.34-8.53-5.68-12.21-9.15-12.78a18.45,18.45,0,0,0-5,11.49c-.25,6.89.37,12.8,4.25,19.52,1.34,2.32,5.34,7.88,9.1,9.72,3.54,1.73,13.12,5.63,15.11,5.67,2.86-1.79,4.91-6.26.77-10.66C167.6,321.28,160.63,316.72,157.76,315.39Z"/></g></g></g></g></g></svg>