<svg xmlns="http://www.w3.org/2000/svg" xmlns:xlink="http://www.w3.org/1999/xlink" viewBox="0 0 782.99 576.75"><defs><style>.cls-1{fill:#f5f5f5;}.cls-2{fill:#ccc;}.cls-18,.cls-2{opacity:0.6;}.cls-10,.cls-11,.cls-12,.cls-2,.cls-5{isolation:isolate;}.cls-10,.cls-11,.cls-12,.cls-3{fill:#edcd00;}.cls-13,.cls-4,.cls-9{fill:none;stroke:#535461;stroke-miterlimit:10;}.cls-15,.cls-5{opacity:0.1;}.cls-6{fill:url(#Gradiente_sem_nome);}.cls-7{fill:#272727;}.cls-8{fill:#fff;}.cls-9{stroke-width:1.86px;}.cls-10,.cls-19{opacity:0.5;}.cls-11{opacity:0.7;}.cls-12{opacity:0.8;}.cls-13{stroke-width:2px;}.cls-14{opacity:0.25;}.cls-16{opacity:0.2;}.cls-17{opacity:0.4;}.cls-20{opacity:0.3;}.cls-21{opacity:0.45;}.cls-22{opacity:0.35;}.cls-23{fill:#f9bbb7;}.cls-24{fill:#373737;}.cls-25{fill:#ffc5b3;}.cls-26{fill:#ddccd3;}.cls-27{fill:#212121;}.cls-28{fill:#d83030;}.cls-29{fill:#b29000;}</style><linearGradient id="Gradiente_sem_nome" x1="490.43" y1="-2120.29" x2="490.43" y2="-1754.54" gradientTransform="matrix(1, 0, 0, -1, -123, -1754.54)" gradientUnits="userSpaceOnUse"><stop offset="0" stop-color="gray" stop-opacity="0.25"/><stop offset="0.54" stop-color="gray" stop-opacity="0.12"/><stop offset="1" stop-color="gray" stop-opacity="0.1"/></linearGradient></defs><g id="Camada_2" data-name="Camada 2"><g id="Camada_1-2" data-name="Camada 1"><g id="Camada_2-2" data-name="Camada 2"><g id="Camada_1-2-2" data-name="Camada 1-2"><g id="Camada_2-2-2" data-name="Camada 2-2"><g id="Camada_1-2-2-2" data-name="Camada 1-2-2"><g id="Floor"><ellipse id="Floor-2" class="cls-1" cx="374.12" cy="387.99" rx="318.15" ry="188.76"/></g><g id="Camada_2-2-2-2" data-name="Camada 2-2-2"><g id="Camada_1-2-2-2-2" data-name="Camada 1-2-2-2"><g id="Camada_2-2-2-2-2" data-name="Camada 2-2-2-2"><g id="Camada_1-2-2-2-2-2" data-name="Camada 1-2-2-2-2"><g id="Camada_2-2-2-2-2-2" data-name="Camada 2-2-2-2-2"><g id="Camada_1-2-2-2-2-2-2" data-name="Camada 1-2-2-2-2-2"><g id="Camada_2-2-2-2-2-2-2" data-name="Camada 2-2-2-2-2-2"><g id="Camada_1-2-2-2-2-2-2-2" data-name="Camada 1-2-2-2-2-2-2"><g id="Camada_2-2-2-2-2-2-2-2" data-name="Camada 2-2-2-2-2-2-2"><g id="Camada_1-2-2-2-2-2-2-2-2" data-name="Camada 1-2-2-2-2-2-2-2"><g id="Camada_2-2-2-2-2-2-2-2-2" data-name="Camada 2-2-2-2-2-2-2-2"><g id="_02a143c3-6017-4373-a226-06a05c845178" data-name=" 02a143c3-6017-4373-a226-06a05c845178"><ellipse id="Shadow-7" class="cls-2" cx="586.19" cy="398.49" rx="83.31" ry="48.09"/><path class="cls-3" d="M67,234.06s-61.11,36.88,51.58,93.71c0,0,24.83-46.11-2.62-83.69a37,37,0,0,0-48-10.53Z"/><path class="cls-4" d="M67.73,233.33s52.32,40,50.86,94.45"/><path class="cls-3" d="M746.15,203.33c12.38,45.27-40.43,174.23-40.43,174.23S594.6,293.4,582.21,248.17a85,85,0,0,1,162.6-49.61c.1.33.19.65.29,1,.37,1.26.72,2.52,1,3.79Z"/><path class="cls-5" d="M746.15,203.33c12.38,45.27-40.43,174.23-40.43,174.23S594.6,293.4,582.21,248.17a85,85,0,0,1,162.6-49.61c.1.33.19.65.29,1,.37,1.26.72,2.52,1,3.79Z"/><path class="cls-4" d="M642.21,144s69.17,104.42,64,233.77"/><path class="cls-3" d="M763.8,286.07S701.08,252,709,377.9c0,0,52.32-1.87,70.89-44.55A37,37,0,0,0,764.7,286.6Z"/><path class="cls-4" d="M764.83,286.33s-8.1,65.38-55.83,91.6"/><path class="cls-3" d="M16.56,272s-61.14,36.87,51.56,93.66c0,0,24.83-46.1-2.62-83.69a37,37,0,0,0-48-10.51Z"/><path class="cls-4" d="M17.26,271.25s52.32,40,50.86,94.46"/><path class="cls-6" d="M656.09,323.64H600.45a25,25,0,0,0,1.94-9.57V21.5c0-11.88-8.34-21.5-18.62-21.5H153.07c-10.27,0-18.61,9.6-18.62,21.47h0V314.08a23.84,23.84,0,0,0,1.94,9.57H78.78c-2.72,0-4.93,2.55-4.93,5.69h0v4.59c0,17.57,12.34,31.82,27.56,31.82H633.47c15.21,0,27.55-14.25,27.55-31.82h0v-4.59c0-3.14-2.17-5.71-4.89-5.73h0Zm-342.84,18.2-4.8-6.25H426.91l-5.29,6.26Z"/><path class="cls-7" d="M159.86,4.14H576.93c11.13,0,20.15,10.41,20.15,23.26V308.87c0,12.85-9,23.26-20.15,23.26H159.86c-11.12,0-20.14-10.41-20.14-23.26V27.4C139.72,14.55,148.74,4.14,159.86,4.14Z"/><rect class="cls-8" x="149.35" y="51.95" width="437.13" height="267.95"/><ellipse class="cls-8" cx="367.92" cy="28.6" rx="3.85" ry="4.45"/><path class="cls-7" d="M435.41,320.5l-15,17.79H314.51L300.94,320.5H85.31c-2.66,0-4.82,2.49-4.82,5.56v4.44c0,17.17,12.05,31.09,26.92,31.1h520c14.87,0,26.92-13.93,26.93-31.1V326c0-3.07-2.16-5.56-4.81-5.56Z"/><polyline class="cls-9" points="205.2 68.63 205.2 296.55 531.6 296.55"/><rect class="cls-10" x="234.08" y="227.62" width="33.7" height="60.04"/><rect class="cls-11" x="291.85" y="174.25" width="33.7" height="113.41"/><rect class="cls-10" x="349.62" y="206.49" width="33.7" height="81.16"/><rect class="cls-12" x="407.39" y="156.46" width="33.7" height="131.2"/><rect class="cls-3" x="465.17" y="109.76" width="33.7" height="177.89"/><polyline class="cls-9" points="250.45 190.93 309.18 129.78 366.95 187.59 423.76 117.55 481.53 89.75"/><circle class="cls-3" cx="234.02" cy="187.33" r="7.78"/><circle class="cls-3" cx="367.44" cy="182.88" r="7.78"/><circle class="cls-3" cx="435.27" cy="113.96" r="7.78"/><circle class="cls-3" cx="301.84" cy="125.06" r="7.78"/><circle class="cls-3" cx="500.86" cy="86.15" r="7.78"/><path class="cls-5" d="M624.52,70.55s.92,33.12-2.76,45.54"/><path class="cls-13" d="M82.69,82.53s-26.22,54.24-9,118.43,11.75,141-5.42,160"/><circle class="cls-3" cx="82.69" cy="82.54" r="7.23"/><path class="cls-13" d="M71.79,117.4s27.18,4.9,34.41-5"/><path class="cls-13" d="M69.21,133.17s-16.35-18.09-15.45-28.94"/><path class="cls-13" d="M67.82,166.33s14.87,3.91,28.44-25"/><path class="cls-13" d="M71.79,190.4s-37-23.81-32.49-39.17"/><path class="cls-13" d="M77.57,217.66s25.92-23,23.21-45.64"/><path class="cls-13" d="M80.39,233.68s-33-9.22-32-23.68"/><path class="cls-13" d="M82.69,252.77s20.79-19.26,23.5-31"/><path class="cls-13" d="M84.14,285.52S62.81,260.62,61.9,248"/><path class="cls-13" d="M84.14,306.13S108,279.61,109.81,267"/><circle class="cls-3" cx="53.76" cy="106.04" r="7.23"/><circle class="cls-3" cx="45.63" cy="210" r="7.23"/><circle class="cls-3" cx="39.3" cy="151.24" r="7.23"/><circle class="cls-3" cx="106.2" cy="112.37" r="7.23"/><circle class="cls-3" cx="106.2" cy="223.56" r="7.23"/><circle class="cls-3" cx="94.45" cy="141.3" r="7.23"/><circle class="cls-3" cx="108.91" cy="271.47" r="7.23"/><circle class="cls-3" cx="60.09" cy="252.49" r="7.23"/><circle class="cls-3" cx="101.68" cy="172.03" r="7.23"/></g></g></g></g><g id="Coins-2"><path class="cls-3" d="M174.19,380.44A27.81,27.81,0,0,0,164,371c-16.7-9.58-43.76-9.58-60.46,0a27.44,27.44,0,0,0-10.13,9.45h-2.3v8.8h0c.31,6.07,4.46,12.09,12.48,16.73,16.7,9.58,43.76,9.58,60.46,0,8-4.64,12.2-10.66,12.51-16.73h0V380.5Z"/><g class="cls-14"><path d="M174.19,380.44A27.81,27.81,0,0,0,164,371c-16.7-9.58-43.76-9.58-60.46,0a27.44,27.44,0,0,0-10.13,9.45h-2.3v8.8h0c.31,6.07,4.46,12.09,12.48,16.73,16.7,9.58,43.76,9.58,60.46,0,8-4.64,12.2-10.66,12.51-16.73h0V380.5Z"/></g><g class="cls-15"><path d="M133.75,363.79c-10.94,0-21.87,2.41-30.23,7.2a27.23,27.23,0,0,0-10.13,9.46h-2.3v8.79h0c.31,6.07,4.46,12.09,12.48,16.73,8.36,4.79,19.29,7.22,30.23,7.22Z"/></g><g class="cls-15"><path d="M110.41,367.8a41.4,41.4,0,0,0-6.89,3.19,27.16,27.16,0,0,0-10.21,9.41H91v8.79h0c.31,6.08,4.46,12.09,12.48,16.74a49.47,49.47,0,0,0,6.89,3.19Z"/></g><path class="cls-3" d="M157.09,367.8A43.26,43.26,0,0,1,164,371a27.47,27.47,0,0,1,10.21,9.41h2.28v8.79h0c-.3,6.09-4.47,12.09-12.47,16.74a49.89,49.89,0,0,1-6.88,3.19Z"/><path class="cls-3" d="M164,363c-16.7-9.58-43.76-9.58-60.46,0s-16.69,25.26,0,34.91,43.76,9.59,60.46,0S180.66,372.63,164,363Z"/><g class="cls-16"><path d="M164,363c-16.7-9.58-43.76-9.58-60.46,0s-16.69,25.26,0,34.91,43.76,9.59,60.46,0S180.66,372.63,164,363Z"/></g><path class="cls-3" d="M153.44,369.4a48.07,48.07,0,0,0-39.37,0c-5.59,2.85-8.68,6.79-8.68,11.07s3.09,8.18,8.68,11a48.23,48.23,0,0,0,39.37,0c5.59-2.87,8.67-6.8,8.67-11S159,372.24,153.44,369.4Z"/><g class="cls-17"><path d="M153.44,369.4a48.07,48.07,0,0,0-39.37,0c-5.59,2.85-8.68,6.79-8.68,11.07s3.09,8.18,8.68,11a48.23,48.23,0,0,0,39.37,0c5.59-2.87,8.67-6.8,8.67-11S159,372.24,153.44,369.4Z"/></g><path class="cls-3" d="M163.05,364.6c-7.79-4.47-18.21-7-29.3-7s-21.5,2.49-29.28,7c-7.48,4.33-11.6,10-11.6,15.87S97,392,104.47,396.33c7.78,4.48,18.18,7,29.28,7s21.51-2.49,29.3-7c7.47-4.31,11.59-9.95,11.59-15.83S170.52,368.9,163.05,364.6Zm-9.58,26.91a48.15,48.15,0,0,1-39.37,0c-5.59-2.86-8.68-6.79-8.68-11.06s3.09-8.21,8.68-11.07a48.31,48.31,0,0,1,39.37,0c5.59,2.86,8.67,6.81,8.67,11.07s-3.11,8.2-8.7,11.07Z"/><g class="cls-16"><ellipse cx="133.75" cy="380.44" rx="26.89" ry="13.79"/></g><ellipse class="cls-3" cx="133.75" cy="380.44" rx="26.89" ry="13.79"/><g class="cls-18"><ellipse cx="133.75" cy="380.44" rx="26.89" ry="13.79"/></g><path class="cls-3" d="M152.76,374.33c-10.49-5.4-27.52-5.4-38,0-4.35,2.23-6.89,5-7.64,8,.75,2.89,3.29,5.7,7.64,8,10.5,5.39,27.53,5.39,38,0,4.33-2.24,6.87-5,7.63-8C159.63,379.4,157.09,376.59,152.76,374.33Z"/><g class="cls-19"><path d="M152.76,374.33c-10.49-5.4-27.52-5.4-38,0-4.35,2.23-6.89,5-7.64,8,.75,2.89,3.29,5.7,7.64,8,10.5,5.39,27.53,5.39,38,0,4.33-2.24,6.87-5,7.63-8C159.63,379.4,157.09,376.59,152.76,374.33Z"/></g><polygon class="cls-3" points="136.29 370.89 136.29 374.86 134.95 376.26 132.46 378.87 132.46 374.75 136.29 370.89"/><g class="cls-20"><polygon points="136.29 370.89 136.29 374.86 134.95 376.26 132.46 378.87 132.46 374.75 136.29 370.89"/></g><path class="cls-3" d="M132.46,374.9v2.32a23.08,23.08,0,0,1-3.82,1.08,4.3,4.3,0,0,1-1.6,0,5.37,5.37,0,0,1-.78-.33c-.94-.56-1.1-1.41.7-2.45A6.19,6.19,0,0,1,132.46,374.9Z"/><g class="cls-21"><path d="M132.46,374.9v2.32a23.08,23.08,0,0,1-3.82,1.08,4.3,4.3,0,0,1-1.6,0,5.37,5.37,0,0,1-.78-.33c-.94-.56-1.1-1.41.7-2.45A6.19,6.19,0,0,1,132.46,374.9Z"/></g><path class="cls-3" d="M150.3,386v3.41L146,391.9l-3.2-1.84a16.46,16.46,0,0,1-12.35.56v-3.5l2-1.93-2,.54a12.74,12.74,0,0,1-9.58-1.1c-1.94-1.12-2.83-2.33-2.83-3.6v-3.3l.35-1.46-1.18-.68v-3.41L120.4,374a4.85,4.85,0,0,0-2.36,3.66h0c0,1.21.94,2.41,2.83,3.5,4.18,2.41,8.34,1.6,12.16.4,3.53-1.15,6.1-2.51,8.14-1.34,1.27.73.88,1.59-.54,2.44a7.14,7.14,0,0,1-6.07.35l-4.07,4a14.59,14.59,0,0,0,2.25.68,17.1,17.1,0,0,0,10.1-1.22l3.16,1.84Z"/><g class="cls-22"><path d="M118,377.72h0c0,1.21,1,2.41,2.83,3.5,4.19,2.41,8.34,1.6,12.16.4,3.53-1.15,6.1-2.51,8.15-1.34,1.26.73.88,1.59-.54,2.44a7.2,7.2,0,0,1-6.08.35l-4.07,4a14.59,14.59,0,0,0,2.25.68,17.1,17.1,0,0,0,10.1-1.22l3.2,1.8,4.31-2.49v3.49L146,391.81,142.8,390a16.36,16.36,0,0,1-12.35.56v-3.42l2-1.93-2,.54a12.71,12.71,0,0,1-9.59-1.1c-1.93-1.12-2.82-2.33-2.82-3.59v-3.31l.35-1.45"/></g><g class="cls-21"><path d="M117.18,372.22v3.41l1.19.68h0a6.36,6.36,0,0,1,2-2.28Z"/></g><path class="cls-3" d="M149.58,383.74a5.41,5.41,0,0,1-.31,1.6l-2.16-1.25a4.28,4.28,0,0,0,2.44-3.19C149.57,381.78,149.58,383.65,149.58,383.74Z"/><g class="cls-20"><path d="M149.58,383.74a5.41,5.41,0,0,1-.31,1.6l-2.16-1.25a4.28,4.28,0,0,0,2.44-3.19C149.57,381.78,149.58,383.65,149.58,383.74Z"/></g><path class="cls-3" d="M149.58,385.56l-2.46-1.43a4.26,4.26,0,0,0,2.46-3.79V380c-.11-1.18-1-2.33-2.76-3.36h0a11.09,11.09,0,0,0-5.73-1.51h-2a21.8,21.8,0,0,0-2.78.59c-.45.12-.88.23-1.31.37l-1.81.58-.69.24a19.76,19.76,0,0,1-3.82,1.08,3.29,3.29,0,0,1-1.59,0,1.94,1.94,0,0,1-.77-.32c-1-.56-1.12-1.39.69-2.44a6.44,6.44,0,0,1,5.54-.58l3.84-3.86a16.6,16.6,0,0,0-11.57.64l-3.2-1.84-4.34,2.51,3.19,1.84a4.78,4.78,0,0,0-2.36,3.67h0c0,1.21.94,2.42,2.83,3.5,4.2,2.43,8.35,1.61,12.15.4,3.54-1.17,6.11-2.53,8.15-1.34,1.27.74.88,1.59-.54,2.44a6.93,6.93,0,0,1-6.07.36l-4.08,4a14.64,14.64,0,0,0,2.26.66,15.23,15.23,0,0,0,3.93.28,18.43,18.43,0,0,0,6.15-1.5l3.19,1.84,4.32-2.49Z"/><polygon class="cls-3" points="142.81 386.62 142.81 390.01 145.99 391.83 145.99 388.44 142.81 386.62"/><g class="cls-21"><polygon points="142.81 386.62 142.81 390.01 145.99 391.83 145.99 388.44 142.81 386.62"/></g><polygon class="cls-1" points="117.18 372.21 121.53 369.69 124.72 371.55 121.56 370.23 117.18 372.21"/><path class="cls-1" d="M127,375.33a6.3,6.3,0,0,1,5.54-.58l3.83-3.87-3.83,3.52A5.71,5.71,0,0,0,127,375.33Z"/><path class="cls-1" d="M130.46,387.18a18.76,18.76,0,0,0,2.25.65,17.23,17.23,0,0,0,3.93.29,14.6,14.6,0,0,1-5.54-1.1l3.43-3.9Z"/><polygon class="cls-1" points="142.81 386.62 145.99 388.04 150.3 385.95 145.99 388.44 142.81 386.62"/><path class="cls-1" d="M104.78,365.27c11.32-6.87,29-7.55,29-7.55-11.1,0-21.5,2.49-29.28,7-7.48,4.33-11.6,10-11.6,15.87C92.87,380.47,93.28,372.19,104.78,365.27Z"/><path class="cls-1" d="M130.46,405.06c12,.54,24.33-1.84,33.55-7.15,9.59-5.52,13.63-13,12.26-20.19,0,0,1.79,11.73-13,19.73S130.46,405.06,130.46,405.06Z"/><path class="cls-3" d="M171.25,368.1A27.43,27.43,0,0,0,161,358.66c-16.7-9.59-43.74-9.59-60.44,0a27.09,27.09,0,0,0-10.21,9.44H88.07v8.74h0c.31,6.07,4.46,12.1,12.5,16.73,16.69,9.59,43.74,9.59,60.44,0,8-4.63,12.22-10.66,12.52-16.73h0V368.1Z"/><g class="cls-14"><path d="M171.25,368.1A27.43,27.43,0,0,0,161,358.66c-16.7-9.59-43.74-9.59-60.44,0a27.09,27.09,0,0,0-10.21,9.44H88.07v8.74h0c.31,6.07,4.46,12.1,12.5,16.73,16.69,9.59,43.74,9.59,60.44,0,8-4.63,12.22-10.66,12.52-16.73h0V368.1Z"/></g><g class="cls-15"><path d="M130.83,351.4c-11,0-21.89,2.43-30.23,7.22a27.34,27.34,0,0,0-10.21,9.45H88.07v8.73h0c.31,6.08,4.46,12.12,12.5,16.73,8.34,4.8,19.28,7.22,30.23,7.22Z"/></g><g class="cls-15"><path d="M107.47,355.44a43.27,43.27,0,0,0-6.87,3.19,27.37,27.37,0,0,0-10.21,9.46H88.07v8.73h0c.31,6.08,4.46,12.1,12.5,16.73a46.61,46.61,0,0,0,6.87,3.2Z"/></g><path class="cls-3" d="M154.11,355.44a46,46,0,0,1,6.87,3.19,27.85,27.85,0,0,1,10.21,9.46h2.31v8.73h0c-.3,6.08-4.5,12.08-12.5,16.73a50.37,50.37,0,0,1-6.87,3.2Z"/><path class="cls-3" d="M161,350.65c-16.7-9.58-43.74-9.58-60.44,0s-16.7,25.28,0,34.91,43.74,9.59,60.44,0S177.74,360.33,161,350.65Z"/><g class="cls-16"><path d="M161,350.65c-16.7-9.58-43.74-9.58-60.44,0s-16.7,25.28,0,34.91,43.74,9.59,60.44,0S177.74,360.33,161,350.65Z"/></g><path class="cls-3" d="M150.5,357.05a48.13,48.13,0,0,0-39.36,0c-5.6,2.85-8.67,6.79-8.67,11.07s3.07,8.19,8.67,11a48.29,48.29,0,0,0,39.36,0c5.59-2.86,8.67-6.79,8.67-11S156.09,359.9,150.5,357.05Z"/><g class="cls-17"><path d="M150.5,357.05a48.13,48.13,0,0,0-39.36,0c-5.6,2.85-8.67,6.79-8.67,11.07s3.07,8.19,8.67,11a48.29,48.29,0,0,0,39.36,0c5.59-2.86,8.67-6.79,8.67-11S156.09,359.9,150.5,357.05Z"/></g><path class="cls-3" d="M160.11,352.27c-7.79-4.49-18.19-7-29.3-7s-21.44,2.41-29.28,7c-7.48,4.32-11.59,9.94-11.59,15.85s4.11,11.51,11.59,15.82c7.79,4.49,18.19,7,29.28,7s21.51-2.48,29.3-7c7.48-4.31,11.59-9.94,11.59-15.82S167.59,356.6,160.11,352.27Zm-9.58,26.89a48.11,48.11,0,0,1-39.35,0c-5.61-2.85-8.68-6.79-8.68-11s3.07-8.2,8.68-11.07a48.18,48.18,0,0,1,39.35,0c5.59,2.86,8.67,6.8,8.67,11.07s-3.11,8.2-8.7,11Z"/><g class="cls-16"><path d="M149.82,377.9c10.5-5.38,10.5-14.12,0-19.5s-27.51-5.4-38,0-10.49,14.12,0,19.5S139.33,383.25,149.82,377.9Z"/></g><path class="cls-3" d="M149.82,377.9c10.5-5.38,10.5-14.12,0-19.5s-27.51-5.4-38,0-10.49,14.12,0,19.5S139.33,383.25,149.82,377.9Z"/><g class="cls-18"><path d="M149.82,377.9c10.5-5.38,10.5-14.12,0-19.5s-27.51-5.4-38,0-10.49,14.12,0,19.5S139.33,383.25,149.82,377.9Z"/></g><path class="cls-3" d="M149.82,362.08c-10.49-5.4-27.51-5.4-38,0-4.34,2.22-6.88,5-7.63,8,.75,2.89,3.29,5.7,7.63,8,10.5,5.38,27.52,5.38,38,0,4.35-2.24,6.89-5,7.64-8C156.71,367,154.11,364.22,149.82,362.08Z"/><g class="cls-19"><path d="M149.82,362.08c-10.49-5.4-27.51-5.4-38,0-4.34,2.22-6.88,5-7.63,8,.75,2.89,3.29,5.7,7.63,8,10.5,5.38,27.52,5.38,38,0,4.35-2.24,6.89-5,7.64-8C156.71,367,154.11,364.22,149.82,362.08Z"/></g><polygon class="cls-3" points="133.37 358.56 133.37 362.49 132.03 363.9 129.53 366.54 129.53 362.4 133.37 358.56"/><g class="cls-20"><polygon points="133.37 358.56 133.37 362.49 132.03 363.9 129.53 366.54 129.53 362.4 133.37 358.56"/></g><path class="cls-3" d="M129.53,362.4v2.32a23.47,23.47,0,0,1-3.83,1.08,4.3,4.3,0,0,1-1.6,0,2.7,2.7,0,0,1-.78-.33c-.94-.57-1.1-1.42.7-2.45A6.34,6.34,0,0,1,129.53,362.4Z"/><g class="cls-21"><path d="M129.53,362.4v2.32a23.47,23.47,0,0,1-3.83,1.08,4.3,4.3,0,0,1-1.6,0,2.7,2.7,0,0,1-.78-.33c-.94-.57-1.1-1.42.7-2.45A6.34,6.34,0,0,1,129.53,362.4Z"/></g><path class="cls-3" d="M147.38,373.63V377l-4.31,2.48-3.2-1.84a16.36,16.36,0,0,1-12.35.56v-3.3l2-2-2,.55a12.67,12.67,0,0,1-9.59-1.11c-1.93-1.13-2.82-2.32-2.81-3.58v-3.33l.34-1.45-1.17-.68v-3.4l3.2,1.87a4.66,4.66,0,0,0-2.35,3.63h0c0,1.23.92,2.42,2.81,3.51,4.2,2.41,8.36,1.6,12.16.4,3.55-1.15,6.12-2.52,8.16-1.34,1.27.72.88,1.6-.54,2.46a7.33,7.33,0,0,1-6.09.35l-4.12,4.12a15.91,15.91,0,0,0,12.35-.56l3.2,1.84Z"/><g class="cls-22"><path d="M115.09,365.33h0c0,1.2.93,2.41,2.81,3.5,4.2,2.41,8.36,1.6,12.16.39,3.55-1.14,6.12-2.53,8.17-1.34,1.26.71.87,1.59-.55,2.46a7.25,7.25,0,0,1-6.09.35l-4.07,4.17a15.91,15.91,0,0,0,12.35-.56l3.2,1.83,4.31-2.48v3.4l-4.31,2.48-3.2-1.84a16.18,16.18,0,0,1-12.35.56v-3.39l2-2-2,.54a12.62,12.62,0,0,1-9.59-1.1c-1.93-1.13-2.82-2.32-2.81-3.59V365.4l.34-1.46"/></g><g class="cls-21"><path d="M114.26,359.9v3.43l1.17.67h0a6.48,6.48,0,0,1,2-2.26Z"/></g><path class="cls-3" d="M146.66,371.4a4.61,4.61,0,0,1-.32,1.6l-2.16-1.25a4.34,4.34,0,0,0,2.45-3.27C146.65,369.4,146.66,371.33,146.66,371.4Z"/><g class="cls-20"><path d="M146.66,371.4a4.61,4.61,0,0,1-.32,1.6l-2.16-1.25a4.34,4.34,0,0,0,2.45-3.27C146.65,369.4,146.66,371.33,146.66,371.4Z"/></g><path class="cls-3" d="M146.66,373.25l-2.48-1.44a4.27,4.27,0,0,0,2.48-3.78.86.86,0,0,0,0-.32,4.69,4.69,0,0,0-2.75-3.35h0a11.31,11.31,0,0,0-5.73-1.5h-2a23.89,23.89,0,0,0-2.8.55c-.43.11-.88.24-1.29.39l-1.81.57-.69.24a17.52,17.52,0,0,1-3.82,1.08,3.29,3.29,0,0,1-1.59,0,2.46,2.46,0,0,1-.79-.31c-1-.55-1.1-1.39.71-2.45a6.37,6.37,0,0,1,5.54-.57l3.84-3.87a16.48,16.48,0,0,0-11.57.64l-3.2-1.84-4.34,2.51,3.19,1.84a5,5,0,0,0-2.38,3.67h0q0,1.86,2.83,3.5c4.2,2.43,8.36,1.6,12.16.4,3.55-1.17,6.12-2.51,8.15-1.34,1.28.74.89,1.6-.53,2.44a6.9,6.9,0,0,1-6.07.35l-4.2,4.24a15.68,15.68,0,0,0,2.25.65,15.23,15.23,0,0,0,3.93.29,19.11,19.11,0,0,0,6.17-1.5l3.2,1.85,4.29-2.49Z"/><polygon class="cls-3" points="139.87 374.26 139.87 377.65 143.07 379.49 143.07 376.08 139.87 374.26"/><g class="cls-21"><polygon points="139.87 374.26 139.87 377.65 143.07 379.49 143.07 376.08 139.87 374.26"/></g><polygon class="cls-1" points="114.26 359.87 118.61 357.36 121.8 359.19 118.64 357.88 114.26 359.87"/><path class="cls-1" d="M124,363a6.37,6.37,0,0,1,5.54-.57l3.84-3.87L129.54,362A5.72,5.72,0,0,0,124,363Z"/><path class="cls-1" d="M127.52,374.9a15.68,15.68,0,0,0,2.25.65,15.23,15.23,0,0,0,3.93.29,14.6,14.6,0,0,1-5.54-1.1l3.45-3.9Z"/><polygon class="cls-1" points="139.87 374.26 143.07 375.69 147.36 373.63 143.07 376.08 139.87 374.26"/><path class="cls-1" d="M101.86,352.84c11.31-6.87,29-7.57,29-7.57-11.09,0-21.49,2.48-29.28,7C94.1,356.6,90,362.21,90,368.13,89.94,368.12,90.34,359.84,101.86,352.84Z"/><path class="cls-1" d="M127.52,392.72c12,.53,24.33-1.85,33.55-7.16,9.59-5.51,13.65-13,12.26-20.18,0,0,1.79,11.7-13,19.74S127.52,392.72,127.52,392.72Z"/><path class="cls-3" d="M177.37,356.15a27.55,27.55,0,0,0-10.21-9.44c-16.7-9.59-43.76-9.59-60.44,0a27.22,27.22,0,0,0-10.23,9.44h-2.3v8.75h0c.31,6.07,4.46,12.09,12.5,16.73,16.68,9.58,43.74,9.58,60.44,0,8-4.64,12.2-10.66,12.51-16.73h0v-8.74Z"/><g class="cls-14"><path d="M177.37,356.15a27.55,27.55,0,0,0-10.21-9.44c-16.7-9.59-43.76-9.59-60.44,0a27.22,27.22,0,0,0-10.23,9.44h-2.3v8.75h0c.31,6.07,4.46,12.09,12.5,16.73,16.68,9.58,43.74,9.58,60.44,0,8-4.64,12.2-10.66,12.51-16.73h0v-8.74Z"/></g><g class="cls-15"><path d="M136.93,339.49c-10.93,0-21.87,2.41-30.21,7.22a27.22,27.22,0,0,0-10.23,9.44h-2.3v8.75h0c.31,6.07,4.46,12.09,12.5,16.73,8.31,4.77,19.31,7.22,30.21,7.22Z"/></g><g class="cls-15"><path d="M113.59,343.47a45.21,45.21,0,0,0-6.87,3.21,27.48,27.48,0,0,0-10.23,9.45h-2.3v8.77h0c.31,6.06,4.46,12.1,12.5,16.73a46.61,46.61,0,0,0,6.87,3.2Z"/></g><path class="cls-3" d="M160.27,343.47a49,49,0,0,1,6.89,3.21,27.74,27.74,0,0,1,10.21,9.45h2.3v8.77h0c-.3,6.06-4.49,12.1-12.51,16.73a50.61,50.61,0,0,1-6.89,3.2Z"/><path class="cls-3" d="M167.16,338.69c-16.7-9.59-43.76-9.59-60.44,0s-16.7,25.29,0,34.92,43.74,9.59,60.44,0S183.86,348.33,167.16,338.69Z"/><g class="cls-16"><path d="M167.16,338.69c-16.7-9.59-43.76-9.59-60.44,0s-16.7,25.29,0,34.92,43.74,9.59,60.44,0S183.86,348.33,167.16,338.69Z"/></g><path class="cls-3" d="M156.61,345.08a48.29,48.29,0,0,0-39.36,0c-5.59,2.86-8.68,6.82-8.68,11.07s3.09,8.2,8.68,11.07a48.29,48.29,0,0,0,39.36,0c5.6-2.87,8.68-6.79,8.68-11.07S162.21,348,156.61,345.08Z"/><g class="cls-17"><path d="M156.61,345.08a48.29,48.29,0,0,0-39.36,0c-5.59,2.86-8.68,6.82-8.68,11.07s3.09,8.2,8.68,11.07a48.29,48.29,0,0,0,39.36,0c5.6-2.87,8.68-6.79,8.68-11.07S162.21,348,156.61,345.08Z"/></g><path class="cls-3" d="M166.23,340.33c-7.79-4.49-18.19-7-29.3-7s-21.49,2.48-29.29,7c-7.47,4.3-11.58,9.92-11.58,15.85s4.11,11.51,11.58,15.82c7.8,4.49,18.2,7,29.29,7s21.51-2.48,29.3-7c7.46-4.31,11.59-9.94,11.59-15.82S173.69,344.63,166.23,340.33Zm-9.58,26.89a48.15,48.15,0,0,1-39.37,0c-5.59-2.86-8.68-6.79-8.68-11.07s3.09-8.2,8.68-11.07a48.39,48.39,0,0,1,39.37,0c5.59,2.87,8.67,6.82,8.67,11.07s-3.19,8.21-8.71,11.07Z"/><g class="cls-16"><ellipse cx="136.93" cy="356.16" rx="26.89" ry="13.79"/></g><ellipse class="cls-3" cx="136.93" cy="356.16" rx="26.89" ry="13.79"/><g class="cls-18"><ellipse cx="136.93" cy="356.16" rx="26.89" ry="13.79"/></g><path class="cls-3" d="M155.94,350.06c-10.49-5.38-27.52-5.4-38,0-4.33,2.22-6.87,5-7.62,8,.75,2.89,3.29,5.71,7.62,8,10.51,5.38,27.53,5.38,38,0,4.35-2.24,6.89-5,7.64-8C162.83,355.06,160.29,352.27,155.94,350.06Z"/><g class="cls-19"><path d="M155.94,350.06c-10.49-5.38-27.52-5.4-38,0-4.33,2.22-6.87,5-7.62,8,.75,2.89,3.29,5.71,7.62,8,10.51,5.38,27.53,5.38,38,0,4.35-2.24,6.89-5,7.64-8C162.83,355.06,160.29,352.27,155.94,350.06Z"/></g><polygon class="cls-3" points="139.49 346.6 139.49 350.56 138.13 351.98 135.64 354.58 135.64 350.48 139.49 346.6"/><g class="cls-20"><polygon points="139.49 346.6 139.49 350.56 138.13 351.98 135.64 354.58 135.64 350.48 139.49 346.6"/></g><path class="cls-3" d="M135.65,350.47v2.33a23.5,23.5,0,0,1-3.83,1.09,4.77,4.77,0,0,1-1.6,0,3,3,0,0,1-.78-.34c-1-.56-1.1-1.42.7-2.46A6.41,6.41,0,0,1,135.65,350.47Z"/><g class="cls-21"><path d="M135.65,350.47v2.33a23.5,23.5,0,0,1-3.83,1.09,4.77,4.77,0,0,1-1.6,0,3,3,0,0,1-.78-.34c-1-.56-1.1-1.42.7-2.46A6.41,6.41,0,0,1,135.65,350.47Z"/></g><path class="cls-3" d="M153.48,361.68v3.4l-4.29,2.45-3.2-1.82a16.36,16.36,0,0,1-12.35.56V362.9l2-2-2,.51a12.49,12.49,0,0,1-9.59-1.1c-1.93-1.12-2.82-2.31-2.82-3.59V353.4l.35-1.46-1.19-.68v-3.4l3.2,1.86a4.73,4.73,0,0,0-2.36,3.64h0c0,1.21.94,2.41,2.82,3.5,4.21,2.41,8.36,1.6,12.16.4,3.53-1.15,6.12-2.51,8.15-1.35,1.28.74.9,1.6-.53,2.47a7.31,7.31,0,0,1-6.08.35l-4.08,4a18.76,18.76,0,0,0,2.25.65,17,17,0,0,0,10.1-1.21l3.2,1.84Z"/><g class="cls-22"><path d="M121.19,353.4h0c0,1.21,1,2.41,2.83,3.5,4.2,2.41,8.36,1.6,12.16.4,3.53-1.15,6.12-2.52,8.15-1.36,1.28.74.89,1.61-.53,2.47a7.29,7.29,0,0,1-6.09.36l-4.07,4a16.11,16.11,0,0,0,12.36-.55l3.2,1.84,4.29-2.48V365l-4.29,2.48-3.2-1.84a16.27,16.27,0,0,1-12.35.56v-3.4l2-1.95-2,.54a12.62,12.62,0,0,1-9.59-1.1c-1.93-1.12-2.82-2.33-2.82-3.59v-3.2l.35-1.45"/></g><g class="cls-21"><path d="M120.36,347.9v3.43l1.19.67h0a6.27,6.27,0,0,1,2-2.25Z"/></g><path class="cls-3" d="M152.78,359.4a4.61,4.61,0,0,1-.32,1.6l-2.17-1.25a4.29,4.29,0,0,0,2.46-3.27C152.76,357.49,152.78,359.33,152.78,359.4Z"/><g class="cls-20"><path d="M152.78,359.4a4.61,4.61,0,0,1-.32,1.6l-2.17-1.25a4.29,4.29,0,0,0,2.46-3.27C152.76,357.49,152.78,359.33,152.78,359.4Z"/></g><path class="cls-3" d="M152.76,361.25l-2.46-1.42a4.28,4.28,0,0,0,2.46-3.8.86.86,0,0,0,0-.32c-.11-1.18-1-2.32-2.76-3.35h0a11.15,11.15,0,0,0-5.74-1.5h-2a23.56,23.56,0,0,0-2.78.55c-.45.14-.88.24-1.31.39s-1.23.39-1.81.6l-.67.22a20.51,20.51,0,0,1-3.84,1.09,3.87,3.87,0,0,1-1.59,0,3.09,3.09,0,0,1-.77-.33c-1-.54-1.1-1.39.7-2.45a6.39,6.39,0,0,1,5.55-.57l3.83-3.87a16.6,16.6,0,0,0-11.57.64l-3.19-1.8-4.36,2.51,3.19,1.84a5,5,0,0,0-2.36,3.67h0c0,1.23.94,2.42,2.83,3.5,4.2,2.43,8.35,1.6,12.15.4,3.53-1.15,6.11-2.51,8.15-1.34,1.28.73.9,1.6-.52,2.44a6.94,6.94,0,0,1-6.09.35l-4.08,4.06a16,16,0,0,0,2.28.64,14.4,14.4,0,0,0,3.93.29,18.26,18.26,0,0,0,6.16-1.51l3.2,1.85,4.3-2.5Z"/><polygon class="cls-3" points="145.99 362.3 145.99 365.7 149.19 367.56 149.19 364.14 145.99 362.3"/><g class="cls-21"><polygon points="145.99 362.3 145.99 365.7 149.19 367.56 149.19 364.14 145.99 362.3"/></g><polygon class="cls-1" points="120.36 347.9 124.72 345.39 127.9 347.23 124.74 345.9 120.36 347.9"/><path class="cls-1" d="M130.14,351.05a6.37,6.37,0,0,1,5.54-.58l3.84-3.86-3.84,3.47A5.75,5.75,0,0,0,130.14,351.05Z"/><path class="cls-1" d="M133.64,362.9a18.76,18.76,0,0,0,2.25.65,13.64,13.64,0,0,0,3.93.26,13.5,13.5,0,0,1-5.54-1.1l3.43-3.9Z"/><polygon class="cls-1" points="145.99 362.3 149.19 363.75 153.48 361.68 149.19 364.14 145.99 362.3"/><path class="cls-1" d="M108,340.9c11.33-6.87,29-7.55,29-7.55-11.09,0-21.49,2.49-29.29,7-7.47,4.31-11.58,9.93-11.58,15.85C96.06,356.16,96.46,347.9,108,340.9Z"/><path class="cls-1" d="M133.64,380.77c12,.53,24.33-1.86,33.55-7.16,9.59-5.52,13.65-13,12.26-20.2,0,0,1.79,11.71-13,19.75S133.64,380.77,133.64,380.77Z"/><path class="cls-3" d="M173.28,344.07a27.55,27.55,0,0,0-10.21-9.44c-16.7-9.59-43.76-9.59-60.46,0a27.09,27.09,0,0,0-10.21,9.44H90.1v8.73h0c.31,6,4.46,12.09,12.48,16.72,16.7,9.59,43.76,9.59,60.46,0,8-4.63,12.2-10.67,12.51-16.72h0v-8.73Z"/><g class="cls-14"><path d="M173.28,344.07a27.55,27.55,0,0,0-10.21-9.44c-16.7-9.59-43.76-9.59-60.46,0a27.09,27.09,0,0,0-10.21,9.44H90.1v8.73h0c.31,6,4.46,12.09,12.48,16.72,16.7,9.59,43.76,9.59,60.46,0,8-4.63,12.2-10.67,12.51-16.72h0v-8.73Z"/></g><g class="cls-15"><path d="M132.76,327.4c-10.94,0-21.87,2.41-30.23,7.23a27.34,27.34,0,0,0-10.21,9.45H90v8.73h0c.31,6,4.46,12.09,12.48,16.72,8.36,4.8,19.28,7.21,30.23,7.21Z"/></g><g class="cls-15"><path d="M109.37,331.4a44.43,44.43,0,0,0-6.89,3.2A27.21,27.21,0,0,0,92.27,344H90v8.72h0c.31,6.07,4.46,12.1,12.48,16.73a52.53,52.53,0,0,0,6.89,3.2Z"/></g><path class="cls-3" d="M156.1,331.4a47.32,47.32,0,0,1,6.89,3.2A27.6,27.6,0,0,1,173.2,344h2.3v8.72h0c-.3,6.07-4.49,12.1-12.51,16.73a57.33,57.33,0,0,1-6.89,3.2Z"/><path class="cls-3" d="M163,326.62c-16.7-9.58-43.76-9.58-60.46,0s-16.69,25.25,0,34.88,43.76,9.59,60.46,0S179.67,336.24,163,326.62Z"/><g class="cls-16"><path d="M163,326.62c-16.7-9.58-43.76-9.58-60.46,0s-16.69,25.25,0,34.88,43.76,9.59,60.46,0S179.67,336.24,163,326.62Z"/></g><path class="cls-3" d="M152.51,333a48.31,48.31,0,0,0-39.37,0c-5.59,2.88-8.67,6.81-8.67,11.07s3.08,8.2,8.67,11.06a48.15,48.15,0,0,0,39.37,0c5.59-2.86,8.67-6.79,8.67-11.06S158,335.9,152.51,333Z"/><g class="cls-17"><path d="M152.51,333a48.31,48.31,0,0,0-39.37,0c-5.59,2.88-8.67,6.81-8.67,11.07s3.08,8.2,8.67,11.06a48.15,48.15,0,0,0,39.37,0c5.59-2.86,8.67-6.79,8.67-11.06S158,335.9,152.51,333Z"/></g><path class="cls-3" d="M162.1,328.24c-7.8-4.52-18.22-7-29.31-7s-21.49,2.47-29.28,7c-7.48,4.31-11.6,9.92-11.6,15.82s4.09,11.52,11.6,15.83c7.79,4.49,18.18,7,29.28,7s21.51-2.48,29.31-7c7.46-4.33,11.58-9.95,11.58-15.85S169.52,332.55,162.1,328.24Zm-9.59,26.87a48.07,48.07,0,0,1-39.37,0c-5.59-2.86-8.67-6.8-8.67-11s3.08-8.21,8.67-11.08a48.47,48.47,0,0,1,39.37,0c5.59,2.88,8.67,6.83,8.67,11.08s-3.18,8.22-8.67,11.07Z"/><g class="cls-16"><ellipse cx="132.76" cy="344.07" rx="26.89" ry="13.79"/></g><ellipse class="cls-3" cx="132.76" cy="344.07" rx="26.89" ry="13.79"/><g class="cls-18"><ellipse cx="132.76" cy="344.07" rx="26.89" ry="13.79"/></g><path class="cls-3" d="M151.77,338c-10.49-5.39-27.52-5.39-38,0-4.35,2.22-6.89,5-7.64,8,.75,2.9,3.29,5.7,7.64,8,10.5,5.4,27.53,5.4,38,0,4.33-2.24,6.87-5,7.62-8C158.64,343,156.1,340.19,151.77,338Z"/><g class="cls-19"><path d="M151.77,338c-10.49-5.39-27.52-5.39-38,0-4.35,2.22-6.89,5-7.64,8,.75,2.9,3.29,5.7,7.64,8,10.5,5.4,27.53,5.4,38,0,4.33-2.24,6.87-5,7.62-8C158.64,343,156.1,340.19,151.77,338Z"/></g><polygon class="cls-3" points="135.3 334.51 135.3 338.44 133.96 339.88 131.47 342.49 131.47 338.39 135.3 334.51"/><g class="cls-20"><polygon points="135.3 334.51 135.3 338.44 133.96 339.88 131.47 342.49 131.47 338.39 135.3 334.51"/></g><path class="cls-3" d="M131.47,338.4v2.34a27.11,27.11,0,0,1-3.82,1.07,3.92,3.92,0,0,1-1.6,0,3,3,0,0,1-.78-.32c-.94-.56-1.1-1.41.7-2.46A6.42,6.42,0,0,1,131.47,338.4Z"/><g class="cls-21"><path d="M131.47,338.4v2.34a27.11,27.11,0,0,1-3.82,1.07,3.92,3.92,0,0,1-1.6,0,3,3,0,0,1-.78-.32c-.94-.56-1.1-1.41.7-2.46A6.42,6.42,0,0,1,131.47,338.4Z"/></g><path class="cls-3" d="M149.31,349.58V353L145,355.47l-3.2-1.85a16.36,16.36,0,0,1-12.35.56v-3.41l2-1.95-2,.55a12.56,12.56,0,0,1-9.58-1.11c-1.94-1.11-2.83-2.33-2.83-3.59v-3.35l.35-1.46-1.18-.68v-3.42l3.19,1.85a4.86,4.86,0,0,0-2.4,3.71h0c0,1.23.94,2.43,2.83,3.5,4.18,2.43,8.34,1.59,12.16.4,3.53-1.15,6.1-2.51,8.14-1.31,1.27.73.88,1.59-.54,2.44a7.07,7.07,0,0,1-6.07.35l-4.07,4a12.38,12.38,0,0,0,2.25.66,16.87,16.87,0,0,0,10.1-1.21L145,352Z"/><g class="cls-22"><path d="M117,341.33h0c0,1.23,1,2.41,2.83,3.5,4.19,2.42,8.34,1.58,12.16.39,3.53-1.14,6.1-2.51,8.15-1.32,1.26.73.88,1.6-.54,2.44a7.09,7.09,0,0,1-6.08.35l-4.07,4a14.49,14.49,0,0,0,2.25.65,16.87,16.87,0,0,0,10.1-1.21L145,352l4.31-2.49v3.42L145,355.4l-3.2-1.86a16.36,16.36,0,0,1-12.35.56v-3.39l2-1.94-2,.54a12.77,12.77,0,0,1-9.59-1.1c-1.93-1.12-2.82-2.34-2.82-3.6v-3.3l.35-1.46"/></g><g class="cls-21"><path d="M116.19,335.83v3.42l1.18.67h0a6.36,6.36,0,0,1,2-2.25Z"/></g><path class="cls-3" d="M148.59,347.33a3.53,3.53,0,0,1-.32,1.6l-2.15-1.27a4.28,4.28,0,0,0,2.44-3.2C148.58,345.4,148.59,347.27,148.59,347.33Z"/><g class="cls-20"><path d="M148.59,347.33a3.53,3.53,0,0,1-.32,1.6l-2.15-1.27a4.28,4.28,0,0,0,2.44-3.2C148.58,345.4,148.59,347.27,148.59,347.33Z"/></g><path class="cls-3" d="M148.59,349.16l-2.47-1.47a4.3,4.3,0,0,0,2.46-3.76v-.34a4.73,4.73,0,0,0-2.77-3.34h0a11.21,11.21,0,0,0-5.73-1.48h-2a17.58,17.58,0,0,0-2.78.57,9.44,9.44,0,0,0-1.31.39l-1.81.59-.68.24a27.11,27.11,0,0,1-3.82,1.07,3.92,3.92,0,0,1-1.6,0,3,3,0,0,1-.78-.32c-1-.56-1.12-1.41.68-2.45a6.39,6.39,0,0,1,5.55-.59l3.83-3.86a16.4,16.4,0,0,0-11.56.65l-3.3-1.73-4.34,2.51,3.19,1.82a4.79,4.79,0,0,0-2.35,3.67h0c0,1.23.94,2.41,2.83,3.5,4.2,2.42,8.35,1.58,12.16.39,3.53-1.14,6.1-2.51,8.14-1.35,1.27.76.88,1.6-.54,2.46a7,7,0,0,1-6.07.36l-4.07,4a15.68,15.68,0,0,0,2.25.65,14.4,14.4,0,0,0,3.93.29,18,18,0,0,0,6.15-1.5L145,352l4.31-2.49Z"/><polygon class="cls-3" points="141.82 350.2 141.82 353.61 145 355.48 145 352.07 141.82 350.2"/><g class="cls-21"><polygon points="141.82 350.2 141.82 353.61 145 355.48 145 352.07 141.82 350.2"/></g><polygon class="cls-1" points="116.19 335.82 120.54 333.31 123.73 335.13 120.57 333.82 116.19 335.82"/><path class="cls-1" d="M125.92,339a6.39,6.39,0,0,1,5.55-.6l3.83-3.85L131.47,338A5.8,5.8,0,0,0,125.92,339Z"/><path class="cls-1" d="M129.47,350.78a17.11,17.11,0,0,0,2.25.66,15.23,15.23,0,0,0,3.93.28,14.23,14.23,0,0,1-5.54-1.1l3.43-3.88Z"/><polygon class="cls-1" points="141.82 350.2 145 351.65 149.31 349.57 145 352.07 141.82 350.2"/><path class="cls-1" d="M103.79,328.81c11.32-6.88,29-7.55,29-7.55-11.1,0-21.49,2.47-29.29,7-7.47,4.31-11.59,9.92-11.59,15.83C91.88,344.07,92.29,335.8,103.79,328.81Z"/><path class="cls-1" d="M129.47,368.68c12,.51,24.33-1.86,33.55-7.18,9.59-5.51,13.63-13,12.26-20.18,0,0,1.79,11.73-13,19.75S129.47,368.68,129.47,368.68Z"/></g><g id="Coins-3"><path class="cls-3" d="M244.94,423.13a27.74,27.74,0,0,0-10.21-9.45c-16.7-9.58-43.76-9.58-60.46,0a27.12,27.12,0,0,0-10.21,9.45h-2.3v8.77h0c.3,6.07,4.46,12.1,12.48,16.73,16.69,9.58,43.76,9.58,60.46,0,8-4.63,12.2-10.66,12.51-16.73h0v-8.72Z"/><g class="cls-14"><path d="M244.94,423.13a27.74,27.74,0,0,0-10.21-9.45c-16.7-9.58-43.76-9.58-60.46,0a27.12,27.12,0,0,0-10.21,9.45h-2.3v8.77h0c.3,6.07,4.46,12.1,12.48,16.73,16.69,9.58,43.76,9.58,60.46,0,8-4.63,12.2-10.66,12.51-16.73h0v-8.72Z"/></g><g class="cls-15"><path d="M204.5,406.44c-10.93,0-21.87,2.42-30.23,7.24a27.12,27.12,0,0,0-10.21,9.45h-2.3v8.77h0c.3,6.07,4.46,12.1,12.48,16.73,8.35,4.79,19.3,7.22,30.23,7.22Z"/></g><g class="cls-15"><path d="M181.16,410.46a41.4,41.4,0,0,0-6.89,3.19,27.09,27.09,0,0,0-10.21,9.44h-2.3v8.71h0c.3,6.07,4.46,12.1,12.48,16.73a46.73,46.73,0,0,0,6.88,3.2Z"/></g><path class="cls-3" d="M227.84,410.46a43.89,43.89,0,0,1,6.89,3.19,27.55,27.55,0,0,1,10.21,9.44h2.3v8.71h0c-.31,6.07-4.49,12.1-12.51,16.73a50.61,50.61,0,0,1-6.89,3.2Z"/><path class="cls-3" d="M234.73,405.68c-16.7-9.59-43.76-9.59-60.46,0s-16.68,25.26,0,34.88,43.76,9.59,60.46,0S251.42,415.33,234.73,405.68Z"/><g class="cls-16"><path d="M234.73,405.68c-16.7-9.59-43.76-9.59-60.46,0s-16.68,25.26,0,34.88,43.76,9.59,60.46,0S251.42,415.33,234.73,405.68Z"/></g><path class="cls-3" d="M224.18,412.05a48.31,48.31,0,0,0-39.37,0c-5.59,2.85-8.67,6.81-8.67,11.06s3.08,8.2,8.67,11.07a48.15,48.15,0,0,0,39.37,0c5.59-2.87,8.68-6.8,8.68-11.07S229.77,414.9,224.18,412.05Z"/><g class="cls-17"><path d="M224.18,412.05a48.31,48.31,0,0,0-39.37,0c-5.59,2.85-8.67,6.81-8.67,11.06s3.08,8.2,8.67,11.07a48.15,48.15,0,0,0,39.37,0c5.59-2.87,8.68-6.8,8.68-11.07S229.77,414.9,224.18,412.05Z"/></g><path class="cls-3" d="M233.8,407.33c-7.8-4.5-18.21-7-29.3-7s-21.49,2.48-29.29,7c-7.47,4.32-11.58,9.92-11.58,15.83s4.11,11.52,11.58,15.83c7.8,4.51,18.2,7,29.29,7s21.5-2.47,29.3-7c7.46-4.31,11.58-9.94,11.58-15.83S241.26,411.61,233.8,407.33Zm-9.59,26.89a48.21,48.21,0,0,1-39.36,0c-5.6-2.87-8.68-6.79-8.68-11.07s3.08-8.21,8.68-11.06a48.29,48.29,0,0,1,39.36,0c5.6,2.85,8.68,6.81,8.68,11.06s-3.12,8.2-8.71,11.07Z"/><g class="cls-16"><path d="M223.51,432.9c10.5-5.38,10.5-14.12,0-19.52s-27.53-5.38-38,0-10.5,14.14,0,19.52S213,438.27,223.51,432.9Z"/></g><path class="cls-3" d="M223.51,432.9c10.5-5.38,10.5-14.12,0-19.52s-27.53-5.38-38,0-10.5,14.14,0,19.52S213,438.27,223.51,432.9Z"/><g class="cls-18"><path d="M223.51,432.9c10.5-5.38,10.5-14.12,0-19.52s-27.53-5.38-38,0-10.5,14.14,0,19.52S213,438.27,223.51,432.9Z"/></g><path class="cls-3" d="M223.51,417c-10.5-5.39-27.53-5.39-38,0-4.33,2.22-6.87,5-7.63,8,.76,2.91,3.3,5.7,7.63,8,10.49,5.39,27.52,5.39,38,0,4.35-2.22,6.89-5,7.64-8C230.4,422.06,227.86,419.24,223.51,417Z"/><g class="cls-19"><path d="M223.51,417c-10.5-5.39-27.53-5.39-38,0-4.33,2.22-6.87,5-7.63,8,.76,2.91,3.3,5.7,7.63,8,10.49,5.39,27.52,5.39,38,0,4.35-2.22,6.89-5,7.64-8C230.4,422.06,227.86,419.24,223.51,417Z"/></g><polygon class="cls-3" points="207.04 413.56 207.04 417.5 205.7 418.92 203.2 421.52 203.2 417.42 207.04 413.56"/><g class="cls-20"><polygon points="207.04 413.56 207.04 417.5 205.7 418.92 203.2 421.52 203.2 417.42 207.04 413.56"/></g><path class="cls-3" d="M203.2,417.4v2.32a23,23,0,0,1-3.81,1.09,4.3,4.3,0,0,1-1.6,0,3.54,3.54,0,0,1-.77-.34c-1-.56-1.1-1.39.7-2.42A6.22,6.22,0,0,1,203.2,417.4Z"/><g class="cls-21"><path d="M203.2,417.4v2.32a23,23,0,0,1-3.81,1.09,4.3,4.3,0,0,1-1.6,0,3.54,3.54,0,0,1-.77-.34c-1-.56-1.1-1.39.7-2.42A6.22,6.22,0,0,1,203.2,417.4Z"/></g><path class="cls-3" d="M221.05,428.63V432l-4.31,2.49-3.2-1.85a16.36,16.36,0,0,1-12.35.56v-3.4l2-1.95-2,.54a12.58,12.58,0,0,1-9.59-1.1c-1.93-1.12-2.82-2.31-2.82-3.59v-3.3l.35-1.46L188,418.3v-3.49l3.19,1.85a4.86,4.86,0,0,0-2.36,3.65h0c0,1.24.94,2.43,2.82,3.5,4.19,2.43,8.36,1.6,12.16.4,3.53-1.15,6.12-2.51,8.15-1.32,1.28.73.9,1.59-.53,2.44a7.13,7.13,0,0,1-6.08.35l-4.08,4a14.61,14.61,0,0,0,2.26.65,16.83,16.83,0,0,0,10.09-1.21l3.2,1.85Z"/><g class="cls-22"><path d="M188.76,420.4h0c0,1.22.94,2.42,2.83,3.5,4.18,2.42,8.35,1.6,12.16.4,3.53-1.15,6.12-2.52,8.15-1.33,1.27.74.89,1.59-.53,2.44a7.15,7.15,0,0,1-6.09.36l-4.07,4a14.49,14.49,0,0,0,2.25.65,16.87,16.87,0,0,0,10.1-1.21l3.19,1.86,4.32-2.49V432l-4.32,2.48-3.19-1.85a16.36,16.36,0,0,1-12.35.56v-3.37l2-1.95-2,.54a12.58,12.58,0,0,1-9.59-1.12c-1.93-1.12-2.83-2.31-2.83-3.59v-3.3l.35-1.46"/></g><g class="cls-21"><path d="M187.93,414.8v3.42l1.18.67h0a6.27,6.27,0,0,1,2-2.25Z"/></g><path class="cls-3" d="M220.35,426.4A5.15,5.15,0,0,1,220,428l-2.15-1.23a4.44,4.44,0,0,0,2.46-3.3C220.33,424.4,220.35,426.33,220.35,426.4Z"/><g class="cls-20"><path d="M220.35,426.4A5.15,5.15,0,0,1,220,428l-2.15-1.23a4.44,4.44,0,0,0,2.46-3.3C220.33,424.4,220.35,426.33,220.35,426.4Z"/></g><path class="cls-3" d="M220.33,428.22l-2.46-1.43a4.25,4.25,0,0,0,2.46-3.78.91.91,0,0,0,0-.33,4.61,4.61,0,0,0-2.76-3.34h0a11.15,11.15,0,0,0-5.74-1.5h-2a18.78,18.78,0,0,0-2.78.57c-.44.12-.88.24-1.31.39l-1.8.59-.69.22a23.14,23.14,0,0,1-3.82,1.1,4.3,4.3,0,0,1-1.6,0,3.94,3.94,0,0,1-.76-.32c-1-.55-1.12-1.4.68-2.46a6.32,6.32,0,0,1,5.55-.57l3.83-3.87a16.35,16.35,0,0,0-11.56.64l-3.2-1.84L188,414.8l3.2,1.83a4.91,4.91,0,0,0-2.37,3.67h0c0,1.23,1,2.41,2.83,3.5,4.2,2.42,8.36,1.6,12.16.39,3.53-1.14,6.1-2.51,8.15-1.33,1.28.75.88,1.58-.53,2.44a7.09,7.09,0,0,1-6.08.36l-4.08,4a15.68,15.68,0,0,0,2.25.65,14.81,14.81,0,0,0,3.93.3,19.11,19.11,0,0,0,6.17-1.5l3.2,1.85,4.29-2.49Z"/><polygon class="cls-3" points="213.56 429.27 213.56 432.68 216.75 434.5 216.75 431.1 213.56 429.27"/><g class="cls-21"><polygon points="213.56 429.27 213.56 432.68 216.75 434.5 216.75 431.1 213.56 429.27"/></g><polygon class="cls-1" points="187.93 414.89 192.29 412.38 195.47 414.2 192.31 412.89 187.93 414.89"/><path class="cls-1" d="M197.66,418a6.37,6.37,0,0,1,5.54-.58l3.84-3.86L203.2,417A5.72,5.72,0,0,0,197.66,418Z"/><path class="cls-1" d="M201.21,429.84a18.76,18.76,0,0,0,2.25.65,15.23,15.23,0,0,0,3.93.29,14.6,14.6,0,0,1-5.54-1.1l3.43-3.9Z"/><polygon class="cls-1" points="213.56 429.27 216.75 430.69 221.05 428.62 216.75 431.1 213.56 429.27"/><path class="cls-1" d="M175.53,407.9c11.33-6.9,29-7.57,29-7.57-11.09,0-21.49,2.47-29.29,7-7.48,4.32-11.52,9.92-11.52,15.82C163.69,423.13,164,414.8,175.53,407.9Z"/><path class="cls-1" d="M201.21,447.72c12,.53,24.33-1.85,33.55-7.16,9.59-5.51,13.63-13,12.25-20.18,0,0,1.79,11.71-13,19.74S201.21,447.72,201.21,447.72Z"/><path class="cls-3" d="M247.49,411.11a27.82,27.82,0,0,0-10.21-9.45c-16.69-9.58-43.76-9.58-60.45,0a27.34,27.34,0,0,0-10.21,9.45h-2.3v8.79h0c.3,6.06,4.45,12.1,12.47,16.73,16.7,9.59,43.77,9.59,60.46,0,8-4.63,12.21-10.67,12.51-16.73h0v-8.74Z"/><g class="cls-14"><path d="M247.49,411.11a27.82,27.82,0,0,0-10.21-9.45c-16.69-9.58-43.76-9.58-60.45,0a27.34,27.34,0,0,0-10.21,9.45h-2.3v8.79h0c.3,6.06,4.45,12.1,12.47,16.73,16.7,9.59,43.77,9.59,60.46,0,8-4.63,12.21-10.67,12.51-16.73h0v-8.74Z"/></g><g class="cls-15"><path d="M207.05,394.44c-10.94,0-21.87,2.42-30.22,7.22a27.34,27.34,0,0,0-10.21,9.45h-2.3v8.79h0c.32,6.06,4.47,12.1,12.49,16.73,8.36,4.79,19.28,7.21,30.23,7.21Z"/></g><g class="cls-15"><path d="M183.71,398.46a41.3,41.3,0,0,0-6.88,3.19,27.34,27.34,0,0,0-10.21,9.45h-2.3v8.74h0c.32,6.07,4.47,12.09,12.49,16.72a46.84,46.84,0,0,0,6.89,3.2Z"/></g><path class="cls-3" d="M230.4,398.46a43.79,43.79,0,0,1,6.88,3.19,27.74,27.74,0,0,1,10.21,9.45h2.3v8.74h0c-.3,6.07-4.49,12.09-12.51,16.72a49.94,49.94,0,0,1-6.88,3.2Z"/><path class="cls-3" d="M237.28,393.68c-16.69-9.59-43.76-9.59-60.45,0s-16.7,25.23,0,34.88,43.76,9.59,60.45,0S254,403.33,237.28,393.68Z"/><g class="cls-16"><path d="M237.28,393.68c-16.69-9.59-43.76-9.59-60.45,0s-16.7,25.23,0,34.88,43.76,9.59,60.45,0S254,403.33,237.28,393.68Z"/></g><path class="cls-3" d="M226.74,400.06a48.07,48.07,0,0,0-39.37,0c-5.59,2.87-8.67,6.8-8.67,11.07s3.08,8.19,8.67,11a48.23,48.23,0,0,0,39.37,0c5.59-2.86,8.67-6.79,8.67-11S232.39,402.9,226.74,400.06Z"/><g class="cls-17"><path d="M226.74,400.06a48.07,48.07,0,0,0-39.37,0c-5.59,2.87-8.67,6.8-8.67,11.07s3.08,8.19,8.67,11a48.23,48.23,0,0,0,39.37,0c5.59-2.86,8.67-6.79,8.67-11S232.39,402.9,226.74,400.06Z"/></g><path class="cls-3" d="M236.34,395.33c-7.78-4.5-18.2-7-29.29-7s-21.5,2.48-29.28,7c-7.48,4.32-11.6,9.92-11.6,15.83s4.12,11.52,11.6,15.83c7.78,4.49,18.18,7,29.28,7s21.51-2.49,29.29-7c7.48-4.31,11.6-9.94,11.6-15.83S243.82,399.61,236.34,395.33Zm-9.59,26.88a48.21,48.21,0,0,1-39.36,0c-5.6-2.86-8.68-6.8-8.68-11.06s3.08-8.19,8.68-11.07a48.29,48.29,0,0,1,39.36,0c5.6,2.88,8.68,6.82,8.68,11.07s-3,8.21-8.69,11.06Z"/><g class="cls-16"><path d="M226,420.9c10.5-5.38,10.5-14.12,0-19.5s-27.52-5.4-38,0-10.5,14.12,0,19.5S215.57,426.25,226,420.9Z"/></g><path class="cls-3" d="M226,420.9c10.5-5.38,10.5-14.12,0-19.5s-27.52-5.4-38,0-10.5,14.12,0,19.5S215.57,426.25,226,420.9Z"/><g class="cls-18"><path d="M226,420.9c10.5-5.38,10.5-14.12,0-19.5s-27.52-5.4-38,0-10.5,14.12,0,19.5S215.57,426.25,226,420.9Z"/></g><path class="cls-3" d="M226,405c-10.49-5.39-27.52-5.39-38,0-4.35,2.23-6.89,5-7.64,8,.75,2.89,3.29,5.7,7.64,8,10.5,5.39,27.53,5.39,38,0,4.33-2.24,6.87-5,7.62-8C232.94,410,230.4,407.25,226,405Z"/><g class="cls-19"><path d="M226,405c-10.49-5.39-27.52-5.39-38,0-4.35,2.23-6.89,5-7.64,8,.75,2.89,3.29,5.7,7.64,8,10.5,5.39,27.53,5.39,38,0,4.33-2.24,6.87-5,7.62-8C232.94,410,230.4,407.25,226,405Z"/></g><polygon class="cls-3" points="209.59 401.56 209.59 405.51 208.25 406.93 205.76 409.52 205.76 405.42 209.59 401.56"/><g class="cls-20"><polygon points="209.59 401.56 209.59 405.51 208.25 406.93 205.76 409.52 205.76 405.42 209.59 401.56"/></g><path class="cls-3" d="M205.76,405.4v2.32a23.11,23.11,0,0,1-3.82,1.09,4.77,4.77,0,0,1-1.6,0,6.81,6.81,0,0,1-.78-.34c-.94-.56-1.1-1.42.7-2.45A6.32,6.32,0,0,1,205.76,405.4Z"/><g class="cls-21"><path d="M205.76,405.4v2.32a23.11,23.11,0,0,1-3.82,1.09,4.77,4.77,0,0,1-1.6,0,6.81,6.81,0,0,1-.78-.34c-.94-.56-1.1-1.42.7-2.45A6.32,6.32,0,0,1,205.76,405.4Z"/></g><path class="cls-3" d="M223.61,416.63V420l-4.32,2.49-3.19-1.84a16.36,16.36,0,0,1-12.35.56v-3.4l1.95-1.94-1.95.54a12.71,12.71,0,0,1-9.59-1.1c-1.93-1.12-2.83-2.33-2.83-3.59V408.4l.35-1.46-1.18-.64v-3.38l3.2,1.85a4.86,4.86,0,0,0-2.37,3.69h0c0,1.22.95,2.41,2.83,3.5,4.19,2.43,8.34,1.6,12.16.4,3.53-1.15,6.1-2.51,8.15-1.33,1.26.72.88,1.6-.55,2.46a7.14,7.14,0,0,1-6.07.35l-4.07,4a14.52,14.52,0,0,0,2.25.66,17.1,17.1,0,0,0,10.1-1.22l3.2,1.84Z"/><g class="cls-22"><path d="M191.32,408.4h0c0,1.22.94,2.41,2.83,3.5,4.18,2.43,8.34,1.6,12.15.4,3.53-1.15,6.11-2.52,8.15-1.33,1.26.72.88,1.6-.54,2.45a7.14,7.14,0,0,1-6.07.35l-4.08,4a14.31,14.31,0,0,0,2.24.63,17.15,17.15,0,0,0,10.09-1.22l3.2,1.84,4.31-2.49v3.41l-4.31,2.46-3.2-1.83a16.46,16.46,0,0,1-12.35.56V417.8l2-2-2,.54a12.74,12.74,0,0,1-9.58-1.1c-1.94-1.12-2.83-2.33-2.83-3.59v-3.32l.35-1.46"/></g><g class="cls-21"><path d="M190.49,402.9v3.43l1.18.67h0a6.75,6.75,0,0,1,2-2.25Z"/></g><path class="cls-3" d="M222.89,414.4a3.82,3.82,0,0,1-.32,1.6l-2.16-1.2a4.31,4.31,0,0,0,2.4-3.19C222.81,412.44,222.89,414.33,222.89,414.4Z"/><g class="cls-20"><path d="M222.89,414.4a3.82,3.82,0,0,1-.32,1.6l-2.16-1.2a4.31,4.31,0,0,0,2.4-3.19C222.81,412.44,222.89,414.33,222.89,414.4Z"/></g><path class="cls-3" d="M222.89,416.22l-2.46-1.43a4.33,4.33,0,0,0,2.46-3.77v-.34a4.73,4.73,0,0,0-2.77-3.34h0a11.31,11.31,0,0,0-5.73-1.5h-2a18.78,18.78,0,0,0-2.78.57c-.45.12-.88.24-1.31.39l-1.81.59-.68.22a21.19,21.19,0,0,1-3.81,1.08,3.6,3.6,0,0,1-1.6,0,2.73,2.73,0,0,1-.77-.32c-1-.54-1.11-1.39.69-2.44a6.37,6.37,0,0,1,5.54-.57l3.84-3.87a16.38,16.38,0,0,0-11.57.64l-3.19-1.8-4.35,2.5,3.2,1.84a4.68,4.68,0,0,0-2.37,3.68h0c0,1.21.93,2.41,2.83,3.49,4.2,2.42,8.36,1.6,12.16.4,3.53-1.15,6.1-2.5,8.15-1.34,1.26.73.87,1.6-.55,2.45a7,7,0,0,1-6.07.35l-4.07,4.06a15.68,15.68,0,0,0,2.25.65,15.23,15.23,0,0,0,3.93.29,19.25,19.25,0,0,0,6.15-1.5l3.2,1.85,4.31-2.49Z"/><polygon class="cls-3" points="216.11 417.27 216.11 420.68 219.29 422.5 219.29 419.1 216.11 417.27"/><g class="cls-21"><polygon points="216.11 417.27 216.11 420.68 219.29 422.5 219.29 419.1 216.11 417.27"/></g><polygon class="cls-1" points="190.49 402.88 194.83 400.36 198.03 402.2 194.86 400.88 190.49 402.88"/><path class="cls-1" d="M200.22,406a6.3,6.3,0,0,1,5.54-.58l3.84-3.87L205.76,405A5.72,5.72,0,0,0,200.22,406Z"/><path class="cls-1" d="M203.76,417.84a15.81,15.81,0,0,0,2.26.65,15.23,15.23,0,0,0,3.93.29,14.65,14.65,0,0,1-5.55-1.1l3.44-3.9Z"/><polygon class="cls-1" points="216.11 417.27 219.29 418.69 223.61 416.62 219.29 419.1 216.11 417.27"/><path class="cls-1" d="M178.07,395.9c11.31-6.87,29-7.55,29-7.55-11.11,0-21.51,2.49-29.29,7-7.47,4.32-11.6,9.93-11.6,15.84C166.17,411.13,166.58,402.9,178.07,395.9Z"/><path class="cls-1" d="M203.75,435.72c12,.52,24.35-1.85,33.55-7.17,9.59-5.51,13.63-13,12.25-20.18,0,0,1.78,11.71-13,19.74S203.75,435.72,203.75,435.72Z"/></g></g></g><path class="cls-23" d="M581.3,227.47c1.87-4.95-30.41-8.73-30.41-8.73s-.07,24.08-.95,34.21c-1.31,15.3-1,22.62,3.37,43.15,2,9.11,4.42,43.6,3.76,55.76-.91,17.8-9.1,26.22-11.88,30.59S553,391,559.7,384.59s7.4-7.67,11.18-9.67,2.52-6.82,2.23-16.83c-.21-7.77,3.16-33.68,4.45-50.24,1.83-23.57-3.37-24.06-3-36C575.26,249.4,580.12,230.71,581.3,227.47Z"/><path class="cls-24" d="M576.25,363.19v-.11c-.06-.21-.12-.43-.2-.64h0a15.18,15.18,0,0,0-2.86-4.39s-1.58,14.23-10,20.11c-9.34,6.56-13.52,7.58-18,4.27a96.15,96.15,0,0,1-7.49,9.11c-2.76,3.06-.45,6.13,7.7,5.54,4.3-.3,10.47-2.52,13.87-6.85,3.58-4.57,6.35-9.5,9.69-12.49l1.42-1.3h0c.25,3.77.13,6.19.32,8.93.78,1.25,2,.95,2.94,0,.55-3-.16-5.78,1.53-11.32C577,368.13,576.57,364.61,576.25,363.19Z"/><path class="cls-25" d="M581.74,271.4s4.58,33.66,6.91,45.87,8.64,51.54,7.84,61.64c-.53,6.87-3.25,16.15-4.94,21.89s.58,9.92,4.45,11.11c7,2.15,16-21.67,15.44-32.66-.78-16.44,4.32-61.24,2.69-71.28S609,291.9,608,286.4c-.88-4.74,3-25,3-25Z"/><path class="cls-7" d="M613.48,385.22s-.64,6.79-.84,10.2-.61,6.35-.61,6.35-2.75,2.2-3.46-.85C609.08,391.12,613.48,385.22,613.48,385.22Z"/><path class="cls-24" d="M591.57,400.22A111.43,111.43,0,0,0,588.49,412c-.77,3.44-.17,7.89,3.37,8.42,9.09,1.31,11.78-4.69,13.62-8.42,2.29-4.7,4.67-17.21,6.83-23.57,3.67-7.49-.94-10.89-.94-10.89s-.25,9.73-3.47,17.28c-4.3,10.1-7.68,12.23-12.1,12.35C591,407.4,591.57,400.22,591.57,400.22Z"/><path class="cls-7" d="M549.31,264.6c11.84,8,28.85,17.67,42,15.78,11.43-1.62,14.6-3.71,19.74-6.73,3.18-15.06,3.08-29.53,4.4-46.67,1.07-13.85-3.63-40.62-8.66-47.27,0-.05-11-4.65-17.17-4.75-11.37-.17-24.07,2.87-34.82-1.53a.88.88,0,0,0-1.18.39h0a.49.49,0,0,0-.06.17.38.38,0,0,0-.45.3v0h0C547.92,193.66,546.52,234.13,549.31,264.6Z"/><path class="cls-7" d="M517.81,100.4c9.37-7.36,34.67-24.55,48.83-28.77,7.82-2.34,7.85,1.15,11.64,7.85C588.93,98.32,549.57,117,531,119.4,526.36,120,503.35,111.75,517.81,100.4Z"/><path class="cls-8" d="M556.13,153a170.82,170.82,0,0,1-3,21.35c7.17,17.24,44.62,12.18,55.79,7.57-1.46-8.55-5.15-31.71-4.73-39.8,0,0,18.52-20.51,13.29-41.44-1.63-6.3-16.63-13.16-16.63-13.16L579.85,76s-1.52-.38-3.71-.77c-3.3,3.65-9.79,13.35-13.3,17.37s-13.37,17.31-10.33,30C555,133.4,556.41,147.67,556.13,153Z"/><path class="cls-26" d="M574.28,81.05s-9.64,14.52-11.87,21.11c4.11,2.71,12.16,9.42,12.16,9.42L579.89,84Z"/><path class="cls-23" d="M573.9,95.4c3.93.28,7.39.74,11.42-1.91,3.8-2.52,6.25-5.85,9-9,.18-.59.41-1.12.55-1.74a68.39,68.39,0,0,1,1.79-23.11C589.76,56.47,577,75.4,577,75.4s.15,10.94-1.79,16.73A12.37,12.37,0,0,0,573.9,95.4Z"/><path class="cls-24" d="M610.51,145.54c3.62-24.29,7-45.06,6.48-46C613.51,93.48,597.48,82,597.48,82h-5s-6.73,30.2-7.29,30.83c0,0-17.06,21-17.09,21,.08-1.21-3.79-24.74,0-35.07,1.2-3.26,10.1-24.7,10.1-24.7s-1.52-.38-3.72-.77c-3.32,3.66-10.21,13-13.31,17.38-5.28,7.39-13.38,17.32-10.32,30,2.6,10.83,4.29,18.28,4.52,23.63.84,18.81-6.74,48.93-6.74,48.93a36.49,36.49,0,0,0,18.37,13c.92-4,2.16-7.71,2.16-7.71s1.31,4.75,2.19,8.83c21.82,3.42,40.33-4,44.93-11.83C616.33,195.55,607.63,164.76,610.51,145.54Z"/><path class="cls-3" d="M568.13,154.61c2.53-6.41,6.4-22.11,8.61-28.62V102.81l-2.53-1.29s-4,5.5-7.14,16.45C566.8,118.86,565.76,144.33,568.13,154.61Z"/><path class="cls-7" d="M571.51,79.82C567.53,85.19,560,95.4,560,95.4l3,4.15a15.25,15.25,0,0,0-4.55,4.21c0,10.2,9.72,50.87,9.72,50.87s-3.36-46.3,7.64-64.1C576.74,74.65,573.37,79.61,571.51,79.82Z"/><path class="cls-3" d="M573.94,95.4a18.38,18.38,0,0,0-.55,6c.35,2.45,1.94,3.26,4.41,1.3a12.71,12.71,0,0,0,3.5-4.82S578.51,93.21,573.94,95.4Z"/><path class="cls-26" d="M574.5,82S572,83.8,570,92.75c-1.25,5.86,1.16,9.58,1.16,9.58l6.67-7.58s-2.65-5-1-12.81C577.55,79,574.5,82,574.5,82Z"/><path class="cls-7" d="M595.85,79.82s.68,7.32-8.24,17.28c-13.69,15.28-19.48,57.51-19.48,57.51l24-41.45-3-6.63,7-.43s6.2-9,6.2-19C602.34,81.9,595.85,79.82,595.85,79.82Z"/><path class="cls-26" d="M580.37,106.77c-1.68-4.44-2.52-12-2.52-12s12.18-5.63,17.68-12C596.37,90.51,590.35,103.11,580.37,106.77Z"/><path class="cls-27" d="M566.15,31.13s-11,6.42-7.49,33.58a30.85,30.85,0,0,0,8.56,17.69S573.4,73,579,67.71,566.15,31.13,566.15,31.13Z"/><path class="cls-25" d="M594.85,36.14c-6.56-6.12-23.22-9.52-31.08,7.27-8.24,17.6,6,42,15.19,39,5.14-1.68,16.25-8.36,20.12-17.68C603.42,54.26,600,40.88,594.85,36.14Z"/><path class="cls-27" d="M578.21,45s-2.27,9,5.24,22.16a41.93,41.93,0,0,1,5.94,20c4.78-2,13-1.39,18.22-12,2.53-16,1-31.68-4.33-41.11-4.72-8.35-16.31-6-16.31-6s-14.09-10.48-25.67,9.58c-5.25,9-2.16,16.3,0,19.67C566.54,46.11,578.21,45,578.21,45Z"/><polygon class="cls-28" points="620.92 180.06 573.3 207.56 573.04 166.63 620.66 139.13 620.92 180.06"/><polygon class="cls-3" points="624.99 182.34 577.37 209.84 577.11 168.88 624.74 141.4 624.99 182.34"/><polygon class="cls-29" points="577.11 168.88 573.04 166.63 573.3 207.56 577.37 209.84 577.11 168.88"/><polygon class="cls-29" points="573.04 166.63 577.11 168.88 624.99 141.12 620.66 139.13 573.04 166.63"/><polygon class="cls-8" points="619.35 142.19 619.32 137.34 571.7 164.84 571.95 205.78 575.31 203.84 575.08 167.75 619.35 142.19"/><path class="cls-25" d="M602.34,195.9l-20.58,11.88s5.79,6.15,13.85,4.47a15.35,15.35,0,0,0,10.83-8.92Z"/><path class="cls-7" d="M635.17,136.71c-3.76-23.14-15.06-46.08-24.41-41.92-8.42,3.71-9.91,16.89-7.25,29.25,2.14,9.94,7.23,20.33,12.13,34.74,0,3.87-4.25,14.9-6.73,20.7-5.36,12.36-10.94,19-10.94,19l9.34,11.84s13.55-12.74,19.56-21.74C634,178,638,169.31,638,158.78,637.93,150.56,636.39,144.17,635.17,136.71Z"/><path class="cls-7" d="M531,103.76s-1.06-8.76-7.75-7.44c-10.18,2-26.86,4.76-33.82,6.78s-14.31,4.9-14.31,4.9,4.32,5.9,1.68,14.84c9.54,1.86,29.47,3,39.9,1a189.17,189.17,0,0,0,23.57-6.64Z"/><path class="cls-25" d="M475.17,108s-15.15,0-20.28-.43A45,45,0,0,0,440.46,109c-3.86,1-3.27,4,0,4s10.76-.76,12-.18.74,7.89,4,11.25,18,0,20.42-1.19S480.17,108.6,475.17,108Z"/></g></g></g></g></g></g></g></g></g></g></g></g></svg>