<?xml version="1.0" encoding="utf-8"?>
<!-- Generator: Adobe Illustrator 21.0.2, SVG Export Plug-In . SVG Version: 6.00 Build 0)  -->
<svg version="1.1" id="Layer_1" xmlns="http://www.w3.org/2000/svg" xmlns:xlink="http://www.w3.org/1999/xlink" x="0px" y="0px"
	 viewBox="0 0 500 500" style="enable-background:new 0 0 500 500;" xml:space="preserve">
<style type="text/css">
	.st0{fill:#FFF8E9;}
	.st1{opacity:0.3;fill:#FFFFFF;}
	.st2{fill:#07085B;}
	.st3{fill:#55769F;}
	.st4{fill:#FF5B7E;}
	.st5{fill:#E03268;}
	.st6{fill:#8FD0D6;}
	.st7{fill:#CBEFEF;}
	.st8{fill:#CFE8EA;}
	.st9{fill:#74BDC1;}
	.st10{fill:#F4A640;}
	.st11{fill:#F9CC4B;}
	.st12{opacity:0.5;fill:#FFF9FF;}
	.st13{opacity:0.1;fill:#FFFFFF;}
	.st14{fill:#333333;}
	.st15{fill:#3CB4C5;}
	.st16{opacity:0.5;fill:#3CB4C5;}
	.st17{fill:#E87B50;}
	.st18{fill:#CFE4FF;}
	.st19{fill:#FDB137;}
	.st20{fill:#FFFFFF;}
	.st21{fill:#FEB546;}
	.st22{fill:#F9C27A;}
	.st23{fill:#E2881E;}
	.st24{fill:#6DB1B5;}
	.st25{fill:#FFC0BB;}
	.st26{fill:#F99893;}
	.st27{fill:#DAEEF7;}
	.st28{fill:#191919;}
	.st29{opacity:0.6;fill:#FC8D84;}
	.st30{opacity:0.3;fill:#F99893;}
	.st31{fill:#C8EEF1;}
	.st32{opacity:0.3;fill:#E87B50;}
</style>
<g>
	<path class="st0" d="M48.9,398.5c0,0-67.1-38.3-30.1-132.1c36.9-93.9,132.4-69.4,167.8-111.6S293.4,48.2,371.9,96.4
		c78.6,48.2,59.2,124.1,87.5,154.6c28.3,30.5,86.8,161.2-85.8,167.7C201.1,425.3,48.9,398.5,48.9,398.5z"/>
	<path class="st1" d="M394,198.1c7-0.2,14-1.8,21-2.1c7.6-0.4,15.6,0.5,22.7-2.4c0.1-0.1,0.3-0.1,0.4-0.2c-2.2-8.8-4.8-18-8.3-27.3
		c-0.2,0-0.3,0.1-0.5,0.1c-4.5,1.4-8.7,3.5-13.3,4.9c-8.5,2.5-17.8,1.7-25.8-2.1c-9-4.3-16.2-12.2-25.7-14.7
		c-7-1.9-14.4-0.7-21.6-1.4c-7.2-0.7-15.1-4.4-16.8-11.4c-0.3-1.3-0.4-2.8,0.2-4c1.2-2.6,4.6-3,7.5-3.2c7.3-0.3,14.6-0.7,21.9,0.3
		c9.2,1.2,18.5,4.5,27.6,2.4c2.8-0.6,5.4-1.8,8.2-2.5c7.3-1.9,15-0.8,22.4,0.7c-9.6-13.8-22.9-27.1-41.8-38.7
		c-0.5-0.3-1.1-0.7-1.6-1c-7.3,4-13.6,9.7-21.3,13c-9.2,3.9-19.5,4.1-29.5,3.5c-6-0.3-12.5-0.7-17.3,2.9c-3.5,2.7-5.3,7-8.5,9.9
		c-3.9,3.6-9.4,4.7-14.5,5.9c-6.5,1.6-13.1,4-18,8.6c-4.9,4.6-7.7,11.9-5.3,18.2c3,8,12.6,11.1,21.1,11.8c10.9,0.9,22-0.4,32.5,2.6
		c7.1,2.1,13.5,6,20.1,9.3c11.5,5.7,23.8,9.3,36.2,12.6C375.1,196.2,384.5,198.4,394,198.1z"/>
	<path class="st1" d="M38.5,231.9c2,0.9,4,1.8,5.9,2.7c5.5,2.5,11.1,5.1,17,6c5.5,0.9,11.1,0.3,16.7-0.2c6.8-0.7,13.6-1.3,20-3.4
		c7.1-2.2,13.7-6.1,21-7.8c8-1.9,16.4-1.1,24.6-0.8c10.9,0.4,22.1-0.3,32.4-3.9c10.3-3.7,19.7-10.7,24.5-20.5
		c2.5-5.2,3.8-11.2,7.7-15.4c4.1-4.4,10.3-6.1,14.8-10.1c6.6-5.9,8-16.8,3-24.2c-0.5-0.7-1-1.4-1.8-1.8c-1.2-0.6-2.6-0.4-4-0.2
		c-4.9,0.6-9.8-0.1-14.4-1.8c-3.8-1.5-7.4-3.8-11.1-5.6c-3,3.3-5.9,6.6-8.5,9.7c-3.5,4.2-7.6,7.7-12.1,10.7c3.1,0.8,6.2,2,9,3.5
		c2.4,1.2,5,3.1,5.1,5.8c0.1,2.6-2.1,4.8-4.3,6.2c-6.1,3.8-13.9,5.4-18.6,10.9c-4.1,4.9-5.3,12.3-10.7,15.6
		c-2.4,1.5-5.4,1.9-8.2,2.1c-9.5,0.7-19.3-0.5-28.1,3.2c-1.9,0.8-3.7,1.8-5.7,2.5c-2.6,0.9-5.3,1.1-8,1.3c-15.8,0.9-31.7,0-47.3-2.8
		C50.8,218.7,44.4,224.7,38.5,231.9z"/>
	<path class="st2" d="M350.8,172.6c5.9,53.8-24.4,130.1-24.4,130.1s41.4-39,40.5-85.2l-13.3-0.2c0,0,6.8-4.5,12.6-8.1
		C364.7,197.2,360,184.8,350.8,172.6z"/>
	<path class="st3" d="M303.2,234.8l8.4-4.9l-7.2-1.1c2.2-9,6.1-17,10.8-23.9c5.5,1.7,11.7,3.4,11.7,3.4l-6.9-9.8
		c13.8-16.9,30.8-25.8,30.8-25.8c5.9,53.8-24.4,130.1-24.4,130.1C305.7,276.3,300.6,253.6,303.2,234.8z"/>
	<path class="st4" d="M371.7,225.7c-9.1,3.9-16.4,9.3-22.2,15.4c0.8,3.7,1.7,8.3,1.7,8.3l-5.6-3.9c-20.3,25.1-20.1,59.1-20.1,59.1
		c20-8.2,31.9-19.2,38.9-30.3c-1.4-2.1-3.6-5.1-3.6-5.1l5.7,1.5c3-5.6,4.8-11.2,5.9-16.4c-3-0.7-6.3-1.7-6.3-1.7l7.1-3.3
		C374.9,235.8,371.7,225.7,371.7,225.7z"/>
	<path class="st5" d="M364.5,274.3c-1.4-2.1-3.6-5.1-3.6-5.1l5.7,1.5c3-5.6,4.8-11.2,5.9-16.4c-3-0.7-6.3-1.7-6.3-1.7l7.1-3.3
		c1.6-13.5-1.6-23.5-1.6-23.5c-25.7,27.7-46.1,78.8-46.1,78.8C345.5,296.3,357.5,285.4,364.5,274.3z"/>
	
		<rect x="285.5" y="291.9" transform="matrix(0.494 -0.8695 0.8695 0.494 -104.9323 473.752)" class="st6" width="138.1" height="70.2"/>
	<g>
		<path class="st7" d="M414.1,286.6l-63.8,112.3L295,367.5l63.8-112.3L414.1,286.6z M348.7,393.2l59.7-105.1l-48-27.3l-59.7,105.1
			L348.7,393.2z"/>
	</g>
	<ellipse transform="matrix(0.494 -0.8695 0.8695 0.494 -104.8836 473.852)" class="st7" cx="354.7" cy="327" rx="26.1" ry="28.6"/>
	<path class="st6" d="M349.2,318.9c-1.5-0.4-3-0.5-4.3,0.5c0.2,0.2,0.3,0.3,0.5,0.4c2.1,1.2,4.3,2.4,6.4,3.7
		c0.5,0.3,0.7,0.2,1.1-0.1c0.9-0.8,1.9-1.7,2.9-2.4c3.6-2.6,7.3-2.1,10.6,0.3c4,3,5.1,6.7,3.6,11.5c-0.3,0.9-0.1,1.3,0.7,1.6
		c0.6,0.3,1.1,0.6,1.6,0.9c-0.5,0.9-1,1.8-1.6,2.8c-0.8-0.5-1.7-1-2.5-1.4c-4.4,5.4-9.8,4.8-13.1,3.2c0.8-1.7,1.5-3.5,2.3-5.2
		c2.1,0.6,4,0.5,6.1-0.6c-1.2-0.7-2.2-1.3-3.2-1.9c-1.4-0.8-2.8-1.6-4.2-2.4c-0.5-0.3-0.8-0.3-1.3,0.1c-1.4,1.3-3,2.4-4.9,2.9
		c-3.9,1.1-7.1-0.2-9.7-3c-2.4-2.5-2.8-5.7-1.6-9c0.1-0.2,0.2-0.4,0.2-0.7c0-0.1,0-0.2,0.1-0.3c-0.7-0.4-1.3-0.8-2.1-1.2
		c0.5-0.9,1-1.8,1.6-2.8c0.5,0.3,1,0.5,1.5,0.9c0.5,0.3,0.8,0.2,1.2-0.2c1.6-2,3.7-3.3,6.3-3.4c1.4-0.1,2.7,0.1,4.1,0.7
		C350.6,315.4,349.9,317.1,349.2,318.9z M357.9,326.9c2.5,1.4,5,2.8,7.4,4.3c0.8-1.8,0.1-4-1.7-5.3
		C361.9,324.7,359.7,325.1,357.9,326.9z M343.1,322.3c-0.3,1.9,0.6,3.7,2,4.4c1.5,0.8,3.5,0.5,4.6-0.6
		C347.5,324.8,345.3,323.6,343.1,322.3z"/>
	
		<ellipse transform="matrix(0.494 -0.8695 0.8695 0.494 -151.6128 474.2318)" class="st7" cx="331.6" cy="367.4" rx="3.8" ry="3.8"/>
	<ellipse transform="matrix(0.494 -0.8695 0.8695 0.494 -57.8244 473.2573)" class="st7" cx="377.7" cy="286.3" rx="3.8" ry="3.8"/>
	<path class="st6" d="M403.7,311.6c-0.2-0.2,4.9-8.6,4.9-8.6l-65.9,25.5l0.9,5.2L403.7,311.6z"/>
	
		<rect x="318.8" y="319.6" transform="matrix(0.9378 -0.3472 0.3472 0.9378 -99.016 156.7103)" class="st6" width="138.1" height="70.2"/>
	<g>
		<path class="st7" d="M459.4,362l-121.2,44.9l-22.1-59.6l121.2-44.9L459.4,362z M340.8,401.5l113.3-42l-19.2-51.7l-113.3,42
			L340.8,401.5z"/>
	</g>
	
		<ellipse transform="matrix(0.9378 -0.3472 0.3472 0.9378 -99.0382 156.743)" class="st7" cx="387.9" cy="354.8" rx="26.1" ry="28.6"/>
	<path class="st6" d="M389,345c-0.9-1.3-2-2.3-3.7-2.4c0,0.2,0.1,0.4,0.1,0.6c0.8,2.3,1.7,4.6,2.5,6.9c0.2,0.5,0.4,0.6,1,0.6
		c1.3-0.1,2.5,0,3.8,0c4.4,0.3,6.9,3.1,7.9,7.1c1.2,4.8-0.4,8.4-4.6,11.1c-0.8,0.5-0.9,0.9-0.5,1.7c0.3,0.5,0.4,1.1,0.7,1.8
		c-1,0.4-1.9,0.7-3,1.1c-0.3-0.9-0.7-1.8-1-2.7c-6.9,1.3-10.5-2.6-12.1-6c1.7-0.8,3.4-1.7,5.1-2.5c1.2,1.8,2.7,3,5.1,3.4
		c-0.5-1.3-0.9-2.4-1.3-3.5c-0.6-1.5-1.1-3-1.6-4.5c-0.2-0.6-0.5-0.8-1.1-0.7c-1.9,0.1-3.9-0.1-5.7-0.9c-3.6-1.7-5.3-4.8-5.5-8.5
		c-0.2-3.5,1.5-6.2,4.5-8c0.2-0.1,0.4-0.2,0.6-0.4c0.1,0,0.1-0.1,0.3-0.2c-0.3-0.7-0.5-1.4-0.8-2.2c1-0.4,2-0.7,3-1.1
		c0.2,0.5,0.4,1.1,0.6,1.6c0.2,0.6,0.5,0.7,1,0.6c2.5-0.5,4.9-0.1,7,1.4c1.1,0.8,2,1.9,2.7,3.2C392.3,343.2,390.7,344.1,389,345z
		 M390.4,356.7c1,2.7,2,5.4,2.9,8c1.8-0.9,2.7-3,2.1-5.1C394.9,357.6,393,356.5,390.4,356.7z M382.1,343.7c-1.5,1.3-2,3.2-1.3,4.6
		c0.7,1.6,2.4,2.6,3.9,2.5C383.9,348.4,383,346.1,382.1,343.7z"/>
	
		<ellipse transform="matrix(0.9378 -0.3472 0.3472 0.9378 -107.3185 142.609)" class="st7" cx="344.3" cy="370.8" rx="3.8" ry="3.8"/>
	
		<ellipse transform="matrix(0.9378 -0.3472 0.3472 0.9378 -90.6358 170.9355)" class="st7" cx="431.8" cy="338.4" rx="3.8" ry="3.8"/>
	
		<rect x="304.4" y="348.4" transform="matrix(1 -3.078862e-03 3.078862e-03 1 -1.1791 1.1518)" class="st6" width="138.1" height="70.2"/>
	<g>
		<path class="st7" d="M438.2,415.1L309,415.5l-0.2-63.5l129.2-0.4L438.2,415.1z M313.2,411.3L434,411l-0.2-55.2L313,356.1
			L313.2,411.3z"/>
	</g>
	
		<ellipse transform="matrix(1 -3.079522e-03 3.079522e-03 1 -1.1797 1.1522)" class="st7" cx="373.6" cy="383.6" rx="26.1" ry="28.6"/>
	<path class="st6" d="M377.9,374.8c-0.4-1.5-1.1-2.8-2.6-3.5c0,0.2-0.1,0.4-0.1,0.6c0,2.5,0,4.9,0,7.4c0,0.5,0.2,0.7,0.7,0.9
		c1.2,0.4,2.4,0.8,3.5,1.3c4,1.8,5.5,5.2,5,9.3c-0.6,4.9-3.3,7.8-8.2,8.8c-0.9,0.2-1.1,0.6-1.1,1.4c0.1,0.6,0,1.2,0,1.9
		c-1.1,0-2.1,0-3.2,0c0-1,0-1.9,0-2.9c-6.9-1.1-9-6.1-9.3-9.8c1.9-0.2,3.8-0.4,5.7-0.6c0.5,2.1,1.5,3.7,3.6,5c0-1.4,0-2.5,0-3.7
		c0-1.6,0-3.2,0-4.8c0-0.6-0.2-0.9-0.7-1.1c-1.9-0.6-3.6-1.4-5-2.8c-2.9-2.8-3.3-6.3-2.3-9.9c1-3.4,3.6-5.3,7-5.9
		c0.2,0,0.5-0.1,0.7-0.1c0.1,0,0.2-0.1,0.3-0.1c0-0.8,0-1.5,0-2.4c1.1,0,2.1,0,3.2,0c0,0.6,0,1.1,0,1.7c-0.1,0.6,0.2,0.8,0.8,0.9
		c2.5,0.4,4.7,1.6,6.1,3.7c0.8,1.2,1.2,2.4,1.4,3.9C381.6,374.3,379.8,374.6,377.9,374.8z M375.2,386.4c0,2.9,0,5.7,0,8.5
		c2-0.2,3.5-1.9,3.7-4.1C379.1,388.7,377.7,387,375.2,386.4z M371.9,371.2c-1.8,0.7-2.9,2.3-2.8,3.9c0.1,1.7,1.3,3.3,2.8,3.7
		C371.9,376.3,371.9,373.8,371.9,371.2z"/>
	
		<ellipse transform="matrix(1 -3.075426e-03 3.075426e-03 1 -1.1785 1.0078)" class="st7" cx="327.1" cy="383.7" rx="3.8" ry="3.8"/>
	
		<ellipse transform="matrix(1 -3.075426e-03 3.075426e-03 1 -1.1771 1.2945)" class="st7" cx="420.3" cy="383.4" rx="3.8" ry="3.8"/>
	<polygon class="st6" points="442.5,371.8 442.5,348.2 346,348.4 345.1,342.9 447.8,342.5 447.8,369.9 	"/>
	
		<rect x="108.1" y="225.9" transform="matrix(0.9703 -0.2421 0.2421 0.9703 -54.7201 36.9032)" class="st8" width="29.4" height="30.5"/>
	
		<rect x="18.4" y="248.3" transform="matrix(0.9703 -0.2421 0.2421 0.9703 -62.8043 15.8544)" class="st8" width="29.4" height="30.5"/>
	<path class="st9" d="M161.1,333.9l-20.3-81.5l-28.5,7.1l20.6,82.6l0.1,0.4c0.1,0.5,1.6,5.4,2.1,11.9c0.4,5.6,0,13.7-3.7,20.4
		c-3.6,6.5-10,10.9-19.5,13.5c-0.8,0.2-1.7,0.4-2.5,0.5c0,0,0,0,0,0l7.1,28.5c0.4-0.1,0.9-0.2,1.3-0.3l0,0c0.4-0.1,0.8-0.2,1.1-0.3
		c0.4-0.1,0.8-0.2,1.1-0.3l0,0c8.4-2.4,15.9-5.9,22-10.5c6.3-4.7,11.3-10.4,15-17.2c3.3-6,5.5-12.7,6.6-20c0.8-5.5,1-11.4,0.5-17.5
		C163.6,342.7,161.8,336,161.1,333.9z"/>
	<path class="st4" d="M88.3,385.5c-6.4-4.1-10.5-11.1-12.8-16.3c-2.7-6-3.7-11-3.8-11.5l-0.1-0.4l-20.6-82.6l-28.5,7.1l20.3,81.5
		c0.4,2.2,1.9,8.9,5.4,16.9c2.4,5.6,5.3,10.7,8.7,15.2c4.4,5.9,9.5,10.8,15.2,14.5c6.4,4.2,13.6,6.9,21.3,8.1
		c7.2,1.1,15,0.8,23.1-0.8l-7.1-28.5C101,390.3,94,389.2,88.3,385.5z"/>
	
		<ellipse transform="matrix(0.9999 -1.068424e-02 1.068424e-02 0.9999 -3.9269 3.6414)" class="st10" cx="338.8" cy="369.4" rx="50" ry="50"/>
	
		<ellipse transform="matrix(0.9999 -1.068581e-02 1.068581e-02 0.9999 -3.9275 3.6419)" class="st11" cx="338.8" cy="369.4" rx="44.9" ry="44.9"/>
	<g>
		<g>
			<path class="st10" d="M339.3,411.4c-23.2,0.2-42.3-18.4-42.5-41.6c-0.2-23.2,18.4-42.3,41.6-42.5c23.2-0.2,42.3,18.4,42.5,41.6
				C381.2,392.1,362.5,411.2,339.3,411.4z M338.4,328.8c-22.3,0.2-40.3,18.6-40.1,40.9c0.2,22.3,18.6,40.3,40.9,40.1
				c22.3-0.2,40.3-18.6,40.1-40.9C379.1,346.6,360.8,328.6,338.4,328.8z"/>
		</g>
	</g>
	<path class="st12" d="M345.7,356c-0.7-2.3-1.7-4.3-4.1-5.3c-0.1,0.4-0.1,0.7-0.1,0.9c0,3.8,0.1,7.5,0.1,11.3c0,0.8,0.3,1.1,1.1,1.4
		c1.8,0.6,3.7,1.2,5.4,2c6.2,2.7,8.5,7.9,7.8,14.2c-0.8,7.6-4.9,12-12.4,13.7c-1.4,0.3-1.7,0.9-1.6,2.2c0.1,0.9,0,1.9,0,2.9
		c-1.6,0-3.2,0-4.9,0.1c0-1.5,0-2.9,0-4.4c-10.6-1.6-13.9-9.2-14.4-14.9c2.9-0.3,5.8-0.7,8.7-1.1c0.9,3.2,2.4,5.7,5.6,7.6
		c0-2.1,0-3.9-0.1-5.7c0-2.5-0.1-4.9-0.1-7.4c0-0.9-0.3-1.3-1.2-1.6c-2.9-0.9-5.5-2.1-7.7-4.2c-4.4-4.3-5.2-9.6-3.7-15.2
		c1.4-5.2,5.3-8.1,10.6-9.2c0.4-0.1,0.7-0.1,1.1-0.2c0.1,0,0.3-0.1,0.5-0.2c0-1.2,0-2.4,0-3.7c1.7,0,3.2,0,4.9-0.1
		c0,0.9,0.1,1.8,0,2.6c-0.1,0.9,0.3,1.2,1.2,1.4c3.9,0.6,7.2,2.3,9.4,5.6c1.2,1.8,1.9,3.7,2.3,6C351.4,355.2,348.6,355.6,345.7,356z
		 M341.8,373.8c0,4.4,0.1,8.8,0.1,13.1c3-0.3,5.4-3,5.7-6.3C347.8,377.4,345.7,374.7,341.8,373.8z M336.4,350.7
		c-2.8,1.2-4.5,3.6-4.3,6c0.2,2.6,2.1,5,4.4,5.6C336.5,358.4,336.5,354.6,336.4,350.7z"/>
	<g>
		<path class="st2" d="M99.3,394.2c0,0,21.9-30.3,10.6-36c0,0-2-3.2-10.2,8.3c0,0-5.1,1.7-5.4-4.2c-0.3-5.9,8-14.8,2.7-19.9
			s-8,4.1-11.8,5.8c-3.7,1.7-2-21.7-7.1-24.2c-5.2-2.5-6.6,6.7-9.5,7.8c-2.9,1.1-11.5-26.2-25.3-21.1c-13.9,5.1,2,15.3,8.6,21.6
			c6.7,6.3-7.1,2.8-8.5,10.9c-1.4,8.1,23.1,1.6,20.8,9.4c-2.2,7.9-9.2,3.4-10.5,9.3c-2.1,9.5,22.2,0.4,21.6,6.9
			c-0.4,5.2-9.2,1.8-10.2,5.8C64.1,378.7,79.4,393.1,99.3,394.2z"/>
		<path class="st13" d="M110.6,358.7c-0.1-0.1-0.2-0.1-0.3-0.2c-0.4,1.2-0.9,2.6-1.6,4c-2.3,5.2-6.7,12.2-14.6,16.3
			c-2-4.3-4.5-8.9-7.4-13.6c2.1-11.9,6.2-18.5,9.4-22c0.3-0.3,0.5-0.6,0.8-0.8c-0.1-0.1-0.2-0.2-0.3-0.2c-0.3,0.3-0.5,0.5-0.8,0.8
			c-3.1,3.5-7.3,10-9.4,21.8c0,0,0,0,0-0.1c-3-4.8-6.6-9.9-10.5-15.1c-0.1-0.5-0.8-5.5-0.7-11.5c0-4.3,0.4-9.8,2-14.3
			c-0.1,0-0.2-0.1-0.4-0.1c-1.6,4.6-2,10.1-2,14.4c0,5,0.4,9.3,0.6,11c-3-3.9-6.3-8-9.9-12.1c-9.9-11.4-19.4-20.7-24.4-25.3
			c-0.1,0.1-0.2,0.1-0.3,0.2c4.9,4.6,14.5,13.9,24.4,25.4c1.7,1.9,3.4,4,5.1,6.1c-1.4-0.2-5.4-0.9-10.6-1.1
			c-4.4-0.2-10.4-0.1-16.4,1c0,0,0,0,0,0.1c0,0.1,0,0.2,0,0.3c6.1-1.1,12-1.2,16.5-1c6,0.3,10.4,1.1,11,1.2
			c3.9,4.7,7.8,9.9,11.5,15.4c-8.5-1.1-22.1,1.9-28.8,3.5c0,0.1,0,0.3,0,0.4c6.7-1.7,20.6-4.7,29.1-3.5c5.3,7.7,10,16,13.2,24
			c-7.1,1.2-15.6-2-21.5-4.9c-3.6-1.8-6.7-3.7-8.8-5c-0.1,0.1-0.1,0.2-0.2,0.3c2,1.3,5.2,3.2,8.8,5c5.9,2.9,14.5,6.1,21.8,4.9
			c1.4,3.5,2.4,6.9,3.2,10.3c0.1,0,0.1,0,0.2,0c0,0,0-0.1,0.1-0.2c-1-4.6-2.7-9.6-5.1-14.9c0.5-0.3,1-0.5,1.5-0.8
			c2.9-1.7,5.5-3.9,7.7-6.7c2.1-2.6,4-5.6,5.5-9C109.7,361.3,110.2,360,110.6,358.7z"/>
	</g>
	<path class="st6" d="M142.1,402c0,0-19.4-21.8-55.6-20.3l6.3,8.7l-10.1-7.9c0,0-21,1.7-35.3,6.9c0,0,30.7,16.2,38.5,17.6l10.4-3.1
		l-5.6,7.7c0,0,16.9,9.4,34.3,7.5C142.4,417.1,142.1,402,142.1,402z"/>
	<path class="st14" d="M239.2,237.3h46.7c23.2,0,42,18.8,42,42V378c0,23.2-18.8,42-42,42h-46.7c-23.2,0-42-18.8-42-42v-98.8
		C197.3,256,216.1,237.3,239.2,237.3z"/>
	<rect x="209" y="252.3" class="st15" width="108.3" height="27.9"/>
	<polygon class="st16" points="211.9,256.3 317.4,256.3 317.4,252.3 209,252.3 209,280.2 211.9,280.2 	"/>
	<path class="st17" d="M236.9,298.2h-24.6c-1.8,0-3.2-1.4-3.2-3.2v-3.6c0-1.8,1.4-3.2,3.2-3.2h24.6c1.8,0,3.2,1.4,3.2,3.2v3.6
		C240.1,296.7,238.7,298.2,236.9,298.2z"/>
	<path class="st17" d="M275.5,298.2h-24.6c-1.8,0-3.2-1.4-3.2-3.2v-3.6c0-1.8,1.4-3.2,3.2-3.2h24.6c1.8,0,3.2,1.4,3.2,3.2v3.6
		C278.7,296.7,277.3,298.2,275.5,298.2z"/>
	<path class="st17" d="M314.1,298.2h-24.6c-1.8,0-3.2-1.4-3.2-3.2v-3.6c0-1.8,1.4-3.2,3.2-3.2h24.6c1.8,0,3.2,1.4,3.2,3.2v3.6
		C317.4,296.7,315.9,298.2,314.1,298.2z"/>
	<path class="st18" d="M225.9,328.6h-9.6c-4,0-7.2-3.2-7.2-7.2v-8.1c0-4,3.2-7.2,7.2-7.2h9.6c4,0,7.2,3.2,7.2,7.2v8.1
		C233.1,325.4,229.8,328.6,225.9,328.6z"/>
	<path class="st18" d="M253.9,328.6h-9.6c-4,0-7.2-3.2-7.2-7.2v-8.1c0-4,3.2-7.2,7.2-7.2h9.6c4,0,7.2,3.2,7.2,7.2v8.1
		C261.2,325.4,257.9,328.6,253.9,328.6z"/>
	<path class="st18" d="M282,328.6h-9.6c-4,0-7.2-3.2-7.2-7.2v-8.1c0-4,3.2-7.2,7.2-7.2h9.6c4,0,7.2,3.2,7.2,7.2v8.1
		C289.3,325.4,286,328.6,282,328.6z"/>
	<path class="st18" d="M225.9,356.4h-9.6c-4,0-7.2-3.2-7.2-7.2v-8.1c0-4,3.2-7.2,7.2-7.2h9.6c4,0,7.2,3.2,7.2,7.2v8.1
		C233.1,353.1,229.8,356.4,225.9,356.4z"/>
	<path class="st18" d="M253.9,356.4h-9.6c-4,0-7.2-3.2-7.2-7.2v-8.1c0-4,3.2-7.2,7.2-7.2h9.6c4,0,7.2,3.2,7.2,7.2v8.1
		C261.2,353.1,257.9,356.4,253.9,356.4z"/>
	<path class="st18" d="M282,356.4h-9.6c-4,0-7.2-3.2-7.2-7.2v-8.1c0-4,3.2-7.2,7.2-7.2h9.6c4,0,7.2,3.2,7.2,7.2v8.1
		C289.3,353.1,286,356.4,282,356.4z"/>
	<path class="st19" d="M312.5,306.1h-14.3c-2.7,0-4.9,2.2-4.9,4.9v7v5.7v27.8c0,2.7,2.2,4.9,4.9,4.9h14.3c2.7,0,4.9-2.2,4.9-4.9
		v-27.8V318v-7C317.4,308.3,315.2,306.1,312.5,306.1z"/>
	<path class="st18" d="M225.9,384.1h-9.6c-4,0-7.2-3.2-7.2-7.2v-8.1c0-4,3.2-7.2,7.2-7.2h9.6c4,0,7.2,3.2,7.2,7.2v8.1
		C233.1,380.9,229.8,384.1,225.9,384.1z"/>
	<path class="st18" d="M253.9,384.1h-9.6c-4,0-7.2-3.2-7.2-7.2v-8.1c0-4,3.2-7.2,7.2-7.2h9.6c4,0,7.2,3.2,7.2,7.2v8.1
		C261.2,380.9,257.9,384.1,253.9,384.1z"/>
	<path class="st18" d="M282,384.1h-9.6c-4,0-7.2-3.2-7.2-7.2v-8.1c0-4,3.2-7.2,7.2-7.2h9.6c4,0,7.2,3.2,7.2,7.2v8.1
		C289.3,380.9,286,384.1,282,384.1z"/>
	<path class="st19" d="M310.1,384.1h-9.6c-4,0-7.2-3.2-7.2-7.2v-8.1c0-4,3.2-7.2,7.2-7.2l9.6,0c4,0,7.2,3.2,7.2,7.2v8.1
		C317.4,380.9,314.1,384.1,310.1,384.1z"/>
	<path class="st18" d="M225.9,411.9h-9.6c-4,0-7.2-3.2-7.2-7.2v-8.1c0-4,3.2-7.2,7.2-7.2h9.6c4,0,7.2,3.2,7.2,7.2v8.1
		C233.1,408.7,229.8,411.9,225.9,411.9z"/>
	<path class="st18" d="M253.9,411.9h-9.6c-4,0-7.2-3.2-7.2-7.2v-8.1c0-4,3.2-7.2,7.2-7.2h9.6c4,0,7.2,3.2,7.2,7.2v8.1
		C261.2,408.7,257.9,411.9,253.9,411.9z"/>
	<path class="st19" d="M282,411.9h-9.6c-4,0-7.2-3.2-7.2-7.2v-8.1c0-4,3.2-7.2,7.2-7.2h9.6c4,0,7.2,3.2,7.2,7.2v8.1
		C289.3,408.7,286,411.9,282,411.9z"/>
	<path class="st17" d="M310.1,411.9h-9.6c-4,0-7.2-3.2-7.2-7.2v-8.1c0-4,3.2-7.2,7.2-7.2h9.6c4,0,7.2,3.2,7.2,7.2v8.1
		C317.4,408.7,314.1,411.9,310.1,411.9z"/>
	<g>
		<path class="st20" d="M225.2,367v1.1l-5.6,11.6h-1.8l5.5-11.3v0h-6.2V367H225.2z"/>
	</g>
	<g>
		<path class="st20" d="M244.9,376.5c0-1.6,1-2.7,2.5-3.4l0-0.1c-1.4-0.7-2-1.8-2-2.9c0-2,1.7-3.4,3.9-3.4c2.5,0,3.7,1.6,3.7,3.1
			c0,1.1-0.5,2.2-2.1,3v0.1c1.6,0.6,2.6,1.7,2.6,3.3c0,2.2-1.9,3.7-4.3,3.7C246.5,379.9,244.9,378.4,244.9,376.5z M251.8,376.4
			c0-1.6-1.1-2.3-2.8-2.8c-1.5,0.4-2.3,1.4-2.3,2.6c-0.1,1.3,0.9,2.4,2.6,2.4C250.8,378.7,251.8,377.7,251.8,376.4z M247.1,370
			c0,1.3,1,2,2.4,2.4c1.1-0.4,1.9-1.2,1.9-2.3c0-1-0.6-2.1-2.2-2.1C247.8,368,247.1,368.9,247.1,370z"/>
	</g>
	<g>
		<path class="st20" d="M253.6,400.6c0,4.3-1.6,6.7-4.4,6.7c-2.5,0-4.2-2.3-4.2-6.6c0-4.3,1.8-6.6,4.4-6.6
			C252,394.2,253.6,396.6,253.6,400.6z M246.6,400.8c0,3.3,1,5.2,2.6,5.2c1.8,0,2.6-2.1,2.6-5.3c0-3.1-0.8-5.2-2.6-5.2
			C247.7,395.5,246.6,397.3,246.6,400.8z"/>
	</g>
	<g>
		<path class="st20" d="M274.6,378.5c0.4,0,0.8,0,1.4-0.1c1-0.1,1.9-0.5,2.7-1.2c0.8-0.8,1.5-1.9,1.7-3.4h-0.1
			c-0.7,0.9-1.7,1.4-3,1.4c-2.3,0-3.8-1.7-3.8-3.9c0-2.4,1.7-4.5,4.4-4.5c2.6,0,4.2,2.1,4.2,5.4c0,2.8-0.9,4.8-2.2,6
			c-1,1-2.3,1.6-3.7,1.7c-0.6,0.1-1.2,0.1-1.6,0.1V378.5z M275.2,371.2c0,1.6,1,2.7,2.5,2.7c1.2,0,2.1-0.6,2.5-1.3
			c0.1-0.2,0.2-0.4,0.2-0.6c0-2.2-0.8-3.8-2.6-3.8C276.3,368.1,275.2,369.4,275.2,371.2z"/>
	</g>
	<g>
		<path class="st20" d="M222.2,351.4V348h-5.9v-1.1l5.7-8.1h1.9v7.9h1.8v1.4h-1.8v3.5H222.2z M222.2,346.6v-4.3c0-0.7,0-1.3,0.1-2
			h-0.1c-0.4,0.7-0.7,1.3-1.1,1.9l-3.1,4.3v0H222.2z"/>
	</g>
	<g>
		<path class="st20" d="M252.7,340.1h-4.9l-0.5,3.3c0.3,0,0.6-0.1,1-0.1c1,0,2,0.2,2.7,0.7c1,0.6,1.8,1.7,1.8,3.3
			c0,2.5-2,4.4-4.7,4.4c-1.4,0-2.6-0.4-3.2-0.8l0.4-1.3c0.5,0.3,1.6,0.7,2.7,0.7c1.6,0,3-1.1,3-2.8c0-1.6-1.1-2.8-3.7-2.8
			c-0.7,0-1.3,0.1-1.8,0.1l0.8-6.1h6.1V340.1z"/>
	</g>
	<g>
		<path class="st20" d="M280.9,339.9c-0.4,0-0.8,0-1.3,0.1c-2.7,0.5-4.1,2.4-4.4,4.5h0.1c0.6-0.8,1.7-1.5,3.1-1.5
			c2.3,0,3.8,1.6,3.8,4.1c0,2.3-1.6,4.5-4.2,4.5c-2.7,0-4.5-2.1-4.5-5.4c0-2.5,0.9-4.5,2.2-5.7c1.1-1,2.5-1.7,4.1-1.9
			c0.5-0.1,0.9-0.1,1.3-0.1V339.9z M280.4,347.2c0-1.8-1-2.9-2.6-2.9c-1,0-2,0.6-2.5,1.6c-0.1,0.2-0.2,0.5-0.2,0.8
			c0,2.1,1,3.7,2.8,3.7C279.4,350.3,280.4,349.1,280.4,347.2z"/>
	</g>
	<g>
		<path class="st20" d="M220.6,313.2L220.6,313.2l-2.3,1.2l-0.3-1.3l2.8-1.5h1.5v12.8h-1.7V313.2z"/>
	</g>
	<g>
		<path class="st20" d="M245.1,324.3v-1.1l1.4-1.3c3.3-3.1,4.7-4.7,4.7-6.7c0-1.3-0.6-2.5-2.5-2.5c-1.2,0-2.1,0.6-2.7,1.1l-0.5-1.2
			c0.9-0.7,2.1-1.3,3.6-1.3c2.7,0,3.9,1.9,3.9,3.7c0,2.4-1.7,4.3-4.4,6.8l-1,0.9v0h5.7v1.4H245.1z"/>
	</g>
	<g>
		<path class="st20" d="M274,322.3c0.5,0.3,1.6,0.8,2.8,0.8c2.2,0,2.9-1.4,2.9-2.5c0-1.8-1.6-2.6-3.3-2.6h-1v-1.3h1
			c1.3,0,2.8-0.6,2.8-2.2c0-1-0.6-1.9-2.2-1.9c-1,0-2,0.5-2.6,0.8l-0.5-1.3c0.7-0.5,2-1,3.3-1c2.5,0,3.7,1.5,3.7,3
			c0,1.3-0.8,2.4-2.4,3v0c1.6,0.3,2.8,1.5,2.8,3.3c0,2-1.6,3.8-4.7,3.8c-1.4,0-2.7-0.5-3.3-0.9L274,322.3z"/>
	</g>
	<g>
		<circle class="st20" cx="221.1" cy="405.5" r="1.5"/>
	</g>
	<g>
		<polygon class="st20" points="314.5,332.1 306.4,332.1 306.4,324 304.3,324 304.3,332.1 296.2,332.1 296.2,334.1 304.3,334.1 
			304.3,342.2 306.4,342.2 306.4,334.1 314.5,334.1 		"/>
	</g>
	<g>
		<polygon class="st20" points="282.6,405.4 278.3,401.1 282.6,396.9 281.5,395.8 277.2,400 273,395.8 271.9,396.9 276.1,401.1 
			271.9,405.4 273,406.5 277.2,402.3 281.5,406.5 		"/>
	</g>
	<g>
		<rect x="298.1" y="372.4" class="st20" width="13.6" height="2.1"/>
	</g>
	<g>
		<rect x="298.6" y="396.4" class="st20" width="13.6" height="2.1"/>
	</g>
	<g>
		<rect x="298.6" y="401.7" class="st20" width="13.6" height="2.1"/>
	</g>
	<g>
		<rect x="181.9" y="322.7" class="st10" width="45.7" height="19.3"/>
		<rect x="136.2" y="322.7" class="st21" width="45.7" height="19.3"/>
		<rect x="90.5" y="322.7" class="st22" width="45.7" height="19.3"/>
		<g>
			<path class="st23" d="M228,342.6H90.2v-20.5H228V342.6z M90.9,341.5h136.4v-18.2H90.9V341.5z"/>
		</g>
	</g>
	<g>
		<rect x="174.9" y="361.4" class="st10" width="45.7" height="19.3"/>
		<rect x="129.2" y="361.4" class="st21" width="45.7" height="19.3"/>
		<rect x="83.5" y="361.4" class="st22" width="45.7" height="19.3"/>
		<g>
			<path class="st23" d="M221,381.3H83.2v-20.5H221V381.3z M83.9,380.1h136.4v-18.2H83.9V380.1z"/>
		</g>
	</g>
	<g>
		<rect x="181.9" y="380.7" class="st10" width="45.7" height="19.3"/>
		<rect x="136.2" y="380.7" class="st21" width="45.7" height="19.3"/>
		<rect x="90.5" y="380.7" class="st22" width="45.7" height="19.3"/>
		<g>
			<path class="st23" d="M228,400.6H90.2v-20.5H228V400.6z M90.9,399.5h136.4v-18.2H90.9V399.5z"/>
		</g>
	</g>
	<g>
		<rect x="192.9" y="400" class="st10" width="45.7" height="19.3"/>
		<rect x="147.2" y="400" class="st21" width="45.7" height="19.3"/>
		<rect x="101.5" y="400" class="st22" width="45.7" height="19.3"/>
		<g>
			<path class="st23" d="M239,420H101.2v-20.5H239V420z M101.9,418.8h136.4v-18.2H101.9V418.8z"/>
		</g>
	</g>
	<g>
		<rect x="189.4" y="342" class="st10" width="45.7" height="19.3"/>
		<rect x="143.7" y="342" class="st21" width="45.7" height="19.3"/>
		<rect x="98" y="342" class="st22" width="45.7" height="19.3"/>
		<g>
			<path class="st23" d="M235.5,361.9H97.7v-20.5h137.8V361.9z M98.4,360.8h136.4v-18.2H98.4V360.8z"/>
		</g>
	</g>
	<path class="st24" d="M158.4,194.5l1.4,10.4l-7.4-5.4L129.8,188l17.5,1.6c0,0,8.9,2.2,9.4,2.6C157.2,192.6,158.4,194.5,158.4,194.5
		z"/>
	<polygon class="st25" points="260.8,261.2 260.8,263 264.8,264 264.9,260.1 	"/>
	<path class="st25" d="M269.9,260.8v2.1c0,0,3.9,1.2,3.8,1.2c0,0,0.3-3.5,0.3-3.5L269.9,260.8z"/>
	<polygon class="st6" points="166.1,188.3 129.8,188 158.4,194.5 	"/>
	<polygon class="st6" points="146.7,205 156.3,197.3 129.8,188 	"/>
	<g>
		<path class="st24" d="M203.3,250.7l-0.5-0.7c0.7-0.5,1.4-1.1,2-1.8l0.7,0.6C204.9,249.5,204.1,250.1,203.3,250.7z"/>
	</g>
	<g>
		<path class="st24" d="M208.1,243.7l-0.8-0.3c0.5-1.6,0.8-3.4,1-5.3l0.9,0.1C209,240.2,208.6,242.1,208.1,243.7z M209.1,232.6
			l-0.9,0.1c0-0.2-0.1-0.5-0.1-0.7c-0.1-0.8-0.3-1.6-0.5-2.4c-0.2-0.7-0.4-1.5-0.7-2.2l0.8-0.3c0.3,0.7,0.5,1.5,0.7,2.3
			c0.2,0.8,0.4,1.7,0.5,2.5C209.1,232.1,209.1,232.4,209.1,232.6z M204.7,222.5c-0.9-1.5-2-3-3.2-4.4l0.6-0.6c1.3,1.4,2.4,3,3.3,4.5
			L204.7,222.5z M178,220.5c-0.6,0.1-2.1,0.2-3-0.4c-0.7-0.4-1.3-1.1-1.7-1.9l0.8-0.4c0.3,0.7,0.8,1.2,1.4,1.6
			c0.7,0.4,1.9,0.4,2.4,0.3c0.1,0,0.1,0,0.1,0c0,0,0.1-0.1,0.1-0.1l0.5,0.7c0,0-0.1,0.1-0.1,0.1C178.2,220.4,178.1,220.5,178,220.5z
			 M197.6,214.3c-1.4-1.2-2.8-2.3-4.4-3.3l0.5-0.7c1.6,1,3.1,2.2,4.5,3.3L197.6,214.3z M181.6,215.5l-0.8-0.2
			c0.1-0.5,0.2-1.1,0.2-1.6c0-0.8-0.1-1.5-0.3-2.3c-0.1-0.4-0.2-0.9-0.4-1.3l0.8-0.3c0.2,0.5,0.3,0.9,0.4,1.4
			c0.2,0.8,0.3,1.7,0.3,2.5C181.7,214.3,181.7,214.9,181.6,215.5z M174,212.8l-0.8-0.4c0.8-1.6,2.2-3,4-3.9l0.1-0.1l0.4,0.8
			l-0.1,0.1C176,210.1,174.7,211.4,174,212.8z M188.2,209c-1.6-0.5-2.8-0.8-3.4-0.8c-0.7,0-1.3,0-1.9,0l0-0.9c0.6,0,1.3,0,2,0
			c0.9,0,2.6,0.5,3.6,0.8L188.2,209z M177.4,205.5c-1.2-1.4-2.5-2.6-4.1-3.5l0.5-0.7c1.6,1,3,2.3,4.2,3.7L177.4,205.5z"/>
	</g>
	<g>
		<path class="st24" d="M168.5,199.8c-0.9-0.2-1.8-0.4-2.7-0.5l0.1-0.9c0.9,0.1,1.9,0.3,2.8,0.5L168.5,199.8z"/>
	</g>
	<path class="st2" d="M246.3,178.7l-0.7,4.6l-1.6-6.2c0,0,2.2-1.1,2.3-0.7C246.3,176.9,246.3,178.7,246.3,178.7z"/>
	<polygon class="st25" points="233.9,188.6 233.2,196.6 240.3,196.3 239.4,189.2 	"/>
	<path class="st26" d="M239.8,192.6l-0.4-3.4l-5.6-0.6l-0.2,2.8C234.8,192.5,236.7,193.6,239.8,192.6z"/>
	<g>
		
			<ellipse transform="matrix(0.4353 -0.9003 0.9003 0.4353 -26.952 324.7785)" class="st26" cx="245.4" cy="183.9" rx="1.8" ry="1.4"/>
		<path class="st25" d="M243.6,188.5c0.2-0.4,0.5-0.8,0.6-1.2c0.5-1.1,0.8-2.3,1-3.4c0-0.2,0.1-0.5,0.1-0.7c0.2-0.9,0.3-1.9,0.1-2.9
			c-0.5-3.3-3.1-5.9-6.4-6.3c-4.4-0.6-8.3,2.7-8.6,7c-0.5-0.3-1-0.4-1.5-0.2c-0.9,0.3-1.3,1.5-0.9,2.7c0.4,1.1,1.5,1.8,2.4,1.5
			c0.1,0,0.2-0.1,0.3-0.2c0.1,3.7,3,6.7,6.6,6.9c1.8,0.1,3.4-0.5,4.7-1.6c0.1-0.1,0.2-0.1,0.3-0.2
			C242.9,189.4,243.2,189,243.6,188.5z"/>
		<path class="st26" d="M239.7,181.5c0,0.4,0,0.9,0,1.3c0,0.4,0.1,0.8,0.2,1.1l0,0c0,0,0,0,0,0.1c0,0.1,0.1,0.1,0.1,0.2
			c0.1,0.1,0.1,0.3,0.1,0.4c0,0.3-0.1,0.5-0.3,0.7c-0.4,0.3-0.9,0.4-1.3,0.3c0.4-0.1,0.8-0.2,1.1-0.5c0.1-0.1,0.2-0.3,0.2-0.4
			c0-0.1,0-0.1-0.1-0.2c0,0,0-0.1-0.1-0.1l-0.1-0.1l-0.1-0.1c-0.1-0.2-0.2-0.5-0.2-0.7c0-0.2,0-0.4,0-0.7
			C239.4,182.3,239.5,181.9,239.7,181.5z"/>
		
			<ellipse transform="matrix(4.680368e-02 -0.9989 0.9989 4.680368e-02 43.6318 409.78)" class="st14" cx="236.5" cy="182" rx="0.7" ry="0.7"/>
		
			<ellipse transform="matrix(4.680039e-02 -0.9989 0.9989 4.680039e-02 48.353 415.9939)" class="st14" cx="242.1" cy="182.7" rx="0.7" ry="0.7"/>
		<path class="st26" d="M236.1,186.5c0.2,0.2,0.4,0.3,0.5,0.4c0.2,0.1,0.4,0.2,0.6,0.3c0.4,0.2,0.8,0.3,1.3,0.4
			c0.4,0.1,0.9,0,1.3-0.1c0.4-0.1,0.8-0.3,1.2-0.6c-0.2,0.1-0.4,0.3-0.6,0.4c-0.2,0.1-0.4,0.2-0.6,0.3c-0.2,0.1-0.4,0.1-0.7,0.1
			c-0.2,0-0.5,0-0.7,0c-0.5-0.1-0.9-0.2-1.3-0.4C236.7,187.1,236.4,186.9,236.1,186.5z"/>
		<path class="st2" d="M238,180.6c-0.3-0.1-0.6-0.2-1-0.2c-0.3,0-0.6-0.1-0.9,0c-0.3,0-0.6,0.1-0.9,0.2c-0.2,0-0.3,0.1-0.4,0.2
			c-0.1,0.1-0.3,0.2-0.5,0.2c0.1-0.2,0.2-0.3,0.3-0.4c0.1-0.1,0.2-0.3,0.4-0.4c0.3-0.2,0.7-0.3,1-0.4c0.4,0,0.7,0,1.1,0.1
			C237.5,180.1,237.8,180.3,238,180.6z"/>
		<path class="st2" d="M240.9,180.9c0.3-0.2,0.6-0.4,1-0.4c0.4-0.1,0.7,0,1.1,0.1c0.4,0.1,0.7,0.3,0.9,0.6c0.1,0.1,0.2,0.3,0.3,0.4
			c0.1,0.2,0.1,0.3,0.2,0.5c-0.1-0.1-0.3-0.2-0.4-0.3c-0.1-0.1-0.3-0.2-0.4-0.3c-0.3-0.2-0.5-0.3-0.8-0.4c-0.3-0.1-0.6-0.1-0.9-0.2
			C241.6,180.8,241.3,180.9,240.9,180.9z"/>
	</g>
	<path class="st5" d="M237.8,226.1c0,0-1.5,10,8.2,11.7c9.6,1.7,21.6,1.2,21.6,1.2l1.7,22.9l5,0.3c0,0,12.9-31.8-5-36.8l-16.1,0.1
		l-6.6-0.5c0,0-6.7-1.7-6.8-1.3C239.7,223.9,237.9,226.2,237.8,226.1z"/>
	<path class="st4" d="M228.9,226.1c0,0-1.5,10,8.2,11.7c9.6,1.7,21.6,1.2,21.6,1.2l1.7,22.9l5,0.3c0,0,12.9-31.8-5-36.8l-16.1,0.1
		l-6.6-0.5c0,0-6.7-1.7-6.8-1.3C230.8,224,229.1,226.3,228.9,226.1z"/>
	<path class="st14" d="M241,193.4c0,0,6.6,0.8,8.3,2.2c1.7,1.4,9.8,21.5,9.8,21.5l-6.7,7.9l-14.3,0.1c0,0-10.7,5.8-17.5,0.3
		c-6.7-5.5-3.3-24.5,0.6-28.6c3.9-4.1,10.8-4,10.8-4S238.4,197.2,241,193.4z"/>
	<path class="st20" d="M228.2,203.4c0.2,1.1,0.4,2.2,0.5,3.3c0.1,0.6,0.1,1.1,0.1,1.7c0,0.6,0,1.1,0,1.7c0,1.1-0.1,2.2-0.3,3.4
		c-0.2,1.1-0.5,2.2-1,3.2c0.3-1.1,0.5-2.2,0.6-3.3c0.1-1.1,0.2-2.2,0.2-3.3c0-1.1,0-2.2,0-3.3C228.3,205.7,228.3,204.5,228.2,203.4z
		"/>
	<path class="st20" d="M248,202.7c0.3,1.6,0.6,3.3,0.9,4.9c0.3,1.6,0.7,3.2,1.1,4.8c0.4,1.6,0.8,3.2,1.3,4.8
		c0.3,0.8,0.6,1.6,0.9,2.3c0.3,0.7,0.7,1.5,1.3,2.1c-0.6-0.6-1.1-1.3-1.5-2c-0.4-0.7-0.7-1.5-1-2.3c-0.3-0.8-0.6-1.6-0.8-2.4
		c-0.2-0.8-0.4-1.6-0.6-2.4c-0.2-0.8-0.4-1.6-0.5-2.4c-0.2-0.8-0.3-1.6-0.4-2.4C248.4,206,248.2,204.3,248,202.7z"/>
	<path class="st25" d="M251.4,220.4c0-0.3-2.6-0.7-3.5-0.8c-0.7,0-5.4-0.2-7-0.3l0.1,0.4l0,1.8l-0.3,1.2c1.4,0.1,4.8,0.2,5.5,0.4
		c0.9,0.2,2.6,0.9,2.6,0.9s0.7-0.2-0.2-0.5c-0.7-0.3-1.2-0.8-1.4-1c-0.1-0.1,0-0.4,0.1-0.3c2.4,0.6,2.6,0.7,2.6,0.7s2.8,0,0-0.6
		c-1.7-0.4-2.2-0.6-2.4-0.8c-0.1-0.1,0-0.3,0.2-0.4c1.4-0.1,4,0.4,3.3,0.1c-0.6-0.3-2.4-0.6-3.1-0.7c0,0-0.1-0.3,0.1-0.3
		C249.4,220.2,251.4,220.7,251.4,220.4z"/>
	<path class="st20" d="M226.6,216.4c0.6,0.1,1.2,0.3,1.7,0.4c0.6,0.1,1.2,0.2,1.8,0.4c1.2,0.2,2.3,0.4,3.5,0.6
		c1.2,0.2,2.4,0.3,3.5,0.4c1.2,0.1,2.4,0.2,3.6,0.3l0.2,0l0,0.1c0.1,0.4,0.2,0.8,0.2,1.2c0,0.4,0.1,0.8,0.1,1.2c0,0.4,0,0.8-0.1,1.2
		c-0.1,0.4-0.2,0.8-0.3,1.2l0,0l0,0l-1.3,0.9c-0.4,0.3-0.9,0.6-1.3,0.9c0.4-0.3,0.8-0.6,1.2-1l1.2-1l0,0c0.1-0.4,0.2-0.7,0.3-1.1
		c0-0.4,0.1-0.8,0.1-1.1c0-0.4-0.1-0.8-0.1-1.1c-0.1-0.4-0.1-0.8-0.2-1.1l0.2,0.1c-0.6,0-1.2-0.1-1.8-0.1c-0.6,0-1.2-0.1-1.8-0.2
		c-1.2-0.1-2.4-0.3-3.6-0.5c-1.2-0.2-2.4-0.4-3.5-0.7c-0.6-0.1-1.2-0.3-1.7-0.5C227.7,216.8,227.2,216.6,226.6,216.4z"/>
	<path class="st6" d="M281.3,207.1h-25.9l-7.3,17.9h-8.9c-0.3,0-0.6,0.3-0.6,0.6c0,0.3,0.3,0.6,0.6,0.6h33.5L281.3,207.1z"/>
	<ellipse transform="matrix(0.1962 -0.9806 0.9806 0.1962 1.9979 436.4931)" class="st27" cx="267.2" cy="217" rx="1.4" ry="1.2"/>
	<path class="st2" d="M246.4,174.3c0,0,2.2,0.1-0.1-1.8c-2.3-1.9-8.5-4.1-12.5-2c0,0-0.8-1.7-2-1.3c-1.2,0.4,0.7,1.6,0.7,1.6
		s-1.5,0-1.9,0.7c-0.3,0.5,0.6,0.6,1.1,0.5c-0.8,0.1-4.1,2.2-2.4,8.7c0.6-0.1,3.8-4.9,3.8-4.9s7.5,4.2,6.7,0.9c0,0,7.7,4.8,6.6,0.8
		C246.5,177.6,249.5,177.8,246.4,174.3z"/>
	<path class="st2" d="M229.2,180.8c0,0,0.6-0.2,1.3,0.3c0.7,0.5,0.6,2.4,0.6,2.4s3.2,2,2.8-6.6c-0.4-9.2-2.6,0.7-2.6,0.7
		L229.2,180.8z"/>
	<polygon class="st21" points="115.1,169.1 95.7,195.3 102.7,198.6 94.2,219.8 115.1,195.5 106.9,192.3 	"/>
	<path class="st25" d="M135.9,320.4l4-2.5l3.5,2.1l-1.2,0.9l-4.2,0.6c0,0-1.6-0.2-1.7-0.3C136.2,321.2,135.9,320.4,135.9,320.4z"/>
	<path class="st4" d="M135.9,320.4l-1,0.7c-0.5,0.3-0.3,1,0.3,1l7.7,0c0.3,0,0.5-0.2,0.5-0.5l0-1.6
		C138.2,321.6,136.5,321.1,135.9,320.4z"/>
	<path class="st25" d="M152.8,320.6l4-2.5l3.5,2.1l-1.2,0.9l-4.2,0.6c0,0-1.6-0.2-1.7-0.3C153.1,321.3,152.8,320.6,152.8,320.6z"/>
	<path class="st4" d="M152.8,320.6l-1,0.7c-0.5,0.3-0.3,1,0.3,1l7.7,0c0.3,0,0.5-0.2,0.5-0.5l0-1.6
		C155.2,321.8,153.4,321.3,152.8,320.6z"/>
	<polygon class="st21" points="15.2,212.1 29.8,232.7 33.9,228.4 47.4,239.7 34.7,218.5 30.3,223.7 	"/>
	<polygon class="st21" points="60.9,181.5 58.6,200.2 63.1,199.9 64.8,212.9 68.4,194.8 63.4,195.5 	"/>
	<path class="st4" d="M192.2,252.2c0,0,2.5-1.6,5.3,0c2.8,1.6,2.8,7.1,1.7,8.4c-1.1,1.3,0.1,3.1-2.2,4.8c-2.2,1.7-5.8,2.3-7.8,0.3
		c-2-2-0.5-6.5-0.5-6.5L192.2,252.2z"/>
	<path class="st25" d="M161,270.4c0,0.1-0.2,0.1-0.3,0c-0.5-0.8-2.3-3.3-2.5-3.2c-0.3,0.1,1.2,2.4,1.1,2.6c-0.2,0.2-1.6-2-1.8-1.8
		c-0.3,0.2,1.1,2.2,1,2.3c-0.1,0.1-1.6-1.7-1.8-1.7c-0.2,0,1.1,2.1,1.1,2.3c-0.1,0.2-1.5-1-1.6-0.8c-0.1,0.1-0.2,0.2,2.3,3.6
		c0,0,1.1,1.1,1.2,1.5l1.3,0.4l1.3-1.3c0,0,0.1-5.5-0.1-5.6C161.8,268.6,161.7,268.7,161,270.4z"/>
	<polygon class="st28" points="165.6,303.2 160.6,320.4 154.5,318.7 156.5,304.2 162.8,299.9 	"/>
	<path class="st2" d="M185.4,267.7c0,0-10.6,13-12.4,15.1l-10.7-10.6c0,0-2.2,1.2-3.3,2.5c0,0,4.3,10,8.1,12.6l7.5,5l-1.4,3.4
		l2.7,2.1l1.4-3.4l3.8-8.5l3.6-11.3l0.7-5.6L185.4,267.7z"/>
	<path class="st20" d="M185.3,269c0,0-4.5,7.3-5.4,10.1c-0.9,2.8-0.2,3-0.6,6.5c-0.4,3.4-3.5,12.5-3.5,12.5l5.2,3.5
		c0,0,2.8-9,2.8-9.4s2.6-16.8,2.6-16.8l2.2-6.1L185.3,269z"/>
	<path class="st14" d="M180.5,301.2c0,0-8.9-8-15.9-9.6c-6.9-1.6-25.5,26.4-25.5,26.4l4.4,3.2c0,0,16.1-11.6,19.1-16.7
		c0,0,13.1,17.2,17.4,17.6c4.4,0.4,9.3-0.5,15.1-7.5C201.9,306.7,180.5,301.2,180.5,301.2z"/>
	<path class="st25" d="M189.4,261.9l2,5.3c0,0-1.4,3.3-6.2,2.1c0,0,0.5-1.1-0.3-3.4C184,263.6,189.4,261.9,189.4,261.9z"/>
	<path class="st29" d="M189.4,261.9l0.9,2.5c-0.4,1.9-2,3.2-5,3.7c0-0.5-0.1-1.3-0.5-2.2C184,263.6,189.4,261.9,189.4,261.9z"/>
	<path class="st20" d="M161.9,299.3c-0.1,0.4-0.1,0.9-0.1,1.3c0,0.4,0,0.9,0.1,1.3c0.1,0.4,0.2,0.9,0.3,1.3c0.1,0.4,0.3,0.9,0.4,1.3
		l0.1-0.1c-0.2-0.2-0.5-0.4-0.7-0.5c-0.2-0.2-0.4-0.4-0.6-0.6c-0.2-0.2-0.4-0.4-0.6-0.7c-0.2-0.2-0.4-0.5-0.5-0.7
		c0.2,0.3,0.3,0.5,0.5,0.7c0.2,0.2,0.4,0.5,0.6,0.7c0.2,0.2,0.4,0.4,0.6,0.6c0.2,0.2,0.4,0.4,0.7,0.6l0.2,0.1l-0.1-0.2
		c-0.2-0.4-0.3-0.8-0.4-1.3c-0.1-0.4-0.2-0.9-0.3-1.3c-0.1-0.4-0.1-0.9-0.2-1.3C161.8,300.2,161.9,299.7,161.9,299.3z"/>
	
		<ellipse transform="matrix(0.9003 -0.4353 0.4353 0.9003 -95.0691 102.9187)" class="st26" cx="177.1" cy="259" rx="1.4" ry="1.7"/>
	<path class="st25" d="M178.9,263.5c-0.2-0.4-0.5-0.8-0.6-1.2c-0.5-1.1-0.8-2.3-1-3.4c0-0.2-0.1-0.4-0.1-0.7
		c-0.2-0.9-0.3-1.9-0.1-2.9c0.5-3.2,3.1-5.8,6.3-6.2c4.4-0.6,8.2,2.6,8.5,6.9c0.4-0.3,1-0.4,1.4-0.2c0.9,0.3,1.3,1.5,0.9,2.7
		c-0.4,1.1-1.5,1.8-2.4,1.4c-0.1,0-0.2-0.1-0.3-0.2c-0.1,3.7-2.9,6.6-6.5,6.8c-1.7,0.1-3.4-0.5-4.6-1.6c-0.1-0.1-0.2-0.1-0.3-0.2
		C179.6,264.4,179.2,264,178.9,263.5z"/>
	<path class="st26" d="M182.8,256.6c0,0.4,0,0.8,0,1.2c0,0.2,0,0.4-0.1,0.6c0,0.2-0.1,0.4-0.2,0.5l0,0.1c0,0,0,0,0,0.1
		c0,0-0.1,0.1-0.1,0.1c0,0.1-0.1,0.1-0.1,0.2c0,0.1,0,0.1,0,0.2c0,0.3,0.1,0.5,0.3,0.6c0.2,0.2,0.4,0.2,0.6,0.3c0.2,0,0.4,0,0.6,0
		c-0.2,0-0.4-0.1-0.6-0.1c-0.2-0.1-0.4-0.2-0.5-0.3c-0.1-0.1-0.2-0.3-0.2-0.5c0,0,0-0.1,0-0.1c0,0,0-0.1,0.1-0.1
		c0,0,0.1-0.1,0.1-0.1c0,0,0.1-0.1,0.1-0.1c0.1-0.2,0.2-0.4,0.2-0.6c0-0.2,0-0.4,0-0.6C183,257.4,182.9,257,182.8,256.6z"/>
	
		<ellipse transform="matrix(0.9989 -4.676709e-02 4.676709e-02 0.9989 -11.8225 8.9743)" class="st14" cx="185.9" cy="257.1" rx="0.6" ry="0.6"/>
	
		<ellipse transform="matrix(0.9989 -4.676709e-02 4.676709e-02 0.9989 -11.8578 8.7156)" class="st14" cx="180.3" cy="257.8" rx="0.6" ry="0.6"/>
	<path class="st30" d="M185.5,262.1c0,0-0.9-0.3-1.8,0.3c0,0-1-0.6-1.7,0c0,0,0.4,1.4,1.9,1.2C185.5,263.5,185.5,262.1,185.5,262.1z
		"/>
	<path class="st26" d="M186.3,261.6c-0.2,0.1-0.3,0.3-0.5,0.4c-0.2,0.1-0.4,0.2-0.6,0.3c-0.4,0.2-0.8,0.3-1.3,0.4
		c-0.4,0.1-0.9,0-1.3-0.1c-0.4-0.1-0.8-0.3-1.2-0.6c0.2,0.1,0.4,0.3,0.6,0.4c0.2,0.1,0.4,0.2,0.6,0.3c0.2,0.1,0.4,0.1,0.7,0.1
		c0.2,0,0.5,0,0.7,0c0.5-0.1,0.9-0.2,1.3-0.4C185.7,262.2,186,261.9,186.3,261.6z"/>
	<path class="st4" d="M184.4,255.7c0.3-0.1,0.6-0.2,0.9-0.2c0.3,0,0.6-0.1,0.9,0c0.3,0,0.6,0.1,0.9,0.2c0.1,0,0.3,0.1,0.4,0.2
		c0.1,0.1,0.3,0.2,0.4,0.2c-0.1-0.2-0.2-0.3-0.3-0.4c-0.1-0.1-0.2-0.3-0.4-0.4c-0.3-0.2-0.6-0.3-1-0.4c-0.4,0-0.7,0-1.1,0.1
		C184.9,255.2,184.6,255.4,184.4,255.7z"/>
	<path class="st4" d="M181.6,256c-0.3-0.2-0.6-0.4-0.9-0.4c-0.3-0.1-0.7,0-1.1,0.1c-0.3,0.1-0.7,0.3-0.9,0.6
		c-0.1,0.1-0.2,0.3-0.3,0.4c-0.1,0.2-0.1,0.3-0.2,0.5c0.1-0.1,0.3-0.2,0.4-0.3c0.1-0.1,0.2-0.2,0.4-0.3c0.3-0.2,0.5-0.3,0.8-0.4
		c0.3-0.1,0.6-0.1,0.9-0.2C180.9,256,181.2,256,181.6,256z"/>
	<g>
		
			<ellipse transform="matrix(0.9275 -0.3739 0.3739 0.9275 -93.6356 78.3144)" class="st10" cx="155.1" cy="280.5" rx="22.8" ry="22.8"/>
		
			<ellipse transform="matrix(0.9275 -0.3739 0.3739 0.9275 -93.6361 78.315)" class="st11" cx="155.1" cy="280.5" rx="20.5" ry="20.5"/>
		<g>
			<g>
				<path class="st10" d="M162.2,298.3c-9.8,4-21-0.8-24.9-10.6c-4-9.8,0.8-21,10.6-24.9c9.8-4,21,0.8,24.9,10.6
					C176.8,283.2,172,294.4,162.2,298.3z M148.2,263.4c-9.4,3.8-14,14.6-10.2,24c3.8,9.4,14.6,14,24,10.2c9.4-3.8,14-14.6,10.2-24
					C168.4,264.2,157.6,259.6,148.2,263.4z"/>
			</g>
		</g>
		<path class="st12" d="M155.8,273.8c-0.7-0.9-1.4-1.5-2.6-1.6c0,0.2,0,0.3,0.1,0.4c0.6,1.6,1.3,3.2,1.9,4.8
			c0.1,0.4,0.3,0.4,0.7,0.4c0.9-0.1,1.8-0.1,2.6-0.1c3.1,0.1,4.9,2,5.7,4.7c0.9,3.3-0.1,5.9-3,7.9c-0.5,0.4-0.6,0.7-0.3,1.2
			c0.2,0.4,0.3,0.8,0.5,1.2c-0.7,0.3-1.3,0.5-2.1,0.8c-0.3-0.6-0.5-1.2-0.7-1.8c-4.8,1.1-7.4-1.6-8.6-3.9c1.2-0.6,2.3-1.2,3.5-1.9
			c0.9,1.2,2,2,3.6,2.3c-0.4-0.9-0.7-1.7-1-2.4c-0.4-1-0.9-2.1-1.3-3.1c-0.1-0.4-0.3-0.5-0.8-0.5c-1.4,0.1-2.7,0-4-0.5
			c-2.6-1.1-3.8-3.2-4.1-5.8c-0.2-2.4,0.9-4.3,3-5.7c0.1-0.1,0.3-0.2,0.4-0.3c0.1,0,0.1-0.1,0.2-0.2c-0.2-0.5-0.4-1-0.6-1.5
			c0.7-0.3,1.4-0.5,2.1-0.8c0.1,0.4,0.3,0.7,0.4,1.1c0.1,0.4,0.3,0.5,0.7,0.4c1.7-0.4,3.4-0.2,4.9,0.8c0.8,0.5,1.4,1.2,2,2.2
			C158,272.5,156.9,273.1,155.8,273.8z M157.1,281.9c0.8,1.9,1.5,3.7,2.2,5.5c1.2-0.6,1.8-2.2,1.4-3.6
			C160.2,282.4,158.8,281.7,157.1,281.9z M150.9,273c-1,1-1.3,2.3-0.8,3.3c0.5,1.1,1.7,1.8,2.8,1.6
			C152.3,276.3,151.6,274.7,150.9,273z"/>
	</g>
	<path class="st25" d="M163.1,284.7c0,0.1-0.1,0.3-0.2,0.2c-1-0.2-4.3-0.9-4.4-0.6c-0.1,0.3,2.8,1,2.8,1.3c0,0.3-2.8-0.4-2.9-0.1
		c-0.1,0.3,2.5,0.9,2.5,1.1c0,0.2-2.5-0.1-2.7,0c-0.2,0.2,2.5,0.8,2.6,1c0.1,0.2-1.9,0.4-1.9,0.5c0,0.2,0,0.3,4.6,1.2l1.8,0.3
		l1.6-0.6l0.1-2.1c0,0-4-4.5-4.3-4.4C162.4,282.5,162.4,282.7,163.1,284.7z"/>
	<path class="st3" d="M191.2,266.4c0,0,9.1,11,7.9,30.3c-1.2,19.4-1.5,19.5-1.5,19.5s-5.6-0.6-9.7-3.9c-4.1-3.3-9.2-5.6-9.2-5.6
		l3.4-10.9c0,0-4.4,0.1-7.6-1.2c-3.2-1.3-9.8-4.9-9.8-4.9s0.6-3.3,1.2-4.3c0,0,8.4,2.6,12.7,2.6
		C178.6,288.1,183.5,272.8,191.2,266.4z"/>
	<path class="st2" d="M190.6,269.9c-1.4,1.2-2.7,2.5-3.9,3.9c-1.2,1.4-2.3,2.9-3.3,4.4l-0.4,0.6c-0.1,0.2-0.3,0.4-0.4,0.6l-0.7,1.2
		c-0.1,0.2-0.2,0.4-0.3,0.6l-0.3,0.6l-0.3,0.6c-0.1,0.2-0.2,0.4-0.3,0.6l-0.6,1.2l-0.5,1.3l-0.3,0.6l-0.2,0.7
		c-0.1,0.4-0.3,0.9-0.4,1.3c0.2-0.4,0.3-0.9,0.5-1.3l0.2-0.6l0.3-0.6l0.6-1.3l0.6-1.2c0.1-0.2,0.2-0.4,0.3-0.6l0.3-0.6l0.3-0.6
		c0.1-0.2,0.2-0.4,0.3-0.6l0.7-1.2c0.1-0.2,0.2-0.4,0.4-0.6l0.4-0.6c1-1.5,2.1-3,3.3-4.4l0.9-1c0.3-0.3,0.6-0.7,0.9-1
		C189.3,271.2,189.9,270.5,190.6,269.9z"/>
	<path class="st2" d="M194.5,277.6c-0.8,1.7-1.6,3.4-2.4,5c-0.4,0.8-0.8,1.6-1.3,2.5c-0.4,0.8-0.9,1.6-1.4,2.4
		c-0.5,0.8-1,1.6-1.5,2.3c-0.3,0.4-0.5,0.8-0.8,1.1c-0.3,0.4-0.5,0.7-0.8,1.1c-0.6,0.7-1.2,1.4-1.8,2.1c-0.7,0.6-1.4,1.2-2.2,1.6
		c0.9-0.4,1.6-0.9,2.3-1.5c0.7-0.6,1.3-1.3,1.9-2c0.6-0.7,1.1-1.5,1.7-2.2c0.5-0.8,1-1.6,1.5-2.3c0.9-1.6,1.8-3.2,2.6-4.9
		C193.1,281,193.9,279.3,194.5,277.6z"/>
	<path class="st4" d="M176.8,249.8c1.1-2.3,3.1-3.6,4.9-4.4c2.2-0.9,4.7-1,6.9-0.1c6.3,2.4,5,9.3,4.7,10.6c-0.3-0.1-0.7-0.1-1.2,0.2
		c-0.2,0.1-0.4,0.2-0.5,0.4c-1.2-0.4-1.6-2.4-2.2-3.4c-0.9-1.3-4.2-0.1-5.6-1c-1.4-0.9-1.7-1.9-1.7-1.9c-5.5,0.9-5.1,7.1-5.1,7.1
		c-0.2-0.1-0.8-1-0.8-1S174.8,254.1,176.8,249.8z"/>
	<polygon class="st25" points="382.3,337.8 370.5,345.2 369.6,415.1 371.9,416.7 374.3,416.2 381,370.2 386.4,340.6 	"/>
	<path class="st25" d="M406.3,406.3c-5.3-14.2-14.5-23.9-14.5-23.9s1.7-4.7,3.5-20.1c1.8-15.4-5.7-25.1-5.7-25.1l-13.3,4
		c0,0,6.8,40.3,7.8,42.9c0.8,2,11.6,16.5,16.3,22.6l0,0.1l2.1,2.7v0l0,0l2,2.5l2.3-1.1l0.4-2.9L406.3,406.3z"/>
	<path class="st14" d="M370.5,344.2c0,0-3.1,23.7-2.8,41.4c0,0,12,1.9,20.8,1.2l0.4-10.1l1.9,9.6c0,0,4.4-0.2,6.3-1.8
		c0,0-1.2-10.1-0.9-17.9c0.4-7.8,0-17.6-2.5-24.1c-2.6-6.5-16.8,0.6-16.8,0.6L370.5,344.2z"/>
	<path class="st14" d="M386.5,284.5c0,0,2.7,2.1,3.5,5c0.7,2.5,3.8,2.1,5.8,5.4c2.2,3.7,5.2,9.3-1.8,13.1c-4.4,2.3-11.4,4.1-13,2.6
		c-1.6-1.6-5.4-0.9-4.5-17.6c0,0,10.3-5.8,10.4-5.9C387.1,287.2,386.5,284.5,386.5,284.5z"/>
	<path class="st5" d="M372.7,332.1l1.3-5.4l-3.1-8.4c0,0-1.7,6.7-4.3,12.7l-9.5,1.2l-2,0.4c0,0,13,7.4,16.5,2
		c0.4,0.1,0.6,0.1,0.6,0.1l0.3-1.4c0.2-0.3,0.3-0.6,0.4-1L372.7,332.1z"/>
	<polygon class="st25" points="384.8,302.7 384.6,306.6 379.1,307.8 378.1,307.8 378.3,303 384.1,301 	"/>
	<path class="st25" d="M376.3,309c-0.2,2.7,0.9,3.2,0.9,3.2l8.2-6.1c-5.1,0.5-8.4,1-8.4,1S376.5,309.1,376.3,309z"/>
	<path class="st14" d="M389.9,294c0,0,1.7-6.9-2.3-9.5c-4-2.6-8.2-2.3-11.1-0.7c-2.9,1.5-4.6,6.9-3.3,10l9.6-2.9L389.9,294z"/>
	<path class="st26" d="M384.9,301.6c0,0-0.1,1.2-0.2,2.6c-2.1,2.3-5.9,1.5-6.5,1.3c0-0.7,0-2.2,0-2.2L384.9,301.6z"/>
	
		<ellipse transform="matrix(0.9385 -0.3454 0.3454 0.9385 -79.0962 147.0289)" class="st26" cx="373.1" cy="295.5" rx="1.4" ry="1.8"/>
	<path class="st25" d="M374.5,300.3c-0.2-0.4-0.4-0.8-0.5-1.3c-0.4-1.2-0.6-2.4-0.6-3.5c0-0.2,0-0.5-0.1-0.7
		c-0.1-0.9-0.1-1.9,0.2-2.9c0.8-3.2,3.7-5.6,7.1-5.8c4.5-0.2,8.1,3.5,8,7.9c0.5-0.2,1-0.3,1.5-0.1c0.9,0.4,1.2,1.7,0.6,2.8
		c-0.5,1.1-1.7,1.7-2.6,1.2c-0.1-0.1-0.2-0.1-0.3-0.2c-0.5,3.7-3.7,6.5-7.3,6.3c-1.8-0.1-3.4-0.9-4.6-2.1c-0.1-0.1-0.2-0.2-0.2-0.3
		C375,301.3,374.7,300.8,374.5,300.3z"/>
	
		<ellipse transform="matrix(5.093452e-02 -0.9987 0.9987 5.093452e-02 67.8586 661.6434)" class="st14" cx="382.1" cy="295.1" rx="0.7" ry="0.7"/>
	
		<ellipse transform="matrix(5.094040e-02 -0.9987 0.9987 5.094040e-02 61.8127 655.2817)" class="st14" cx="375.7" cy="295.1" rx="0.7" ry="0.7"/>
	<path class="st14" d="M380.7,293.9c0.3-0.2,0.7-0.3,1-0.4c0.3-0.1,0.7-0.1,1-0.1c0.2,0,0.3,0,0.5,0.1c0.1,0,0.2,0.1,0.3,0.1
		c0,0,0.1,0,0.1,0.1c0,0,0.1,0,0.1,0.1c0.3,0.2,0.6,0.4,0.9,0.6c-0.2-0.3-0.5-0.6-0.8-0.8c-0.2-0.1-0.3-0.2-0.5-0.2
		c-0.2-0.1-0.4-0.1-0.6-0.1c-0.4,0-0.8,0-1.1,0.1c-0.2,0.1-0.3,0.1-0.5,0.2C381,293.6,380.9,293.8,380.7,293.9z"/>
	<path class="st14" d="M377.8,293.9c-0.1-0.1-0.3-0.2-0.4-0.3c-0.2-0.1-0.3-0.2-0.5-0.2c-0.4-0.1-0.7-0.2-1.1-0.1
		c-0.2,0-0.4,0.1-0.6,0.1c-0.2,0.1-0.4,0.1-0.5,0.2c-0.3,0.2-0.6,0.5-0.8,0.8c0.3-0.2,0.6-0.4,0.9-0.6c0,0,0.1,0,0.1-0.1
		c0,0,0.1,0,0.1-0.1c0.1,0,0.2-0.1,0.3-0.1c0.2,0,0.3-0.1,0.5-0.1c0.3,0,0.7,0,1,0.1C377.2,293.6,377.5,293.7,377.8,293.9z"/>
	<path class="st20" d="M394.2,318c-0.2-0.2-0.3-0.4-0.5-0.6c-0.1-0.2-0.3-0.4-0.4-0.7c-0.1-0.2-0.2-0.5-0.3-0.7
		c-0.1-0.2-0.2-0.5-0.3-0.7c0,0.3,0.1,0.5,0.2,0.8c0,0.1,0.1,0.2,0.1,0.4c0.1,0.1,0.1,0.2,0.2,0.4c0.1,0.2,0.3,0.5,0.4,0.7
		c0.1,0.2,0.3,0.3,0.4,0.5c-0.1,0-0.3,0-0.4,0.1c-0.2,0-0.4,0-0.6,0c-0.1,0-0.2,0-0.3-0.1c-0.1,0-0.2,0-0.3-0.1
		c-0.2-0.1-0.4-0.2-0.5-0.2c0.2,0.1,0.3,0.2,0.5,0.3c0.2,0.1,0.4,0.2,0.6,0.2c0.2,0,0.4,0.1,0.6,0.1c0.2,0,0.4,0,0.6-0.1l0.1,0
		L394.2,318z"/>
	<path class="st26" d="M378.7,294.8c-0.2,0.3-0.4,0.7-0.5,1c-0.2,0.3-0.3,0.7-0.4,1.1c0,0.2-0.1,0.4-0.1,0.6c0,0.1,0,0.1,0,0.2
		c0,0,0,0.1,0,0.1c0,0,0,0.1,0,0.1c0,0,0,0,0,0l0,0c0,0,0,0,0.1,0c0,0,0.1,0.1,0.1,0.1c0.2,0.1,0.4,0.2,0.5,0.2
		c0.2,0.1,0.4,0.1,0.6,0.1c-0.3-0.2-0.7-0.3-1-0.5c0,0-0.1-0.1-0.1-0.1l0,0l0,0c0,0,0,0,0,0c0,0,0-0.1,0-0.2c0-0.2,0.1-0.4,0.1-0.5
		c0.1-0.4,0.2-0.7,0.3-1.1C378.4,295.5,378.6,295.1,378.7,294.8z"/>
	<path class="st4" d="M392.9,329.4C392.9,329.4,392.9,329.4,392.9,329.4c1-5.4,1.4-11.3,1.4-11.3c0.1-1.3-1.5-3.2-1.6-4.3
		c-1.4-1.1-1.7-2-1.7-2l-2.4-4.9c0,0-1.6-0.8-1.6-0.8c-1.2-0.1-1.8,0-1.8,0l-4.1,3.1c-1.7,1.3-4.1,0.1-4.2-2l0,0c0,0,0,0,0,0
		c-3.6,2.9-6,4.2-6.5,8.8c-0.3,3.2,1.4,5.9,1.6,9l-1.6,19.3c0,0,13.5,0.2,23.3-1.7C393.8,342.5,392.8,337.1,392.9,329.4z"/>
	<g>
		<path class="st14" d="M369.4,343.4l-14.1,0.8c-0.9,0.1-1.9-0.5-2.2-1.3l-7.4-17.1c-0.3-0.8,0.1-1.4,1-1.5l14.1-0.8
			c0.9-0.1,1.9,0.5,2.2,1.3l7.4,17.1C370.7,342.7,370.2,343.3,369.4,343.4z"/>
		<path class="st31" d="M356.6,324.6l-4.8,0.3c-0.4,0-0.8-0.2-1-0.5l-0.1-0.3c-0.1-0.3,0.1-0.6,0.4-0.6l4.8-0.3c0.4,0,0.8,0.2,1,0.5
			l0.1,0.3C357.2,324.3,357,324.6,356.6,324.6z"/>
	</g>
	<path class="st25" d="M351.4,339L351.4,339c-0.4,0.2-0.8,0-1-0.3l-2.2-3.8c-0.1-0.2-0.1-0.4,0-0.6c0.4-0.6,1.2-1.7,1.5-1.7
		c0.4,0.1-0.7,2-0.6,2c0.2,0,1.7-1.2,1.8-1c0.1,0.2-1.3,1.7-1.2,1.8c0.1,0.1,1.7-0.8,1.8-0.6c0.2,0.1-1.3,1.3-1.3,1.4L351.4,339z"/>
	<path class="st25" d="M350.1,336.2c0,0,1.6-0.5,1.7-0.3c0.1,0.2-1.7,1.2-1.7,1.1C350.1,337,350.1,336.2,350.1,336.2z"/>
	<path class="st14" d="M389.4,293l-0.2,0l-0.1-1.5l-0.7-1.4c0,0-2.6-3.7-2.7-3.8c-0.1-0.1-2.1-1.3-2.2-1.4c-0.1-0.1-2.9,0.4-2.9,0.4
		s-4.9-1.1-4.1,1.7s4.4,4.2,4.6,4.1c-0.6-0.6-0.6-2.4-0.6-2.4c2.8,3.2,8,5.3,8,5.3s0.5-0.4,1.5-0.1L389.4,293z"/>
	<path class="st20" d="M377.1,299.5c0.2,0.8,1,1.5,2,1.5s1.8-0.7,1.9-1.5L377.1,299.5z"/>
	<path class="st25" d="M395.4,319.4c0,0-2-11-8.1-13.3c-1.7-0.6-3.4,0.6-3.4,2.4c0,2.5,7.8,21.2,7,22.2c-1.1,1.3-21,6-21.7,6.2
		l-2.4-0.2c-2-0.1-4-0.4-4.1-0.3c-0.2,0.2-0.1,0.4,2,1.4c0.1,0.1,0.1,0.3,0,0.3c-1,0.6-4.1,2.5-4,2.8c0.1,0.3,2.9-1.3,3.2-1.1
		c0.3,0.2-2.5,1.8-2.3,2.1c0.2,0.3,2.7-1.1,2.8-1c0.1,0.1-2.1,1.8-2.1,2.1c0,0.3,2.6-1.2,2.8-1.1c0.2,0.1-1.3,1.7-1.1,1.9
		c0.1,0.1-0.4,0.4,4-2.4c0,0,1.1-0.7,1.5-1c0,0,24.8-3.5,26.3-5.5C398.3,331.2,395.4,319.4,395.4,319.4z"/>
	<path class="st5" d="M395.4,319.4c0,0-2-11-8.1-13.3c-1.7-0.6-3.4,0.6-3.4,2.4c0,2.5,7.8,21.2,7,22.2c-1.1,1.3-21,6-21.7,6.2l0,0
		c0.2,1.1,0.5,2.2,0.9,3.3c4.1-0.6,24.2-3.6,25.6-5.3C398.3,331.2,395.4,319.4,395.4,319.4z"/>
	<path class="st20" d="M346.6,121.5c-1-4.2-4.7-7.3-9.2-7.3c-0.8,0-1.6,0.1-2.4,0.3c-2.2-4.7-7-8-12.5-8c-1.4,0-2.8,0.2-4.1,0.6
		c-3-4.9-8.4-8.2-14.6-8.2c-7.4,0-13.6,4.7-16,11.2c-1.7-0.9-3.6-1.5-5.7-1.5c-6.5,0-11.7,5.2-11.7,11.7c0,0.4,0,0.8,0.1,1.1H346.6z
		"/>
	<path class="st20" d="M205.5,159.3c0.5-2.2,2.5-3.9,4.8-3.9c0.4,0,0.9,0.1,1.3,0.2c1.2-2.5,3.7-4.2,6.6-4.2c0.8,0,1.5,0.1,2.2,0.3
		c1.6-2.6,4.4-4.4,7.7-4.4c3.9,0,7.2,2.5,8.5,5.9c0.9-0.5,1.9-0.8,3-0.8c3.4,0,6.2,2.8,6.2,6.2c0,0.2,0,0.4,0,0.6H205.5z"/>
	<path class="st20" d="M331.4,154.6c0.5-2.2,2.5-3.9,4.8-3.9c0.4,0,0.9,0.1,1.3,0.2c1.2-2.5,3.7-4.2,6.6-4.2c0.8,0,1.5,0.1,2.2,0.3
		c1.6-2.6,4.4-4.4,7.7-4.4c3.9,0,7.2,2.5,8.5,5.9c0.9-0.5,1.9-0.8,3-0.8c3.4,0,6.2,2.8,6.2,6.2c0,0.2,0,0.4,0,0.6H331.4z"/>
	<path class="st20" d="M388,216.4c0.6-2.7,3-4.7,5.9-4.7c0.5,0,1,0.1,1.5,0.2c1.4-3,4.5-5.1,8-5.1c0.9,0,1.8,0.1,2.6,0.4
		c1.9-3.2,5.4-5.3,9.4-5.3c4.7,0,8.7,3,10.3,7.2c1.1-0.6,2.3-0.9,3.6-0.9c4.1,0,7.5,3.4,7.5,7.5c0,0.2,0,0.5,0,0.7H388z"/>
	<path class="st25" d="M365.2,416.7l4.9-3l4.2,2.6l-1.5,1.1l-5.1,0.7c0,0-2-0.3-2.1-0.3C365.5,417.6,365.2,416.7,365.2,416.7z"/>
	<path class="st2" d="M365.2,416.7l-1.2,0.8c-0.6,0.4-0.3,1.2,0.4,1.3l9.4,0c0.3,0,0.6-0.3,0.6-0.6l0-2
		C368,418.2,365.9,417.6,365.2,416.7z"/>
	<path class="st25" d="M403.3,416.2l-0.1-6l4.2-2.2l0.2,1.8l-1.9,4.8c0,0-1.2,1.6-1.3,1.7C404.2,416.4,403.3,416.2,403.3,416.2z"/>
	<path class="st2" d="M403.3,416.2l0.1,1.5c0,0.7,0.9,0.9,1.3,0.3l4.6-8.2c0.2-0.3,0.1-0.7-0.2-0.8l-1.7-1
		C406,414.5,404.4,416.1,403.3,416.2z"/>
	<g>
		<path class="st20" d="M276.3,269.6l-8.4-3.2c-0.2-0.1-0.3-0.3-0.2-0.5l0.1-0.2c0.1-0.2,0.3-0.3,0.5-0.2l8.4,3.2
			c0.2,0.1,0.3,0.3,0.2,0.5l-0.1,0.2C276.7,269.6,276.5,269.7,276.3,269.6z"/>
		<path class="st14" d="M269.4,262.7l-1.3,2.4c-0.2,0.3-0.1,0.7,0.1,0.7l8.1,3.1c0.2,0.1,0.5,0,0.7-0.2c0.2-0.2,0.4-0.6,0.2-1.2
			c-0.3-1.3-2.6-2.5-3.4-3.8l-3.8-1.4C269.8,262.3,269.5,262.4,269.4,262.7z"/>
		<g>
			<path class="st20" d="M272.6,265.1L272.6,265.1c0-0.1,0-0.2,0-0.2c0.3-0.3,1.1-1,2.1-0.4c0.1,0,0.1,0.1,0,0.2l0,0
				c0,0.1-0.1,0.1-0.2,0.1c-0.8-0.5-1.6,0.1-1.8,0.3C272.7,265.1,272.6,265.1,272.6,265.1z"/>
		</g>
		<g>
			<path class="st20" d="M273.3,265.7L273.3,265.7c0-0.1,0-0.2,0-0.2c0.3-0.3,1.1-1,2.1-0.4c0.1,0,0.1,0.1,0,0.2l0,0
				c0,0.1-0.1,0.1-0.2,0.1c-0.8-0.5-1.6,0.1-1.8,0.3C273.4,265.8,273.3,265.8,273.3,265.7z"/>
		</g>
		<g>
			<path class="st20" d="M273.9,266.3L273.9,266.3c0-0.1,0-0.2,0-0.2c0.3-0.3,1.1-1,2.1-0.4c0.1,0,0.1,0.1,0,0.2l0,0
				c0,0.1-0.1,0.1-0.2,0.1c-0.8-0.5-1.6,0.1-1.8,0.3C274.1,266.4,274,266.4,273.9,266.3z"/>
		</g>
		<path class="st32" d="M270.4,266.7c0.2-2.3-0.8-3-1.5-3.1l-0.8,1.6c-0.2,0.3-0.1,0.7,0.1,0.7L270.4,266.7z"/>
	</g>
	<g>
		<path class="st20" d="M267.7,269.6l-8.6-2.6c-0.2-0.1-0.3-0.3-0.3-0.5l0.1-0.2c0.1-0.2,0.3-0.3,0.5-0.3l8.6,2.6
			c0.2,0.1,0.3,0.3,0.3,0.5l-0.1,0.2C268.2,269.6,267.9,269.7,267.7,269.6z"/>
		<path class="st14" d="M260.4,263.2l-1.1,2.5c-0.1,0.3,0,0.7,0.2,0.7l8.3,2.5c0.2,0.1,0.5,0,0.7-0.2c0.2-0.2,0.3-0.6,0.1-1.2
			c-0.4-1.3-2.8-2.3-3.7-3.5l-3.8-1.2C260.7,262.8,260.5,262.9,260.4,263.2z"/>
		<g>
			<path class="st20" d="M263.7,265.4L263.7,265.4c0-0.1,0-0.2,0-0.2c0.3-0.3,1-1,2-0.5c0.1,0,0.1,0.1,0,0.2l0,0
				c0,0.1-0.1,0.1-0.2,0.1c-0.9-0.4-1.5,0.2-1.8,0.5C263.8,265.4,263.8,265.4,263.7,265.4z"/>
		</g>
		<g>
			<path class="st20" d="M264.5,266L264.5,266c0-0.1,0-0.2,0-0.2c0.3-0.3,1-1,2-0.5c0.1,0,0.1,0.1,0,0.2l0,0c0,0.1-0.1,0.1-0.2,0.1
				c-0.9-0.4-1.5,0.2-1.8,0.5C264.6,266,264.5,266,264.5,266z"/>
		</g>
		<g>
			<path class="st20" d="M265.2,266.5L265.2,266.5c0-0.1,0-0.2,0-0.2c0.3-0.3,1-1,2-0.5c0.1,0,0.1,0.1,0,0.2l0,0
				c0,0.1-0.1,0.1-0.2,0.1c-0.9-0.4-1.5,0.2-1.8,0.5C265.3,266.6,265.2,266.6,265.2,266.5z"/>
		</g>
		<path class="st32" d="M261.6,267.1c0-2.3-1-2.9-1.7-3l-0.7,1.6c-0.1,0.3,0,0.7,0.2,0.7L261.6,267.1z"/>
	</g>
</g>
</svg>
