<svg xmlns="http://www.w3.org/2000/svg" viewBox="0 0 463.08 482.93"><defs><style>.cls-1{fill:#f0f0f0;}.cls-2{fill:#e0e0e0;}.cls-3{fill:#edcd00;}.cls-12,.cls-4{opacity:0.2;}.cls-10,.cls-5{fill:#fff;}.cls-6{fill:#272727;}.cls-7{fill:#263238;}.cls-15,.cls-8{fill:#373737;}.cls-9{opacity:0.15;}.cls-10,.cls-12,.cls-14,.cls-15,.cls-17,.cls-18,.cls-19,.cls-9{isolation:isolate;}.cls-10{opacity:0.7;}.cls-11,.cls-19{fill:#fafafa;}.cls-13{fill:#e6e6e6;}.cls-15,.cls-19{opacity:0.8;}.cls-16{fill:#ebebeb;}.cls-17,.cls-20{opacity:0.3;}.cls-18{opacity:0.4;}.cls-21{fill:#212121;}.cls-22{fill:#383838;}.cls-23{fill:#ffc5b3;}.cls-24{fill:#ffad97;}</style></defs><g id="Camada_2" data-name="Camada 2"><g id="Camada_1-2" data-name="Camada 1"><g id="Camada_2-2" data-name="Camada 2"><g id="Camada_1-2-2" data-name="Camada 1-2"><g id="Camada_2-2-2" data-name="Camada 2-2"><g id="Floor"><ellipse id="Floor-2" class="cls-1" cx="231.54" cy="349.25" rx="231.54" ry="133.68"/></g><g id="Shadows"><path id="Shadow" class="cls-2" d="M151.45,286l82,47.54-13.77,8c-7.29,4.25-7.29,11,0,15.25l41.06,23.53c7.3,4.21,19.12,4.21,26.41,0l13.78-8,89.59,51.73a9.57,9.57,0,0,0,8.66,0l47.1-27.23c2.39-1.38,2.39-3.62,0-5l-239.09-138a9.57,9.57,0,0,0-8.66,0L151.47,281C149.07,282.4,149.07,284.64,151.45,286Z"/><ellipse id="Shadow-2" class="cls-2" cx="99.51" cy="372.28" rx="46.15" ry="26.65"/></g><g id="Plant"><g id="Plants"><path class="cls-3" d="M70,354l-4.09-10.26c-1.58-13.81-8.8-22.46-14.48-28.71s-5.14-15.38.79-16.08c6.38-.76,13.23,6.84,17.06,14.67,5.29,10.8,4,22.31,4,28.56Z"/><g class="cls-4"><path d="M70,354l-4.09-10.26c-1.58-13.81-8.8-22.46-14.48-28.71s-5.14-15.38.79-16.08c6.38-.76,13.23,6.84,17.06,14.67,5.29,10.8,4,22.31,4,28.56Z"/></g><path class="cls-5" d="M71.22,346.59a.44.44,0,0,0,.45-.42c.75-18-5.13-33-17-43.33h0a.43.43,0,0,0-.53.68h0c11.65,10.13,17.43,24.88,16.71,42.64a.47.47,0,0,0,.36.45Z"/><path class="cls-3" d="M79.39,348.79a40,40,0,0,0-2.82-5.91c.14,3.88-2.63,8.35-2.63,8.35.94-2.71.75-6.21.59-8.54s-1.16-3.56-4.16-5.1a10.27,10.27,0,0,0-6-1,11.13,11.13,0,0,1-2.06,5.55s-.18-5.46-1.75-7.26-11.29-2.62-14.23-2.24-4.4.09-4.21,3.87,1.35,11.92,1.91,11.78a26.53,26.53,0,0,1,11.87,1c-8.21.92-11.07,4.27-11.07,4.27.78,6.32,4.78,6.79,4.78,6.79a37,37,0,0,1,12-3.13c-4,1.21-7.35,7-7.35,7s2.47,3.52,9.16,3.36a22.06,22.06,0,0,0,11-3.06C79.18,360.35,80.76,352.12,79.39,348.79Z"/><path class="cls-5" d="M74.56,364.92a.43.43,0,0,0,.28-.54h0c-3.88-11.89-22.1-27.54-29.1-29.89h0a.43.43,0,0,0-.53.28h0a.41.41,0,0,0,.26.51h0C52.3,337.64,70.2,353,74,364.64a.42.42,0,0,0,.3.28A.39.39,0,0,0,74.56,364.92Z"/></g></g><g id="Device"><g id="Device-2"><g id="Monitor"><path class="cls-6" d="M313.18,362.37,341,346.18a7.74,7.74,0,0,0,3.53-6.1V296.47L282.7,260.76v43.62a7.82,7.82,0,0,1-3.52,6.1l-33.26,18.9v4.92c0,2.76,1.83,5.52,5.47,7.62l35.38,20.45C294.06,366.58,305.89,366.58,313.18,362.37Z"/><path class="cls-7" d="M336.72,343.72a7.71,7.71,0,0,0,3.52-6.1V303.54L332,298.77c.24-3,.51-6.09.75-9.09l11.77,6.79v43.61a7.77,7.77,0,0,1-3.52,6.1l-11.32,6.52v-4.9Z"/><path class="cls-8" d="M340.24,303.55l-61.78-35.71v34.08a7.74,7.74,0,0,1-3.53,6.1l-23.55,13.74c-7.3,4.24-7.29,11,0,15.24l35.39,20.45c7.3,4.21,19.12,4.21,26.41,0l23.54-13.72a7.77,7.77,0,0,0,3.52-6.1Z"/><path class="cls-9" d="M329.72,347.79l7-4.06a7.77,7.77,0,0,0,3.52-6.1V303.55l-61.78-35.71v34.09a7.74,7.74,0,0,1-3.53,6.1l-7.17,4.14h0Z"/><path class="cls-6" d="M251.39,337l35.38,20.46a26.64,26.64,0,0,0,12.6,3.13v4.9a26.64,26.64,0,0,1-12.6-3.13l-35.38-20.44c-3.64-2.12-5.47-4.86-5.47-7.63v-4.92C245.92,332.14,247.75,334.92,251.39,337Z"/><path class="cls-8" d="M443.59,377.21V168.06a9.66,9.66,0,0,0-4.41-7.62l-239-138a9.43,9.43,0,0,0-8.53-.15,9.46,9.46,0,0,0-4.13,7.46V238.9a9.73,9.73,0,0,0,4.4,7.62l239,138a8.29,8.29,0,0,0,12.67-7.31Z"/><path class="cls-6" d="M435.27,382V172.87a9.66,9.66,0,0,0-4.41-7.62l-238.94-138c-2.4-1.41-4.4-.27-4.4,2.54V238.94a9.74,9.74,0,0,0,4.4,7.62l239,138C433.35,385.92,435.32,384.78,435.27,382Z"/><path class="cls-3" d="M424.42,355.92l-226-130.5a5.87,5.87,0,0,1-2.65-4.57V42.06c0-1.68,1.18-2.36,2.64-1.52L424.42,171a5.81,5.81,0,0,1,2.64,4.57V354.34C427.06,356,425.88,356.71,424.42,355.92Z"/><path class="cls-10" d="M424.42,355.92l-226-130.5a5.87,5.87,0,0,1-2.65-4.57V42.06c0-1.68,1.18-2.36,2.64-1.52L424.42,171a5.81,5.81,0,0,1,2.64,4.57V354.34C427.06,356,425.88,356.71,424.42,355.92Z"/><path class="cls-3" d="M309.8,306.44a9.59,9.59,0,0,1-4.38-7.59A3,3,0,0,1,310.3,296h0a9.49,9.49,0,0,1,4.38,7.58,3.37,3.37,0,0,1-1.46,3.11,2.55,2.55,0,0,1-1.32.34A4.31,4.31,0,0,1,309.8,306.44Zm-2.41-9.83a2.45,2.45,0,0,0-1,2.24,8.59,8.59,0,0,0,3.88,6.72,2,2,0,0,0,3.38-1.95,8.58,8.58,0,0,0-3.88-6.72h0a3.24,3.24,0,0,0-1.59-.5,1.56,1.56,0,0,0-.79.21Z"/></g></g></g><g id="Doc"><g id="Document-3"><g id="Document-4"><path class="cls-11" d="M386.44,367.8,220.51,272a6.78,6.78,0,0,1-3.1-5.37V6.05A5.8,5.8,0,0,1,226.32.91l166,95.74a7,7,0,0,1,3.09,5.35V362.61a5.93,5.93,0,0,1-8.92,5.19Z"/><path class="cls-1" d="M389.54,365.9V105.37a7,7,0,0,0-3.1-5.37L220.51,4.25c-1.71-1-3.1-.2-3.1,1.8V266.72a6.76,6.76,0,0,0,3.1,5.37L386.44,367.8C388.15,368.68,389.54,367.88,389.54,365.9Z"/><path class="cls-2" d="M389.54,365.92V105.29a6.35,6.35,0,0,0-.92-3l5.82-3.36a6.51,6.51,0,0,1,.89,3.07V362.58a5.9,5.9,0,0,1-.66,2.94h0a5.79,5.79,0,0,1-7.84,2.37h0C388.36,368.55,389.54,367.8,389.54,365.92Z"/><g id="Text"><polygon class="cls-2" points="246.63 24.24 363.15 91.56 363.15 118.43 246.63 51.15 246.63 24.24"/><path class="cls-2" d="M374.08,268.05c0,.93-.76,1.29-1.62.8L229.9,186.59a3.32,3.32,0,0,1-1.62-2.58c0-.93.76-1.28,1.62-.78L372.52,265.6A3.37,3.37,0,0,1,374.08,268.05Z"/><path class="cls-2" d="M374.08,274.83c0,.93-.76,1.29-1.62.78L229.9,193.32a3.32,3.32,0,0,1-1.62-2.58c0-.93.76-1.28,1.62-.8l142.62,82.32A3.25,3.25,0,0,1,374.08,274.83Z"/><polygon class="cls-3" points="374.08 131.88 228.42 47.77 228.42 44.42 374.08 128.51 374.08 131.88"/><polygon class="cls-12" points="374.08 131.88 228.42 47.77 228.42 44.42 374.08 128.51 374.08 131.88"/><polygon class="cls-3" points="374.08 219.32 228.42 135.24 228.42 131.88 374.08 215.97 374.08 219.32"/><polygon class="cls-12" points="374.08 219.32 228.42 135.24 228.42 131.88 374.08 215.97 374.08 219.32"/><polygon class="cls-3" points="374.08 145.34 321.63 115.06 321.63 108.33 374.08 138.6 374.08 145.34"/><polygon class="cls-3" points="309.99 108.33 286.68 94.88 286.68 88.14 309.99 101.61 309.99 108.33"/><polygon class="cls-3" points="280.85 91.52 257.56 78.06 257.56 71.33 280.85 84.78 280.85 91.52"/><polygon class="cls-3" points="251.72 74.69 228.42 61.23 228.42 54.52 251.72 67.95 251.72 74.69"/><polygon class="cls-13" points="374.08 172.24 228.42 88.14 228.42 74.69 374.08 158.78 374.08 172.24"/><polygon class="cls-13" points="374.08 199.15 228.42 115.06 228.42 101.61 374.08 185.69 374.08 199.15"/><path class="cls-6" d="M367.72,149.62l-40.79-23.49a.42.42,0,0,1-.21-.13h0a1.09,1.09,0,0,1-.22-1.52h0a1.09,1.09,0,0,1,1.52-.22l40.78,23.53a1.23,1.23,0,0,1,.52.91h0a1.06,1.06,0,0,1-1.05,1.07h0A.87.87,0,0,1,367.72,149.62Z"/><path class="cls-6" d="M303.81,109.89,286.32,99.77h0a.71.71,0,0,1-.29-1l0,0a.71.71,0,0,1,1-.27h0l17.49,10a.82.82,0,0,1,.36.62h0a.71.71,0,0,1-.71.69h0A.51.51,0,0,1,303.81,109.89Z"/><path class="cls-6" d="M303.78,114.75l-17.49-10.11h0a.71.71,0,0,1-.27-1v0h0a.72.72,0,0,1,1-.25l17.49,10h0a.71.71,0,0,1,.27,1v0a.67.67,0,0,1-.62.36A.62.62,0,0,1,303.78,114.75Z"/><path class="cls-6" d="M274.62,95.45l-17.5-10.09h0a.68.68,0,0,1-.21-.93h0a.72.72,0,0,1,1-.25l17.47,10.09a.78.78,0,0,1,.35.62h0a.71.71,0,0,1-.71.71A.56.56,0,0,1,274.62,95.45Z"/><path class="cls-6" d="M245.54,78.68,228.06,68.56H228a.7.7,0,0,1-.24-1l0,0a.74.74,0,0,1,1-.25L246.28,77.4h0a.69.69,0,0,1,.21,1l0,0a.63.63,0,0,1-.62.36A.48.48,0,0,1,245.54,78.68Z"/><path class="cls-6" d="M367.64,163.08l-29.12-16.79h0a1.08,1.08,0,0,1-.4-1.46h0a1.15,1.15,0,0,1,1.47-.39l29.2,16.82a1.15,1.15,0,0,1,.52.91h0a1.06,1.06,0,0,1-1.05,1.07h0A.89.89,0,0,1,367.64,163.08Z"/><path class="cls-6" d="M303.78,123.24l-17.49-10.09h0a.71.71,0,0,1-.27-1v0h0a.72.72,0,0,1,1-.24h0L304.52,122h0a.71.71,0,0,1,.27,1v0a.67.67,0,0,1-.62.36A.64.64,0,0,1,303.78,123.24Z"/><path class="cls-6" d="M303.82,128l-17.48-10h0a.73.73,0,0,1-.25-1h0a.72.72,0,0,1,.95-.24l17.49,10.09a.76.76,0,0,1,.36.62h0a.71.71,0,0,1-.71.69h0A.48.48,0,0,1,303.82,128Z"/><path class="cls-6" d="M274.67,108.9l-17.5-10.2a.26.26,0,0,1-.16-.09h-.09a.72.72,0,0,1,0-1,.78.78,0,0,1,1,0l17.47,10.08a.74.74,0,0,1,.26,1,.67.67,0,0,1-.62.36A.61.61,0,0,1,274.67,108.9Z"/><path class="cls-6" d="M245.52,92.13,228,82h0a.75.75,0,0,1-.23-.86.77.77,0,0,1,1-.39l17.47,10.09h0a.71.71,0,0,1,.27,1v0a.68.68,0,0,1-.62.35A.74.74,0,0,1,245.52,92.13Z"/><path class="cls-6" d="M367.67,176.55l-46.6-26.92h0a1.07,1.07,0,0,1-.36-1.44h0a1.14,1.14,0,0,1,1.46-.41l46.62,26.92a1.16,1.16,0,0,1,.52.9h0a1.06,1.06,0,0,1-1.05,1.07h0A.94.94,0,0,1,367.67,176.55Z"/><path class="cls-6" d="M303.81,136.69,286.32,126.6a.7.7,0,0,1-.24-.91.73.73,0,0,1,.95-.33l17.49,10.1a.79.79,0,0,1,.36.61h0a.72.72,0,0,1-.72.72h0A.71.71,0,0,1,303.81,136.69Z"/><path class="cls-6" d="M303.78,141.51l-17.49-10.09h0a.71.71,0,0,1-.27-1v0h0a.72.72,0,0,1,1-.24h0l17.49,10.09h0a.71.71,0,0,1,.27,1v0a.68.68,0,0,1-.62.35A.64.64,0,0,1,303.78,141.51Z"/><path class="cls-6" d="M274.66,122.44l-17.49-10.09h0a.72.72,0,0,1-.24-1l0,0h0a.7.7,0,0,1,.94-.21l17.47,10.09a.72.72,0,0,1,.36.5.71.71,0,0,1-.65.76A.46.46,0,0,1,274.66,122.44Z"/><path class="cls-6" d="M245.53,105.57,228.06,95.48H228a.69.69,0,0,1-.23-.94l.05-.06h0a.73.73,0,0,1,1-.26l17.47,10.09h0a.72.72,0,0,1,.2,1h0a.67.67,0,0,1-.62.36A.64.64,0,0,1,245.53,105.57Z"/><path class="cls-6" d="M367.72,190l-23.31-13.44h0a1,1,0,0,1-.44-1.35l.06-.1a1.09,1.09,0,0,1,1.47-.4l23.31,13.46a1.15,1.15,0,0,1,.52.91h0a1.06,1.06,0,0,1-1.05,1.07h0A.87.87,0,0,1,367.72,190Z"/><path class="cls-6" d="M303.78,150.15l-17.49-10.09h0a.71.71,0,0,1-.27-1v0h0a.72.72,0,0,1,1-.25l17.49,10.09h0a.71.71,0,0,1,.27,1v0a.67.67,0,0,1-.62.36A.57.57,0,0,1,303.78,150.15Z"/><path class="cls-6" d="M303.84,154.88l-17.49-10.09h0a.71.71,0,0,1-.27-1v0h0a.72.72,0,0,1,.94-.21l17.49,10.09a.76.76,0,0,1,.36.67h0a.71.71,0,0,1-.71.69h0A.48.48,0,0,1,303.84,154.88Z"/><path class="cls-6" d="M274.72,135.82,257.17,125.6a.34.34,0,0,1-.16-.1h-.09a.74.74,0,0,1,0-1,.78.78,0,0,1,1,0l17.47,10.14a.74.74,0,0,1,.26,1,.67.67,0,0,1-.62.36A.55.55,0,0,1,274.72,135.82Z"/><path class="cls-6" d="M245.52,119,228,109h0a.75.75,0,0,1-.23-.86.77.77,0,0,1,1-.39l17.47,10.09a.86.86,0,0,1,.34.58h0a.67.67,0,0,1-.59.74.69.69,0,0,1-.48-.13Z"/><path class="cls-6" d="M367.72,203.47l-40.8-23.63h0a1.07,1.07,0,0,1-.38-1.45h0A1.09,1.09,0,0,1,328,178l40.78,23.61a1.15,1.15,0,0,1,.52.91h0a1.06,1.06,0,0,1-1.05,1.07h0A.82.82,0,0,1,367.72,203.47Z"/><path class="cls-6" d="M303.82,163.58l-17.48-10.06h-.06a.7.7,0,0,1-.22-1l0,0h0a.72.72,0,0,1,.95-.24l17.49,10.09a.79.79,0,0,1,.36.61h0a.72.72,0,0,1-.72.72h0A.52.52,0,0,1,303.82,163.58Z"/><path class="cls-6" d="M303.81,168.39l-17.49-10.11a.7.7,0,0,1-.24-.91.72.72,0,0,1,.95-.32l17.49,10.09h0a.7.7,0,0,1,.27.94l0,.06a.69.69,0,0,1-.62.38A.7.7,0,0,1,303.81,168.39Z"/><path class="cls-6" d="M274.66,149.37l-17.48-10.09h0a.72.72,0,0,1-.24-1l0,0h0a.72.72,0,0,1,1-.26h0l17.47,10.08a.75.75,0,0,1,.35.61h0a.7.7,0,0,1-.7.7h0A.72.72,0,0,1,274.66,149.37Z"/><path class="cls-6" d="M245.53,132.62,228,122.49h-.07a.69.69,0,0,1-.2-1l0,0h0a.73.73,0,0,1,1-.26l17.5,10h0a.7.7,0,0,1,.22,1h0a.64.64,0,0,1-.62.35A.53.53,0,0,1,245.53,132.62Z"/><path class="cls-6" d="M274.6,169.54l-17.49-10.1h-.06a.7.7,0,0,1-.22-1l0,0h0a.73.73,0,0,1,1-.26l17.47,10.09a.77.77,0,0,1,.46.68h0a.72.72,0,0,1-.75.64A.59.59,0,0,1,274.6,169.54Z"/><path class="cls-6" d="M245.53,152.67l-17.47-10.09H228a.7.7,0,0,1-.24-1l0,0h0a.73.73,0,0,1,1-.26l17.47,10.09h0a.7.7,0,0,1,.22,1h0a.64.64,0,0,1-.62.35A.61.61,0,0,1,245.53,152.67Z"/><path class="cls-6" d="M274.63,176.38l-17.48-10.1a.69.69,0,0,1-.23-.85h0a.73.73,0,0,1,1-.37h0l17.47,10a.74.74,0,0,1,.26,1,.68.68,0,0,1-.62.35A.44.44,0,0,1,274.63,176.38Z"/><path class="cls-6" d="M245.54,159.4l-17.48-10.09H228a.7.7,0,0,1-.24-.95l0-.05h0a.73.73,0,0,1,1-.26l17.47,10.09h0a.7.7,0,0,1,.22,1h0a.69.69,0,0,1-1,.26Z"/><polygon class="cls-3" points="322.38 208.42 229.17 154.81 229.17 175.01 322.38 228.6 322.38 208.42"/><path class="cls-11" d="M246.64,169.72c.05,0,.13.09.17.19h0v1.87a.5.5,0,0,1,0,.34c0,.06-.09.07-.17,0l-1.76-1V179a.86.86,0,0,1,0,.32c0,.08-.09.09-.19,0l-1.3-.75-.19-.22v-8.14l-1.75-1a.55.55,0,0,1-.2-.23.33.33,0,0,1,0-.24v-1.62a1,1,0,0,1,0-.34.23.23,0,0,1,.2,0Z"/><path class="cls-11" d="M247.45,174.1a5.34,5.34,0,0,1,.24-1.49,2.21,2.21,0,0,1,.62-.91,1.39,1.39,0,0,1,1-.3,3,3,0,0,1,1.3.43,5.38,5.38,0,0,1,1.3,1.08,6.82,6.82,0,0,1,1,1.49,8.28,8.28,0,0,1,.6,1.69,7.55,7.55,0,0,1,.24,1.77v2.73a4.62,4.62,0,0,1-.24,1.47,2.26,2.26,0,0,1-.6.93,1.56,1.56,0,0,1-1,.3,3,3,0,0,1-1.3-.43,6.12,6.12,0,0,1-1.3-1.08,5.34,5.34,0,0,1-1-1.49,8.14,8.14,0,0,1-.62-1.71,7.45,7.45,0,0,1-.24-1.75V175.5C247.45,175,247.43,174.52,247.45,174.1Zm4.38,5.18V176.7a5.19,5.19,0,0,0-.12-.79,2.76,2.76,0,0,0-.24-.7,2.15,2.15,0,0,0-.37-.57,2.4,2.4,0,0,0-.54-.47A1,1,0,0,0,250,174a.51.51,0,0,0-.39.15,1.58,1.58,0,0,0-.34,1.07v2.54a3.9,3.9,0,0,0,.34,1.46,2.31,2.31,0,0,0,.92,1.06c.41.25.73.26.91,0A1.78,1.78,0,0,0,251.83,179.28Z"/><path class="cls-11" d="M259.82,177.19a.68.68,0,0,1,.2.24.33.33,0,0,1,0,.24v1.62a1,1,0,0,1,0,.34c0,.07-.1.08-.2,0l-1.75-1v7.87a.5.5,0,0,1,0,.34c0,.06-.09.07-.18,0l-1.31-.77c-.05,0-.13-.1-.18-.21a.56.56,0,0,1-.08-.33v-7.87l-1.75-1a.55.55,0,0,1-.2-.23,1.05,1.05,0,0,1-.08-.34v-1.56a.53.53,0,0,1,.08-.25c0-.05.11-.05.2,0Z"/><path class="cls-11" d="M264,179.59l.31.36a1.88,1.88,0,0,1,.14.42l2.18,10.91a.74.74,0,0,1,0,.21,1.31,1.31,0,0,1,0,.28h-.15l-1.25-.71-.29-.34a.57.57,0,0,1-.1-.3l-.29-1.44-2.65-1.53-.27,1.12a.37.37,0,0,1-.11.19c-.06.05-.16,0-.28,0L260,188a.58.58,0,0,1-.16-.19v-.46L262,179a1,1,0,0,1,.15-.24.34.34,0,0,1,.31,0Zm-1.62,5.77,1.62.94-.8-4.16Z"/><path class="cls-11" d="M272.33,192.79l.2.23a.94.94,0,0,1,.08.34V195a.33.33,0,0,1-.08.25c0,.11-.12.05-.2,0l-4.61-2.65-.19-.22a.81.81,0,0,1-.08-.34v-9.89a.33.33,0,0,1,.08-.25.21.21,0,0,1,.19,0l1.3.76c.06,0,.15.11.2.23a.89.89,0,0,1,.08.33V191Z"/><path class="cls-11" d="M293.32,196.3a5.89,5.89,0,0,1,.86,1,7.27,7.27,0,0,1,.62,1,5,5,0,0,1,.37,1,6.08,6.08,0,0,1,.15.87.69.69,0,0,1,0,.35h-.2l-.69-.39-.26-.3a1.76,1.76,0,0,1-.17-.37,4,4,0,0,0-.45-.93,2.57,2.57,0,0,0-.89-.78,1.89,1.89,0,0,0-.5-.23,1,1,0,0,0-.41,0l-.28.23a1,1,0,0,0-.09.49,1.48,1.48,0,0,0,.11.62,1.85,1.85,0,0,0,.36.6,5.42,5.42,0,0,0,.63.72l.92.85a13.48,13.48,0,0,1,1,1,6.29,6.29,0,0,1,.68,1,3.32,3.32,0,0,1,.37,1.07,5.76,5.76,0,0,1,.12,1.18,3.14,3.14,0,0,1-.15,1.05,1.48,1.48,0,0,1-.42.7,1.12,1.12,0,0,1-.7.28,2.22,2.22,0,0,1-.92-.14v1a.33.33,0,0,1-.08.25h-.2l-.81-.47c-.05,0-.13-.1-.18-.2a.57.57,0,0,1-.08-.34v-1a6.72,6.72,0,0,1-2-3,4.25,4.25,0,0,1-.19-1.22.5.5,0,0,1,0-.34.17.17,0,0,1,.19,0l.7.41.26.29a.79.79,0,0,1,.14.34c.05.16.11.33.17.5a2.49,2.49,0,0,0,.27.51,3.89,3.89,0,0,0,.42.49,2.84,2.84,0,0,0,.64.45,6.19,6.19,0,0,0,.58.28,1.16,1.16,0,0,0,.49,0A.75.75,0,0,0,294,205a1,1,0,0,0,.13-.51,1.43,1.43,0,0,0-.15-.64,3.3,3.3,0,0,0-.42-.61,7.49,7.49,0,0,0-.7-.68l-1-1a6.93,6.93,0,0,1-.88-1,3.94,3.94,0,0,1-.61-1,4.45,4.45,0,0,1-.32-.93,4.56,4.56,0,0,1,0-2.32,1.34,1.34,0,0,1,1-1,3.17,3.17,0,0,1,.81.07v-1a.69.69,0,0,1,0-.35.16.16,0,0,1,.19-.06l.81.47a.55.55,0,0,1,.19.21.77.77,0,0,1,.08.34Z"/><path class="cls-11" d="M300.15,200.18a5.89,5.89,0,0,1,.86,1,7.93,7.93,0,0,1,.62,1,5.76,5.76,0,0,1,.39,1,4.17,4.17,0,0,1,.14.86c0,.14,0,.23-.08.25s-.1.06-.19,0l-.7-.41a.51.51,0,0,1-.24-.28,1.58,1.58,0,0,1-.16-.35,3.16,3.16,0,0,0-.46-.94,2.53,2.53,0,0,0-.89-.8,1.94,1.94,0,0,0-.5-.2.72.72,0,0,0-.41,0,.44.44,0,0,0-.28.22.94.94,0,0,0-.09.47,1.28,1.28,0,0,0,.11.64,2.39,2.39,0,0,0,.36.59,5.77,5.77,0,0,0,.61.7l.94.88a8.59,8.59,0,0,1,1,1,5.68,5.68,0,0,1,.68,1,5.22,5.22,0,0,1,.38,1.09,5.92,5.92,0,0,1,.11,1.19,2,2,0,0,1-.59,1.7,1.07,1.07,0,0,1-.68.31,1.62,1.62,0,0,1-.94-.17v1c0,.25-.07.36-.26.28l-.81-.47c-.05,0-.13-.1-.18-.21a.85.85,0,0,1-.08-.35v-1.06a5.13,5.13,0,0,1-.84-.84,6.2,6.2,0,0,1-.7-1,5.29,5.29,0,0,1-.47-1.13,4.19,4.19,0,0,1-.24-1.21.5.5,0,0,1,0-.34.21.21,0,0,1,.19,0l.7.41a1.08,1.08,0,0,1,.26.3,1.18,1.18,0,0,1,.16.38c.05.16.1.32.16.49a3.74,3.74,0,0,0,.28.52,3.89,3.89,0,0,0,.42.49,2.22,2.22,0,0,0,.63.46c.62.38,1.11.41,1.4.11a.81.81,0,0,0,.13-.52,1.31,1.31,0,0,0-.13-.62,2.42,2.42,0,0,0-.42-.62l-.72-.71-1-.94a10.32,10.32,0,0,1-.88-1,6.14,6.14,0,0,1-.62-1,4.47,4.47,0,0,1-.35-1.07,6.08,6.08,0,0,1-.13-1.27,3.36,3.36,0,0,1,.14-1,2.11,2.11,0,0,1,.42-.67,1.46,1.46,0,0,1,1.45-.23v-1c0-.22.1-.31.26-.27l.81.47a.39.39,0,0,1,.18.2h0a.36.36,0,0,1,0,.25Z"/><path class="cls-11" d="M307.08,204.18a4.84,4.84,0,0,1,.86,1,7.93,7.93,0,0,1,.62,1,5.55,5.55,0,0,1,.53,1.92c0,.14,0,.23-.08.24h-.19l-.7-.41a.83.83,0,0,1-.26-.3,2.63,2.63,0,0,1-.15-.35,4,4,0,0,0-.45-.93,2.5,2.5,0,0,0-.91-.8,1.74,1.74,0,0,0-.49-.2h-.4a.49.49,0,0,0-.28.23,1.28,1.28,0,0,0-.1.47,1.58,1.58,0,0,0,.12.64,1.45,1.45,0,0,0,.34.57,7.16,7.16,0,0,0,.63.73l.93.84a13.48,13.48,0,0,1,1,1,5.73,5.73,0,0,1,.68,1,4.93,4.93,0,0,1,.37,1.06,6,6,0,0,1,.12,1.2,2.11,2.11,0,0,1-.59,1.7,1.08,1.08,0,0,1-.7.29,1.4,1.4,0,0,1-.92-.14v1c0,.14,0,.23-.08.24s-.09.07-.18,0l-.81-.47a.55.55,0,0,1-.2-.23,1,1,0,0,1-.08-.33v-1a3.61,3.61,0,0,1-.84-.86,5.81,5.81,0,0,1-1.15-2.11,4.72,4.72,0,0,1-.2-1.23.65.65,0,0,1,0-.34.23.23,0,0,1,.2,0l.7.4.24.28a.83.83,0,0,1,.14.35c.05.16.11.33.18.5a2.65,2.65,0,0,0,.26.5,3.5,3.5,0,0,0,.44.51,2.52,2.52,0,0,0,.62.45,1.69,1.69,0,0,0,.58.26.73.73,0,0,0,.83-.14.88.88,0,0,0,.13-.52,1.49,1.49,0,0,0-.15-.66,3.14,3.14,0,0,0-.42-.59l-.7-.7-1-1a10.1,10.1,0,0,1-.86-1,5.2,5.2,0,0,1-.62-1,4.52,4.52,0,0,1-.37-1.07,5.24,5.24,0,0,1-.11-1.25,3.72,3.72,0,0,1,.14-1,1.82,1.82,0,0,1,.42-.66,1,1,0,0,1,.64-.27,2.62,2.62,0,0,1,.79,0v-1a.41.41,0,0,1,.08-.24.23.23,0,0,1,.2,0l.81.46a.46.46,0,0,1,.18.21.77.77,0,0,1,.08.34Z"/><path class="cls-11" d="M314,208.16a5.89,5.89,0,0,1,.86,1,6.36,6.36,0,0,1,.61,1,5,5,0,0,1,.38,1,3.59,3.59,0,0,1,.14.86.65.65,0,0,1,0,.34h-.19l-.7-.4-.26-.3a1.54,1.54,0,0,1-.15-.35,3.74,3.74,0,0,0-.45-.92,3.59,3.59,0,0,0-.91-.83,2.22,2.22,0,0,0-.49-.18.55.55,0,0,0-.4,0,.46.46,0,0,0-.28.23.9.9,0,0,0-.09.46,1.69,1.69,0,0,0,.09.63,2.39,2.39,0,0,0,.36.59,6.22,6.22,0,0,0,.63.73l.93.86a7.27,7.27,0,0,1,1,1,4.84,4.84,0,0,1,1,2,5.38,5.38,0,0,1,.12,1.14,3.14,3.14,0,0,1-.15,1,1.3,1.3,0,0,1-1.13,1A2.59,2.59,0,0,1,314,219v1.05c0,.12,0,.21-.08.25a.15.15,0,0,1-.19,0l-.8-.45c-.05,0-.13-.11-.19-.22a1,1,0,0,1-.09-.34v-1.06a4.18,4.18,0,0,1-.84-.84,6.26,6.26,0,0,1-1.15-2.12,4.36,4.36,0,0,1-.21-1.24,1,1,0,0,1,0-.34.31.31,0,0,1,.19,0l.7.41a.76.76,0,0,1,.26.3,1.14,1.14,0,0,1,.15.36c.05.17.11.33.17.51a1.93,1.93,0,0,0,.26.49,2.85,2.85,0,0,0,.43.49,2.69,2.69,0,0,0,.63.48,1.94,1.94,0,0,0,1.07.32.43.43,0,0,0,.34-.21,1,1,0,0,0,.13-.52,1.26,1.26,0,0,0-.15-.64,3.3,3.3,0,0,0-.42-.61l-.7-.7a12.51,12.51,0,0,1-1-.93,13,13,0,0,1-.86-1,5.74,5.74,0,0,1-.62-1,4.32,4.32,0,0,1-.37-1.1,6.5,6.5,0,0,1-.11-1.24,3.36,3.36,0,0,1,.14-1,2.47,2.47,0,0,1,.41-.68,1.42,1.42,0,0,1,1.44-.24v-1a1.93,1.93,0,0,1,0-.34c0-.05.11-.05.2,0l.79.44a.45.45,0,0,1,.2.23.94.94,0,0,1,.08.34Z"/><path class="cls-6" d="M367.91,236.76l-35-20.24h0a.68.68,0,0,1-.2-.93h0v-.05a.71.71,0,0,1,1-.23l0,0,34.89,20.18h0a.7.7,0,0,1,.27.94l0,.06a.67.67,0,0,1-.63.36A.45.45,0,0,1,367.91,236.76Z"/><path class="cls-6" d="M368,243.52l-35-20.23h-.06a.7.7,0,0,1-.22-1l0,0h0a.7.7,0,0,1,.94-.21l34.89,20.15h0a.7.7,0,0,1,.27.94l0,.06a.67.67,0,0,1-.63.36A.51.51,0,0,1,368,243.52Z"/><path class="cls-6" d="M368,250.23l-35-20.18a.72.72,0,0,1-.23-.85h0a.73.73,0,0,1,1-.37h0L368.61,249h0a.72.72,0,0,1,.25,1v0a.68.68,0,0,1-.63.35A.48.48,0,0,1,368,250.23Z"/><g class="cls-14"><path d="M327.9,91.37l-2.8-6.44-2.75,3-3.08-1.88,4.29-4.31-4.07-9.19,3,1.86,2.67,6.05,2.61-2.82,2.9,1.77-4,4.12L331,93.27Z"/></g><g class="cls-14"><path d="M342.59,100.38l0-8.19-3.41,4.65L338,96.1l-3.4-8.64v8l-2.51-1.54V80.3l2.21,1.35,4.34,11.13,4.27-5.86,2.2,1.35,0,13.64Z"/><path d="M347.85,90l2.68,1.64v11.06l5.81,3.55v2.57l-8.49-5.19Z"/></g><g class="cls-14"><path d="M261.77,42.34a10.1,10.1,0,0,1,1.75,2.79,7.77,7.77,0,0,1,.61,3,3.44,3.44,0,0,1-.61,2.24,1.91,1.91,0,0,1-1.75.65,6.64,6.64,0,0,1-2.67-1l-2.33-1.43v3.76l-2.68-1.64V37l5,3.07A11.16,11.16,0,0,1,261.77,42.34Zm-1,5.49c.42-.16.63-.61.63-1.36a4,4,0,0,0-.63-2.15A5.62,5.62,0,0,0,259,42.58l-2.18-1.33V46L259,47.32A2.37,2.37,0,0,0,260.79,47.83Z"/></g><g class="cls-14"><path d="M266,44.37l5.26,3.22a13.81,13.81,0,0,1,5.58,6.65,10.9,10.9,0,0,1,.81,4.07,5,5,0,0,1-.81,3.09,2.55,2.55,0,0,1-2.25,1,7,7,0,0,1-3.33-1.19L266,58Zm5.13,14.18c1.16.7,2.08.89,2.77.55s1-1.15,1-2.45a7.25,7.25,0,0,0-1-3.72,7.91,7.91,0,0,0-2.77-2.83l-2.45-1.5v8.45Z"/><path d="M282.39,56.9v3.6l5.36,3.28v2.53L282.39,63v5l-2.68-1.64V52.73l8.75,5.36v2.53Z"/></g></g></g></g></g><g id="Window"><g id="Window-2"><path class="cls-1" d="M388.48,260.41,155.78,133.56V305.1c0,1.69,1.38,4.54,3,6.37a6,6,0,0,0,1.4,1.21l4.15,2.26L384.14,434.72c2.57,1.21,4.18.22,4.34-2.65Z"/><path class="cls-2" d="M387.48,261V431c-.17,2.5-1.59,3.37-3.84,2.34L163.89,313.49l-4.15-2.26a3.93,3.93,0,0,1-1-.86,9.08,9.08,0,0,1-1.38-2.1,5.36,5.36,0,0,1-.61-2.1v-171L387.48,261m1-.61L155.78,133.56V305.1c0,1.66,1.34,4.51,3,6.37a5.52,5.52,0,0,0,1.47,1.25l4.14,2.26L384.14,434.72c2.57,1.21,4.18.22,4.34-2.65V260.39Z"/><polygon class="cls-15" points="156.75 132.92 388.09 259.41 393.59 256.12 162.24 129.66 156.75 132.92"/><path class="cls-16" d="M386.52,435.67l.23-.38,4.57-7.78a16.28,16.28,0,0,0,2.26-5.89,3.31,3.31,0,0,0,0-.63V250.42L388,259.83V431.34a9.79,9.79,0,0,1-1.56,4.37Z"/><path class="cls-8" d="M388.09,259.48,156.75,133V121.61a4.88,4.88,0,0,1,2.16-3.74l1.19-.71a4.8,4.8,0,0,1,4.29-.11L391.45,241.16a4.58,4.58,0,0,1,2.15,3.65V256.2Z"/><path class="cls-17" d="M388.09,259.48,156.75,133V121.61a4.88,4.88,0,0,1,2.16-3.74l1.19-.71a4.8,4.8,0,0,1,4.29-.11L391.45,241.16a4.58,4.58,0,0,1,2.15,3.65V256.2Z"/><path class="cls-6" d="M388.09,259.48,156.76,133V121.6c0-1.36,1-1.93,2.14-1.27l227,124.14a4.58,4.58,0,0,1,2.15,3.65Z"/><path class="cls-18" d="M388.09,259.48,156.76,133V121.6c0-1.36,1-1.93,2.14-1.27l227,124.14a4.58,4.58,0,0,1,2.15,3.65Z"/><path class="cls-3" d="M378.32,248.58a4.28,4.28,0,0,0,2,3.42c1.19.54,1.94.07,2-1.28a4.21,4.21,0,0,0-2-3.41C379.14,246.76,378.39,247.24,378.32,248.58Z"/><path class="cls-3" d="M370.2,244.16a4.28,4.28,0,0,0,2,3.42c1.19.54,1.94.07,2-1.28a4.21,4.21,0,0,0-2-3.41C371,242.34,370.27,242.82,370.2,244.16Z"/><path class="cls-3" d="M362.08,239.74a4.24,4.24,0,0,0,2,3.42c1.19.54,1.94.07,2-1.28a4.21,4.21,0,0,0-2-3.41C362.9,237.92,362.15,238.4,362.08,239.74Z"/><path class="cls-11" d="M155.78,133.64V305.1c0,1.69,1.38,4.54,3,6.37a6,6,0,0,0,1.4,1.21l4.15,2.26,50.85,27.71V166l-59.44-32.41Z"/><polygon class="cls-11" points="219.28 173.5 219.28 340.01 383.61 429.46 383.61 262.95 219.28 173.5"/><path class="cls-3" d="M201.61,170.9l-37.92-20.62c-.75-.36-1.23-.08-1.28.76v4a2.74,2.74,0,0,0,1.28,2.16l37.93,20.63c.75.35,1.22.06,1.27-.78v-3.94A2.76,2.76,0,0,0,201.61,170.9Z"/><path class="cls-19" d="M201.61,170.9l-37.92-20.62c-.75-.36-1.23-.08-1.28.76v4a2.74,2.74,0,0,0,1.28,2.16l37.93,20.63c.75.35,1.22.06,1.27-.78v-3.94A2.76,2.76,0,0,0,201.61,170.9Z"/><path class="cls-8" d="M210.06,181.94l-1.12-2.33a2.35,2.35,0,0,0,.35-1.39,5.5,5.5,0,0,0-.83-2.85,3.64,3.64,0,0,0-1.36-1.47c-1.13-.41-1.78.21-1.76,1.66a5.91,5.91,0,0,0,.84,2.86,8,8,0,0,0,.6.84,3.54,3.54,0,0,0,.76.63,1.18,1.18,0,0,0,1,.12l.92,1.91a2.34,2.34,0,0,0,.3.47.74.74,0,0,0,.33.22c.17,0,.17-.26,0-.63Zm-3-3.36a1.3,1.3,0,0,1-.48-.48,3.37,3.37,0,0,1-.4-1.61c0-1.13.47-1.64,1.33-1.39a1.18,1.18,0,0,1,.3.25.63.63,0,0,1,.17.19,3.41,3.41,0,0,1,.39,1.6c.06,1.2-.41,1.77-1.27,1.54Z"/><path class="cls-8" d="M163.35,168.36l-.85-.47a.21.21,0,0,1-.09-.17v-2.3c0-.07,0-.1.09-.08l.85.47a.31.31,0,0,1,.09.17v2.3C163.43,168.35,163.4,168.38,163.35,168.36Z"/><path class="cls-8" d="M164.61,169l-.85-.46a.4.4,0,0,1-.09-.17v-2.3c0-.07,0-.1.09-.07l.85.46c0,.06.09.1.09.16V169Z"/><path class="cls-8" d="M165.88,169.74l-.85-.47a.4.4,0,0,1-.09-.17v-2.31c0-.06,0-.09.09-.07l.85.47a.2.2,0,0,1,.09.17v2.3C166,169.73,165.94,169.76,165.88,169.74Z"/><path class="cls-8" d="M163.35,171.33l-.85-.47a.21.21,0,0,1-.09-.17v-2.3c0-.07,0-.1.09-.08l.85.47a.31.31,0,0,1,.09.17v2.3C163.43,171.32,163.4,171.35,163.35,171.33Z"/><path class="cls-8" d="M164.61,172l-.85-.46a.4.4,0,0,1-.09-.17v-2.3c0-.07,0-.1.09-.07l.85.46c0,.06.09.1.09.16V172Z"/><path class="cls-8" d="M165.88,172.7l-.85-.46a.4.4,0,0,1-.09-.17v-2.31c0-.06,0-.09.09-.07l.85.47a.2.2,0,0,1,.09.17v2.3C166,172.7,165.94,172.72,165.88,172.7Z"/><path class="cls-8" d="M163.47,179.31l-1-1.75v-.19l1-.73c0-.09.14.07.14.15v2.49C163.61,179.4,163.52,179.4,163.47,179.31Z"/><path class="cls-8" d="M163,177.41l1.38.76v.63l-1.38-.75a.54.54,0,0,1-.21-.45C162.83,177.44,162.91,177.37,163,177.41Z"/><polygon class="cls-8" points="164.68 178.31 165.15 178.56 165.15 179.22 164.68 178.96 164.68 178.31"/><path class="cls-8" d="M166.41,179.58V182c0,.18-.07.26-.22.2a.49.49,0,0,1-.21-.43v-2.08l-.58-.32v-.65l.79.42A.53.53,0,0,1,166.41,179.58Z"/><path class="cls-8" d="M163.89,185.2c-1.09-.23-1.63.62-1.45,2.28.17,1.44.92,2.23,1,2.91a.18.18,0,0,0,.05.12h0l.93.51c.06,0,.1,0,.1-.06.11-.65,1.06-.52,1.06-2.38A3.82,3.82,0,0,0,163.89,185.2Z"/><path class="cls-8" d="M164.44,192.53l-.89-.49a.36.36,0,0,1-.11-.21V191c0-.09,0-.12.11-.1l.89.49a.33.33,0,0,1,.11.21v.83C164.55,192.52,164.51,192.56,164.44,192.53Z"/><path class="cls-8" d="M164.11,166c-1-.15-1.53.43-1.64,1.62a5.35,5.35,0,0,0,.23,2.14l-.3,1.24c0,.13,0,.19.12.25h.91a2.64,2.64,0,0,0,1.32,1.1c.95.14,1.53-.44,1.63-1.63C166.61,168.77,165.46,166.38,164.11,166Zm.32,5.51a3.87,3.87,0,0,1-1.51-3.16c0-1.26.53-1.82,1.51-1.5A3.86,3.86,0,0,1,166,170c0,1.27-.55,1.82-1.53,1.5Z"/><path class="cls-8" d="M164.11,196.32c-1-.14-1.53.43-1.64,1.62a5.42,5.42,0,0,0,.23,2.15l-.3,1.23c0,.13,0,.2.12.26h.91a2.64,2.64,0,0,0,1.32,1.1c.95.13,1.52-.45,1.63-1.63C166.61,199.12,165.46,196.72,164.11,196.32Zm.32,5.52a3.87,3.87,0,0,1-1.51-3.16c0-1.26.53-1.82,1.51-1.5a3.86,3.86,0,0,1,1.52,3.16c0,1.25-.56,1.79-1.53,1.47Z"/><path class="cls-8" d="M165.38,208.88c0,.68-.28,1-.8.8a2,2,0,0,1-.8-1.67c0-.67.29-1,.8-.79A2,2,0,0,1,165.38,208.88Z"/><path class="cls-8" d="M166.75,210.65c0,.45-.18.65-.53.54a1.4,1.4,0,0,1-.53-1.12c0-.45.19-.64.53-.52A1.28,1.28,0,0,1,166.75,210.65Z"/><path class="cls-8" d="M165.52,213.88l-1.88-1V210.5c0-.51.26-.71.68-.54l.52.28a1.51,1.51,0,0,1,.68,1.28Z"/><path class="cls-8" d="M166.3,211.56l-.52-.29V214l1,.55v-2.12A1.08,1.08,0,0,0,166.3,211.56Z"/><path class="cls-8" d="M162.41,208.29a1.41,1.41,0,0,0,.53,1.11c.35.11.54-.08.53-.53a1.33,1.33,0,0,0-.53-1.11C162.6,207.65,162.41,207.85,162.41,208.29Z"/><path class="cls-8" d="M162.89,209.7l.52.28v2.76l-1-.56V210C162.41,209.7,162.59,209.57,162.89,209.7Z"/><path class="cls-2" d="M171.63,172.24l22.25,12.15a2.23,2.23,0,0,1,1.08,1.77c-.05.68-.45.89-1.08.58l-22.2-12.09a2.23,2.23,0,0,1-1.08-1.76C170.64,172.21,171,172,171.63,172.24Z"/><path class="cls-2" d="M171.63,182.69l22.25,12.16a2.24,2.24,0,0,1,1.08,1.77c-.05.68-.45.89-1.08.58l-22.2-12.09a2.23,2.23,0,0,1-1.08-1.76C170.63,182.66,171,182.42,171.63,182.69Z"/><path class="cls-2" d="M171.63,193.15l22.25,12.15a2.21,2.21,0,0,1,1.08,1.76c-.05.68-.45.9-1.08.58l-22.2-12.09a2.23,2.23,0,0,1-1.08-1.76C170.64,193.11,171,192.87,171.63,193.15Z"/><path class="cls-2" d="M171.63,203.6l22.25,12.15a2.23,2.23,0,0,1,1.08,1.77c-.05.67-.45.89-1.08.57L171.68,206a2.23,2.23,0,0,1-1.08-1.76C170.63,203.56,171,203.33,171.63,203.6Z"/><path class="cls-2" d="M171.63,214.05l22.25,12.15A2.24,2.24,0,0,1,195,228c-.05.68-.45.89-1.08.58l-22.2-12.09a2.23,2.23,0,0,1-1.08-1.76C170.64,214,171,213.78,171.63,214.05Z"/><path class="cls-8" d="M175.69,227.15l22.19,12.08A2.19,2.19,0,0,1,199,241c-.05.68-.45.9-1.08.59l-22.19-12.08a2.22,2.22,0,0,1-1.09-1.75C174.66,227.06,175.06,226.84,175.69,227.15Z"/><path class="cls-2" d="M175.69,234.21l22.19,12.13A2.22,2.22,0,0,1,199,248.1c-.05.68-.45.89-1.08.58l-22.19-12.13a2.22,2.22,0,0,1-1.09-1.75C174.66,234.12,175.06,233.9,175.69,234.21Z"/><path class="cls-2" d="M175.69,241.27l22.19,12.07A2.22,2.22,0,0,1,199,255.1c-.05.68-.45.89-1.08.58l-22.19-12.06a2.24,2.24,0,0,1-1.09-1.76C174.66,241.18,175.06,241,175.69,241.27Z"/><path class="cls-2" d="M180,250.62l22.19,12.08a2.22,2.22,0,0,1,1.09,1.76c-.05.68-.45.89-1.09.58L180,253a2.25,2.25,0,0,1-1.09-1.77C179,250.51,179.38,250.3,180,250.62Z"/><path class="cls-8" d="M174.81,250.85l1.81-1.15c.07,0,.07-.2,0-.32l-1.81-3.13c-.08-.14-.21-.12-.21.05v4.28C174.6,250.75,174.74,250.92,174.81,250.85Z"/><path class="cls-2" d="M180,257.65l22.19,12.08a2.22,2.22,0,0,1,1.09,1.77c-.05.68-.46.89-1.09.58L180,260a2.27,2.27,0,0,1-1.09-1.78C179,257.55,179.39,257.33,180,257.65Z"/><path class="cls-8" d="M174.81,257.89l1.81-1.15c.07,0,.07-.2,0-.33l-1.81-3.12c-.08-.15-.21-.12-.21.05v4.28C174.6,257.79,174.74,258,174.81,257.89Z"/><path class="cls-2" d="M180,264.69l22.19,12.08a2.22,2.22,0,0,1,1.09,1.77c-.05.68-.46.89-1.09.58L180,267a2.27,2.27,0,0,1-1.09-1.78C179,264.59,179.39,264.37,180,264.69Z"/><path class="cls-8" d="M174.81,264.93l1.81-1.16c.07,0,.07-.2,0-.32l-1.81-3.13c-.08-.14-.21-.11-.21.06v4.28C174.6,264.83,174.74,265,174.81,264.93Z"/><path class="cls-2" d="M180,271.73l22.19,12.08a2.22,2.22,0,0,1,1.09,1.76c-.05.68-.45.89-1.09.58L180,274.07a2.25,2.25,0,0,1-1.09-1.77C179,271.62,179.38,271.41,180,271.73Z"/><path class="cls-8" d="M174.81,272l1.81-1.15c.07,0,.07-.2,0-.32l-1.81-3.13c-.08-.15-.21-.12-.21.05v4.28A.31.31,0,0,0,174.81,272Z"/><path class="cls-2" d="M180,278.76l22.19,12.08a2.22,2.22,0,0,1,1.09,1.77c-.05.68-.46.89-1.09.58L180,281.11a2.27,2.27,0,0,1-1.09-1.78C179,278.66,179.39,278.44,180,278.76Z"/><path class="cls-8" d="M174.81,279l1.81-1.15c.07,0,.07-.2,0-.33l-1.81-3.13c-.08-.14-.21-.11-.21.06v4.28C174.6,278.9,174.74,279.06,174.81,279Z"/><path class="cls-2" d="M180,285.8l22.19,12.08a2.22,2.22,0,0,1,1.09,1.77c-.05.68-.46.89-1.09.57L180,288.15a2.27,2.27,0,0,1-1.09-1.78C179,285.7,179.39,285.48,180,285.8Z"/><path class="cls-8" d="M174.81,286l1.81-1.16c.07,0,.07-.2,0-.32l-1.81-3.13c-.08-.14-.21-.11-.21.06v4.28C174.6,285.94,174.74,286.1,174.81,286Z"/><path class="cls-2" d="M180,292.84l22.19,12.08a2.22,2.22,0,0,1,1.09,1.76c-.05.68-.45.89-1.09.58L180,295.18a2.27,2.27,0,0,1-1.09-1.78C179,292.73,179.39,292.52,180,292.84Z"/><path class="cls-8" d="M174.81,293.07l1.81-1.15c.07,0,.07-.2,0-.32l-1.81-3.13c-.08-.15-.21-.12-.21,0v4.28C174.6,293,174.74,293.14,174.81,293.07Z"/><path class="cls-2" d="M180,299.87,202.21,312a2.22,2.22,0,0,1,1.09,1.77c-.05.68-.46.89-1.09.58L180,302.22a2.27,2.27,0,0,1-1.09-1.78C179,299.77,179.39,299.55,180,299.87Z"/><path class="cls-8" d="M174.81,300.11l1.81-1.15c.07,0,.07-.2,0-.33l-1.81-3.13c-.08-.14-.21-.11-.21.06v4.28C174.6,300,174.74,300.17,174.81,300.11Z"/><path class="cls-1" d="M224.43,202.12l73,39.75c.64.31,1.05.06,1.08-.66V222.58a2.24,2.24,0,0,0-1.08-1.83l-73-39.76c-.64-.3-1-.06-1.09.65v18.62A2.42,2.42,0,0,0,224.43,202.12Z"/><path class="cls-8" d="M230.79,196.11h0l.48-1.46-.66-.36-.05-.06v-.49h.05l1.06.58h0a.06.06,0,0,1,0,.06v.32a.6.6,0,0,1,0,.19l-.48,1.46a.08.08,0,0,1,0,.07m0,.05-.32-.18h0a.38.38,0,0,1-.08-.17Z"/><path class="cls-8" d="M232.56,194.73a.83.83,0,0,1,.29.24,1,1,0,0,1,.2.3,1.15,1.15,0,0,1,.12.37.92.92,0,0,1,0,.33v.61a2.41,2.41,0,0,1,0,.38.94.94,0,0,1-.12.22.35.35,0,0,1-.2.1.75.75,0,0,1-.29-.09,1,1,0,0,1-.28-.22,3.28,3.28,0,0,1-.2-.31,2.65,2.65,0,0,1-.12-.37.92.92,0,0,0-.05-.38v-.6A1.58,1.58,0,0,1,232,195a.46.46,0,0,1,.12-.23.25.25,0,0,1,.2-.09A.4.4,0,0,1,232.56,194.73Zm.24,1.65a5.61,5.61,0,0,0,0-.58.38.38,0,0,0,0-.15.17.17,0,0,0,0-.1.27.27,0,0,0-.07-.08l-.11-.12h-.18v.32a5.42,5.42,0,0,0,0,.57v.25l.07.08.11.12h.11a.06.06,0,0,0,.08,0v-.32Z"/><path class="cls-8" d="M234.1,196.07v.26a.74.74,0,0,1,0,.21.16.16,0,0,1-.06.12h-.26l-.15-.17-.11-.12a.41.41,0,0,1-.05-.18.28.28,0,0,1,0-.18v-.26a.67.67,0,0,1,0-.2.17.17,0,0,1,.05-.12l.11-.05a.27.27,0,0,1,.15.05.5.5,0,0,1,.15.17.43.43,0,0,1,.11.12.31.31,0,0,1,.06.19A.43.43,0,0,1,234.1,196.07Zm.55-.1v-.07h0l.18.09h0l-1,1.83v.11l-.18-.1h0Zm-1,.1v.12l.07.08h.08v-.49m-.08-.07h-.07v.37Zm1.4,2.12v.3a.74.74,0,0,1,0,.21.34.34,0,0,1-.06.12h-.26a2.09,2.09,0,0,1-.14-.17l-.11-.12a.35.35,0,0,1-.06-.19.25.25,0,0,1,0-.17v-.26a.74.74,0,0,1,0-.21.11.11,0,0,1,.06-.12.13.13,0,0,1,.11-.05.16.16,0,0,1,.14.05.5.5,0,0,1,.15.17.32.32,0,0,1,.11.12.6.6,0,0,1,.06.19v.14Zm-.44,0V198l.07.08c.08.08,0,0,.08,0v-.49m-.15-.08v0Z"/><path class="cls-8" d="M230.78,190.37l-.73-2a4.08,4.08,0,0,0-1.73,2.73l1.18,1.22A3,3,0,0,1,230.78,190.37Z"/><path class="cls-8" d="M232.88,190.48V188.6a2.69,2.69,0,0,0-2.8-.14l.73,1.95A2,2,0,0,1,232.88,190.48Z"/><path class="cls-8" d="M229.33,194a7.66,7.66,0,0,1,.17-1.59l-1.18-1.22a9.53,9.53,0,0,0-.24,2.13,13.85,13.85,0,0,0,.24,2.4h1.18A11.13,11.13,0,0,1,229.33,194Z"/><path class="cls-3" d="M237.38,196.07a14.06,14.06,0,0,0-1.73-4.61,7.63,7.63,0,0,0-2.8-2.92v1.91a5.61,5.61,0,0,1,2.07,2.17,10.29,10.29,0,0,1,1.28,3.44,8.68,8.68,0,0,1,.17,1.76,6.56,6.56,0,0,1-.17,1.59,3.07,3.07,0,0,1-1.28,2,2,2,0,0,1-2.07-.08,5.83,5.83,0,0,1-2.07-2.17,10.37,10.37,0,0,1-1.28-3.44h-1.18a14.46,14.46,0,0,0,1.73,4.61,7.85,7.85,0,0,0,2.8,2.92,2.73,2.73,0,0,0,2.8.14,4,4,0,0,0,1.73-2.7,8.69,8.69,0,0,0,.23-2.15A12,12,0,0,0,237.38,196.07Z"/><path class="cls-8" d="M244.74,199.09,267,211.18a2.19,2.19,0,0,1,1.08,1.75c0,.68-.45.9-1.08.59l-22.21-12.09a2.23,2.23,0,0,1-1.08-1.75C243.72,199,244.12,198.78,244.74,199.09Z"/><path class="cls-2" d="M244.74,203.82l38.45,20.93a2.22,2.22,0,0,1,1.09,1.77c0,.68-.46.89-1.09.57l-38.45-20.93a2.23,2.23,0,0,1-1.08-1.76C243.72,203.72,244.12,203.5,244.74,203.82Z"/><path class="cls-1" d="M303.63,245.22l73,39.75c.64.29,1,0,1.08-.67V265.69a2.21,2.21,0,0,0-1.08-1.83l-73-39.76c-.63-.3-1,0-1.08.67v18.61A2.31,2.31,0,0,0,303.63,245.22Z"/><path class="cls-8" d="M310.35,237.92a1.61,1.61,0,0,1,.06-.33.45.45,0,0,1,.14-.19.27.27,0,0,1,.21-.05.4.4,0,0,1,.24.07,1,1,0,0,1,.25.2,1.05,1.05,0,0,1,.2.27,1.37,1.37,0,0,1,.15.35.91.91,0,0,1,0,.33.6.6,0,0,1,0,.19.54.54,0,0,1,0,.18.22.22,0,0,1-.05.11l-.06.09-.42.67v.06H311l-.35-.2h0l.28-.45a2.25,2.25,0,0,1-.21-.24,1.45,1.45,0,0,1-.17-.26,2,2,0,0,1-.12-.31A4.17,4.17,0,0,1,310.35,237.92Zm.89.48v-.18l-.08-.09-.08-.1h-.17l-.06.07v.25a.34.34,0,0,0,.06.12.08.08,0,0,0,.08.08.28.28,0,0,0,.09.1h.16a.28.28,0,0,0,0-.13.28.28,0,0,0,0-.13Z"/><path class="cls-8" d="M312.49,238.24a.6.6,0,0,1,.28.22.92.92,0,0,1,.2.31,1.09,1.09,0,0,1,.12.36,1.67,1.67,0,0,1,.05.39v.61a1.19,1.19,0,0,1-.05.32.47.47,0,0,1-.12.23.37.37,0,0,1-.2.09.89.89,0,0,1-.28-.07,1.68,1.68,0,0,1-.29-.24,3.28,3.28,0,0,1-.2-.31c-.05-.13-.09-.26-.12-.37a1.71,1.71,0,0,1,0-.32v-.61a2.41,2.41,0,0,1,0-.38.84.84,0,0,1,.12-.23.4.4,0,0,1,.2-.09A.39.39,0,0,1,312.49,238.24Zm.23,1.63a5.61,5.61,0,0,0,0-.58.33.33,0,0,0,0-.14.2.2,0,0,0,0-.11.16.16,0,0,0-.07-.07l-.11-.13a.11.11,0,0,0-.11,0h-.07v.32a5.42,5.42,0,0,0,0,.57V240l.08.09.11.12h.11a.18.18,0,0,0,.07-.05.38.38,0,0,0,0-.15.61.61,0,0,0,0-.14Z"/><path class="cls-8" d="M314,239.56a1.13,1.13,0,0,1,0,.26.74.74,0,0,1,0,.21.26.26,0,0,1-.07.11.17.17,0,0,1-.1.05.3.3,0,0,1-.16-.05l-.15-.12-.1-.11a.68.68,0,0,0-.07-.2v-.64l.07-.11a.21.21,0,0,1,.1-.06h.15a.93.93,0,0,1,.16.18.36.36,0,0,1,.1.11.68.68,0,0,1,.07.2A.25.25,0,0,1,314,239.56Zm.56-.09v-.07h0l.3.19h0l-1.09,1.63v.06h0l-.18-.1h0v-.05Zm-1,.1v.12l.06.07c.06.07.07,0,.07,0a.38.38,0,0,0,0-.15v-.34l-.07-.08c-.07-.08-.05,0-.06,0v.38Zm1.47,1.75a1.13,1.13,0,0,1,0,.26.74.74,0,0,1,0,.21.26.26,0,0,1-.07.11l-.1.06-.15-.05-.16-.18-.1-.11a.68.68,0,0,0-.07-.2v-.17a1.13,1.13,0,0,1,0-.26v-.21a.41.41,0,0,1,.07-.11.09.09,0,0,1,.1,0,.22.22,0,0,1,.16,0,.5.5,0,0,1,.15.17.22.22,0,0,1,.1.11.68.68,0,0,1,.07.2A.48.48,0,0,1,315,241.32Zm-.44,0v.12l.07.08h.06a.38.38,0,0,0,0-.15v-.22a.24.24,0,0,0,0-.12l-.06-.07h-.07Z"/><path class="cls-8" d="M312.71,233.91V232a2.73,2.73,0,0,0-2.8-.14l.73,1.95A2,2,0,0,1,312.71,233.91Z"/><path class="cls-3" d="M317.24,239.53a13.84,13.84,0,0,0-1.73-4.61,7.56,7.56,0,0,0-2.8-2.92v1.91a5.63,5.63,0,0,1,2.07,2.18,10,10,0,0,1,1.28,3.43,9.46,9.46,0,0,1,.17,1.76,6.56,6.56,0,0,1-.17,1.59,3,3,0,0,1-1.28,2,2,2,0,0,1-2.07-.09,5.75,5.75,0,0,1-2.07-2.17,10.32,10.32,0,0,1-1.28-3.43,10.61,10.61,0,0,1-.17-1.77,7.64,7.64,0,0,1,.17-1.58,3,3,0,0,1,1.28-2l-.73-2a4.09,4.09,0,0,0-1.73,2.72,9.62,9.62,0,0,0-.24,2.14,13.85,13.85,0,0,0,.24,2.4,14.23,14.23,0,0,0,1.73,4.61,7.77,7.77,0,0,0,2.8,2.92c1.18.57,2.14.62,2.8.14h0a4.08,4.08,0,0,0,1.73-2.72,9.19,9.19,0,0,0,.23-2.15A12.34,12.34,0,0,0,317.24,239.53Z"/><path class="cls-8" d="M324.58,242.53l22.21,12.08a2.21,2.21,0,0,1,1.08,1.76c-.05.69-.45.9-1.08.59l-22.21-12.09a2.23,2.23,0,0,1-1.08-1.76C323.56,242.43,324,242.22,324.58,242.53Z"/><path class="cls-2" d="M324.58,247.25,363,268.2a2.21,2.21,0,0,1,1.08,1.76c-.05.67-.45.89-1.08.58L324.58,249.6a2.23,2.23,0,0,1-1.08-1.76C323.56,247.16,324,246.94,324.58,247.25Z"/><path class="cls-8" d="M231.88,215.57l15.58,8.48a2.19,2.19,0,0,1,1.08,1.75c0,.68-.45.9-1.08.59l-15.58-8.48a2.23,2.23,0,0,1-1.08-1.76C230.86,215.48,231.26,215.27,231.88,215.57Z"/><path class="cls-2" d="M376.7,300.2v119c0,.36-.25.49-.58.35L224.35,336.92v-119c.05-.35.26-.47.58-.34l1.89,1c1,.47,1.55.11,1.59-1v-6.86c0-.36.26-.49.58-.35l21.79,11.86v6.38a6,6,0,0,0,1.49,3.43.76.76,0,0,1,.11.14,4.25,4.25,0,0,0,1,.84l123.34,67.15m.38-.86a1.58,1.58,0,0,0-.48-.38L252.88,231.67a2.28,2.28,0,0,1-.48-.39,2.35,2.35,0,0,1-.6-1.44V223a2.36,2.36,0,0,0-.6-1.45,1.58,1.58,0,0,0-.48-.38L228.51,209c-.63-.3-1-.05-1.08.67v6.88c0,.71-.44,1-1.09.65l-1.89-1c-.63-.31-1-.06-1.08.66V336.31a2.34,2.34,0,0,0,.59,1.44,2.38,2.38,0,0,0,.49.4L376.64,421c.64.3,1,.05,1.08-.66V300.88a2.25,2.25,0,0,0-.6-1.44Z"/><path class="cls-2" d="M233.13,233a6.05,6.05,0,0,1-.53-.72,3.89,3.89,0,0,1-.57-1.78V226c.05-.89.55-1.19,1.34-.81l12.07,6.54A3.41,3.41,0,0,1,246.7,233a3.51,3.51,0,0,1,.57,1.78v4.53c0,.89-.53,1.19-1.33.81l-12.07-6.54A3.44,3.44,0,0,1,233.13,233Zm.74-6.41c-.49-.23-.8,0-.84.5v4.53a.85.85,0,0,0,.08.35.59.59,0,0,0,.27.22l12.07,6.59c.48.21.78,0,.83-.52v-4.53a.77.77,0,0,0-.07-.34.78.78,0,0,0-.26-.22Z"/><path class="cls-2" d="M234.58,229.24l7.87,4.27a1.46,1.46,0,0,1,.72,1.17c0,.45-.3.6-.72.39l-7.87-4.26a1.51,1.51,0,0,1-.72-1.18C233.9,229.19,234.17,229,234.58,229.24Z"/><path class="cls-8" d="M244.28,234.81l.65,1.66s.07.08.1.05l.65-1c0-.08,0-.15-.05-.17l-1.3-.71C244.28,234.67,244.26,234.72,244.28,234.81Z"/><path class="cls-3" d="M231.47,275.08a2.08,2.08,0,0,1,1,1.72c0,.7-.39,1-1,.69a2.1,2.1,0,0,1-1-1.72C230.5,275.07,230.87,274.82,231.47,275.08Z"/><path class="cls-3" d="M239.59,274.81a2.08,2.08,0,0,1,1,1.72c0,.7-.39,1-1,.69a2.1,2.1,0,0,1-1-1.72C238.62,274.8,239,274.55,239.59,274.81Z"/><path class="cls-3" d="M247.72,279.25a2.09,2.09,0,0,1,1,1.72c0,.7-.4.95-1,.69a2.24,2.24,0,0,1-1.05-1.78C246.71,279.19,247.1,279,247.72,279.25Z"/><path class="cls-3" d="M255.88,285.76a2.11,2.11,0,0,1,1,1.73c0,.69-.39.95-1,.68a2.1,2.1,0,0,1-1-1.72C254.91,285.76,255.29,285.5,255.88,285.76Z"/><path class="cls-3" d="M264,286.4a2.11,2.11,0,0,1,1,1.73c0,.69-.4.94-1,.68a2.08,2.08,0,0,1-1-1.72C263,286.4,263.39,286.14,264,286.4Z"/><path class="cls-3" d="M272.09,292.51a2.08,2.08,0,0,1,1,1.72c0,.7-.39.95-1,.69a2.1,2.1,0,0,1-1-1.72C271.12,292.5,271.49,292.24,272.09,292.51Z"/><path class="cls-3" d="M280.21,292.24a2.21,2.21,0,0,1,1.05,1.77c0,.69-.43.93-1.05.64a2.14,2.14,0,0,1-1-1.74C279.25,292.23,279.62,292,280.21,292.24Z"/><path class="cls-3" d="M288.34,299a2.11,2.11,0,0,1,1,1.73c0,.68-.4.94-1,.68a2.08,2.08,0,0,1-1-1.73C287.37,299,287.75,298.75,288.34,299Z"/><path class="cls-3" d="M296.46,282.31a2.26,2.26,0,0,1,1.05,1.79c0,.69-.43.92-1.05.63a2.08,2.08,0,0,1-1-1.73C295.5,282.32,295.87,282.06,296.46,282.31Z"/><path class="cls-3" d="M304.59,305.51a2.08,2.08,0,0,1,1,1.73c0,.68-.4.94-1,.68a2.08,2.08,0,0,1-1-1.73C303.62,305.5,304,305.25,304.59,305.51Z"/><path class="cls-3" d="M312.71,314.62a2.08,2.08,0,0,1,1,1.73c0,.69-.4.94-1,.68a2.08,2.08,0,0,1-1-1.73C311.74,314.61,312.11,314.36,312.71,314.62Z"/><path class="cls-3" d="M320.88,323.79a2.2,2.2,0,0,1,1.05,1.78c0,.68-.43.92-1.05.63a2.11,2.11,0,0,1-1-1.73C319.92,323.78,320.29,323.53,320.88,323.79Z"/><path class="cls-3" d="M329,318.78a2.05,2.05,0,0,1,1,1.72c0,.69-.4.95-1,.69a2.27,2.27,0,0,1-1-1.79C328,318.72,328.35,318.48,329,318.78Z"/><path class="cls-3" d="M337.08,325.19a2.23,2.23,0,0,1,1.05,1.78c0,.69-.42.93-1.05.63a2.1,2.1,0,0,1-1-1.72C336.11,325.18,336.49,324.93,337.08,325.19Z"/><path class="cls-3" d="M345.23,323a2.08,2.08,0,0,1,1,1.73c0,.7-.4.95-1,.68a2.08,2.08,0,0,1-1-1.72C344.27,323,344.64,322.7,345.23,323Z"/><ellipse class="cls-3" cx="353.35" cy="333.29" rx="0.87" ry="1.45" transform="translate(-119.25 221.08) rotate(-29.97)"/><ellipse class="cls-3" cx="361.47" cy="342.4" rx="0.87" ry="1.45" transform="translate(-122.71 226.36) rotate(-29.97)"/><path class="cls-3" d="M369.58,345.58a2.08,2.08,0,0,1,1,1.73c0,.69-.39.95-1,.68a2.22,2.22,0,0,1-1.05-1.78C368.58,345.52,369,345.29,369.58,345.58Z"/><path class="cls-3" d="M231.45,276.53a2.2,2.2,0,0,1-.17-.25c-.09-.21-.09-.37,0-.36l8.2-.22h.07l8.06,4.39,8.11,6.46,8.08.66h.1l8.06,6,8.09-.25a.11.11,0,0,1,.12.05l8,6.67,8.08-16.6c0-.09.18,0,.31.18a.73.73,0,0,1,.15.29l8.05,23,16,17.94,8.05-4.91H329l8.05,6.36,8.07-2.26c.06,0,.13.05.21.14L361.46,342l8.06,4.38a1.05,1.05,0,0,1,.35.48c.07.19,0,.29-.1.23l-8.12-4.41-.13-.14-16.18-18.15-8,2.29h-.13l-8-6.31-8.08,4.94a.29.29,0,0,1-.22-.13l-16.32-18.31a1.34,1.34,0,0,1-.22-.36l-7.84-22.38-7.95,16.34h-.17l-8-6.65-8.08.27-.1-.05-8.07-6-8.09-.66a.21.21,0,0,1-.1-.06l-8.13-6.49-8-4.35-8.17.23A.55.55,0,0,1,231.45,276.53Z"/><path class="cls-2" d="M231.47,281.48a2.7,2.7,0,0,1-.43-.73c-.13-.4,0-.61.18-.49l138.11,75.2a1.72,1.72,0,0,1,.7.89c.17.41.12.66-.11.58l-.09-.05L231.72,281.69A1.27,1.27,0,0,1,231.47,281.48Z"/><path class="cls-3" d="M231.47,270.39a2.08,2.08,0,0,1,1,1.72c0,.7-.39,1-1,.69a2.1,2.1,0,0,1-1-1.72C230.5,270.38,230.87,270.13,231.47,270.39Z"/><path class="cls-3" d="M239.59,265.43a2.08,2.08,0,0,1,1,1.72c0,.7-.39,1-1,.69a2.1,2.1,0,0,1-1-1.72C238.62,265.42,239,265.17,239.59,265.43Z"/><ellipse class="cls-3" cx="247.73" cy="274.02" rx="0.87" ry="1.45" transform="translate(-103.76 160.39) rotate(-29.97)"/><path class="cls-3" d="M255.88,264.94a2.08,2.08,0,0,1,1,1.73c0,.69-.4.94-1,.68a2.08,2.08,0,0,1-1-1.73C254.91,264.93,255.28,264.68,255.88,264.94Z"/><path class="cls-3" d="M264,278.72a2.09,2.09,0,0,1,1,1.72c0,.7-.4.95-1,.69a2.1,2.1,0,0,1-1-1.72C263,278.71,263.38,278.46,264,278.72Z"/><path class="cls-3" d="M272.09,285.47a2.08,2.08,0,0,1,1,1.73c0,.69-.4.94-1,.68a2.08,2.08,0,0,1-1-1.72C271.13,285.46,271.5,285.21,272.09,285.47Z"/><path class="cls-3" d="M280.21,287.55a2.21,2.21,0,0,1,1.05,1.77c0,.69-.43.93-1.05.64a2.13,2.13,0,0,1-1-1.73C279.24,287.54,279.62,287.29,280.21,287.55Z"/><path class="cls-3" d="M288.34,287.29a2.05,2.05,0,0,1,1,1.72c0,.69-.4.94-1,.69a2.11,2.11,0,0,1-1-1.74C287.37,287.27,287.75,287,288.34,287.29Z"/><path class="cls-3" d="M296.46,294a2.24,2.24,0,0,1,1.05,1.78c0,.7-.42.93-1.05.63a2.1,2.1,0,0,1-1-1.72C295.49,294,295.87,293.78,296.46,294Z"/><path class="cls-3" d="M304.59,296.13a2.08,2.08,0,0,1,1,1.73c0,.68-.4.94-1,.68a2.08,2.08,0,0,1-1-1.73C303.62,296.12,304,295.87,304.59,296.13Z"/><path class="cls-3" d="M312.71,305.24a2.08,2.08,0,0,1,1,1.73c0,.69-.4.94-1,.68a2.08,2.08,0,0,1-1-1.73C311.74,305.23,312.11,305,312.71,305.24Z"/><path class="cls-3" d="M320.88,295.64a2.25,2.25,0,0,1,1.05,1.79c0,.68-.43.92-1.05.62a2.08,2.08,0,0,1-1-1.72C319.92,295.64,320.29,295.38,320.88,295.64Z"/><path class="cls-3" d="M329,314a2.08,2.08,0,0,1,1,1.72c0,.7-.4.95-1,.69a2.25,2.25,0,0,1-1-1.78C328,314,328.34,313.73,329,314Z"/><path class="cls-3" d="M337.08,313.81a2.25,2.25,0,0,1,1.05,1.79c0,.69-.43.92-1.05.62a2.08,2.08,0,0,1-1-1.72C336.12,313.81,336.49,313.56,337.08,313.81Z"/><path class="cls-3" d="M345.21,318.24a2.11,2.11,0,0,1,1,1.73c0,.69-.4.94-1,.68a2.22,2.22,0,0,1-1-1.78C344.21,318.19,344.6,318,345.21,318.24Z"/><path class="cls-3" d="M353.33,327.35a2.08,2.08,0,0,1,1,1.73c0,.69-.39.95-1,.68a2.08,2.08,0,0,1-1-1.72C352.37,327.35,352.74,327.09,353.33,327.35Z"/><path class="cls-3" d="M361.45,331.77a2.25,2.25,0,0,1,1.05,1.79c0,.68-.43.92-1.05.62a2.08,2.08,0,0,1-1-1.72C360.49,331.77,360.86,331.51,361.45,331.77Z"/><path class="cls-3" d="M369.58,340.89a2.08,2.08,0,0,1,1,1.73c0,.69-.39.95-1,.68a2.22,2.22,0,0,1-1.05-1.78C368.58,340.83,369,340.6,369.58,340.89Z"/><path class="cls-3" d="M231.47,271.85l-.13-.14c-.11-.21-.15-.4-.09-.45l8.19-4.91a.27.27,0,0,1,.16.06l8,7.22,8.07-7.85h.15a.61.61,0,0,1,.2.22l8,13.62,8,6.66,8.07,2.06,8.11-.27a.14.14,0,0,1,.12.06l8.07,6.72,8.08,2.06a.52.52,0,0,1,.17.13l8,9,8.05-9.58a.34.34,0,0,1,.2.07.87.87,0,0,1,.22.34L329,315l7.93-.27H337l8.15,4.44a.33.33,0,0,1,.12.14l8.06,9,8,4.33a.41.41,0,0,1,.12.14l8.13,9.12a1,1,0,0,1,.25.53c0,.14-.11.12-.25,0l-8.06-9-8-4.34-.12-.13-8.06-9-8.06-4.4-8.09.28c-.09,0-.26-.18-.36-.4h0l-7.93-18-8,9.42c0,.05-.13,0-.23-.1l-8-9-8-2-.1-.11-8-6.65-8.09.25-8.14-2.07-.09-.05-8.12-6.76a1,1,0,0,1-.19-.21L256,266.59l-8,7.8a.31.31,0,0,1-.17-.06l-8-7.27L231.69,272C231.64,272,231.56,271.94,231.47,271.85Z"/><g class="cls-20"><path d="M231.47,270.39a2.08,2.08,0,0,1,1,1.72c0,.7-.39,1-1,.69a2.1,2.1,0,0,1-1-1.72C230.5,270.38,230.87,270.13,231.47,270.39Z"/><path d="M239.59,265.43a2.08,2.08,0,0,1,1,1.72c0,.7-.39,1-1,.69a2.1,2.1,0,0,1-1-1.72C238.62,265.42,239,265.17,239.59,265.43Z"/><ellipse cx="247.73" cy="274.02" rx="0.87" ry="1.45" transform="translate(-103.76 160.39) rotate(-29.97)"/><path d="M255.88,264.94a2.08,2.08,0,0,1,1,1.73c0,.69-.4.94-1,.68a2.08,2.08,0,0,1-1-1.73C254.91,264.93,255.28,264.68,255.88,264.94Z"/><path d="M264,278.72a2.09,2.09,0,0,1,1,1.72c0,.7-.4.95-1,.69a2.1,2.1,0,0,1-1-1.72C263,278.71,263.38,278.46,264,278.72Z"/><path d="M272.09,285.47a2.08,2.08,0,0,1,1,1.73c0,.69-.4.94-1,.68a2.08,2.08,0,0,1-1-1.72C271.13,285.46,271.5,285.21,272.09,285.47Z"/><path d="M280.21,287.55a2.21,2.21,0,0,1,1.05,1.77c0,.69-.43.93-1.05.64a2.13,2.13,0,0,1-1-1.73C279.24,287.54,279.62,287.29,280.21,287.55Z"/><path d="M288.34,287.29a2.05,2.05,0,0,1,1,1.72c0,.69-.4.94-1,.69a2.11,2.11,0,0,1-1-1.74C287.37,287.27,287.75,287,288.34,287.29Z"/><path d="M296.46,294a2.24,2.24,0,0,1,1.05,1.78c0,.7-.42.93-1.05.63a2.1,2.1,0,0,1-1-1.72C295.49,294,295.87,293.78,296.46,294Z"/><path d="M304.59,296.13a2.08,2.08,0,0,1,1,1.73c0,.68-.4.94-1,.68a2.08,2.08,0,0,1-1-1.73C303.62,296.12,304,295.87,304.59,296.13Z"/><path d="M312.71,305.24a2.08,2.08,0,0,1,1,1.73c0,.69-.4.94-1,.68a2.08,2.08,0,0,1-1-1.73C311.74,305.23,312.11,305,312.71,305.24Z"/><path d="M320.88,295.64a2.25,2.25,0,0,1,1.05,1.79c0,.68-.43.92-1.05.62a2.08,2.08,0,0,1-1-1.72C319.92,295.64,320.29,295.38,320.88,295.64Z"/><path d="M329,314a2.08,2.08,0,0,1,1,1.72c0,.7-.4.95-1,.69a2.25,2.25,0,0,1-1-1.78C328,314,328.34,313.73,329,314Z"/><path d="M337.08,313.81a2.25,2.25,0,0,1,1.05,1.79c0,.69-.43.92-1.05.62a2.08,2.08,0,0,1-1-1.72C336.12,313.81,336.49,313.56,337.08,313.81Z"/><path d="M345.21,318.24a2.11,2.11,0,0,1,1,1.73c0,.69-.4.94-1,.68a2.22,2.22,0,0,1-1-1.78C344.21,318.19,344.6,318,345.21,318.24Z"/><path d="M353.33,327.35a2.08,2.08,0,0,1,1,1.73c0,.69-.39.95-1,.68a2.08,2.08,0,0,1-1-1.72C352.37,327.35,352.74,327.09,353.33,327.35Z"/><path d="M361.45,331.77a2.25,2.25,0,0,1,1.05,1.79c0,.68-.43.92-1.05.62a2.08,2.08,0,0,1-1-1.72C360.49,331.77,360.86,331.51,361.45,331.77Z"/><path d="M369.58,340.89a2.08,2.08,0,0,1,1,1.73c0,.69-.39.95-1,.68a2.22,2.22,0,0,1-1.05-1.78C368.58,340.83,369,340.6,369.58,340.89Z"/><path d="M231.47,271.85l-.13-.14c-.11-.21-.15-.4-.09-.45l8.19-4.91a.27.27,0,0,1,.16.06l8,7.22,8.07-7.85h.15a.61.61,0,0,1,.2.22l8,13.62,8,6.66,8.07,2.06,8.11-.27a.14.14,0,0,1,.12.06l8.07,6.72,8.08,2.06a.52.52,0,0,1,.17.13l8,9,8.05-9.58a.34.34,0,0,1,.2.07.87.87,0,0,1,.22.34L329,315l7.93-.27H337l8.15,4.44a.33.33,0,0,1,.12.14l8.06,9,8,4.33a.41.41,0,0,1,.12.14l8.13,9.12a1,1,0,0,1,.25.53c0,.14-.11.12-.25,0l-8.06-9-8-4.34-.12-.13-8.06-9-8.06-4.4-8.09.28c-.09,0-.26-.18-.36-.4h0l-7.93-18-8,9.42c0,.05-.13,0-.23-.1l-8-9-8-2-.1-.11-8-6.65-8.09.25-8.14-2.07-.09-.05-8.12-6.76a1,1,0,0,1-.19-.21L256,266.59l-8,7.8a.31.31,0,0,1-.17-.06l-8-7.27L231.69,272C231.64,272,231.56,271.94,231.47,271.85Z"/></g><path class="cls-2" d="M235.73,240.37l7.86,4.25a1.45,1.45,0,0,1,.72,1.17c0,.45-.3.6-.72.39l-7.87-4.26a1.49,1.49,0,0,1-.72-1.18C235,240.29,235.32,240.16,235.73,240.37Z"/><path class="cls-3" d="M231.47,237.56a2.05,2.05,0,0,1,1,1.72c0,.7-.39,1-1,.69a2.1,2.1,0,0,1-1-1.72C230.5,237.55,230.87,237.3,231.47,237.56Z"/><path class="cls-17" d="M231.47,237.56a2.05,2.05,0,0,1,1,1.72c0,.7-.39,1-1,.69a2.1,2.1,0,0,1-1-1.72C230.5,237.55,230.87,237.3,231.47,237.56Z"/><path class="cls-2" d="M235.73,245l7.86,4.26a1.43,1.43,0,0,1,.72,1.16c0,.46-.3.61-.72.4l-7.87-4.26a1.53,1.53,0,0,1-.72-1.18C235,245,235.32,244.83,235.73,245Z"/><path class="cls-3" d="M231.47,242.25a2.08,2.08,0,0,1,1,1.72c0,.7-.39,1-1,.69a2.1,2.1,0,0,1-1-1.72C230.5,242.24,230.87,242,231.47,242.25Z"/><path class="cls-3" d="M231.47,304.75a1.45,1.45,0,0,1-.17-.26c-.09-.21-.1-.37,0-.36h0l4.12.38,4.05,4,4.09-.7,4.09,5.15,4,.9,4.06,2.12,4.14-1.08,4.1,5.89,3.95.9c.1,0,.26.19.35.39s.11.36,0,.35h0l-4.16-1-4-5.75-4,1.06-4.21-2.27-4.11-.89-4-5-4,.72-4.08-4.05-4-.38C231.64,304.92,231.56,304.86,231.47,304.75Z"/><path class="cls-8" d="M233.08,292.83a.09.09,0,0,1,.1,0h.11a1.87,1.87,0,0,1,.61.51,2.83,2.83,0,0,1,.49.73,3.26,3.26,0,0,1,.33.87,3.67,3.67,0,0,1,.11.94,2.71,2.71,0,0,1-.11.8,1.06,1.06,0,0,1-.33.53.7.7,0,0,1-.49.2,1.17,1.17,0,0,1-.61-.17,2.48,2.48,0,0,1-.62-.5,5.11,5.11,0,0,1-.48-.73,4,4,0,0,1-.32-.87,5,5,0,0,1-.12-.94,4.34,4.34,0,0,1,0-.51,1.66,1.66,0,0,1,.11-.38c0-.16.08-.21.14-.31a2.34,2.34,0,0,0,.14-.27l1.09-1.85a.24.24,0,0,0,.06-.09h.12l.34.19s.06,0,.09.09h0v.25Zm-.77,1.73a3.57,3.57,0,0,0,.07.56,3.73,3.73,0,0,0,.2.56,2.59,2.59,0,0,0,.3.46,1.9,1.9,0,0,0,.41.34.84.84,0,0,0,.41.11.49.49,0,0,0,.3-.14,1,1,0,0,0,.26-.83,1.69,1.69,0,0,0-.06-.55,2.13,2.13,0,0,0-.2-.55,2.09,2.09,0,0,0-.3-.47,1.65,1.65,0,0,0-.41-.34.87.87,0,0,0-.41-.11.45.45,0,0,0-.3.16.83.83,0,0,0-.2.32,2.63,2.63,0,0,0-.07.49Z"/><path class="cls-8" d="M235.88,297.11a1.51,1.51,0,0,0,.08.34c0,.11.1.23.16.34a1.75,1.75,0,0,0,.29.32,2.83,2.83,0,0,0,.45.32,1.12,1.12,0,0,0,.35.12.49.49,0,0,0,.29-.05.46.46,0,0,0,.2-.26,1.09,1.09,0,0,0,.08-.47,1.9,1.9,0,0,0-.07-.54,1.35,1.35,0,0,0-.2-.44,1.32,1.32,0,0,0-.29-.33,1.41,1.41,0,0,0-.36-.24l-.49-.27a.53.53,0,0,1-.12-.14.33.33,0,0,1,0-.14v-.46l.06-.09,1.07-1.2-1.71-.92s-.06,0-.09-.1h0a.33.33,0,0,1,0-.14v-.33a.67.67,0,0,1,0-.2h.11l2.34,1.28a.22.22,0,0,1,.12.28v.33a.54.54,0,0,1,0,.18.16.16,0,0,1-.08.1l-1,1.24a2.64,2.64,0,0,1,1,1.05,2.38,2.38,0,0,1,.27.73,2.79,2.79,0,0,1,.1.82,1.75,1.75,0,0,1-.12.78,1,1,0,0,1-.32.45.78.78,0,0,1-.47.13,1.41,1.41,0,0,1-.57-.18,2.69,2.69,0,0,1-.69-.51,3.23,3.23,0,0,1-.47-.63,3.53,3.53,0,0,1-.28-.67,3.65,3.65,0,0,1-.1-.65.43.43,0,0,1,0-.16h.09l.27.14.11.12A.08.08,0,0,1,235.88,297.11Z"/><path class="cls-8" d="M239.38,299a1.51,1.51,0,0,0,.08.34c0,.11.1.23.16.34a1.69,1.69,0,0,0,.28.32,2.51,2.51,0,0,0,.46.32,1.4,1.4,0,0,0,.36.13.4.4,0,0,0,.28-.07.52.52,0,0,0,.2-.24,1.19,1.19,0,0,0,.07-.49,1.58,1.58,0,0,0-.07-.53,1.34,1.34,0,0,0-.19-.44,1.47,1.47,0,0,0-.29-.32,1.83,1.83,0,0,0-.36-.26l-.5-.27a.32.32,0,0,1-.11-.12.73.73,0,0,1-.05-.2v-.33a.48.48,0,0,1,0-.17l.06-.09,1.07-1.2-1.71-.92a.52.52,0,0,1-.12-.13.33.33,0,0,1,0-.14v-.33a.67.67,0,0,1,0-.2c0-.07.08,0,.12,0l2.34,1.27a.19.19,0,0,1,.11.12.36.36,0,0,1,.05.21v.33a.54.54,0,0,1,0,.18c0,.06-.05.06-.08.1l-1,1.24a2.18,2.18,0,0,1,.54.42,2.74,2.74,0,0,1,.43.62,3.51,3.51,0,0,1,.37,1.56,2,2,0,0,1-.12.77,1,1,0,0,1-.32.45.65.65,0,0,1-.47.13,1.4,1.4,0,0,1-.57-.17,3.2,3.2,0,0,1-.69-.52,3,3,0,0,1-.83-1.36,2.38,2.38,0,0,1-.1-.65.43.43,0,0,1,0-.16.05.05,0,0,1,.08,0h0l.27.16.11.12A.83.83,0,0,1,239.38,299Z"/><path class="cls-2" d="M232.2,308.84l35.11,19A1.45,1.45,0,0,1,268,329c0,.46-.3.6-.72.4l-35.11-19a1.49,1.49,0,0,1-.72-1.18C231.53,308.78,231.79,308.64,232.2,308.84Z"/><path class="cls-2" d="M232.2,285.33l7.87,4.27a1.46,1.46,0,0,1,.72,1.17c0,.45-.3.59-.72.39l-7.87-4.27a1.5,1.5,0,0,1-.72-1.17C231.52,285.28,231.79,285.13,232.2,285.33Z"/><path class="cls-3" d="M231.47,332.87a2,2,0,0,1-.17-.27c-.09-.2-.1-.36,0-.35h0l4.12.38,4.08,4.07,4.1,1,4,3.35,4.13-3.58,4.13,6.64,4,1,.07.08,4,3.74,4-2.43a.51.51,0,0,1,.34.3c.11.21.17.39.1.45l-4.19,2.44L260,345.83l-4.14-1-4-6.48-4,3.51-4.11-3.49-4.08-1-4-4-4-.38S231.56,333,231.47,332.87Z"/><g class="cls-20"><path d="M231.47,332.87a2,2,0,0,1-.17-.27c-.09-.2-.1-.36,0-.35h0l4.12.38,4.08,4.07,4.1,1,4,3.35,4.13-3.58,4.13,6.64,4,1,.07.08,4,3.74,4-2.43a.51.51,0,0,1,.34.3c.11.21.17.39.1.45l-4.19,2.44L260,345.83l-4.14-1-4-6.48-4,3.51-4.11-3.49-4.08-1-4-4-4-.38S231.56,333,231.47,332.87Z"/></g><path class="cls-8" d="M233.55,325.23a.37.37,0,0,1,0,.21h-.12l-.24-.13a.72.72,0,0,1-.11-.12A.77.77,0,0,1,233,325v-5l-1,.56a.09.09,0,0,1-.12,0,.28.28,0,0,1-.11-.13l-.14-.36a.22.22,0,0,1,0-.16.16.16,0,0,1,.06-.13L233,319a.09.09,0,0,1,.1,0h.09l.24.13a.2.2,0,0,1,.12.13v.14Z"/><path class="cls-8" d="M236.14,323.52a.77.77,0,0,0,.27-.35,1.32,1.32,0,0,0,.09-.62,1.93,1.93,0,0,0-.19-.92,1.36,1.36,0,0,0-.58-.65.56.56,0,0,0-.35-.09.36.36,0,0,0-.25.11,1.32,1.32,0,0,0-.15.29,2.27,2.27,0,0,1-.09.38.16.16,0,0,1-.06.12h-.1l-.27-.15-.09-.11a.24.24,0,0,1,0-.12,2.19,2.19,0,0,1,.1-.63,1.47,1.47,0,0,1,.27-.49,1.1,1.1,0,0,1,.44-.23.88.88,0,0,1,.59.15,1.74,1.74,0,0,1,.58.47,2.13,2.13,0,0,1,.41.64,2.91,2.91,0,0,1,.26.77,3.06,3.06,0,0,1,.08.8,2.53,2.53,0,0,1,0,.55,3,3,0,0,1-.09.41,1.92,1.92,0,0,1-.18.31,1.27,1.27,0,0,1-.25.27l-1.33,1.18,1.82,1a.23.23,0,0,1,.12.28v.33a.67.67,0,0,1,0,.2c0,.07-.08,0-.12,0L234.51,326a.25.25,0,0,1-.11-.12.35.35,0,0,1-.05-.2v-.33a.31.31,0,0,1,0-.19.32.32,0,0,1,.1-.13Z"/><path class="cls-8" d="M240.88,325.58v1.54a3.78,3.78,0,0,1-.09.95,1.45,1.45,0,0,1-.28.68.67.67,0,0,1-.47.27,1.06,1.06,0,0,1-.67-.17,2.29,2.29,0,0,1-.68-.56,3.41,3.41,0,0,1-.46-.78,4.69,4.69,0,0,1-.28-.95,7.46,7.46,0,0,1-.1-1.05v-1.63a6,6,0,0,1,.1-.95,1.74,1.74,0,0,1,.28-.69.75.75,0,0,1,.46-.28,1.08,1.08,0,0,1,.68.17,2,2,0,0,1,.67.57,2.63,2.63,0,0,1,.47.79,3.81,3.81,0,0,1,.28,1A5,5,0,0,1,240.88,325.58Zm-2.47.23a3.65,3.65,0,0,0,.26,1.42,1.52,1.52,0,0,0,.7.78c.32.17.57.16.7,0a2,2,0,0,0,.26-1.14V325.3a3.33,3.33,0,0,0-.26-1.43,1.5,1.5,0,0,0-.7-.79c-.31-.16-.56-.15-.7,0a1.89,1.89,0,0,0-.26,1.14v1.59Z"/><path class="cls-2" d="M232.2,336.91l35.11,19a1.45,1.45,0,0,1,.72,1.17c0,.45-.3.59-.72.39l-35.11-19a1.53,1.53,0,0,1-.72-1.18C231.52,336.86,231.79,336.71,232.2,336.91Z"/><path class="cls-2" d="M232.2,313.45l7.87,4.26a1.48,1.48,0,0,1,.72,1.18c0,.45-.3.59-.72.39L232.2,315a1.5,1.5,0,0,1-.72-1.17C231.52,313.39,231.79,313.25,232.2,313.45Z"/><path class="cls-3" d="M280.21,331.23a2.07,2.07,0,0,1-.19-.32c-.09-.2-.1-.35,0-.35h0l4.06,1.32,4.09-.08,4.15,4,4,3.6,4.1-.24,4,5.19,4.05-1.86,4.12,4.68,4,.94c.1,0,.25.17.34.37h0c.1.2.1.36,0,.35l-4.13-.94-4-4.56-4.08,1.88L300.64,340l-4,.27-4.15-3.72-4-3.91-4,.08-4.09-1.32A.45.45,0,0,1,280.21,331.23Z"/><path class="cls-8" d="M281.82,319.31h.1l.11.05a2,2,0,0,1,.62.51,2.83,2.83,0,0,1,.49.73,3.78,3.78,0,0,1,.32.87,3.67,3.67,0,0,1,.11.94,2.42,2.42,0,0,1-.11.8,1.26,1.26,0,0,1-.32.53.8.8,0,0,1-.49.2,1.23,1.23,0,0,1-.62-.17,2.27,2.27,0,0,1-.61-.5,4,4,0,0,1-.49-.74,5.33,5.33,0,0,1-.32-.87,5,5,0,0,1-.12-.94v-.51a1,1,0,0,1,.1-.38l.15-.31a1.07,1.07,0,0,1,.16-.25L282,317.4l.07-.07h.1l.34.19.09.1v.12a.11.11,0,0,1,0,.08h0Zm-.76,1.75a2.68,2.68,0,0,0,.07.56,3.86,3.86,0,0,0,.19.54,3,3,0,0,0,.31.48,1.8,1.8,0,0,0,.4.33,1.19,1.19,0,0,0,.41.11.73.73,0,0,0,.31-.14.77.77,0,0,0,.19-.34,1.15,1.15,0,0,0,.07-.48,1.76,1.76,0,0,0-.07-.56,2,2,0,0,0-.19-.54,1.72,1.72,0,0,0-.31-.48,1.33,1.33,0,0,0-.41-.34.7.7,0,0,0-.4-.1.5.5,0,0,0-.31.14.88.88,0,0,0-.19.34A1.51,1.51,0,0,0,281.06,321.06Z"/><path class="cls-8" d="M285.94,322.46a.77.77,0,0,0,.27-.35,1.64,1.64,0,0,0,.09-.62,2.08,2.08,0,0,0-.19-.92,1.36,1.36,0,0,0-.58-.65.66.66,0,0,0-.36-.11.47.47,0,0,0-.24.13.69.69,0,0,0-.15.28,1.7,1.7,0,0,1-.1.37.12.12,0,0,1-.06.12h-.09l-.26-.14a.26.26,0,0,1-.1-.11v-.12a1.67,1.67,0,0,1,.1-.63,1.29,1.29,0,0,1,.26-.49A.69.69,0,0,1,285,319a.81.81,0,0,1,.59.13,1.91,1.91,0,0,1,.58.48,2.26,2.26,0,0,1,.41.64,2.76,2.76,0,0,1,.25.75,2.83,2.83,0,0,1,.09.82,2.44,2.44,0,0,1,0,.54,1.18,1.18,0,0,1-.1.4,1.26,1.26,0,0,1-.43.59L285,324.54l1.82,1a.24.24,0,0,1,.11.13.35.35,0,0,1,.05.2v.33a.21.21,0,0,1-.05.15.11.11,0,0,1-.11,0l-2.56-1.4a.52.52,0,0,1-.12-.13.38.38,0,0,1,0-.15v-.33a.6.6,0,0,1,0-.19.4.4,0,0,1,.1-.12Z"/><path class="cls-8" d="M290,321.66l.11.12a.3.3,0,0,1,.05.21v.33a.54.54,0,0,1,0,.18.81.81,0,0,1,0,.22l-1.32,4.51-.06.13h-.12l-.27-.14a.52.52,0,0,1-.1-.11.28.28,0,0,1,0-.13h0v-.08l1.32-4.52-1.95-1.06a.32.32,0,0,1-.11-.12.74.74,0,0,1,0-.21v-.33a.33.33,0,0,1,0-.14.08.08,0,0,1,.11,0Z"/><path class="cls-2" d="M281,335.29l35.1,19a1.48,1.48,0,0,1,.72,1.18c0,.45-.3.6-.72.39l-35.1-19a1.51,1.51,0,0,1-.72-1.18C280.27,335.22,280.54,335.08,281,335.29Z"/><path class="cls-2" d="M281,311.82l7.87,4.26a1.48,1.48,0,0,1,.72,1.17c0,.45-.3.59-.72.39L281,313.38a1.47,1.47,0,0,1-.72-1.17C280.27,311.76,280.54,311.61,281,311.82Z"/><path class="cls-3" d="M280.21,359.34l-.13-.15c-.11-.2-.14-.39-.08-.44l4.15-2.14,4.18,5.45,3.93,3.33,4.06-.39,4,3.48,4.1-2.72,4.2,5.94,4,3.73,4,.93a.83.83,0,0,1,.35.45c.07.17.06.29,0,.29l-4.07-1-.06-.06-4.13-3.86-3.93-5.54-4,2.67-4.09-3.59-4.06.4-.07-.08-4.12-3.49-.06-.07-3.89-5.09-4,2C280.44,359.53,280.33,359.48,280.21,359.34Z"/><g class="cls-20"><path d="M280.21,359.34l-.13-.15c-.11-.2-.14-.39-.08-.44l4.15-2.14,4.18,5.45,3.93,3.33,4.06-.39,4,3.48,4.1-2.72,4.2,5.94,4,3.73,4,.93a.83.83,0,0,1,.35.45c.07.17.06.29,0,.29l-4.07-1-.06-.06-4.13-3.86-3.93-5.54-4,2.67-4.09-3.59-4.06.4-.07-.08-4.12-3.49-.06-.07-3.89-5.09-4,2C280.44,359.53,280.33,359.48,280.21,359.34Z"/></g><path class="cls-8" d="M282.09,349.66H282l-.08-.09a2.54,2.54,0,0,1-.54-.44,3.47,3.47,0,0,1-.51-.65,4.4,4.4,0,0,1-.33-.85,3.81,3.81,0,0,1-.13-1,2.61,2.61,0,0,1,.12-.79,1.14,1.14,0,0,1,.32-.51.78.78,0,0,1,.48-.19,1.08,1.08,0,0,1,.58.14,2.43,2.43,0,0,1,.61.5,2.71,2.71,0,0,1,.47.72,3.78,3.78,0,0,1,.4,1.75,2,2,0,0,1,0,.49.93.93,0,0,1-.12.39,1.66,1.66,0,0,1-.16.33c-.06.1-.1.21-.14.28l-1.1,1.86-.07.07h-.12l-.34-.19s-.05,0-.08-.08a.28.28,0,0,1,0-.13v-.13Zm.77-1.73a1.78,1.78,0,0,0-.07-.57,1.91,1.91,0,0,0-.19-.52,1.6,1.6,0,0,0-.29-.44,1.4,1.4,0,0,0-.38-.31.61.61,0,0,0-.37-.1.38.38,0,0,0-.3.11,1.09,1.09,0,0,0-.25.82,2.76,2.76,0,0,0,.06.57,3.24,3.24,0,0,0,.19.52,2.21,2.21,0,0,0,.3.45,1.85,1.85,0,0,0,.37.31,1,1,0,0,0,.38.1.5.5,0,0,0,.29-.12.7.7,0,0,0,.19-.32,1.14,1.14,0,0,0,.09-.48Z"/><path class="cls-8" d="M284.41,351.57c0,.11,0,.23.08.34a2.21,2.21,0,0,0,.16.35,1.64,1.64,0,0,0,.28.31,2.15,2.15,0,0,0,.46.33,1.12,1.12,0,0,0,.35.12.46.46,0,0,0,.26,0,.6.6,0,0,0,.2-.25,1.15,1.15,0,0,0,.07-.48,1.6,1.6,0,0,0-.07-.54,1.28,1.28,0,0,0-.19-.43,1.32,1.32,0,0,0-.29-.33,1.41,1.41,0,0,0-.36-.24l-.5-.28a.28.28,0,0,1-.11-.13.33.33,0,0,1,0-.14v-.49l.08-.08,1.07-1.2-1.71-.92-.12-.13a.33.33,0,0,1-.05-.21v-.33a.14.14,0,0,1,.05-.14h.12l2.34,1.28a.72.72,0,0,1,.11.12.34.34,0,0,1,0,.2v.33a.54.54,0,0,1,0,.18.61.61,0,0,1-.07.1l-1,1.11a1.9,1.9,0,0,1,.54.44,2.49,2.49,0,0,1,.42.6,3.65,3.65,0,0,1,.28.74,4.48,4.48,0,0,1,.1.82,2.09,2.09,0,0,1-.12.78,1.28,1.28,0,0,1-.32.45.78.78,0,0,1-.47.13,1.16,1.16,0,0,1-.57-.18,2.69,2.69,0,0,1-.69-.51A3.31,3.31,0,0,1,284,352a2.28,2.28,0,0,1-.09-.63.48.48,0,0,1,0-.17h.1l.27.14.1.11A.27.27,0,0,1,284.41,351.57Z"/><path class="cls-2" d="M281,363.4l35.1,19a1.48,1.48,0,0,1,.72,1.18c0,.45-.3.59-.72.38L281,365a1.51,1.51,0,0,1-.72-1.18C280.27,363.34,280.54,363.19,281,363.4Z"/><path class="cls-2" d="M281,339.94l7.87,4.25a1.5,1.5,0,0,1,.72,1.18c0,.45-.3.59-.72.39L281,341.53a1.47,1.47,0,0,1-.72-1.17C280.26,339.88,280.53,339.72,281,339.94Z"/><path class="cls-3" d="M333,344.82c1.37.59,3.14,2.44,4.63,4.85L333,356.94Z"/><path class="cls-3" d="M328.39,344.62c1.1-.79,2.7-.73,4.63.2v12.12Z"/><path class="cls-3" d="M325.52,349.12a6.87,6.87,0,0,1,2.87-4.5L333,357Z"/><path class="cls-17" d="M328.39,344.62a6.87,6.87,0,0,0-2.87,4.5L333,357V344.82C331.09,343.89,329.49,343.83,328.39,344.62Z"/><path class="cls-3" d="M337.65,349.67a23.15,23.15,0,0,1,2.87,7.62L333,357Z"/><path class="cls-3" d="M325.52,356.62a21.93,21.93,0,0,1-.38-3.95,15.89,15.89,0,0,1,.38-3.58l7.5,7.84Z"/><path class="cls-3" d="M340.52,364.79a6.79,6.79,0,0,1-2.87,4.5L333,356.94Z"/><path class="cls-3" d="M333,369.1c-1.36-.59-3.13-2.45-4.63-4.86l4.63-7.3Z"/><path class="cls-3" d="M325.52,356.62l7.5.34-4.63,7.28A23.15,23.15,0,0,1,325.52,356.62Z"/><path class="cls-3" d="M340.52,357.29a20.55,20.55,0,0,1,.39,4,14.72,14.72,0,0,1-.39,3.56L333,357Z"/><path class="cls-3" d="M337.65,369.29c-1.09.79-2.69.73-4.63-.19V356.94Z"/><path class="cls-8" d="M329.09,370.88l7.86,4.25a1.51,1.51,0,0,1,.73,1.18c0,.45-.31.59-.73.38l-7.86-4.25a1.47,1.47,0,0,1-.72-1.17C328.41,370.82,328.68,370.67,329.09,370.88Z"/><path class="cls-2" d="M327.35,374.64l11.34,6.14a1.45,1.45,0,0,1,.72,1.17c0,.45-.3.6-.72.39l-11.34-6.14a1.47,1.47,0,0,1-.72-1.17C326.67,374.57,326.94,374.43,327.35,374.64Z"/><path class="cls-2" d="M327.35,379.34l11.34,6.14a1.46,1.46,0,0,1,.72,1.17c0,.45-.3.6-.72.39l-11.34-6.14a1.47,1.47,0,0,1-.72-1.17C326.67,379.27,326.94,379.13,327.35,379.34Z"/><path class="cls-2" d="M327.35,384l11.34,6.14a1.46,1.46,0,0,1,.72,1.17c0,.46-.3.6-.72.4l-11.34-6.17a1.47,1.47,0,0,1-.72-1.17C326.68,384,326.94,383.83,327.35,384Z"/><path class="cls-3" d="M361.45,360.23c1.37.59,3.14,2.44,4.63,4.85l-4.63,7.29Z"/><path class="cls-3" d="M356.82,360c1.11-.78,2.7-.72,4.63.2v12.14Z"/><path class="cls-3" d="M354,364.55a6.82,6.82,0,0,1,2.86-4.52l4.63,12.34Z"/><path class="cls-3" d="M366.08,365.08A22.87,22.87,0,0,1,369,372.7l-7.5-.33Z"/><path class="cls-3" d="M354,372.05a22.4,22.4,0,0,1-.39-4,15.18,15.18,0,0,1,.39-3.56l7.49,7.82Z"/><path class="cls-3" d="M369,380.24a6.7,6.7,0,0,1-2.87,4.5l-4.63-12.33Z"/><path class="cls-3" d="M361.45,384.51c-1.36-.59-3.13-2.44-4.63-4.85l4.63-7.29Z"/><path class="cls-3" d="M354,372.05l7.49.32-4.63,7.26A23.46,23.46,0,0,1,354,372.05Z"/><path class="cls-17" d="M356.82,360a6.82,6.82,0,0,0-2.86,4.52,15.18,15.18,0,0,0-.39,3.56,22.4,22.4,0,0,0,.39,4,23.62,23.62,0,0,0,2.86,7.61l4.63-7.29V360.23C359.52,359.31,357.93,359.25,356.82,360Z"/><path class="cls-3" d="M369,372.7a20.55,20.55,0,0,1,.39,4,14.24,14.24,0,0,1-.39,3.56l-7.5-7.83Z"/><path class="cls-3" d="M366.08,384.7c-1.09.8-2.68.74-4.63-.19V372.37Z"/><path class="cls-8" d="M357.52,386.35l7.87,4.27a1.46,1.46,0,0,1,.72,1.17c0,.45-.3.6-.72.39l-7.87-4.26a1.51,1.51,0,0,1-.72-1.18C356.84,386.29,357.11,386.14,357.52,386.35Z"/><path class="cls-2" d="M355.79,390.12l11.33,6.13a1.48,1.48,0,0,1,.72,1.18c0,.45-.3.59-.72.39l-11.33-6.14a1.47,1.47,0,0,1-.72-1.17C355.11,390.06,355.38,389.91,355.79,390.12Z"/><path class="cls-2" d="M355.79,394.82,367.12,401a1.46,1.46,0,0,1,.72,1.17c0,.45-.3.59-.72.39l-11.33-6.13a1.51,1.51,0,0,1-.72-1.18C355.11,394.76,355.38,394.61,355.79,394.82Z"/><path class="cls-2" d="M355.79,399.48l11.33,6.14a1.46,1.46,0,0,1,.72,1.17c0,.45-.3.59-.72.39l-11.33-6.13a1.51,1.51,0,0,1-.72-1.18C355.11,399.42,355.38,399.27,355.79,399.48Z"/></g></g><g id="Character"><g id="Character_Suit" data-name="Character Suit"><path class="cls-21" d="M149.81,230.82l-12.89,24.55c-1.54,2.88-3,2.72-5.13,1.26l-13.51-7.79c-3.11-1.93-2-3.82-.53-6.52l12.39-23.65c1.42-2.7,2.51-5.24,6.29-3l14,7.93C153.37,225.39,151.18,228.12,149.81,230.82Z"/><path class="cls-22" d="M148.71,230.14l-12.87,24.55c-1.54,2.88-3,2.72-5.13,1.26l-13.51-7.79c-3.11-1.93-2-3.82-.53-6.52L129.06,218c1.42-2.65,2.51-5.18,6.29-3l14,7.93C152.29,224.74,150.18,227.47,148.71,230.14Z"/><polygon class="cls-5" points="132.54 215.82 149.21 225.35 134.48 252.91 117.77 243.45 132.54 215.82"/><polygon class="cls-5" points="123.29 247.89 127.18 250.13 126.39 251.54 122.49 249.3 123.29 247.89"/><path class="cls-23" d="M113.28,226s10.56,4.1,14,.81c.91-.91,1.1-1.91,1.74-2.91,1-1.48.6-2.34.6-2.34a24.16,24.16,0,0,0,4.58-.07c.66-.13,2.49-.07,2.49-1.54,0-.54-2.26-.7-7.16-1.1a86.89,86.89,0,0,1-11.65-2.17Z"/><path class="cls-21" d="M103.49,234.92S72.2,222.68,69.1,202.85c-1.75-11.43,2.83-19,7-21.68,5.58-3.66,11.58.4,11.58.4Z"/><path class="cls-3" d="M107.31,226.26s12.45,2.2,14.38-.17,2.08-7.92,0-9.06-13.39-5.19-13.39-5.19Z"/><path class="cls-22" d="M132.3,379.27c-3.2,4.6-11.69,8.38-16.08,11.38-7.38,5-12.69-.73-12.69-.73l-1.18-11.28,15-5s13.86-3.86,16-2.52S134.61,375.92,132.3,379.27Z"/><path class="cls-22" d="M95.31,357.41c-3.19,4.6-11.68,8.37-16.08,11.37-7.37,5-12.69-.72-12.69-.72L65.4,356.8l14.95-5s13.86-3.86,16-2.52S97.61,354.09,95.31,357.41Z"/><path class="cls-21" d="M115.31,251.8s.34,12.34,2,29.34c1.42,14.57,4.31,33.65,4,40-.16,3.26,0,7.33-.26,17.05-.33,12.32-1.73,27.86-1.52,36.67-3.65,5.74-9.12,12.36-18,5.36-.41-3.16-4.35-42.79.08-57.36-2.27-8.73-9.46-37.32-9.46-37.32s-.64,15.29-.89,21.57c-.63,5.47-1.89,9.82-3,16.4-1.93,11.56-4,29-4,29S80,360.19,74,360.63c-5.83.46-8.74-2.19-9.63-5,0,0-.38-21,1.16-31.79,1.3-9.06,6.53-23.13,6.53-23.13s-3.4-27.21-2.92-33.59c1.07-14.17,8-20.92,8-20.92Z"/><path class="cls-22" d="M102.75,189.46c-3-1.71-12.16-6.88-16.24-7.27-5.07-1.38-6.52-.53-9.52,2.47-2.72,2.79-6.3,12-6.11,18.68.29,9.56,1.38,22.19,1.38,35,0,9.46-4.25,22.55-4.2,24,4.5,7.65,16.44,11.83,24.08,13.46,10.7,2.3,23.54-5.73,26.7-8.88a315.53,315.53,0,0,1-4.52-36.37c-.19-5.27-.06-17.83.07-27.63C114.43,200.07,110.28,192.47,102.75,189.46Z"/><path class="cls-24" d="M97.7,189.88c-1.56-4,0-8.82,0-8.82l-12.71-3-1.63,9.11C88.06,189.41,97.76,190,97.7,189.88Z"/><path class="cls-23" d="M85,178.11c4.81,4.91,12,6.7,15.68,6.06,7.14-1.26,11-19.49,1.26-28.54C92.69,147,83,153.38,80.39,158.92,78.36,163.17,79.57,172.52,85,178.11Z"/><path class="cls-22" d="M103.57,155.78a11.91,11.91,0,0,0,1.72-5.07c-3,1.91-6.53,1-8.18.43s-8.08-3.78-13.75,1.51c-6.2,2.72-7.25,7.72-7.25,10.78,0,2.12,1,6.32,4.68,11.49a52.78,52.78,0,0,1,5.76,10.89,48.68,48.68,0,0,0,4-3.16,14.7,14.7,0,0,0,3.08-4.59,4.15,4.15,0,0,1-1.51-5.65c1.92-3.64,4.77.89,4.77.89s1.34-.89.83-3.19a23.63,23.63,0,0,1-.54-4.09s5.5-2,8.31-4.52,3.15-6.7,3.15-6.7A32.42,32.42,0,0,1,103.57,155.78Z"/><path class="cls-21" d="M84.4,181.09s-4,4.41-2.65,6.12c1,1.27,5.28,3.61,8,4.74,5.19,2.16,13-2.5,13-2.5A12.38,12.38,0,0,0,93,185C86.32,185,84.4,181.09,84.4,181.09Z"/><path class="cls-23" d="M145.46,240.8c.75.6,4,6.56-1.39,10s-10.84-2.19-10.84-2.19l4.79-8.45a27,27,0,0,0,3.75-4.24c1.28-2,2.07-.58,1.86.52a18.14,18.14,0,0,1-1.31,3.84S144.71,240.2,145.46,240.8Z"/><path class="cls-21" d="M138.79,238.67c5.28,5.64,2.66,11.36-1,13.64-2.54-.05-14.79-5-19.32-7.25-4.81-2.35-9.93-9.44-11.64-12.44-5-8.63-5.76-16.2-5.43-25a23.63,23.63,0,0,1,6.35-14.7c4.43.7,10,5.4,11.71,16.31,1.13,7.17,2.34,12.74,3.62,20.24C126.75,231.17,135.65,237,138.79,238.67Z"/></g></g></g></g></g></g></g></svg>