<?xml version="1.0" encoding="utf-8"?>
<!-- Generator: Adobe Illustrator 21.0.2, SVG Export Plug-In . SVG Version: 6.00 Build 0)  -->
<svg version="1.1" id="Ñëîé_1" xmlns="http://www.w3.org/2000/svg" xmlns:xlink="http://www.w3.org/1999/xlink" x="0px" y="0px"
	 viewBox="0 0 500 500" style="enable-background:new 0 0 500 500;" xml:space="preserve">
<style type="text/css">
	.st0{fill:#D4ECFF;}
	.st1{fill:#173D7A;}
	.st2{fill:#396CAA;}
	.st3{fill:#95D359;}
	.st4{fill:#C13D1A;}
	.st5{fill:#DB5126;}
	.st6{fill:#EF602E;}
	.st7{fill:#5793CE;}
	.st8{fill:#274F89;}
	.st9{fill:#FFFFFF;}
	.st10{fill:#D3008D;}
	.st11{fill:#FF2C9C;}
	.st12{fill:#FFC2B0;}
	.st13{fill:#EA9C92;}
	.st14{fill:#B70083;}
</style>
<g>
	<g>
		<polygon class="st0" points="200.8,218.9 220.3,207.7 200.8,196.4 181.3,207.7 181.3,207.7 161.8,218.9 181.3,230.1 181.3,230.1 
			200.8,241.4 220.3,230.1 200.8,218.9 		"/>
		<polygon class="st1" points="200.8,190.9 200.8,108.4 220.3,97.2 220.3,179.6 		"/>
		<polygon class="st2" points="200.8,108.4 181.3,97.2 181.3,179.6 200.8,190.9 		"/>
		<polygon class="st0" points="220.3,97.2 200.8,85.9 181.3,97.2 200.8,108.4 		"/>
	</g>
	<g>
		<polygon class="st3" points="220.3,194.6 200.8,183.4 200.8,190.9 220.3,202.1 		"/>
	</g>
	<g>
		<polygon class="st4" points="181.3,202.1 181.3,142.2 200.8,130.9 200.8,190.9 		"/>
		<polygon class="st5" points="181.3,142.2 161.8,130.9 161.8,190.9 181.3,202.1 		"/>
		<polygon class="st6" points="200.8,130.9 181.3,119.7 161.8,130.9 181.3,142.2 		"/>
		<polygon class="st2" points="181.3,202.1 181.3,142.2 200.8,130.9 200.8,190.9 		"/>
		<polygon class="st7" points="181.3,142.2 161.8,130.9 161.8,190.9 181.3,202.1 		"/>
		<polygon class="st0" points="200.8,130.9 181.3,119.7 161.8,130.9 181.3,142.2 		"/>
	</g>
	<g>
		<polygon class="st1" points="200.8,213.4 200.8,179.6 220.3,168.4 220.3,202.1 		"/>
		<polygon class="st2" points="200.8,179.6 181.3,168.4 181.3,202.1 200.8,213.4 		"/>
		<polygon class="st0" points="220.3,168.4 200.8,157.2 181.3,168.4 200.8,179.6 		"/>
	</g>
</g>
<g>
	
		<rect x="451.6" y="253.5" transform="matrix(0.2482 0.9687 -0.9687 0.2482 589.222 -245.4534)" class="st7" width="2.3" height="6.8"/>
	
		<rect x="448.2" y="256.8" transform="matrix(0.2483 0.9687 -0.9687 0.2483 589.8457 -239.7588)" class="st7" width="2.3" height="6.8"/>
	
		<rect x="444.9" y="260" transform="matrix(0.2483 0.9687 -0.9687 0.2483 590.4928 -234.0578)" class="st7" width="2.3" height="6.8"/>
	
		<rect x="441.5" y="263.3" transform="matrix(0.2482 0.9687 -0.9687 0.2482 591.1675 -228.3485)" class="st7" width="2.3" height="6.8"/>
</g>
<g>
	<g>
		<path class="st0" d="M282.6,423.3l-147.1-84.9c-4.2-2.4-3.6-6.6,1.2-9.4l100.2-57.8c4.8-2.8,12.1-3.1,16.2-0.7l147.1,84.9
			c4.2,2.4,3.6,6.6-1.2,9.4l-100.2,57.8C294,425.4,286.7,425.7,282.6,423.3z"/>
		<g>
			<path class="st1" d="M405.6,188.4l-149.5-86.3c-1.9-1.1-3.7-1.3-5.1-0.7l0,0l-0.2,0.1c0,0,0,0-0.1,0l-4.9,2.3l5.3,2.6
				c0,0.1,0,0.2,0,0.3l0,122.8c0,6.1,3.8,13.3,8.5,16l145.5,84l0.8,6.9l5.3-2.5c1.8-1,2.9-3.4,2.9-6.7l0-122.8
				C414.1,198.3,410.3,191.1,405.6,188.4z"/>
			<path class="st2" d="M405.6,188.4l-149.5-86.3c-1.9-1.1-3.7-1.3-5.1-0.7l0,0l-0.2,0.1c0,0,0,0-0.1,0l-4.9,2.3l5.3,2.6
				c0,0.1,0,0.2,0,0.3l0,80.9l68,53.8l92.4-46.5C410,192.2,407.9,189.7,405.6,188.4z"/>
			<path class="st8" d="M408.1,190.3l-14.7,6.2l11.1,8.5l9.2-3.9C412.9,197.1,410.8,193,408.1,190.3z"/>
			<path class="st0" d="M400.7,335.8l-149.5-86.3c-4.7-2.7-8.5-9.9-8.5-16l0-122.8c0-6.1,3.8-8.9,8.5-6.2l149.5,86.3
				c4.7,2.7,8.5,9.9,8.5,16l0,122.8C409.2,335.7,405.4,338.5,400.7,335.8z"/>
			<path class="st9" d="M395.7,326.7l-139.6-80.5c-4.3-2.5-7.8-9-7.8-14.7l0-112.4c0-5.6,3.5-8.2,7.8-5.7l139.6,80.5
				c4.3,2.5,7.8,9,7.8,14.7l0,112.4C403.5,326.6,400,329.1,395.7,326.7z"/>
			<path class="st9" d="M395.7,326.7l-139.6-80.5c-4.3-2.5-7.8-9-7.8-14.7l0-112.4c0-5.6,3.5-8.2,7.8-5.7l139.6,80.5
				c4.3,2.5,7.8,9,7.8,14.7l0,112.4C403.5,326.6,400,329.1,395.7,326.7z"/>
		</g>
		<path class="st1" d="M403,339.6l-20.1-2.7L253.1,262c-4.2-2.4-11.4-2.1-16.2,0.7l-92,53.1l-12.2-1.6v6.9l0,0
			c-0.1,1.6,0.8,3.1,2.8,4.3l147.1,84.9c4.2,2.4,11.4,2.1,16.2-0.7L399,351.8c2.7-1.6,4.1-3.6,4-5.5l0,0V339.6z"/>
		<path class="st2" d="M305.4,292.3l-9.2-5.3H194.8l-50,28.8l-12.2-1.6v6.9l0,0c-0.1,1.6,0.8,3.1,2.8,4.3l147.1,84.9
			c2.2,1.3,5.3,1.8,8.4,1.6L305.4,292.3z"/>
		<path class="st7" d="M138.1,314.9l-5.4-0.7v6.9l0,0c-0.1,1.6,0.8,3.1,2.8,4.3l2.6,1.5V314.9z"/>
		<path class="st8" d="M284.1,410.9c3.9,1.5,9.6,1.2,13.8-0.9v-15.4h-13.8V410.9z"/>
		<path class="st0" d="M282.6,403.4l-147.1-84.9c-4.2-2.4-3.6-6.6,1.2-9.4l100.2-57.8c4.8-2.8,12.1-3.1,16.2-0.7l147.1,84.9
			c4.2,2.4,3.6,6.6-1.2,9.4l-100.2,57.8C294,405.5,286.7,405.8,282.6,403.4z"/>
		<path class="st9" d="M399,342.4l-100.2,57.8c-4.8,2.8-12.1,3.1-16.2,0.7l-147.1-84.9c-1.4-0.8-2.2-1.8-2.6-2.8
			c-0.7,2,0.2,4,2.6,5.3l147.1,84.9c4.2,2.4,11.4,2.1,16.2-0.7L399,344.9c3.2-1.9,4.5-4.4,3.8-6.5C402.3,339.8,401,341.2,399,342.4z
			"/>
		<g>
			<path class="st1" d="M198.1,290.3l-6.7-3.8c-0.5-0.3-0.5-0.8,0.1-1.2l7.9-4.5c0.6-0.4,1.6-0.4,2.1-0.1l6.7,3.8
				c0.5,0.3,0.5,0.8-0.1,1.2l-7.9,4.5C199.5,290.6,198.6,290.6,198.1,290.3z"/>
			<path class="st1" d="M208.3,296.3l-6.7-3.8c-0.5-0.3-0.5-0.8,0.1-1.2l7.9-4.5c0.6-0.4,1.6-0.4,2.1-0.1l6.7,3.8
				c0.5,0.3,0.5,0.8-0.1,1.2l-7.9,4.5C209.8,296.5,208.9,296.6,208.3,296.3z"/>
			<path class="st1" d="M218.6,302.2l-6.7-3.8c-0.5-0.3-0.5-0.8,0.1-1.2l7.9-4.5c0.6-0.4,1.6-0.4,2.1-0.1l6.7,3.8
				c0.5,0.3,0.5,0.8-0.1,1.2l-7.9,4.5C220.1,302.5,219.1,302.5,218.6,302.2z"/>
			<path class="st1" d="M232.8,297.3l-6.7-3.8c-0.5-0.3-0.5-0.8,0.1-1.2l6.6-3.8c0.6-0.4,1.6-0.4,2.1-0.1l6.7,3.8
				c0.5,0.3,0.5,0.8-0.1,1.2l-6.6,3.8C234.3,297.6,233.4,297.6,232.8,297.3z"/>
			<path class="st1" d="M243.1,303.2l-6.7-3.8c-0.5-0.3-0.5-0.8,0.1-1.2l6.6-3.8c0.6-0.4,1.6-0.4,2.1-0.1l6.7,3.8
				c0.5,0.3,0.5,0.8-0.1,1.2l-6.6,3.8C244.6,303.5,243.6,303.5,243.1,303.2z"/>
			<path class="st1" d="M253.4,309.2l-6.7-3.8c-0.5-0.3-0.5-0.8,0.1-1.2l6.6-3.8c0.6-0.4,1.6-0.4,2.1-0.1l6.7,3.8
				c0.5,0.3,0.5,0.8-0.1,1.2l-6.6,3.8C254.8,309.4,253.9,309.5,253.4,309.2z"/>
			<path class="st1" d="M263.7,315.1l-6.7-3.8c-0.5-0.3-0.5-0.8,0.1-1.2l6.6-3.8c0.6-0.4,1.6-0.4,2.1-0.1l6.7,3.8
				c0.5,0.3,0.5,0.8-0.1,1.2l-6.6,3.8C265.1,315.4,264.2,315.4,263.7,315.1z"/>
			<path class="st1" d="M273.9,321l-6.7-3.8c-0.5-0.3-0.5-0.8,0.1-1.2l6.6-3.8c0.6-0.4,1.6-0.4,2.1-0.1l6.7,3.8
				c0.5,0.3,0.5,0.8-0.1,1.2l-6.6,3.8C275.4,321.3,274.5,321.3,273.9,321z"/>
			<path class="st1" d="M284.2,327l-6.7-3.8c-0.5-0.3-0.5-0.8,0.1-1.2l6.6-3.8c0.6-0.4,1.6-0.4,2.1-0.1l6.7,3.8
				c0.5,0.3,0.5,0.8-0.1,1.2l-6.6,3.8C285.7,327.2,284.8,327.3,284.2,327z"/>
			<path class="st1" d="M294.5,332.9l-6.7-3.8c-0.5-0.3-0.5-0.8,0.1-1.2l6.6-3.8c0.6-0.4,1.6-0.4,2.1-0.1l6.7,3.8
				c0.5,0.3,0.5,0.8-0.1,1.2l-6.6,3.8C296,333.2,295,333.2,294.5,332.9z"/>
			<path class="st1" d="M304.8,338.8l-6.7-3.8c-0.5-0.3-0.5-0.8,0.1-1.2l6.6-3.8c0.6-0.4,1.6-0.4,2.1-0.1l6.7,3.8
				c0.5,0.3,0.5,0.8-0.1,1.2l-6.6,3.8C306.2,339.1,305.3,339.1,304.8,338.8z"/>
			<path class="st1" d="M315.1,344.8l-6.7-3.8c-0.5-0.3-0.5-0.8,0.1-1.2l6.6-3.8c0.6-0.4,1.6-0.4,2.1-0.1l6.7,3.8
				c0.5,0.3,0.5,0.8-0.1,1.2l-6.6,3.8C316.5,345,315.6,345.1,315.1,344.8z"/>
			<path class="st1" d="M325.3,350.7l-6.7-3.8c-0.5-0.3-0.5-0.8,0.1-1.2l6.6-3.8c0.6-0.4,1.6-0.4,2.1-0.1l6.7,3.8
				c0.5,0.3,0.5,0.8-0.1,1.2l-6.6,3.8C326.8,351,325.9,351,325.3,350.7z"/>
			<path class="st2" d="M248,294.5l-6.7-3.8c-0.5-0.3-0.5-0.8,0.1-1.2l6.6-3.8c0.6-0.4,1.6-0.4,2.1-0.1l6.7,3.8
				c0.5,0.3,0.5,0.8-0.1,1.2l-6.6,3.8C249.4,294.7,248.5,294.8,248,294.5z"/>
			<path class="st2" d="M237.5,288.5l-6.7-3.8c-0.5-0.3-0.5-0.8,0.1-1.2l6.6-3.8c0.6-0.4,1.6-0.4,2.1-0.1l6.7,3.8
				c0.5,0.3,0.5,0.8-0.1,1.2l-6.6,3.8C239,288.7,238.1,288.8,237.5,288.5z"/>
			<path class="st1" d="M227.1,282.4l-14.3-8.3c-0.5-0.3-0.5-0.8,0.1-1.2l6.6-3.8c0.6-0.4,1.6-0.4,2.1-0.1l14.3,8.3
				c0.5,0.3,0.5,0.8-0.1,1.2l-6.6,3.8C228.6,282.7,227.6,282.7,227.1,282.4z"/>
			<path class="st1" d="M234.4,275.1l-11.6-6.7c-0.5-0.3-0.5-0.8,0.1-1.2l6.6-3.8c0.6-0.4,1.6-0.4,2.1-0.1l11.6,6.7
				c0.5,0.3,0.5,0.8-0.1,1.2l-6.6,3.8C235.9,275.4,234.9,275.4,234.4,275.1z"/>
			<path class="st2" d="M258.2,300.4l-6.7-3.8c-0.5-0.3-0.5-0.8,0.1-1.2l6.6-3.8c0.6-0.4,1.6-0.4,2.1-0.1l6.7,3.8
				c0.5,0.3,0.5,0.8-0.1,1.2l-6.6,3.8C259.7,300.7,258.8,300.7,258.2,300.4z"/>
			<path class="st1" d="M268.5,306.3l-6.7-3.8c-0.5-0.3-0.5-0.8,0.1-1.2l6.6-3.8c0.6-0.4,1.6-0.4,2.1-0.1l6.7,3.8
				c0.5,0.3,0.5,0.8-0.1,1.2l-6.6,3.8C270,306.6,269.1,306.7,268.5,306.3z"/>
			<path class="st1" d="M278.8,312.3l-6.7-3.8c-0.5-0.3-0.5-0.8,0.1-1.2l6.6-3.8c0.6-0.4,1.6-0.4,2.1-0.1l6.7,3.8
				c0.5,0.3,0.5,0.8-0.1,1.2l-6.6,3.8C280.3,312.6,279.3,312.6,278.8,312.3z"/>
			<path class="st1" d="M289.1,318.2l-6.7-3.8c-0.5-0.3-0.5-0.8,0.1-1.2l6.6-3.8c0.6-0.4,1.6-0.4,2.1-0.1l6.7,3.8
				c0.5,0.3,0.5,0.8-0.1,1.2l-6.6,3.8C290.6,318.5,289.6,318.5,289.1,318.2z"/>
			<path class="st1" d="M299.4,324.1l-6.7-3.8c-0.5-0.3-0.5-0.8,0.1-1.2l6.6-3.8c0.6-0.4,1.6-0.4,2.1-0.1l6.7,3.8
				c0.5,0.3,0.5,0.8-0.1,1.2l-6.6,3.8C300.8,324.4,299.9,324.5,299.4,324.1z"/>
			<path class="st1" d="M309.6,330.1l-6.7-3.8c-0.5-0.3-0.5-0.8,0.1-1.2l6.6-3.8c0.6-0.4,1.6-0.4,2.1-0.1l6.7,3.8
				c0.5,0.3,0.5,0.8-0.1,1.2l-6.6,3.8C311.1,330.4,310.2,330.4,309.6,330.1z"/>
			<path class="st1" d="M319.9,336l-6.7-3.8c-0.5-0.3-0.5-0.8,0.1-1.2l6.6-3.8c0.6-0.4,1.6-0.4,2.1-0.1l6.7,3.8
				c0.5,0.3,0.5,0.8-0.1,1.2l-6.6,3.8C321.4,336.3,320.5,336.3,319.9,336z"/>
			<path class="st1" d="M330.2,342l-6.7-3.8c-0.5-0.3-0.5-0.8,0.1-1.2l6.6-3.8c0.6-0.4,1.6-0.4,2.1-0.1l6.7,3.8
				c0.5,0.3,0.5,0.8-0.1,1.2l-6.6,3.8C331.7,342.2,330.7,342.3,330.2,342z"/>
			<path class="st1" d="M340.5,347.9l-6.7-3.8c-0.5-0.3-0.5-0.8,0.1-1.2l6.6-3.8c0.6-0.4,1.6-0.4,2.1-0.1l6.7,3.8
				c0.5,0.3,0.5,0.8-0.1,1.2l-6.6,3.8C341.9,348.2,341,348.2,340.5,347.9z"/>
			<path class="st1" d="M358.7,358.4l-14.5-8.4c-0.5-0.3-0.5-0.8,0.1-1.2l6.6-3.8c0.6-0.4,1.6-0.4,2.1-0.1l14.5,8.4
				c0.5,0.3,0.5,0.8-0.1,1.2l-6.6,3.8C360.2,358.7,359.3,358.7,358.7,358.4z"/>
			<path class="st1" d="M378.8,346.9l-12.3-7.1c-0.5-0.3-0.5-0.8,0.1-1.2l6.6-3.8c0.6-0.4,1.6-0.4,2.1-0.1l12.3,7.1
				c0.5,0.3,0.5,0.8-0.1,1.2l-6.6,3.8C380.2,347.2,379.3,347.2,378.8,346.9z"/>
			<path class="st1" d="M276.2,299.3l-6.7-3.8c-0.5-0.3-0.5-0.8,0.1-1.2l6.6-3.8c0.6-0.4,1.6-0.4,2.1-0.1l6.7,3.8
				c0.5,0.3,0.5,0.8-0.1,1.2l-6.6,3.8C277.7,299.5,276.8,299.6,276.2,299.3z"/>
			<path class="st1" d="M265.7,293.2l-6.7-3.8c-0.5-0.3-0.5-0.8,0.1-1.2l6.6-3.8c0.6-0.4,1.6-0.4,2.1-0.1l6.7,3.8
				c0.5,0.3,0.5,0.8-0.1,1.2l-6.6,3.8C267.2,293.4,266.2,293.5,265.7,293.2z"/>
			<path class="st2" d="M255.2,287.1l-6.7-3.8c-0.5-0.3-0.5-0.8,0.1-1.2l6.6-3.8c0.6-0.4,1.6-0.4,2.1-0.1l6.7,3.8
				c0.5,0.3,0.5,0.8-0.1,1.2l-6.6,3.8C256.6,287.4,255.7,287.4,255.2,287.1z"/>
			<path class="st1" d="M244.6,281l-6.7-3.8c-0.5-0.3-0.5-0.8,0.1-1.2l6.6-3.8c0.6-0.4,1.6-0.4,2.1-0.1l6.7,3.8
				c0.5,0.3,0.5,0.8-0.1,1.2l-6.6,3.8C246.1,281.3,245.2,281.3,244.6,281z"/>
			<path class="st1" d="M286.5,305.2l-6.7-3.8c-0.5-0.3-0.5-0.8,0.1-1.2l6.6-3.8c0.6-0.4,1.6-0.4,2.1-0.1l6.7,3.8
				c0.5,0.3,0.5,0.8-0.1,1.2l-6.6,3.8C288,305.5,287.1,305.5,286.5,305.2z"/>
			<path class="st1" d="M296.8,311.1l-6.7-3.8c-0.5-0.3-0.5-0.8,0.1-1.2l6.6-3.8c0.6-0.4,1.6-0.4,2.1-0.1l6.7,3.8
				c0.5,0.3,0.5,0.8-0.1,1.2l-6.6,3.8C298.3,311.4,297.3,311.4,296.8,311.1z"/>
			<path class="st1" d="M307.1,317.1l-6.7-3.8c-0.5-0.3-0.5-0.8,0.1-1.2l6.6-3.8c0.6-0.4,1.6-0.4,2.1-0.1l6.7,3.8
				c0.5,0.3,0.5,0.8-0.1,1.2l-6.6,3.8C308.5,317.3,307.6,317.4,307.1,317.1z"/>
			<path class="st1" d="M317.4,323l-6.7-3.8c-0.5-0.3-0.5-0.8,0.1-1.2l6.6-3.8c0.6-0.4,1.6-0.4,2.1-0.1l6.7,3.8
				c0.5,0.3,0.5,0.8-0.1,1.2l-6.6,3.8C318.8,323.3,317.9,323.3,317.4,323z"/>
			<path class="st1" d="M327.6,328.9l-6.7-3.8c-0.5-0.3-0.5-0.8,0.1-1.2l6.6-3.8c0.6-0.4,1.6-0.4,2.1-0.1l6.7,3.8
				c0.5,0.3,0.5,0.8-0.1,1.2l-6.6,3.8C329.1,329.2,328.2,329.2,327.6,328.9z"/>
			<path class="st1" d="M337.9,334.9l-6.7-3.8c-0.5-0.3-0.5-0.8,0.1-1.2l6.6-3.8c0.6-0.4,1.6-0.4,2.1-0.1l6.7,3.8
				c0.5,0.3,0.5,0.8-0.1,1.2l-6.6,3.8C339.4,335.1,338.5,335.2,337.9,334.9z"/>
			<path class="st1" d="M348.2,340.8l-6.7-3.8c-0.5-0.3-0.5-0.8,0.1-1.2l6.6-3.8c0.6-0.4,1.6-0.4,2.1-0.1l6.7,3.8
				c0.5,0.3,0.5,0.8-0.1,1.2l-6.6,3.8C349.7,341.1,348.7,341.1,348.2,340.8z"/>
			<path class="st1" d="M358.5,346.7l-6.7-3.8c-0.5-0.3-0.5-0.8,0.1-1.2l6.6-3.8c0.6-0.4,1.6-0.4,2.1-0.1l6.7,3.8
				c0.5,0.3,0.5,0.8-0.1,1.2l-6.6,3.8C359.9,347,359,347,358.5,346.7z"/>
			<path class="st1" d="M368.8,352.7l-6.7-3.8c-0.5-0.3-0.5-0.8,0.1-1.2l6.6-3.8c0.6-0.4,1.6-0.4,2.1-0.1l6.7,3.8
				c0.5,0.3,0.5,0.8-0.1,1.2l-6.6,3.8C370.2,352.9,369.3,353,368.8,352.7z"/>
			<path class="st1" d="M270.8,284.6l-6.7-3.8c-0.5-0.3-0.5-0.8,0.1-1.2l6.6-3.8c0.6-0.4,1.6-0.4,2.1-0.1l6.7,3.8
				c0.5,0.3,0.5,0.8-0.1,1.2l-6.6,3.8C272.3,284.8,271.4,284.9,270.8,284.6z"/>
			<path class="st1" d="M260.6,278.7l-6.7-3.8c-0.5-0.3-0.5-0.8,0.1-1.2l6.6-3.8c0.6-0.4,1.6-0.4,2.1-0.1l6.7,3.8
				c0.5,0.3,0.5,0.8-0.1,1.2l-6.6,3.8C262.1,278.9,261.1,279,260.6,278.7z"/>
			<path class="st1" d="M250.4,272.8l-6.7-3.8c-0.5-0.3-0.5-0.8,0.1-1.2l6.6-3.8c0.6-0.4,1.6-0.4,2.1-0.1l6.7,3.8
				c0.5,0.3,0.5,0.8-0.1,1.2l-6.6,3.8C251.8,273,250.9,273.1,250.4,272.8z"/>
			<path class="st1" d="M240.2,266.9l-6.7-3.8c-0.5-0.3-0.5-0.8,0.1-1.2l6.6-3.8c0.6-0.4,1.6-0.4,2.1-0.1l6.7,3.8
				c0.5,0.3,0.5,0.8-0.1,1.2l-6.6,3.8C241.6,267.1,240.7,267.2,240.2,266.9z"/>
			<path class="st1" d="M250.7,260.8l-6.7-3.8c-0.5-0.3-0.5-0.8,0.1-1.2l2.2-1.3c0.6-0.4,1.6-0.4,2.1-0.1l6.7,3.8
				c0.5,0.3,0.5,0.8-0.1,1.2l-2.2,1.3C252.1,261.1,251.2,261.1,250.7,260.8z"/>
			<path class="st1" d="M264,268.5l-6.7-3.8c-0.5-0.3-0.5-0.8,0.1-1.2l2.2-1.3c0.6-0.4,1.6-0.4,2.1-0.1l6.7,3.8
				c0.5,0.3,0.5,0.8-0.1,1.2l-2.2,1.3C265.5,268.8,264.6,268.8,264,268.5z"/>
			<path class="st1" d="M274.2,274.4l-6.7-3.8c-0.5-0.3-0.5-0.8,0.1-1.2l2.2-1.3c0.6-0.4,1.6-0.4,2.1-0.1l6.7,3.8
				c0.5,0.3,0.5,0.8-0.1,1.2l-2.2,1.3C275.7,274.6,274.7,274.7,274.2,274.4z"/>
			<path class="st1" d="M284.4,280.3l-6.7-3.8c-0.5-0.3-0.5-0.8,0.1-1.2l2.2-1.3c0.6-0.4,1.6-0.4,2.1-0.1l6.7,3.8
				c0.5,0.3,0.5,0.8-0.1,1.2l-2.2,1.3C285.9,280.5,284.9,280.6,284.4,280.3z"/>
			<path class="st1" d="M294.6,286.1l-6.7-3.8c-0.5-0.3-0.5-0.8,0.1-1.2l2.2-1.3c0.6-0.4,1.6-0.4,2.1-0.1l6.7,3.8
				c0.5,0.3,0.5,0.8-0.1,1.2l-2.2,1.3C296,286.4,295.1,286.4,294.6,286.1z"/>
			<path class="st1" d="M351.4,319l-6.7-3.8c-0.5-0.3-0.5-0.8,0.1-1.2l2.2-1.3c0.6-0.4,1.6-0.4,2.1-0.1l6.7,3.8
				c0.5,0.3,0.5,0.8-0.1,1.2l-2.2,1.3C352.9,319.2,352,319.3,351.4,319z"/>
			<path class="st1" d="M361.6,324.8L355,321c-0.5-0.3-0.5-0.8,0.1-1.2l2.2-1.3c0.6-0.4,1.6-0.4,2.1-0.1l6.7,3.8
				c0.5,0.3,0.5,0.8-0.1,1.2l-2.2,1.3C363.1,325.1,362.1,325.1,361.6,324.8z"/>
			<path class="st1" d="M371.8,330.7l-6.7-3.8c-0.5-0.3-0.5-0.8,0.1-1.2l2.2-1.3c0.6-0.4,1.6-0.4,2.1-0.1l6.7,3.8
				c0.5,0.3,0.5,0.8-0.1,1.2l-2.2,1.3C373.3,331,372.3,331,371.8,330.7z"/>
			<path class="st1" d="M382,336.6l-6.7-3.8c-0.5-0.3-0.5-0.8,0.1-1.2l2.2-1.3c0.6-0.4,1.6-0.4,2.1-0.1l6.7,3.8
				c0.5,0.3,0.5,0.8-0.1,1.2l-2.2,1.3C383.4,336.9,382.5,336.9,382,336.6z"/>
			<path class="st1" d="M281.1,290.5l-6.7-3.8c-0.5-0.3-0.5-0.8,0.1-1.2l6.6-3.8c0.6-0.4,1.6-0.4,2.1-0.1l6.7,3.8
				c0.5,0.3,0.5,0.8-0.1,1.2l-6.6,3.8C282.6,290.8,281.6,290.8,281.1,290.5z"/>
			<path class="st1" d="M291.4,296.4l-6.7-3.8c-0.5-0.3-0.5-0.8,0.1-1.2l6.6-3.8c0.6-0.4,1.6-0.4,2.1-0.1l6.7,3.8
				c0.5,0.3,0.5,0.8-0.1,1.2l-6.6,3.8C292.9,296.7,291.9,296.8,291.4,296.4z"/>
			<path class="st1" d="M301.7,302.4l-6.7-3.8c-0.5-0.3-0.5-0.8,0.1-1.2l6.6-3.8c0.6-0.4,1.6-0.4,2.1-0.1l6.7,3.8
				c0.5,0.3,0.5,0.8-0.1,1.2l-6.6,3.8C303.1,302.6,302.2,302.7,301.7,302.4z"/>
			<path class="st1" d="M311.9,308.3l-6.7-3.8c-0.5-0.3-0.5-0.8,0.1-1.2l6.6-3.8c0.6-0.4,1.6-0.4,2.1-0.1l6.7,3.8
				c0.5,0.3,0.5,0.8-0.1,1.2l-6.6,3.8C313.4,308.6,312.5,308.6,311.9,308.3z"/>
			<path class="st1" d="M322.2,314.2l-6.7-3.8c-0.5-0.3-0.5-0.8,0.1-1.2l6.6-3.8c0.6-0.4,1.6-0.4,2.1-0.1l6.7,3.8
				c0.5,0.3,0.5,0.8-0.1,1.2l-6.6,3.8C323.7,314.5,322.8,314.6,322.2,314.2z"/>
			<path class="st1" d="M332.5,320.2l-6.7-3.8c-0.5-0.3-0.5-0.8,0.1-1.2l6.6-3.8c0.6-0.4,1.6-0.4,2.1-0.1l6.7,3.8
				c0.5,0.3,0.5,0.8-0.1,1.2l-6.6,3.8C334,320.4,333,320.5,332.5,320.2z"/>
			<path class="st1" d="M342.8,326.1l-6.7-3.8c-0.5-0.3-0.5-0.8,0.1-1.2l6.6-3.8c0.6-0.4,1.6-0.4,2.1-0.1l6.7,3.8
				c0.5,0.3,0.5,0.8-0.1,1.2l-6.6,3.8C344.3,326.4,343.3,326.4,342.8,326.1z"/>
			<path class="st1" d="M353.1,332l-6.7-3.8c-0.5-0.3-0.5-0.8,0.1-1.2l6.6-3.8c0.6-0.4,1.6-0.4,2.1-0.1l6.7,3.8
				c0.5,0.3,0.5,0.8-0.1,1.2l-6.6,3.8C354.5,332.3,353.6,332.4,353.1,332z"/>
			<path class="st1" d="M363.3,338l-6.7-3.8c-0.5-0.3-0.5-0.8,0.1-1.2l6.6-3.8c0.6-0.4,1.6-0.4,2.1-0.1l6.7,3.8
				c0.5,0.3,0.5,0.8-0.1,1.2l-6.6,3.8C364.8,338.3,363.9,338.3,363.3,338z"/>
			<path class="st1" d="M222.4,291.2l-19.6-11.3c-0.5-0.3-0.5-0.8,0.1-1.2l6.6-3.8c0.6-0.4,1.6-0.4,2.1-0.1l19.6,11.3
				c0.5,0.3,0.5,0.8-0.1,1.2l-6.6,3.8C223.8,291.5,222.9,291.5,222.4,291.2z"/>
			<path class="st1" d="M348.6,364.1L329,352.8c-0.5-0.3-0.5-0.8,0.1-1.2l6.6-3.8c0.6-0.4,1.6-0.4,2.1-0.1l19.6,11.3
				c0.5,0.3,0.5,0.8-0.1,1.2l-6.6,3.8C350.1,364.4,349.2,364.5,348.6,364.1z"/>
			<path class="st1" d="M307.5,353.5l-6.7-3.8c-0.5-0.3-0.5-0.8,0.1-1.2l7.9-4.5c0.6-0.4,1.6-0.4,2.1-0.1l6.7,3.8
				c0.5,0.3,0.5,0.8-0.1,1.2l-7.9,4.5C309,353.8,308.1,353.8,307.5,353.5z"/>
			<path class="st1" d="M232.9,310.4l-10.6-6.1c-0.5-0.3-0.5-0.8,0.1-1.2l7.9-4.5c0.6-0.4,1.6-0.4,2.1-0.1l10.6,6.1
				c0.5,0.3,0.5,0.8-0.1,1.2l-7.9,4.5C234.3,310.7,233.4,310.7,232.9,310.4z"/>
			<path class="st1" d="M297.6,347.8l-10.6-6.1c-0.5-0.3-0.5-0.8,0.1-1.2l7.9-4.5c0.6-0.4,1.6-0.4,2.1-0.1l10.6,6.1
				c0.5,0.3,0.5,0.8-0.1,1.2l-7.9,4.5C299.1,348.1,298.1,348.1,297.6,347.8z"/>
			<path class="st1" d="M247.7,319l-10.6-6.1c-0.5-0.3-0.5-0.8,0.1-1.2l7.9-4.5c0.6-0.4,1.6-0.4,2.1-0.1l10.6,6.1
				c0.5,0.3,0.5,0.8-0.1,1.2l-7.9,4.5C249.2,319.3,248.2,319.3,247.7,319z"/>
			<path class="st1" d="M247.2,307.1l46.3,26.7c0.6,0.3,0.6,0.9,0,1.2l-8,4.6c-0.6,0.3-1.5,0.3-2.1,0l-46.3-26.7L247.2,307.1z"/>
			<path class="st1" d="M336.2,364.3l7.4,4.3c0.4,0.3,0.4,0.7-0.1,1l-3.2,1.9c-0.5,0.3-1.3,0.3-1.7,0.1l-7.4-4.3
				c-0.4-0.3-0.4-0.7,0.1-1l3.2-1.9C335,364.1,335.8,364,336.2,364.3z"/>
			<path class="st1" d="M325.9,358.3l7.4,4.3c0.4,0.3,0.4,0.7-0.1,1l-3.2,1.9c-0.5,0.3-1.3,0.3-1.7,0.1l-7.4-4.3
				c-0.4-0.3-0.4-0.7,0.1-1l3.2-1.9C324.7,358.1,325.4,358,325.9,358.3z"/>
			<path class="st1" d="M315.6,352.4l7.4,4.3c0.4,0.3,0.4,0.7-0.1,1l-3.2,1.9c-0.5,0.3-1.3,0.3-1.7,0.1l-7.4-4.3
				c-0.4-0.3-0.4-0.7,0.1-1l3.2-1.9C314.4,352.1,315.2,352.1,315.6,352.4z"/>
			<path class="st1" d="M331.6,355l7.4,4.3c0.4,0.3,0.4,0.7-0.1,1l-3.2,1.9c-0.5,0.3-1.3,0.3-1.7,0.1l-7.4-4.3
				c-0.4-0.3-0.4-0.7,0.1-1l3.2-1.9C330.4,354.8,331.1,354.8,331.6,355z"/>
		</g>
	</g>
	<g>
		<g>
			<path class="st0" d="M342.6,208.9l-6.4-3.7c-0.6-0.3-1.1-1.3-1.1-2.1l0,0c0-0.8,0.5-1.2,1-0.8l6.4,3.7c0.6,0.3,1.1,1.3,1.1,2.1
				l0,0C343.6,208.9,343.2,209.2,342.6,208.9z"/>
			<path class="st0" d="M357.8,217.7l-9.4-5.4c-0.6-0.3-1.1-1.3-1.1-2.1l0,0c0-0.8,0.5-1.2,1-0.8l9.4,5.4c0.6,0.3,1.1,1.3,1.1,2.1
				l0,0C358.8,217.6,358.3,218,357.8,217.7z"/>
			<path class="st0" d="M339.4,242.8l-6.4-3.7c-0.6-0.3-1.1-1.3-1.1-2.1l0,0c0-0.8,0.5-1.2,1-0.8l6.4,3.7c0.6,0.3,1.1,1.3,1.1,2.1
				l0,0C340.5,242.8,340,243.2,339.4,242.8z"/>
			<path class="st0" d="M353,250.6l-9.4-5.4c-0.6-0.3-1.1-1.3-1.1-2.1l0,0c0-0.8,0.5-1.2,1-0.8l9.4,5.4c0.6,0.3,1.1,1.3,1.1,2.1l0,0
				C354,250.6,353.5,251,353,250.6z"/>
			<path class="st0" d="M325.1,204.8l-4-2.3c-0.6-0.3-1.1-1.3-1.1-2.1l0,0c0-0.8,0.5-1.2,1-0.8l4,2.3c0.6,0.3,1.1,1.3,1.1,2.1l0,0
				C326.2,204.8,325.7,205.1,325.1,204.8z"/>
			<path class="st0" d="M338.7,218.6l-12.1-7c-0.6-0.3-1.1-1.3-1.1-2.1l0,0c0-0.8,0.5-1.2,1-0.8l12.1,7c0.6,0.3,1.1,1.3,1.1,2.1l0,0
				C339.8,218.6,339.3,218.9,338.7,218.6z"/>
			<path class="st0" d="M330.7,225.9l-4-2.3c-0.6-0.3-1.1-1.3-1.1-2.1l0,0c0-0.8,0.5-1.2,1-0.8l4,2.3c0.6,0.3,1.1,1.3,1.1,2.1l0,0
				C331.8,225.9,331.3,226.2,330.7,225.9z"/>
			<path class="st0" d="M357.6,265.3l-10.6-6.1c-0.6-0.3-1.1-1.3-1.1-2.1l0,0c0-0.8,0.5-1.2,1-0.8l10.6,6.1c0.6,0.3,1.1,1.3,1.1,2.1
				l0,0C358.7,265.3,358.2,265.6,357.6,265.3z"/>
			<path class="st0" d="M329.5,237.1l-2.6-1.5c-0.6-0.3-1.1-1.3-1.1-2.1l0,0c0-0.8,0.5-1.2,1-0.8l2.6,1.5c0.6,0.3,1.1,1.3,1.1,2.1
				l0,0C330.6,237.1,330.1,237.5,329.5,237.1z"/>
			<path class="st0" d="M330.3,249.5l-3.2-1.8c-0.6-0.3-1.1-1.3-1.1-2.1l0,0c0-0.8,0.5-1.2,1-0.8l3.2,1.8c0.6,0.3,1.1,1.3,1.1,2.1
				l0,0C331.4,249.5,330.9,249.8,330.3,249.5z"/>
			<path class="st0" d="M342.7,256.6l-8.4-4.8c-0.6-0.3-1.1-1.3-1.1-2.1l0,0c0-0.8,0.5-1.2,1-0.8l8.4,4.8c0.6,0.3,1.1,1.3,1.1,2.1
				l0,0C343.7,256.6,343.2,257,342.7,256.6z"/>
			<path class="st0" d="M333.3,257.2l-6-3.5c-0.6-0.3-1.1-1.3-1.1-2.1l0,0c0-0.8,0.5-1.2,1-0.8l6,3.5c0.6,0.3,1.1,1.3,1.1,2.1l0,0
				C334.3,257.1,333.8,257.5,333.3,257.2z"/>
			<path class="st0" d="M366.8,270.6l-3.9-2.2c-0.6-0.3-1.1-1.3-1.1-2.1l0,0c0-0.8,0.5-1.2,1-0.8l3.9,2.2c0.6,0.3,1.1,1.3,1.1,2.1
				l0,0C367.8,270.5,367.4,270.9,366.8,270.6z"/>
			<path class="st0" d="M345.5,234.4l-10.6-6.1c-0.6-0.3-1.1-1.3-1.1-2.1l0,0c0-0.8,0.5-1.2,1-0.8l10.6,6.1c0.6,0.3,1.1,1.3,1.1,2.1
				l0,0C346.6,234.4,346.1,234.8,345.5,234.4z"/>
			<path class="st0" d="M345.2,228.3l-18.5-10.7c-0.6-0.3-1.1-1.3-1.1-2.1l0,0c0-0.8,0.5-1.2,1-0.8l18.5,10.7
				c0.6,0.3,1.1,1.3,1.1,2.1l0,0C346.2,228.2,345.8,228.6,345.2,228.3z"/>
			<path class="st0" d="M337.5,235.8l-10.6-6.1c-0.6-0.3-1.1-1.3-1.1-2.1l0,0c0-0.8,0.5-1.2,1-0.8l10.6,6.1c0.6,0.3,1.1,1.3,1.1,2.1
				l0,0C338.5,235.7,338.1,236.1,337.5,235.8z"/>
			<path class="st0" d="M353.6,239.1l-3.9-2.2c-0.6-0.3-1.1-1.3-1.1-2.1l0,0c0-0.8,0.5-1.2,1-0.8l3.9,2.2c0.6,0.3,1.1,1.3,1.1,2.1
				l0,0C354.6,239.1,354.2,239.4,353.6,239.1z"/>
			<path class="st0" d="M386.4,234.2L363.5,221c-0.6-0.3-1.1-1.3-1.1-2.1l0,0c0-0.8,0.5-1.2,1-0.8l22.9,13.2
				c0.6,0.3,1.1,1.3,1.1,2.1l0,0C387.4,234.2,387,234.5,386.4,234.2z"/>
			<path class="st0" d="M339.8,249l-12.8-7.4c-0.6-0.3-1.1-1.3-1.1-2.1l0,0c0-0.8,0.5-1.2,1-0.8l12.8,7.4c0.6,0.3,1.1,1.3,1.1,2.1
				l0,0C340.9,249,340.4,249.4,339.8,249z"/>
			<path class="st0" d="M330.4,201.9l-9.4-5.4c-0.6-0.3-1.1-1.3-1.1-2.1l0,0c0-0.8,0.5-1.2,1-0.8l9.4,5.4c0.6,0.3,1.1,1.3,1.1,2.1
				l0,0C331.5,201.9,331,202.2,330.4,201.9z"/>
			<path class="st0" d="M332.9,262.9l-10.9-6.3c-0.6-0.3-1.1-1.3-1.1-2.1l0,0c0-0.8,0.5-1.2,1-0.8l10.9,6.3c0.6,0.3,1.1,1.3,1.1,2.1
				l0,0C334,262.9,333.5,263.3,332.9,262.9z"/>
		</g>
	</g>
</g>
<g>
	<g>
		<path class="st0" d="M55,272.4l56-32.6c11.1-6.4,21.6-7.4,29.5-2.9c7.9,4.6,12.3,14.1,12.3,26.9v4.1c-0.4,0.3-0.8,0.5-1.2,0.8
			v-4.9c0-12.3-4.1-21.5-11.6-25.9c-7.5-4.3-17.5-3.3-28.2,2.9l-56,32.6c-0.3,0.2-0.7,0.1-0.8-0.2C54.6,272.9,54.7,272.5,55,272.4z"
			/>
		<path class="st0" d="M229.6,233.5V107.3c0-25.3,17.8-56.1,39.7-68.7c10.7-6.2,20.8-7.2,28.5-2.8c7.6,4.4,11.8,13.6,11.8,26v8.8
			c-0.4,0.4-0.8,0.8-1.2,1.2v-10c0-11.9-4-20.8-11.2-24.9c-7.2-4.2-16.9-3.2-27.2,2.8c-21.5,12.4-39.1,42.8-39.1,67.6v126.2
			c0,20.9-12.3,45.7-29,60.6c0-0.6,0-1.1,0-1.7C217.8,277.8,229.6,253.8,229.6,233.5z"/>
		<path class="st1" d="M309.5,74.6L309.5,74.6c2-1.9,11.5-10.3,25.3-12.4c15.6-2.4,22.1,15.9,22.1,15.9s1.8,9.5,1.7,15.1
			c-0.1,5.6-0.5,26-0.5,26l-49.5-28.5l0,0c-0.2-0.1-0.3-0.3-0.3-0.5V75.6C308.7,75.2,309.1,75,309.5,74.6z"/>
	</g>
	<g>
		<g>
			<path class="st0" d="M344.6,62.9l-46.9-27.1l0.2,0.7c-7.2-4.7-18.2-5.2-32.8,5.5c-29.1,21.3-32.5,51-34,56.5
				c-1.5,5.6-0.9,40.8-0.9,40.8s-0.1,84.9-0.2,94.8c-0.1,9.9-3,21-8.5,32.9c-5.5,12-19.8,26.5-19.8,26.5v17.3
				c2.3,18.7,10.2,23,22,24.1c9.5,0.9,19.7-6,27.8-13.5c-0.3,0.3-0.5,0.5-0.5,0.5v17.3c2.3,18.7,10.2,23,22,24.1
				c11.8,1.1,24.6-9.8,33.3-18.9c8.7-9.2,16-23.1,20-35.8c4.1-12.6,2.7-28.9,2.7-28.9s0.1-92.8,0.2-111.1
				c0.1-18.3,0.7-15.1,6.7-33.5c6-18.4,21.9-31.3,21.9-31.3L396,92.5L344.6,62.9z"/>
			<path class="st1" d="M262.9,361.9c-0.6-0.9-9-6.5-11.1-16.4c-1.2-5.5-1.1-13.8-1.1-13.8s0-4.6,0.1-8.9c0.1-0.1,0.2-0.2,0.3-0.2
				c0-0.6,0-1.1,0-1.7c-0.1,0.1-0.2,0.1-0.2,0.2c0-1,0.1-1.8,0.1-2.6c0.2-4.4-3-13.8-3-13.8s-4.6-12.5-18.3-13
				c-12.2-0.4-25,8.3-27.7,10.3v-5.7c-0.2,0.1-0.4,0.2-0.6,0.4c0-0.8,0-1.5,0.1-2.3c0.1-0.1,0.2-0.2,0.3-0.2c0-0.6,0-1.1,0-1.7
				c-0.1,0.1-0.2,0.1-0.2,0.2c0-1,0.1-1.8,0.1-2.6c0.2-4.4-3-13.8-3-13.8s-4.6-12.5-18.3-13c-12.2-0.4-25,8.3-27.7,10.3v-5.7
				c-0.4,0.3-0.8,0.5-1.2,0.8v9.9c0,12,4,21,11.3,25.5l0,0l0.3,0.1c0.1,0,0.1,0.1,0.2,0.1c0,0,0.1,0,0.1,0.1l50.2,28.9
				c0,0,0,0-0.1-0.1L262.9,361.9z"/>
			<g>
				<path class="st0" d="M189.8,265.3c0,0-0.4-0.2-1-0.5c-0.2-0.1-0.4-0.2-0.6-0.3l-47.7-27.6c0,0-8.8-4.6-19.4-0.7
					c-10.6,3.9-66.2,37.2-66.2,37.2l49.6,28.6l0,0c0,0,0.1,0,0.1,0l49.2,28.4c0,0,27.8-17.2,47.1-28.4l1.2-0.7
					c7.9-4.5,14.1-7.9,16.1-8.4c11.9-3.1,20.1,0.7,22.3,1.9L189.8,265.3z"/>
				<path class="st0" d="M240.6,294.7l0.6,0.3C241.2,295,241,294.9,240.6,294.7z"/>
			</g>
		</g>
		<path class="st1" d="M358.9,102.9L358.9,102.9c2-1.9,11.5-10.3,25.3-12.4c15.6-2.4,22.1,15.9,22.1,15.9s1.8,9.5,1.7,15.1
			c-0.1,5.6-0.5,26-0.5,26L358,119l0,0c-0.2-0.1-0.3-0.3-0.3-0.5V104C358.1,103.6,358.5,103.4,358.9,102.9z"/>
		<g>
			<path class="st2" d="M272.6,364.1c5.5,0,11.5-1.8,17.8-5.4c21.7-12.5,39.4-43.1,39.4-68.2V164.3c0-24.9,17.5-55.2,39.1-67.6
				c10.3-6,20-6.9,27.2-2.8c7.2,4.2,11.2,13,11.2,24.9V147c0,0.3,0.3,0.6,0.6,0.6c0.3,0,0.6-0.3,0.6-0.6v-28.2
				c0-12.4-4.2-21.6-11.8-26c-7.6-4.4-17.7-3.4-28.5,2.8c-21.9,12.6-39.7,43.5-39.7,68.7v126.2c0,24.7-17.4,54.8-38.8,67.1
				c-10.2,5.9-19.8,6.9-27,2.7c-7.2-4.1-11.1-12.9-11.1-24.8v-14.8c0-12.8-4.4-22.4-12.3-26.9c-7.9-4.6-18.4-3.5-29.5,2.9l-56,32.6
				c-0.3,0.2-0.4,0.5-0.2,0.8c0.2,0.3,0.6,0.4,0.8,0.2l56-32.6c10.7-6.2,20.7-7.2,28.2-2.9c7.5,4.3,11.6,13.5,11.6,25.9v14.8
				c0,12.3,4.2,21.5,11.8,25.8C265.2,363.2,268.7,364.1,272.6,364.1z"/>
		</g>
	</g>
	<path class="st7" d="M276.4,195.2l-8.3-4.8c-0.8-0.4-1.4-1.6-1.4-2.7l0,0c0-1,0.6-1.5,1.4-1.1l8.3,4.8c0.8,0.4,1.4,1.6,1.4,2.7l0,0
		C277.8,195.2,277.2,195.6,276.4,195.2z"/>
	<path class="st7" d="M294,205.3l-12.2-7c-0.8-0.4-1.4-1.6-1.4-2.7l0,0c0-1,0.6-1.5,1.4-1.1l12.2,7c0.8,0.4,1.4,1.6,1.4,2.7l0,0
		C295.4,205.3,294.8,205.8,294,205.3z"/>
	<path class="st7" d="M275.5,163.7l-15.8-9.1c-0.8-0.4-1.4-1.6-1.4-2.7l0,0c0-1,0.6-1.5,1.4-1.1l15.8,9.1c0.8,0.4,1.4,1.6,1.4,2.7
		l0,0C276.9,163.6,276.3,164.1,275.5,163.7z"/>
	<path class="st7" d="M265.1,173.2l-5.2-3c-0.8-0.4-1.4-1.6-1.4-2.7l0,0c0-1,0.6-1.5,1.4-1.1l5.2,3c0.8,0.4,1.4,1.6,1.4,2.7l0,0
		C266.5,173.1,265.9,173.6,265.1,173.2z"/>
	<path class="st7" d="M263.5,187.7l-3.3-1.9c-0.8-0.4-1.4-1.6-1.4-2.7l0,0c0-1,0.6-1.5,1.4-1.1l3.3,1.9c0.8,0.4,1.4,1.6,1.4,2.7l0,0
		C264.9,187.7,264.3,188.2,263.5,187.7z"/>
	<path class="st7" d="M284.4,184.3l-13.8-8c-0.8-0.4-1.4-1.6-1.4-2.7l0,0c0-1,0.6-1.5,1.4-1.1l13.8,8c0.8,0.4,1.4,1.6,1.4,2.7l0,0
		C285.7,184.2,285.1,184.7,284.4,184.3z"/>
	<path class="st7" d="M283.9,176.3l-24.1-13.9c-0.8-0.4-1.4-1.6-1.4-2.7l0,0c0-1,0.6-1.5,1.4-1.1l24.1,13.9c0.8,0.4,1.4,1.6,1.4,2.7
		l0,0C285.3,176.2,284.7,176.7,283.9,176.3z"/>
	<path class="st7" d="M273.9,186l-13.8-8c-0.8-0.4-1.4-1.6-1.4-2.7l0,0c0-1,0.6-1.5,1.4-1.1l13.8,8c0.8,0.4,1.4,1.6,1.4,2.7l0,0
		C275.3,185.9,274.7,186.4,273.9,186z"/>
	<path class="st7" d="M294.8,190.3l-5-2.9c-0.8-0.4-1.4-1.6-1.4-2.7l0,0c0-1,0.6-1.5,1.4-1.1l5,2.9c0.8,0.4,1.4,1.6,1.4,2.7l0,0
		C296.2,190.3,295.6,190.8,294.8,190.3z"/>
	<g>
		<path class="st7" d="M280.5,151.1l-8.3-4.8c-0.8-0.4-1.4-1.6-1.4-2.7l0,0c0-1,0.6-1.5,1.4-1.1l8.3,4.8c0.8,0.4,1.4,1.6,1.4,2.7
			l0,0C281.9,151,281.3,151.5,280.5,151.1z"/>
		<path class="st7" d="M300.3,162.4l-12.2-7c-0.8-0.4-1.4-1.6-1.4-2.7l0,0c0-1,0.6-1.5,1.4-1.1l12.2,7c0.8,0.4,1.4,1.6,1.4,2.7l0,0
			C301.6,162.4,301,162.9,300.3,162.4z"/>
		<path class="st7" d="M276.4,195.2l-8.3-4.8c-0.8-0.4-1.4-1.6-1.4-2.7l0,0c0-1,0.6-1.5,1.4-1.1l8.3,4.8c0.8,0.4,1.4,1.6,1.4,2.7
			l0,0C277.8,195.2,277.2,195.6,276.4,195.2z"/>
		<path class="st7" d="M294,205.3l-12.2-7c-0.8-0.4-1.4-1.6-1.4-2.7l0,0c0-1,0.6-1.5,1.4-1.1l12.2,7c0.8,0.4,1.4,1.6,1.4,2.7l0,0
			C295.4,205.3,294.8,205.8,294,205.3z"/>
		<path class="st7" d="M257.8,145.7l-5.2-3c-0.8-0.4-1.4-1.6-1.4-2.7l0,0c0-1,0.6-1.5,1.4-1.1l5.2,3c0.8,0.4,1.4,1.6,1.4,2.7l0,0
			C259.2,145.7,258.6,146.2,257.8,145.7z"/>
		<path class="st7" d="M275.5,163.7l-15.8-9.1c-0.8-0.4-1.4-1.6-1.4-2.7l0,0c0-1,0.6-1.5,1.4-1.1l15.8,9.1c0.8,0.4,1.4,1.6,1.4,2.7
			l0,0C276.9,163.6,276.3,164.1,275.5,163.7z"/>
		<path class="st7" d="M265.1,173.2l-5.2-3c-0.8-0.4-1.4-1.6-1.4-2.7l0,0c0-1,0.6-1.5,1.4-1.1l5.2,3c0.8,0.4,1.4,1.6,1.4,2.7l0,0
			C266.5,173.1,265.9,173.6,265.1,173.2z"/>
		<path class="st7" d="M300.1,224.4l-13.8-8c-0.8-0.4-1.4-1.6-1.4-2.7l0,0c0-1,0.6-1.5,1.4-1.1l13.8,8c0.8,0.4,1.4,1.6,1.4,2.7l0,0
			C301.5,224.3,300.9,224.8,300.1,224.4z"/>
		<path class="st7" d="M263.5,187.7l-3.3-1.9c-0.8-0.4-1.4-1.6-1.4-2.7l0,0c0-1,0.6-1.5,1.4-1.1l3.3,1.9c0.8,0.4,1.4,1.6,1.4,2.7
			l0,0C264.9,187.7,264.3,188.2,263.5,187.7z"/>
		<path class="st7" d="M264.6,203.9l-4.1-2.4c-0.8-0.4-1.4-1.6-1.4-2.7l0,0c0-1,0.6-1.5,1.4-1.1l4.1,2.4c0.8,0.4,1.4,1.6,1.4,2.7
			l0,0C266,203.8,265.3,204.3,264.6,203.9z"/>
		<path class="st7" d="M280.6,213.1l-10.9-6.3c-0.8-0.4-1.4-1.6-1.4-2.7l0,0c0-1,0.6-1.5,1.4-1.1l10.9,6.3c0.8,0.4,1.4,1.6,1.4,2.7
			l0,0C282,213.1,281.4,213.6,280.6,213.1z"/>
		<path class="st7" d="M268.4,213.8l-7.8-4.5c-0.8-0.4-1.4-1.6-1.4-2.7l0,0c0-1,0.6-1.5,1.4-1.1l7.8,4.5c0.8,0.4,1.4,1.6,1.4,2.7
			l0,0C269.8,213.8,269.2,214.3,268.4,213.8z"/>
		<path class="st7" d="M284.4,184.3l-13.8-8c-0.8-0.4-1.4-1.6-1.4-2.7l0,0c0-1,0.6-1.5,1.4-1.1l13.8,8c0.8,0.4,1.4,1.6,1.4,2.7l0,0
			C285.7,184.2,285.1,184.7,284.4,184.3z"/>
		<path class="st7" d="M283.9,176.3l-24.1-13.9c-0.8-0.4-1.4-1.6-1.4-2.7l0,0c0-1,0.6-1.5,1.4-1.1l24.1,13.9
			c0.8,0.4,1.4,1.6,1.4,2.7l0,0C285.3,176.2,284.7,176.7,283.9,176.3z"/>
		<path class="st7" d="M273.9,186l-13.8-8c-0.8-0.4-1.4-1.6-1.4-2.7l0,0c0-1,0.6-1.5,1.4-1.1l13.8,8c0.8,0.4,1.4,1.6,1.4,2.7l0,0
			C275.3,185.9,274.7,186.4,273.9,186z"/>
		<path class="st7" d="M294.8,190.3l-5-2.9c-0.8-0.4-1.4-1.6-1.4-2.7l0,0c0-1,0.6-1.5,1.4-1.1l5,2.9c0.8,0.4,1.4,1.6,1.4,2.7l0,0
			C296.2,190.3,295.6,190.8,294.8,190.3z"/>
		<path class="st7" d="M276.9,203.2l-16.6-9.6c-0.8-0.4-1.4-1.6-1.4-2.7l0,0c0-1,0.6-1.5,1.4-1.1l16.6,9.6c0.8,0.4,1.4,1.6,1.4,2.7
			l0,0C278.3,203.2,277.7,203.7,276.9,203.2z"/>
		<path class="st7" d="M264.7,141.9l-12.2-7c-0.8-0.4-1.4-1.6-1.4-2.7l0,0c0-1,0.6-1.5,1.4-1.1l12.2,7c0.8,0.4,1.4,1.6,1.4,2.7l0,0
			C266.1,141.9,265.5,142.4,264.7,141.9z"/>
		<path class="st7" d="M267.9,221.3l-14.1-8.2c-0.8-0.4-1.4-1.6-1.4-2.7l0,0c0-1,0.6-1.5,1.4-1.1l14.1,8.2c0.8,0.4,1.4,1.6,1.4,2.7
			l0,0C269.3,221.3,268.7,221.7,267.9,221.3z"/>
	</g>
	<path class="st7" d="M274.5,269.5l-8.3-4.8c-0.8-0.4-1.4-1.6-1.4-2.7l0,0c0-1,0.6-1.5,1.4-1.1l8.3,4.8c0.8,0.4,1.4,1.6,1.4,2.7l0,0
		C275.9,269.4,275.3,269.9,274.5,269.5z"/>
	<path class="st7" d="M292.1,279.6l-12.2-7c-0.8-0.4-1.4-1.6-1.4-2.7l0,0c0-1,0.6-1.5,1.4-1.1l12.2,7c0.8,0.4,1.4,1.6,1.4,2.7l0,0
		C293.4,279.6,292.8,280,292.1,279.6z"/>
	<path class="st7" d="M273.5,237.9l-15.8-9.1c-0.8-0.4-1.4-1.6-1.4-2.7l0,0c0-1,0.6-1.5,1.4-1.1l15.8,9.1c0.8,0.4,1.4,1.6,1.4,2.7
		l0,0C274.9,237.9,274.3,238.4,273.5,237.9z"/>
	<path class="st7" d="M263.2,247.4l-5.2-3c-0.8-0.4-1.4-1.6-1.4-2.7v0c0-1,0.6-1.5,1.4-1.1l5.2,3c0.8,0.4,1.4,1.6,1.4,2.7l0,0
		C264.6,247.4,263.9,247.9,263.2,247.4z"/>
	<path class="st7" d="M261.6,262l-3.3-1.9c-0.8-0.4-1.4-1.6-1.4-2.7l0,0c0-1,0.6-1.5,1.4-1.1l3.3,1.9c0.8,0.4,1.4,1.6,1.4,2.7l0,0
		C263,262,262.3,262.4,261.6,262z"/>
	<path class="st7" d="M282.4,258.5l-13.8-8c-0.8-0.4-1.4-1.6-1.4-2.7l0,0c0-1,0.6-1.5,1.4-1.1l13.8,8c0.8,0.4,1.4,1.6,1.4,2.7v0
		C283.8,258.5,283.2,259,282.4,258.5z"/>
	<path class="st7" d="M281.9,250.5l-24.1-13.9c-0.8-0.4-1.4-1.6-1.4-2.7l0,0c0-1,0.6-1.5,1.4-1.1l24.1,13.9c0.8,0.4,1.4,1.6,1.4,2.7
		l0,0C283.3,250.5,282.7,251,281.9,250.5z"/>
	<path class="st7" d="M271.9,260.2l-13.8-8c-0.8-0.4-1.4-1.6-1.4-2.7l0,0c0-1,0.6-1.5,1.4-1.1l13.8,8c0.8,0.4,1.4,1.6,1.4,2.7l0,0
		C273.3,260.2,272.7,260.7,271.9,260.2z"/>
	<path class="st7" d="M292.9,264.6l-5-2.9c-0.8-0.4-1.4-1.6-1.4-2.7l0,0c0-1,0.6-1.5,1.4-1.1l5,2.9c0.8,0.4,1.4,1.6,1.4,2.7l0,0
		C294.3,264.5,293.7,265,292.9,264.6z"/>
</g>
<g>
	<polygon class="st0" points="335,442.3 350.3,433.4 365.7,442.3 350.3,451.1 	"/>
	<polygon class="st0" points="367.5,423.3 382.9,414.4 398.2,423.3 382.9,432.1 	"/>
	<polygon class="st0" points="400,404.7 415.3,395.8 430.6,404.7 415.3,413.5 	"/>
	<g>
		<g>
			<g>
				<polygon class="st4" points="382.9,423.3 382.9,376 367.5,367.2 367.5,414.4 				"/>
				<polygon class="st10" points="382.9,376 398.2,367.2 398.2,414.4 382.9,423.3 				"/>
				<polygon class="st10" points="382.9,423.3 382.9,376 367.5,367.2 367.5,414.4 				"/>
			</g>
			<g>
				<polygon class="st10" points="350.3,442.3 350.3,415.7 335,406.9 335,433.4 				"/>
				<polygon class="st10" points="350.3,415.7 365.7,406.9 365.7,433.4 350.3,442.3 				"/>
				<polygon class="st11" points="335,406.9 350.3,398 365.7,406.9 350.3,415.7 				"/>
			</g>
			<g>
				<polygon class="st10" points="415.3,404.7 415.3,339.8 400,330.9 400,395.8 				"/>
				<polygon class="st10" points="415.3,339.8 430.6,330.9 430.6,395.8 415.3,404.7 				"/>
				<polygon class="st11" points="400,330.9 415.3,322.1 430.6,330.9 415.3,339.8 				"/>
			</g>
		</g>
		<polygon class="st11" points="367.5,367.2 382.9,358.3 398.2,367.2 382.9,376 		"/>
	</g>
</g>
<g>
	<g>
		<g>
			<path class="st7" d="M116.9,353.7c0,0-4.7-2.4-7.6,1.2c-2.9,3.6-7.1,11.9-7.2,17.6c-0.1,5.7,4.5,5.3,7.2,3.9
				c2.7-1.3,10.8-13,11.2-15.2c0.5-2.3-0.6-5.4-1.3-6C118.4,354.7,116.9,353.7,116.9,353.7z"/>
			<path class="st0" d="M117.9,352.6l0.2,4.9c0,1-0.5,2-1.4,2.6c-0.8,0.5-2,0.8-3.7,0.6c-3.6-0.6-3.9-1.6-4.1-6.5
				C108.7,349.2,117.9,352.6,117.9,352.6z"/>
			<g>
				<path class="st7" d="M99.6,344.3c0,0-4.7-2.4-7.6,1.2c-2.9,3.6-7.1,11.9-7.2,17.6c-0.1,5.7,4.5,5.3,7.2,3.9
					c2.7-1.3,10.8-13,11.2-15.2c0.5-2.3-0.6-5.4-1.3-6C101.1,345.2,99.6,344.3,99.6,344.3z"/>
				<path class="st0" d="M100.6,343.2l0.2,4.9c0,1-0.5,2-1.4,2.6c-0.8,0.5-2,0.8-3.7,0.6c-3.6-0.6-3.9-1.6-4.1-6.5
					C91.4,339.8,100.6,343.2,100.6,343.2z"/>
				<path class="st1" d="M142.8,253.2c-1.4-22.8-24.7,3.4-24.7,3.4l-15.9,15.6l-14.3,15.8c-2.8,3.1-4.1,7.2-3.6,11.4l5.8,44.2
					c0.3,2.2,2.2,3.8,4.4,3.8c0.6,0,1.3-0.1,2.2-0.2c5.2-0.8,4.8-5.7,4.8-5.7l-1.1-41.3l30.1-18.2
					C130.5,281.8,144.2,275.9,142.8,253.2z"/>
			</g>
			<path class="st1" d="M160.2,261.8c-1.4-22.8-24.7,3.4-24.7,3.4l-15.9,15.6l-14.3,15.8c-2.8,3.1-4.1,7.2-3.6,11.4l5.8,44.2
				c0.3,2.2,2.2,3.8,4.4,3.8c0.6,0,1.3-0.1,2.2-0.2c5.2-0.8,4.8-5.7,4.8-5.7l-1.1-41.3l30.1-18.2
				C147.8,290.5,161.6,284.6,160.2,261.8z"/>
			<path class="st7" d="M146.4,188.7c17.6,7.3,17.3,17.8,17.3,17.8s-3.5,38.2-2.3,63.8c0.5,10.7-56.7,11.5-48.2-17
				c10.1-33.6,6.3-60.8,11-64.9C128.9,184.2,141.8,186.8,146.4,188.7z"/>
			
				<ellipse transform="matrix(0.2494 -0.9684 0.9684 0.2494 -81.9663 285.5675)" class="st12" cx="143.2" cy="195.7" rx="6.7" ry="9.1"/>
			<path class="st9" d="M144.5,203.4c-1,0-2.1-0.1-3.2-0.4c-2.5-0.6-4.7-2-6.2-3.8c-1.5-1.9-2.1-4-1.6-6c1-4,6.2-6.2,11.5-4.8
				c2.5,0.6,4.7,2,6.2,3.8c1.5,1.9,2.1,4,1.6,6l0,0C152,201.4,148.6,203.4,144.5,203.4z M141.9,189.6c-3.3,0-6,1.5-6.6,4
				c-0.4,1.5,0.1,3.1,1.2,4.5c1.2,1.5,3.1,2.7,5.3,3.2c4.4,1.1,8.7-0.5,9.5-3.6l0,0c0.4-1.5-0.1-3.1-1.2-4.5
				c-1.2-1.5-3.1-2.7-5.3-3.2C143.7,189.7,142.8,189.6,141.9,189.6z"/>
			<path class="st12" d="M139.3,187.9c0,0,0.2,0.7-0.2,6.3c-0.1,1.8,6.1,3.4,7.7,1.8c1.6-1.6,1-3.2,1.3-9.2
				C148.5,180.8,139.3,187.9,139.3,187.9z"/>
			<path class="st13" d="M148.1,186.8c0,0-1.5,5.5-9,7.7l0.1-5L148.1,186.8z"/>
			
				<ellipse transform="matrix(0.9682 -0.2503 0.2503 0.9682 -39.6245 40.5786)" class="st12" cx="139.7" cy="176.1" rx="13.6" ry="13.6"/>
			<path class="st13" d="M142.8,176.6c0,0-7.5,3.2-12.7,3.2c-5.2,0-4-4.3-4-4.3l15.4-2.2L142.8,176.6z"/>
			<path class="st11" d="M128.6,177.4c0,0,6.5-2.8,12.2-1.6c1.3,0.3,2.6,1,3.5,2.1c0.3,0.3,0.6,0.7,1,0.8c1,0.2,2.7-4,4.6-4.1
				c2-0.1,3.3,1.3,1.7,3.9c-1.6,2.6-1.1,5.5-0.3,5.9c0.7,0.4,8.6-5.6,1.7-19.4c-7-13.8-24.6-6.4-27.4-3.6c0,0-2.9,2.5-5.2,0.3
				C120.4,161.6,117.8,181.4,128.6,177.4z"/>
			<path class="st12" d="M153.8,234.4v10.3c0,1.2-0.5,2.3-1.4,3.1l-21.2,19.4l2.4,3.7l28-20.3c1.3-0.9,2.2-2.4,2.3-4l1.9-18
				L153.8,234.4z"/>
			<path class="st7" d="M162.2,201.3c0,0,6.4,9.7,8.8,35.2c0,0-11,3.6-17.2,1.5C147.5,236,162.2,201.3,162.2,201.3z"/>
			<path class="st2" d="M152.6,213.5c0,0-2.5,13.5-2.7,19.8c0,1.7,1,3.3,2.7,3.9l0,0V213.5z"/>
		</g>
		<g>
			<path class="st7" d="M147.1,280.6l-4.7-0.6l-30.3-17.5c-1-0.6-2.7-0.5-3.8,0.2l-21.5,12.4l-2.8-0.4v2.8l0,0c0,0.4,0.2,0.7,0.7,1
				l34.3,19.8c1,0.6,2.7,0.5,3.8-0.2l23.4-13.5c0.6-0.4,0.9-0.8,0.9-1.3l0,0V280.6z"/>
			<path class="st2" d="M124.3,269.6l-2.2-1.2H98.5l-11.7,6.7l-2.8-0.4v2.8l0,0c0,0.4,0.2,0.7,0.7,1l34.3,19.8
				c0.5,0.3,1.2,0.4,2,0.4L124.3,269.6z"/>
			<path class="st7" d="M85.3,274.8l-1.3-0.2v2.8l0,0c0,0.4,0.2,0.7,0.7,1l0.6,0.3V274.8z"/>
			<path class="st9" d="M119.3,298.5c0.9,0.3,2.2,0.3,3.2-0.2v-4.8h-3.2V298.5z"/>
			<path class="st9" d="M119,295.5l-34.3-19.8c-1-0.6-0.8-1.5,0.3-2.2l23.4-13.5c1.1-0.6,2.8-0.7,3.8-0.2l34.3,19.8
				c1,0.6,0.8,1.5-0.3,2.2l-23.4,13.5C121.7,296,120,296.1,119,295.5z"/>
			<path class="st0" d="M118.4,292.5L89.9,276c-0.8-0.5-0.7-1.3,0.2-1.8l12.5-7c0.9-0.5,2.3-0.6,3.2-0.1l28.5,16.5
				c0.8,0.5,0.7,1.3-0.2,1.8l-12.5,7C120.6,292.9,119.2,293,118.4,292.5z"/>
		</g>
		<path class="st12" d="M109.6,259.3l-0.4,2.4c-0.3,2-0.3,4.1,0.2,6.1l0.4,2.1c0.2,1.2,1.2,2.1,2.4,2.3l0,0c0.9,0.2,1.8-0.5,1.9-1.4
			l0.6-5.1c0,0,1.3,1.7,1.9,1.7c0.6,0-0.7-5.1-2.1-7.9C113.1,256.6,109.6,259.3,109.6,259.3z"/>
		<path class="st12" d="M121.3,221.7l-3.7,7.3c-0.9,1.7-1.4,3.6-1.5,5.5l-1.6,24.9l-4.8-0.1l-2.2-28c-0.1-0.9,0-1.7,0.1-2.6
			l2.5-14.2L121.3,221.7z"/>
		<g>
			<path class="st1" d="M117.8,297.4l-2.9-3.8l-30.3-17.5c-1-0.6-1.8-2.1-1.8-3.4l0-24.8l-1.7-2.3l1.6-0.9l0,0
				c0.3-0.2,0.7-0.2,1.2,0.1l34.3,19.9c1,0.6,1.8,2.1,1.8,3.4l0,27c0,0.7-0.3,1.2-0.6,1.4l0,0L117.8,297.4z"/>
			<path class="st2" d="M96.9,283.2l-2.2-1.2l-11.8-20.5l0-13.5l-1.7-2.3l1.6-0.9l0,0c0.3-0.2,0.7-0.2,1.2,0.1l34.3,19.9
				c0.5,0.3,1,0.9,1.3,1.5L96.9,283.2z"/>
			<path class="st7" d="M82,246.7l-0.8-1l1.6-0.9l0,0c0.3-0.2,0.7-0.2,1.2,0.1l0.6,0.4L82,246.7z"/>
			<path class="st8" d="M118.7,264.9c0.8,0.6,1.4,1.8,1.4,2.9l-3.4,1.9l-1.6-2.8L118.7,264.9z"/>
			<path class="st7" d="M116.7,265.6l-34.3-19.9c-1-0.6-1.8,0-1.8,1.3l0,27c0,1.3,0.8,2.8,1.8,3.4l34.3,19.9c1,0.6,1.8,0,1.8-1.3
				l0-27C118.5,267.7,117.7,266.2,116.7,265.6z"/>
		</g>
		<path class="st12" d="M133.6,270.9L133,272c-0.6,1.3-1.6,2.4-2.9,3.2l-3.4,2.1c-1.1,0.7-2.4,0.7-3.5,0.1c0,0-0.1,0-0.1-0.1
			c-1.1-0.7-1.2-2.2-0.3-3.1l3.6-3.7c0,0-2,1.5-2.6,0.9c-0.4-0.5,1.9-2.7,3.7-2.7c1.8-0.1,3.6-1.5,3.6-1.5L133.6,270.9z"/>
		<path class="st7" d="M124.6,188.3c0,0-13.1,14.2-18.3,27.2c0,0,4.5,8,15.4,11.2C132.5,229.9,124.6,188.3,124.6,188.3z"/>
		<path class="st2" d="M119.2,225.9l2.1-20.4l-5,19.1C117.2,225.1,118.1,225.5,119.2,225.9z"/>
		<path class="st9" d="M134.3,185.4l-3.5-1c0,0,1.7,2.6,4.1,3.3c2.4,0.7,2.8-1.4,2.8-1.4L134.3,185.4z"/>
	</g>
	<circle class="st9" cx="151.1" cy="179.8" r="2"/>
</g>
<path class="st11" d="M444.7,187.3l-5.9-12l12-5.9l5.9,12L444.7,187.3z M442.4,176.5l3.5,7.2l7.2-3.5l-3.5-7.2L442.4,176.5z"/>
<g>
	<path class="st0" d="M192.3,415.3c-13.1-7.5-34.3-7.5-47.3,0c-13.1,7.5-13.1,19.8,0,27.3c13.1,7.5,34.3,7.5,47.3,0
		C205.3,435.1,205.3,422.8,192.3,415.3z M179.5,435.2c-6,3.5-15.7,3.5-21.8,0c-6-3.5-6-9.1,0-12.6c6-3.5,15.7-3.5,21.8,0
		C185.5,426.1,185.5,431.7,179.5,435.2z"/>
	<g>
		<g>
			<path class="st14" d="M140,410.8L152,411c0.9-1.1,2.1-2.2,3.8-3.2c6.6-3.8,16.9-4.1,24-0.9l7.1-6.7l10.9,0.2
				c-0.5-0.4-1.1-0.7-1.7-1c-15.2-8.8-39.8-8.8-55,0c-2.8,1.6-5.1,3.4-6.8,5.3L140,410.8z"/>
			<polygon class="st10" points="197.8,383.1 197.8,400.4 186.9,400.3 186.9,382.9 			"/>
			<polygon class="st14" points="179.8,389.6 179.8,406.9 186.9,400.3 186.9,382.9 			"/>
			<path class="st14" d="M152,393.7V411l15.7-12.8l12.1,8.7v-17.3l-11.1-5.4c0,0-15.3,4.7-16.1,4.9C151.7,389.3,152,393.7,152,393.7
				z"/>
			<polygon class="st14" points="140,393.5 140,410.8 152,411 152,393.7 			"/>
			<polygon class="st10" points="134.3,387.4 134.3,404.7 140,410.8 140,393.5 			"/>
			<path class="st11" d="M140,393.5l11.9,0.2c0.9-1.1,2.1-2.2,3.8-3.2c6.6-3.8,16.9-4.1,24-0.9l7.1-6.7l10.9,0.2
				c-0.5-0.4-1.1-0.7-1.7-1c-15.2-8.8-39.8-8.8-55,0c-2.8,1.6-5.1,3.4-6.8,5.3L140,393.5z"/>
		</g>
		<g>
			<path class="st7" d="M183.4,391.7v15.9l10.3-2.5c0,0-0.6-9.3-0.8-9.6C192.6,395.4,183.4,391.7,183.4,391.7z"/>
			<g>
				<path class="st1" d="M175.5,407.7V425l1.1,1.2l7.3-4.2c0,0-1.1-13.2-1.3-13.5C182.5,408.2,175.5,407.7,175.5,407.7z"/>
				<path class="st2" d="M189.6,403.2l-6.2,5.9c5.2,4.1,4.6,9.9-1.8,13.6c-1.8,1-3.8,1.8-6,2.3l6.5,6.9l-5.7,5.4
					c7.3-0.8,14.2-2.9,19.8-6.1c13-7.5,14.9-19.1,5.5-27.7L189.6,403.2z"/>
				<polygon class="st2" points="176.3,419.9 176.3,437.3 190.4,431.8 207.5,415.5 207.4,397.1 189.4,411.4 				"/>
				<path class="st0" d="M189.6,385.9l-6.2,5.9c5.2,4.1,4.6,9.9-1.8,13.6c-1.8,1-3.8,1.8-6,2.3l6.5,6.9l-5.7,5.4
					c7.3-0.8,14.2-2.9,19.8-6.1c13-7.5,14.9-19.1,5.5-27.7L189.6,385.9z"/>
			</g>
		</g>
		<g>
			<path class="st2" d="M176.2,431.8l-5.7-6.1c-5.3,0.3-10.8-0.7-14.8-3c-4.2-2.4-5.9-5.7-5.2-8.9l-13.6-0.2l-5.2-5.6
				c-4.6,7.8-1.4,16.8,9.3,23c7.9,4.6,18.4,6.8,28.8,6.6L176.2,431.8z"/>
			<polygon class="st2" points="170,420.4 170,437.7 129.8,415.4 129.8,398.1 135.6,400.4 			"/>
			<polygon class="st1" points="176.2,414.5 176.2,431.8 170,437.7 170,420.4 			"/>
			<path class="st7" d="M176.2,414.5l-5.7-6.1c-5.3,0.3-10.8-0.7-14.8-3c-4.2-2.4-5.9-5.7-5.2-8.9l-13.6-0.2l-5.2-5.6
				c-4.6,7.8-1.4,16.8,9.3,23c7.9,4.6,18.4,6.8,28.8,6.6L176.2,414.5z"/>
		</g>
	</g>
</g>
<path class="st7" d="M86.1,134.9c-4.8,0-8.7-3.9-8.7-8.7s3.9-8.7,8.7-8.7c4.8,0,8.7,3.9,8.7,8.7S90.9,134.9,86.1,134.9z M86.1,120.2
	c-3.3,0-6,2.7-6,6c0,3.3,2.7,6,6,6c3.3,0,6-2.7,6-6C92.1,122.9,89.4,120.2,86.1,120.2z"/>
<circle class="st0" cx="58.7" cy="405.6" r="6.3"/>
<circle class="st0" cx="379.2" cy="45.6" r="7.5"/>
<g>
	<g>
		<path class="st10" d="M346.1,123.2l-35.7-20.6c-0.7-0.4-1.3-0.4-1.8-0.1c0,0,0,0,0,0l-3.5,2c0,0,1.5,0.6,2.4,0.9v26
			c0,2.1,1.3,4.6,2.9,5.5l34.1,19.7v3l3.5-2l0,0c0.6-0.4,1-1.2,1-2.3v-26.5C349,126.6,347.7,124.1,346.1,123.2z"/>
		<path class="st11" d="M342.6,159.4L307,138.8c-1.6-0.9-2.9-3.4-2.9-5.5v-26.5c0-2.1,1.3-3.1,2.9-2.2l35.7,20.6
			c1.6,0.9,2.9,3.4,2.9,5.5v26.5C345.5,159.3,344.2,160.3,342.6,159.4z"/>
	</g>
	<g>
		<path class="st9" d="M319,129.7c0,1.5-1.1,2.2-2.4,1.4c-1.3-0.8-2.4-2.6-2.4-4.2c0-1.5,1.1-2.2,2.4-1.4
			C317.9,126.3,319,128.1,319,129.7z"/>
		<path class="st9" d="M326.2,133.9c0,1.5-1.1,2.2-2.4,1.4c-1.3-0.8-2.4-2.6-2.4-4.2s1.1-2.2,2.4-1.4
			C325.2,130.5,326.2,132.3,326.2,133.9z"/>
		<path class="st9" d="M333.5,138.1c0,1.5-1.1,2.2-2.4,1.4c-1.3-0.8-2.4-2.6-2.4-4.2c0-1.5,1.1-2.2,2.4-1.4
			C332.5,134.7,333.5,136.5,333.5,138.1z"/>
	</g>
</g>
<g>
	<g>
		<path class="st7" d="M172.8,82.7l-35-20.2c-0.7-0.4-1.3-0.4-1.8-0.1c0,0,0,0,0,0l-3.4,2c0,0,1.5,0.5,2.4,0.9v25.5
			c0,2.1,1.3,4.5,2.8,5.4l33.4,19.3v3l3.4-2l0,0c0.6-0.4,1-1.1,1-2.2v-26C175.6,86,174.3,83.6,172.8,82.7z"/>
		<path class="st0" d="M169.3,118.2l-35-20.2c-1.6-0.9-2.8-3.3-2.8-5.4v-26c0-2.1,1.3-3,2.8-2.1l35,20.2c1.6,0.9,2.8,3.3,2.8,5.4v26
			C172.1,118.1,170.9,119.1,169.3,118.2z"/>
	</g>
	<g>
		<path class="st9" d="M146.1,89c0,1.5-1.1,2.1-2.4,1.4c-1.3-0.8-2.4-2.6-2.4-4.1c0-1.5,1.1-2.1,2.4-1.4
			C145,85.7,146.1,87.5,146.1,89z"/>
		<path class="st9" d="M153.2,93.2c0,1.5-1.1,2.1-2.4,1.4c-1.3-0.8-2.4-2.6-2.4-4.1c0-1.5,1.1-2.1,2.4-1.4
			C152.2,89.8,153.2,91.7,153.2,93.2z"/>
		<path class="st9" d="M160.4,97.3c0,1.5-1.1,2.1-2.4,1.4c-1.3-0.8-2.4-2.6-2.4-4.1c0-1.5,1.1-2.1,2.4-1.4
			C159.3,94,160.4,95.8,160.4,97.3z"/>
	</g>
</g>
</svg>
