<svg xmlns="http://www.w3.org/2000/svg" xmlns:xlink="http://www.w3.org/1999/xlink" viewBox="0 0 261.95 249.2"><defs><style>.cls-1{fill:none;}.cls-2{fill:#272727;}.cls-22,.cls-3{opacity:0.5;}.cls-4,.cls-48{fill:#b29000;}.cls-5{fill:#ffde3b;}.cls-6{fill:#359eff;}.cls-7{fill:#f8f5f4;}.cls-8{fill:#ccc;opacity:0.6;}.cls-18,.cls-47,.cls-50,.cls-9{fill:#edcd00;}.cls-10{fill:#2d2b29;}.cls-11{fill:#b7bbbc;}.cls-12{fill:#cfd2d3;}.cls-13,.cls-17{fill:#bdb6c6;}.cls-14{fill:#e9e6e6;}.cls-15{fill:#e1e9f4;}.cls-16{fill:#aca5b7;}.cls-16,.cls-52{opacity:0.3;}.cls-16,.cls-17,.cls-18,.cls-22,.cls-24,.cls-47,.cls-48{isolation:isolate;}.cls-17{opacity:0.6;}.cls-18,.cls-24{opacity:0.7;}.cls-19{fill:#312f2c;}.cls-20{fill:#393532;}.cls-21,.cls-22{fill:#a1a81b;}.cls-23{fill:#252321;}.cls-24{fill:#679926;}.cls-25{fill:#717f89;}.cls-26{fill:#92a3ad;}.cls-27{fill:#db7521;}.cls-28{fill:url(#Gradiente_sem_nome);}.cls-29{fill:#ee9b1e;}.cls-30{fill:#683426;}.cls-31{fill:#f7b425;}.cls-32{fill:#7a3e2b;}.cls-33{fill:#ffc343;}.cls-34{fill:#8c4b34;}.cls-35{fill:url(#Gradiente_sem_nome_2);}.cls-36{clip-path:url(#clip-path);}.cls-37{fill:#fff0e5;}.cls-38{fill:#bcbcbc;}.cls-39{fill:url(#Gradiente_sem_nome_3);}.cls-40{fill:#e6e4e2;}.cls-41{fill:#737271;}.cls-42{fill:#2d3133;}.cls-43{fill:#e4e6e6;}.cls-44{fill:#b3b5b5;}.cls-45{fill:url(#Gradiente_sem_nome_4);}.cls-46{fill:#cbcdcd;}.cls-47,.cls-48{opacity:0.4;}.cls-49{opacity:0.1;}.cls-50{stroke:#fff;stroke-miterlimit:10;stroke-width:0.2px;}.cls-51{fill:#fff;}.cls-53{fill:#263238;}.cls-54{fill:#455a64;}.cls-55{opacity:0.2;}</style><linearGradient id="Gradiente_sem_nome" x1="-7260.88" y1="-1033.31" x2="-7260.88" y2="-1032.73" gradientTransform="matrix(-0.71, -0.71, -0.71, 0.71, -5751.36, -4150.44)" gradientUnits="userSpaceOnUse"><stop offset="0.25" stop-color="#3b3b3b"/><stop offset="0.43" stop-color="#636363"/><stop offset="0.58" stop-color="#545454"/><stop offset="0.73" stop-color="#3b3b3b"/></linearGradient><linearGradient id="Gradiente_sem_nome_2" x1="-7107.85" y1="1893.3" x2="-7106.62" y2="1895.07" gradientTransform="matrix(-1, 0, 0, 1, -6992.18, -1650)" gradientUnits="userSpaceOnUse"><stop offset="0" stop-color="#f5dfc1"/><stop offset="0.26" stop-color="#f4debf"/><stop offset="0.35" stop-color="#f1d9b8"/><stop offset="0.42" stop-color="#ecd1ad"/><stop offset="0.43" stop-color="#eacfa9"/><stop offset="0.52" stop-color="#e6c69e"/><stop offset="0.83" stop-color="#dbad80"/><stop offset="1" stop-color="#d7a474"/></linearGradient><clipPath id="clip-path"><path class="cls-1" d="M113.74,242.09a3,3,0,0,1,1.32.65l4.56,4.11-.66.38-7.07-2.58c-.28-.2-.71-.38-.79-.63l-1-2.06.32-.19Z"/></clipPath><linearGradient id="Gradiente_sem_nome_3" x1="-7082.69" y1="1876.53" x2="-7080.22" y2="1880.81" gradientTransform="matrix(-1, 0, 0, 1, -7010.09, -1650)" gradientUnits="userSpaceOnUse"><stop offset="0" stop-color="#312f2c"/><stop offset="0.06" stop-color="#33312e"/><stop offset="0.34" stop-color="#393532"/><stop offset="0.55" stop-color="#312e2c"/><stop offset="0.75" stop-color="#252321"/></linearGradient><linearGradient id="Gradiente_sem_nome_4" x1="-6365.36" y1="1869.44" x2="-6352.16" y2="1869.44" gradientTransform="matrix(-1, 0, 0, 1, -6299.37, -1650)" gradientUnits="userSpaceOnUse"><stop offset="0" stop-color="#eef1f1"/><stop offset="1" stop-color="#f6f7f3"/></linearGradient></defs><g id="Camada_2" data-name="Camada 2"><g id="Camada_1-2" data-name="Camada 1"><g id="Camada_2-2" data-name="Camada 2"><g id="Camada_1-2-2" data-name="Camada 1-2"><g id="Camada_2-2-2" data-name="Camada 2-2"><g id="Camada_1-2-2-2" data-name="Camada 1-2-2"><g id="Camada_2-2-2-2" data-name="Camada 2-2-2"><g id="Camada_1-2-2-2-2" data-name="Camada 1-2-2-2"><g id="Camada_2-2-2-2-2" data-name="Camada 2-2-2-2"><g id="_0" data-name=" 0"><g id="_1" data-name=" 1"><path class="cls-2" d="M131.2,67.32a.47.47,0,0,0-.24.38V69l-16.25,9.38v-1.3c0-.13-.11-.18-.24-.1a.52.52,0,0,0-.24.38v1.3L98,88V86.7c0-.13-.1-.18-.24-.1a.47.47,0,0,0-.24.38v1.3L81.25,97.7V96.4c0-.13-.1-.18-.23-.1a.44.44,0,0,0-.24.37V98l-16.25,9.38v-1.3c0-.13-.11-.17-.24-.1a.52.52,0,0,0-.24.38v1.3L47.8,117v-1.3c0-.13-.11-.17-.24-.1a.52.52,0,0,0-.24.38v1.3l-14,8.07-2.27,1.31V114.84l1.46-.84a.52.52,0,0,0,.24-.38c0-.13-.11-.18-.24-.1l-1.46.84V102.52l1.46-.84a.52.52,0,0,0,.24-.37c0-.14-.11-.18-.24-.1l-1.46.84V90.21l1.46-.84a.52.52,0,0,0,.24-.37c0-.14-.11-.18-.24-.11l-1.46.84V77.9l1.46-.84a.52.52,0,0,0,.24-.38c0-.13-.11-.17-.24-.1l-1.46.84V65.59l1.46-.84a.52.52,0,0,0,.24-.38c0-.13-.11-.18-.24-.1L29.2,66.19a.46.46,0,0,0-.23.38c0,.13.1.17.23.1l1.39-.8V77.7l-1.39.8a.48.48,0,0,0-.23.38c0,.13.1.18.23.1l1.39-.8V90l-1.39.8a.48.48,0,0,0-.23.38c0,.13.1.18.23.1l1.39-.8v11.83l-1.39.8a.48.48,0,0,0-.23.38c0,.13.1.18.23.1l1.39-.8v11.83l-1.39.81a.48.48,0,0,0-.23.37c0,.14.1.18.23.11l1.39-.81v12.08c0,.13.11.17.24.1l2.51-1.45,14-8.07v1.37c0,.13.11.18.24.1a.47.47,0,0,0,.24-.38v-1.37l16.25-9.38v1.37c0,.14.11.18.24.11a.52.52,0,0,0,.24-.38v-1.38L80.8,98.44v1.38c0,.13.1.17.24.1a.48.48,0,0,0,.23-.38V98.18L97.5,88.8v1.37c0,.13.11.18.24.1a.47.47,0,0,0,.24-.38V88.52l16.25-9.38v1.37c0,.13.11.18.24.1a.47.47,0,0,0,.24-.38V78.86L131,69.48v1.37c0,.14.1.18.24.1a.52.52,0,0,0,.24-.37V67.42a.18.18,0,0,0-.22-.13h0Z"/><path class="cls-2" d="M26.85,130.4a1.5,1.5,0,0,1-.09.42,1.11,1.11,0,0,1-.2.37,1.07,1.07,0,0,1-.39.34.6.6,0,0,1-.39.11.25.25,0,0,1-.2-.14.62.62,0,0,1-.09-.32v-2a1.58,1.58,0,0,1,.09-.42,1.11,1.11,0,0,1,.2-.37,1.16,1.16,0,0,1,.39-.34.6.6,0,0,1,.39-.11.25.25,0,0,1,.2.14.62.62,0,0,1,.09.32Zm-.51-1.75c0-.09,0-.14-.07-.17a.09.09,0,0,0-.1,0,.32.32,0,0,0-.15.21v2.14a.2.2,0,0,0,.07.18.17.17,0,0,0,.1,0,.3.3,0,0,0,.15-.21.33.33,0,0,0,0-.14Z"/><path class="cls-2" d="M26.37,117.43c0-.14-.05-.22-.16-.16a.49.49,0,0,0-.14.18.59.59,0,0,0-.05.19l-.43.25v-1.82l1.23-.71v.5l-.79.46V117a1.24,1.24,0,0,1,.18-.22l.11-.07c.26-.15.4-.08.48,0a.85.85,0,0,1,.08.35v.77a1.7,1.7,0,0,1-.1.63,1.27,1.27,0,0,1-.56.65c-.32.19-.48.13-.56,0a1.39,1.39,0,0,1-.1-.64l.5-.29v.14a1,1,0,0,0,0,.34q0,.09.12,0a.28.28,0,0,0,.12-.16,2.54,2.54,0,0,0,0-.39Z"/><path class="cls-2" d="M24.31,105.25v-.33a1.66,1.66,0,0,0,.42-.49,1.34,1.34,0,0,0,.12-.24l.3-.18v3.45l-.51.3v-2.71Z"/><path class="cls-2" d="M26.85,105.77a1.27,1.27,0,0,1-.09.43,1.11,1.11,0,0,1-.2.37,1.16,1.16,0,0,1-.39.34.6.6,0,0,1-.39.11.25.25,0,0,1-.2-.14.63.63,0,0,1-.09-.33v-2a1.58,1.58,0,0,1,.09-.42,1.11,1.11,0,0,1,.2-.37,1.44,1.44,0,0,1,.39-.35.59.59,0,0,1,.39-.1.25.25,0,0,1,.2.14.62.62,0,0,1,.09.32ZM26.34,104c0-.09,0-.15-.07-.18a.09.09,0,0,0-.1,0A.3.3,0,0,0,26,104v2.14a.2.2,0,0,0,.07.18.17.17,0,0,0,.1,0,.31.31,0,0,0,.15-.22.29.29,0,0,0,0-.13Z"/><path class="cls-2" d="M24.35,92.91v-.33a1.69,1.69,0,0,0,.43-.49,2.56,2.56,0,0,0,.11-.24l.31-.18v3.45l-.51.3V92.71Z"/><path class="cls-2" d="M26.37,92.81c0-.15-.05-.22-.16-.16a.39.39,0,0,0-.14.17A1.34,1.34,0,0,0,26,93l-.43.24v-1.8l1.23-.7v.5l-.79.45v.72a.91.91,0,0,1,.18-.21.41.41,0,0,1,.11-.07c.26-.15.4-.09.48,0a.85.85,0,0,1,.08.35v.77a1.65,1.65,0,0,1-.1.62,1.3,1.3,0,0,1-.56.66c-.32.18-.48.13-.56,0a1.37,1.37,0,0,1-.1-.63l.5-.29v.13a1,1,0,0,0,0,.35h.12a.3.3,0,0,0,.12-.17,2.41,2.41,0,0,0,0-.38Z"/><path class="cls-2" d="M23.8,81.26V81a1.68,1.68,0,0,1,.13-.7,1.29,1.29,0,0,1,.55-.58c.26-.15.43-.15.53-.06a.67.67,0,0,1,.14.53,4.73,4.73,0,0,1-.29,1.33,11.23,11.23,0,0,1-.5,1.25l.8-.46v.5l-1.37.8V83.1c.15-.33.29-.65.42-1a8.51,8.51,0,0,0,.29-.85,3.39,3.39,0,0,0,.15-.77,1.13,1.13,0,0,0,0-.26c0-.07-.07-.11-.14-.06a.35.35,0,0,0-.14.2,1.71,1.71,0,0,0,0,.32V81Z"/><path class="cls-2" d="M26.85,81.15a1.22,1.22,0,0,1-.09.42,1.11,1.11,0,0,1-.2.37,1.44,1.44,0,0,1-.39.35.6.6,0,0,1-.39.11.29.29,0,0,1-.2-.14.63.63,0,0,1-.09-.33v-2a1.5,1.5,0,0,1,.09-.42,1.07,1.07,0,0,1,.2-.38,1.41,1.41,0,0,1,.39-.34.6.6,0,0,1,.39-.11.29.29,0,0,1,.2.14.63.63,0,0,1,.09.33Zm-.51-1.74c0-.1,0-.15-.07-.18a.17.17,0,0,0-.1,0,.34.34,0,0,0-.15.22v2.13c0,.1,0,.15.07.17a.09.09,0,0,0,.1,0,.3.3,0,0,0,.15-.21.33.33,0,0,0,0-.14Z"/><path class="cls-2" d="M23.85,68.92v-.24A1.6,1.6,0,0,1,24,68a1.29,1.29,0,0,1,.55-.58c.25-.15.43-.15.53-.06a.76.76,0,0,1,.14.53,4.73,4.73,0,0,1-.29,1.33,11.23,11.23,0,0,1-.5,1.25l.8-.46v.5l-1.38.8V70.8c.16-.33.3-.65.43-1a8.51,8.51,0,0,0,.29-.85,2.9,2.9,0,0,0,.14-.77,1.13,1.13,0,0,0,0-.26c0-.07-.07-.11-.14-.06a.25.25,0,0,0-.14.2,1.71,1.71,0,0,0,0,.32v.24Z"/><path class="cls-2" d="M26.37,68.18c0-.14-.05-.22-.16-.16a.54.54,0,0,0-.19.37l-.43.25V66.82l1.23-.71v.5l-.79.46v.72a.91.91,0,0,1,.18-.21l.11-.08c.26-.15.4-.08.48,0a.85.85,0,0,1,.08.35v.77a1.7,1.7,0,0,1-.1.63,1.3,1.3,0,0,1-.56.66c-.32.18-.48.12-.56,0a1.37,1.37,0,0,1-.1-.63l.5-.3v.14a1,1,0,0,0,0,.34q0,.09.12,0a.28.28,0,0,0,.12-.16,2.54,2.54,0,0,0,0-.39Z"/><g class="cls-3"><path class="cls-2" d="M39.2,120a.21.21,0,0,1-.11,0c-.12,0-.17-.1-.11-.25l16.73-44.1a.46.46,0,0,1,.32-.3c.12,0,.17.1.11.26L39.41,119.74A.49.49,0,0,1,39.2,120Z"/><path class="cls-2" d="M72.65,95.76h-.21L55.72,75.86c-.07-.07,0-.24.09-.37s.26-.18.32-.1L72.86,95.28c.07.08,0,.25-.09.38Z"/><path class="cls-2" d="M72.65,95.76h-.2a1,1,0,0,1,.08-.38L89.26,75.87c.11-.13.26-.18.33-.1s0,.24-.09.38L72.77,95.65A.43.43,0,0,1,72.65,95.76Z"/><path class="cls-2" d="M89.38,76.25a.24.24,0,0,1-.12,0c-.11,0-.16-.12-.09-.28L105.9,36.8a.42.42,0,0,1,.32-.27c.12,0,.16.12.09.27L89.59,76A.64.64,0,0,1,89.38,76.25Z"/><path class="cls-2" d="M106.11,37a.19.19,0,0,1-.18,0c-.09,0-.08-.21,0-.36l16.73-24.43c.1-.14.25-.22.33-.17s.08.2,0,.35l-16.73,24.5A.33.33,0,0,1,106.11,37Z"/><path class="cls-2" d="M39.2,112.61a.19.19,0,0,1-.18,0c-.09,0-.08-.2,0-.35L55.77,87.85c.1-.15.25-.22.33-.18s.08.21,0,.36L39.36,112.46A.75.75,0,0,1,39.2,112.61Z"/><path class="cls-2" d="M55.92,88.18h-.13c-.11,0-.14-.14-.06-.29L72.45,53.64a.44.44,0,0,1,.34-.26c.11,0,.13.14.06.3L56.12,88A.49.49,0,0,1,55.92,88.18Z"/><path class="cls-2" d="M89.38,61.47a.15.15,0,0,1-.16,0L72.89,53.93c-.09,0-.09-.19,0-.34s.25-.23.34-.19L89.55,61c.09,0,.09.19,0,.34A.7.7,0,0,1,89.38,61.47Z"/><path class="cls-2" d="M106.11,56.74H106L89.31,61.5c-.13,0-.2,0-.16-.2a.47.47,0,0,1,.3-.33l16.72-4.74c.13,0,.2.06.17.21A.57.57,0,0,1,106.11,56.74Z"/><path class="cls-2" d="M122.83,66.78a.19.19,0,0,1-.18,0l-16.73-10c-.08,0-.07-.21,0-.35s.25-.22.34-.17l16.73,10c.08.06.07.21,0,.36A.61.61,0,0,1,122.83,66.78Z"/><path class="cls-4" d="M39.2,108.13a.31.31,0,0,1-.23,0,.41.41,0,0,1,.15-.39l16.73-15c.13-.12.26-.13.3,0a.44.44,0,0,1-.15.39l-16.73,15Z"/><path class="cls-4" d="M55.92,93.1a.19.19,0,0,1-.15,0c-.1,0-.11-.17,0-.32l16.7-29.32a.4.4,0,0,1,.34-.23c.1,0,.11.17,0,.33L56.11,92.91A.58.58,0,0,1,55.92,93.1Z"/><path class="cls-4" d="M72.65,63.74a.19.19,0,0,1-.15,0c-.1,0-.12-.17,0-.32L89.2,34.1c.08-.15.23-.25.33-.22s.12.17,0,.32L72.83,63.56A.39.39,0,0,1,72.65,63.74Z"/><path class="cls-4" d="M106.11,74c-.1.06-.2,0-.23,0L89.15,34.36A.41.41,0,0,1,89.3,34c.13-.12.26-.13.31,0l16.72,39.59a.39.39,0,0,1-.15.39Z"/><path class="cls-4" d="M122.83,71.71a.14.14,0,0,1-.09,0L106,74c-.12,0-.18-.09-.12-.24a.48.48,0,0,1,.31-.31l16.73-2.27c.12,0,.18.1.12.25A.46.46,0,0,1,122.83,71.71Z"/><path class="cls-5" d="M39.2,102.76h-.11c-.12,0-.17-.12-.11-.27L55.71,60.86a.5.5,0,0,1,.33-.29c.11,0,.16.12.1.27L39.41,102.51A.57.57,0,0,1,39.2,102.76Z"/><path class="cls-5" d="M72.65,66.21a.22.22,0,0,1-.16,0L55.77,61.12c-.1,0-.11-.17,0-.32s.24-.25.34-.22l16.7,5.12c.1,0,.11.17,0,.32A.58.58,0,0,1,72.65,66.21Z"/><path class="cls-5" d="M89.38,69.23a.2.2,0,0,1-.15,0L71.67,66c-.11,0-.13-.16,0-.31s.24-.26.34-.24l17.56,3.31c.11,0,.13.15,0,.31A.58.58,0,0,1,89.38,69.23Z"/><path class="cls-5" d="M89.38,69.23a.19.19,0,0,1-.18,0c-.09,0-.08-.2,0-.35L106,44.11c.1-.15.25-.23.33-.18s.09.2,0,.35L89.54,69.07A.41.41,0,0,1,89.38,69.23Z"/><path class="cls-5" d="M106.11,44.43h-.22a.73.73,0,0,1,.11-.38L122.73,26.2c.12-.12.26-.16.32-.07s0,.25-.11.38L106.21,44.34A.28.28,0,0,1,106.11,44.43Z"/><path class="cls-5" d="M55.92,107.88a.19.19,0,0,1-.18,0L39,97.86c-.08-.06-.07-.21,0-.36a.29.29,0,0,1,.34-.17l16.73,10c.08,0,.07.21,0,.35A1,1,0,0,1,55.92,107.88Z"/><path class="cls-5" d="M55.92,107.88a.28.28,0,0,1-.18,0c-.08,0-.07-.21,0-.35L72.49,83.12c.1-.15.25-.23.34-.18s.08.21,0,.35L56.08,107.72A.41.41,0,0,1,55.92,107.88Z"/><path class="cls-5" d="M89.38,83.64a.24.24,0,0,1-.12,0l-16.73-.19c-.11,0-.15-.13-.08-.28a.42.42,0,0,1,.32-.27l16.73.19c.11,0,.15.13.09.28A.62.62,0,0,1,89.38,83.64Z"/><path class="cls-5" d="M89.38,83.64a.25.25,0,0,1-.17,0c-.09,0-.1-.19,0-.34L112.5,45.74c.09-.15.25-.24.34-.21s.1.19,0,.34L89.55,83.46A.58.58,0,0,1,89.38,83.64Z"/><path class="cls-5" d="M112.73,45.77h-.08c-.12,0-.19-.07-.14-.22l10.1-33.16a.47.47,0,0,1,.31-.32c.12,0,.18.07.14.22L113,45.48A.55.55,0,0,1,112.73,45.77Z"/></g><path class="cls-2" d="M39.2,118.32c.79-.46,1.43-.19,1.43.61a3,3,0,0,1-1.43,2.26c-.8.46-1.44.19-1.44-.6A3,3,0,0,1,39.2,118.32Z"/><path class="cls-2" d="M55.92,74.19c.8-.46,1.44-.19,1.44.61a3,3,0,0,1-1.44,2.26c-.79.46-1.43.19-1.43-.6A3,3,0,0,1,55.92,74.19Z"/><path class="cls-2" d="M72.65,94.08c.8-.46,1.44-.19,1.44.61A3,3,0,0,1,72.65,97c-.79.46-1.44.19-1.44-.6A3,3,0,0,1,72.65,94.08Z"/><path class="cls-2" d="M89.38,74.57c.79-.46,1.44-.18,1.44.61a3,3,0,0,1-1.44,2.27c-.79.46-1.44.18-1.44-.61A3,3,0,0,1,89.38,74.57Z"/><path class="cls-2" d="M106.11,35.37c.79-.46,1.43-.19,1.43.6a3,3,0,0,1-1.43,2.27c-.8.46-1.44.19-1.44-.61A3,3,0,0,1,106.11,35.37Z"/><path class="cls-6" d="M122.83,10.93c.8-.45,1.44-.18,1.44.61a3,3,0,0,1-1.44,2.27c-.79.46-1.43.18-1.43-.61A3,3,0,0,1,122.83,10.93Z"/><path class="cls-2" d="M39.2,110.93c.79-.46,1.43-.18,1.43.61a3,3,0,0,1-1.43,2.27c-.8.45-1.44.18-1.44-.61A3,3,0,0,1,39.2,110.93Z"/><path class="cls-2" d="M55.92,86.5c.8-.46,1.44-.19,1.44.61a3,3,0,0,1-1.44,2.26c-.79.46-1.43.19-1.43-.6A3,3,0,0,1,55.92,86.5Z"/><path class="cls-2" d="M72.65,52.22c.8-.46,1.44-.19,1.44.61a3,3,0,0,1-1.44,2.26c-.79.46-1.44.19-1.44-.6A3,3,0,0,1,72.65,52.22Z"/><path class="cls-2" d="M89.38,59.8c.79-.46,1.44-.19,1.44.61a3,3,0,0,1-1.44,2.26c-.79.46-1.44.19-1.44-.61A3,3,0,0,1,89.38,59.8Z"/><path class="cls-2" d="M106.11,55.07c.79-.46,1.43-.19,1.43.6a3,3,0,0,1-1.43,2.27c-.8.46-1.44.19-1.44-.61A3,3,0,0,1,106.11,55.07Z"/><path class="cls-2" d="M122.83,65.11c.8-.46,1.44-.19,1.44.6A3,3,0,0,1,122.83,68c-.79.46-1.43.19-1.43-.61A3,3,0,0,1,122.83,65.11Z"/><path class="cls-4" d="M39.2,106.11c.79-.45,1.43-.18,1.43.61A3,3,0,0,1,39.2,109c-.8.46-1.44.19-1.44-.61A3,3,0,0,1,39.2,106.11Z"/><path class="cls-4" d="M55.92,91.43c.8-.46,1.44-.19,1.44.6a3,3,0,0,1-1.44,2.27c-.79.46-1.43.19-1.43-.61A3,3,0,0,1,55.92,91.43Z"/><path class="cls-4" d="M89.38,32.71c.79-.46,1.44-.18,1.44.61a3,3,0,0,1-1.44,2.27c-.79.45-1.44.18-1.44-.61A3,3,0,0,1,89.38,32.71Z"/><path class="cls-7" d="M106.11,72.3c.79-.46,1.43-.18,1.43.61a3,3,0,0,1-1.43,2.27c-.8.45-1.44.18-1.44-.61A3,3,0,0,1,106.11,72.3Z"/><path class="cls-4" d="M122.83,70c.8-.46,1.44-.18,1.44.61a3,3,0,0,1-1.44,2.27c-.79.45-1.43.18-1.43-.61A3,3,0,0,1,122.83,70Z"/><path class="cls-5" d="M39.2,101.08c.79-.46,1.43-.18,1.43.61A3,3,0,0,1,39.2,104c-.8.46-1.44.18-1.44-.61A3,3,0,0,1,39.2,101.08Z"/><path class="cls-5" d="M55.92,59.41c.8-.45,1.44-.18,1.44.61a3,3,0,0,1-1.44,2.27c-.79.46-1.43.18-1.43-.61A3,3,0,0,1,55.92,59.41Z"/><path class="cls-5" d="M71.61,64.33c.8-.46,1.44-.18,1.44.61a3,3,0,0,1-1.44,2.27c-.79.45-1.43.18-1.43-.61A3,3,0,0,1,71.61,64.33Z"/><path class="cls-5" d="M89.38,67.2c.79-.46,1.44-.19,1.44.61a3,3,0,0,1-1.44,2.26c-.79.46-1.44.19-1.44-.6A3,3,0,0,1,89.38,67.2Z"/><path class="cls-5" d="M106.11,42.75c.79-.45,1.43-.18,1.43.61a3,3,0,0,1-1.43,2.27c-.8.46-1.44.18-1.44-.61A3,3,0,0,1,106.11,42.75Z"/><path class="cls-5" d="M122.83,24.9c.8-.46,1.44-.18,1.44.61a3,3,0,0,1-1.44,2.27c-.79.45-1.43.18-1.43-.61A3,3,0,0,1,122.83,24.9Z"/><path class="cls-5" d="M39.2,96.16c.79-.46,1.43-.19,1.43.61A3,3,0,0,1,39.2,99c-.8.46-1.44.19-1.44-.61A3,3,0,0,1,39.2,96.16Z"/><path class="cls-5" d="M55.92,106.2c.8-.46,1.44-.19,1.44.61a3,3,0,0,1-1.44,2.26c-.79.46-1.43.19-1.43-.6A3,3,0,0,1,55.92,106.2Z"/><path class="cls-5" d="M72.65,81.77c.8-.46,1.44-.19,1.44.61a3,3,0,0,1-1.44,2.26c-.79.46-1.44.19-1.44-.61A3,3,0,0,1,72.65,81.77Z"/><path class="cls-5" d="M89.38,82c.79-.46,1.44-.19,1.44.61a3,3,0,0,1-1.44,2.26c-.79.46-1.44.19-1.44-.6A3,3,0,0,1,89.38,82Z"/><path class="cls-5" d="M112.57,44c.8-.46,1.44-.19,1.44.6a3,3,0,0,1-1.44,2.27c-.79.46-1.43.19-1.43-.61A3,3,0,0,1,112.57,44Z"/><path class="cls-5" d="M122.83,10.93c.8-.45,1.44-.18,1.44.61a3,3,0,0,1-1.44,2.27c-.79.46-1.43.18-1.43-.61A3,3,0,0,1,122.83,10.93Z"/><path class="cls-2" d="M140.62,32A3.37,3.37,0,0,1,139,34.58c-.9.52-1.63.21-1.63-.69A3.39,3.39,0,0,1,139,31.32C139.89,30.8,140.62,31.1,140.62,32Z"/><path class="cls-2" d="M140.62,46.71A3.35,3.35,0,0,1,139,49.28c-.9.52-1.64.21-1.64-.69A3.37,3.37,0,0,1,139,46C139.89,45.5,140.62,45.81,140.62,46.71Z"/><path class="cls-2" d="M140.62,61.39A3.37,3.37,0,0,1,139,64c-.9.52-1.64.21-1.64-.69A3.42,3.42,0,0,1,139,60.7C139.89,60.18,140.62,60.49,140.62,61.39Z"/><path class="cls-2" d="M140.62,2.6A3.35,3.35,0,0,1,139,5.17c-.9.52-1.63.21-1.63-.69A3.39,3.39,0,0,1,139,1.91C139.89,1.39,140.62,1.7,140.62,2.6Z"/><path class="cls-2" d="M140.62,17.27A3.37,3.37,0,0,1,139,19.85c-.9.52-1.63.21-1.63-.69A3.39,3.39,0,0,1,139,16.59C139.89,16.07,140.62,16.37,140.62,17.27Z"/><g id="_12" data-name=" 12"><polygon class="cls-8" points="229.94 95.78 179.7 68.17 118.46 103.52 187 143.09 237.96 143.09 229.94 95.78"/><polygon class="cls-8" points="203.32 105.02 156.52 79.39 95.28 114.74 160.38 152.32 211.34 152.32 203.32 105.02"/><polygon class="cls-4" points="254 36.07 253.96 132.81 192.35 97.24 192.39 0.49 254 36.07"/><polygon class="cls-7" points="252.38 112.99 252.42 40.26 192.86 5.87 192.82 97.86 237.39 123.59 252.38 112.99"/><polygon class="cls-7" points="251.41 113.73 251.45 40.82 191.89 6.43 191.85 98.42 236.47 124.18 251.41 113.73"/><polygon class="cls-7" points="250.44 114.44 250.48 41.38 190.92 6.99 190.88 98.97 235.56 124.77 250.44 114.44"/><polygon class="cls-7" points="249.47 115.15 249.51 41.94 189.95 7.55 189.91 99.53 234.65 125.36 249.47 115.15"/><polygon class="cls-7" points="248.5 115.86 248.54 42.5 188.98 8.11 188.94 100.09 233.73 125.96 248.5 115.86"/><polygon class="cls-7" points="247.53 116.57 247.57 43.06 188.01 8.67 187.97 100.65 232.82 126.55 247.53 116.57"/><polygon class="cls-7" points="232.04 127.06 246.57 117.28 246.6 43.62 187.04 9.23 187 101.21 231.91 127.14 232.04 127.06"/><polygon class="cls-7" points="232.04 127.06 245.6 117.98 245.63 44.18 186.07 9.79 186.03 101.77 230.97 127.72 232.04 127.06"/><polygon class="cls-7" points="232.04 127.06 244.63 118.66 244.66 44.73 185.11 10.35 185.06 102.33 230.03 128.29 232.04 127.06"/><polygon class="cls-7" points="232.04 127.06 243.66 119.33 243.69 45.3 184.14 10.91 184.09 102.89 229.09 128.87 232.04 127.06"/><polygon class="cls-7" points="232.04 127.06 242.69 120 242.72 45.85 183.17 11.47 183.13 103.45 228.16 129.45 232.04 127.06"/><polygon class="cls-7" points="232.04 127.06 241.72 120.66 241.75 46.41 182.2 12.03 182.16 104.01 227.22 130.03 232.04 127.06"/><polygon class="cls-7" points="232.04 127.06 240.75 121.33 240.79 46.97 181.23 12.59 181.19 104.57 226.28 130.61 232.04 127.06"/><polygon class="cls-7" points="232.04 127.06 239.78 121.99 239.82 47.53 180.26 13.15 180.22 105.13 225.34 131.18 232.04 127.06"/><polygon class="cls-4" points="175.54 10.29 175.5 107.03 237.96 143.09 238 46.35 175.54 10.29"/><path class="cls-9" d="M238,46.35v96.74l17.7-10.28.05-96.75Zm9.82,70.16c-2.2,1.27-4,.26-4-2.26a8.69,8.69,0,0,1,4-6.85c2.19-1.27,4-.25,4,2.27A8.73,8.73,0,0,1,247.82,116.51Z"/><polygon class="cls-7" points="252.86 96.33 241.17 103.08 241.17 53.1 252.86 46.35 252.86 96.33"/><path class="cls-10" d="M247.82,116.51c-2.2,1.27-4,.26-4-2.26a8.69,8.69,0,0,1,4-6.85c2.19-1.27,4-.25,4,2.27A8.73,8.73,0,0,1,247.82,116.51Z"/><path class="cls-11" d="M250.77,107.82l-.65-.38a2.42,2.42,0,0,1,1,2.22,7.59,7.59,0,0,1-3.45,6,2.43,2.43,0,0,1-2.45.24l.64.37a2.42,2.42,0,0,0,2.46-.23,7.62,7.62,0,0,0,3.45-6A2.42,2.42,0,0,0,250.77,107.82Z"/><path class="cls-11" d="M250.69,106.46a3,3,0,0,0-3,.3,9.34,9.34,0,0,0-4.24,7.36,3,3,0,0,0,1.24,2.73l.64.37a3,3,0,0,1-1.24-2.73,9.34,9.34,0,0,1,4.24-7.36,3,3,0,0,1,3-.29Z"/><path class="cls-12" d="M248.3,107.13a9.34,9.34,0,0,0-4.24,7.36c0,2.7,1.92,3.79,4.27,2.43a9.36,9.36,0,0,0,4.25-7.35C252.57,106.87,250.66,105.77,248.3,107.13Zm0,8.87c-1.9,1.09-3.46.21-3.46-2a7.57,7.57,0,0,1,3.43-6c1.92-1.11,3.47-.22,3.48,2a7.64,7.64,0,0,1-3.42,6Z"/><polygon class="cls-9" points="193.24 0 192.39 0.49 254 36.07 238 45.37 176.39 9.8 175.54 10.29 238 46.35 255.71 36.06 193.24 0"/><polygon class="cls-4" points="227.34 45.3 227.3 142.04 165.69 106.47 165.73 9.73 227.34 45.3"/><polygon class="cls-7" points="225.72 122.22 225.75 49.49 166.2 15.1 166.15 107.09 210.72 132.82 225.72 122.22"/><polygon class="cls-7" points="224.75 122.97 224.78 50.05 165.23 15.66 165.18 107.64 209.81 133.41 224.75 122.97"/><polygon class="cls-7" points="223.78 123.67 223.81 50.61 164.26 16.22 164.22 108.2 208.9 134 223.78 123.67"/><polygon class="cls-7" points="222.81 124.38 222.84 51.17 163.29 16.78 163.25 108.77 207.98 134.59 222.81 124.38"/><polygon class="cls-7" points="221.84 125.09 221.88 51.73 162.32 17.34 162.28 109.32 207.07 135.19 221.84 125.09"/><polygon class="cls-7" points="220.87 125.8 220.91 52.29 161.35 17.9 161.31 109.88 206.16 135.78 220.87 125.8"/><polygon class="cls-7" points="205.37 136.29 219.9 126.51 219.94 52.85 160.38 18.46 160.34 110.44 205.24 136.37 205.37 136.29"/><polygon class="cls-7" points="205.37 136.29 218.93 127.22 218.97 53.41 159.41 19.02 159.37 111 204.31 136.95 205.37 136.29"/><polygon class="cls-7" points="205.37 136.29 217.96 127.89 218 53.97 158.44 19.58 158.4 111.56 203.37 137.53 205.37 136.29"/><polygon class="cls-7" points="205.37 136.29 217 128.56 217.03 54.52 157.47 20.14 157.43 112.12 202.43 138.1 205.37 136.29"/><polygon class="cls-7" points="205.37 136.29 216.03 129.23 216.06 55.09 156.5 20.7 156.46 112.68 201.49 138.68 205.37 136.29"/><polygon class="cls-7" points="205.37 136.29 215.06 129.89 215.09 55.64 155.53 21.26 155.49 113.24 200.56 139.26 205.37 136.29"/><polygon class="cls-7" points="205.37 136.29 214.09 130.56 214.12 56.2 154.57 21.82 154.52 113.8 199.62 139.84 205.37 136.29"/><polygon class="cls-7" points="205.37 136.29 213.12 131.22 213.15 56.76 153.6 22.38 153.55 114.36 198.68 140.41 205.37 136.29"/><polygon class="cls-4" points="148.88 19.52 148.84 116.26 211.3 152.32 211.34 55.58 148.88 19.52"/><path class="cls-9" d="M211.34,55.58v96.75L229,142V45.25Zm9.81,70.16c-2.19,1.27-4,.26-4-2.26a8.68,8.68,0,0,1,3.95-6.85c2.19-1.27,4-.25,4,2.27A8.66,8.66,0,0,1,221.15,125.74Z"/><polygon class="cls-7" points="226.2 105.56 214.5 112.31 214.5 62.33 226.2 55.58 226.2 105.56"/><path class="cls-10" d="M221.15,125.74c-2.19,1.27-4,.26-4-2.26a8.68,8.68,0,0,1,3.95-6.85c2.19-1.27,4-.25,4,2.27A8.66,8.66,0,0,1,221.15,125.74Z"/><path class="cls-11" d="M224.1,117.05l-.64-.38a2.42,2.42,0,0,1,1,2.22,7.59,7.59,0,0,1-3.45,6,2.4,2.4,0,0,1-2.45.24l.64.37a2.4,2.4,0,0,0,2.45-.23,7.59,7.59,0,0,0,3.45-6A2.41,2.41,0,0,0,224.1,117.05Z"/><path class="cls-11" d="M224,115.69a3,3,0,0,0-3,.3,9.34,9.34,0,0,0-4.24,7.36,3,3,0,0,0,1.23,2.73l.65.37a3,3,0,0,1-1.24-2.73,9.34,9.34,0,0,1,4.24-7.36,3,3,0,0,1,3-.29Z"/><path class="cls-12" d="M221.64,116.36a9.34,9.34,0,0,0-4.24,7.36c0,2.7,1.91,3.79,4.27,2.43a9.36,9.36,0,0,0,4.25-7.35C225.91,116.1,224,115,221.64,116.36Zm0,8.87c-1.9,1.09-3.45.21-3.46-2a7.61,7.61,0,0,1,3.44-6c1.91-1.11,3.47-.22,3.47,2a7.63,7.63,0,0,1-3.43,6Z"/><polygon class="cls-9" points="166.58 9.23 165.73 9.73 227.34 45.3 211.34 54.6 149.72 19.03 148.88 19.52 211.34 55.58 229.04 45.29 166.58 9.23"/></g><polygon class="cls-8" points="107.42 158.94 89.27 169.42 183.42 223.78 193.64 223.78 107.42 158.94"/><g id="Axonometric_Cube" data-name="Axonometric Cube"><polygon id="Cube_face_-_left" data-name="Cube face - left" class="cls-13" points="193.88 223.78 97.6 168.19 97.6 161.14 193.88 180.1 193.88 223.78"/><polygon id="Cube_face_-_right" data-name="Cube face - right" class="cls-14" points="261.95 184.48 193.88 223.78 193.88 180.1 261.95 177.41 261.95 184.48"/></g><polygon class="cls-7" points="261.95 177.41 248.72 185.05 193.87 216.72 97.6 161.14 165.68 121.83 261.95 177.41"/><polygon class="cls-4" points="117.81 165.53 117.18 165.9 112.19 163.02 112.83 162.65 117.81 165.53"/><polygon class="cls-9" points="118.48 165.15 117.8 165.54 113.62 163.13 114.3 162.74 118.48 165.15"/><polygon class="cls-4" points="120.34 164.08 119.7 164.44 115.12 161.8 115.75 161.43 120.34 164.08"/><polygon class="cls-9" points="121 163.69 120.32 164.09 115.11 161.07 115.78 160.68 121 163.69"/><polygon class="cls-4" points="122.87 162.62 122.24 162.98 115.73 159.22 116.36 158.86 122.87 162.62"/><polygon class="cls-9" points="123.53 162.23 122.85 162.62 118.11 159.89 118.79 159.5 123.53 162.23"/><polygon class="cls-4" points="125.39 161.16 124.76 161.52 118.98 158.19 119.61 157.82 125.39 161.16"/><polygon class="cls-9" points="126.06 160.78 125.38 161.17 120.32 158.25 121 157.86 126.06 160.78"/><polygon class="cls-4" points="132.98 156.78 132.34 157.14 126.41 153.72 127.04 153.35 132.98 156.78"/><polygon class="cls-9" points="133.64 156.4 132.96 156.79 127.49 153.63 128.17 153.24 133.64 156.4"/><polygon class="cls-4" points="135.5 155.32 134.87 155.68 130.61 153.22 131.24 152.86 135.5 155.32"/><polygon class="cls-9" points="136.17 154.94 135.49 155.33 129.64 151.95 130.31 151.56 136.17 154.94"/><polygon class="cls-4" points="138.03 153.86 137.4 154.22 129.34 149.57 129.97 149.21 138.03 153.86"/><polygon class="cls-9" points="138.69 153.48 138.02 153.87 131.29 149.99 131.97 149.59 138.69 153.48"/><polygon class="cls-4" points="140.56 152.4 139.93 152.76 132.89 148.7 133.52 148.34 140.56 152.4"/><polygon class="cls-9" points="141.22 152.02 140.54 152.41 134.75 149.06 135.42 148.67 141.22 152.02"/><polygon class="cls-4" points="143.09 150.94 142.46 151.31 138.17 148.83 138.8 148.47 143.09 150.94"/><polygon class="cls-9" points="143.75 150.56 143.07 150.95 137.84 147.93 138.51 147.53 143.75 150.56"/><polygon class="cls-4" points="127.92 159.7 127.29 160.06 124.23 158.3 124.86 157.94 127.92 159.7"/><polygon class="cls-9" points="128.58 159.32 127.91 159.71 122.55 156.61 123.22 156.22 128.58 159.32"/><polygon class="cls-4" points="130.44 158.24 129.81 158.6 126.76 156.84 127.39 156.48 130.44 158.24"/><polygon class="cls-9" points="131.11 157.86 130.43 158.25 128.22 156.97 128.9 156.58 131.11 157.86"/><polygon class="cls-4" points="144.97 150.46 116.85 166.7 116.28 166.37 144.4 150.13 144.97 150.46"/><polygon class="cls-4" points="148.88 147.6 148.24 147.97 143.99 145.51 144.62 145.14 148.88 147.6"/><polygon class="cls-9" points="149.54 147.22 148.86 147.61 145.42 145.62 146.09 145.23 149.54 147.22"/><polygon class="cls-4" points="151.4 146.14 150.76 146.51 149.16 145.58 149.79 145.22 151.4 146.14"/><polygon class="cls-9" points="152.06 145.76 151.38 146.15 149.14 144.86 149.82 144.47 152.06 145.76"/><polygon class="cls-4" points="153.93 144.68 153.3 145.05 148.38 142.21 149.01 141.84 153.93 144.68"/><polygon class="cls-9" points="154.59 144.3 153.91 144.69 151.52 143.31 152.2 142.92 154.59 144.3"/><polygon class="cls-4" points="156.45 143.22 155.82 143.59 154.12 142.61 154.75 142.25 156.45 143.22"/><polygon class="cls-9" points="157.12 142.84 156.44 143.23 153.66 141.63 154.33 141.24 157.12 142.84"/><polygon class="cls-4" points="164.04 138.85 163.4 139.21 157.19 135.62 157.82 135.26 164.04 138.85"/><polygon class="cls-9" points="164.7 138.46 164.02 138.85 158.65 135.75 159.32 135.36 164.7 138.46"/><polygon class="cls-4" points="166.56 137.39 165.93 137.75 157.28 132.75 157.91 132.39 166.56 137.39"/><polygon class="cls-9" points="167.23 137 166.55 137.4 158.43 132.71 159.11 132.32 167.23 137"/><polygon class="cls-4" points="169.09 135.93 168.46 136.29 162.84 133.05 163.47 132.68 169.09 135.93"/><polygon class="cls-9" points="169.75 135.54 169.08 135.94 164.51 133.3 165.19 132.91 169.75 135.54"/><polygon class="cls-4" points="171.62 134.47 170.99 134.83 164.51 131.09 165.14 130.73 171.62 134.47"/><polygon class="cls-9" points="172.28 134.09 171.6 134.48 166.37 131.45 167.05 131.06 172.28 134.09"/><polygon class="cls-4" points="174.15 133.01 173.52 133.37 170.3 131.52 170.93 131.15 174.15 133.01"/><polygon class="cls-9" points="174.81 132.63 174.13 133.02 171.29 131.38 171.97 130.99 174.81 132.63"/><polygon class="cls-4" points="158.98 141.77 158.35 142.13 152.99 139.04 153.63 138.68 158.98 141.77"/><polygon class="cls-9" points="159.64 141.38 158.96 141.78 152.75 138.19 153.43 137.8 159.64 141.38"/><polygon class="cls-4" points="161.5 140.31 160.87 140.67 155.72 137.69 156.35 137.33 161.5 140.31"/><polygon class="cls-9" points="162.17 139.93 161.49 140.32 157.17 137.82 157.85 137.43 162.17 139.93"/><polygon class="cls-4" points="176.03 132.53 147.91 148.77 147.34 148.44 175.46 132.2 176.03 132.53"/><polygon class="cls-9" points="143.32 157.88 122.44 169.94 119.47 168.22 140.35 156.17 143.32 157.88"/><polygon class="cls-4" points="124.37 168.82 122.44 169.94 119.47 168.22 121.4 167.11 124.37 168.82"/><polygon class="cls-9" points="162.35 146.89 141.48 158.95 138.51 157.23 159.38 145.18 162.35 146.89"/><polygon class="cls-4" points="143.41 157.83 141.48 158.95 138.51 157.23 140.44 156.12 143.41 157.83"/><polygon class="cls-9" points="181.39 135.9 160.51 147.96 157.54 146.24 178.42 134.19 181.39 135.9"/><polygon class="cls-4" points="162.44 146.84 160.51 147.96 157.54 146.24 159.47 145.13 162.44 146.84"/><polygon class="cls-15" points="164.52 143.32 161.37 145.13 161.04 144.94 164.18 143.12 164.52 143.32"/><polygon class="cls-15" points="166.34 142.27 165.03 143.02 164.69 142.83 166 142.07 166.34 142.27"/><polygon class="cls-15" points="164.52 144.97 162.8 145.96 162.46 145.76 164.18 144.77 164.52 144.97"/><polygon class="cls-15" points="168.9 142.44 165.03 144.67 164.7 144.47 168.56 142.24 168.9 142.44"/><polygon class="cls-15" points="171.54 140.91 169.41 142.14 169.08 141.94 171.21 140.72 171.54 140.91"/><polygon class="cls-15" points="145.66 154.21 142.51 156.02 142.18 155.83 145.32 154.01 145.66 154.21"/><polygon class="cls-15" points="147.48 153.16 146.17 153.91 145.83 153.72 147.14 152.96 147.48 153.16"/><polygon class="cls-15" points="145.66 155.85 143.94 156.84 143.6 156.65 145.32 155.66 145.66 155.85"/><polygon class="cls-15" points="150.03 153.33 146.17 155.56 145.84 155.36 149.7 153.13 150.03 153.33"/><polygon class="cls-15" points="152.68 151.8 150.55 153.03 150.22 152.83 152.35 151.6 152.68 151.8"/><polygon class="cls-15" points="126.8 165.1 123.65 166.91 123.32 166.72 126.46 164.9 126.8 165.1"/><polygon class="cls-15" points="128.62 164.04 127.31 164.8 126.97 164.6 128.28 163.85 128.62 164.04"/><polygon class="cls-15" points="126.8 166.74 125.08 167.73 124.74 167.54 126.46 166.55 126.8 166.74"/><polygon class="cls-15" points="131.18 164.22 127.31 166.45 126.97 166.25 130.84 164.02 131.18 164.22"/><polygon class="cls-15" points="133.82 162.69 131.69 163.92 131.36 163.72 133.49 162.49 133.82 162.69"/><polygon class="cls-9" points="145.29 169.67 134.8 175.73 133.72 175.11 144.21 169.05 145.29 169.67"/><polygon class="cls-9" points="141.9 173.95 136.8 176.89 135.72 176.26 140.81 173.32 141.9 173.95"/><polygon class="cls-9" points="155.32 168.51 138.81 178.05 137.73 177.42 154.24 167.89 155.32 168.51"/><polygon class="cls-9" points="165.07 165.2 140.81 179.2 139.74 178.58 163.99 164.58 165.07 165.2"/><polygon class="cls-9" points="165.22 167.43 142.82 180.36 141.74 179.74 164.14 166.81 165.22 167.43"/><polygon class="cls-9" points="164.04 170.43 144.83 181.52 143.75 180.9 162.96 169.81 164.04 170.43"/><polygon class="cls-9" points="162.26 173.77 146.83 182.68 145.75 182.06 161.18 173.15 162.26 173.77"/><polygon class="cls-9" points="161.03 176.8 148.84 183.84 147.76 183.21 159.95 176.18 161.03 176.8"/><polygon class="cls-9" points="170.05 173.9 150.84 185 149.76 184.37 168.97 173.28 170.05 173.9"/><polygon class="cls-9" points="172.91 174.57 152.85 186.15 151.77 185.53 171.83 173.94 172.91 174.57"/><polygon class="cls-9" points="171.44 177.73 154.86 187.31 153.78 186.69 170.36 177.11 171.44 177.73"/><polygon class="cls-9" points="170.52 180.59 156.86 188.47 155.78 187.84 169.44 179.96 170.52 180.59"/><polygon class="cls-9" points="178.15 178.49 158.87 189.63 157.79 189 177.07 177.87 178.15 178.49"/><polygon class="cls-9" points="181.34 178.97 160.87 190.78 159.79 190.16 180.26 178.34 181.34 178.97"/><polygon class="cls-4" points="161.53 190.9 160.88 191.27 132.87 175.1 133.52 174.73 161.53 190.9"/><ellipse class="cls-9" cx="169.12" cy="195.98" rx="1.68" ry="0.97"/><path class="cls-9" d="M176.09,198.64a.72.72,0,0,1,.47.89h0a.7.7,0,0,1-.46.46,2.63,2.63,0,0,1-2.38,0,.73.73,0,0,1-.43-.94h0a.7.7,0,0,1,.43-.43A2.64,2.64,0,0,1,176.09,198.64Z"/><path class="cls-9" d="M181.8,201.93a.73.73,0,0,1,.45.93h0a.72.72,0,0,1-.45.45,2.69,2.69,0,0,1-2.38,0,.73.73,0,0,1-.45-.93h0a.72.72,0,0,1,.45-.45A2.63,2.63,0,0,1,181.8,201.93Z"/><path class="cls-9" d="M187.54,205.25a.72.72,0,0,1,.47.89h0a.7.7,0,0,1-.46.46,2.61,2.61,0,0,1-2.37,0,.72.72,0,0,1-.47-.89h0a.7.7,0,0,1,.46-.46A2.61,2.61,0,0,1,187.54,205.25Z"/><path class="cls-9" d="M193.25,208.55a.72.72,0,0,1,.47.89h0a.7.7,0,0,1-.46.46,2.63,2.63,0,0,1-2.38,0,.73.73,0,0,1-.43-.94h0a.7.7,0,0,1,.43-.43A2.64,2.64,0,0,1,193.25,208.55Z"/><path class="cls-9" d="M201.2,178.91l3.44-2-.44-.26-3.45,2Zm-15.37,8.87,7.72-4.45-.45-.26-7.71,4.45Zm8.32-4.8,6.44-3.72-.44-.26-6.44,3.72Zm-8.92,5.15-.45-.26-10.93,6.31.44.26Zm20-11.56,4.89-2.83-.44-.25-4.9,2.82Zm-32.67,16.82,3.61-2.09-.44-.25-3.61,2.08Zm31.56-18.74.44.26,4.29-2.47-.45-.26Zm-7.93,5.09,7.77-4.48-.45-.26-7.76,4.49Zm-4.05,2.34,3.45-2-.45-.25-3.44,2Zm-4.89,2.83,4.29-2.48-.45-.26-4.29,2.48Zm-10.47,6,9.87-5.69-.45-.26-9.87,5.7Z"/><path class="cls-9" d="M197.44,184.81l.44.26,6.44-3.72-.45-.25Zm-.16.61-.45-.26-7.71,4.46.44.25Zm1.37.74.44.26,4.29-2.48-.45-.26Zm4.89-2.83.44.26,3.45-2-.45-.25Zm11.81-6.82L207.59,181l.44.25,7.77-4.48ZM188,192.81l-.44-.26-8.28,4.79.44.25Zm23.55-16.15-7.08,4.09.45.25,7.07-4.08ZM189,190.22l-.45-.25-11,6.35.45.26Zm23.2-13.91.45.26,4.13-2.39-.44-.26Zm-13.67,10.46-.45-.26-9.87,5.69.45.26Z"/><path class="cls-9" d="M200.17,190.05l.45.26,4.29-2.48-.45-.25Zm1.07,1.95-.45-.26-7.62,4.4.45.26Zm7.27-6.76-3.45,2,.45.25,3.45-2Zm.61-.35.44.26,7.77-4.49-.45-.25Zm8.09-2.11,4.51-2.61-.45-.25-4.51,2.6Zm-27.67,13.93-.44-.26-5.59,3.22.45.26Zm10-6.31-9.87,5.7.45.26,9.86-5.7Zm1.83,1,.44.26,7.72-4.46-.45-.25Zm14.75-8.52-6.43,3.72.44.25,6.44-3.71Zm3.65-4.15-2.31,1.34.44.25,2.32-1.33Zm-26.79,18-.44-.25-7.31,4.22.44.26Z"/><path class="cls-9" d="M202.93,197.65l7.71-4.45-.44-.26-7.72,4.45Zm8.32-4.8,6.44-3.72-.45-.26-6.44,3.72ZM202.32,198l-.44-.26-10.94,6.32.45.25Zm-12.64,5.26,3.61-2.09-.45-.25L189.23,203Zm31.55-18.74.45.26,4.29-2.47-.45-.26Zm-7.92,5.09,7.76-4.48-.44-.26-7.77,4.49ZM209.26,192l3.44-2-.44-.25-3.45,2Zm-4.89,2.83,4.28-2.48-.44-.25-4.29,2.47Zm-10.48,6,9.87-5.69-.45-.26-9.86,5.7Z"/><polygon class="cls-9" points="219.34 192.2 219.79 192.46 226.23 188.74 225.78 188.49 219.34 192.2"/><polygon class="cls-9" points="213.39 197.68 213.84 197.94 218.12 195.47 217.68 195.21 213.39 197.68"/><polygon class="cls-9" points="218.74 192.55 211.02 197.01 211.47 197.26 219.18 192.81 218.74 192.55"/><polygon class="cls-9" points="224.94 191.01 218.28 194.86 218.73 195.12 225.39 191.27 224.94 191.01"/><polygon class="cls-9" points="210.86 197.61 210.42 197.36 194.86 206.34 195.31 206.59 210.86 197.61"/><polygon class="cls-9" points="226.39 188.14 226.83 188.39 230.28 186.4 229.83 186.15 226.39 188.14"/><polygon class="cls-9" points="202.76 204.34 202.31 204.08 196.73 207.3 197.18 207.56 202.76 204.34"/><polygon class="cls-9" points="212.79 198.03 202.92 203.73 203.36 203.99 213.23 198.29 212.79 198.03"/><polygon class="cls-9" points="230.44 185.8 230.88 186.05 233.8 184.37 233.36 184.11 230.44 185.8"/><path class="cls-16" d="M198.26,217.91c-1.47.81-2.91,1.65-4.37,2.47-1.54-.88-3.09-1.77-4.64-2.63s-3.18-1.75-4.78-2.6c1.53,1,3.08,1.91,4.64,2.84s3.13,1.84,4.69,2.76l.09.05.09-.05c1.47-.87,3-1.72,4.41-2.6s2.92-1.77,4.37-2.68Q200.5,216.67,198.26,217.91Z"/><path class="cls-16" d="M207,211.48c2.34-1.1,46.57-26.7,48.17-27.81C253.42,184.5,209.13,210,207,211.48Z"/><path class="cls-16" d="M155.59,197.64c-1.89-.89-51.49-29.58-52.79-30.48C104.23,167.83,153.88,196.45,155.59,197.64Z"/><polygon class="cls-17" points="141.45 135.82 157.5 145.09 205.96 145.09 165.68 121.83 141.45 135.82"/><g id="Axonometric_Cylinder" data-name="Axonometric Cylinder"><ellipse id="Cylinder_face" data-name="Cylinder face" class="cls-9" cx="189.51" cy="157.82" rx="22.24" ry="12.84"/><path class="cls-4" d="M205.23,166.9c-8.68,5-22.76,5-31.45,0v1.79c8.69,5,22.77,5,31.45,0,4.4-2.54,6.57-5.87,6.51-9.2V157.7C211.8,161,209.63,164.36,205.23,166.9Z"/></g><polygon class="cls-4" points="189.85 151.88 189.71 157.59 189.33 157.71 173.78 148.74 173.79 142.7 189.85 151.88"/><polygon class="cls-4" points="189.72 151.9 189.72 157.87 205.44 148.79 205.45 142.75 189.72 151.9"/><path class="cls-18" d="M205.45,142.75l-15.73,9.15-15.93-9.2C182.56,137.7,196.67,137.72,205.45,142.75Z"/><polygon class="cls-4" points="167.21 154.08 167.2 157.19 189.72 157.64 189.72 154.08 167.21 154.08"/><path class="cls-18" d="M173.78,144.86c-4.37,2.55-6.57,5.88-6.58,9.22h22.52Z"/><path class="cls-4" d="M173.76,165.05c-3.15-1.82-5.41-4.19-6.26-6.91a7.66,7.66,0,0,1-.3-2.13v.54a25,25,0,0,0,.31,4.89v.11c.68,2.68,2.81,5.15,6.38,7.21l.43.24v-3.62Z"/><polygon class="cls-4" points="189.72 156.03 189.72 157.87 174.34 167.22 174.35 165.38 189.72 156.03"/><path class="cls-18" d="M189.72,156l-15.37,9.35-.59-.33c-3.15-1.82-5.41-4.19-6.26-6.91a7.79,7.79,0,0,1-.3-2.14Z"/><polygon class="cls-8" points="73.48 201.98 62.65 208.23 115.57 238.79 120.56 238.79 73.48 201.98"/><g id="_1-2" data-name=" 1-2"><path class="cls-19" d="M104.36,181.71a1.38,1.38,0,0,0-1.36-.13L67.1,202.45a1.33,1.33,0,0,1,1.36.13l5.22,3,35.9-20.86Z"/><polygon class="cls-20" points="109.58 184.73 73.68 205.59 83.2 213.26 119.11 192.4 109.58 184.73"/><polygon class="cls-21" points="77.4 205.88 109.39 187.29 115.38 192.11 83.39 210.7 77.4 205.88"/><polygon class="cls-22" points="109.36 188.22 114.69 192.51 115.38 192.11 109.39 187.29 77.4 205.88 78.06 206.41 109.36 188.22"/><path class="cls-19" d="M157.38,215.55v-.1a2.3,2.3,0,0,0-.14-.42c-.06-.12-.12-.24-.19-.36l-.07-.1a2.35,2.35,0,0,0-.19-.25v-.06l-.2-.2-.08-.08-.27-.19L119.11,192.4,83.2,213.26l37.06,21.4.27.19.08.08a1.37,1.37,0,0,1,.17.17l.08.08.18.25a.36.36,0,0,0,.07.1,2.31,2.31,0,0,1,.18.35,2.28,2.28,0,0,1,.15.44v.1a2.94,2.94,0,0,1,0,.42v1a.94.94,0,0,1-.37.81L157,217.79a.88.88,0,0,0,.37-.81v-1A2.06,2.06,0,0,0,157.38,215.55Z"/><path class="cls-20" d="M156.72,214.26l-35.91,20.86a3,3,0,0,1,.49.78L157.21,215A2.8,2.8,0,0,0,156.72,214.26Z"/><path class="cls-23" d="M120.26,234.66,83.2,213.26l-9.52-7.67-5.22-3c-1.06-.61-1.92-.12-1.92,1.1v1.71a4.19,4.19,0,0,0,1.91,3.31l51.81,29.92c.69.4,1.26.07,1.27-.73v-1A2.76,2.76,0,0,0,120.26,234.66Z"/><path class="cls-24" d="M109.43,193.86v.39h-.38L106.41,192v-.27l.55.06Zm-1.57-2.93v-.39h-.38l-1,.6v.26l.55.06Zm.47,0,2.49,2.07h.57v-.27l-2.68-2.21h-.38Zm1.58,2.92v.4h.38l1.08-.62v-.27l-.56-.05Zm2.11-1.39.58.47.49-.28-.58-.47Z"/><path class="cls-23" d="M151.05,213.76l-2.68,1.57a2.56,2.56,0,0,1-2.32,0L138.46,211a.83.83,0,0,1-.48-.67V211a.83.83,0,0,0,.48.67l7.59,4.38a2.56,2.56,0,0,0,2.32,0l2.68-1.57a.83.83,0,0,0,.48-.67V213A.8.8,0,0,1,151.05,213.76Z"/><path class="cls-20" d="M151,212.41,143.46,208a2.56,2.56,0,0,0-2.32,0l-2.68,1.56a.72.72,0,0,0-.44.9.74.74,0,0,0,.44.44l7.59,4.38a2.56,2.56,0,0,0,2.32,0l2.68-1.57a.73.73,0,0,0,.4-1s0,0,0,0h0A.7.7,0,0,0,151,212.41Z"/><path class="cls-23" d="M139.19,206.91l-2.68,1.57a2.56,2.56,0,0,1-2.32,0l-1.66-.95a.83.83,0,0,1-.48-.68v.77a.81.81,0,0,0,.48.68l1.65,1a2.56,2.56,0,0,0,2.32,0l2.69-1.57a.82.82,0,0,0,.47-.66v-.78A.81.81,0,0,1,139.19,206.91Z"/><path class="cls-20" d="M139.18,205.57l-1.66-1a2.56,2.56,0,0,0-2.32,0l-2.68,1.57a.72.72,0,0,0-.44.9.74.74,0,0,0,.44.44l1.66,1a2.56,2.56,0,0,0,2.32,0l2.68-1.57a.71.71,0,0,0,.35-.94A.73.73,0,0,0,139.18,205.57Z"/><path class="cls-23" d="M133.25,203.49l-2.68,1.56a2.56,2.56,0,0,1-2.32,0l-1.66-1a.83.83,0,0,1-.48-.67v.77a.83.83,0,0,0,.48.67l1.66,1a2.56,2.56,0,0,0,2.32,0l2.68-1.56a.83.83,0,0,0,.48-.67v-.77A.83.83,0,0,1,133.25,203.49Z"/><path class="cls-20" d="M133.25,202.14l-1.66-1a2.5,2.5,0,0,0-2.32,0l-2.68,1.56a.72.72,0,0,0-.44.9.74.74,0,0,0,.44.44l1.66,1a2.56,2.56,0,0,0,2.32,0l2.68-1.56a.67.67,0,0,0,.71-.63h0a.71.71,0,0,0-.71-.71Z"/><path class="cls-23" d="M127.32,200.06l-2.68,1.56a2.56,2.56,0,0,1-2.32,0l-1.66-1a.83.83,0,0,1-.48-.67v.77a.83.83,0,0,0,.48.68l1.66.95a2.56,2.56,0,0,0,2.32,0l2.68-1.57a.85.85,0,0,0,.47-.67v-.77A.82.82,0,0,1,127.32,200.06Z"/><path class="cls-20" d="M127.31,198.71l-1.66-1a2.56,2.56,0,0,0-2.32,0l-2.68,1.56a.72.72,0,0,0-.44.9.74.74,0,0,0,.44.44l1.66,1a2.56,2.56,0,0,0,2.32,0l2.68-1.56a.72.72,0,0,0,.44-.9A.74.74,0,0,0,127.31,198.71Z"/><path class="cls-23" d="M121.38,196.63l-2.68,1.57a2.56,2.56,0,0,1-2.32,0l-.47-.27a.83.83,0,0,1-.48-.67V198a.83.83,0,0,0,.48.67l.47.28a2.56,2.56,0,0,0,2.32,0l2.68-1.56a.83.83,0,0,0,.48-.67V196A.8.8,0,0,1,121.38,196.63Z"/><path class="cls-20" d="M121.38,195.29l-.47-.28a2.56,2.56,0,0,0-2.32,0l-2.68,1.56a.72.72,0,0,0-.44.9.74.74,0,0,0,.44.44l.47.27a2.56,2.56,0,0,0,2.32,0l2.68-1.57a.7.7,0,0,0,0-1.32Z"/><path class="cls-25" d="M144.27,217.69l-2.69,1.56a2.56,2.56,0,0,1-2.32,0l-1.65-1a.83.83,0,0,1-.48-.67v.77a.82.82,0,0,0,.49.67l1.65,1a2.56,2.56,0,0,0,2.32,0l2.68-1.56a.83.83,0,0,0,.48-.67V217A.86.86,0,0,1,144.27,217.69Z"/><path class="cls-26" d="M144.26,216.34l-1.66-1a2.5,2.5,0,0,0-2.32,0L137.6,217a.72.72,0,0,0-.44.9.74.74,0,0,0,.44.44l1.65,1a2.56,2.56,0,0,0,2.32,0l2.69-1.56a.72.72,0,0,0,0-1.44Z"/><path class="cls-25" d="M138.33,214.26l-2.68,1.56a2.56,2.56,0,0,1-2.32,0l-1.66-1a.83.83,0,0,1-.48-.67V215a.84.84,0,0,0,.48.68l1.66,1a2.56,2.56,0,0,0,2.32,0l2.68-1.57a.83.83,0,0,0,.48-.67v-.77A.87.87,0,0,1,138.33,214.26Z"/><path class="cls-26" d="M138.32,212.91l-1.65-.95a2.56,2.56,0,0,0-2.32,0l-2.68,1.56a.72.72,0,0,0-.44.9.74.74,0,0,0,.44.44l1.66,1a2.56,2.56,0,0,0,2.32,0l2.68-1.56a.71.71,0,0,0,.55-.84.71.71,0,0,0-.55-.55Z"/><path class="cls-25" d="M132.4,210.83l-2.68,1.57a2.56,2.56,0,0,1-2.32,0l-1.66-1a.83.83,0,0,1-.48-.68v.77a.82.82,0,0,0,.49.68l1.65,1a2.56,2.56,0,0,0,2.32,0l2.69-1.57a.82.82,0,0,0,.47-.66v-.78A.79.79,0,0,1,132.4,210.83Z"/><path class="cls-26" d="M132.39,209.49l-1.66-1a2.56,2.56,0,0,0-2.32,0l-2.68,1.57a.72.72,0,0,0-.44.9.74.74,0,0,0,.44.44l1.66.95a2.56,2.56,0,0,0,2.32,0l2.68-1.57a.68.68,0,0,0,.5-.82h0A.6.6,0,0,0,132.39,209.49Z"/><path class="cls-25" d="M126.46,207.41,123.78,209a2.56,2.56,0,0,1-2.32,0l-1.66-1a.83.83,0,0,1-.48-.67v.77a.83.83,0,0,0,.48.67l1.66,1a2.56,2.56,0,0,0,2.32,0l2.68-1.56a.83.83,0,0,0,.48-.67v-.77A.84.84,0,0,1,126.46,207.41Z"/><path class="cls-26" d="M126.46,206.06l-1.66-1a2.5,2.5,0,0,0-2.32,0l-2.68,1.56a.72.72,0,0,0-.44.9.74.74,0,0,0,.44.44l1.66,1a2.56,2.56,0,0,0,2.32,0l2.68-1.56a.72.72,0,0,0,0-1.34Z"/><path class="cls-23" d="M120.53,204l-2.68,1.57a2.56,2.56,0,0,1-2.32,0l-1.66-1a.83.83,0,0,1-.48-.67v.77a.83.83,0,0,0,.48.68l1.65,1a2.56,2.56,0,0,0,2.32,0l2.69-1.57a.8.8,0,0,0,.47-.67v-.77A.82.82,0,0,1,120.53,204Z"/><path class="cls-20" d="M120.52,202.63l-1.66-.95a2.56,2.56,0,0,0-2.32,0l-2.68,1.56a.72.72,0,0,0-.44.9.74.74,0,0,0,.44.44l1.66,1a2.56,2.56,0,0,0,2.32,0l2.68-1.57a.71.71,0,0,0,.52-.86h0A.69.69,0,0,0,120.52,202.63Z"/><path class="cls-23" d="M114.59,200.55l-2.68,1.57a2.56,2.56,0,0,1-2.32,0l-.47-.28a.83.83,0,0,1-.48-.67v.77a.83.83,0,0,0,.48.68l.47.27a2.56,2.56,0,0,0,2.32,0l2.68-1.56a.83.83,0,0,0,.48-.67v-.77A.81.81,0,0,1,114.59,200.55Z"/><path class="cls-20" d="M114.59,199.21l-.47-.27a2.56,2.56,0,0,0-2.32,0l-2.69,1.56a.72.72,0,0,0-.44.9.74.74,0,0,0,.44.44l.47.28a2.56,2.56,0,0,0,2.32,0l2.68-1.57a.7.7,0,0,0,.47-.87.73.73,0,0,0-.47-.47Z"/><path class="cls-25" d="M137.48,221.61l-2.69,1.56a2.56,2.56,0,0,1-2.32,0l-1.65-1a.82.82,0,0,1-.49-.67v.77a.83.83,0,0,0,.48.67l1.66,1a2.56,2.56,0,0,0,2.32,0l2.68-1.56a.83.83,0,0,0,.48-.67v-.77A.85.85,0,0,1,137.48,221.61Z"/><path class="cls-26" d="M137.47,220.26l-1.66-1a2.5,2.5,0,0,0-2.32,0l-2.68,1.56a.72.72,0,0,0-.44.9.74.74,0,0,0,.44.44l1.65,1a2.56,2.56,0,0,0,2.32,0l2.69-1.56a.72.72,0,0,0,.44-.9A.74.74,0,0,0,137.47,220.26Z"/><path class="cls-25" d="M131.54,218.18l-2.68,1.56a2.56,2.56,0,0,1-2.32,0l-1.66-1a.83.83,0,0,1-.48-.67v.77a.83.83,0,0,0,.48.68l1.66.95a2.56,2.56,0,0,0,2.32,0l2.68-1.57a.83.83,0,0,0,.48-.67v-.77A.81.81,0,0,1,131.54,218.18Z"/><path class="cls-26" d="M131.53,216.83l-1.65-1a2.56,2.56,0,0,0-2.32,0l-2.69,1.56a.72.72,0,0,0-.44.9.74.74,0,0,0,.44.44l1.66,1a2.56,2.56,0,0,0,2.32,0l2.68-1.56a.72.72,0,0,0,.44-.9A.74.74,0,0,0,131.53,216.83Z"/><path class="cls-25" d="M125.61,214.75l-2.69,1.57a2.56,2.56,0,0,1-2.32,0l-1.65-.95a.83.83,0,0,1-.48-.68v.77a.82.82,0,0,0,.49.68l1.65,1a2.56,2.56,0,0,0,2.32,0l2.68-1.56a.83.83,0,0,0,.48-.67v-.77A.83.83,0,0,1,125.61,214.75Z"/><path class="cls-26" d="M125.6,213.41l-1.66-1a2.56,2.56,0,0,0-2.32,0L118.94,214a.72.72,0,0,0-.44.9.74.74,0,0,0,.44.44l1.65.95a2.56,2.56,0,0,0,2.32,0l2.69-1.57C126.25,214.38,126.24,213.78,125.6,213.41Z"/><path class="cls-25" d="M119.67,211.33,117,212.89a2.56,2.56,0,0,1-2.32,0l-1.66-1a.83.83,0,0,1-.48-.67V212a.83.83,0,0,0,.48.67l1.66,1a2.56,2.56,0,0,0,2.32,0l2.68-1.56a.83.83,0,0,0,.48-.67v-.77A.84.84,0,0,1,119.67,211.33Z"/><path class="cls-26" d="M119.66,210,118,209a2.5,2.5,0,0,0-2.32,0L113,210.59a.72.72,0,0,0-.44.9.74.74,0,0,0,.44.44l1.66,1a2.56,2.56,0,0,0,2.32,0l2.68-1.56a.71.71,0,0,0,.5-.87A.74.74,0,0,0,119.66,210Z"/><path class="cls-23" d="M113.74,207.9l-2.68,1.57a2.56,2.56,0,0,1-2.32,0l-1.66-1a.83.83,0,0,1-.48-.68v.77a.79.79,0,0,0,.48.68l1.65.95a2.56,2.56,0,0,0,2.32,0l2.69-1.57a.8.8,0,0,0,.47-.67v-.77A.8.8,0,0,1,113.74,207.9Z"/><path class="cls-20" d="M113.73,206.55l-1.66-1a2.56,2.56,0,0,0-2.32,0l-2.68,1.57a.72.72,0,0,0-.44.9.74.74,0,0,0,.44.44l1.66,1a2.56,2.56,0,0,0,2.32,0l2.68-1.57a.72.72,0,0,0,.44-.9A.74.74,0,0,0,113.73,206.55Z"/><path class="cls-23" d="M107.8,204.48,105.12,206a2.56,2.56,0,0,1-2.32,0l-.47-.28a.83.83,0,0,1-.48-.67v.77a.83.83,0,0,0,.48.68l.47.27a2.56,2.56,0,0,0,2.32,0l2.68-1.56a.83.83,0,0,0,.48-.67v-.77A.83.83,0,0,1,107.8,204.48Z"/><path class="cls-20" d="M107.8,203.13l-.47-.27a2.56,2.56,0,0,0-2.32,0l-2.69,1.56a.72.72,0,0,0-.44.9.74.74,0,0,0,.44.44l.47.28a2.56,2.56,0,0,0,2.32,0l2.68-1.56a.73.73,0,0,0,.43-.92A.69.69,0,0,0,107.8,203.13Z"/><path class="cls-25" d="M130.68,225.53,128,227.09a2.56,2.56,0,0,1-2.32,0l-1.65-1a.82.82,0,0,1-.49-.67v.77a.83.83,0,0,0,.48.67l1.66,1a2.56,2.56,0,0,0,2.32,0l2.68-1.56a.83.83,0,0,0,.48-.67v-.77A.83.83,0,0,1,130.68,225.53Z"/><path class="cls-26" d="M130.68,224.18l-1.66-1a2.5,2.5,0,0,0-2.32,0l-2.7,1.61a.72.72,0,0,0-.44.9.74.74,0,0,0,.44.44l1.65,1a2.56,2.56,0,0,0,2.32,0l2.68-1.56a.71.71,0,0,0,.57-.83h0A.69.69,0,0,0,130.68,224.18Z"/><path class="cls-25" d="M124.75,222.1l-2.68,1.57a2.56,2.56,0,0,1-2.32,0l-1.66-1a.83.83,0,0,1-.48-.67v.77a.83.83,0,0,0,.48.68l1.66,1a2.56,2.56,0,0,0,2.32,0l2.68-1.57a.8.8,0,0,0,.47-.67v-.77A.82.82,0,0,1,124.75,222.1Z"/><path class="cls-26" d="M124.74,220.75l-1.65-.95a2.56,2.56,0,0,0-2.32,0l-2.69,1.56a.72.72,0,0,0-.44.9.74.74,0,0,0,.44.44l1.66,1a2.56,2.56,0,0,0,2.32,0l2.68-1.57a.71.71,0,0,0,.52-.86h0A.69.69,0,0,0,124.74,220.75Z"/><path class="cls-25" d="M118.82,218.67l-2.69,1.57a2.56,2.56,0,0,1-2.32,0l-1.65-1a.81.81,0,0,1-.48-.68v.78a.83.83,0,0,0,.48.67l1.66,1a2.56,2.56,0,0,0,2.32,0l2.68-1.56a.83.83,0,0,0,.48-.67V218A.83.83,0,0,1,118.82,218.67Z"/><path class="cls-26" d="M118.81,217.33l-1.66-1a2.56,2.56,0,0,0-2.32,0l-2.68,1.57a.72.72,0,0,0-.44.9.74.74,0,0,0,.44.44l1.65,1a2.56,2.56,0,0,0,2.32,0l2.69-1.57C119.46,218.3,119.45,217.7,118.81,217.33Z"/><path class="cls-25" d="M112.88,215.25l-2.68,1.56a2.56,2.56,0,0,1-2.32,0l-1.66-1a.83.83,0,0,1-.48-.67V216a.83.83,0,0,0,.48.67l1.66,1a2.56,2.56,0,0,0,2.32,0l2.68-1.56a.88.88,0,0,0,.48-.67v-.77A.85.85,0,0,1,112.88,215.25Z"/><path class="cls-26" d="M112.87,213.9l-1.65-1a2.5,2.5,0,0,0-2.32,0l-2.69,1.56a.72.72,0,0,0-.44.9.74.74,0,0,0,.44.44l1.66,1a2.56,2.56,0,0,0,2.32,0l2.68-1.56a.72.72,0,0,0,.44-.9A.74.74,0,0,0,112.87,213.9Z"/><path class="cls-23" d="M107,211.82l-2.68,1.57a2.56,2.56,0,0,1-2.32,0l-1.66-.95a.83.83,0,0,1-.48-.68v.77a.82.82,0,0,0,.49.68l1.65,1a2.56,2.56,0,0,0,2.32,0l2.68-1.57a.83.83,0,0,0,.48-.67v-.77A.79.79,0,0,1,107,211.82Z"/><path class="cls-20" d="M106.94,210.47l-1.66-.95a2.56,2.56,0,0,0-2.32,0l-2.68,1.57a.72.72,0,0,0-.44.9.74.74,0,0,0,.44.44l1.66.95a2.56,2.56,0,0,0,2.32,0l2.68-1.57a.72.72,0,0,0,.44-.9A.74.74,0,0,0,106.94,210.47Z"/><path class="cls-23" d="M101,208.4,98.33,210A2.58,2.58,0,0,1,96,210l-.47-.27a.84.84,0,0,1-.48-.68v.77a.83.83,0,0,0,.48.68l.47.27a2.56,2.56,0,0,0,2.32,0l2.68-1.56a.83.83,0,0,0,.48-.67v-.77A.8.8,0,0,1,101,208.4Z"/><path class="cls-20" d="M101,207.05l-.47-.27a2.56,2.56,0,0,0-2.32,0l-2.68,1.57a.72.72,0,0,0-.44.9.74.74,0,0,0,.44.44L96,210a2.56,2.56,0,0,0,2.32,0l2.68-1.6a.71.71,0,0,0,.46-.88h0A.72.72,0,0,0,101,207.05Z"/><path class="cls-27" d="M123.89,229.45,121.21,231a2.56,2.56,0,0,1-2.32,0l-1.65-1a.82.82,0,0,1-.49-.67v.77a.83.83,0,0,0,.48.67l1.66,1a2.56,2.56,0,0,0,2.32,0l2.68-1.56a.83.83,0,0,0,.48-.67v-.77A.83.83,0,0,1,123.89,229.45Z"/><path class="cls-9" d="M123.89,228.1l-1.66-1a2.5,2.5,0,0,0-2.32,0l-2.68,1.56a.72.72,0,0,0-.44.9.74.74,0,0,0,.44.44l1.65,1a2.56,2.56,0,0,0,2.32,0l2.68-1.56a.71.71,0,0,0,.44-.9A.7.7,0,0,0,123.89,228.1Z"/><path class="cls-23" d="M118,226l-2.68,1.57a2.56,2.56,0,0,1-2.32,0l-1.66-1a.83.83,0,0,1-.48-.68v.77a.83.83,0,0,0,.48.68l1.66.95a2.56,2.56,0,0,0,2.32,0l2.68-1.57a.8.8,0,0,0,.47-.67v-.77A.82.82,0,0,1,118,226Z"/><path class="cls-20" d="M118,224.67l-1.66-.95a2.56,2.56,0,0,0-2.32,0l-2.68,1.57a.72.72,0,0,0-.44.9.74.74,0,0,0,.44.44l1.66,1a2.56,2.56,0,0,0,2.32,0L118,226a.71.71,0,0,0,0-1.33Z"/><path class="cls-23" d="M112,222.6l-2.68,1.56a2.56,2.56,0,0,1-2.32,0l-1.65-1a.82.82,0,0,1-.49-.68v.78a.83.83,0,0,0,.48.67l1.66,1a2.56,2.56,0,0,0,2.32,0l2.68-1.56a.83.83,0,0,0,.48-.67v-.77A.83.83,0,0,1,112,222.6Z"/><path class="cls-20" d="M112,221.25l-1.66-1a2.56,2.56,0,0,0-2.32,0l-2.68,1.57a.72.72,0,0,0-.44.9.74.74,0,0,0,.44.44l1.65,1a2.56,2.56,0,0,0,2.32,0L112,222.6a.71.71,0,0,0,.46-.88h0A.72.72,0,0,0,112,221.25Z"/><path class="cls-23" d="M106.09,219.17l-2.68,1.56a2.56,2.56,0,0,1-2.32,0l-1.66-1a.83.83,0,0,1-.48-.67v.77a.83.83,0,0,0,.48.67l1.66,1a2.56,2.56,0,0,0,2.32,0l2.68-1.56a.8.8,0,0,0,.47-.67v-.77A.85.85,0,0,1,106.09,219.17Z"/><path class="cls-20" d="M106.08,217.82l-1.65-1a2.56,2.56,0,0,0-2.32,0l-2.69,1.56a.72.72,0,0,0-.44.9.74.74,0,0,0,.44.44l1.66,1a2.56,2.56,0,0,0,2.32,0l2.68-1.56a.72.72,0,0,0,.44-.9A.74.74,0,0,0,106.08,217.82Z"/><path class="cls-23" d="M100.16,215.74l-2.69,1.57a2.56,2.56,0,0,1-2.32,0l-1.65-1a.81.81,0,0,1-.48-.68v.77a.82.82,0,0,0,.49.68l1.65,1a2.56,2.56,0,0,0,2.32,0l2.68-1.57a.81.81,0,0,0,.48-.66v-.78A.83.83,0,0,1,100.16,215.74Z"/><path class="cls-20" d="M100.15,214.4l-1.66-1a2.56,2.56,0,0,0-2.32,0L93.49,215a.72.72,0,0,0-.44.9.74.74,0,0,0,.44.44l1.65,1a2.56,2.56,0,0,0,2.32,0l2.69-1.57a.71.71,0,0,0,.5-.87A.74.74,0,0,0,100.15,214.4Z"/><path class="cls-23" d="M94.22,212.32l-2.68,1.56a2.56,2.56,0,0,1-2.32,0l-.47-.27a.83.83,0,0,1-.48-.68v.77a.83.83,0,0,0,.48.68l.47.27a2.56,2.56,0,0,0,2.32,0l2.68-1.56a.83.83,0,0,0,.48-.67v-.77A.83.83,0,0,1,94.22,212.32Z"/><path class="cls-20" d="M94.21,211l-.47-.27a2.56,2.56,0,0,0-2.32,0l-2.68,1.57a.72.72,0,0,0-.44.9.74.74,0,0,0,.44.44l.47.27a2.56,2.56,0,0,0,2.32,0l2.68-1.56a.71.71,0,0,0,.46-.88h0A.72.72,0,0,0,94.21,211Z"/></g><path class="cls-8" d="M54.54,211.19l-1.35.79-.4.87,5.57,3.21,49,28.35.94.53,8.69,3.51c2.61,1.05,2.3,1,1-.16-.2-.19-4.7-4.21-4.92-4.37-3.24-1.85-47.87-27.66-51.28-29.63L56.06,211Z"/><path class="cls-8" d="M44.91,218.67l5.57,3.21,34.88,20.2.94.52c6,2.41,3.21,1.14,7.83,3,1.31.53,1.66.42,1-.16-.2-.18-3.84-3.71-4.06-3.86-3.24-1.85-33.74-19.51-37.15-21.48l-5.76-3.33C46.5,215.81,43.63,217.78,44.91,218.67Z"/><path class="cls-28" d="M119.06,246.35l1.48,1.34s0,.09-.12.07l-2.32-.85Z"/><polygon class="cls-29" points="59.73 214.45 111.11 244.22 111.11 243.12 59.73 213.35 59.73 214.45"/><polygon class="cls-30" points="59.92 213.46 59.92 214.55 54.91 211.66 54.91 210.55 59.92 213.46"/><polygon class="cls-31" points="59.73 211.78 59.73 213.35 111.11 243.12 111.78 241.94 59.73 211.78"/><polygon class="cls-32" points="54.91 210.55 55.58 209.38 60.59 212.28 59.91 213.44 54.91 210.55"/><polygon class="cls-33" points="59.73 210.66 59.73 211.78 111.78 241.94 112.75 241.38 59.73 210.66"/><polygon class="cls-34" points="55.58 209.38 56.55 208.82 61.53 211.71 60.58 212.26 55.58 209.38"/><path class="cls-35" d="M110.46,241.77l3,.15a4.6,4.6,0,0,1,1.64.82l4.56,4.11c-.54-.31-.84.13-.65.38l-7.08-2.58c-.28-.2-.71-.38-.79-.63l-1-2.06Z"/><g class="cls-36"><path class="cls-37" d="M111.92,244.66l-2.06-1.18,3.26-1.89,1.77,1c-.74.24-1.23,0-1.48.16s1.3,1.17.29,1.36a4,4,0,0,1-1.73-.36c-.14,0-.32-.09-.37,0S112.07,244.19,111.92,244.66Z"/></g><path class="cls-31" d="M114.41,242.33c-.18.42-.85.17-1.11.35s1.35,1.21.29,1.37a4.79,4.79,0,0,1-1.66-.39c-.15,0-.39-.06-.44,0-.15.24.5.51.41,1l-4.19-2.49,2.08-2.49Z"/><path class="cls-33" d="M109.79,239.67l1.25.72,3.36,2c-.18.41-.84.16-1.1.34a.11.11,0,0,0,0,.11l-4.54-2.63Z"/><path class="cls-29" d="M108.24,241.45l4,2.3-.29-.09c-.15,0-.39-.06-.44,0-.15.24.5.51.41,1L107,241.83Z"/><path class="cls-8" d="M108.83,124.05l-12,6.93L70.17,146.37c.47,4.25-.63,8.77-3.86,11.7-5.07,4.61-11.07,2-16.66.15L36,166.08,0,186.88l10.46,6H34.52L35.1,186H46.53l.57-6.92H58.51l.58-6.94H70.54l.57-6.93H82.53l.58-6.93H94.54l.58-6.94h11.44l.58-7h11.45l.58-6.94h11.44l2.27-27.28Z"/><path class="cls-38" d="M95.27,243.54a.38.38,0,0,0,.2.39.57.57,0,0,0,.46-.05c.41-.22.74-1,.34-1.31a.38.38,0,0,0-.43,0A1.29,1.29,0,0,0,95.27,243.54Z"/><path class="cls-39" d="M47.06,216.38v-.13a3.5,3.5,0,0,1,.12-.63v-.1a2.57,2.57,0,0,1,.21-.52.54.54,0,0,1,.07-.13,2.11,2.11,0,0,1,.26-.4l.08-.12a2.89,2.89,0,0,1,.35-.35l.11-.09a1.9,1.9,0,0,1,.37-.26,1.53,1.53,0,0,1,1.44-.1c.29.15,23.8,13.73,37.14,22.48A82.54,82.54,0,0,1,95,241.5l.18.17a.6.6,0,0,1,.14.42,1.57,1.57,0,0,1-.73,1.21.56.56,0,0,1-.44.06h-.21l-.81-.31c-1.09-.44-2.85-1.23-6.32-3-3.27-1.7-8.06-4.3-15.21-8.36C61.22,225.81,48,218,47.74,217.82h-.05a1.24,1.24,0,0,1-.4-.48.66.66,0,0,1-.09-.19v-.07a1.36,1.36,0,0,1-.06-.29v-.3Z"/><path class="cls-40" d="M94.58,241.66a.47.47,0,0,1,.53,0l1.16.92a.38.38,0,0,0-.43,0,1.26,1.26,0,0,0-.57,1,.38.38,0,0,0,.19.39l-1.36-.57c-.16-.06-.25-.23-.25-.49A1.53,1.53,0,0,1,94.58,241.66Z"/><path class="cls-40" d="M96,242.78a.3.3,0,0,1,.36,0l1.13,1.07a.14.14,0,0,0-.15,0,.43.43,0,0,0-.21.34.14.14,0,0,0,.08.14l-1.49-.47c-.11,0-.18-.15-.17-.32A1,1,0,0,1,96,242.78Z"/><path class="cls-41" d="M97.31,243.86a.14.14,0,0,1,.15,0c.12.11.21.19.23.28a.22.22,0,0,1-.09.24c-.12.06-.24,0-.42,0a.14.14,0,0,1-.08-.14A.45.45,0,0,1,97.31,243.86Z"/><polygon class="cls-42" points="49.71 215.65 64.88 224.4 66.13 223.68 50.97 214.92 49.71 215.65"/><polygon class="cls-43" points="52.79 216.21 53.78 215.63 50.94 215.03 49.95 215.6 52.79 216.21"/><polygon class="cls-44" points="64.99 223.55 65.99 222.97 65.99 222.68 65 223.26 64.99 223.55"/><polygon class="cls-45" points="65 223.26 65.99 222.68 53.78 215.63 52.79 216.21 65 223.26"/><polygon class="cls-46" points="52.79 216.21 49.95 215.6 53.43 217.62 54.08 217.25 64.99 223.55 65 223.26 52.79 216.21"/><polygon class="cls-4" points="142.59 130.51 133.72 125.36 133.81 109.43 142.69 114.59 142.59 130.51"/><polygon class="cls-4" points="142.69 114.59 133.81 109.43 144.16 103.46 153.03 108.62 142.69 114.59"/><polygon class="cls-9" points="153.03 108.62 152.94 124.54 142.59 130.51 142.69 114.59 153.03 108.62"/><polygon class="cls-47" points="144.16 103.46 133.81 109.43 133.72 125.36 142.59 130.51 152.94 124.54 153.03 108.62 144.16 103.46"/><polygon class="cls-4" points="130.59 137.45 121.72 132.29 121.78 108.13 130.66 113.29 130.59 137.45"/><polygon class="cls-4" points="130.66 113.29 121.78 108.13 132.13 102.16 141 107.31 130.66 113.29"/><polygon class="cls-9" points="141 107.31 140.93 131.47 130.59 137.45 130.66 113.29 141 107.31"/><polygon class="cls-48" points="132.13 102.16 123.94 106.89 132.82 112.04 132.75 136.2 140.93 131.47 141 107.31 132.13 102.16"/><polygon class="cls-4" points="118.58 144.39 109.71 139.23 109.74 100.17 118.61 105.32 118.58 144.39"/><polygon class="cls-4" points="118.61 105.32 109.74 100.17 120.08 94.2 128.95 99.35 118.61 105.32"/><polygon class="cls-9" points="128.95 99.35 128.92 138.42 118.58 144.39 118.61 105.32 128.95 99.35"/><polygon class="cls-4" points="106.58 151.32 97.7 146.16 97.64 74.62 106.51 79.78 106.58 151.32"/><polygon class="cls-4" points="106.51 79.78 97.64 74.62 107.98 68.65 116.85 73.81 106.51 79.78"/><polygon class="cls-9" points="116.85 73.81 116.92 145.35 106.58 151.32 106.51 79.78 116.85 73.81"/><polygon class="cls-4" points="94.57 158.25 85.69 153.1 85.67 94.93 94.54 100.09 94.57 158.25"/><polygon class="cls-4" points="94.54 100.09 85.67 94.93 96.01 88.96 104.88 94.12 94.54 100.09"/><polygon class="cls-9" points="104.88 94.12 104.91 152.28 94.57 158.25 94.54 100.09 104.88 94.12"/><polygon class="cls-4" points="82.55 165.19 73.82 160.03 73.7 117.53 82.57 122.69 82.55 165.19"/><polygon class="cls-4" points="82.57 122.69 73.7 117.53 84.04 111.56 92.92 116.71 82.57 122.69"/><polygon class="cls-9" points="92.92 116.71 92.9 159.22 82.55 165.19 82.57 122.69 92.92 116.71"/><polygon class="cls-4" points="70.54 172.12 61.67 166.97 61.72 134.54 70.59 139.69 70.54 172.12"/><polygon class="cls-4" points="70.59 139.69 61.72 134.54 72.06 128.56 80.94 133.72 70.59 139.69"/><polygon class="cls-9" points="80.94 133.72 80.89 166.15 70.54 172.12 70.59 139.69 80.94 133.72"/><polygon class="cls-4" points="58.53 179.06 49.66 173.9 49.76 157.98 58.63 163.13 58.53 179.06"/><polygon class="cls-4" points="58.63 163.13 49.76 157.98 60.1 152 68.97 157.16 58.63 163.13"/><polygon class="cls-9" points="68.97 157.16 68.88 173.08 58.53 179.06 58.63 163.13 68.97 157.16"/><polygon class="cls-4" points="46.53 185.99 37.66 180.83 37.72 156.68 46.59 161.83 46.53 185.99"/><polygon class="cls-4" points="46.59 161.83 37.72 156.68 48.07 150.7 56.94 155.86 46.59 161.83"/><polygon class="cls-9" points="56.94 155.86 56.87 180.01 46.53 185.99 46.59 161.83 56.94 155.86"/><polygon class="cls-4" points="34.52 192.92 25.65 187.77 25.69 154.86 34.56 160.01 34.52 192.92"/><polygon class="cls-4" points="34.56 160.01 25.69 154.86 36.04 148.88 44.91 154.04 34.56 160.01"/><polygon class="cls-9" points="44.91 154.04 44.87 186.95 34.52 192.92 34.56 160.01 44.91 154.04"/><g class="cls-49"><polygon class="cls-20" points="225.7 63.78 215 69.95 215 69.63 225.7 63.45 225.7 63.78"/><polygon class="cls-20" points="225.7 71.79 215 77.97 215 77.65 225.7 71.47 225.7 71.79"/><polygon class="cls-20" points="225.7 79.81 215 85.98 215 85.66 225.7 79.49 225.7 79.81"/><polygon class="cls-20" points="225.7 87.82 215 94 215 93.68 225.7 87.5 225.7 87.82"/><polygon class="cls-20" points="225.7 95.84 215 102.02 215 101.69 225.7 95.52 225.7 95.84"/></g><g class="cls-49"><polygon class="cls-20" points="252.46 54.38 241.77 60.56 241.77 60.24 252.46 54.06 252.46 54.38"/><polygon class="cls-20" points="252.46 62.4 241.77 68.58 241.77 68.25 252.46 62.08 252.46 62.4"/><polygon class="cls-20" points="252.46 70.41 241.77 76.59 241.77 76.27 252.46 70.09 252.46 70.41"/><polygon class="cls-20" points="252.46 78.43 241.77 84.61 241.77 84.28 252.46 78.11 252.46 78.43"/><polygon class="cls-20" points="252.46 86.44 241.77 92.62 241.77 92.3 252.46 86.12 252.46 86.44"/></g></g></g></g><g id="Rob"><path class="cls-50" d="M87.38,133.17l.6-2a15.75,15.75,0,0,0,2.57,0c.73-.11,1.9-3.36,2.07-3.7s-.35-1.07-.6-.78-1.85,2.53-1.85,2.53a50.34,50.34,0,0,0-5.34-.56c-.41.15-1.17,3.29-1.17,3.29Z"/><path class="cls-8" d="M34.81,225.91C17,231.55,31.52,252.24,58,244.67,74.51,240,62.75,217.08,34.81,225.91Z"/><path class="cls-51" d="M53.81,227.43a.15.15,0,0,1,.18,0,.14.14,0,0,1-.06.18.11.11,0,0,1-.14-.18l0,0h0"/><path class="cls-9" d="M81.78,133.4l4.88,2.19s-7.62,10.88-9.2,12.63-17,3.93-17,3.93l-.74-6.44,13.14-2.24Z"/><path class="cls-51" d="M76.76,148.73c-.06-.34-.14-.67-.23-1a7.09,7.09,0,0,0-.38-1,7.34,7.34,0,0,0-.67-1.15,8.48,8.48,0,0,0-.89-1,7.82,7.82,0,0,0-.85-.67c-.52-.34-.88-.49-.87-.52a1.14,1.14,0,0,1,.26.09,4.17,4.17,0,0,1,.67.33,5.26,5.26,0,0,1,.89.66,6.7,6.7,0,0,1,.92,1,6,6,0,0,1,.68,1.18,5.72,5.72,0,0,1,.35,1.06,4.57,4.57,0,0,1,.12.74A1.31,1.31,0,0,1,76.76,148.73Z"/><path class="cls-51" d="M75.75,146.27a2.19,2.19,0,0,1-.49.17l-1.35.39c-1.15.31-2.75.71-4.53,1.08s-3.4.66-4.57.83c-.59.09-1.07.16-1.4.19h-.52a3.1,3.1,0,0,1,.51-.11l1.39-.24c1.17-.21,2.78-.51,4.56-.88s3.37-.75,4.53-1l1.37-.33A2.77,2.77,0,0,1,75.75,146.27Z"/><path class="cls-51" d="M83,134.11s-1.94,2.32-4.41,5.11-4.5,5-4.53,5,1.94-2.32,4.41-5.12S83,134.08,83,134.11Z"/><path class="cls-51" d="M76.81,141.84a.13.13,0,0,1,.18,0h0a.15.15,0,0,1-.11.16.16.16,0,0,1-.17-.11.2.2,0,0,1,.06-.14"/><path class="cls-51" d="M68.82,147a.13.13,0,0,1,.14.22h0a.13.13,0,0,1-.12,0,.14.14,0,0,1,0-.19h0"/><path class="cls-51" d="M72.66,146.17a.13.13,0,0,1,.18,0h0a.14.14,0,0,1,0,.19.12.12,0,0,1-.14,0,.17.17,0,0,1,0-.21h0"/><path class="cls-51" d="M79,139.39a.15.15,0,0,1,.19.07h0a.14.14,0,0,1-.14.14h0a.14.14,0,0,1,0-.19h0"/><path class="cls-51" d="M81.28,136.8a.13.13,0,0,1,.18,0h0a.15.15,0,0,1-.11.16.16.16,0,0,1-.17-.11.2.2,0,0,1,.06-.14"/><g class="cls-52"><path class="cls-51" d="M72.11,144.12c0,.23-2,.74-4.43,1.14s-4.51.54-4.55.32,1.94-.74,4.42-1.14S72.07,143.9,72.11,144.12Z"/></g><path class="cls-51" d="M65.49,147.62a.15.15,0,0,1,.18,0,.14.14,0,0,1-.06.18.11.11,0,0,1-.14-.18l0,0h0"/><path class="cls-53" d="M58.37,144.77a3.49,3.49,0,0,1,3.77,1.11,4.39,4.39,0,0,1,.75,4,7.22,7.22,0,0,1-3.39,3.67"/><path class="cls-54" d="M59.5,153.34a8.09,8.09,0,0,0,1-1.11,4.66,4.66,0,0,0,.94-3.34,7.12,7.12,0,0,0-1.13-3.34,2.56,2.56,0,0,0-.71-.79,1.22,1.22,0,0,0-.37-.16h.11a1,1,0,0,1,.29.1,2.21,2.21,0,0,1,.77.78,6.84,6.84,0,0,1,1.2,3.4,5.22,5.22,0,0,1-.21,2,4.69,4.69,0,0,1-.8,1.43,5.68,5.68,0,0,1-.76.79A2,2,0,0,1,59.5,153.34Z"/><path class="cls-53" d="M81.78,133.4a33.28,33.28,0,0,0,4.15,2.25c.57.26,1.28.51,1.79.14a1.21,1.21,0,0,0,.4-1.22,2.72,2.72,0,0,0-.68-1.17,7.54,7.54,0,0,0-3.5-2.19,3.1,3.1,0,0,0-1.48-.12,1.44,1.44,0,0,0-1.09.93,1.22,1.22,0,0,0,.41,1.38"/><path class="cls-54" d="M87.91,135.19a7.21,7.21,0,0,0-.64-.92A6,6,0,0,0,82.6,132c-.7,0-1.12.08-1.13.05a1.11,1.11,0,0,1,.3-.08,5.56,5.56,0,0,1,.82-.09,5.65,5.65,0,0,1,4.77,2.35,4.68,4.68,0,0,1,.44.71A1.12,1.12,0,0,1,87.91,135.19Z"/><path class="cls-53" d="M56.44,168.39a4.34,4.34,0,0,1-1.69,1,14.23,14.23,0,0,1-2,.67,18.58,18.58,0,0,1-2.57.41,16.25,16.25,0,0,1-2.61,0,14.86,14.86,0,0,1-2.1-.36c-1.17-.3-1.84-.65-1.81-.75a6.55,6.55,0,0,1,1.92.17c.58.08,1.27.14,2,.18s1.61,0,2.5,0a12.87,12.87,0,0,0,2.47-.33c.82-.15,1.43-.31,2-.47C55.69,168.52,56.38,168.28,56.44,168.39Z"/><path class="cls-53" d="M56,170.15c0,.1-.55.42-1.58.76a17.94,17.94,0,0,1-8.33.6c-1.06-.18-1.69-.42-1.67-.52s2.63.13,5.81-.12S55.94,169.91,56,170.15Z"/><path class="cls-9" d="M44.49,123.27S34,125.21,34.12,134.62s9,7.83,11.61,7.49c1.17-.15,3.51-.48,5.71-.8,4.67-.67,8.16-2.94,8.43-7.65a9.2,9.2,0,0,0,0-1.66C59.15,127,54.52,121,44.49,123.27Z"/><path class="cls-53" d="M55.83,132.7l-13.41,2.85a2.59,2.59,0,0,1-3.08-2h0a2.59,2.59,0,0,1,2-3.08h0l13.41-2.85a2.61,2.61,0,0,1,3.08,2h0A2.6,2.6,0,0,1,55.83,132.7Z"/><circle class="cls-51" cx="44.23" cy="132.72" r="0.83"/><circle class="cls-51" cx="53.6" cy="130.73" r="0.83"/><path class="cls-51" d="M48.58,128.23a8.1,8.1,0,0,1-.45-.94,9,9,0,0,0-1.3-2.14,4.75,4.75,0,0,0-2-1.48,7,7,0,0,0-1-.25.66.66,0,0,1,.28,0,3.3,3.3,0,0,1,.76.15A4.49,4.49,0,0,1,47,125.05a8.17,8.17,0,0,1,1.28,2.19c.12.3.21.55.27.72A.63.63,0,0,1,48.58,128.23Z"/><path class="cls-51" d="M48.92,141.67a9.23,9.23,0,0,0,.65-.86,5.93,5.93,0,0,0,.92-2.39,9.36,9.36,0,0,0,0-2.59,8,8,0,0,1-.14-1.08,1.31,1.31,0,0,1,.09.28l.17.78a9.27,9.27,0,0,1,.07,2.63,5.46,5.46,0,0,1-1,2.44,6,6,0,0,1-.52.61C49,141.62,48.93,141.68,48.92,141.67Z"/><g class="cls-52"><path d="M58.68,137.59a8.33,8.33,0,0,0-4.09-1.24,20.65,20.65,0,0,0-4.3.29c-3.29.5-6.66,1.27-9.33,3.27a5.14,5.14,0,0,0-1.8,2.12,10.47,10.47,0,0,0,4.24.39c2.82-.19,8.64-1.2,8.64-1.2a12.94,12.94,0,0,0,4.65-1.76A7.24,7.24,0,0,0,58.68,137.59Z"/></g><path class="cls-51" d="M58.65,129.35a2.07,2.07,0,0,1,.12.49,3.07,3.07,0,0,1-.13,1.41A3.22,3.22,0,0,1,57.21,133a9.13,9.13,0,0,1-2.82,1l-7.59,1.66-2.19.48c-.75.15-1.51.35-2.31.45a3.56,3.56,0,0,1-2.39-.4,3.48,3.48,0,0,1-1.48-2,3.42,3.42,0,0,1,.29-2.49,3.73,3.73,0,0,1,1.8-1.64,5.71,5.71,0,0,1,1.14-.33l1.13-.27L45,129l4-.94c1.27-.27,2.43-.63,3.52-.85a10.39,10.39,0,0,1,1.57-.21,5.54,5.54,0,0,1,1.41,0,4.37,4.37,0,0,1,2.07.86,3.14,3.14,0,0,1,.89,1.12,3.42,3.42,0,0,1,.13.34v.12s-.06-.16-.2-.45a3.23,3.23,0,0,0-.9-1.08,4.3,4.3,0,0,0-2-.82,5.39,5.39,0,0,0-1.39,0,11.59,11.59,0,0,0-1.55.23c-1.08.22-2.24.58-3.51.86l-4,1-2.18.52-1.13.26a7.2,7.2,0,0,0-1.12.33,3.57,3.57,0,0,0-1.71,1.57A3.05,3.05,0,0,0,40,136a3.51,3.51,0,0,0,2.29.38c.78-.1,1.54-.29,2.29-.45l2.2-.47,7.59-1.62a9.56,9.56,0,0,0,2.81-.92,3.25,3.25,0,0,0,1.41-1.67,3,3,0,0,0,.15-1.39C58.69,129.52,58.64,129.36,58.65,129.35Z"/><path class="cls-51" d="M34.26,136.18a2.74,2.74,0,0,1,.51-.45,11.3,11.3,0,0,1,1.41-.86,9.09,9.09,0,0,1,1.53-.58,2.16,2.16,0,0,1,.67-.14c0,.06-1,.31-2.13.87S34.29,136.22,34.26,136.18Z"/><path class="cls-51" d="M45.18,124.59a.15.15,0,0,1,.18,0,.14.14,0,0,1-.06.18.13.13,0,0,1-.17-.06.13.13,0,0,1,0-.12h0"/><path class="cls-51" d="M46.85,127a.15.15,0,0,1,.19.06h0a.15.15,0,0,1-.13.15h0a.14.14,0,0,1,0-.19h0"/><path class="cls-51" d="M36.76,133.84a.13.13,0,0,1,.18,0h0a.14.14,0,0,1-.14.14h0a.17.17,0,0,1,0-.21h0"/><path class="cls-51" d="M34.68,135a.13.13,0,0,1,.18,0v.06a.15.15,0,0,1-.13.15h0a.17.17,0,0,1,0-.21h0"/><g class="cls-52"><path class="cls-51" d="M47.33,123.42a10,10,0,0,1-2.42.87,19.63,19.63,0,0,0-5.44,2.56,11.14,11.14,0,0,0-2.32,2.28,9,9,0,0,0-1.28,2.34c-.52,1.44-.46,2.43-.6,2.44s-.13-.24-.16-.7a5.9,5.9,0,0,1,.2-1.92,8.34,8.34,0,0,1,1.21-2.6A10.56,10.56,0,0,1,39,126.18a13.8,13.8,0,0,1,3.08-1.64,19.54,19.54,0,0,1,2.7-.82A6.87,6.87,0,0,1,47.33,123.42Z"/></g><g class="cls-52"><path class="cls-51" d="M37.17,138.53c-.14.18-.74-.07-1.19-.69s-.48-1.28-.27-1.35.57.35.95.87S37.32,138.35,37.17,138.53Z"/></g><path class="cls-9" d="M59,143.64c.63.18.59,9.4.46,14.11-.08,2.52-.26,5.15-1.55,7.32a8.83,8.83,0,0,1-7,4.15,11.63,11.63,0,0,1-9-3.87,19.14,19.14,0,0,1-4.41-9,56.83,56.83,0,0,1-1-10.08S47.38,140.36,59,143.64Z"/><g class="cls-55"><path d="M37,150.72a24.84,24.84,0,0,0,1.4,8.88,16.31,16.31,0,0,0,5,7.13,15,15,0,0,0,2.22,1.39,9.74,9.74,0,0,0,2.09.78c1.19.35,1.89-1.12,2.12-2.34a4.52,4.52,0,0,0-.94-3.47,10.23,10.23,0,0,0-2.8-2.4A33.85,33.85,0,0,1,43,158.63a13.87,13.87,0,0,1-3.77-5.07,42.35,42.35,0,0,1-2.13-6"/></g><path class="cls-51" d="M44.76,163.3a.13.13,0,0,1,.18,0h0a.14.14,0,0,1-.14.14h0a.17.17,0,0,1,0-.21h0"/><path class="cls-51" d="M48.85,163.13a.13.13,0,1,1,.1.24h-.1a.17.17,0,0,1,0-.21h0"/><path class="cls-51" d="M53.31,158.92a.13.13,0,0,1,.18,0h0m0,.05a.14.14,0,0,1-.14.14h0a.17.17,0,0,1,0-.21h0"/><path class="cls-51" d="M51.26,148.5a.13.13,0,0,1,.18,0h0a.14.14,0,0,1-.14.14h0a.13.13,0,0,1,0-.18l0,0h0"/><path class="cls-51" d="M55.45,150.21a.15.15,0,0,1,.19.06h0a.13.13,0,0,1-.12.14h-.06a.14.14,0,0,1,0-.19h0"/><path class="cls-51" d="M40.13,162.09a.13.13,0,0,1,.18,0h0a.14.14,0,0,1-.14.14h0a.13.13,0,0,1,0-.18l0,0h0"/><path class="cls-51" d="M39.46,158.62a.15.15,0,0,1,.19.06h0a.15.15,0,0,1-.13.15h-.05a.14.14,0,0,1,0-.19h0"/><path class="cls-51" d="M39.16,155.48a.13.13,0,0,1,.18,0h0m0,.05a.15.15,0,0,1-.15.15h0a.17.17,0,0,1,0-.21h0"/><path class="cls-51" d="M38.86,152.15a.13.13,0,0,1,.18,0h0a.14.14,0,0,1-.14.14h0a.17.17,0,0,1,0-.21h0"/><path class="cls-51" d="M57.93,149.39a.13.13,0,1,1,.14.22h0a.11.11,0,0,1-.14-.18l0,0h0"/><path class="cls-51" d="M54,162.82a.13.13,0,0,1,.18,0h0A.14.14,0,0,1,54,163h0a.13.13,0,0,1,0-.18l0,0h0"/><path class="cls-51" d="M54.44,166.11a.13.13,0,0,1,.18,0h0a.15.15,0,0,1-.15.15h0a.17.17,0,0,1,0-.21h0"/><g class="cls-52"><path class="cls-51" d="M56.42,146.12a7.84,7.84,0,0,1-2.64,1q-1.48.39-3,.63a36,36,0,0,1-3.75.35,31.48,31.48,0,0,1-3.76-.1,30.06,30.06,0,0,1-3-.42,8.1,8.1,0,0,1-2.71-.82c0-.25,4.24.71,9.48.51S56.35,145.88,56.42,146.12Z"/></g><path class="cls-51" d="M44.38,167.43l-.17-.14c-.11-.09-.27-.24-.47-.43A6.84,6.84,0,0,1,42.4,165a9.12,9.12,0,0,1-.53-1.52c-.17-.56-.33-1.15-.5-1.78-.33-1.25-.66-2.64-.95-4.12a67.1,67.1,0,0,1-1.06-7.6c-.07-1-.12-1.77-.14-2.32v-.85a.81.81,0,0,1,0,.22v.63c0,.55.1,1.34.19,2.31a72.08,72.08,0,0,0,1.1,7.58c.29,1.47.61,2.86.94,4.11.16.63.32,1.22.48,1.78a9.93,9.93,0,0,0,.51,1.51,6.62,6.62,0,0,0,1.28,1.9l.44.46C44.33,167.37,44.39,167.42,44.38,167.43Z"/><path class="cls-51" d="M51.79,157.28c.05,0,.39,2.53.77,5.67s.65,5.67.6,5.68-.39-2.53-.77-5.66S51.75,157.29,51.79,157.28Z"/><path class="cls-51" d="M47,143l.23.23c.14.15.33.38.57.66.48.57,1.14,1.35,1.85,2.22l.26.33h0m0,.05v.07h0v.21a3.29,3.29,0,0,0,.06.77v2.17a.86.86,0,0,1,0,.32,9.39,9.39,0,0,1-.1-1.19l-.08-1.3a3.25,3.25,0,0,0-.06-.76v-.19h0v-.07l-.27-.32c-.71-.87-1.35-1.67-1.81-2.25-.22-.29-.41-.53-.53-.7A1.15,1.15,0,0,1,47,143Z"/><path class="cls-51" d="M52.08,162.09a1.77,1.77,0,0,1-.4.08c-.26.05-.63.1-1.1.16-.93.11-2.22.24-3.64.31s-2.72.08-3.66.06H42.17a1.34,1.34,0,0,1-.4,0h1.51c.94,0,2.23,0,3.65-.11s2.71-.17,3.64-.26l1.1-.1Z"/><path class="cls-51" d="M59.46,149.79l-.21.16-.64.35a13.91,13.91,0,0,1-2.25.86,19,19,0,0,1-2.35.53,4.19,4.19,0,0,1-1,.09,8.45,8.45,0,0,1,1-.21c.6-.12,1.42-.3,2.32-.57a17.73,17.73,0,0,0,2.25-.81C58.88,150.07,59.17,149.94,59.46,149.79Z"/><circle class="cls-53" cx="50.74" cy="153.66" r="3.73"/><circle class="cls-51" cx="51.19" cy="153.46" r="2.72"/><path class="cls-9" d="M52.18,154.25a3.47,3.47,0,0,1-.06-.45c0-.28-.06-.68-.1-1.17v.05L50.6,152h.08l-1.35.89c0,.07.05-.09,0-.07h0v1.53l1.44.74h-.06l1-.61a1.87,1.87,0,0,1,.39-.22l-.34.25c-.22.17-.56.4-1,.69h0l-1.46-.71h0v-1.64h0s.07-.14,0-.08l1.35-.88h0l1.44.74h0v1.19A3,3,0,0,1,52.18,154.25Z"/><g class="cls-55"><path d="M36.46,146.26s10.93-6,22.5-2.62C59,143.64,54,148.35,36.46,146.26Z"/></g><path class="cls-51" d="M54.07,219.71a.15.15,0,0,1,.18,0,.14.14,0,0,1-.06.18.11.11,0,0,1-.14-.18l0,0h0"/><path class="cls-9" d="M49.32,178.82a100.85,100.85,0,0,0,3,23.07,8.05,8.05,0,0,0,1.67,3.6,2.87,2.87,0,0,0,3.62.59A4.22,4.22,0,0,0,58.83,203a239.09,239.09,0,0,0,1.65-25.09s.24-6.41-4.28-6.4S49.2,174.06,49.32,178.82Z"/><g class="cls-55"><path d="M52.48,172.2a1.79,1.79,0,0,1,2.4-.08A3.43,3.43,0,0,1,56,174.47c.32,2.79-1,5.47-1.53,8.23s-.12,5.39-.24,8.09-.73,5.45-2.84,7.14c0,0-2-10.4-1.75-14.37C49.82,180.67,52.48,172.2,52.48,172.2Z"/></g><path class="cls-51" d="M53.08,182.69a1,1,0,0,1,0,.24l.08.7.26,2.56c.22,2.16.55,5.14,1,8.43s.87,6.25,1.2,8.4l.39,2.54.1.69v.25a1.05,1.05,0,0,1-.06-.24l-.13-.69c-.12-.59-.27-1.46-.45-2.53-.36-2.14-.82-5.11-1.24-8.4s-.73-6.28-.93-8.44c-.1-1.08-.17-2-.21-2.57v-.69C53.08,182.78,53.08,182.69,53.08,182.69Z"/><path class="cls-53" d="M46.42,184.44A5.47,5.47,0,0,0,53,182.5c1.46-2.13,1.92-4.78,2.34-7.33a3.23,3.23,0,0,0-.28-2.51c-.61-.78-1.76-.82-2.75-.79l-9.44.31s-3.43,1-3.43,3S43.54,183,46.42,184.44Z"/><path class="cls-9" d="M54.54,207.22a2.79,2.79,0,0,0-2.27,1.8,8.07,8.07,0,0,0-.48,3c-.22,6.19-.44,12.39-.09,18.57a6.71,6.71,0,0,0,1,3.83c.82,1.06,2.57,1.5,3.5.53a3.54,3.54,0,0,0,.72-2.14l2.4-22.13a4,4,0,0,0-.25-2.46,2.71,2.71,0,0,0-2-1.17,7.44,7.44,0,0,0-2.4.21"/><path class="cls-51" d="M53.29,236.35v-.29c0-.19-.06-.48-.09-.84-.07-.73-.15-1.8-.21-3.11-.13-2.63-.11-6.27,0-10.29s.23-7.63.32-10.28a8.65,8.65,0,0,1,.53-3.06,5.51,5.51,0,0,1,.4-.76l.13-.17h0l-.12.18a5.33,5.33,0,0,0-.37.76,9.28,9.28,0,0,0-.48,3c-.07,2.64-.16,6.27-.27,10.28S53,229.41,53.06,232c0,1.32.11,2.38.16,3.11l.06.85v.35Z"/><path class="cls-53" d="M52.27,236.85a7.58,7.58,0,0,1-.09-1.9A2.43,2.43,0,0,1,53,233.3a2.66,2.66,0,0,1,1.39-.47,2.6,2.6,0,0,1,1.43.2A2.43,2.43,0,0,1,57,234.89l.48,2.31"/><path class="cls-9" d="M52.08,236.74l5.49.06s4,.91,4,1.24S52,238,52,238Z"/><path class="cls-54" d="M50.71,172.17a3,3,0,0,1,.19.5,4,4,0,0,1,.17.59c.06.24.14.5.19.8a8.31,8.31,0,0,1,.15,1c.06.35.07.74.1,1.14a15.31,15.31,0,0,1-.16,2.62,13.9,13.9,0,0,1-.64,2.54c-.15.37-.28.74-.45,1.06-.08.16-.15.32-.23.46l-.23.42a8.18,8.18,0,0,1-.45.69,5.74,5.74,0,0,1-.36.5,2.64,2.64,0,0,1-.35.4,4.17,4.17,0,0,1,.29-.44,3.54,3.54,0,0,0,.35-.51c.12-.2.28-.43.41-.7l.23-.42.22-.46c.15-.32.28-.68.42-1a14.31,14.31,0,0,0,.79-5.11,6.07,6.07,0,0,0-.07-1.13c-.07-.36-.09-.68-.14-1s-.11-.56-.16-.8-.1-.43-.14-.6A3.39,3.39,0,0,1,50.71,172.17Z"/><path class="cls-51" d="M55,190.7a.13.13,0,0,1,.18,0v.06a.15.15,0,0,1-.13.15h0a.17.17,0,0,1,0-.21h0"/><path class="cls-51" d="M55.82,197.52a.15.15,0,0,1,.19.06h0a.13.13,0,0,1-.12.14h-.06a.14.14,0,0,1,0-.19h0"/><path class="cls-51" d="M54.2,183.75a.13.13,0,0,1,.18,0v.06a.15.15,0,0,1-.13.15h0a.17.17,0,0,1,0-.21h0"/><path class="cls-51" d="M54.2,213.21a.13.13,0,0,1,.18,0v.06a.15.15,0,0,1-.13.15h0a.17.17,0,0,1,0-.21h0"/><path class="cls-54" d="M57.17,234.93a2.89,2.89,0,0,1-.71.27,9.25,9.25,0,0,1-1.81.3,9.35,9.35,0,0,1-1.83-.08,3,3,0,0,1-.73-.18,21.73,21.73,0,0,0,2.55.09A19.59,19.59,0,0,0,57.17,234.93Z"/><g class="cls-55"><path d="M51.51,225.89a8.36,8.36,0,0,0,2.91-4.45,24.8,24.8,0,0,0,.8-5.34,24,24,0,0,1,.82-5.34,2.38,2.38,0,0,0,.17-1.15,2,2,0,0,0-1.34-1.24,2.2,2.2,0,0,0-2.23-.11,2.27,2.27,0,0,0-.62,1.6,147.21,147.21,0,0,0-.46,16.27"/></g><circle class="cls-53" cx="56.24" cy="206.28" r="3.91"/><path class="cls-54" d="M59.93,205.72a1.21,1.21,0,0,1-.21.24,3.42,3.42,0,0,1-.69.51,5,5,0,0,1-2.74.62,10,10,0,0,1-2.76-.56c-.35-.11-.62-.21-.81-.29a1.39,1.39,0,0,1-.28-.12,7.11,7.11,0,0,1,1.12.3,12.15,12.15,0,0,0,2.74.51,5.4,5.4,0,0,0,2.68-.56A7.6,7.6,0,0,0,59.93,205.72Z"/><path class="cls-9" d="M15.64,143.21s-.76-3.14-1.17-3.29a50.34,50.34,0,0,0-5.34.56s-1.6-2.24-1.85-2.53-.77.44-.6.78,1.34,3.59,2.07,3.7a18.37,18.37,0,0,0,2.57,0l.6,2Z"/><path class="cls-9" d="M36.93,155.37c-3.1,1.13-5.09,1.71-8.2,2.87-1.73.64-3.92,1.35-5.55,1.77a5.29,5.29,0,0,1-3.38-.1A5.7,5.7,0,0,1,17.66,158c-2.76-3.65-4.3-8.28-5.37-12.73l3.73-.7L22.78,154l12.28-4.2,2,5a.37.37,0,0,1-.05.52Z"/><path class="cls-53" d="M37.06,147.48A4.36,4.36,0,0,0,35.57,155c.51.42,1.23.74,1.82.1a1.6,1.6,0,0,0,.39-.71A9.38,9.38,0,0,0,37.06,147.48Z"/><path class="cls-54" d="M35.18,148.67v-.07l.18-.17a.49.49,0,0,1,.17-.06.41.41,0,0,1,.22,0,.45.45,0,0,1,.2.16l.16.21a6.44,6.44,0,0,1,1.18,2.64,6,6,0,0,1-.08,2.89,1.66,1.66,0,0,1-.46.76c-.16.14-.28.17-.28.16a1.21,1.21,0,0,0,.24-.21,1.64,1.64,0,0,0,.39-.75,6.7,6.7,0,0,0,0-2.82,7.07,7.07,0,0,0-1.11-2.6c-.11-.15-.18-.31-.31-.35a.31.31,0,0,0-.32,0C35.26,148.59,35.19,148.69,35.18,148.67Z"/><path class="cls-51" d="M22.78,154a1.22,1.22,0,0,1,0,.27,4.82,4.82,0,0,1,0,.76,5.52,5.52,0,0,1-.71,2.41,5.83,5.83,0,0,1-1.7,1.83,3.86,3.86,0,0,1-.65.39.85.85,0,0,1-.26.11s.34-.21.84-.59a6.09,6.09,0,0,0,1.7-1.84,5.65,5.65,0,0,0,.53-1.24,6.43,6.43,0,0,0,.2-1.08C22.8,154.39,22.75,154,22.78,154Z"/><path class="cls-51" d="M34.47,150.94s-2.59,1.06-5.81,2.27-5.86,2.17-5.88,2.12,2.59-1.06,5.82-2.27S34.46,150.9,34.47,150.94Z"/><path class="cls-51" d="M13.5,145.14a.26.26,0,0,0,.07.15l.16.43c.13.37.33.91.59,1.58.5,1.32,1.27,3.14,2.24,5.08.49,1,1,1.87,1.45,2.69s.92,1.53,1.31,2.12c.19.3.38.57.54.8l.42.59.27.37c.06.09.09.14.08.14l-.11-.12-.29-.35c-.13-.16-.28-.35-.44-.58s-.37-.49-.56-.78c-.42-.58-.87-1.3-1.35-2.11s-1-1.73-1.47-2.7a50.09,50.09,0,0,1-2.2-5.11c-.25-.67-.43-1.22-.54-1.6l-.13-.44A.94.94,0,0,1,13.5,145.14Z"/><path class="cls-51" d="M25.2,155.14a.17.17,0,0,0,0-.21h0a.15.15,0,0,0-.2.07h0a.14.14,0,0,0,.14.14h0"/><path class="cls-51" d="M20,156.68a.14.14,0,0,0,0-.19h0a.13.13,0,0,0-.14.22h0a.13.13,0,0,0,.12,0"/><path class="cls-51" d="M17.63,153a.14.14,0,0,0,0-.19h0a.14.14,0,0,0-.18.07h0a.14.14,0,0,0,.14.14h.05"/><path class="cls-51" d="M28.25,154.07a.17.17,0,0,0,0-.21h0a.15.15,0,0,0-.19.07h0a.13.13,0,0,0,.13.13h0"/><path class="cls-51" d="M31.69,152.89a.15.15,0,0,1,.19.06h0a.13.13,0,0,1-.12.14H31.7a.14.14,0,0,1,0-.19h0"/><path class="cls-53" d="M12.21,145.26a25.6,25.6,0,0,0,3.79-.53c.5-.1,1.08-.29,1.24-.77a1,1,0,0,0-.34-1,2.15,2.15,0,0,0-1-.44,6,6,0,0,0-3.35.27,2.5,2.5,0,0,0-1,.63,1.15,1.15,0,0,0-.27,1.13,1,1,0,0,0,.94.7"/><path class="cls-54" d="M17.07,143.47s-.33-.13-.87-.28a5.11,5.11,0,0,0-2.2-.09,5.06,5.06,0,0,0-2,.84c-.46.33-.69.59-.71.57s0-.08.15-.2a3.56,3.56,0,0,1,.49-.46,4.63,4.63,0,0,1,4.25-.77,3.48,3.48,0,0,1,.63.26A.91.91,0,0,1,17.07,143.47Z"/><path class="cls-9" d="M42.94,206.92a2.83,2.83,0,0,0-2.16,1.93,8,8,0,0,0-.3,3c.15,6.19.3,12.39,1,18.54a6.77,6.77,0,0,0,1.25,3.76c.88,1,2.66,1.35,3.53.33a3.67,3.67,0,0,0,.59-2.18q.54-11.12,1.09-22.23a4,4,0,0,0-.4-2.44,2.7,2.7,0,0,0-2.08-1.06,8.31,8.31,0,0,0-2.38.35"/><path class="cls-9" d="M37.67,178.91a100.3,100.3,0,0,0,3,23.07,7.93,7.93,0,0,0,1.66,3.6,2.87,2.87,0,0,0,3.62.59,4.23,4.23,0,0,0,1.25-3.08A239.06,239.06,0,0,0,48.82,178s.24-6.41-4.27-6.4S37.54,174.15,37.67,178.91Z"/><g class="cls-52"><path class="cls-51" d="M41.45,203.1a22.47,22.47,0,0,1-1-4.29c-.49-2.67-1.11-6.38-1.59-10.49-.25-2.06-.43-4-.57-5.82a22.84,22.84,0,0,1-.09-4.82,7.17,7.17,0,0,1,1-3.11l.32-.41a2.23,2.23,0,0,1,.26-.27c.15-.14.24-.21.26-.19s0,.12-.13.29a3.21,3.21,0,0,0-.19.31l-.24.43a7.78,7.78,0,0,0-.73,3,27.22,27.22,0,0,0,.26,4.69c.19,1.78.39,3.74.63,5.79.48,4.1,1,7.8,1.35,10.5A24.05,24.05,0,0,1,41.45,203.1Z"/></g><path class="cls-51" d="M43.93,206.5v-.08l-.07-.27-.23-1c-.2-.88-.47-2.15-.76-3.74-.57-3.18-1.17-7.6-1.59-12.5-.22-2.45-.39-4.79-.54-6.91l-.22-3a21.32,21.32,0,0,1-.07-2.65,7.12,7.12,0,0,1,.41-2.14,4.74,4.74,0,0,1,.8-1.44,4.26,4.26,0,0,1,.75-.72,2,2,0,0,1,.31-.19,4.29,4.29,0,0,0-1,.95,5.17,5.17,0,0,0-.76,1.43,7,7,0,0,0-.38,2.12,23,23,0,0,0,.09,2.63c.07.94.15,1.95.23,3,.16,2.13.33,4.47.55,6.92.42,4.9,1,9.31,1.55,12.49.27,1.59.52,2.87.7,3.75l.21,1,.05.26Z"/><path class="cls-51" d="M43.05,234.12a1.13,1.13,0,0,1,0-.26,2.5,2.5,0,0,0-.09-.77c-.08-.66-.18-1.62-.3-2.81-.23-2.38-.51-5.68-.7-9.32s-.29-7-.31-9.35V208a1.22,1.22,0,0,1,0-.27v1c0,.68,0,1.65.06,2.83.06,2.39.16,5.69.36,9.34s.45,6.93.66,9.32c.1,1.18.18,2.14.24,2.82l.07.77C43.05,234,43.05,234.12,43.05,234.12Z"/><circle class="cls-53" cx="44.04" cy="206.37" r="3.91"/><path class="cls-53" d="M41.76,237.6a18.81,18.81,0,0,1,.18-3A2.39,2.39,0,0,1,43,233.1a3.09,3.09,0,0,1,2.82.14,2.43,2.43,0,0,1,.93,2l.13,2.35"/><path class="cls-9" d="M41.84,236.83l5.5-.05s4.06.83,4,1.16-9.62.13-9.62.13Z"/><path class="cls-51" d="M42,185.38a.13.13,0,1,1,.14.22h0a.11.11,0,0,1-.14-.18l0,0h0"/><path class="cls-51" d="M41.59,179.51a.13.13,0,0,1,.18,0h0m0,.05a.14.14,0,0,1-.14.14h0a.17.17,0,0,1,0-.21h0"/><path class="cls-51" d="M42.48,192.59a.13.13,0,0,1,.18,0h0a.16.16,0,0,1-.18.14h0a.17.17,0,0,1,0-.21h0"/><path class="cls-51" d="M43.48,200.7a.13.13,0,0,1,.14.22h0a.13.13,0,0,1-.12,0,.14.14,0,0,1,0-.19h0"/><path class="cls-51" d="M42.35,213.07a.13.13,0,0,1,.18,0h0a.14.14,0,0,1-.14.14h0a.13.13,0,0,1,0-.18l0,0h0"/><path class="cls-51" d="M43,219.46a.13.13,0,0,1,.18,0h0a.14.14,0,0,1-.14.14h0a.13.13,0,0,1,0-.18l0,0h0"/><path class="cls-51" d="M43.05,226.62a.15.15,0,0,1,.19.06h0a.13.13,0,0,1-.12.14h-.06a.13.13,0,0,1,0-.18h0"/><path class="cls-54" d="M47.87,205.6a2.5,2.5,0,0,1-.23.23,4.12,4.12,0,0,1-.72.52,5.77,5.77,0,0,1-2.8.82,5.84,5.84,0,0,1-2.84-.68,4.52,4.52,0,0,1-.74-.49,1,1,0,0,1-.24-.22,9.12,9.12,0,0,0,1,.6,6,6,0,0,0,2.78.62,6.11,6.11,0,0,0,2.74-.75C47.51,205.89,47.85,205.57,47.87,205.6Z"/><path class="cls-54" d="M46.75,235.15a2.91,2.91,0,0,1-.69.27,8.16,8.16,0,0,1-1.77.28,7.59,7.59,0,0,1-1.78-.12,2.55,2.55,0,0,1-.72-.19,16,16,0,0,0,2.49.14A15.85,15.85,0,0,0,46.75,235.15Z"/><path class="cls-51" d="M40.78,155.68a.83.83,0,0,1,0,.54,1.33,1.33,0,0,1-.3.53,1.27,1.27,0,0,1-1.39.32,1.14,1.14,0,0,1-.49-.35c-.23-.26-.26-.49-.24-.49a4.15,4.15,0,0,0,.3.43,1.5,1.5,0,0,0,.48.3,1.1,1.1,0,0,0,.67,0,1.22,1.22,0,0,0,.59-.32,1.2,1.2,0,0,0,.29-.47A2,2,0,0,0,40.78,155.68Z"/></g></g></g></g></g><path class="cls-51" d="M48.24,132.2a2,2,0,0,0,.61.48,1.66,1.66,0,0,0,.93.15,1.69,1.69,0,0,0,.89-.32,2.14,2.14,0,0,0,.49-.63,4.38,4.38,0,0,0,.19-.71,1.2,1.2,0,0,1-.08.76,1.71,1.71,0,0,1-.49.7,1.76,1.76,0,0,1-1,.42,1.78,1.78,0,0,1-1.65-.74,1.09,1.09,0,0,1-.26-.71A2.85,2.85,0,0,0,48.24,132.2Z"/></g></g></g></g></svg>