<svg xmlns="http://www.w3.org/2000/svg" viewBox="0 0 463.07 487.01"><defs><style>.cls-1{fill:#f0f0f0;}.cls-2{fill:#e0e0e0;}.cls-3{fill:#edcd00;}.cls-4{opacity:0.2;}.cls-10,.cls-5{fill:#fff;}.cls-6{fill:#272727;}.cls-7{fill:#263238;}.cls-17,.cls-8{fill:#373737;}.cls-9{opacity:0.15;}.cls-10{opacity:0.7;}.cls-11,.cls-22{fill:#fafafa;}.cls-12{opacity:0.2;isolation:isolate;}.cls-13{fill:#e6e6e6;}.cls-14{font-size:19.47px;font-family:Montserrat-Bold, Montserrat;font-weight:700;}.cls-15{letter-spacing:-0.02em;}.cls-16{letter-spacing:-0.01em;}.cls-17,.cls-22{opacity:0.8;}.cls-18{fill:#ebebeb;}.cls-19,.cls-23{opacity:0.3;}.cls-20{opacity:0.4;}.cls-21{opacity:0.5;}.cls-24{fill:#212121;}.cls-25{fill:#383838;}.cls-26{fill:#ffc5b3;}.cls-27{fill:#ffad97;}</style></defs><g id="Camada_2" data-name="Camada 2"><g id="Floor"><ellipse id="Floor-2" data-name="Floor" class="cls-1" cx="231.54" cy="353.33" rx="231.54" ry="133.68"/></g><g id="Shadows"><path id="Shadow" class="cls-2" d="M338.71,285.1l-47.06-27.23a9.57,9.57,0,0,0-8.66,0L43.9,395.91c-2.39,1.38-2.39,3.62,0,5L91,428.14a9.57,9.57,0,0,0,8.66,0l89.59-51.73,13.78,8c7.29,4.21,19.11,4.21,26.41,0l41.06-23.53c7.29-4.21,7.29-11,0-15.25l-13.77-8,82-47.54C341.11,288.72,341.11,286.48,338.71,285.1Z"/><ellipse id="Shadow-2" data-name="Shadow" class="cls-2" cx="390.67" cy="376.36" rx="46.15" ry="26.65"/></g><g id="Plant"><g id="Plants"><path class="cls-3" d="M416.89,346.27c0-6.25-1.24-17.76,4.05-28.56,3.83-7.83,10.68-15.43,17.06-14.67,5.93.7,6.47,9.83.79,16.08s-12.9,14.9-14.48,28.71l-4.09,10.26Z"/><g class="cls-4"><path d="M416.89,346.27c0-6.25-1.24-17.76,4.05-28.56,3.83-7.83,10.68-15.43,17.06-14.67,5.93.7,6.47,9.83.79,16.08s-12.9,14.9-14.48,28.71l-4.09,10.26Z"/></g><path class="cls-5" d="M419,350.66a.44.44,0,0,0,.36-.45c-.72-17.76,5.06-32.51,16.71-42.64a.43.43,0,1,0-.56-.65c-11.87,10.31-17.75,25.29-17,43.33a.44.44,0,0,0,.45.42Z"/><path class="cls-3" d="M415.76,368.6a22.06,22.06,0,0,0,11,3.06c6.69.16,9.16-3.36,9.16-3.36s-3.4-5.79-7.35-7a36.94,36.94,0,0,1,12,3.13s4-.47,4.78-6.79c0,0-2.86-3.35-11.07-4.27a26.45,26.45,0,0,1,11.87-1c.56.14,1.72-8,1.91-11.78s-1.27-3.49-4.21-3.87-12.66.44-14.23,2.24-1.75,7.26-1.75,7.26-2.11-2.8-2.06-5.55a10.26,10.26,0,0,0-6,1c-3,1.54-4,2.77-4.16,5.1s-.35,5.83.59,8.54c0,0-2.77-4.47-2.63-8.35a40.72,40.72,0,0,0-2.82,5.91C409.42,356.2,411,364.43,415.76,368.6Z"/><path class="cls-5" d="M415.87,369a.42.42,0,0,0,.3-.28c3.81-11.67,21.71-27,28.55-29.34a.42.42,0,0,0,.27-.55.42.42,0,0,0-.55-.27c-7,2.35-25.22,18-29.1,29.89a.44.44,0,0,0,.28.55A.43.43,0,0,0,415.87,369Z"/></g></g><g id="Device"><g id="Device-2" data-name="Device"><g id="Monitor"><path class="cls-6" d="M203.41,366.45,238.79,346c3.64-2.1,5.47-4.86,5.47-7.62s0-4.92,0-4.92L211,314.56a7.82,7.82,0,0,1-3.52-6.1V264.84l-61.78,35.71v43.61a7.77,7.77,0,0,0,3.53,6.1L177,366.45C184.29,370.66,196.12,370.66,203.41,366.45Z"/><path class="cls-7" d="M160.51,351.88v4.9l-11.32-6.52a7.79,7.79,0,0,1-3.52-6.1V300.55l11.77-6.79c.24,3,.51,6.08.75,9.09l-8.25,4.77V341.7a7.72,7.72,0,0,0,3.52,6.1Z"/><path class="cls-8" d="M149.94,341.71a7.79,7.79,0,0,0,3.52,6.1L177,361.53c7.29,4.21,19.11,4.21,26.41,0l35.39-20.45c7.29-4.21,7.3-11,0-15.24L215.25,312.1a7.77,7.77,0,0,1-3.53-6.1V271.92l-61.78,35.71Z"/><path class="cls-9" d="M222.42,316.25h0l-7.17-4.14a7.77,7.77,0,0,1-3.53-6.1V271.92l-61.78,35.71v34.08a7.79,7.79,0,0,0,3.52,6.1l7,4.06Z"/><path class="cls-6" d="M244.26,333.45v4.92c0,2.77-1.83,5.51-5.47,7.63l-35.38,20.44a26.47,26.47,0,0,1-12.6,3.13v-4.9a26.47,26.47,0,0,0,12.6-3.13l35.38-20.46C242.43,339,244.26,336.22,244.26,333.45Z"/><path class="cls-8" d="M50.73,388.76a9.47,9.47,0,0,0,8.53-.16l239-138a9.71,9.71,0,0,0,4.4-7.62V33.87a9.43,9.43,0,0,0-4.13-7.46,9.44,9.44,0,0,0-8.53.15L51,164.52a9.71,9.71,0,0,0-4.41,7.62V381.29A9.45,9.45,0,0,0,50.73,388.76Z"/><path class="cls-6" d="M59.26,388.59l239-137.95a9.73,9.73,0,0,0,4.4-7.62V33.87c0-2.81-2-3.95-4.4-2.54l-238.94,138a9.71,9.71,0,0,0-4.41,7.62V386.05C54.86,388.86,56.83,390,59.26,388.59Z"/><path class="cls-3" d="M63.12,358.42V179.64a5.83,5.83,0,0,1,2.64-4.57l226-130.45c1.46-.84,2.64-.16,2.64,1.52V224.93a5.84,5.84,0,0,1-2.65,4.57L65.76,360C64.3,360.79,63.12,360.11,63.12,358.42Z"/><path class="cls-10" d="M63.12,358.42V179.64a5.83,5.83,0,0,1,2.64-4.57l226-130.45c1.46-.84,2.64-.16,2.64,1.52V224.93a5.84,5.84,0,0,1-2.65,4.57L65.76,360C64.3,360.79,63.12,360.11,63.12,358.42Z"/><path class="cls-3" d="M178.28,311.15a2.6,2.6,0,0,1-1.32-.34,3.38,3.38,0,0,1-1.46-3.11,9.53,9.53,0,0,1,4.38-7.58h0a3,3,0,0,1,4.88,2.81,9.54,9.54,0,0,1-4.38,7.59A4.25,4.25,0,0,1,178.28,311.15ZM182,300.48a3.28,3.28,0,0,0-1.59.5h0a8.59,8.59,0,0,0-3.88,6.72,2,2,0,0,0,3.38,1.95,8.58,8.58,0,0,0,3.88-6.72,2.45,2.45,0,0,0-1-2.24A1.63,1.63,0,0,0,182,300.48Z"/></g></g></g><g id="Doc"><g id="Document-3"><g id="Document-4"><path class="cls-11" d="M98.28,367.8a6.6,6.6,0,0,1-2.92-5.19V102a6.92,6.92,0,0,1,3.09-5.35L264.39.91a5.8,5.8,0,0,1,8.92,5.14V266.61a6.8,6.8,0,0,1-3.1,5.37L104.28,367.8A6.61,6.61,0,0,1,98.28,367.8Z"/><path class="cls-1" d="M104.28,367.8l165.93-95.71a6.77,6.77,0,0,0,3.1-5.37V6.05c0-2-1.39-2.77-3.1-1.8L104.28,100a7,7,0,0,0-3.1,5.37V365.9C101.18,367.88,102.57,368.68,104.28,367.8Z"/><path class="cls-2" d="M103.89,367.9a5.79,5.79,0,0,1-7.84-2.38h0a5.9,5.9,0,0,1-.66-2.94V102a6.51,6.51,0,0,1,.89-3.07l5.82,3.36a6.32,6.32,0,0,0-.92,3V365.92C101.18,367.8,102.36,368.55,103.89,367.9Z"/><g id="Text"><polygon class="cls-2" points="128.3 86.11 244.82 18.88 244.82 45.75 128.3 113.02 128.3 86.11"/><path class="cls-2" d="M118.2,265.6l142.62-82.37c.86-.5,1.62-.15,1.62.78a3.34,3.34,0,0,1-1.62,2.58L118.26,268.85c-.86.49-1.62.13-1.62-.8A3.34,3.34,0,0,1,118.2,265.6Z"/><path class="cls-2" d="M118.2,272.26l142.62-82.32c.86-.48,1.62-.13,1.62.8a3.34,3.34,0,0,1-1.62,2.58L118.26,275.61c-.86.51-1.62.15-1.62-.78A3.23,3.23,0,0,1,118.2,272.26Z"/><polygon class="cls-3" points="116.64 128.51 262.3 44.42 262.3 47.77 116.64 131.87 116.64 128.51"/><polygon class="cls-12" points="116.64 128.51 262.3 44.42 262.3 47.77 116.64 131.87 116.64 128.51"/><polygon class="cls-3" points="116.64 215.97 262.3 131.87 262.3 135.23 116.64 219.32 116.64 215.97"/><polygon class="cls-12" points="116.64 215.97 262.3 131.87 262.3 135.23 116.64 219.32 116.64 215.97"/><polygon class="cls-3" points="116.64 138.6 169.09 108.33 169.09 115.05 116.64 145.33 116.64 138.6"/><polygon class="cls-3" points="180.73 101.6 204.04 88.14 204.04 94.87 180.73 108.33 180.73 101.6"/><polygon class="cls-3" points="209.87 84.78 233.16 71.33 233.16 78.05 209.87 91.51 209.87 84.78"/><polygon class="cls-3" points="239 67.95 262.3 54.51 262.3 61.22 239 74.69 239 67.95"/><polygon class="cls-13" points="116.64 158.78 262.3 74.69 262.3 88.14 116.64 172.23 116.64 158.78"/><polygon class="cls-13" points="116.64 185.69 262.3 101.6 262.3 115.05 116.64 199.14 116.64 185.69"/><path class="cls-6" d="M122.48,149.76a1.07,1.07,0,0,1-1.07-1.07h0a1.18,1.18,0,0,1,.52-.91l40.78-23.53a1.09,1.09,0,0,1,1.52.22h0A1.08,1.08,0,0,1,164,126h0a.42.42,0,0,1-.21.13L123,149.62A.88.88,0,0,1,122.48,149.76Z"/><path class="cls-6" d="M186.56,109.87a.71.71,0,0,1-.72-.71h0a.79.79,0,0,1,.36-.62l17.49-10a.71.71,0,0,1,.71,1.23l-17.49,10.12A.53.53,0,0,1,186.56,109.87Z"/><path class="cls-6" d="M186.56,114.74a.67.67,0,0,1-.62-.36.73.73,0,0,1,.26-1l17.49-10a.72.72,0,0,1,1,.26.73.73,0,0,1-.26,1l-17.49,10.11A.69.69,0,0,1,186.56,114.74Z"/><path class="cls-6" d="M215.69,95.58a.71.71,0,0,1-.71-.71h0a.78.78,0,0,1,.35-.62L232.8,84.16a.72.72,0,0,1,1,.26.68.68,0,0,1-.2.94h0L216.1,95.45A.61.61,0,0,1,215.69,95.58Z"/><path class="cls-6" d="M244.83,78.76a.63.63,0,0,1-.62-.36.7.7,0,0,1,.23-1h0l17.47-10.09a.73.73,0,0,1,1,.25.7.7,0,0,1-.25,1h0L245.18,78.68A.48.48,0,0,1,244.83,78.76Z"/><path class="cls-6" d="M122.48,163.23a1.07,1.07,0,0,1-1.07-1.07h0a1.15,1.15,0,0,1,.52-.91l29.2-16.82a1.13,1.13,0,0,1,1.47.39,1.07,1.07,0,0,1-.4,1.47l-29.12,16.79A.92.92,0,0,1,122.48,163.23Z"/><path class="cls-6" d="M186.56,123.34a.67.67,0,0,1-.62-.36.73.73,0,0,1,.26-1l17.49-10.09a.71.71,0,0,1,1,.26.73.73,0,0,1-.26,1l-17.49,10.09A.74.74,0,0,1,186.56,123.34Z"/><path class="cls-6" d="M186.56,128.14a.71.71,0,0,1-.72-.71h0a.76.76,0,0,1,.36-.62l17.49-10.09a.71.71,0,0,1,.95.24h0a.72.72,0,0,1-.26,1L186.9,128A.6.6,0,0,1,186.56,128.14Z"/><path class="cls-6" d="M215.69,109.05a.67.67,0,0,1-.62-.36.74.74,0,0,1,.26-1L232.8,97.61a.77.77,0,0,1,1,0,.73.73,0,0,1,0,1h-.09a.32.32,0,0,1-.16.09L216.05,108.9A.61.61,0,0,1,215.69,109.05Z"/><path class="cls-6" d="M244.83,92.22a.68.68,0,0,1-.62-.35.73.73,0,0,1,.26-1l17.47-10.09a.77.77,0,0,1,1,.39.75.75,0,0,1-.23.86h0L245.2,92.13A.81.81,0,0,1,244.83,92.22Z"/><path class="cls-6" d="M122.48,176.68a1.07,1.07,0,0,1-1.07-1.08h0a1.15,1.15,0,0,1,.52-.9l46.62-26.92a1.14,1.14,0,0,1,1.46.41h0a1.06,1.06,0,0,1-.36,1.44h0l-46.6,26.92A.94.94,0,0,1,122.48,176.68Z"/><path class="cls-6" d="M186.56,136.79a.72.72,0,0,1-.72-.72h0a.76.76,0,0,1,.36-.61l17.49-10.1a.73.73,0,0,1,.95.33.71.71,0,0,1-.24.91l-17.49,10.09A.74.74,0,0,1,186.56,136.79Z"/><path class="cls-6" d="M186.56,141.6a.68.68,0,0,1-.62-.35.73.73,0,0,1,.26-1l17.49-10.09a.71.71,0,0,1,1,.26.73.73,0,0,1-.26,1l-17.49,10.09A.73.73,0,0,1,186.56,141.6Z"/><path class="cls-6" d="M215.69,122.49a.71.71,0,0,1-.65-.76.74.74,0,0,1,.36-.5l17.47-10.09a.7.7,0,0,1,.94.21h0a.71.71,0,0,1-.26,1l-17.49,10.09A.45.45,0,0,1,215.69,122.49Z"/><path class="cls-6" d="M244.83,105.67a.67.67,0,0,1-.62-.36.71.71,0,0,1,.23-1h0l17.47-10.09a.73.73,0,0,1,1,.26.69.69,0,0,1-.25,1h0l-17.47,10.09A.64.64,0,0,1,244.83,105.67Z"/><path class="cls-6" d="M122.48,190.14a1.07,1.07,0,0,1-1.07-1.07h0a1.17,1.17,0,0,1,.52-.91l23.31-13.46a1.09,1.09,0,0,1,1.47.4,1.06,1.06,0,0,1-.4,1.46h0L123,190A.88.88,0,0,1,122.48,190.14Z"/><path class="cls-6" d="M186.56,150.25a.67.67,0,0,1-.62-.36.73.73,0,0,1,.26-1l17.49-10.09a.72.72,0,0,1,1,.26.73.73,0,0,1-.26,1l-17.49,10.09A.64.64,0,0,1,186.56,150.25Z"/><path class="cls-6" d="M186.56,155.05a.71.71,0,0,1-.72-.71h0a.76.76,0,0,1,.36-.67l17.49-10.09a.72.72,0,0,1,.94.21h0a.73.73,0,0,1-.26,1l-17.49,10.09A.53.53,0,0,1,186.56,155.05Z"/><path class="cls-6" d="M215.69,136a.67.67,0,0,1-.62-.36.74.74,0,0,1,.26-1l17.47-10.14a.77.77,0,0,1,1,0,.74.74,0,0,1,0,1h-.09a.34.34,0,0,1-.16.1l-17.55,10.22A.53.53,0,0,1,215.69,136Z"/><path class="cls-6" d="M244.83,119.14a.73.73,0,0,1-.7-.77h0a.82.82,0,0,1,.34-.58l17.47-10.09a.77.77,0,0,1,1,.39.75.75,0,0,1-.23.86h0L245.2,119A.82.82,0,0,1,244.83,119.14Z"/><path class="cls-6" d="M122.48,203.59a1.07,1.07,0,0,1-1.07-1.07h0a1.15,1.15,0,0,1,.52-.91L162.71,178a1.08,1.08,0,0,1,1.47.38,1.06,1.06,0,0,1-.38,1.46L123,203.47A.82.82,0,0,1,122.48,203.59Z"/><path class="cls-6" d="M186.56,163.7a.72.72,0,0,1-.72-.72h0a.76.76,0,0,1,.36-.61l17.49-10.09a.71.71,0,0,1,.95.24h0a.7.7,0,0,1-.26,1L186.9,163.58A.54.54,0,0,1,186.56,163.7Z"/><path class="cls-6" d="M186.56,168.52a.68.68,0,0,1-.62-.38.71.71,0,0,1,.26-1l17.49-10.09a.72.72,0,0,1,.95.32.71.71,0,0,1-.24.91l-17.49,10.11A.74.74,0,0,1,186.56,168.52Z"/><path class="cls-6" d="M215.69,149.41a.71.71,0,0,1-.71-.72h0a.75.75,0,0,1,.35-.61L232.8,138a.72.72,0,0,1,1,.28.71.71,0,0,1-.26,1l-17.48,10.09A.75.75,0,0,1,215.69,149.41Z"/><path class="cls-6" d="M244.83,132.58a.66.66,0,0,1-.62-.35.72.72,0,0,1,.23-1h0l17.5-10a.73.73,0,0,1,1,.26.69.69,0,0,1-.24,1h0l-17.51,10.13A.53.53,0,0,1,244.83,132.58Z"/><path class="cls-6" d="M215.69,169.59a.72.72,0,0,1-.75-.64h0a.78.78,0,0,1,.46-.68l17.47-10.09a.73.73,0,0,1,1,.26.7.7,0,0,1-.26,1l-17.49,10.1A.67.67,0,0,1,215.69,169.59Z"/><path class="cls-6" d="M244.83,152.76a.66.66,0,0,1-.62-.35.72.72,0,0,1,.23-1h0l17.47-10.09a.73.73,0,0,1,1,.26.7.7,0,0,1-.25,1h0l-17.47,10.09A.73.73,0,0,1,244.83,152.76Z"/><path class="cls-6" d="M215.69,176.38a.68.68,0,0,1-.62-.35.74.74,0,0,1,.26-1l17.47-10a.74.74,0,0,1,1,.4.7.7,0,0,1-.23.85l-17.48,10.1A.45.45,0,0,1,215.69,176.38Z"/><path class="cls-6" d="M244.83,159.5a.67.67,0,0,1-.62-.36.72.72,0,0,1,.23-1h0l17.47-10.09a.73.73,0,0,1,1,.26.7.7,0,0,1-.25,1h0L245.18,159.4A.74.74,0,0,1,244.83,159.5Z"/><polygon class="cls-3" points="262.3 155.42 169.09 209.23 169.09 229.43 262.3 175.6 262.3 155.42"/><path class="cls-11" d="M186.56,204a.12.12,0,0,1,.17,0,.25.25,0,0,1,0,.24v1.63a.5.5,0,0,1,0,.34.41.41,0,0,1-.17.22l-1.76,1v7.9a.86.86,0,0,1,0,.32.33.33,0,0,1-.19.24l-1.3.75h-.19a.25.25,0,0,1,0-.24V208.5l-1.75,1a.15.15,0,0,1-.2,0,.33.33,0,0,1,0-.24v-1.62a1,1,0,0,1,0-.34.78.78,0,0,1,.2-.24Z"/><path class="cls-11" d="M187.37,207.45a8.11,8.11,0,0,1,.24-1.77,8.59,8.59,0,0,1,.62-1.62,6.59,6.59,0,0,1,1-1.45,5.8,5.8,0,0,1,1.3-1.07,3,3,0,0,1,1.3-.42,1.52,1.52,0,0,1,1,.34,2.48,2.48,0,0,1,.6,1,4.7,4.7,0,0,1,.24,1.49v2.73a7.93,7.93,0,0,1-.24,1.75,8.52,8.52,0,0,1-.6,1.62,7.29,7.29,0,0,1-1,1.45,5.38,5.38,0,0,1-1.3,1.07,3,3,0,0,1-1.3.42,1.16,1.16,0,0,1-1-.34,2,2,0,0,1-.62-1,4.57,4.57,0,0,1-.24-1.47v-1.33C187.37,208.36,187.35,207.89,187.37,207.45Zm4.38.13V205a3.55,3.55,0,0,0-.12-.65.85.85,0,0,0-.24-.42.51.51,0,0,0-.37-.15,1.3,1.3,0,0,0-.54.16,2.12,2.12,0,0,0-.53.46,2.38,2.38,0,0,0-.39.6,3.67,3.67,0,0,0-.34,1.46V209a1.61,1.61,0,0,0,.34,1.07c.19.23.5.21.92,0a2.1,2.1,0,0,0,.91-1A4.39,4.39,0,0,0,191.75,207.58Z"/><path class="cls-11" d="M199.74,196.29a.23.23,0,0,1,.2,0,.33.33,0,0,1,0,.24v1.62a1,1,0,0,1,0,.34.39.39,0,0,1-.2.25l-1.75,1v7.87a.5.5,0,0,1,0,.34.38.38,0,0,1-.18.23l-1.31.74a.13.13,0,0,1-.18,0,.24.24,0,0,1-.08-.24v-7.87l-1.75,1a.15.15,0,0,1-.2,0,.38.38,0,0,1-.08-.25V200a1,1,0,0,1,.08-.34.45.45,0,0,1,.2-.23Z"/><path class="cls-11" d="M203.9,193.89h.31a.82.82,0,0,1,.14.26l2.18,8.4a.74.74,0,0,1,0,.21,1.31,1.31,0,0,1,0,.28.35.35,0,0,1-.15.17l-1.25.73h-.29a.19.19,0,0,1-.1-.19l-.29-1.1-2.65,1.52-.27,1.43a1.21,1.21,0,0,1-.11.32.74.74,0,0,1-.28.3l-1.25.73a.15.15,0,0,1-.16,0,.23.23,0,0,1,0-.2v-.26l2.17-10.92a3.52,3.52,0,0,1,.15-.42,1.12,1.12,0,0,1,.31-.34Zm-1.62,7.64,1.62-.93-.8-3.24Z"/><path class="cls-11" d="M212.25,197.47h.2a.44.44,0,0,1,.08.25v1.62a.81.81,0,0,1-.08.34c0,.11-.12.19-.2.23l-4.61,2.66h-.19a.33.33,0,0,1-.08-.25v-9.89a.77.77,0,0,1,.08-.34,1,1,0,0,1,.19-.25l1.3-.74a.15.15,0,0,1,.2,0,.41.41,0,0,1,.08.24v7.87Z"/><path class="cls-11" d="M233.24,176.79a1.79,1.79,0,0,1,.86,0,1.6,1.6,0,0,1,.62.32,1.73,1.73,0,0,1,.37.59,2.75,2.75,0,0,1,.15.69.69.69,0,0,1,0,.35.47.47,0,0,1-.2.22l-.69.41h-.26a.33.33,0,0,1-.17-.18.94.94,0,0,0-.45-.41,1.35,1.35,0,0,0-.89.25,3,3,0,0,0-.5.35,3.8,3.8,0,0,0-.41.49l-.28.55a2,2,0,0,0-.09.59.8.8,0,0,0,.11.5.33.33,0,0,0,.36.18,1.34,1.34,0,0,0,.63,0l.92-.21a5.69,5.69,0,0,1,1-.12,1.49,1.49,0,0,1,.68.26,1.07,1.07,0,0,1,.37.64,3.68,3.68,0,0,1,.12,1.05,5,5,0,0,1-.15,1.22,5.53,5.53,0,0,1-.42,1.18,5.46,5.46,0,0,1-.7,1.09,5.72,5.72,0,0,1-.92.92v1a.77.77,0,0,1-.08.34.45.45,0,0,1-.2.23l-.81.47a.13.13,0,0,1-.18,0,.24.24,0,0,1-.08-.24v-1a1.86,1.86,0,0,1-.84.11,1.09,1.09,0,0,1-.68-.23,1.21,1.21,0,0,1-.49-.56,2.29,2.29,0,0,1-.19-1,.5.5,0,0,1,0-.34.71.71,0,0,1,.19-.23l.7-.4h.26s.09,0,.14.17a1.87,1.87,0,0,0,.17.31.45.45,0,0,0,.27.2,1,1,0,0,0,.42,0,1.92,1.92,0,0,0,.64-.28c.2-.12.39-.25.58-.39a3,3,0,0,0,.49-.52,4.42,4.42,0,0,0,.34-.6,2.15,2.15,0,0,0,.13-.66.67.67,0,0,0-.15-.47.79.79,0,0,0-.42-.12,4.1,4.1,0,0,0-.7.12l-1,.19a1.87,1.87,0,0,1-.88,0,.83.83,0,0,1-.61-.26A1.35,1.35,0,0,1,230,183a4.56,4.56,0,0,1,0-2.32,5.82,5.82,0,0,1,1-2.19,9.37,9.37,0,0,1,.81-.86v-1a.69.69,0,0,1,0-.35A.63.63,0,0,1,232,176l.81-.47a.21.21,0,0,1,.19,0,.31.31,0,0,1,.08.24Z"/><path class="cls-11" d="M240.07,172.8a1.79,1.79,0,0,1,.86,0,1.6,1.6,0,0,1,.62.32,1.83,1.83,0,0,1,.39.6,2.42,2.42,0,0,1,.14.7.46.46,0,0,1-.08.34.39.39,0,0,1-.19.23l-.7.4q-.18.11-.24,0a.25.25,0,0,1-.16-.17.72.72,0,0,0-.46-.41,1.24,1.24,0,0,0-.89.23,3.08,3.08,0,0,0-.5.37,3.23,3.23,0,0,0-.41.49,2.59,2.59,0,0,0-.28.55,1.79,1.79,0,0,0-.09.57.71.71,0,0,0,.11.51.43.43,0,0,0,.36.18,1.57,1.57,0,0,0,.61,0l.94-.21a3.82,3.82,0,0,1,1-.11,1.27,1.27,0,0,1,.68.24,1.71,1.71,0,0,1,.38.65,4.2,4.2,0,0,1,.11,1.06,5.08,5.08,0,0,1-.59,2.38,5.44,5.44,0,0,1-.68,1.1,4.06,4.06,0,0,1-.94.91v1a.64.64,0,0,1-.26.58l-.81.46a.13.13,0,0,1-.18,0,.31.31,0,0,1-.08-.26v-1.06a1.73,1.73,0,0,1-.84.13,1.26,1.26,0,0,1-.7-.22,1.24,1.24,0,0,1-.47-.59,2.18,2.18,0,0,1-.24-.94.5.5,0,0,1,0-.34.83.83,0,0,1,.19-.23l.7-.4a.39.39,0,0,1,.26,0,.38.38,0,0,1,.16.19,3,3,0,0,0,.16.31.45.45,0,0,0,.28.2,1,1,0,0,0,.42,0,1.59,1.59,0,0,0,.63-.26,3.25,3.25,0,0,0,1.4-1.51,1.7,1.7,0,0,0,.13-.67.73.73,0,0,0-.13-.47.59.59,0,0,0-.42-.13l-.72.12-1,.21a2.6,2.6,0,0,1-.88,0,1.08,1.08,0,0,1-.62-.26,1.28,1.28,0,0,1-.35-.67,3.51,3.51,0,0,1-.13-1.12,5.21,5.21,0,0,1,.14-1.18,7.51,7.51,0,0,1,.42-1.15,5.87,5.87,0,0,1,1.45-1.9v-1a.75.75,0,0,1,.26-.57l.81-.47a.15.15,0,0,1,.18,0h0a.36.36,0,0,1,0,.25Z"/><path class="cls-11" d="M247,168.81a1.79,1.79,0,0,1,.86,0,1.6,1.6,0,0,1,.62.32,2.11,2.11,0,0,1,.53,1.3.46.46,0,0,1-.08.34.6.6,0,0,1-.19.23l-.7.39a.24.24,0,0,1-.26,0,.38.38,0,0,1-.15-.18.94.94,0,0,0-.45-.41,1.34,1.34,0,0,0-.91.25,3.5,3.5,0,0,0-.49.37l-.4.47a2.38,2.38,0,0,0-.28.55,2,2,0,0,0-.1.59.75.75,0,0,0,.12.5.3.3,0,0,0,.34.18,2.22,2.22,0,0,0,.63,0l.93-.23a4.9,4.9,0,0,1,1-.11,1.33,1.33,0,0,1,.68.26,1.58,1.58,0,0,1,.37.64,3.79,3.79,0,0,1,.12,1.06,5.3,5.3,0,0,1-.59,2.38,5.19,5.19,0,0,1-.7,1.09,3.66,3.66,0,0,1-.92.92v1a.46.46,0,0,1-.08.34.42.42,0,0,1-.18.23l-.81.47a.15.15,0,0,1-.2,0,.35.35,0,0,1-.08-.24v-1a1.28,1.28,0,0,1-.84.11,1.21,1.21,0,0,1-1.15-.79,2.43,2.43,0,0,1-.2-1,.65.65,0,0,1,0-.34.87.87,0,0,1,.2-.23l.7-.4h.24a.27.27,0,0,1,.14.19,1.19,1.19,0,0,0,.18.29.4.4,0,0,0,.26.2.66.66,0,0,0,.44,0,1.55,1.55,0,0,0,.62-.26,2.35,2.35,0,0,0,.58-.41,2.92,2.92,0,0,0,.83-1.1,1.89,1.89,0,0,0,.13-.66.72.72,0,0,0-.15-.49.7.7,0,0,0-.42-.11l-.7.11-1,.19a2.48,2.48,0,0,1-.86,0,1,1,0,0,1-.62-.27,1.37,1.37,0,0,1-.37-.65,3.84,3.84,0,0,1-.11-1.12,5.39,5.39,0,0,1,.14-1.2,6.58,6.58,0,0,1,.42-1.15,4.85,4.85,0,0,1,.64-1,9.15,9.15,0,0,1,.79-.86v-1a1,1,0,0,1,.08-.34.87.87,0,0,1,.2-.23l.81-.47a.19.19,0,0,1,.18,0,.33.33,0,0,1,.08.25Z"/><path class="cls-11" d="M253.93,164.8a2.08,2.08,0,0,1,.86,0,1.52,1.52,0,0,1,.61.33,1.77,1.77,0,0,1,.38.58,1.86,1.86,0,0,1,.14.7.65.65,0,0,1,0,.34.51.51,0,0,1-.19.22l-.7.41h-.26a.34.34,0,0,1-.15-.18.92.92,0,0,0-.45-.4,1.6,1.6,0,0,0-.91.22,4.3,4.3,0,0,0-.49.38,2.32,2.32,0,0,0-.4.48,2.38,2.38,0,0,0-.28.55,1.88,1.88,0,0,0-.09.57.93.93,0,0,0,.09.52.47.47,0,0,0,.36.18,1.34,1.34,0,0,0,.63,0l.93-.21a3.17,3.17,0,0,1,1-.11,1.09,1.09,0,0,1,1,.89,4.63,4.63,0,0,1,.12,1,5,5,0,0,1-.15,1.22,5.91,5.91,0,0,1-1.13,2.27,6.15,6.15,0,0,1-.93.91v1.05a.77.77,0,0,1-.08.34.54.54,0,0,1-.19.23l-.8.47a.14.14,0,0,1-.19,0,.36.36,0,0,1-.09-.24v-1.06a1.43,1.43,0,0,1-.84.13,1.29,1.29,0,0,1-1.15-.79,2.28,2.28,0,0,1-.21-1,1,1,0,0,1,0-.34,1.06,1.06,0,0,1,.19-.23l.7-.4a.3.3,0,0,1,.26,0,.32.32,0,0,1,.15.19,3.07,3.07,0,0,0,.17.31.38.38,0,0,0,.26.19.79.79,0,0,0,.43,0,1.63,1.63,0,0,0,.63-.25,3.6,3.6,0,0,0,1.07-.91,2,2,0,0,0,.34-.6,2,2,0,0,0,.13-.67.62.62,0,0,0-.15-.47.77.77,0,0,0-.42-.13l-.7.11a4.55,4.55,0,0,1-1,.22,3.1,3.1,0,0,1-.86,0,1,1,0,0,1-.62-.26,1.24,1.24,0,0,1-.37-.67,4.22,4.22,0,0,1-.11-1.12,5.15,5.15,0,0,1,.14-1.18,7.47,7.47,0,0,1,.41-1.15,5.87,5.87,0,0,1,1.44-1.9v-1a1.93,1.93,0,0,1,0-.34.45.45,0,0,1,.2-.23l.79-.47a.15.15,0,0,1,.2,0,.43.43,0,0,1,.08.24Z"/><path class="cls-6" d="M122.48,236.86a.68.68,0,0,1-.63-.36.71.71,0,0,1,.26-1L157,215.32a.7.7,0,0,1,1,.26.68.68,0,0,1-.19.94h0l-35,20.24A.51.51,0,0,1,122.48,236.86Z"/><path class="cls-6" d="M122.48,243.59a.68.68,0,0,1-.63-.36.71.71,0,0,1,.26-1L157,222.08a.7.7,0,0,1,.94.21h0a.7.7,0,0,1-.26,1l-34.91,20.23A.45.45,0,0,1,122.48,243.59Z"/><path class="cls-6" d="M122.48,250.32a.69.69,0,0,1-.63-.35.72.72,0,0,1,.26-1L157,228.8a.74.74,0,0,1,1,.4.72.72,0,0,1-.23.85l-35,20.18A.5.5,0,0,1,122.48,250.32Z"/><text class="cls-14" transform="matrix(0.85, -0.46, 0, 1, 199.06, 64.2)"><tspan class="cls-15">X</tspan><tspan x="13.47" y="0">ML </tspan></text><text class="cls-14" transform="matrix(0.85, -0.46, 0, 1, 132.55, 104.76)"><tspan class="cls-16">P</tspan><tspan x="14.06" y="0">DF </tspan></text></g></g></g></g><g id="Window"><g id="Window-2" data-name="Window"><path class="cls-1" d="M364.6,104.26,131.89,238.46V410a3,3,0,0,0,4.45,2.58l4.15-2.39L360.26,283.44a9.59,9.59,0,0,0,4.34-7.52Z"/><path class="cls-2" d="M363.6,106V275.92a8.64,8.64,0,0,1-3.84,6.65L140,409.29l-4.15,2.39a1.92,1.92,0,0,1-1,.27,2,2,0,0,1-1.38-.56,1.93,1.93,0,0,1-.6-1.42V239L363.6,106m1-1.73L131.89,238.46V410a3,3,0,0,0,3,3,2.88,2.88,0,0,0,1.47-.4l4.15-2.39L360.26,283.44a9.59,9.59,0,0,0,4.34-7.52V104.26Z"/><polygon class="cls-17" points="359.08 101.08 126.36 235.26 131.89 238.46 364.6 104.26 359.08 101.08"/><path class="cls-18" d="M133.45,412.59a3,3,0,0,1-1.56-2.62V238.46l-5.54-3.2V405.83a4.44,4.44,0,0,0,0,.63,4.6,4.6,0,0,0,2.26,3.36l4.57,2.65.23.12Z"/><path class="cls-8" d="M126.35,235.34V223.77a4.81,4.81,0,0,1,2.16-3.76L356.92,88.33a4.77,4.77,0,0,1,4.32,0l1.19.69a4.78,4.78,0,0,1,2.17,3.75v11.59L131.89,238.53Z"/><path class="cls-19" d="M126.35,235.34V223.77a4.81,4.81,0,0,1,2.16-3.76L356.92,88.33a4.77,4.77,0,0,1,4.32,0l1.19.69a4.78,4.78,0,0,1,2.17,3.75v11.59L131.89,238.53Z"/><path class="cls-6" d="M131.89,227a4.8,4.8,0,0,1,2.16-3.76L362.44,91.52c1.19-.7,2.16-.14,2.16,1.24v11.59L131.89,238.53Z"/><path class="cls-20" d="M131.89,227a4.8,4.8,0,0,1,2.16-3.76L362.44,91.52c1.19-.7,2.16-.14,2.16,1.24v11.59L131.89,238.53Z"/><path class="cls-21" d="M132.52,224.82a4.47,4.47,0,0,0-.63,2.14v11.57l-5.53-3.19V223.76a4.43,4.43,0,0,1,.63-2.13Z"/><path class="cls-6" d="M132.52,224.82a4.47,4.47,0,0,0-.63,2.14v11.57l-5.53-3.19V223.76a4.43,4.43,0,0,1,.63-2.13Z"/><path class="cls-3" d="M354.44,103.83c0,1.29.91,1.82,2,1.17a4.48,4.48,0,0,0,2-3.52c0-1.29-.91-1.82-2-1.17A4.49,4.49,0,0,0,354.44,103.83Z"/><path class="cls-3" d="M346.32,108.52c0,1.29.91,1.82,2,1.17a4.49,4.49,0,0,0,2-3.52c0-1.29-.91-1.82-2-1.17A4.49,4.49,0,0,0,346.32,108.52Z"/><path class="cls-3" d="M338.2,113.21c0,1.29.91,1.82,2,1.17a4.49,4.49,0,0,0,2-3.52c0-1.29-.91-1.82-2-1.17A4.49,4.49,0,0,0,338.2,113.21Z"/><path class="cls-11" d="M131.89,238.54V410a3,3,0,0,0,4.45,2.58l4.15-2.39,50.85-29.33V204.25l-59.45,34.28Z"/><polygon class="cls-11" points="195.4 207.15 195.4 373.66 359.72 278.79 359.72 112.28 195.4 207.15"/><path class="cls-3" d="M177.73,224.37l-37.92,21.92a2.79,2.79,0,0,0-1.28,2.2v3.95c0,.81.57,1.13,1.27.73l37.93-21.92a2.8,2.8,0,0,0,1.27-2.2v-3.94C179,224.3,178.43,224,177.73,224.37Z"/><path class="cls-22" d="M177.73,224.37l-37.92,21.92a2.79,2.79,0,0,0-1.28,2.2v3.95c0,.81.57,1.13,1.27.73l37.93-21.92a2.8,2.8,0,0,0,1.27-2.2v-3.94C179,224.3,178.43,224,177.73,224.37Z"/><path class="cls-8" d="M186.18,225.94l-1.12-1.08a5,5,0,0,0,.35-1.78,2.1,2.1,0,0,0-.83-1.92,1.29,1.29,0,0,0-1.36.06,4.45,4.45,0,0,0-1.76,3.63,2.13,2.13,0,0,0,.84,1.92,1.12,1.12,0,0,0,.6.16,1.53,1.53,0,0,0,.76-.22,3.13,3.13,0,0,0,1-1l.92.88a.39.39,0,0,0,.3.13.45.45,0,0,0,.32-.14A.44.44,0,0,0,186.18,225.94Zm-3,0a.48.48,0,0,1-.48.06c-.19-.11-.4-.47-.4-1.16a3.62,3.62,0,0,1,1.32-2.87.62.62,0,0,1,.31-.1.33.33,0,0,1,.17,0c.18.11.39.47.39,1.16A3.67,3.67,0,0,1,183.22,226Z"/><path class="cls-8" d="M139.46,264.76l-.85.49c-.05,0-.09,0-.09-.07v-2.3a.23.23,0,0,1,.09-.18l.85-.49s.09,0,.09.07v2.3A.23.23,0,0,1,139.46,264.76Z"/><path class="cls-8" d="M140.73,264l-.85.49s-.09,0-.09-.07v-2.3a.21.21,0,0,1,.09-.17l.85-.49c.05,0,.09,0,.09.06v2.31A.22.22,0,0,1,140.73,264Z"/><path class="cls-8" d="M142,263.29l-.85.49s-.09,0-.09-.07V261.4a.22.22,0,0,1,.09-.17l.85-.49c.05,0,.09,0,.09.07v2.3A.23.23,0,0,1,142,263.29Z"/><path class="cls-8" d="M139.46,267.73l-.85.49c-.05,0-.09,0-.09-.07v-2.3a.23.23,0,0,1,.09-.18l.85-.49s.09,0,.09.07v2.3A.23.23,0,0,1,139.46,267.73Z"/><path class="cls-8" d="M140.73,267l-.85.49s-.09,0-.09-.07v-2.3a.21.21,0,0,1,.09-.17l.85-.49c.05,0,.09,0,.09.06v2.31A.22.22,0,0,1,140.73,267Z"/><path class="cls-8" d="M142,266.25l-.85.5s-.09,0-.09-.07v-2.31a.22.22,0,0,1,.09-.17l.85-.49c.05,0,.09,0,.09.07v2.3A.19.19,0,0,1,142,266.25Z"/><path class="cls-8" d="M139.59,275.57l-1-.63s0-.12,0-.19l1-1.85c0-.09.13-.08.13,0v2.49C139.72,275.51,139.64,275.6,139.59,275.57Z"/><path class="cls-8" d="M139.15,274.16l1.38-.79V274l-1.38.8c-.11.07-.21,0-.21-.21A.59.59,0,0,1,139.15,274.16Z"/><polygon class="cls-8" points="140.79 273.22 141.26 272.95 141.26 273.6 140.79 273.87 140.79 273.22"/><path class="cls-8" d="M142.53,272.54V275a.53.53,0,0,1-.22.45c-.11.07-.21,0-.21-.2v-2.08l-.58.33v-.65l.79-.46C142.43,272.27,142.53,272.36,142.53,272.54Z"/><path class="cls-8" d="M140,281a4.54,4.54,0,0,0-1.45,3.9c.17,1.25.92,1.2,1,1.79a.06.06,0,0,0,.09.06l.93-.53a.25.25,0,0,0,.1-.17c.1-.77,1.05-1.7,1.06-3.57C141.73,281,141,280.33,140,281Z"/><path class="cls-8" d="M140.56,287.7l-.9.52c-.06,0-.11,0-.11-.09v-.82a.28.28,0,0,1,.11-.22l.9-.52c.06,0,.11,0,.11.09v.83A.27.27,0,0,1,140.56,287.7Z"/><path class="cls-8" d="M140.22,261.53a5.41,5.41,0,0,0-1.63,3.45,3.66,3.66,0,0,0,.23,1.88l-.3,1.58c0,.13,0,.19.12.11l.91-1a1.41,1.41,0,0,0,1.32-.38,5.46,5.46,0,0,0,1.63-3.46C142.72,261.52,141.57,260.42,140.22,261.53Zm.32,5.15c-.83.48-1.51-.17-1.51-1.46a4,4,0,0,1,1.51-3.2c.84-.48,1.52.17,1.52,1.46A4,4,0,0,1,140.54,266.68Z"/><path class="cls-8" d="M140.22,291.87a5.43,5.43,0,0,0-1.63,3.45,3.68,3.68,0,0,0,.23,1.89l-.3,1.57c0,.13,0,.2.12.12l.91-1a1.41,1.41,0,0,0,1.32-.38,5.49,5.49,0,0,0,1.63-3.46C142.72,291.87,141.57,290.76,140.22,291.87Zm.32,5.16c-.83.48-1.51-.17-1.51-1.46a4,4,0,0,1,1.51-3.2c.84-.48,1.52.17,1.52,1.46A4,4,0,0,1,140.54,297Z"/><path class="cls-8" d="M141.5,303a2.1,2.1,0,0,1-.8,1.69c-.44.26-.8-.09-.8-.77a2.13,2.13,0,0,1,.8-1.69C141.14,302,141.5,302.31,141.5,303Z"/><path class="cls-8" d="M142.87,303.23a1.41,1.41,0,0,1-.53,1.13c-.3.17-.54-.06-.54-.51a1.4,1.4,0,0,1,.54-1.13C142.63,302.55,142.87,302.78,142.87,303.23Z"/><path class="cls-8" d="M141.64,307.84l-1.88,1.08v-2.38a1.64,1.64,0,0,1,.68-1.31l.52-.3c.38-.21.68,0,.68.52Z"/><path class="cls-8" d="M142.42,304.64l-.52.3v2.75l1-.57V305C142.88,304.64,142.67,304.49,142.42,304.64Z"/><path class="cls-8" d="M138.53,305.74c0,.45.24.68.53.51a1.4,1.4,0,0,0,.53-1.12c0-.46-.24-.69-.53-.52A1.43,1.43,0,0,0,138.53,305.74Z"/><path class="cls-8" d="M139,306.62l.52-.3v2.76l-1,.56V307.5A1.09,1.09,0,0,1,139,306.62Z"/><path class="cls-2" d="M147.74,259.36,170,246.54c.6-.35,1.08-.1,1.08.55a2.32,2.32,0,0,1-1.08,1.8l-22.21,12.82c-.6.34-1.08.1-1.08-.55A2.32,2.32,0,0,1,147.74,259.36Z"/><path class="cls-2" d="M147.74,269.81,170,257c.6-.34,1.08-.1,1.08.55a2.32,2.32,0,0,1-1.08,1.8l-22.21,12.82c-.6.34-1.08.1-1.08-.55A2.32,2.32,0,0,1,147.74,269.81Z"/><path class="cls-2" d="M147.74,280.27,170,267.45c.6-.35,1.08-.1,1.08.54a2.31,2.31,0,0,1-1.08,1.8l-22.21,12.82c-.6.35-1.08.1-1.08-.55A2.3,2.3,0,0,1,147.74,280.27Z"/><path class="cls-2" d="M147.74,290.72,170,277.9c.6-.35,1.08-.1,1.08.55a2.3,2.3,0,0,1-1.08,1.79l-22.21,12.83c-.6.34-1.08.1-1.08-.55A2.31,2.31,0,0,1,147.74,290.72Z"/><path class="cls-2" d="M147.74,301.17,170,288.35c.6-.34,1.08-.1,1.08.55a2.32,2.32,0,0,1-1.08,1.8l-22.21,12.82c-.6.34-1.08.1-1.08-.55A2.32,2.32,0,0,1,147.74,301.17Z"/><path class="cls-8" d="M151.8,309.71,174,296.89c.6-.35,1.08-.1,1.08.54a2.31,2.31,0,0,1-1.08,1.8L151.8,312.05c-.59.35-1.08.1-1.08-.54A2.33,2.33,0,0,1,151.8,309.71Z"/><path class="cls-2" d="M151.8,316.77,174,304c.6-.35,1.08-.1,1.08.55a2.3,2.3,0,0,1-1.08,1.79L151.8,319.11c-.59.35-1.08.1-1.08-.54A2.33,2.33,0,0,1,151.8,316.77Z"/><path class="cls-2" d="M151.8,323.83,174,311c.6-.35,1.08-.1,1.08.55a2.3,2.3,0,0,1-1.08,1.79L151.8,326.18c-.59.34-1.08.1-1.08-.55A2.35,2.35,0,0,1,151.8,323.83Z"/><path class="cls-2" d="M156.13,328.32l22.2-12.82c.6-.35,1.09-.1,1.09.54a2.32,2.32,0,0,1-1.09,1.8l-22.2,12.82c-.6.35-1.09.1-1.09-.54A2.32,2.32,0,0,1,156.13,328.32Z"/><path class="cls-8" d="M150.93,334.39l1.81-3.18c.07-.12.07-.28,0-.32l-1.81-1.1c-.08-.05-.21.11-.21.28v4.28C150.72,334.52,150.85,334.55,150.93,334.39Z"/><path class="cls-2" d="M156.13,335.35l22.2-12.82c.6-.34,1.09-.1,1.09.55a2.33,2.33,0,0,1-1.09,1.8l-22.2,12.82c-.6.35-1.09.1-1.09-.55A2.33,2.33,0,0,1,156.13,335.35Z"/><path class="cls-8" d="M150.93,341.43l1.81-3.18c.07-.12.07-.28,0-.33l-1.81-1.09c-.08-.06-.21.11-.21.28v4.28C150.72,341.56,150.85,341.58,150.93,341.43Z"/><path class="cls-2" d="M156.13,342.39l22.2-12.82c.6-.35,1.09-.1,1.09.55a2.33,2.33,0,0,1-1.09,1.8l-22.2,12.82c-.6.34-1.09.1-1.09-.55A2.33,2.33,0,0,1,156.13,342.39Z"/><path class="cls-8" d="M150.93,348.47l1.81-3.19c.07-.12.07-.28,0-.32l-1.81-1.1c-.08-.05-.21.12-.21.29v4.28C150.72,348.6,150.85,348.62,150.93,348.47Z"/><path class="cls-2" d="M156.13,349.43l22.2-12.82c.6-.35,1.09-.1,1.09.54a2.32,2.32,0,0,1-1.09,1.8l-22.2,12.82c-.6.35-1.09.1-1.09-.54A2.32,2.32,0,0,1,156.13,349.43Z"/><path class="cls-8" d="M150.93,355.5l1.81-3.18c.07-.12.07-.28,0-.32l-1.81-1.1c-.08-.06-.21.11-.21.28v4.28C150.72,355.63,150.85,355.66,150.93,355.5Z"/><path class="cls-2" d="M156.13,356.46l22.2-12.82c.6-.34,1.09-.1,1.09.55a2.33,2.33,0,0,1-1.09,1.8l-22.2,12.82c-.6.34-1.09.1-1.09-.55A2.33,2.33,0,0,1,156.13,356.46Z"/><path class="cls-8" d="M150.93,362.54l1.81-3.18c.07-.12.07-.28,0-.33l-1.81-1.1c-.08-.05-.21.12-.21.29v4.28C150.72,362.67,150.85,362.69,150.93,362.54Z"/><path class="cls-2" d="M156.13,363.5l22.2-12.82c.6-.35,1.09-.1,1.09.55a2.31,2.31,0,0,1-1.09,1.79l-22.2,12.83c-.6.34-1.09.1-1.09-.55A2.33,2.33,0,0,1,156.13,363.5Z"/><path class="cls-8" d="M150.93,369.58l1.81-3.19c.07-.12.07-.28,0-.32l-1.81-1.1c-.08-.05-.21.12-.21.29v4.28C150.72,369.71,150.85,369.73,150.93,369.58Z"/><path class="cls-2" d="M156.13,370.54l22.2-12.82c.6-.35,1.09-.1,1.09.54a2.32,2.32,0,0,1-1.09,1.8l-22.2,12.82c-.6.35-1.09.1-1.09-.55A2.31,2.31,0,0,1,156.13,370.54Z"/><path class="cls-8" d="M150.93,376.61l1.81-3.18c.07-.12.07-.28,0-.32l-1.81-1.1c-.08-.06-.21.11-.21.28v4.28C150.72,376.74,150.85,376.77,150.93,376.61Z"/><path class="cls-2" d="M156.13,377.57l22.2-12.82c.6-.34,1.09-.1,1.09.55a2.33,2.33,0,0,1-1.09,1.8l-22.2,12.82c-.6.34-1.09.1-1.09-.55A2.33,2.33,0,0,1,156.13,377.57Z"/><path class="cls-8" d="M150.93,383.65l1.81-3.18c.07-.12.07-.28,0-.33l-1.81-1.1c-.08-.05-.21.12-.21.29v4.28C150.72,383.78,150.85,383.8,150.93,383.65Z"/><path class="cls-1" d="M200.55,230l73-42.14a2.37,2.37,0,0,0,1.08-1.87V167.36c0-.69-.48-1-1.08-.62l-73,42.13a2.38,2.38,0,0,0-1.09,1.87v18.62C199.46,230.05,200,230.33,200.55,230Z"/><path class="cls-8" d="M206.91,216.85a.08.08,0,0,1,0,0l.48-2-.66.38h-.05s0,0,0-.06v-.36a.17.17,0,0,1,0-.07s0,0,.05-.06l1.06-.61h0a.11.11,0,0,1,0,.06v.32a.7.7,0,0,1,0,.19l-.48,2a.64.64,0,0,1,0,.07.11.11,0,0,1,0,.05l-.32.18h0A.08.08,0,0,1,206.91,216.85Z"/><path class="cls-8" d="M208.68,213.49a.46.46,0,0,1,.29-.09.28.28,0,0,1,.2.08.62.62,0,0,1,.12.23,1.66,1.66,0,0,1,0,.33v.61a2.58,2.58,0,0,1,0,.38,2.53,2.53,0,0,1-.12.36,1.55,1.55,0,0,1-.2.32,1.37,1.37,0,0,1-.29.24.6.6,0,0,1-.28.09.34.34,0,0,1-.2-.09.5.5,0,0,1-.12-.23,1.63,1.63,0,0,1-.05-.33v-.6a2.32,2.32,0,0,1,.05-.38,1.6,1.6,0,0,1,.12-.37,1.27,1.27,0,0,1,.2-.31A.92.92,0,0,1,208.68,213.49Zm.24,1.38a5.61,5.61,0,0,0,0-.58.77.77,0,0,0,0-.15.3.3,0,0,0,0-.1.08.08,0,0,0-.07,0l-.11,0a.52.52,0,0,0-.11.1.47.47,0,0,0-.07.12.83.83,0,0,0,0,.15.91.91,0,0,0,0,.17,5.42,5.42,0,0,0,0,.57.66.66,0,0,0,0,.15.23.23,0,0,0,0,.1.1.1,0,0,0,.07,0,.17.17,0,0,0,.11,0,.36.36,0,0,0,.11-.1.5.5,0,0,0,.08-.12c0-.05,0-.1,0-.15S208.92,214.92,208.92,214.87Z"/><path class="cls-8" d="M210.22,213.1v.26a1.52,1.52,0,0,1,0,.21.7.7,0,0,1-.06.19.91.91,0,0,1-.11.16.64.64,0,0,1-.15.13.37.37,0,0,1-.15,0,.16.16,0,0,1-.11,0,.17.17,0,0,1-.06-.11.48.48,0,0,1,0-.18v-.26a.69.69,0,0,1,0-.2.6.6,0,0,1,.06-.19,1,1,0,0,1,.11-.17.44.44,0,0,1,.15-.12.26.26,0,0,1,.15,0,.15.15,0,0,1,.11,0,.23.23,0,0,1,.06.12A.74.74,0,0,1,210.22,213.1Zm.55-.72,0-.07,0,0,.18-.11h0a.05.05,0,0,1,0,0v0L210,215.1l0,.06a.12.12,0,0,1,0,.05l-.18.1h0s0,0,0,0h0a0,0,0,0,1,0,0Zm-1,1.22a.29.29,0,0,0,0,.12s0,0,.07,0a.19.19,0,0,0,.07-.08.61.61,0,0,0,0-.15v-.22a.29.29,0,0,0,0-.12,0,0,0,0,0-.07,0,.16.16,0,0,0-.07.09.46.46,0,0,0,0,.14A.88.88,0,0,0,209.78,213.6Zm1.47.1V214a1.52,1.52,0,0,1,0,.21.7.7,0,0,1-.06.19.91.91,0,0,1-.11.16.47.47,0,0,1-.15.13.37.37,0,0,1-.15,0,.21.21,0,0,1-.11,0,.23.23,0,0,1-.06-.12.47.47,0,0,1,0-.17v-.26a.76.76,0,0,1,0-.21.6.6,0,0,1,.06-.19,1,1,0,0,1,.11-.17.44.44,0,0,1,.15-.12.37.37,0,0,1,.15,0,.15.15,0,0,1,.11,0,.34.34,0,0,1,.06.12A.86.86,0,0,1,211.25,213.7Zm-.44.5a.29.29,0,0,0,0,.12s0,0,.07,0,0,0,.07-.08a.54.54,0,0,0,0-.15v-.22a.29.29,0,0,0,0-.12,0,0,0,0,0-.07,0,.16.16,0,0,0-.07.09.46.46,0,0,0,0,.14A.88.88,0,0,0,210.81,214.2Z"/><path class="cls-8" d="M206.9,211.12l-.73-1.13a14.44,14.44,0,0,0-1.73,4.67l1.18-.1A10.92,10.92,0,0,1,206.9,211.12Z"/><path class="cls-8" d="M209,208.88V207a8.16,8.16,0,0,0-2.8,3l.73,1.13A6.11,6.11,0,0,1,209,208.88Z"/><path class="cls-8" d="M205.45,216.34a9.84,9.84,0,0,1,.17-1.78l-1.18.1a13.11,13.11,0,0,0-.24,2.4,9.18,9.18,0,0,0,.24,2.13l1.18-1.28A6.8,6.8,0,0,1,205.45,216.34Z"/><path class="cls-3" d="M213.5,209.42a4,4,0,0,0-1.73-2.67,2.81,2.81,0,0,0-2.8.22v1.91a2.08,2.08,0,0,1,2.07-.15,2.93,2.93,0,0,1,1.28,2,6.8,6.8,0,0,1,.17,1.57,9.75,9.75,0,0,1-.17,1.78,11.07,11.07,0,0,1-1.28,3.44,6.28,6.28,0,0,1-2.07,2.24,2.06,2.06,0,0,1-2.07.15,2.9,2.9,0,0,1-1.28-2l-1.18,1.28a3.91,3.91,0,0,0,1.73,2.67,2.78,2.78,0,0,0,2.8-.22,8.24,8.24,0,0,0,2.8-3A14.62,14.62,0,0,0,213.5,214a13.11,13.11,0,0,0,.23-2.41A9.21,9.21,0,0,0,213.5,209.42Z"/><path class="cls-8" d="M220.86,204.18l22.21-12.82c.59-.35,1.08-.1,1.08.54a2.33,2.33,0,0,1-1.08,1.8l-22.21,12.82c-.6.35-1.08.1-1.08-.54A2.31,2.31,0,0,1,220.86,204.18Z"/><path class="cls-2" d="M220.86,208.91l38.45-22.2c.6-.35,1.09-.1,1.09.55a2.31,2.31,0,0,1-1.09,1.79l-38.45,22.2c-.6.35-1.08.1-1.08-.55A2.3,2.3,0,0,1,220.86,208.91Z"/><path class="cls-1" d="M279.75,184.25l73-42.14a2.4,2.4,0,0,0,1.08-1.88V121.62c0-.69-.48-1-1.08-.62l-73,42.13a2.4,2.4,0,0,0-1.08,1.88v18.61C278.67,184.31,279.15,184.59,279.75,184.25Z"/><path class="cls-8" d="M286.47,169.41a1.32,1.32,0,0,1,.06-.39,1.35,1.35,0,0,1,.14-.35,1.54,1.54,0,0,1,.21-.29,1.41,1.41,0,0,1,.24-.2.9.9,0,0,1,.25-.08.35.35,0,0,1,.2.05.45.45,0,0,1,.15.18,1,1,0,0,1,0,.33,1.15,1.15,0,0,1,0,.19,1.16,1.16,0,0,1,0,.18,1.09,1.09,0,0,1-.05.17l-.06.16-.42,1.14a.14.14,0,0,0,0,.06.12.12,0,0,1-.05.05l-.35.2h0a.06.06,0,0,1,0-.05s0,0,0,0a0,0,0,0,1,0,0l.28-.77a.5.5,0,0,1-.21,0,.28.28,0,0,1-.17-.07.41.41,0,0,1-.12-.18A.85.85,0,0,1,286.47,169.41Zm.89-.51a.22.22,0,0,0,0-.12.1.1,0,0,0,0-.06l-.08,0-.09,0-.09.07-.07.11a.52.52,0,0,0-.06.13.59.59,0,0,0,0,.13.37.37,0,0,0,0,.12s0,.05.06.06a.08.08,0,0,0,.07,0,.16.16,0,0,0,.09,0,.32.32,0,0,0,.09-.08.39.39,0,0,0,.08-.1.5.5,0,0,0,0-.13A.3.3,0,0,0,287.36,168.9Z"/><path class="cls-8" d="M288.61,167.33a.44.44,0,0,1,.28-.09.28.28,0,0,1,.2.08.5.5,0,0,1,.12.23,1.63,1.63,0,0,1,.05.33v.61a2.65,2.65,0,0,1-.05.38,1.52,1.52,0,0,1-.12.36,1.55,1.55,0,0,1-.2.32,1.31,1.31,0,0,1-.28.24.64.64,0,0,1-.29.09.37.37,0,0,1-.2-.09.55.55,0,0,1-.12-.23,1.55,1.55,0,0,1,0-.32v-.61a2.33,2.33,0,0,1,0-.38,2.29,2.29,0,0,1,.12-.37,1.65,1.65,0,0,1,.2-.31A1,1,0,0,1,288.61,167.33Zm.23,1.38a5.61,5.61,0,0,0,0-.58.61.61,0,0,0,0-.14.28.28,0,0,0,0-.11.1.1,0,0,0-.07,0l-.11,0a.36.36,0,0,0-.11.1.37.37,0,0,0-.07.12.83.83,0,0,0,0,.15.88.88,0,0,0,0,.17,5.42,5.42,0,0,0,0,.57c0,.06,0,.11,0,.15a.51.51,0,0,0,0,.1.09.09,0,0,0,.08,0s.06,0,.11,0l.11-.09a.54.54,0,0,0,.07-.13.83.83,0,0,0,0-.15A.86.86,0,0,0,288.84,168.71Z"/><path class="cls-8" d="M290.14,166.94a1.13,1.13,0,0,1,0,.26,1.49,1.49,0,0,1,0,.21,1.46,1.46,0,0,1-.07.19.54.54,0,0,1-.1.16.65.65,0,0,1-.16.13.3.3,0,0,1-.15.05.18.18,0,0,1-.1,0,.35.35,0,0,1-.07-.12.9.9,0,0,1,0-.18.49.49,0,0,1,0-.12.71.71,0,0,1,0-.14,1.36,1.36,0,0,1,0-.2,1.07,1.07,0,0,1,.07-.19,1,1,0,0,1,.1-.17.79.79,0,0,1,.15-.12.37.37,0,0,1,.16,0,.13.13,0,0,1,.1,0,.35.35,0,0,1,.07.12A.88.88,0,0,1,290.14,166.94Zm.56-.72,0-.07,0,0L291,166h0s0,0,0,0v0l-1.09,2.86,0,.06a.12.12,0,0,1-.05.05l-.18.1h0a.05.05,0,0,1,0,0v-.05Zm-1,1.22c0,.06,0,.1,0,.12s0,0,.06,0a.1.1,0,0,0,.07-.08.57.57,0,0,0,0-.15v-.22c0-.06,0-.1,0-.12s0,0-.07,0a.15.15,0,0,0-.06.09.42.42,0,0,0,0,.14Zm1.47.1a1.13,1.13,0,0,1,0,.26,1.49,1.49,0,0,1,0,.21,1.46,1.46,0,0,1-.07.19l-.1.17-.15.12a.37.37,0,0,1-.16,0,.12.12,0,0,1-.1,0,.35.35,0,0,1-.07-.12.88.88,0,0,1,0-.17.85.85,0,0,1,0-.26,1.49,1.49,0,0,1,0-.21,1.07,1.07,0,0,1,.07-.19.44.44,0,0,1,.1-.16.48.48,0,0,1,.16-.13.3.3,0,0,1,.15,0,.13.13,0,0,1,.1,0,.35.35,0,0,1,.07.12A.88.88,0,0,1,291.17,167.54Zm-.44.5a.5.5,0,0,0,0,.12s0,0,.07,0a.1.1,0,0,0,.06-.08,1.3,1.3,0,0,0,0-.15v-.22a.5.5,0,0,0,0-.12s0,0-.06,0a.13.13,0,0,0-.07.09,1.06,1.06,0,0,0,0,.14Z"/><path class="cls-8" d="M288.83,162.76v-1.91a8.24,8.24,0,0,0-2.8,3l.73,1.13A6.2,6.2,0,0,1,288.83,162.76Z"/><path class="cls-3" d="M293.36,163.3a3.94,3.94,0,0,0-1.73-2.67,2.78,2.78,0,0,0-2.8.22v1.91a2.06,2.06,0,0,1,2.07-.15,2.9,2.9,0,0,1,1.28,2,6.8,6.8,0,0,1,.17,1.57,9.84,9.84,0,0,1-.17,1.78,10.92,10.92,0,0,1-1.28,3.44,6.28,6.28,0,0,1-2.07,2.24,2.06,2.06,0,0,1-2.07.15,2.9,2.9,0,0,1-1.28-2,6.8,6.8,0,0,1-.17-1.57,9.75,9.75,0,0,1,.17-1.78,10.92,10.92,0,0,1,1.28-3.44l-.73-1.13a14.47,14.47,0,0,0-1.73,4.66,13.21,13.21,0,0,0-.24,2.41,9.18,9.18,0,0,0,.24,2.13,3.91,3.91,0,0,0,1.73,2.67,2.78,2.78,0,0,0,2.8-.22,8.24,8.24,0,0,0,2.8-3h0a14.71,14.71,0,0,0,1.73-4.66,13.28,13.28,0,0,0,.23-2.41A9.21,9.21,0,0,0,293.36,163.3Z"/><path class="cls-8" d="M300.7,158.06l22.21-12.83c.6-.34,1.08-.1,1.08.55a2.31,2.31,0,0,1-1.08,1.8L300.7,160.4c-.6.35-1.08.1-1.08-.55A2.3,2.3,0,0,1,300.7,158.06Z"/><path class="cls-2" d="M300.7,162.78l38.46-22.19c.59-.35,1.08-.1,1.08.55a2.33,2.33,0,0,1-1.08,1.79l-38.46,22.2c-.6.34-1.08.1-1.08-.55A2.32,2.32,0,0,1,300.7,162.78Z"/><path class="cls-8" d="M208,235.09l15.58-9c.6-.35,1.08-.1,1.08.54a2.31,2.31,0,0,1-1.08,1.8l-15.58,9c-.59.35-1.08.1-1.08-.55A2.33,2.33,0,0,1,208,235.09Z"/><path class="cls-2" d="M353.28,157h0m-.46.27v119a1.39,1.39,0,0,1-.58,1L200.47,364.89v-119a1.43,1.43,0,0,1,.58-1l1.89-1.09a3.39,3.39,0,0,0,1.59-2.74V234.2a1.39,1.39,0,0,1,.58-1l21.79-12.58V227a1.63,1.63,0,0,0,1.6,1.77,2,2,0,0,0,1-.28l123.34-71.21M227.36,220.34h0M353.22,156a1,1,0,0,0-.48.15L229,227.63a1,1,0,0,1-.48.15c-.36,0-.6-.29-.6-.77v-6.89c0-.49-.24-.77-.6-.77a1,1,0,0,0-.48.15l-22.21,12.82a2.4,2.4,0,0,0-1.08,1.88v6.88a2.38,2.38,0,0,1-1.09,1.87l-1.89,1.1a2.37,2.37,0,0,0-1.08,1.87V365.37c0,.49.24.78.59.78a1,1,0,0,0,.49-.15l152.19-87.87a2.38,2.38,0,0,0,1.08-1.87V156.8c0-.49-.24-.77-.6-.77Z"/><path class="cls-2" d="M209.25,251.11a1.07,1.07,0,0,1-.53-.13,1.27,1.27,0,0,1-.57-1.14v-4.53a2.9,2.9,0,0,1,1.34-2.31l12.07-7a1.25,1.25,0,0,1,1.26-.08,1.27,1.27,0,0,1,.57,1.14v4.53a2.91,2.91,0,0,1-1.33,2.31l-12.07,7A1.52,1.52,0,0,1,209.25,251.11Zm.74-7.24a1.86,1.86,0,0,0-.84,1.44v4.53a.38.38,0,0,0,.07.27.39.39,0,0,0,.27-.08l12.07-6.95a1.92,1.92,0,0,0,.83-1.45V237.1a.38.38,0,0,0-.07-.27.36.36,0,0,0-.26.08Z"/><path class="cls-2" d="M210.7,245.73l7.87-4.56c.4-.23.72-.07.72.36a1.53,1.53,0,0,1-.72,1.2l-7.87,4.57c-.4.23-.72.06-.72-.37A1.57,1.57,0,0,1,210.7,245.73Z"/><path class="cls-8" d="M220.4,240.42l.65.93s.07,0,.1-.06l.65-1.68c0-.08,0-.15-.05-.12l-1.3.75A.16.16,0,0,0,220.4,240.42Z"/><path class="cls-3" d="M207.59,295.06c.58-.33,1-.06,1,.6a2.29,2.29,0,0,1-1,1.81c-.58.33-1,.06-1-.6A2.29,2.29,0,0,1,207.59,295.06Z"/><path class="cls-3" d="M215.71,285.68c.58-.33,1-.06,1,.6a2.3,2.3,0,0,1-1,1.81c-.57.33-1,.06-1-.6A2.31,2.31,0,0,1,215.71,285.68Z"/><path class="cls-3" d="M223.84,281c.57-.33,1-.06,1,.6a2.31,2.31,0,0,1-1,1.81c-.58.33-1.05.06-1.05-.6A2.3,2.3,0,0,1,223.84,281Z"/><path class="cls-3" d="M232,278.36c.58-.33,1-.06,1,.6a2.3,2.3,0,0,1-1,1.81c-.57.33-1,.06-1-.6A2.31,2.31,0,0,1,232,278.36Z"/><path class="cls-3" d="M240.1,269.91c.57-.33,1-.06,1,.61a2.31,2.31,0,0,1-1,1.8c-.58.34-1,.07-1-.6A2.33,2.33,0,0,1,240.1,269.91Z"/><path class="cls-3" d="M248.21,266.92c.58-.33,1-.06,1,.6a2.29,2.29,0,0,1-1,1.81c-.58.33-1,.06-1-.6A2.29,2.29,0,0,1,248.21,266.92Z"/><path class="cls-3" d="M256.33,257.54c.58-.34,1.05-.07,1.05.6a2.31,2.31,0,0,1-1.05,1.81c-.57.33-1,.06-1-.61A2.31,2.31,0,0,1,256.33,257.54Z"/><path class="cls-3" d="M264.46,255.19c.57-.33,1-.06,1,.61a2.31,2.31,0,0,1-1,1.8c-.58.34-1,.07-1-.6A2.31,2.31,0,0,1,264.46,255.19Z"/><path class="cls-3" d="M272.58,229.39c.58-.33,1.05-.06,1.05.61a2.33,2.33,0,0,1-1.05,1.81c-.57.33-1,.06-1-.61A2.34,2.34,0,0,1,272.58,229.39Z"/><path class="cls-3" d="M280.71,243.47c.57-.34,1-.07,1,.6a2.34,2.34,0,0,1-1,1.81c-.58.33-1,.06-1-.61A2.29,2.29,0,0,1,280.71,243.47Z"/><path class="cls-3" d="M288.83,243.47c.58-.34,1-.07,1,.6a2.32,2.32,0,0,1-1,1.81c-.58.33-1,.06-1-.61A2.28,2.28,0,0,1,288.83,243.47Z"/><path class="cls-3" d="M297,243.47c.58-.34,1.05-.07,1.05.6a2.33,2.33,0,0,1-1.05,1.81c-.57.33-1,.06-1-.61A2.31,2.31,0,0,1,297,243.47Z"/><path class="cls-3" d="M305.08,229.4c.57-.34,1-.07,1,.6a2.34,2.34,0,0,1-1,1.81c-.58.33-1.05.06-1.05-.61A2.29,2.29,0,0,1,305.08,229.4Z"/><path class="cls-3" d="M313.2,226.7c.58-.33,1.05-.06,1.05.6a2.3,2.3,0,0,1-1.05,1.81c-.57.33-1,.06-1-.6A2.31,2.31,0,0,1,313.2,226.7Z"/><path class="cls-3" d="M321.35,215.32c.58-.33,1-.06,1,.61a2.29,2.29,0,0,1-1,1.8c-.57.34-1,.07-1-.6A2.34,2.34,0,0,1,321.35,215.32Z"/><ellipse class="cls-3" cx="329.45" cy="216.53" rx="1.48" ry="0.85" transform="translate(-22.78 393.6) rotate(-60)"/><ellipse class="cls-3" cx="337.57" cy="216.53" rx="1.48" ry="0.85" transform="translate(-18.72 400.63) rotate(-60)"/><path class="cls-3" d="M345.7,210.63c.58-.33,1-.06,1,.61a2.28,2.28,0,0,1-1,1.8c-.58.34-1.05.07-1.05-.6A2.33,2.33,0,0,1,345.7,210.63Z"/><path class="cls-3" d="M207.57,296.53a.27.27,0,0,1-.17-.06.26.26,0,0,1,0-.36l8.2-9.42.07-.06,8.06-4.65,8.11-2.63,8.08-8.41.1-.06,8.06-3,8.09-9.33a.25.25,0,0,1,.12-.08l8-2.31,8.08-25.66a.25.25,0,0,1,.46-.05l8.05,13.94h16l8.05-13.94a.24.24,0,0,1,.14-.12l8.05-2.67,8.07-11.31a.28.28,0,0,1,.21-.1h16.18l8.06-4.66a.26.26,0,0,1,.35.09.26.26,0,0,1-.1.34l-8.12,4.7a.28.28,0,0,1-.13,0H321.46l-8,11.27a.24.24,0,0,1-.13.09l-8,2.67-8.08,14a.26.26,0,0,1-.22.12H280.71a.26.26,0,0,1-.22-.12l-7.84-13.58-7.95,25.25a.29.29,0,0,1-.17.17l-8,2.32-8.08,9.33-.1.07-8.07,3-8.09,8.41a.21.21,0,0,1-.1.06l-8.13,2.63-8,4.62-8.17,9.39A.25.25,0,0,1,207.57,296.53Z"/><path class="cls-2" d="M207.59,301.46a.5.5,0,0,1-.43-.25.51.51,0,0,1,.18-.69l138.11-79.73a.5.5,0,1,1,.5.86L207.84,301.39A.47.47,0,0,1,207.59,301.46Z"/><path class="cls-3" d="M207.59,290.37c.58-.33,1-.06,1,.6a2.29,2.29,0,0,1-1,1.81c-.58.33-1,.06-1-.6A2.29,2.29,0,0,1,207.59,290.37Z"/><path class="cls-3" d="M215.71,276.3c.58-.33,1-.06,1,.6a2.3,2.3,0,0,1-1,1.81c-.57.33-1,.06-1-.6A2.31,2.31,0,0,1,215.71,276.3Z"/><ellipse class="cls-3" cx="223.84" cy="275.75" rx="1.48" ry="0.85" transform="translate(-126.88 331.74) rotate(-60)"/><path class="cls-3" d="M232,257.54c.58-.34,1-.07,1,.6a2.31,2.31,0,0,1-1,1.81c-.58.33-1,.06-1-.61A2.28,2.28,0,0,1,232,257.54Z"/><path class="cls-3" d="M240.1,262.23c.57-.33,1-.06,1,.6a2.31,2.31,0,0,1-1,1.81c-.58.33-1,.06-1-.6A2.3,2.3,0,0,1,240.1,262.23Z"/><path class="cls-3" d="M248.21,259.88c.58-.33,1-.06,1,.61a2.29,2.29,0,0,1-1,1.8c-.58.34-1,.07-1-.6A2.32,2.32,0,0,1,248.21,259.88Z"/><path class="cls-3" d="M256.33,252.85c.58-.34,1.05-.07,1.05.6a2.31,2.31,0,0,1-1.05,1.81c-.57.33-1,.06-1-.6A2.31,2.31,0,0,1,256.33,252.85Z"/><path class="cls-3" d="M264.46,243.47c.57-.34,1-.07,1,.6a2.34,2.34,0,0,1-1,1.81c-.58.33-1,.06-1-.61A2.29,2.29,0,0,1,264.46,243.47Z"/><path class="cls-3" d="M272.58,241.12c.58-.33,1.05-.06,1.05.6a2.3,2.3,0,0,1-1.05,1.81c-.57.33-1,.06-1-.6A2.31,2.31,0,0,1,272.58,241.12Z"/><path class="cls-3" d="M280.71,234.09c.57-.34,1-.07,1,.6a2.34,2.34,0,0,1-1,1.81c-.58.33-1,.06-1-.61A2.29,2.29,0,0,1,280.71,234.09Z"/><path class="cls-3" d="M288.83,234.09c.58-.34,1-.07,1,.6a2.32,2.32,0,0,1-1,1.81c-.58.33-1,.06-1-.61A2.28,2.28,0,0,1,288.83,234.09Z"/><path class="cls-3" d="M297,215.32c.58-.33,1.05-.06,1.05.61a2.29,2.29,0,0,1-1.05,1.8c-.57.34-1,.07-1-.6A2.34,2.34,0,0,1,297,215.32Z"/><path class="cls-3" d="M305.08,224.64c.57-.33,1-.07,1,.6a2.31,2.31,0,0,1-1,1.81c-.58.33-1.05.06-1.05-.6A2.3,2.3,0,0,1,305.08,224.64Z"/><path class="cls-3" d="M313.2,215.32c.58-.33,1.05-.06,1.05.61a2.29,2.29,0,0,1-1.05,1.8c-.57.34-1,.07-1-.6A2.34,2.34,0,0,1,313.2,215.32Z"/><path class="cls-3" d="M321.33,210.63c.57-.33,1-.06,1,.61a2.31,2.31,0,0,1-1,1.8c-.58.34-1.05.07-1.05-.6A2.33,2.33,0,0,1,321.33,210.63Z"/><path class="cls-3" d="M329.45,210.63c.58-.33,1-.06,1,.61a2.28,2.28,0,0,1-1,1.8c-.58.34-1,.07-1-.6A2.32,2.32,0,0,1,329.45,210.63Z"/><path class="cls-3" d="M337.57,205.94c.58-.33,1.05-.06,1.05.61a2.29,2.29,0,0,1-1.05,1.8c-.57.34-1,.07-1-.6A2.34,2.34,0,0,1,337.57,205.94Z"/><path class="cls-3" d="M345.7,205.94c.58-.33,1-.06,1,.61a2.28,2.28,0,0,1-1,1.8c-.58.34-1.05.07-1.05-.6A2.33,2.33,0,0,1,345.7,205.94Z"/><path class="cls-3" d="M207.59,291.83a.22.22,0,0,1-.13,0,.25.25,0,0,1-.09-.34l8.19-14.1a.2.2,0,0,1,.16-.12l7.95-1.7,8.07-16.9a.24.24,0,0,1,.15-.13.24.24,0,0,1,.2,0l8,4.64,8-2.31,8.07-7,8.11-9.36a.25.25,0,0,1,.12-.08l8.07-2.33,8.08-7a.27.27,0,0,1,.17-.06h8l8.05-18.61a.28.28,0,0,1,.2-.15.24.24,0,0,1,.22.09l7.94,9.16,7.93-9.16a.2.2,0,0,1,.07-.06l8.15-4.7a.19.19,0,0,1,.12,0h8.06l8-4.64a.27.27,0,0,1,.12,0h8.13a.25.25,0,0,1,0,.5h-8.06l-8,4.64a.24.24,0,0,1-.12,0h-8.06l-8.06,4.65-8.09,9.35a.26.26,0,0,1-.38,0L297,217l-8,18.4a.25.25,0,0,1-.23.15h-8l-8.05,7a.31.31,0,0,1-.1,0l-8,2.32-8.09,9.33-8.14,7.06-.09.05-8.12,2.35a.25.25,0,0,1-.19,0l-7.9-4.57-8,16.77a.21.21,0,0,1-.17.13l-8,1.7-8.12,14A.26.26,0,0,1,207.59,291.83Z"/><g class="cls-23"><path d="M207.59,290.37c.58-.33,1-.06,1,.6a2.29,2.29,0,0,1-1,1.81c-.58.33-1,.06-1-.6A2.29,2.29,0,0,1,207.59,290.37Z"/><path d="M215.71,276.3c.58-.33,1-.06,1,.6a2.3,2.3,0,0,1-1,1.81c-.57.33-1,.06-1-.6A2.31,2.31,0,0,1,215.71,276.3Z"/><ellipse cx="223.84" cy="275.75" rx="1.48" ry="0.85" transform="translate(-126.88 331.74) rotate(-60)"/><path d="M232,257.54c.58-.34,1-.07,1,.6a2.31,2.31,0,0,1-1,1.81c-.58.33-1,.06-1-.61A2.28,2.28,0,0,1,232,257.54Z"/><path d="M240.1,262.23c.57-.33,1-.06,1,.6a2.31,2.31,0,0,1-1,1.81c-.58.33-1,.06-1-.6A2.3,2.3,0,0,1,240.1,262.23Z"/><path d="M248.21,259.88c.58-.33,1-.06,1,.61a2.29,2.29,0,0,1-1,1.8c-.58.34-1,.07-1-.6A2.32,2.32,0,0,1,248.21,259.88Z"/><path d="M256.33,252.85c.58-.34,1.05-.07,1.05.6a2.31,2.31,0,0,1-1.05,1.81c-.57.33-1,.06-1-.6A2.31,2.31,0,0,1,256.33,252.85Z"/><path d="M264.46,243.47c.57-.34,1-.07,1,.6a2.34,2.34,0,0,1-1,1.81c-.58.33-1,.06-1-.61A2.29,2.29,0,0,1,264.46,243.47Z"/><path d="M272.58,241.12c.58-.33,1.05-.06,1.05.6a2.3,2.3,0,0,1-1.05,1.81c-.57.33-1,.06-1-.6A2.31,2.31,0,0,1,272.58,241.12Z"/><path d="M280.71,234.09c.57-.34,1-.07,1,.6a2.34,2.34,0,0,1-1,1.81c-.58.33-1,.06-1-.61A2.29,2.29,0,0,1,280.71,234.09Z"/><path d="M288.83,234.09c.58-.34,1-.07,1,.6a2.32,2.32,0,0,1-1,1.81c-.58.33-1,.06-1-.61A2.28,2.28,0,0,1,288.83,234.09Z"/><path d="M297,215.32c.58-.33,1.05-.06,1.05.61a2.29,2.29,0,0,1-1.05,1.8c-.57.34-1,.07-1-.6A2.34,2.34,0,0,1,297,215.32Z"/><path d="M305.08,224.64c.57-.33,1-.07,1,.6a2.31,2.31,0,0,1-1,1.81c-.58.33-1.05.06-1.05-.6A2.3,2.3,0,0,1,305.08,224.64Z"/><path d="M313.2,215.32c.58-.33,1.05-.06,1.05.61a2.29,2.29,0,0,1-1.05,1.8c-.57.34-1,.07-1-.6A2.34,2.34,0,0,1,313.2,215.32Z"/><path d="M321.33,210.63c.57-.33,1-.06,1,.61a2.31,2.31,0,0,1-1,1.8c-.58.34-1.05.07-1.05-.6A2.33,2.33,0,0,1,321.33,210.63Z"/><path d="M329.45,210.63c.58-.33,1-.06,1,.61a2.28,2.28,0,0,1-1,1.8c-.58.34-1,.07-1-.6A2.32,2.32,0,0,1,329.45,210.63Z"/><path d="M337.57,205.94c.58-.33,1.05-.06,1.05.61a2.29,2.29,0,0,1-1.05,1.8c-.57.34-1,.07-1-.6A2.34,2.34,0,0,1,337.57,205.94Z"/><path d="M345.7,205.94c.58-.33,1-.06,1,.61a2.28,2.28,0,0,1-1,1.8c-.58.34-1.05.07-1.05-.6A2.33,2.33,0,0,1,345.7,205.94Z"/><path d="M207.59,291.83a.22.22,0,0,1-.13,0,.25.25,0,0,1-.09-.34l8.19-14.1a.2.2,0,0,1,.16-.12l7.95-1.7,8.07-16.9a.24.24,0,0,1,.15-.13.24.24,0,0,1,.2,0l8,4.64,8-2.31,8.07-7,8.11-9.36a.25.25,0,0,1,.12-.08l8.07-2.33,8.08-7a.27.27,0,0,1,.17-.06h8l8.05-18.61a.28.28,0,0,1,.2-.15.24.24,0,0,1,.22.09l7.94,9.16,7.93-9.16a.2.2,0,0,1,.07-.06l8.15-4.7a.19.19,0,0,1,.12,0h8.06l8-4.64a.27.27,0,0,1,.12,0h8.13a.25.25,0,0,1,0,.5h-8.06l-8,4.64a.24.24,0,0,1-.12,0h-8.06l-8.06,4.65-8.09,9.35a.26.26,0,0,1-.38,0L297,217l-8,18.4a.25.25,0,0,1-.23.15h-8l-8.05,7a.31.31,0,0,1-.1,0l-8,2.32-8.09,9.33-8.14,7.06-.09.05-8.12,2.35a.25.25,0,0,1-.19,0l-7.9-4.57-8,16.77a.21.21,0,0,1-.17.13l-8,1.7-8.12,14A.26.26,0,0,1,207.59,291.83Z"/></g><path class="cls-2" d="M211.85,255.57l7.86-4.57c.4-.23.72-.07.72.37a1.53,1.53,0,0,1-.72,1.19l-7.87,4.57c-.39.23-.72.07-.72-.37A1.54,1.54,0,0,1,211.85,255.57Z"/><path class="cls-3" d="M207.59,257.54c.58-.34,1-.07,1,.6a2.29,2.29,0,0,1-1,1.81c-.58.33-1,.06-1-.6A2.29,2.29,0,0,1,207.59,257.54Z"/><path class="cls-19" d="M207.59,257.54c.58-.34,1-.07,1,.6a2.29,2.29,0,0,1-1,1.81c-.58.33-1,.06-1-.6A2.29,2.29,0,0,1,207.59,257.54Z"/><path class="cls-2" d="M211.85,260.24l7.86-4.56c.4-.23.72-.07.72.36a1.53,1.53,0,0,1-.72,1.2l-7.87,4.57c-.39.23-.72.06-.72-.37A1.56,1.56,0,0,1,211.85,260.24Z"/><path class="cls-3" d="M207.59,262.23c.58-.33,1-.07,1,.6a2.29,2.29,0,0,1-1,1.81c-.58.33-1,.06-1-.6A2.29,2.29,0,0,1,207.59,262.23Z"/><path class="cls-3" d="M207.59,324.73a.26.26,0,0,1-.17-.07.25.25,0,0,1,0-.36l4.12-4.24,4.05-.51,4.09-5.28,4.09.56,4-3.59,4.06-2.43,4.14-5.73,4.1,1.29,3.95-3.53a.25.25,0,0,1,.35,0,.24.24,0,0,1,0,.35l-4.16,3.72-4-1.27-4,5.55L228,311.64l-4.11,3.72-4-.55-4,5.21-4.08.52-4,4.11A.25.25,0,0,1,207.59,324.73Z"/><path class="cls-8" d="M209.2,311a.45.45,0,0,1,.1-.09.59.59,0,0,1,.11-.08,1.11,1.11,0,0,1,.61-.18.71.71,0,0,1,.49.18,1.09,1.09,0,0,1,.32.51,2.47,2.47,0,0,1,.12.81,3.71,3.71,0,0,1-.12.93,3.77,3.77,0,0,1-.32.89,3.24,3.24,0,0,1-.49.75,2.28,2.28,0,0,1-.61.52,1.23,1.23,0,0,1-.62.19.76.76,0,0,1-.48-.19,1.09,1.09,0,0,1-.32-.51,2.43,2.43,0,0,1-.12-.81,2.92,2.92,0,0,1,0-.51,3.86,3.86,0,0,1,.1-.49c0-.16.09-.31.14-.46s.1-.3.15-.44l1.09-3.08a1.16,1.16,0,0,0,.06-.15.24.24,0,0,1,.12-.14l.34-.19a.06.06,0,0,1,.09,0,.17.17,0,0,1,0,.12s0,.06,0,.08,0,0,0,.05Zm-.77,2.6a1.73,1.73,0,0,0,.07.48.77.77,0,0,0,.2.33.46.46,0,0,0,.3.13.79.79,0,0,0,.41-.12,1.69,1.69,0,0,0,.41-.35,2.41,2.41,0,0,0,.3-.48,2.46,2.46,0,0,0,.26-1.12,1.75,1.75,0,0,0-.06-.48.77.77,0,0,0-.2-.33.46.46,0,0,0-.3-.13.9.9,0,0,0-.41.12,1.69,1.69,0,0,0-.41.35,2.22,2.22,0,0,0-.3.49,2.58,2.58,0,0,0-.2.55A2.77,2.77,0,0,0,208.43,313.61Z"/><path class="cls-8" d="M212,312.14a1.83,1.83,0,0,0,.08.25.35.35,0,0,0,.16.16.44.44,0,0,0,.29,0,1.5,1.5,0,0,0,.45-.19,1.73,1.73,0,0,0,.35-.27,1.82,1.82,0,0,0,.29-.38,2,2,0,0,0,.2-.48,2,2,0,0,0,.08-.56,1.35,1.35,0,0,0-.07-.46.44.44,0,0,0-.2-.22.47.47,0,0,0-.29,0,1.38,1.38,0,0,0-.36.16l-.49.28a.09.09,0,0,1-.12,0,.2.2,0,0,1,0-.14V310a.51.51,0,0,1,0-.17l.06-.16,1.07-2.4-1.71,1a.07.07,0,0,1-.11,0,.18.18,0,0,1,0-.14v-.33a.46.46,0,0,1,0-.2.27.27,0,0,1,.11-.14l2.34-1.35a.09.09,0,0,1,.12,0,.22.22,0,0,1,0,.15v.33a.62.62,0,0,1,0,.18.77.77,0,0,1-.08.19l-1,2.36a1.16,1.16,0,0,1,.55-.17.57.57,0,0,1,.42.13.84.84,0,0,1,.27.43,2.09,2.09,0,0,1,.1.71,3.44,3.44,0,0,1-.12.91,3.6,3.6,0,0,1-.32.81,3.43,3.43,0,0,1-.47.66,2.4,2.4,0,0,1-.57.46,1.7,1.7,0,0,1-.69.26.7.7,0,0,1-.47-.1.77.77,0,0,1-.28-.36,1.79,1.79,0,0,1-.1-.54.32.32,0,0,1,0-.16.25.25,0,0,1,.09-.11l.27-.16s.08,0,.11,0A.16.16,0,0,1,212,312.14Z"/><path class="cls-8" d="M215.5,310.1a1,1,0,0,0,.08.25.35.35,0,0,0,.16.16.42.42,0,0,0,.28,0,1.44,1.44,0,0,0,.46-.19,1.73,1.73,0,0,0,.35-.27,1.65,1.65,0,0,0,.29-.39,2.22,2.22,0,0,0,.2-.47,2,2,0,0,0,.07-.56,1.14,1.14,0,0,0-.07-.46.42.42,0,0,0-.19-.22.47.47,0,0,0-.29,0,1.73,1.73,0,0,0-.36.15l-.5.29a.09.09,0,0,1-.11,0,.2.2,0,0,1-.05-.14v-.33a.33.33,0,0,1,0-.17,1.38,1.38,0,0,1,.06-.16l1.07-2.4-1.71,1a.09.09,0,0,1-.12,0,.2.2,0,0,1,0-.14v-.33a.45.45,0,0,1,0-.2c0-.07.07-.12.12-.14l2.34-1.36a.09.09,0,0,1,.11,0,.21.21,0,0,1,.05.15v.33a.67.67,0,0,1,0,.18c0,.06-.05.12-.08.19l-1,2.36a1.32,1.32,0,0,1,.54-.18.64.64,0,0,1,.43.14,1,1,0,0,1,.27.42,2.4,2.4,0,0,1,.1.72,3.5,3.5,0,0,1-.12.91,3.82,3.82,0,0,1-.32.8,2.91,2.91,0,0,1-.47.66,2.45,2.45,0,0,1-.57.47,1.75,1.75,0,0,1-.69.26A.67.67,0,0,1,215,311a1.33,1.33,0,0,1-.1-.54.32.32,0,0,1,0-.16.23.23,0,0,1,.09-.12l.27-.15s.08,0,.11,0A.23.23,0,0,1,215.5,310.1Z"/><path class="cls-2" d="M208.32,328l35.11-20.35c.4-.23.72-.06.72.37a1.55,1.55,0,0,1-.72,1.2l-35.11,20.34c-.39.23-.72.07-.72-.37A1.56,1.56,0,0,1,208.32,328Z"/><path class="cls-2" d="M208.32,304.49l7.87-4.56c.4-.23.72-.07.72.36a1.55,1.55,0,0,1-.72,1.2l-7.87,4.56c-.39.23-.72.07-.72-.36A1.57,1.57,0,0,1,208.32,304.49Z"/><path class="cls-3" d="M207.59,352.85a.23.23,0,0,1-.17-.08.24.24,0,0,1,0-.35l4.12-4.24,4.08-.51,4.1-3.59,3.95-1.08,4.13-8.21,4.13,2,4-3.52H236l4-.75,4-6.91a.25.25,0,0,1,.34-.09.26.26,0,0,1,.1.34L240.25,333l-4.11.78L232,337.41l-4-2-4,8-4.11,1.12-4.08,3.59-4,.52-4,4.11A.25.25,0,0,1,207.59,352.85Z"/><g class="cls-23"><path d="M207.59,352.85a.23.23,0,0,1-.17-.08.24.24,0,0,1,0-.35l4.12-4.24,4.08-.51,4.1-3.59,3.95-1.08,4.13-8.21,4.13,2,4-3.52H236l4-.75,4-6.91a.25.25,0,0,1,.34-.09.26.26,0,0,1,.1.34L240.25,333l-4.11.78L232,337.41l-4-2-4,8-4.11,1.12-4.08,3.59-4,.52-4,4.11A.25.25,0,0,1,207.59,352.85Z"/></g><path class="cls-8" d="M209.67,342.88a.54.54,0,0,1,0,.21.26.26,0,0,1-.12.13l-.24.14a.08.08,0,0,1-.11,0,.21.21,0,0,1-.05-.15v-5l-1,1.68q-.06.11-.12.12a.08.08,0,0,1-.11,0l-.14-.2a.2.2,0,0,1,0-.16.36.36,0,0,1,.06-.2l1.27-2.24a.4.4,0,0,1,.1-.12l.09-.06.24-.14a.09.09,0,0,1,.12,0,.18.18,0,0,1,0,.14Z"/><path class="cls-8" d="M212.26,338.26a3.76,3.76,0,0,0,.27-.65,2.63,2.63,0,0,0,.09-.72,1.06,1.06,0,0,0-.19-.71c-.12-.14-.31-.14-.58,0a1.27,1.27,0,0,0-.35.3,2,2,0,0,0-.25.39,3.53,3.53,0,0,0-.15.46,4,4,0,0,0-.09.48.6.6,0,0,1-.06.19.27.27,0,0,1-.1.11l-.27.15s-.07,0-.09,0a.16.16,0,0,1,0-.12,3.52,3.52,0,0,1,.1-.75,4.92,4.92,0,0,1,.27-.79,4.48,4.48,0,0,1,.44-.72,2.07,2.07,0,0,1,.59-.52,1.13,1.13,0,0,1,.58-.18.6.6,0,0,1,.41.18,1.05,1.05,0,0,1,.26.48,2.52,2.52,0,0,1,.08.71,4.68,4.68,0,0,1,0,.55,4.54,4.54,0,0,1-.09.51c-.05.17-.11.34-.18.52s-.16.36-.26.56l-1.33,2.67,1.82-1.05a.09.09,0,0,1,.12,0,.18.18,0,0,1,0,.14v.33a.45.45,0,0,1,0,.2c0,.07-.07.12-.12.14l-2.56,1.48a.09.09,0,0,1-.11,0,.2.2,0,0,1-.05-.14v-.33a.58.58,0,0,1,0-.19,1.8,1.8,0,0,1,.1-.24Z"/><path class="cls-8" d="M217,335c0,.27,0,.52,0,.77s0,.49,0,.77a6,6,0,0,1-.09,1.05,4.67,4.67,0,0,1-.28,1,3.18,3.18,0,0,1-.47.8,2.2,2.2,0,0,1-.67.58,1.18,1.18,0,0,1-.68.2.68.68,0,0,1-.46-.26,1.51,1.51,0,0,1-.28-.64,5.11,5.11,0,0,1-.1-.94V336.7a7.46,7.46,0,0,1,.1-1.06,4.27,4.27,0,0,1,.28-1,3.7,3.7,0,0,1,.46-.8,2.39,2.39,0,0,1,.68-.59,1.15,1.15,0,0,1,.67-.19.66.66,0,0,1,.47.27,1.52,1.52,0,0,1,.28.64A4.35,4.35,0,0,1,217,335Zm-2.47,3a1.8,1.8,0,0,0,.26,1.13c.16.19.39.19.7,0a1.67,1.67,0,0,0,.7-.82,3.77,3.77,0,0,0,.26-1.43v-1.54a1.89,1.89,0,0,0-.26-1.14c-.16-.19-.39-.19-.7,0a1.67,1.67,0,0,0-.7.82,3.62,3.62,0,0,0-.26,1.43v1.55Z"/><path class="cls-2" d="M208.32,356.07l35.11-20.34c.4-.23.72-.06.72.37a1.53,1.53,0,0,1-.72,1.19l-35.11,20.35c-.39.23-.72.06-.72-.37A1.57,1.57,0,0,1,208.32,356.07Z"/><path class="cls-2" d="M208.32,332.61l7.87-4.57c.4-.23.72-.06.72.37a1.55,1.55,0,0,1-.72,1.2l-7.87,4.56c-.39.23-.72.07-.72-.36A1.56,1.56,0,0,1,208.32,332.61Z"/><path class="cls-3" d="M256.33,296.53a.26.26,0,0,1-.19-.1.24.24,0,0,1,0-.35l4.06-3.24,4.09-4.67,4.15-.61,4-.89,4.1-4.84,4,.71,4.05-6.41,4.12.06,4-3.55a.24.24,0,0,1,.35,0,.25.25,0,0,1,0,.35l-4.13,3.69-4-.07-4.08,6.46-4.09-.72-4,4.75-4.15.94-4,.58-4,4.56-4.09,3.27A.25.25,0,0,1,256.33,296.53Z"/><path class="cls-8" d="M257.94,282.81l.1-.09.11-.08a1.14,1.14,0,0,1,.62-.18.72.72,0,0,1,.49.18,1.28,1.28,0,0,1,.32.51,2.78,2.78,0,0,1,.11.81,4.22,4.22,0,0,1-.11.93,4.93,4.93,0,0,1-.32.89,3.6,3.6,0,0,1-.49.75,2.32,2.32,0,0,1-.62.52,1.2,1.2,0,0,1-.61.19.79.79,0,0,1-.49-.19,1.18,1.18,0,0,1-.32-.51,2.43,2.43,0,0,1-.12-.81,4.38,4.38,0,0,1,0-.51c0-.17.06-.33.1-.49l.14-.47c.05-.15.11-.29.16-.43l1.08-3.08.07-.15a.26.26,0,0,1,.11-.14l.34-.19s.07,0,.09,0a.17.17,0,0,1,0,.12.19.19,0,0,1,0,.08.08.08,0,0,1,0,0Zm-.76,2.6a1.43,1.43,0,0,0,.07.48.76.76,0,0,0,.19.33.49.49,0,0,0,.31.13.76.76,0,0,0,.4-.12,1.69,1.69,0,0,0,.41-.35,2.71,2.71,0,0,0,.31-.49,3,3,0,0,0,.19-.55,2.15,2.15,0,0,0,.07-.56,1.43,1.43,0,0,0-.07-.48.87.87,0,0,0-.19-.33.51.51,0,0,0-.31-.13.9.9,0,0,0-.41.12,1.65,1.65,0,0,0-.4.35,2.26,2.26,0,0,0-.31.49,2.55,2.55,0,0,0-.19.55A2.2,2.2,0,0,0,257.18,285.41Z"/><path class="cls-8" d="M262.06,281.34a3.83,3.83,0,0,0,.27-.66,2.63,2.63,0,0,0,.09-.72,1.08,1.08,0,0,0-.19-.7c-.12-.15-.32-.14-.58,0a1.48,1.48,0,0,0-.36.29,2.23,2.23,0,0,0-.24.4,2.16,2.16,0,0,0-.15.45c0,.16-.07.32-.1.48a.47.47,0,0,1-.06.19.26.26,0,0,1-.09.11l-.27.16a.08.08,0,0,1-.1,0,.17.17,0,0,1,0-.12,2.91,2.91,0,0,1,.1-.74,3.88,3.88,0,0,1,.27-.79,3.31,3.31,0,0,1,.44-.72,2.11,2.11,0,0,1,.59-.53,1.11,1.11,0,0,1,.58-.17.58.58,0,0,1,.41.18,1,1,0,0,1,.25.47,2.63,2.63,0,0,1,.09.72,4.63,4.63,0,0,1,0,.54,3.06,3.06,0,0,1-.1.51,3.93,3.93,0,0,1-.17.52c-.07.18-.16.36-.26.56l-1.33,2.67,1.82-1.05a.09.09,0,0,1,.11,0,.21.21,0,0,1,.05.15v.33a.53.53,0,0,1-.05.2.4.4,0,0,1-.11.14l-2.56,1.47a.09.09,0,0,1-.12,0,.21.21,0,0,1,0-.15v-.33a.58.58,0,0,1,0-.19,1.33,1.33,0,0,1,.1-.23Z"/><path class="cls-8" d="M266.1,276s.08,0,.11,0a.17.17,0,0,1,.05.15v.33a.58.58,0,0,1,0,.18,2.07,2.07,0,0,1,0,.22l-1.32,6-.06.19a.3.3,0,0,1-.12.13l-.27.16a.08.08,0,0,1-.1,0,.17.17,0,0,1,0-.13v0a.31.31,0,0,1,0-.08l1.32-6-1.95,1.13a.09.09,0,0,1-.11,0,.21.21,0,0,1-.05-.15v-.33a.53.53,0,0,1,.05-.2.33.33,0,0,1,.11-.14Z"/><path class="cls-2" d="M257.07,299.76l35.1-20.35c.4-.23.72-.06.72.37a1.55,1.55,0,0,1-.72,1.2l-35.1,20.34c-.4.23-.72.06-.72-.37A1.53,1.53,0,0,1,257.07,299.76Z"/><path class="cls-2" d="M257.07,276.29l7.87-4.56c.39-.23.72-.07.72.36a1.57,1.57,0,0,1-.72,1.2l-7.87,4.56c-.4.23-.72.07-.72-.36A1.55,1.55,0,0,1,257.07,276.29Z"/><path class="cls-3" d="M256.33,324.64a.31.31,0,0,1-.13,0,.27.27,0,0,1-.08-.35l4.15-6.8,4.18.77,3.93-1.08,4.06-4.95,4-1,4.1-7.32,4.2,1.22,4-.75,4-3.56a.25.25,0,0,1,.33.37L289,304.8h-.06l-4.13.78-3.93-1.14-4,7.16-4.09,1-4.06,4.95-.07,0-4.12,1.13h-.06l-3.89-.72-4,6.51A.25.25,0,0,1,256.33,324.64Z"/><g class="cls-23"><path d="M256.33,324.64a.31.31,0,0,1-.13,0,.27.27,0,0,1-.08-.35l4.15-6.8,4.18.77,3.93-1.08,4.06-4.95,4-1,4.1-7.32,4.2,1.22,4-.75,4-3.56a.25.25,0,0,1,.33.37L289,304.8h-.06l-4.13.78-3.93-1.14-4,7.16-4.09,1-4.06,4.95-.07,0-4.12,1.13h-.06l-3.89-.72-4,6.51A.25.25,0,0,1,256.33,324.64Z"/></g><path class="cls-8" d="M258.21,312.85l-.08.06-.08,0a1.23,1.23,0,0,1-.55.18A.74.74,0,0,1,257,313a1,1,0,0,1-.33-.48,2.27,2.27,0,0,1-.13-.85,3.71,3.71,0,0,1,.12-.93,4.73,4.73,0,0,1,.32-.87,3.76,3.76,0,0,1,.48-.72,2.18,2.18,0,0,1,.57-.5,1.31,1.31,0,0,1,.62-.2.71.71,0,0,1,.47.19,1.15,1.15,0,0,1,.3.51,2.69,2.69,0,0,1,.1.8,2.93,2.93,0,0,1,0,.49c0,.17-.07.34-.12.52s-.1.34-.16.51-.1.32-.15.45L258,315l-.07.15a.24.24,0,0,1-.12.14l-.34.2a.06.06,0,0,1-.08,0,.23.23,0,0,1,0-.13v-.07l0-.06Zm.77-2.59a1.45,1.45,0,0,0-.07-.49.63.63,0,0,0-.19-.31.39.39,0,0,0-.29-.11.85.85,0,0,0-.38.11,1.4,1.4,0,0,0-.37.32,1.77,1.77,0,0,0-.3.45,2.38,2.38,0,0,0-.25,1.1,1.8,1.8,0,0,0,.06.5.71.71,0,0,0,.19.31.44.44,0,0,0,.3.11.65.65,0,0,0,.37-.11,1.62,1.62,0,0,0,.38-.32,2.66,2.66,0,0,0,.29-.45,2.39,2.39,0,0,0,.19-.53A2.25,2.25,0,0,0,259,310.26Z"/><path class="cls-8" d="M260.53,312.16a.73.73,0,0,0,.08.25.37.37,0,0,0,.16.17.49.49,0,0,0,.28,0,1.44,1.44,0,0,0,.46-.19,1.73,1.73,0,0,0,.35-.27,2.24,2.24,0,0,0,.29-.38,2.55,2.55,0,0,0,.2-.48,2,2,0,0,0,.07-.56,1.14,1.14,0,0,0-.07-.46.42.42,0,0,0-.19-.22.56.56,0,0,0-.29,0,1.38,1.38,0,0,0-.36.16l-.5.28a.08.08,0,0,1-.11,0,.18.18,0,0,1,0-.14V310a.51.51,0,0,1,0-.17l.07-.16,1.07-2.4-1.71,1q-.07,0-.12,0a.23.23,0,0,1-.05-.15v-.33a.49.49,0,0,1,.05-.2.28.28,0,0,1,.12-.14l2.34-1.35a.08.08,0,0,1,.11,0,.2.2,0,0,1,.05.14v.33a.57.57,0,0,1,0,.18,1.54,1.54,0,0,1-.08.19l-1.05,2.36a1.16,1.16,0,0,1,.54-.17.59.59,0,0,1,.42.13.92.92,0,0,1,.28.43,2.38,2.38,0,0,1,.1.71,3.39,3.39,0,0,1-.12.91,4.14,4.14,0,0,1-.32.81,3.43,3.43,0,0,1-.47.66,2.4,2.4,0,0,1-.57.46,1.75,1.75,0,0,1-.69.26.75.75,0,0,1-.48-.1.92.92,0,0,1-.28-.36,1.51,1.51,0,0,1-.09-.53.51.51,0,0,1,0-.17.27.27,0,0,1,.1-.11l.27-.16c.05,0,.08,0,.1,0A.17.17,0,0,1,260.53,312.16Z"/><path class="cls-2" d="M257.07,327.87l35.1-20.34c.4-.23.72-.07.72.37a1.53,1.53,0,0,1-.72,1.19l-35.1,20.35c-.4.23-.72.06-.72-.37A1.55,1.55,0,0,1,257.07,327.87Z"/><path class="cls-2" d="M257.07,304.41l7.87-4.57c.39-.23.72-.06.72.37a1.57,1.57,0,0,1-.72,1.2L257.07,306c-.4.23-.72.07-.72-.36A1.53,1.53,0,0,1,257.07,304.41Z"/><path class="cls-3" d="M309.14,250.88a4.58,4.58,0,0,1,4.63-.34L309.14,263Z"/><path class="cls-3" d="M304.51,255.88a13.76,13.76,0,0,1,4.63-5V263Z"/><path class="cls-3" d="M301.64,263.6a24.39,24.39,0,0,1,2.87-7.72l4.63,7.14Z"/><path class="cls-19" d="M304.51,255.88a24.39,24.39,0,0,0-2.87,7.72l7.5-.58V250.88A13.76,13.76,0,0,0,304.51,255.88Z"/><path class="cls-3" d="M313.77,250.54a6.48,6.48,0,0,1,2.87,4.4l-7.5,8.08Z"/><path class="cls-3" d="M301.64,271.1a15.16,15.16,0,0,1-.38-3.53,21.43,21.43,0,0,1,.38-4l7.5-.58Z"/><path class="cls-3" d="M316.64,262.44a24.39,24.39,0,0,1-2.87,7.72L309.14,263Z"/><path class="cls-3" d="M309.14,275.16a4.58,4.58,0,0,1-4.63.34L309.14,263Z"/><path class="cls-3" d="M301.64,271.1l7.5-8.08-4.63,12.48A6.48,6.48,0,0,1,301.64,271.1Z"/><path class="cls-3" d="M316.64,254.94a15.13,15.13,0,0,1,.39,3.53,21.45,21.45,0,0,1-.39,4l-7.5.58Z"/><path class="cls-3" d="M313.77,270.16a13.76,13.76,0,0,1-4.63,5V263Z"/><path class="cls-8" d="M305.21,281.35l7.86-4.56c.4-.23.73-.07.73.36a1.56,1.56,0,0,1-.73,1.2l-7.86,4.56c-.4.23-.72.07-.72-.36A1.55,1.55,0,0,1,305.21,281.35Z"/><path class="cls-2" d="M303.47,287.06l11.34-6.58c.4-.23.72-.07.72.37a1.53,1.53,0,0,1-.72,1.19l-11.34,6.58c-.4.23-.72.07-.72-.36A1.53,1.53,0,0,1,303.47,287.06Z"/><path class="cls-2" d="M303.47,291.76l11.34-6.58c.4-.23.72-.06.72.37a1.53,1.53,0,0,1-.72,1.19l-11.34,6.58c-.4.23-.72.07-.72-.36A1.53,1.53,0,0,1,303.47,291.76Z"/><path class="cls-2" d="M303.47,296.46l11.34-6.58c.4-.23.72-.06.72.37a1.55,1.55,0,0,1-.72,1.2L303.47,298c-.4.23-.72.07-.72-.36A1.55,1.55,0,0,1,303.47,296.46Z"/><path class="cls-3" d="M337.57,234.4a4.58,4.58,0,0,1,4.63-.34l-4.63,12.48Z"/><path class="cls-3" d="M332.94,239.4a13.85,13.85,0,0,1,4.63-5v12.14Z"/><path class="cls-3" d="M330.08,247.12a24.38,24.38,0,0,1,2.86-7.72l4.63,7.14Z"/><path class="cls-3" d="M342.2,234.06a6.45,6.45,0,0,1,2.87,4.4l-7.5,8.08Z"/><path class="cls-3" d="M330.08,254.62a15.13,15.13,0,0,1-.39-3.53,21.53,21.53,0,0,1,.39-4l7.49-.58Z"/><path class="cls-3" d="M345.07,246a24.06,24.06,0,0,1-2.87,7.72l-4.63-7.14Z"/><path class="cls-3" d="M337.57,258.68a4.6,4.6,0,0,1-4.63.35l4.63-12.49Z"/><path class="cls-3" d="M330.08,254.62l7.49-8.08L332.94,259A6.52,6.52,0,0,1,330.08,254.62Z"/><path class="cls-19" d="M332.94,239.4a24.38,24.38,0,0,0-2.86,7.72,21.53,21.53,0,0,0-.39,4,15.13,15.13,0,0,0,.39,3.53,6.52,6.52,0,0,0,2.86,4.41l4.63-12.49V234.4A13.85,13.85,0,0,0,332.94,239.4Z"/><path class="cls-3" d="M345.07,238.46a15.13,15.13,0,0,1,.39,3.53,21.45,21.45,0,0,1-.39,4l-7.5.58Z"/><path class="cls-3" d="M342.2,253.68a13.68,13.68,0,0,1-4.63,5V246.54Z"/><path class="cls-8" d="M333.64,264.93l7.87-4.56c.4-.23.72-.07.72.36a1.53,1.53,0,0,1-.72,1.2l-7.87,4.57c-.4.23-.72.06-.72-.37A1.55,1.55,0,0,1,333.64,264.93Z"/><path class="cls-2" d="M331.91,270.64l11.33-6.58c.4-.23.72-.06.72.37a1.55,1.55,0,0,1-.72,1.2l-11.33,6.57c-.4.23-.72.07-.72-.36A1.55,1.55,0,0,1,331.91,270.64Z"/><path class="cls-2" d="M331.91,275.34l11.33-6.57c.4-.23.72-.07.72.36a1.55,1.55,0,0,1-.72,1.2l-11.33,6.58c-.4.23-.72.06-.72-.37A1.55,1.55,0,0,1,331.91,275.34Z"/><path class="cls-2" d="M331.91,280l11.33-6.57c.4-.23.72-.07.72.36a1.55,1.55,0,0,1-.72,1.2l-11.33,6.58c-.4.23-.72.06-.72-.37A1.55,1.55,0,0,1,331.91,280Z"/></g></g><g id="Character"><g id="Character_Suit" data-name="Character Suit"><path class="cls-24" d="M339.75,227.63l14-7.93c3.78-2.19,4.87.35,6.29,3.05l12.39,23.65c1.42,2.7,2.58,4.59-.53,6.52l-13.51,7.79c-2.15,1.46-3.59,1.62-5.13-1.26L340.37,234.9C339,232.2,336.81,229.47,339.75,227.63Z"/><path class="cls-25" d="M340.83,227l14-7.93c3.78-2.18,4.87.35,6.29,3l12.39,23.65c1.42,2.7,2.58,4.59-.53,6.52l-13.51,7.79c-2.15,1.46-3.59,1.62-5.13-1.26l-12.87-24.55C340,231.55,337.89,228.82,340.83,227Z"/><polygon class="cls-5" points="372.41 247.53 355.7 256.99 340.97 229.43 357.64 219.9 372.41 247.53"/><polygon class="cls-5" points="367.69 253.38 363.79 255.62 363 254.21 366.89 251.97 367.69 253.38"/><path class="cls-26" d="M372.3,220.76a85.75,85.75,0,0,1-11.65,2.17c-4.9.4-7.16.56-7.16,1.1,0,1.47,1.83,1.41,2.49,1.54a24.7,24.7,0,0,0,4.58.07s-.4.86.6,2.34c.64,1,.83,2,1.74,2.91,3.44,3.29,14-.81,14-.81Z"/><path class="cls-24" d="M402.5,185.65s6-4.06,11.58-.4c4.17,2.72,8.75,10.25,7,21.68-3.1,19.83-34.39,32.07-34.39,32.07Z"/><path class="cls-3" d="M381.88,215.92s-11.31,4.05-13.39,5.19-1.93,6.69,0,9.06,14.38.17,14.38.17Z"/><path class="cls-25" d="M356.83,375.2c2.14-1.34,16,2.52,16,2.52l15,5L386.65,394s-5.31,5.69-12.69.73c-4.39-3-12.88-6.78-16.08-11.38C355.57,380,354.69,376.54,356.83,375.2Z"/><path class="cls-25" d="M393.83,353.36c2.14-1.34,16,2.52,16,2.52l14.95,5-1.14,11.26s-5.32,5.69-12.69.72c-4.4-3-12.89-6.77-16.08-11.37C392.57,358.17,391.69,354.7,393.83,353.36Z"/><path class="cls-24" d="M413,250.28s6.88,6.75,7.95,20.92c.48,6.38-2.92,33.59-2.92,33.59s5.23,14.07,6.53,23.13c1.54,10.77,1.16,31.79,1.16,31.79-.89,2.81-3.8,5.46-9.63,5-6-.44-10.22-8.12-10.22-8.12s-2.07-17.44-4-29c-1.11-6.58-2.37-10.93-3-16.4-.25-6.28-.89-21.57-.89-21.57s-7.19,28.59-9.46,37.32c4.43,14.57.49,54.2.08,57.36-8.88,7-14.35.38-18-5.36.21-8.81-1.19-24.35-1.52-36.67-.26-9.72-.1-13.79-.26-17.05-.31-6.35,2.58-25.43,4-40,1.71-17,2.05-29.34,2.05-29.34Z"/><path class="cls-25" d="M375.79,207.05c.13,9.8.26,22.36.07,27.63-.34,9.22-3,29.19-4.52,36.37,3.16,3.15,16,11.18,26.7,8.88,7.64-1.63,19.58-5.81,24.08-13.46.05-1.5-4.2-14.59-4.2-24.05,0-12.81,1.09-25.44,1.38-35,.19-6.69-3.39-15.89-6.11-18.68-3-3-4.45-3.85-9.52-2.47-4.08.39-13.25,5.56-16.24,7.27C379.9,196.55,375.75,204.15,375.79,207.05Z"/><path class="cls-27" d="M406.82,191.25l-1.63-9.11-12.71,3s1.56,4.81,0,8.82C392.42,194.09,402.12,193.49,406.82,191.25Z"/><path class="cls-26" d="M409.79,163c-2.61-5.54-12.3-11.93-21.54-3.29-9.69,9.05-5.88,27.28,1.26,28.54,3.63.64,10.87-1.15,15.68-6.06C410.61,176.6,411.82,167.25,409.79,163Z"/><path class="cls-25" d="M381.54,158.88s.34,4.21,3.15,6.7S393,170.1,393,170.1a22.64,22.64,0,0,1-.54,4.09c-.51,2.3.83,3.19.83,3.19s2.85-4.53,4.77-.89a4.14,4.14,0,0,1-1.51,5.65,14.83,14.83,0,0,0,3.08,4.59,48.19,48.19,0,0,0,4,3.16A53.71,53.71,0,0,1,409.39,179c3.63-5.17,4.67-9.37,4.68-11.49,0-3.06-1.05-8.06-7.25-10.78-5.67-5.29-12.1-2.09-13.75-1.51s-5.22,1.48-8.18-.43a12,12,0,0,0,1.72,5.07A32.6,32.6,0,0,1,381.54,158.88Z"/><path class="cls-24" d="M397.23,189.09a12.41,12.41,0,0,0-9.8,4.44s7.81,4.66,13,2.5c2.72-1.13,7-3.47,8-4.74,1.33-1.71-2.65-6.12-2.65-6.12S403.86,189.09,397.23,189.09Z"/><path class="cls-26" d="M347.86,244.36a18.19,18.19,0,0,1-1.31-3.84c-.21-1.1.58-2.5,1.86-.52a27.45,27.45,0,0,0,3.75,4.24l4.79,8.45s-5.4,5.63-10.84,2.19-2.14-9.4-1.39-10S347.86,244.36,347.86,244.36Z"/><path class="cls-24" d="M367.1,233.55c1.28-7.5,2.49-13.07,3.62-20.24C372.44,202.4,378,197.7,382.43,197a23.62,23.62,0,0,1,6.35,14.7c.33,8.8-.47,16.37-5.43,25-1.71,3-6.83,10.09-11.64,12.44-4.53,2.22-16.78,7.2-19.32,7.25-3.66-2.28-6.28-8-1-13.64C354.53,241.08,363.43,235.25,367.1,233.55Z"/></g></g></g></svg>