<svg id="812d1866-f24e-4eef-9819-7da12555a065" data-name="Layer 1" xmlns="http://www.w3.org/2000/svg" viewBox="0 0 95.06 83.72"><defs><style>.\31 5633436-6e2f-4aa6-ad73-9a3ff3b2b51f{fill:#fff;}</style></defs><title>certificado_ico_b</title><path class="15633436-6e2f-4aa6-ad73-9a3ff3b2b51f" d="M277,407c-2.87,0-5.28.09-7.69,0-5.35-.24-8.41-3.12-8.45-8.45q-.17-25,0-49.94c0-5.56,3.15-8.77,8.65-8.79q39-.12,77.9,0c5.38,0,8.36,3.08,8.38,8.4q.11,25.22,0,50.44c0,5.54-3,8.31-8.92,8.34-14.65.08-29.3,0-43.95,0h-6.26v14.71c0,.82.05,1.73.05,1.73l-1-1.21-8.5-10c-3.73,4-7.4,8.12-10.19,11.13m19.76-20.92a9.53,9.53,0,0,0,1.72.38c16,0,32,.07,48,0,4.6,0,5.36-.88,5.37-5.74q.06-23.48,0-47c0-5.74-.69-6.47-6.24-6.48q-37.22,0-74.43,0c-5.62,0-6.35.73-6.36,6.31q0,21.23,0,42.46c0,10.79.16,10.95,10.82,10.27.27,0,.53-.33.79-.51.51-6,.51-6-2.09-10.7A13.77,13.77,0,0,1,295,374.33c5.21,4.06,7.24,10.93,3.94,16.41C296.73,394.48,296.4,398.09,296.83,402.46Zm-10.08-7.53a9.86,9.86,0,0,0,9.87-9.75,10,10,0,0,0-9.87-9.8,9.75,9.75,0,0,0-10,10A9.64,9.64,0,0,0,286.75,394.92ZM281,398.7v14.15l5.65-5.37,5.68,5.36V398.7Z" transform="translate(-260.81 -339.74)"/><path class="15633436-6e2f-4aa6-ad73-9a3ff3b2b51f" d="M273,363.21v-3.44h70.65v3.44Z" transform="translate(-260.81 -339.74)"/><path class="15633436-6e2f-4aa6-ad73-9a3ff3b2b51f" d="M308.55,375.15l-.34-3.43h35.45v3.43Z" transform="translate(-260.81 -339.74)"/><path class="15633436-6e2f-4aa6-ad73-9a3ff3b2b51f" d="M343.75,383.48v3.37H320.6l-.17-3.37Z" transform="translate(-260.81 -339.74)"/></svg>