<svg xmlns="http://www.w3.org/2000/svg" viewBox="0 0 667.81 341.03"><defs><style>.cls-1{fill:#f5f5f5;}.cls-2{fill:#e0e0e0;}.cls-3{fill:#fff;}.cls-4{fill:#b78876;}.cls-5{fill:#aa6550;}.cls-6{fill:#263238;}.cls-7{fill:#edcd00;}.cls-8{opacity:0.6;}.cls-9{opacity:0.4;}.cls-10{fill:#455a64;}.cls-11{opacity:0.3;}.cls-12{fill:#fafafa;}.cls-13{fill:#ffbe9d;}.cls-14{fill:#eb996e;}.cls-15{fill:#995037;}.cls-16{opacity:0.2;}</style></defs><g id="Camada_2" data-name="Camada 2"><g id="Camada_1-2" data-name="Camada 1"><g id="Camada_2-2" data-name="Camada 2"><g id="Camada_1-2-2" data-name="Camada 1-2"><g id="Camada_2-2-2" data-name="Camada 2-2"><g id="Camada_1-2-2-2" data-name="Camada 1-2-2"><g id="Camada_2-2-2-2" data-name="Camada 2-2-2"><g id="Background_Complete" data-name="Background Complete"><polygon class="cls-1" points="231.8 308.06 231.8 332.26 267.19 332.26 306.22 332.26 306.22 308.06 231.8 308.06"/><polygon class="cls-2" points="228.68 301.29 228.68 308.06 308.82 308.06 308.82 301.29 267.19 301.29 228.68 301.29"/><polygon class="cls-2" points="268.75 332.26 306.22 332.26 306.22 308.06 308.82 308.06 308.82 301.29 267.19 301.29 267.19 307.43 268.75 332.26"/><rect class="cls-2" x="242.21" y="311.96" width="15.09" height="3.64"/><rect class="cls-3" x="240.27" y="320.16" width="19.38" height="7.69"/><polygon class="cls-1" points="238.64 277.12 238.64 301.32 274.03 301.32 313.06 301.32 313.06 277.12 238.64 277.12"/><polygon class="cls-2" points="235.52 270.35 235.52 277.12 315.66 277.12 315.66 270.35 274.03 270.35 235.52 270.35"/><polygon class="cls-2" points="275.59 301.32 313.06 301.32 313.06 277.12 315.66 277.12 315.66 270.35 274.03 270.35 274.03 276.49 275.59 301.32"/><rect class="cls-2" x="249.05" y="281.02" width="15.09" height="3.64"/><rect class="cls-3" x="247.11" y="289.22" width="19.38" height="7.69"/><rect class="cls-1" x="28.25" y="312.48" width="10.64" height="19.18"/><polygon class="cls-2" points="309.7 82.51 308.65 78.84 310.76 78.94 310.95 82.33 309.7 82.51"/><polyline class="cls-2" points="306.64 82.4 304.24 95.43 298.17 112.65 332.38 107.72 318.57 92.69 312.81 81.51 306.64 82.4"/><path class="cls-2" d="M239.36,173.82v-.54a10.86,10.86,0,0,1,21.71-.66h0v1.2Z"/><path class="cls-2" d="M250.19,162.85a.45.45,0,0,1-.42-.32L235.38,107.7a.43.43,0,0,1,.84-.22l14.38,54.83a.41.41,0,0,1-.28.52h-.13Z"/><path class="cls-2" d="M246.39,164.21a.45.45,0,0,1-.42-.32l-14.39-54.83a.43.43,0,0,1,.84-.22l14.38,54.83a.43.43,0,0,1-.29.52h0Z"/><path class="cls-2" d="M230.91,108.13a2.72,2.72,0,1,0,2.73-2.71h0a2.72,2.72,0,0,0-2.73,2.71Z"/><polygon class="cls-2" points="233.87 108.49 233.38 107.78 284.37 72.61 314.19 89.57 313.76 90.32 284.41 73.62 233.87 108.49"/><rect class="cls-2" x="230.92" y="92.21" width="61.06" height="0.86" transform="translate(-6.24 165.31) rotate(-34.7)"/><path class="cls-2" d="M282.74,74.47A2.44,2.44,0,1,0,285.18,72a2.44,2.44,0,0,0-2.44,2.47h0Z"/></g><g id="Character_3" data-name="Character 3"><path class="cls-4" d="M545.44,49.44h0c2.11-3.06,3.27-5.36,4.76-7.29,1.85-2.37,2.44-3.48,2-3.8-.62-.42-.36-.28-4.32,3.56,0,0,5.6-5.54,3.44-5.29-1,.11-5.65,4.66-5.65,4.66,4.11-3.31,5.14-5.21,4.6-5.8-.77-.87-6.44,4.7-6.44,4.7a64.27,64.27,0,0,0,4.91-5.13c.53-.94-.78-.73-1.81-.22s-7.45,4.86-9.33,6a1.29,1.29,0,0,1-1.81-.21l-.12-.18c-1.13-3-3.6-4.71-4.49-4.87a1,1,0,0,0-1,1,1,1,0,0,0,.32.74,11.65,11.65,0,0,1,1.68,2.76,7.1,7.1,0,0,1,.72,2.47c.11,1,.17,1.85.19,2.57L530.24,61l10,7Z"/><path class="cls-5" d="M545.51,44.28a14.44,14.44,0,0,0,2.83-2.52,13.55,13.55,0,0,0,2.46-2.88,15.27,15.27,0,0,0-2.8,2.53A15.15,15.15,0,0,0,545.51,44.28Z"/><path class="cls-5" d="M543.88,42.91A15.41,15.41,0,0,0,547,40.4a17.14,17.14,0,0,0,2.82-2.89A16.39,16.39,0,0,0,546.74,40,16.76,16.76,0,0,0,543.88,42.91Z"/><path class="cls-5" d="M542.19,41.49a15.43,15.43,0,0,0,3-2.34,14.09,14.09,0,0,0,2.69-2.71,15.43,15.43,0,0,0-3,2.34A14.38,14.38,0,0,0,542.19,41.49Z"/><path class="cls-4" d="M476.61.49A14.73,14.73,0,0,1,492.46,14v.29c.42,6.85.79,14.26.74,18-.09,8-8.11,9.26-8.11,9.26s1.15,13.92,1,16.16l-21.2,1L463,15.89A14.74,14.74,0,0,1,476.61.49Z"/><path class="cls-5" d="M485.13,41.43a18.63,18.63,0,0,1-10.45-3s2.47,5.77,10.46,5Z"/><path class="cls-4" d="M463.74,18.61c-.13-.06-5.5-1.63-5.33,3.85s5.64,4.17,5.65,4S463.74,18.61,463.74,18.61Z"/><path class="cls-5" d="M462.33,24.45l-.25.15a1,1,0,0,1-.72,0,2.41,2.41,0,0,1-1.16-2.09,3,3,0,0,1,.23-1.37,1.14,1.14,0,0,1,.69-.76.49.49,0,0,1,.57.25c.08.15.05.26.08.27s.11-.1.06-.32a.54.54,0,0,0-.23-.34.7.7,0,0,0-.53-.12,1.32,1.32,0,0,0-1,.88,3.38,3.38,0,0,0-.28,1.54,2.49,2.49,0,0,0,1.47,2.32,1,1,0,0,0,.87-.17C462.32,24.58,462.35,24.46,462.33,24.45Z"/><path class="cls-6" d="M463.23,18.47a8.86,8.86,0,0,0,0,2.52,2.9,2.9,0,0,0,1.4,2c1.38.68,3.11-.37,3.72-1.78a9.25,9.25,0,0,0,.31-4.55,22.33,22.33,0,0,1,.08-6.27,9,9,0,0,1,3-5.4,5.68,5.68,0,0,1,5.9-.85,30.57,30.57,0,0,1,3.12,2.3,4.86,4.86,0,0,0,3.31.83,3.11,3.11,0,0,0,2.54-2.11,3.4,3.4,0,0,0-1.29-3.37,7.7,7.7,0,0,0-3.51-1.4,18.69,18.69,0,0,0-10.39.81,13.59,13.59,0,0,0-7.54,7c-1.6,3.75-.52,6.72-.75,10.89"/><path class="cls-2" d="M544.62,54l-13.1-3.16L522.87,74.3,499,53h0c-2.55-1.86-6.93-2.1-10.26-2.51h-.26c-1.29-.15-1.92-.34-2.7-.43-5.76,4.33-15.62,4.61-21.28.14,0,0-4.29,1-6.85,1.46-8.07,1.54-13.88,7.42-15.49,12.85l10.1,23.3,1.93,22.13-5.59,19.81A3.44,3.44,0,0,0,451,134h0a4.59,4.59,0,0,0,.51.1l50,.76.82-.4a9.29,9.29,0,0,0,1.34-6.34c-2.16-9.49-.65-37.76-1.11-46.44,9.82,9.53,20.65,17.45,28.57,12.55C537.68,90.08,544.62,54,544.62,54Z"/><polygon class="cls-2" points="462.85 51.58 464.01 43.57 474.92 47.57 478 53 479.91 47.05 485.9 44.99 488.45 50.31 484.06 56.52 475.83 58.19 462.85 51.58"/><path class="cls-6" d="M478.19,54.24a4.23,4.23,0,0,1-.41-.33,12.79,12.79,0,0,1-1-1.08,16,16,0,0,1-2.63-4.54h.4L472,54.64c-.44,1.09-.86,2.14-1.27,3.13l-.13.33-.25-.24c-2.21-2.13-4.11-4-5.45-5.33-.61-.63-1.12-1.16-1.55-1.59a3.16,3.16,0,0,1-.53-.62,3.45,3.45,0,0,1,.64.5l1.65,1.48c1.4,1.29,3.35,3.1,5.57,5.21l-.39.09,1.25-3.14,2.58-6.33.21-.52.19.52A18.39,18.39,0,0,0,477,52.67C477.74,53.68,478.23,54.2,478.19,54.24Z"/><path class="cls-6" d="M488.45,50.31a8.52,8.52,0,0,1-1.28,1.76A17.2,17.2,0,0,1,483,55.74l-.24.15-.1-.27c-.36-1-.77-2-1.21-3.11-.65-1.63-1.27-3.18-1.75-4.56h.43c-.36,1.81-.8,3.29-1.07,4.33a9.34,9.34,0,0,1-.48,1.64,6.5,6.5,0,0,1,.22-1.7c.2-1.07.58-2.56.89-4.35l.15-.8.28.77c.5,1.36,1.13,2.89,1.79,4.53.44,1.09.84,2.15,1.19,3.13l-.34-.12a20.22,20.22,0,0,0,4.2-3.46C487.43,51.36,487.93,50.82,488.45,50.31Z"/><path class="cls-6" d="M482.15,135.78a5.89,5.89,0,0,1,0-.84c.06-.58.15-1.38.25-2.38s.22-2.3.33-3.77c0-.74.11-1.53.16-2.36s.07-1.72.11-2.65c.17-3.71.16-8.14.07-13.06s-.4-10.31-.78-16c-.82-11.33-1.94-21.55-2.78-28.94l-1-8.76c-.11-1-.19-1.79-.25-2.38a4,4,0,0,1-.06-.84,3.91,3.91,0,0,1,.15.83c.09.58.21,1.37.35,2.37.29,2.06.7,5,1.16,8.74.93,7.38,2.1,17.6,2.92,28.94.39,5.67.64,11.08.74,16s0,9.37-.17,13.09c-.05.92-.1,1.81-.14,2.65s-.14,1.62-.21,2.36c-.13,1.47-.24,2.74-.4,3.77s-.27,1.79-.35,2.38A4.81,4.81,0,0,1,482.15,135.78Z"/><path class="cls-6" d="M522.59,83.39a23.58,23.58,0,0,1-.24-4.75,23.58,23.58,0,0,1,.24-4.75,22.87,22.87,0,0,1,.25,4.75A22.87,22.87,0,0,1,522.59,83.39Z"/><path class="cls-6" d="M525.93,84c0,.45-.67-.82-2.13-4.9a20.54,20.54,0,0,1-1.32-5.18,46.41,46.41,0,0,1,1.78,5A47.88,47.88,0,0,1,525.93,84Z"/><path class="cls-7" d="M493.63,303.3l-.76,18.17s18.21,6.88,18.4,10.25L476,331.51V303.15Z"/><path class="cls-2" d="M482,319.88a1.45,1.45,0,0,0-1,1.64,1.39,1.39,0,0,0,1.62,1,1.51,1.51,0,0,0,1.06-1.74,1.44,1.44,0,0,0-1.8-.87"/><g class="cls-8"><path class="cls-3" d="M476,331.51l.11-2.86,33.79,1.27s1.57.69,1.38,1.8Z"/></g><path class="cls-6" d="M493.44,321.3c0,.17-.86.24-1.71.79s-1.31,1.27-1.47,1.2.1-1.06,1.15-1.71S493.48,321.14,493.44,321.3Z"/><path class="cls-6" d="M497.14,322.85c0,.17-.71.45-1.3,1.18s-.77,1.49-.94,1.49-.27-1,.48-1.88S497.13,322.68,497.14,322.85Z"/><path class="cls-6" d="M499.21,327.29c-.15,0-.39-.83.06-1.77s1.25-1.31,1.33-1.17-.43.65-.79,1.43S499.38,327.27,499.21,327.29Z"/><path class="cls-6" d="M493.16,317.14c-.07.15-.86-.09-1.84,0s-1.73.36-1.82.22.64-.76,1.79-.82S493.24,317,493.16,317.14Z"/><path class="cls-6" d="M493.24,313.47a3.29,3.29,0,0,1-1.76,0,8,8,0,0,1-1.85-.58,9.64,9.64,0,0,1-1-.54,3.06,3.06,0,0,1-.53-.42.75.75,0,0,1-.1-.93.92.92,0,0,1,.75-.39,2.07,2.07,0,0,1,.66.1,6,6,0,0,1,1.1.38,6.28,6.28,0,0,1,1.62,1.08c.82.76,1.09,1.41,1,1.44s-.47-.49-1.3-1.12a6.76,6.76,0,0,0-1.57-.89,5.82,5.82,0,0,0-1-.32c-.37-.1-.69-.11-.79.06s0,.09,0,.2a1.85,1.85,0,0,0,.39.3,8.65,8.65,0,0,0,.93.54,10.72,10.72,0,0,0,1.7.67A10.38,10.38,0,0,1,493.24,313.47Z"/><path class="cls-6" d="M493,313.71a2.89,2.89,0,0,1-.46-1.71,6,6,0,0,1,.25-1.93,6,6,0,0,1,.46-1.07,1.49,1.49,0,0,1,1.13-.89.85.85,0,0,1,.74.5,2.52,2.52,0,0,1,.18.65,4,4,0,0,1-.77,3c-.69.91-1.41,1.11-1.42,1.06a6.68,6.68,0,0,0,1.07-1.3,3.74,3.74,0,0,0,.57-1.65,3.35,3.35,0,0,0,0-1c-.06-.38-.2-.68-.34-.65a1.34,1.34,0,0,0-.62.58A6,6,0,0,0,493,312C492.93,313,493.11,313.69,493,313.71Z"/><path class="cls-7" d="M432.74,298,427,320.73l-9.72,16.68a2.39,2.39,0,0,0,.85,3.27h0l.14.08h0a2.38,2.38,0,0,0,2.2,0c4.36-2.36,20.38-11.1,20.7-12.78.38-2,7.64-23.59,7.64-23.59Z"/><g class="cls-8"><path class="cls-3" d="M418.33,340.74l23.32-14.34-.26,1a3.54,3.54,0,0,1-1.45,2c-1.9,1.29-7.23,4.74-19.34,11.34A2.4,2.4,0,0,1,418.33,340.74Z"/></g><g class="cls-8"><path class="cls-3" d="M439,317.83a1.45,1.45,0,0,0-.89,1.72,1.41,1.41,0,0,0,1.7.9,1.52,1.52,0,0,0,.93-1.83,1.44,1.44,0,0,0-1.87-.74"/></g><path class="cls-6" d="M426.23,332.3a7.16,7.16,0,0,0-1.49-2.31,7.56,7.56,0,0,0-2.46-1.22c0-.06.33-.15.88-.08a3.83,3.83,0,0,1,3.06,2.72C426.35,332,426.29,332.29,426.23,332.3Z"/><path class="cls-6" d="M423.74,334.88c-.13.07-.66-.87-1.73-1.53a18.06,18.06,0,0,0-2.13-.89,2.62,2.62,0,0,1,2.4.46C423.54,333.67,423.92,334.85,423.74,334.88Z"/><path class="cls-6" d="M430.3,329.25a12.4,12.4,0,0,0-5.66-4.26,6.55,6.55,0,0,1,5.66,4.25Z"/><path class="cls-6" d="M432.62,322.48c-.1.12-1.2-.75-2.81-1.26s-3-.47-3-.62a5.93,5.93,0,0,1,5.83,1.88Z"/><path class="cls-6" d="M434.47,315.85a11.85,11.85,0,0,0-2.89-1.39,12.32,12.32,0,0,0-3.21-.08c0-.05.3-.27.91-.43a5.3,5.3,0,0,1,4.58,1.1C434.32,315.47,434.52,315.81,434.47,315.85Z"/><path class="cls-6" d="M432,313.21a2,2,0,0,1,.2-.86,6,6,0,0,1,1.3-2.06,2.73,2.73,0,0,1,1.48-.94,1,1,0,0,1,1,.5,1.48,1.48,0,0,1,0,1.15,3.39,3.39,0,0,1-3.7,2.24,4,4,0,0,1-3.18-3,1.41,1.41,0,0,1,.24-1.11,1,1,0,0,1,1.09-.22,3.38,3.38,0,0,1,1.27,1.19,6.9,6.9,0,0,1,1.06,2.18,1.89,1.89,0,0,1,.13.88,10.12,10.12,0,0,0-1.48-2.84,3.2,3.2,0,0,0-1.13-1,.51.51,0,0,0-.6.12.92.92,0,0,0-.11.74,3.51,3.51,0,0,0,2.78,2.58,3,3,0,0,0,3.18-1.85,1.16,1.16,0,0,0,0-.78.5.5,0,0,0-.55-.29,2.52,2.52,0,0,0-1.26.78A9.28,9.28,0,0,0,432,313.21Z"/><polygon class="cls-7" points="473.4 51.22 475.88 52.51 475.42 56.68 471.55 55.87 473.4 51.22"/><g class="cls-9"><polygon points="473.4 51.22 475.88 52.51 475.42 56.68 471.55 55.87 473.4 51.22"/></g><polygon class="cls-7" points="479.08 52.25 480.95 50.6 482.67 54.96 480.21 56.15 479.08 52.25"/><polygon class="cls-7" points="476.34 57.7 475.18 107 483.52 115.24 487.55 104.3 479.55 57.43 476.34 57.7"/><path class="cls-7" d="M476.39,51c.57-.07,1.35-.22,2-.36a1.38,1.38,0,0,1,1.49.69l1.05,1.94a1.4,1.4,0,0,1,.14.92l-.42,2.17a1.35,1.35,0,0,1-1.07,1.09l-2.38.48a1.38,1.38,0,0,1-1.5-.73l-1.18-2.34a1.36,1.36,0,0,1,0-1.18l.83-1.87A1.37,1.37,0,0,1,476.39,51Z"/><path class="cls-6" d="M479.86,51.51a6.91,6.91,0,0,1-.64.79c-.41.47-1,1.11-1.63,1.81s-1.24,1.32-1.67,1.76a4.91,4.91,0,0,1-.74.7,4.75,4.75,0,0,1,.63-.79c.41-.47,1-1.11,1.64-1.81s1.24-1.32,1.67-1.77A6.87,6.87,0,0,1,479.86,51.51Z"/><path class="cls-6" d="M477.42,53.78a10.87,10.87,0,0,1-2.16-2.07,5.78,5.78,0,0,1,1.15,1A5.7,5.7,0,0,1,477.42,53.78Z"/><path class="cls-6" d="M480.2,57c.15-1,.35-1.91.59-2.85a2.81,2.81,0,0,0-.59-1.85,1.59,1.59,0,0,1-.29-.81,4.83,4.83,0,0,0,.41.74c.13.22.32.47.48.8a1.91,1.91,0,0,1,.19,1.15c-.16.81-.37,1.49-.51,2A4,4,0,0,1,480.2,57Z"/><path class="cls-6" d="M501.49,134.68l-3.5,181a2.23,2.23,0,0,1-2.24,2.17l-21.08-.18a2.23,2.23,0,0,1-2.21-2.25h0l3.28-155.8L448.31,314.28a4,4,0,0,1-4.06,3.28L426.56,317a4,4,0,0,1-3.83-4.16v-.43L450.54,134Z"/><path class="cls-10" d="M435.13,308c0-.14,0-.29.05-.43l.19-1.25c.18-1.11.45-2.72.78-4.77.7-4.18,1.7-10.17,2.93-17.57,2.47-14.85,5.89-35.33,9.65-58s7.06-43.15,9.4-58c1.15-7.41,2.09-13.41,2.74-17.59.33-2.06.58-3.67.76-4.78.08-.53.15-.94.2-1.25a3.15,3.15,0,0,1,.09-.42,3.09,3.09,0,0,1,0,.43c0,.3-.09.72-.16,1.25-.15,1.12-.37,2.73-.66,4.8-.57,4.16-1.47,10.18-2.59,17.62-2.25,14.86-5.51,35.38-9.25,58s-7.26,43.1-9.8,58c-1.3,7.39-2.35,13.37-3.08,17.54-.37,2-.67,3.65-.87,4.76-.1.53-.18.94-.24,1.24A2.44,2.44,0,0,1,435.13,308Z"/><path class="cls-10" d="M489.18,308.64c-.14,0,.1-36.84.53-82.27s.89-82.27,1-82.27-.1,36.83-.53,82.28S489.31,308.64,489.18,308.64Z"/><path class="cls-10" d="M498.63,309.27c0,.14-5.75.25-12.84.25s-12.84-.11-12.84-.25,5.79-.28,12.84-.28S498.63,309.14,498.63,309.27Z"/><path class="cls-10" d="M449.56,308.29a3.74,3.74,0,0,1-1,.1l-2.8.1-9.27.22c-3.62.08-6.9.11-9.27.08-1.19,0-2.15,0-2.81-.06a4.23,4.23,0,0,1-1-.09,4.24,4.24,0,0,1,1-.1l2.8-.09,9.27-.23c3.62-.08,6.9-.11,9.27-.08,1.19,0,2.15,0,2.81.06A4.19,4.19,0,0,1,449.56,308.29Z"/><path class="cls-10" d="M479.41,136.82a19.26,19.26,0,0,1-.07,3.13c-.11,1.93-.29,4.59-.53,7.53-.13,1.47-.21,2.87-.39,4.15a7.92,7.92,0,0,1-1.12,3.27,4.51,4.51,0,0,1-1.71,1.59,1.71,1.71,0,0,1-.82.25,5.24,5.24,0,0,0,2.22-2,7.88,7.88,0,0,0,1-3.14c.15-1.25.22-2.66.34-4.13.24-2.94.48-5.6.69-7.52A18.35,18.35,0,0,1,479.41,136.82Z"/><g class="cls-11"><path d="M452.2,119.56a9.49,9.49,0,0,0,8.22,2.37c2.07-.42,4-1.55,6.15-1.41,2.31.15,4.22,1.77,6.33,2.72,3.93,1.78,8.52,1.21,12.7.1,1.92-.51,3.92-1.2,5.16-2.76a9.22,9.22,0,0,0,1.59-4.29,44,44,0,0,0,.62-8.5,8.21,8.21,0,0,0-1.37-5.07,5.88,5.88,0,0,0-3.81-1.92,15.06,15.06,0,0,0-4.34.25A71.78,71.78,0,0,0,452,114.55"/></g><path class="cls-2" d="M472.49,110.17S446,122,443.32,122.6c-8.94,2-19.16-6.48-16.32-16.11,1.05-3.58,15.3-43.18,15.3-43.18l13.56,18.74-5.74,19.18,15-1Z"/><path class="cls-6" d="M463.92,100.39a4.58,4.58,0,0,1-1.05.14l-2.9.25c-2.46.19-5.91.43-9.83.68h-.33l.09-.32c.29-1,.58-2,.88-3,1.34-4.48,2.58-8.53,3.5-11.45l1.11-3.45a7.83,7.83,0,0,1,.47-1.25,8.15,8.15,0,0,1-.29,1.3c-.26.91-.58,2.09-1,3.5-.84,2.94-2,7-3.37,11.48-.3,1-.6,2-.89,3l-.23-.29c3.93-.23,7.38-.41,9.85-.52l2.9-.11A4.41,4.41,0,0,1,463.92,100.39Z"/><path class="cls-6" d="M469.53,111.71c0,.12-5.76,2.63-13,5.61s-13.11,5.29-13.16,5.17,5.76-2.63,13-5.61S469.48,111.59,469.53,111.71Z"/><path class="cls-10" d="M466.33,99.51l-2.09-10.17a1.32,1.32,0,0,1,1-1.55h.25l26.32.13a1.3,1.3,0,0,1,1.3,1.3.38.38,0,0,1,0,.15l-2.72,23.3a1.81,1.81,0,0,1-1.82,1.6l-17.16-.13a1.83,1.83,0,0,1-1.74-1.37Z"/><path class="cls-4" d="M464,94.16h0a2.74,2.74,0,0,1,2.59,1.76c.43,1.12,1.06,2.44,1.76,2.82,1.29.7,3.52,1.26,4.7.69s5.87-4.8,6.7-4.33,1.52,1.52.7,2.46-5.17,3.76-4.35,4.7,10-3.19,11.4-2.83,2.23,1.23,1.41,1.8-7.05,2.91-7.4,3.73c0,0,9.4-2.46,9.75-1.88s.94,1.53,0,1.88-9,2.47-9.75,2.82a16.81,16.81,0,0,1-3.63,1.06c-.25,0-2.09.62-3.78,1.2a8.3,8.3,0,0,1-5.85-.16l-.95-.38a3.72,3.72,0,0,1-2.31-3.68l.19-3.21-1-2.64Z"/><path class="cls-12" d="M479.81,91.69a1,1,0,1,1-1-1A1,1,0,0,1,479.81,91.69Z"/></g><g id="Desk"><path class="cls-10" d="M504,174H425.15v-2.94h75.93A2.93,2.93,0,0,1,504,174Z"/><rect class="cls-10" x="425.15" y="127.66" width="60.42" height="45.7" rx="3.34"/><rect class="cls-12" x="427.67" y="129.84" width="55.38" height="40.7"/><path class="cls-6" d="M483.05,170.53V129.84H427.67l.08-.06v40.69l-.07-.06h-.11V129.64h55.52v40Z"/><path class="cls-2" d="M474.74,140.79H436.53l.07-.07v18.79l-.07-.07h-.07V140.72h38.28Z"/><path class="cls-2" d="M474.74,144s-8.56.07-19.12.07-19.13,0-19.13-.07,8.56-.07,19.13-.07S474.74,143.92,474.74,144Z"/><path class="cls-2" d="M474.48,146.47s-8.56.07-19.12.07-19.13,0-19.13-.07,8.56-.07,19.13-.07S474.48,146.44,474.48,146.47Z"/><path class="cls-2" d="M474.74,149.13s-8.56.07-19.12.07-19.13,0-19.13-.07,8.56-.07,19.13-.07S474.74,149.09,474.74,149.13Z"/><path class="cls-2" d="M474.74,151.72s-8.56.07-19.12.07-19.13,0-19.13-.07,8.56-.07,19.13-.07S474.74,151.68,474.74,151.72Z"/><path class="cls-2" d="M474.74,154.31s-8.56.06-19.12.06-19.13,0-19.13-.06,8.56-.07,19.13-.07S474.74,154.27,474.74,154.31Z"/><path class="cls-2" d="M436.51,156.89s8.56-.06,19.12-.06,19.13,0,19.13.06-8.56.07-19.13.07S436.51,156.93,436.51,156.89Z"/><path class="cls-2" d="M444.08,159.86s-.06-4.27-.06-9.53,0-9.54.06-9.54.07,4.27.07,9.54S444.12,159.86,444.08,159.86Z"/><path class="cls-2" d="M451.74,159.86s-.07-4.27-.07-9.53,0-9.54.07-9.54.07,4.27.07,9.54S451.79,159.86,451.74,159.86Z"/><path class="cls-2" d="M459.42,159.86s-.07-4.27-.07-9.53,0-9.54.07-9.54.07,4.27.07,9.54S459.46,159.86,459.42,159.86Z"/><path class="cls-2" d="M467.09,159.86s-.07-4.27-.07-9.53,0-9.54.07-9.54.07,4.27.07,9.54S467.13,159.86,467.09,159.86Z"/><path class="cls-2" d="M474.74,159.86s-.07-4.27-.07-9.53,0-9.54.07-9.54.07,4.27.07,9.54S474.8,159.86,474.74,159.86Z"/><path class="cls-7" d="M474.74,144l-.29.23-.86.6L470.4,147c-2.73,1.87-6.56,4.48-10.9,7.42h-.12l-3.26-1.09-4.41-1.5h.12L444.14,157h0l-5.55,1.92-1.52.51-.4.13h-.14l.13-.06.39-.16,1.5-.56,5.52-2h0l7.65-5.2h.12l4.41,1.49,3.25,1.1h-.11c4.35-2.93,8.19-5.5,11-7.34l3.26-2.15.88-.56Z"/><circle class="cls-7" cx="444.08" cy="156.89" r="0.47"/><circle class="cls-7" cx="451.75" cy="151.72" r="0.47"/><circle class="cls-7" cx="459.42" cy="154.26" r="0.47"/><circle class="cls-7" cx="467.17" cy="149.15" r="0.47"/><path class="cls-10" d="M474.74,156.89l-.15-.07c-.09-.07-.23-.15-.41-.26l-1.54-1L467,151.85h.12L459.49,157l-.1.07-.07-.1-4-5.43-3.58-4.92h.2c-2.93,3-5.57,5.6-7.69,7.75h0l-5.7,1.85-1.56.49-.41.12h-.14l.13-.06.4-.14,1.54-.54,5.67-1.94h0l7.65-7.78.11-.11.09.12,3.64,4.91,4,5.45h-.18l7.68-5.1h.12l5.57,3.78,1.52,1.05.39.28Z"/><circle class="cls-10" cx="451.75" cy="146.54" r="0.47"/><circle class="cls-10" cx="444.08" cy="154.31" r="0.47"/><circle class="cls-10" cx="459.42" cy="156.89" r="0.47"/><circle class="cls-10" cx="467.09" cy="152.18" r="0.47"/><path class="cls-2" d="M440.88,161.72a2.05,2.05,0,0,1-.74.07,2,2,0,0,1-.73-.07,2,2,0,0,1,.73-.07A2.05,2.05,0,0,1,440.88,161.72Z"/><path class="cls-2" d="M448.74,161.72a4.09,4.09,0,0,1-1.48,0A4.09,4.09,0,0,1,448.74,161.72Z"/><path class="cls-2" d="M456.56,161.72a4.09,4.09,0,0,1-1.48,0A4.09,4.09,0,0,1,456.56,161.72Z"/><path class="cls-2" d="M464.4,161.72a4.09,4.09,0,0,1-1.48,0A4.09,4.09,0,0,1,464.4,161.72Z"/><path class="cls-2" d="M472.23,161.72a2,2,0,0,1-.73.07,2.05,2.05,0,0,1-.74-.07,2.05,2.05,0,0,1,.74-.07A2,2,0,0,1,472.23,161.72Z"/><path class="cls-2" d="M435.43,159.47a1.36,1.36,0,0,1-.6.07,1.32,1.32,0,0,1-.59-.07,1.47,1.47,0,0,1,.59-.06A1.52,1.52,0,0,1,435.43,159.47Z"/><path class="cls-2" d="M435.43,156.46a1.36,1.36,0,0,1-.6.07,1.32,1.32,0,0,1-.59-.07,1.47,1.47,0,0,1,.59-.06A1.52,1.52,0,0,1,435.43,156.46Z"/><path class="cls-2" d="M435.43,153.45a1.36,1.36,0,0,1-.6.07,1.32,1.32,0,0,1-.59-.07,1.47,1.47,0,0,1,.59-.06A1.52,1.52,0,0,1,435.43,153.45Z"/><path class="cls-2" d="M435.43,150.44a1.36,1.36,0,0,1-.6.07,1.32,1.32,0,0,1-.59-.07,1.47,1.47,0,0,1,.59-.06A1.52,1.52,0,0,1,435.43,150.44Z"/><path class="cls-2" d="M435.43,147.43a1.36,1.36,0,0,1-.6.07,1.32,1.32,0,0,1-.59-.07,1.47,1.47,0,0,1,.59-.06A1.52,1.52,0,0,1,435.43,147.43Z"/><path class="cls-2" d="M435.43,144.42a1.36,1.36,0,0,1-.6.07,1.32,1.32,0,0,1-.59-.07,1.47,1.47,0,0,1,.59-.06A1.52,1.52,0,0,1,435.43,144.42Z"/><path class="cls-2" d="M435.43,141.41a1.36,1.36,0,0,1-.6.07,1.32,1.32,0,0,1-.59-.07,1.47,1.47,0,0,1,.59-.06A1.52,1.52,0,0,1,435.43,141.41Z"/><rect class="cls-7" x="436.31" y="134.28" width="10.99" height="0.78"/><path class="cls-6" d="M466.92,136.56s-6.87.06-15.34.06-15.34,0-15.34-.06,6.86-.07,15.34-.07S466.92,136.52,466.92,136.56Z"/><path class="cls-6" d="M455.74,165.48s-4.19.07-9.36.07-9.35,0-9.35-.07,4.19-.07,9.35-.07S455.74,165.44,455.74,165.48Z"/><path class="cls-6" d="M441.49,166.89a29.66,29.66,0,0,1-4,0A29.66,29.66,0,0,1,441.49,166.89Z"/><path class="cls-6" d="M472.67,165.23s-3,.07-6.65.07-6.65,0-6.65-.07,3-.07,6.65-.07S472.67,165.19,472.67,165.23Z"/><path class="cls-6" d="M465.44,166.14a32.08,32.08,0,0,1-4.16,0A36.08,36.08,0,0,1,465.44,166.14Z"/><polygon class="cls-6" points="138.56 331.67 155.09 185.52 169.1 190.47 146.21 331.67 138.56 331.67"/><rect class="cls-10" x="131.51" y="173.82" width="422.75" height="18.49"/><path class="cls-6" d="M221.07,174.09a.9.9,0,0,1-.14.2c-.1.13-.24.32-.44.56a8.71,8.71,0,0,1-2.12,1.7,11.84,11.84,0,0,1-4.09,1.37,29.25,29.25,0,0,1-5.69.25,54.58,54.58,0,0,1-6.86-.79,60.3,60.3,0,0,0-7.81-.93c-5.54-.2-11.56,1.25-17.58,3.41s-11.66,4.61-17.06,6.1a46.65,46.65,0,0,1-7.77,1.54,32,32,0,0,1-6.92,0,23.73,23.73,0,0,1-9.48-3,15,15,0,0,1-2.93-2.2l.21.13c.15.12.33.26.56.42a18.61,18.61,0,0,0,2.26,1.47,24.2,24.2,0,0,0,9.42,2.84,32.49,32.49,0,0,0,6.83,0,46.82,46.82,0,0,0,7.69-1.57c5.35-1.51,11-4,17-6.13s12.14-3.63,17.77-3.4a61,61,0,0,1,7.86,1,55.63,55.63,0,0,0,6.8.84,28.74,28.74,0,0,0,5.64-.17,12,12,0,0,0,4-1.26A10.7,10.7,0,0,0,221.07,174.09Z"/><path class="cls-6" d="M174.82,174.37a9,9,0,0,1-1.28,1.1,29.1,29.1,0,0,1-3.8,2.52,33.28,33.28,0,0,1-6.31,2.57,34.27,34.27,0,0,1-8.24,1.28,31.64,31.64,0,0,1-14.74-3,9.19,9.19,0,0,1-3.55-2.9,4.76,4.76,0,0,1-.58-1.12,1.19,1.19,0,0,1-.11-.42,11.34,11.34,0,0,0,.85,1.42,9.61,9.61,0,0,0,3.56,2.69,32.55,32.55,0,0,0,14.55,2.85,34.19,34.19,0,0,0,14.4-3.66,36.56,36.56,0,0,0,3.91-2.32A12,12,0,0,1,174.82,174.37Z"/><path class="cls-6" d="M274,186.09c.22.07.44.15.65.24a13.66,13.66,0,0,0,2,.52,11.47,11.47,0,0,0,7.39-1.16v.23a17.51,17.51,0,0,0-9.17-3.57,17.81,17.81,0,0,0-11.93,3.1,1.93,1.93,0,0,0-.93,1.2,1.29,1.29,0,0,0,.79,1.19,5.73,5.73,0,0,0,1.64.58l1.8.41c2.42.53,4.92,1.07,7.51,1.45a44.65,44.65,0,0,0,8,.54,31.09,31.09,0,0,0,4.1-.39c.68-.12,1.36-.25,2-.43a9.92,9.92,0,0,0,2-.64,6.54,6.54,0,0,0,2.56-1.85,2.92,2.92,0,0,0,.49-2.84,4.79,4.79,0,0,0-2-2.24,15.13,15.13,0,0,0-2.8-1.37,38.13,38.13,0,0,0-11.75-2.44,48.57,48.57,0,0,0-20,3.11,49.09,49.09,0,0,0-12.06,6.59c-1.29,1-2.29,1.78-2.92,2.36-.31.27-.56.47-.74.64a1.05,1.05,0,0,1-.27.2l.23-.24.71-.68c.61-.6,1.59-1.42,2.86-2.45a48.92,48.92,0,0,1,32.26-10,38.77,38.77,0,0,1,11.9,2.44,15.54,15.54,0,0,1,2.9,1.41,5.29,5.29,0,0,1,2.22,2.5,3.45,3.45,0,0,1-.57,3.34,7,7,0,0,1-2.76,2,10.53,10.53,0,0,1-2.06.66c-.69.19-1.38.32-2.08.44a28.87,28.87,0,0,1-4.16.4,45.56,45.56,0,0,1-8.08-.56c-2.6-.39-5.11-.94-7.53-1.48l-1.8-.42a6.24,6.24,0,0,1-1.77-.63,2.34,2.34,0,0,1-.75-.65,1.55,1.55,0,0,1-.27-1,2.37,2.37,0,0,1,1.12-1.52A18.23,18.23,0,0,1,274.87,182a17.82,17.82,0,0,1,9.31,3.73l.17.14-.19.1a11.5,11.5,0,0,1-7.56,1A8,8,0,0,1,274,186.09Z"/><path class="cls-6" d="M328.42,174.57a2.5,2.5,0,0,1,.41.93,6.88,6.88,0,0,1,.28,2.78,13.76,13.76,0,0,1-4.11,8.07,21.1,21.1,0,0,1-3.85,3.27,17,17,0,0,1-3.71,1.8,17.93,17.93,0,0,1-2.69.67,4.19,4.19,0,0,1-1,.09c0-.1,1.42-.3,3.57-1.11a17.85,17.85,0,0,0,3.58-1.85,22.53,22.53,0,0,0,3.73-3.23,14,14,0,0,0,4.13-7.75A10.33,10.33,0,0,0,328.42,174.57Z"/><path class="cls-6" d="M404.33,191.33a24.6,24.6,0,0,0-1.94-1.88,13.55,13.55,0,0,0-6.61-3,14.74,14.74,0,0,0-5,.14,21.68,21.68,0,0,1-5.9.54c-2.17-.2-4.12-1.51-5.88-2.88a19.9,19.9,0,0,0-5.9-3.5,21.65,21.65,0,0,0-13.11-.2,30.89,30.89,0,0,0-9.69,4.91,56,56,0,0,0-5.63,4.8l-1.43,1.42a5.91,5.91,0,0,1-.52.48,3.93,3.93,0,0,1,.44-.55c.3-.35.76-.86,1.37-1.49a46.16,46.16,0,0,1,5.55-5,30.73,30.73,0,0,1,9.78-5.08,21.89,21.89,0,0,1,13.42.17,20.45,20.45,0,0,1,6,3.59c1.76,1.37,3.59,2.61,5.62,2.81a21.18,21.18,0,0,0,5.78-.5,15.15,15.15,0,0,1,5.16-.08,13.65,13.65,0,0,1,6.68,3.19A9.12,9.12,0,0,1,404.33,191.33Z"/><path class="cls-6" d="M472.11,174a4.07,4.07,0,0,1-.46.63c-.33.39-.76,1-1.44,1.72a38.79,38.79,0,0,1-6.18,5.48,49.76,49.76,0,0,1-10.7,5.94,45.14,45.14,0,0,1-6.91,2.2,35.28,35.28,0,0,1-7.72,1,38.31,38.31,0,0,1-14.7-3.06,48.34,48.34,0,0,1-10.65-6,42.32,42.32,0,0,1-6.13-5.53c-.68-.7-1.11-1.32-1.44-1.71a5.73,5.73,0,0,1-.47-.63,4.85,4.85,0,0,1,.55.56c.48.57,1,1.12,1.51,1.64a44.72,44.72,0,0,0,6.2,5.38,49.59,49.59,0,0,0,10.61,5.89,38.27,38.27,0,0,0,14.47,3,35.53,35.53,0,0,0,7.62-1,44.13,44.13,0,0,0,6.84-2.15,50.31,50.31,0,0,0,10.67-5.79,42.27,42.27,0,0,0,6.24-5.32c.7-.67,1.15-1.28,1.51-1.65A4.71,4.71,0,0,1,472.11,174Z"/><path class="cls-6" d="M462.43,173.82a2.54,2.54,0,0,1-.36.29c-.24.17-.61.44-1.1.74a41.86,41.86,0,0,1-4.23,2.4,43.62,43.62,0,0,1-6.69,2.72,29.79,29.79,0,0,1-8.73,1.5,36.08,36.08,0,0,1-15.5-3.92,34,34,0,0,1-4.2-2.47c-.48-.31-.82-.6-1.06-.78a1.43,1.43,0,0,1-.35-.3,12.22,12.22,0,0,1,1.52.91,42.53,42.53,0,0,0,4.25,2.31A37.35,37.35,0,0,0,441.32,181a30.19,30.19,0,0,0,8.59-1.43,47.74,47.74,0,0,0,6.67-2.6c1.84-.88,3.3-1.67,4.29-2.24A15.12,15.12,0,0,1,462.43,173.82Z"/><path class="cls-6" d="M505.41,175.71a2,2,0,0,1-.49,0l-1.38-.09-1-.08h-4.09l-1.68.09-1.81.21c-1.26.11-2.58.41-4,.64a55.66,55.66,0,0,0-17.12,6.71c-1.19.77-2.36,1.45-3.36,2.22L469,186.47l-1.25,1.11c-.85.66-1.55,1.33-2.18,1.91l-.89.8L464,191l-1,1a1.89,1.89,0,0,1-.37.32,2.19,2.19,0,0,1,.29-.39l.91-1.06.67-.75.86-.84a29.07,29.07,0,0,1,2.15-2l1.3-1.09c.47-.36,1-.72,1.48-1.1,1-.79,2.17-1.49,3.37-2.28A53.21,53.21,0,0,1,490.9,176c1.42-.22,2.75-.5,4-.59l1.83-.19,1.7-.06c1.08-.06,2.06,0,2.92,0l1.2.06,1,.12,1.38.18A2,2,0,0,1,505.41,175.71Z"/><path class="cls-6" d="M523.51,172.09v.35a8.26,8.26,0,0,1-.09,1,13.63,13.63,0,0,1-1,3.54,20.62,20.62,0,0,1-7.89,9.07,41.28,41.28,0,0,1-11.12,4.75c-1.49.42-2.7.72-3.54.92a7.32,7.32,0,0,1-1.32.25,7.29,7.29,0,0,1,1.26-.45l3.49-1.08a44.55,44.55,0,0,0,10.94-4.82,19,19,0,0,0,9.23-13.53Z"/><path class="cls-6" d="M411.93,191a19.79,19.79,0,0,0-2.33-2.76,21.38,21.38,0,0,0-8.52-4.76,44.33,44.33,0,0,0-6.65-1.47c-2.42-.39-5-.69-7.77-1.16a62.77,62.77,0,0,1-8.44-2.12,55.41,55.41,0,0,0-9-2.17A37.55,37.55,0,0,0,351.67,179a66.08,66.08,0,0,0-7.13,3.21c-2.19,1.12-4.19,2.22-6,3.25-3.64,2.06-6.54,3.81-8.53,5l-2.3,1.41-.6.36a1.51,1.51,0,0,1-.22.11l.19-.16.57-.4c.51-.35,1.27-.86,2.25-1.49,2-1.27,4.83-3.08,8.45-5.18,1.82-1,3.82-2.18,6-3.32a63.39,63.39,0,0,1,7.17-3.27A37.68,37.68,0,0,1,369.28,176a54.52,54.52,0,0,1,9.09,2.21,67.67,67.67,0,0,0,8.38,2.13c2.71.48,5.32.8,7.75,1.2a45.2,45.2,0,0,1,6.7,1.55,21.16,21.16,0,0,1,8.54,5A10.76,10.76,0,0,1,411.93,191Z"/><path class="cls-6" d="M316.74,174.09a4,4,0,0,1-.06,1.19,14.66,14.66,0,0,1-.83,3.12,17.82,17.82,0,0,1-6.5,8.31,43.76,43.76,0,0,1-9.63,4.43c-1.28.43-2.34.74-3.07.93a5.69,5.69,0,0,1-1.16.24,5,5,0,0,1,1.1-.44l3-1.08a49.57,49.57,0,0,0,9.47-4.52,18.53,18.53,0,0,0,6.44-8A24.2,24.2,0,0,0,316.74,174.09Z"/><path class="cls-6" d="M218.57,192.31a6.75,6.75,0,0,1,1-1c.68-.62,1.71-1.46,3-2.47a89.08,89.08,0,0,1,10.78-6.94c4.39-2.42,8.5-4.35,11.48-5.72,1.49-.68,2.7-1.22,3.54-1.58a9.39,9.39,0,0,1,1.33-.52,6.29,6.29,0,0,1-1.24.7L245,176.52c-2.93,1.45-7,3.43-11.38,5.83a108.21,108.21,0,0,0-10.81,6.79c-1.33,1-2.38,1.76-3.1,2.32A6.76,6.76,0,0,1,218.57,192.31Z"/><path class="cls-6" d="M238.49,174.85c0,.06-1-.12-2.73,0a19.38,19.38,0,0,0-7,2.14,64,64,0,0,0-9.16,6.15,46.43,46.43,0,0,1-5.52,3.57,30.57,30.57,0,0,1-6.6,2.55,61.3,61.3,0,0,1-13.5,1.62c-4.18.12-7.94,0-11.09.17a54.2,54.2,0,0,0-7.41.72c-.86.16-1.53.29-2,.4a5.4,5.4,0,0,1-.7.13,3.32,3.32,0,0,1,.67-.23c.45-.14,1.11-.31,2-.5a47.69,47.69,0,0,1,7.43-.89c3.16-.18,6.92-.13,11.08-.28a62.89,62.89,0,0,0,13.39-1.65,30.21,30.21,0,0,0,6.49-2.49,45.39,45.39,0,0,0,5.47-3.51,62.6,62.6,0,0,1,9.28-6.09,18.55,18.55,0,0,1,7.21-2,13.33,13.33,0,0,1,2,.06A3.83,3.83,0,0,1,238.49,174.85Z"/><path class="cls-6" d="M502.14,173.75c0,.14-17.66.26-39.45.26s-39.46-.12-39.46-.26,17.66-.26,39.46-.26S502.14,173.6,502.14,173.75Z"/><rect class="cls-6" x="279.9" y="165.52" width="56.97" height="8.51"/><rect class="cls-2" x="279.9" y="167.48" width="15.06" height="4.58"/><rect class="cls-7" x="284.98" y="157.01" width="56.97" height="8.51"/><rect class="cls-2" x="303.32" y="159.05" width="38.64" height="4.26"/><rect class="cls-6" x="276.47" y="148.5" width="56.97" height="8.51"/><rect class="cls-2" x="318.39" y="150.46" width="15.06" height="4.58"/></g><g id="Character_4" data-name="Character 4"><path class="cls-7" d="M527.67,299.71l6.79,16.87s-14.86,12.57-13.91,15.81l33.18-12-9.51-26.72Z"/><path class="cls-2" d="M544.2,311.43a1.43,1.43,0,0,1,1.5,1.21,1.39,1.39,0,0,1-1.19,1.49,1.51,1.51,0,0,1-1.57-1.29c0-.7.7-1.52,1.4-1.41"/><g class="cls-8"><path class="cls-3" d="M553.74,320.39l-1.06-2.66-31.42,12.5s-1.24,1.18-.7,2.16Z"/></g><path class="cls-6" d="M533.86,316.6c.07.16.9-.06,1.89.18s1.66.76,1.78.64-.45-1-1.65-1.23S533.74,316.47,533.86,316.6Z"/><path class="cls-6" d="M530.9,319.3c0,.17.82.19,1.62.68s1.22,1.15,1.38,1.09-.07-1-1.07-1.61S530.85,319.14,530.9,319.3Z"/><path class="cls-6" d="M530.43,324.18c.16,0,.1-.91-.64-1.65s-1.62-.81-1.64-.65.62.46,1.21,1.08S530.27,324.22,530.43,324.18Z"/><path class="cls-6" d="M532.74,312.59c.12.12.78-.37,1.72-.64s1.76-.24,1.79-.41-.86-.5-2-.17S532.62,312.49,532.74,312.59Z"/><path class="cls-6" d="M531.43,309.16a3.32,3.32,0,0,0,1.66-.61,7.94,7.94,0,0,0,1.55-1.16,10.49,10.49,0,0,0,.77-.86,1.87,1.87,0,0,0,.33-.54.76.76,0,0,0-.24-.89,1,1,0,0,0-.76-.11,2.22,2.22,0,0,0-.59.31,5.82,5.82,0,0,0-.91.73,6.37,6.37,0,0,0-1.17,1.56,3,3,0,0,0-.49,1.7c.1,0,.29-.61.86-1.49a6.73,6.73,0,0,1,1.18-1.37,6.52,6.52,0,0,1,.85-.64c.31-.21.61-.33.76-.2s.07.07,0,.2a1.88,1.88,0,0,1-.27.42c-.22.29-.46.57-.69.82a9.29,9.29,0,0,1-1.39,1.19A12.38,12.38,0,0,0,531.43,309.16Z"/><path class="cls-6" d="M531.74,309.31a2.87,2.87,0,0,0-.14-1.76,6.1,6.1,0,0,0-.89-1.74,5.77,5.77,0,0,0-.79-.85,1.45,1.45,0,0,0-1.36-.46.86.86,0,0,0-.53.72,3,3,0,0,0,.05.67,4.15,4.15,0,0,0,1.74,2.58c1,.62,1.7.57,1.7.51a14.08,14.08,0,0,1-1.45-.85,4.17,4.17,0,0,1-1.09-1.38,3.16,3.16,0,0,1-.32-1c-.07-.37,0-.7.1-.71a1,1,0,0,1,.78.33,5.82,5.82,0,0,1,.74.75,7.06,7.06,0,0,1,.92,1.54C531.59,308.65,531.63,309.32,531.74,309.31Z"/><path class="cls-7" d="M558.9,296.62l6.84,16.87s-14.91,12.57-14,15.81l33.18-12-9.51-26.71Z"/><path class="cls-2" d="M575.43,308.34a1.43,1.43,0,0,1,1.5,1.21,1.39,1.39,0,0,1-1.19,1.49,1.51,1.51,0,0,1-1.57-1.28c0-.71.7-1.52,1.4-1.42"/><g class="cls-8"><path class="cls-3" d="M585,317.3l-1.06-2.65-31.42,12.49s-1.24,1.18-.7,2.16Z"/></g><path class="cls-6" d="M565.09,313.52c.07.16.9-.06,1.89.17s1.66.76,1.78.64-.45-1-1.65-1.23S565,313.38,565.09,313.52Z"/><path class="cls-6" d="M562.13,316.21c0,.17.83.2,1.62.68s1.22,1.16,1.38,1.09-.07-1-1.07-1.6S562.08,316.06,562.13,316.21Z"/><path class="cls-6" d="M561.66,321.09c.16,0,.1-.91-.64-1.64s-1.62-.82-1.64-.66.62.47,1.21,1.08S561.5,321.14,561.66,321.09Z"/><path class="cls-6" d="M564,309.5c.12.12.79-.37,1.72-.64s1.76-.24,1.8-.41-.87-.49-2-.16S563.85,309.4,564,309.5Z"/><path class="cls-6" d="M562.66,306.07a3.11,3.11,0,0,0,1.66-.61,7.94,7.94,0,0,0,1.55-1.16,10.36,10.36,0,0,0,.77-.85,2.12,2.12,0,0,0,.36-.57.75.75,0,0,0-.26-.89.93.93,0,0,0-.84-.12,2.25,2.25,0,0,0-.59.32,6.26,6.26,0,0,0-.91.72,6.38,6.38,0,0,0-1.17,1.56,3,3,0,0,0-.49,1.71c.1,0,.29-.62.86-1.49a6.73,6.73,0,0,1,1.18-1.37,6.52,6.52,0,0,1,.85-.64c.31-.22.61-.33.76-.21s.07.07,0,.2a1.88,1.88,0,0,1-.27.42,7.68,7.68,0,0,1-.69.82,10.59,10.59,0,0,1-1.39,1.2A13.08,13.08,0,0,0,562.66,306.07Z"/><path class="cls-6" d="M563,306.23a2.76,2.76,0,0,0-.14-1.77,5.92,5.92,0,0,0-.89-1.73,5.34,5.34,0,0,0-.79-.86,1.45,1.45,0,0,0-1.36-.45.84.84,0,0,0-.53.71,2.51,2.51,0,0,0,0,.67,4.15,4.15,0,0,0,1.74,2.58c1,.63,1.7.57,1.7.51a11.7,11.7,0,0,1-1.45-.85,4,4,0,0,1-1.09-1.37,3.89,3.89,0,0,1-.32-1c-.07-.38,0-.71.1-.72a1,1,0,0,1,.78.33,5.9,5.9,0,0,1,.74.76,6.35,6.35,0,0,1,.92,1.54C562.82,305.57,562.86,306.23,563,306.23Z"/><path class="cls-13" d="M581.74,78.06,578.61,104l4.93,12-19.5.69-4-9.35s-9.66-1.09-10-7.27c-.25-4,6.12-32.73,6.12-32.73Z"/><path class="cls-6" d="M575.53,109c2.3-1.56,3.46-2.6,4.47-5.19s1.66-5.32,2.81-7.84,3-5,4.14-7.72,1.8-5.8.64-8.47c0,0-.42-3.43-5-4.68,0,0-2.61-7.27-8.59-8-8.14-.92-7.86-3.31-13.17-5.35A5.16,5.16,0,0,0,554,64.19h0s-3.27,1.49-4,4.48v.09a7.14,7.14,0,0,0,3.32,7.81l1,.57a7,7,0,0,1,2.5,2c.88,1.35.69,3.11.31,4.66a12.83,12.83,0,0,0-.74,4.72c.07.54.39,1.18.93,1.16s.81-.9,1-1.52c.57-1.81,3.24-2.71,4.62-1a2.88,2.88,0,0,1,.12,3.62c-.89,1.17-2.46,1.9-3,3.28-1,2.34,1.44,5.06,2.25,6.61a10.7,10.7,0,0,0,1,1.57,23,23,0,0,0,6.81,5.92,6.25,6.25,0,0,0,6.38.32"/><path class="cls-13" d="M495.3,140.31h0c-3.42-1.45-5.62-2.77-7.92-3.61-2.82-1-3.91-1.65-3.69-2.16.3-.69.16-.44,5.56.7,0,0-7.7-1.69-5.74-2.64.86-.42,7.27.92,7.27.92-5.25-.6-7.13-1.66-7-2.44.19-1.15,8,.54,8,.54a61.43,61.43,0,0,1-6.93-1.7c-1-.53.27-1,1.42-1.15s8.89.12,11.09.09a1.29,1.29,0,0,0,1.38-1.19v0h0v-.15c-.64-3.12.53-5.9,1.2-6.5s1.72.11,1.5,1.08a12.12,12.12,0,0,0,.05,3.24,7.38,7.38,0,0,0,.71,2.47c.44.9.85,1.65,1.21,2.27L514.32,142l-4.7,11.31Z"/><path class="cls-14" d="M492.48,136a14.79,14.79,0,0,1-3.73-.63,14.32,14.32,0,0,1-3.62-1.11A27.74,27.74,0,0,1,492.48,136Z"/><path class="cls-14" d="M493.14,134a16.87,16.87,0,0,1-4-.45,17.17,17.17,0,0,1-3.93-.93A32.32,32.32,0,0,1,493.14,134Z"/><path class="cls-14" d="M493.81,131.86a15.25,15.25,0,0,1-3.81-.36,14.53,14.53,0,0,1-3.73-.85,15.25,15.25,0,0,1,3.81.36A14.43,14.43,0,0,1,493.81,131.86Z"/><path class="cls-6" d="M566.74,191.13l-46.61,7a22.66,22.66,0,0,0-15.62,10h0A22.72,22.72,0,0,0,501.67,227l24.61,78.49L548.51,297l-13.65-69.4L607,222.77V191.13l-40.23-1.45"/><path class="cls-6" d="M599.52,191.13l-46.61,7a22.66,22.66,0,0,0-15.62,10h0A22.75,22.75,0,0,0,534.5,227L556,300.81l24.83-6.55-13-66.63L616,224.4V192.74l-16.34-3.06"/><path class="cls-7" d="M506.89,133c1-.13,32.63,24.55,32.63,24.55l-20.21,8-20.49-20.33S497.52,134.28,506.89,133Z"/><path class="cls-7" d="M609.29,123.3c-5.27-7.65-14.26-10.3-17.37-11a9,9,0,0,0-2-.22h-27a18.87,18.87,0,0,0-13.09,5.2,64.33,64.33,0,0,0-10.35,13.33l-13.57,18.86-8.34,14,1.7,2.14A14,14,0,0,0,536,169.87c2.75-1.28,4.76-3.67,6.63-6.42,3.41-5,7-10.42,9.32-14.55l13.61,38.89-7.28,4.62L589,204.81l31.92-13.66-8.81-31.41h0s14,1.36,15.27-4.13S615.74,132.67,609.29,123.3Z"/><path class="cls-12" d="M606.13,137.54a128.74,128.74,0,0,1,6.37,11.79c.26.52,1,.06.78-.46a99.57,99.57,0,0,0-6.64-11.62c-.2-.32-.71,0-.51.29Z"/><path class="cls-12" d="M612.47,135.27a128.74,128.74,0,0,1,6.37,11.79c.26.52,1,.06.78-.46A100,100,0,0,0,613,135c-.2-.32-.71,0-.51.29Z"/><path class="cls-12" d="M600,138.44c1.35,5.23,2.41,10.53,3.27,15.85.12.75,1.26.43,1.13-.31a104.1,104.1,0,0,0-3.92-15.67.25.25,0,0,0-.48.13Z"/><path class="cls-12" d="M585.56,139.93a63.45,63.45,0,0,1,2.63,15.71c0,.74,1.18.75,1.15,0a52.2,52.2,0,0,0-3.22-15.86c-.12-.35-.67-.21-.56.15Z"/><path class="cls-12" d="M597.37,152.67a71,71,0,0,1-3.49-14.8c-.07-.69-1.1-.72-1.09,0a29.7,29.7,0,0,0,4,15c.19.29.68.11.57-.24Z"/><path class="cls-12" d="M579.11,140.35a66.71,66.71,0,0,0,2.18,14.94.55.55,0,0,0,.74.18.54.54,0,0,0,.26-.46c-.94-4.92-1.84-9.79-2.65-14.73,0-.32-.58-.25-.57.07Z"/><path class="cls-12" d="M571.37,141.24c1.35,5.47,2.34,11,3.33,16.53.09.52,1,.41.94-.13a90.08,90.08,0,0,0-3.9-16.51.2.2,0,0,0-.26-.11h0a.21.21,0,0,0-.12.21Z"/><path class="cls-12" d="M564.29,142.52A66,66,0,0,0,566,157.79c.14.54.9.3.82-.23a139.89,139.89,0,0,1-1.83-15,.33.33,0,1,0-.66,0h0Z"/><path class="cls-12" d="M541.67,156.49c4.24-4,8-9,11.48-13.62.32-.41-.38-.94-.72-.55-3.8,4.36-8,9-11,13.94-.12.18.13.36.28.23Z"/><path class="cls-12" d="M536.74,152a48,48,0,0,0,9.84-12.1.46.46,0,0,0-.16-.63.47.47,0,0,0-.64.16c-2.93,4.27-6.2,8.16-9.39,12.21a.24.24,0,0,0,0,.35h0A.24.24,0,0,0,536.74,152Z"/><path class="cls-12" d="M539.74,137.5c-2.82,3.16-5.73,6.26-8.4,9.55-.36.44.24,1.07.63.63,2.83-3.16,5.43-6.55,8.11-9.84.19-.24-.13-.58-.34-.34Z"/><path class="cls-12" d="M557.1,143.27c1.2,5.08,1.91,10.23,3,15.32.11.48.93.38.88-.12a115.49,115.49,0,0,0-3.24-15.38.35.35,0,1,0-.68.18h0Z"/><g class="cls-11"><path d="M598,154.18a7.42,7.42,0,0,0-5.72,2.86,17.62,17.62,0,0,0-3,5.88,61.27,61.27,0,0,0-3.18,20.8c0,2.15.07,4.64-1.56,6.05-1.4,1.2-3.47,1.11-5.19,1.79-2.75,1.07-5.12,4.75-4.31,7.59L590.47,205Z"/></g><path class="cls-6" d="M580.74,186.75a5.8,5.8,0,0,1-1.76.68,20.57,20.57,0,0,1-9,.4,5,5,0,0,1-1.81-.53q3.15.31,6.32.31C577.91,187.47,580.64,186.59,580.74,186.75Z"/><polygon class="cls-10" points="525.19 228.92 512.93 331.8 518.23 331.8 531.25 228.92 525.19 228.92"/><polygon class="cls-10" points="574.06 228.92 585.32 331.8 591.1 331.8 580.12 228.92 574.06 228.92"/><polyline class="cls-10" points="634.68 228.92 644.06 331.8 650.5 331.8 639.79 228.92 632.02 228.92"/><path class="cls-10" d="M603.36,140.55H648.8a7.07,7.07,0,0,1,7.07,7.07h0a6.73,6.73,0,0,1-.07,1L645,223.71a6.08,6.08,0,0,1-6,5.21H580.1Z"/><path class="cls-10" d="M519.14,228.92c.11-1.13,0-6.82,0-6.82l56.36,1.06a8.66,8.66,0,0,0,8.7-7.25l11.23-68.63a8,8,0,0,1,7.93-6.73h0L591.1,217.82a13.18,13.18,0,0,1-13,11.1Z"/><path class="cls-6" d="M603.36,140.55v.23l-.08.7c-.09.65-.22,1.54-.37,2.66-.36,2.35-.86,5.68-1.47,9.77-1.3,8.28-3.08,19.65-5,32.2-1,6.29-2,12.27-2.84,17.72q-.66,4.09-1.26,7.74a52.67,52.67,0,0,1-1.36,6.7,18.47,18.47,0,0,1-2.33,5.16,13.09,13.09,0,0,1-2.9,3.13,9.24,9.24,0,0,1-2.36,1.31,4.67,4.67,0,0,1-.9.27,11.71,11.71,0,0,0,3.13-1.74,15.45,15.45,0,0,0,5-8.23,55.72,55.72,0,0,0,1.3-6.67c.38-2.43.78-5,1.2-7.74.86-5.45,1.81-11.44,2.8-17.73,2-12.54,3.86-23.9,5.19-32.18.69-4.08,1.24-7.39,1.64-9.74.19-1.12.35-2,.47-2.65a3.89,3.89,0,0,1,.13-.68A.6.6,0,0,0,603.36,140.55Z"/><path class="cls-6" d="M605.87,141a22.22,22.22,0,0,1-2.74-3.87,22.34,22.34,0,0,1-2.29-4.18,42.22,42.22,0,0,1,5,8Z"/><path class="cls-6" d="M520.1,157.67a40.85,40.85,0,0,1,3.52-5.48,43.69,43.69,0,0,1,4-5.19,40,40,0,0,1-3.52,5.49A40.86,40.86,0,0,1,520.1,157.67Z"/><path class="cls-6" d="M558.12,139.49a7.07,7.07,0,0,1-.62,1.15l-1.76,3.07c-1.54,2.58-3.69,6.13-6.19,10s-4.84,7.27-6.59,9.7c-.88,1.22-1.6,2.2-2.12,2.86a5.37,5.37,0,0,1-.84,1,7.12,7.12,0,0,1,.68-1.12l2-3c1.68-2.48,4-5.93,6.47-9.77l6.3-9.88c.81-1.27,1.46-2.29,1.93-3A5.7,5.7,0,0,1,558.12,139.49Z"/></g><g id="Character_2" data-name="Character 2"><path class="cls-6" d="M203.62,23.47c-2.07-3-.79-7.64,2.3-9.63a9.33,9.33,0,0,1,10.34.73c2.94,2.22,3.76,6.07,3.28,9.36-.36,2.46-4.2,7.45-7.86,5.26"/><path class="cls-6" d="M181.57,44.27c-8.13-15.75,8.89-24.71,18.53-22.5C209.16,23.85,213.2,28.1,215,34a29.44,29.44,0,0,1,0,18.19c-1,2.87-3,5.82-6,6.32"/><path class="cls-13" d="M206.25,30.44a3,3,0,0,1,2.87,3h0l.32,41.09c.18,4.85-6.76,7.94-11.95,8.09h0c-5.24.15-5.54-2.41-5.85-7C191.13,67.93,191,65,191,65.08s-6.67-.77-8.47-9.33c-.9-4.26-1-11.31-1-17.08.07-5.2,3.18-11.72,8.37-11.44Z"/><path class="cls-14" d="M191,65a22,22,0,0,0,11.41-3.66s-2.52,6.06-11.2,5.66Z"/><path class="cls-6" d="M184,27.73a8.36,8.36,0,0,0,3.5,8,16.82,16.82,0,0,0,4.92,1.93l3.29.9a27.13,27.13,0,0,0,7.42,1.29c-.13,2.82-.46,4.72,1.06,7.1,1.36,2.14,3.34,3.64,5.91,3a84.31,84.31,0,0,0,1-16.87,7.89,7.89,0,0,0-.85-4.21c-1.3-2-4-2.4-6.43-2.59l-10-.77a20.41,20.41,0,0,0-4.94,0,6.84,6.84,0,0,0-4.26,2.3"/><path class="cls-10" d="M216.52,39.91h-.38a2.83,2.83,0,0,1-1.07-.24,4.53,4.53,0,0,1-1.41-1q-.75-.81-1.44-1.68a8.29,8.29,0,0,0-2-1.83,10.78,10.78,0,0,0-2.82-1.3,24,24,0,0,0-7.11-.78,33.08,33.08,0,0,1-7.23-.5,10.35,10.35,0,0,1-5.21-2.77A8.63,8.63,0,0,1,186.48,28a6.74,6.74,0,0,1-.58-1.63,4.47,4.47,0,0,1-.07-1.46,7.33,7.33,0,0,0,.2,1.43,5.91,5.91,0,0,0,.62,1.57A8.81,8.81,0,0,0,188,29.65a10.16,10.16,0,0,0,5.1,2.64,33.73,33.73,0,0,0,7.16.46,23.72,23.72,0,0,1,7.21.82,11,11,0,0,1,2.88,1.37,8.11,8.11,0,0,1,2,1.92c.52.67.94,1.3,1.39,1.78a4.65,4.65,0,0,0,1.33,1A3.43,3.43,0,0,0,216.52,39.91Z"/><path class="cls-10" d="M215.14,34.61a2.71,2.71,0,0,0-.17-1.23,5,5,0,0,0-2.59-2.13,17.07,17.07,0,0,0-4.92-1.32,44,44,0,0,0-6.29,0,30,30,0,0,1-6.35-.22A12.71,12.71,0,0,1,190,27.83a8.34,8.34,0,0,1-2.47-2.48c-.16-.28-.3-.56-.43-.85a1.63,1.63,0,0,1-.11-.31,10.89,10.89,0,0,0,.66,1.09,8.68,8.68,0,0,0,2.48,2.35,12.69,12.69,0,0,0,4.76,1.76,30.58,30.58,0,0,0,6.27.2,42.06,42.06,0,0,1,6.35,0,16.74,16.74,0,0,1,5,1.42,5,5,0,0,1,2.6,2.3,2,2,0,0,1,.13,1A.63.63,0,0,1,215.14,34.61Z"/><path class="cls-10" d="M218.92,18.06a1.26,1.26,0,0,1,.14.57,3.66,3.66,0,0,1-.28,1.6,9,9,0,0,1-3.61,3.83,7.87,7.87,0,0,1-5.12,1.13,9.42,9.42,0,0,1-1.57-.29,2.31,2.31,0,0,1-.56-.19c0-.07.82.15,2.15.24a8.93,8.93,0,0,0,2.31-.15,8.17,8.17,0,0,0,2.62-1,9.18,9.18,0,0,0,3.55-3.63A4.26,4.26,0,0,0,218.92,18.06Z"/><path class="cls-10" d="M215.8,14.25a1.88,1.88,0,0,1,0,.58,8.17,8.17,0,0,1-.3,1.55,10.24,10.24,0,0,1-7.05,7.12,8,8,0,0,1-1.55.31,1.88,1.88,0,0,1-.58,0c0-.06.81-.13,2.05-.55a10.85,10.85,0,0,0,6.9-7C215.68,15.07,215.74,14.24,215.8,14.25Z"/><path class="cls-10" d="M215,51.67a1.7,1.7,0,0,1,0-.45V49.91a14.37,14.37,0,0,0-.88-4.68,9.23,9.23,0,0,0-1.68-2.79,7.71,7.71,0,0,0-3.08-2.07c-2.5-.95-5.51-.79-8.6-.92a26.41,26.41,0,0,1-8.61-1.65,14.56,14.56,0,0,1-5.83-4.12A11.06,11.06,0,0,1,184,29.41a7.92,7.92,0,0,1-.23-1.29,1.77,1.77,0,0,1,0-.46,14.25,14.25,0,0,0,.38,1.72,11.19,11.19,0,0,0,2.3,4.14,14.29,14.29,0,0,0,5.76,4,26.28,26.28,0,0,0,8.5,1.6c3.07.13,6.12,0,8.71,1a7.82,7.82,0,0,1,3.17,2.18,9.07,9.07,0,0,1,1.7,2.89,13.85,13.85,0,0,1,.79,4.77v1.31A1.77,1.77,0,0,1,215,51.67Z"/><path class="cls-7" d="M213,29.42c-.43-.42-.85-.86-1.24-1.32a20.34,20.34,0,0,0-7.08-4.9,17.26,17.26,0,0,1-1.67-.69,6.69,6.69,0,0,1,1.75.48,17.39,17.39,0,0,1,3.91,2,16.64,16.64,0,0,1,3.27,3A7.07,7.07,0,0,1,213,29.42Z"/><path class="cls-13" d="M208.2,44.77c.12-.06,4.52-2.28,4.83,2.89s-4.94,4.41-5,4.26S208.2,44.77,208.2,44.77Z"/><path class="cls-13" d="M132.18,91s-3.47-6.82-4.35-7.48-8.64-3.36-9.29-3.14-10,2-8.9,3.06,7.6-.22,7.6-.22l.88.43s-5.62,1-6.8,1.69-.68,2,.35,1.86,5.91-1.15,6.2-1-5.3,1.4-5.87,1.8c-.81.49-.87,1.94.16,1.85.6,0,5.88-1.5,5.88-1.5a47.82,47.82,0,0,0-4.56,2.06.77.77,0,0,0,.8,1.3c.63-.14,3.57-1.61,4.41-1.8,0,0,.78.19,1.52,1.76s5.91,5.5,5.91,5.5Z"/><path class="cls-13" d="M130,91.12a1.85,1.85,0,0,1-2.17,0c-.68-.39-1.2-1-1.84-1.44-1.93-1.31-4.66-1-6.52-2.35-.26-.19-.52-.51-.38-.81s.49-.31.79-.31l7.71.07"/><path class="cls-14" d="M127.63,86.31a2.9,2.9,0,0,0-.83-.1c-.54,0-1.32-.06-2.28-.08l-3.37-.08h-1a1.52,1.52,0,0,0-1.13.25.66.66,0,0,0-.12.72,1.35,1.35,0,0,0,.4.49,5,5,0,0,0,1,.58,29.16,29.16,0,0,0,4,1.08,5.79,5.79,0,0,1,1.59.7,11.8,11.8,0,0,1,1.22,1,2.74,2.74,0,0,0,2.18.73c.57-.12.75-.43.73-.43a2.16,2.16,0,0,1-.75.26,2.63,2.63,0,0,1-2-.8c-.39-.35-.79-.69-1.21-1a6.12,6.12,0,0,0-1.68-.78,33.44,33.44,0,0,1-3.95-1.09,5.3,5.3,0,0,1-.89-.52c-.25-.2-.38-.47-.24-.57a1.63,1.63,0,0,1,.81-.13h4.37c1,0,1.74,0,2.28-.06A3.2,3.2,0,0,0,127.63,86.31Z"/><path class="cls-14" d="M109.66,83.45a4.26,4.26,0,0,0,1.71.45,10.37,10.37,0,0,0,1.93,0c.71-.09,1.49-.22,2.31-.34l1.75-.29h-.11a25.23,25.23,0,0,0,4.06,1.21,25.18,25.18,0,0,0-3.92-1.6h-.11l-1.73.26-2.28.37a14.59,14.59,0,0,1-1.87,0C110.33,83.53,109.67,83.39,109.66,83.45Z"/><path class="cls-7" d="M159.4,287.39l8.4,15.6s-13,13.78-11.76,16.81l30.83-15.2-12.13-24.84Z"/><path class="cls-2" d="M176.68,297a1.42,1.42,0,0,1,1.58,1,1.34,1.34,0,0,1-1,1.57,1.48,1.48,0,0,1-1.66-1.07,1.39,1.39,0,0,1,1.2-1.53"/><g class="cls-8"><path class="cls-3" d="M186.87,304.6l-1.31-2.46-29.07,15.5s-1.08,1.27-.45,2.16Z"/></g><path class="cls-6" d="M167.23,303.08c.08.15.86-.16,1.84,0s1.69.56,1.8.43-.55-.89-1.73-1S167.13,303,167.23,303.08Z"/><path class="cls-6" d="M164.65,306c0,.16.82.1,1.65.48s1.3,1,1.45.91-.18-1-1.22-1.44S164.59,305.87,164.65,306Z"/><path class="cls-6" d="M164.74,310.79c.15,0,0-.89-.81-1.53s-1.65-.61-1.66-.46.65.39,1.3.92S164.57,310.85,164.74,310.79Z"/><path class="cls-6" d="M165.74,299.31c.13.11.72-.44,1.6-.8s1.67-.42,1.69-.59-.89-.39-1.92.05S165.58,299.23,165.74,299.31Z"/><path class="cls-6" d="M164.07,296.13c0,.07.67-.13,1.54-.77a7.28,7.28,0,0,0,1.37-1.29,8.44,8.44,0,0,0,.66-.91,1.88,1.88,0,0,0,.28-.59.74.74,0,0,0-.32-.83.87.87,0,0,0-.83,0,2,2,0,0,0-.54.36,8.75,8.75,0,0,0-.8.81,5.68,5.68,0,0,0-1,1.63,2.86,2.86,0,0,0-.29,1.7c.09,0,.21-.62.66-1.53a7.2,7.2,0,0,1,1-1.45,5.58,5.58,0,0,1,.75-.71c.28-.25.56-.39.72-.29s.07.06,0,.19a1.78,1.78,0,0,1-.21.44c-.19.31-.39.6-.59.87a9.91,9.91,0,0,1-1.21,1.3C164.59,295.73,164,296.05,164.07,296.13Z"/><path class="cls-6" d="M164.37,296.25a2.7,2.7,0,0,0-.33-1.69,5.61,5.61,0,0,0-1-1.59,6.1,6.1,0,0,0-.86-.74,1.42,1.42,0,0,0-1.44-.24.81.81,0,0,0-.44.75,2.34,2.34,0,0,0,.12.64,3.81,3.81,0,0,0,.52,1,3.91,3.91,0,0,0,1.44,1.27c1,.5,1.71.37,1.7.31-.51-.2-1-.42-1.49-.67a3.88,3.88,0,0,1-1.21-1.21,4.08,4.08,0,0,1-.41-.9c-.11-.36-.12-.68,0-.71a1,1,0,0,1,.79.24,5.46,5.46,0,0,1,.79.65,6,6,0,0,1,1.06,1.39C164.16,295.63,164.28,296.27,164.37,296.25Z"/><path class="cls-7" d="M167.63,300.9l-3.2,17.42s-18.78,2.6-19.69,5.77l33.57,7.41,6.09-26.95Z"/><path class="cls-2" d="M175.13,319.16a1.42,1.42,0,0,1,.61,1.77,1.36,1.36,0,0,1-1.76.62,1.5,1.5,0,0,1-.63-1.89,1.41,1.41,0,0,1,1.9-.43"/><g class="cls-8"><path class="cls-3" d="M178.31,331.5l.51-2.74-32.38-6.08s-1.63.32-1.7,1.41Z"/></g><path class="cls-6" d="M163.93,318c0,.17.77.42,1.46,1.13s1,1.48,1.13,1.45.13-1-.72-1.87S163.92,317.87,163.93,318Z"/><path class="cls-6" d="M160.08,318.71c-.07.15.58.59,1,1.4s.41,1.59.57,1.62.48-.88,0-1.88S160.12,318.55,160.08,318.71Z"/><path class="cls-6" d="M157.16,322.48c.14.07.55-.7.32-1.69s-.91-1.52-1-1.4.27.71.44,1.53S157,322.43,157.16,322.48Z"/><path class="cls-6" d="M165.1,314.14c0,.16.83.1,1.75.37s1.57.72,1.68.6-.45-.86-1.53-1.16S165,314,165.1,314.14Z"/><path class="cls-6" d="M165.81,310.64a3.27,3.27,0,0,0,1.68.36,8.47,8.47,0,0,0,1.88-.15,6.64,6.64,0,0,0,1.08-.3,2.49,2.49,0,0,0,.59-.29.74.74,0,0,0,.27-.85,1,1,0,0,0-.64-.53,2.35,2.35,0,0,0-.65-.06,6.1,6.1,0,0,0-2.9.81c-.93.55-1.34,1.1-1.29,1.14a13.92,13.92,0,0,0,1.48-.78,7.16,7.16,0,0,1,1.69-.51,6.74,6.74,0,0,1,1-.08c.37,0,.68,0,.73.22s0,.1-.07.18a1.63,1.63,0,0,1-.44.21,8.88,8.88,0,0,1-1,.31,10.39,10.39,0,0,1-1.76.27A10.11,10.11,0,0,0,165.81,310.64Z"/><path class="cls-6" d="M166,310.92a3,3,0,0,0,.8-1.53,6,6,0,0,0,.18-1.89,5.18,5.18,0,0,0-.21-1.11,1.41,1.41,0,0,0-.88-1.09.8.8,0,0,0-.81.32,3.91,3.91,0,0,0-.31.57,4.47,4.47,0,0,0-.25,1.14,4.08,4.08,0,0,0,.34,1.89c.46,1,1.1,1.36,1.13,1.31a13.4,13.4,0,0,1-.75-1.46,4.09,4.09,0,0,1-.18-1.7,3.48,3.48,0,0,1,.24-1c.14-.35.33-.61.46-.54a1.3,1.3,0,0,1,.47.68,5.74,5.74,0,0,1,.21,1,6.41,6.41,0,0,1,0,1.75A9,9,0,0,0,166,310.92Z"/><path class="cls-6" d="M183,140.52l-51.56,66.41a24.08,24.08,0,0,0-3.72,22.51l37.36,76.18,12.52-21.29-21.39-60.17,27.9-33.57,12.44-51.36Z"/><path class="cls-6" d="M163,315.71l23.1-161.17,1.14-14.42,28.32-1.53s9.9,15.42,10.37,24.86-25.77,75.47-25.77,75.47l-3.76,26.35-15.85,55.8Z"/><path class="cls-10" d="M187,143.12c.14,0-5.11,38.68-11.74,86.33S163.12,315.73,163,315.71s5.12-38.66,11.75-86.33S186.83,143.1,187,143.12Z"/><path class="cls-10" d="M156,224.24c-.06.07-.63-.42-1.69-1a10.73,10.73,0,0,0-9-.35c-1.09.47-1.7.92-1.75.84a4.31,4.31,0,0,1,1.6-1.17,9.75,9.75,0,0,1,9.3.36A4.36,4.36,0,0,1,156,224.24Z"/><path class="cls-10" d="M217.2,148.49a3.37,3.37,0,0,1-.61.36,10,10,0,0,1-1.83.65,12.48,12.48,0,0,1-2.86.4,13.94,13.94,0,0,1-6.85-1.57,13.79,13.79,0,0,1-2.4-1.61,9.93,9.93,0,0,1-1.36-1.39c-.28-.36-.42-.57-.39-.59s.71.72,2,1.69a16.22,16.22,0,0,0,2.38,1.47,16.53,16.53,0,0,0,3.22,1.1,16.25,16.25,0,0,0,3.4.38,13.59,13.59,0,0,0,2.78-.28C216.24,148.82,217.16,148.4,217.2,148.49Z"/><path class="cls-10" d="M134.46,243.24a11.65,11.65,0,0,1-.89-1.58c-.55-1-1.33-2.53-2.25-4.4a66,66,0,0,1-2.93-6.74,35.53,35.53,0,0,1-1.25-4.16,23.45,23.45,0,0,1-.64-4.65,19.8,19.8,0,0,1,.41-4.67,25.56,25.56,0,0,1,1.35-4.16,36.69,36.69,0,0,1,3.62-6.4c1.2-1.71,2.26-3,3-3.93.37-.45.67-.79.87-1s.32-.35.33-.33a14.76,14.76,0,0,1-1,1.48c-.7.93-1.71,2.28-2.86,4a38.7,38.7,0,0,0-3.49,6.38,26.36,26.36,0,0,0-1.29,4.07,19.39,19.39,0,0,0-.39,4.56,24,24,0,0,0,.62,4.54,36.7,36.7,0,0,0,1.21,4.12c.9,2.59,1.93,4.85,2.8,6.74l2.1,4.47.55,1.23A2.13,2.13,0,0,1,134.46,243.24Z"/><polygon class="cls-7" points="176.92 80.85 157.77 102.89 132.95 89.15 124.27 97.84 156.5 119.93 170.89 119.71 183.16 95.52 176.92 80.85"/><path class="cls-7" d="M169.92,97.12,180.58,142l35.75-3,4.6-35.31,9.57-15.07s-2.37-14.17-18.09-14.28l-2.55-6L191,69.91l-2.28,5.45s-15.51,1.11-15.15,15.19Z"/><g class="cls-11"><path d="M179,135.26a18.63,18.63,0,0,0,16-3.06,5.72,5.72,0,0,1,2.1-1.2,5.11,5.11,0,0,1,2.56.37,47.81,47.81,0,0,0,11.86,2.12,8.24,8.24,0,0,0,4.11-.55,3.24,3.24,0,0,0,1.91-3.39,108.67,108.67,0,0,0-18.6-5,25.58,25.58,0,0,0-9.94-.27c-3.25.73-6.29,2.67-9.15,4.55a4,4,0,0,0-1.82,1.88c-.57,1.66,1.1,3.38.76,5.1"/></g><path class="cls-7" d="M205.74,88c1,.9,14.31,23.71,14.31,23.71l-21.25,4.64-.73,10.47,20.89,3,9.39,1a12.08,12.08,0,0,0,10.89-4.69h0a12.09,12.09,0,0,0,1.5-12L229.9,86.5Z"/><path class="cls-6" d="M225.93,111.62c0,.14-6,1.31-13.5,2.62s-13.57,2.24-13.59,2.1,6-1.31,13.5-2.62S225.91,111.48,225.93,111.62Z"/><path class="cls-6" d="M220.9,112.46a7,7,0,0,1-.56-1.13L219,108.16c-1.13-2.69-2.67-6.41-4.34-10.53l-2.33-5.83a10.47,10.47,0,0,1-.92-5.09,5.12,5.12,0,0,1,1.53-3.13,3.53,3.53,0,0,1,.77-.56c.19-.09.3-.14.31-.12a7.44,7.44,0,0,0-.94.83,5.15,5.15,0,0,0-1.31,3,10.31,10.31,0,0,0,1,4.86l2.36,5.81c1.67,4.13,3.15,7.87,4.2,10.59.49,1.29.9,2.37,1.22,3.23A5.32,5.32,0,0,1,220.9,112.46Z"/><path class="cls-6" d="M231.8,130.91a6.65,6.65,0,0,1-1.34.05c-.86,0-2.11,0-3.64-.11-3.08-.16-7.31-.54-12-1.19s-8.84-1.37-11.86-1.9l-3.58-.64a6.74,6.74,0,0,1-1.31-.31,7.5,7.5,0,0,1,1.34.11c.85.09,2.08.26,3.6.48,3.05.43,7.24,1.1,11.88,1.74s8.85,1.09,11.91,1.34l3.63.28A7.87,7.87,0,0,1,231.8,130.91Z"/><path class="cls-6" d="M176.39,116.77a13.19,13.19,0,0,0-.56-3.8c-.32-1.14-.85-2.47-1.25-4a8.06,8.06,0,0,1-.28-2.54,10.25,10.25,0,0,1,.57-2.68,42,42,0,0,1,4.51-8.28l1.54-2.39a5.18,5.18,0,0,1,.6-.87,4.41,4.41,0,0,1-.42,1c-.31.6-.79,1.45-1.41,2.48a51.55,51.55,0,0,0-4.33,8.26,11,11,0,0,0-.55,2.54,7.46,7.46,0,0,0,.24,2.4c.36,1.53.85,2.88,1.14,4.06a9.82,9.82,0,0,1,.36,2.85,4.13,4.13,0,0,1-.08.78C176.44,116.69,176.41,116.78,176.39,116.77Z"/><path class="cls-6" d="M193.89,76.14a10.19,10.19,0,0,1-.07-3.26,11.05,11.05,0,0,1,.45-3.23,9.65,9.65,0,0,1,.07,3.26A10.42,10.42,0,0,1,193.89,76.14Z"/><path class="cls-6" d="M200.88,75.51a10.61,10.61,0,0,1-.76-3.14,10,10,0,0,1-.26-3.22,9.77,9.77,0,0,1,.77,3.14A10.25,10.25,0,0,1,200.88,75.51Z"/><path class="cls-6" d="M206.92,74.36a7.31,7.31,0,0,1-1-2.55,7.8,7.8,0,0,1-.52-2.7,7.31,7.31,0,0,1,1,2.55A7.36,7.36,0,0,1,206.92,74.36Z"/><g class="cls-11"><path d="M211.93,91.11c.11,6.84,1.33,12.51,1.44,19.36a4.31,4.31,0,0,0,.34,1.94c.76,1.48,2.5,1,4.16.94a15.73,15.73,0,0,0,2.54-.54,2.2,2.2,0,0,0-.21-1.51c-2.75-7.11-5.51-13.08-8.27-20.19"/></g><polygon class="cls-6" points="136.44 104.65 146.71 114.56 163.29 130.54 191.81 129.12 168.73 103.04 136.44 104.65"/><path class="cls-2" d="M141,104.36s-7.46,3.3.13,9,18,7.85,19.56,12a7,7,0,0,1-1,7l21.85-1s6.49-5.6,1.65-10.6-17.53-12.2-19-14.14,2.07-3.51,2.07-3.51Z"/><polygon class="cls-10" points="147.86 104.04 147 103.03 158.79 102.3 158.79 103.52 147.86 104.04"/><path class="cls-12" d="M162.21,107.37a13.83,13.83,0,0,1-2.93.44c-1.82.2-4.34.41-7.13.57s-5.32.21-7.16.17a12.63,12.63,0,0,1-3-.25,25.08,25.08,0,0,1,3-.12c1.83-.05,4.35-.17,7.13-.32l7.13-.41A20.91,20.91,0,0,1,162.21,107.37Z"/><path class="cls-12" d="M164.53,110.68a89.63,89.63,0,0,1-9.55.71,87.29,87.29,0,0,1-9.57.19,89.83,89.83,0,0,1,9.55-.71A87.34,87.34,0,0,1,164.53,110.68Z"/><path class="cls-12" d="M169.59,113.41a14,14,0,0,1-2.74.48c-1.7.23-4,.48-6.66.68s-5,.32-6.69.36a14.36,14.36,0,0,1-2.78-.06,15.05,15.05,0,0,1,2.76-.31l6.67-.51,6.66-.53A14.35,14.35,0,0,1,169.59,113.41Z"/><path class="cls-12" d="M173,117.14a64,64,0,0,1-8.17.91,66.19,66.19,0,0,1-8.21.4,64,64,0,0,1,8.17-.91A66.29,66.29,0,0,1,173,117.14Z"/><path class="cls-12" d="M178.16,120.5a59.82,59.82,0,0,1-7.9,1.1,62.89,62.89,0,0,1-8,.57,62,62,0,0,1,7.9-1.09A63,63,0,0,1,178.16,120.5Z"/><path class="cls-12" d="M180.56,125.25a10,10,0,0,1-2.37.4c-1.47.17-3.5.34-5.76.46s-4.29.14-5.77.12a10.17,10.17,0,0,1-2.4-.16,12,12,0,0,1,2.39-.21l5.76-.27,5.75-.31A12,12,0,0,1,180.56,125.25Z"/><path class="cls-13" d="M198.12,126.63l-5.42-.85-20.19.49s-1-.31-.14-.88c.45-.28,7.87-2.12,7.87-2.12l-10.66.86a14.06,14.06,0,0,1,4.07-4.86c2.58-1.77,7.58-2.9,7.58-2.9L178,113.92s10.54-1.38,11.9-.18c1,1,2,2,3,3.08l5.83-.06"/><path class="cls-14" d="M184,122.69c0,.15-3.18.25-7.09.63s-7,.86-7.08.71a8.21,8.21,0,0,1,2-.53,49.68,49.68,0,0,1,5-.7c2-.18,3.75-.25,5-.25A7.51,7.51,0,0,1,184,122.69Z"/><path class="cls-14" d="M183.34,120.05a35.56,35.56,0,0,1-6.06,1.13,37,37,0,0,1-6.13.6,37.81,37.81,0,0,1,6.06-1.12A37.13,37.13,0,0,1,183.34,120.05Z"/></g><g id="Character_1" data-name="Character 1"><polygon class="cls-10" points="115.54 64.36 114.63 67.34 129.1 67.34 128.33 65.31 115.54 64.36"/><polygon class="cls-6" points="129.56 73.82 129.32 73.62 114.4 73.62 114.17 73.82 129.56 73.82"/><path class="cls-6" d="M127.05,90.37l3.06-22.6h-16.5l3.07,22.6S123,91.28,127.05,90.37Z"/><path class="cls-10" d="M130.31,68.11H113.42v-.26a1.35,1.35,0,0,1,1.33-1.35H129a1.33,1.33,0,0,1,1.35,1.31v0h0Z"/><polygon class="cls-2" points="128.38 82.64 115.35 82.64 114.17 73.82 129.56 73.82 128.38 82.64"/><path class="cls-6" d="M123.74,79.65c.84-1.5,1.3-3.34-.38-4.4,0,0-1.61-1-3.37.9-1.37,1.51-2,3.27-.91,4.62C120.37,82.4,122.85,81.15,123.74,79.65Zm-2.63-.24a3.54,3.54,0,0,0-1.41,1.67c-.16-1.08.3-1.67,1.88-2.9a4,4,0,0,0,1.65-2.73c.79,2-1,3.18-2.17,4Z"/><polygon class="cls-6" points="115.35 64.99 118.17 65.4 118.17 65.97 115.05 65.97 115.35 64.99"/><path class="cls-5" d="M120.36,79.86s-24.22,24.36-26.37,25c0,0-7.35-14.32-8-14.84L71.86,98l8.28,17.76a13.19,13.19,0,0,0,22.41,3.84l23.8-28.06,4.8-5.32a12.35,12.35,0,0,0,1.9-4.85,8.63,8.63,0,0,0-.2-3.24,3.27,3.27,0,0,0-.13-2.51,1.9,1.9,0,0,0-1.3-.86c1-2.6-1.8-3.88-3.23-1.73"/><path class="cls-5" d="M119.47,80.76a5.61,5.61,0,0,0-2.19-3,6.07,6.07,0,0,0-3.36-1.32s.29-1.74,3.17-1.36,3.64,2.24,7.19,1.36l.77,3.31Z"/><path class="cls-15" d="M131.64,74.35a3.43,3.43,0,0,1-1.23,2,4.48,4.48,0,0,1-2,1.28c0-.12.78-.73,1.66-1.64S131.51,74.27,131.64,74.35Z"/><path class="cls-15" d="M132.74,78.09c.13.06-.08.79-.68,1.5a2.36,2.36,0,0,1-1.35.94c-.08-.06.41-.62,1-1.27S132.61,78,132.74,78.09Z"/><path class="cls-15" d="M92,114.67a22.83,22.83,0,0,1,1.8-10.32c.14,0-.49,2.3-1,5.14S92.12,114.67,92,114.67Z"/><polygon class="cls-10" points="4.89 66.07 3.98 69.05 18.44 69.05 17.68 67.02 4.89 66.07"/><polygon class="cls-6" points="18.91 75.52 18.67 75.33 3.75 75.33 3.51 75.52 18.91 75.52"/><path class="cls-6" d="M16.4,92.07l3.06-22.6H3l3,22.6S12.32,93,16.4,92.07Z"/><path class="cls-10" d="M19.66,69.82H2.74v-.27A1.35,1.35,0,0,1,4.07,68.2H18.3a1.34,1.34,0,0,1,1.36,1.34h0Z"/><polygon class="cls-2" points="17.73 84.35 4.69 84.35 3.51 75.52 18.91 75.52 17.73 84.35"/><path class="cls-6" d="M13,81.35c.85-1.49,1.31-3.33-.38-4.4,0,0-1.6-1-3.37.91-1.36,1.5-2,3.26-.9,4.61C9.74,84.11,12.19,82.85,13,81.35Zm-2.62-.23A3.58,3.58,0,0,0,9,82.79c-.16-1.08.3-1.68,1.87-2.9a4.11,4.11,0,0,0,1.66-2.74c.84,2-1,3.19-2.12,4Z"/><polygon class="cls-6" points="4.7 66.69 7.51 67.1 7.51 67.68 4.4 67.68 4.7 66.69"/><path class="cls-5" d="M4.89,125.79S2,122.4,2.77,98.2l-.18-13,11.28-3.39,7.78,43.74Z"/><path class="cls-5" d="M13.48,82.64a7.35,7.35,0,0,1,2.46-3.4,6.29,6.29,0,0,1,3.36-1.32s-.29-1.74-3.17-1.36-3.64,2.24-7.19,1.36L4.83,85.27Z"/><path class="cls-5" d="M9.74,78.52c-.17-.46-6-5.13-6-5.13s-3,.12-1.88,2.85A2.46,2.46,0,0,0,.48,79.43a2,2,0,0,0,.24.46s-1.32,1-.39,3.6a25.28,25.28,0,0,0,2.54,5Z"/><path class="cls-5" d="M11.32,104.37,4.74,120a8.89,8.89,0,0,0,5.75,11.15h0a8.88,8.88,0,0,0,11.14-5.6l5.26-15.45Z"/><path class="cls-15" d="M5.35,118.76a8.61,8.61,0,0,1,.53-2.17c.41-1.32,1-3.12,1.82-5.07s1.6-3.69,2.22-4.91a8.78,8.78,0,0,1,1.13-1.94,11.22,11.22,0,0,1-.79,2.09c-.54,1.27-1.29,3-2.07,4.95s-1.47,3.72-2,5A10.77,10.77,0,0,1,5.35,118.76Z"/><path class="cls-15" d="M10,107.08c-.76.33-1.51.69-2.24,1.09-1.12.78-1.7,1.75-1.83,1.68s.27-1.26,1.54-2.11A3,3,0,0,1,10,107.08Z"/><path class="cls-6" d="M37.82,23.36c.65,1.88-1.58,3.49-3.52,3.93S30,28,29.12,29.8c-.78,1.54,0,3.51-.7,5.09-1.33,3-6.73,2.37-7.79,5.49-.72,2.13,1.28,4.34,1,6.58-.21,1.93-2,3.24-3.53,4.41s-3.19,2.79-2.94,4.71c.28,2.23,3,3.77,2.75,6s-3.21,3.22-3.63,5.39C13.77,70,17,71.7,18,74.1c.79,1.84.3,4.21,1.63,5.71s3.8,1.22,5.81.8l20-4.24c-1.35-3.17-.08-6.87,1.85-9.72s4.5-5.25,6.15-8.27,2.21-7,0-9.72"/><path class="cls-6" d="M73,39.36a24.29,24.29,0,0,0-.66-3.16,3.05,3.05,0,0,0-.8-1.29c-.39-.38-.91-.14-1.23.4a9.66,9.66,0,0,0,0,8.11c.32.54.84.78,1.23.4a2.88,2.88,0,0,0,.8-1.3A21.11,21.11,0,0,0,73,39.36a2.43,2.43,0,0,1,.07.89,8.53,8.53,0,0,1-.38,2.4,3.53,3.53,0,0,1-.87,1.51,1.07,1.07,0,0,1-1.07.24,1.76,1.76,0,0,1-.84-.71,9.74,9.74,0,0,1,0-8.65,1.84,1.84,0,0,1,.84-.72,1.13,1.13,0,0,1,1.07.25,3.53,3.53,0,0,1,.87,1.51,8.53,8.53,0,0,1,.38,2.4A2.37,2.37,0,0,1,73,39.36Z"/><path class="cls-6" d="M40.37,57.8c-3.63-6.12-4.63-14.27-5.58-21.32-.43-3.32-1.19-8,1.15-10.12,2.5-2.22,2.74-5.65,5.61-7.37A8.84,8.84,0,0,1,51,19.1"/><path class="cls-5" d="M50.4,79.47h0a9.82,9.82,0,0,0,10.57-9V70.1c.22-5.35.41-10.75.41-10.75s8.1-.74,8.71-8.75.4-26.51.4-26.51h0a27.91,27.91,0,0,0-28.23,1.73L42.74,54V69.16C42.74,74.28,45.32,79.06,50.4,79.47Z"/><path class="cls-6" d="M62.15,40.79a4.11,4.11,0,0,0-5.47-1.22,4.68,4.68,0,0,0-1.57,5.82,6.16,6.16,0,0,0,3.92,3,3.08,3.08,0,0,1,2.41,3.32c-.24,2-3.59,2.76-5.11,4.42-2.35,2.58-7.51,3.66-11,4.06s-3,.43-5-2.38a10.83,10.83,0,0,1-1.94-6.52q-.15-8.86-.31-17.72a25.11,25.11,0,0,1,.42-6.36A8.57,8.57,0,0,1,41.91,22c2-1.28,4.43-1.38,6.65-2.1,2.78-.88,5.14-2.72,7.74-4s5.79-2.11,8.39-.79c1.87,1,3.12,2.82,4.94,3.86,2.58,1.48,6.11,1.15,7.36,5a6.46,6.46,0,0,1-.06,4c-1.77,5.18-8.2,7.25-12.82,5-.09.88.77,2.83-.16,5.61-.3.88-.41,2.23-1.8,2.26"/><path class="cls-15" d="M60.74,45.78a.7.7,0,0,1-.12.35,1.18,1.18,0,0,1-.89.44,2.2,2.2,0,0,1-2.07-2.21,2.31,2.31,0,0,1,.59-1.7,2.5,2.5,0,0,1,1.26-.72c.82-.17,1.3.14,1.26.19a8.92,8.92,0,0,0-1.15.2,2,2,0,0,0-1.39,2,1.88,1.88,0,0,0,1.5,1.84C60.37,46.21,60.65,45.73,60.74,45.78Z"/><path class="cls-6" d="M73,39a29.06,29.06,0,0,1-5.39,1.15,29.69,29.69,0,0,1-5.48.63,29.23,29.23,0,0,1,5.39-1.15A29.79,29.79,0,0,1,73,39Z"/><path class="cls-6" d="M41,65.62a2.32,2.32,0,0,0,2.78,1.11,6.57,6.57,0,0,0,2.7-1.82A7.09,7.09,0,0,1,49.16,63c2.13-.65,4.75.78,6.55-.55,1.64-1.21,1.42-3.94,3-5.19.85-.66,2-.74,2.91-1.38,1.63-1.21,1.36-3.89,0-5.38s-3.42-2.09-5.36-2.63L39,55.25Z"/><path class="cls-10" d="M61.47,34.49l-.14.11a2.55,2.55,0,0,1-.46.25,9,9,0,0,1-1.88.68,21.94,21.94,0,0,1-3.13.5,31.73,31.73,0,0,0-4.11.57,7.78,7.78,0,0,0-4.26,2.32c-1.16,1.35-1.59,3.29-2.49,5.16a6.43,6.43,0,0,1-2,2.53,10.49,10.49,0,0,1-3,1.48c-2.11.7-4.44,1.13-6.2,2.62a4.51,4.51,0,0,0-1.59,2.82,18.74,18.74,0,0,0,0,3.35,5.48,5.48,0,0,1-3,5.54C27.41,63.48,25.52,64,24,65a6.17,6.17,0,0,0-1.85,1.71,4.53,4.53,0,0,0-.7,2.2A14.88,14.88,0,0,0,22,73a10.59,10.59,0,0,1,.28,3.17,4.46,4.46,0,0,1-.57,1.92,2.1,2.1,0,0,1-.43.55,4.8,4.8,0,0,0,.8-2.49,10.66,10.66,0,0,0-.37-3.08,15,15,0,0,1-.64-4.16,4.82,4.82,0,0,1,.73-2.39,6.46,6.46,0,0,1,2-1.86c1.57-1,3.46-1.6,5.18-2.63a4.91,4.91,0,0,0,2.66-5,19.76,19.76,0,0,1,0-3.44,5,5,0,0,1,1.77-3.13c1.91-1.61,4.32-2,6.38-2.72a9.75,9.75,0,0,0,2.91-1.52,6.29,6.29,0,0,0,1.88-2.34c.88-1.79,1.33-3.78,2.59-5.23a8.18,8.18,0,0,1,4.5-2.4,30.81,30.81,0,0,1,4.17-.5,23,23,0,0,0,3.11-.4A14.68,14.68,0,0,0,61.47,34.49Z"/><path class="cls-10" d="M56.83,37.37a16.17,16.17,0,0,0-1.68.24,7.6,7.6,0,0,0-3.86,2.3,7.09,7.09,0,0,0-1.55,2.7,11.7,11.7,0,0,0-.31,3.59,9.49,9.49,0,0,1-.6,4.12A4.17,4.17,0,0,1,47.34,52a18.17,18.17,0,0,1-2,1.06,5.2,5.2,0,0,0-1.71,1.22A3,3,0,0,0,43,56.11c-.1,1.34.19,2.83-.46,4.11a6.7,6.7,0,0,1-2.68,2.65c-1,.61-2,1-2.83,1.55a7.2,7.2,0,0,0-2,1.64,4.58,4.58,0,0,0-.86,1.74,4.22,4.22,0,0,0,0,1.66,1.15,1.15,0,0,1-.17-.41,3.12,3.12,0,0,1-.06-1.29,4.47,4.47,0,0,1,.84-1.87,7.24,7.24,0,0,1,2-1.78c.84-.54,1.82-1,2.79-1.6A6.31,6.31,0,0,0,42,60c.58-1.11.31-2.48.39-3.94A3.57,3.57,0,0,1,43.24,54a5.74,5.74,0,0,1,1.88-1.36c1.35-.65,2.71-1.26,3.26-2.51a8.82,8.82,0,0,0,.62-3.9,12.59,12.59,0,0,1,.38-3.72A7.51,7.51,0,0,1,51,39.69a7.63,7.63,0,0,1,4.09-2.25,5.49,5.49,0,0,1,1.28-.1A1.18,1.18,0,0,1,56.83,37.37Z"/><path class="cls-2" d="M29.27,137.72l5.58-16.21L31,101.84l-3,8.68L9.22,103.63S21.37,79.35,22,78.07c5.55-11.66,20.34-11.66,20.34-11.66l18.83.49a20.54,20.54,0,0,1,16.18,6.28C82.72,78.61,95,102.37,95,102.37l-19.8,6.17-3.92-7.32,1.14,15.46,3.9,23.56Z"/><path class="cls-7" d="M76.59,72.5c0,.15-11.43.26-25.54.26S25.5,72.65,25.5,72.5s11.44-.26,25.55-.26S76.59,72.36,76.59,72.5Z"/><path class="cls-6" d="M68.59,72c0,.06-.53.08-1.38.43A6.39,6.39,0,0,0,64.34,75a8.56,8.56,0,0,0-1.17,5.55,21.81,21.81,0,0,0,2.22,6.8c2.19,4.67,4.12,8.94,5.5,12,.64,1.47,1.18,2.7,1.61,3.67A6.72,6.72,0,0,1,73,104.4a7.65,7.65,0,0,1-.72-1.28l-1.76-3.6c-1.48-3-3.46-7.28-5.66-12a21.62,21.62,0,0,1-2.23-7A8.81,8.81,0,0,1,64,74.69a6.38,6.38,0,0,1,3.13-2.55,4,4,0,0,1,1.08-.24C68.46,71.92,68.59,71.92,68.59,72Z"/><path class="cls-6" d="M35,122.4c-.16,0-2.41-10.18-5-22.8s-4.6-22.87-4.44-22.91,2.41,10.17,5,22.8S35.19,122.36,35,122.4Z"/><path class="cls-6" d="M63.33,107.09a4.43,4.43,0,0,1,0,1.36,13.16,13.16,0,0,1-.91,3.59,17.47,17.47,0,0,1-8.23,8.78,24.35,24.35,0,0,1-11.88,2.38,28.34,28.34,0,0,1-3.67-.37,6,6,0,0,1-1.31-.31c0-.11,1.91.25,5,.28a25.34,25.34,0,0,0,11.61-2.49,17.67,17.67,0,0,0,8.12-8.43A19.93,19.93,0,0,0,63.33,107.09Z"/><path class="cls-7" d="M83,81c0,.15-14,.26-31.23.26S20.52,81.14,20.52,81s14-.26,31.23-.26S83,80.81,83,81Z"/><path class="cls-7" d="M87.6,88.81c0,.15-15.83.26-35.34.26S16.92,89,16.92,88.81s15.82-.26,35.34-.26S87.6,88.67,87.6,88.81Z"/><path class="cls-7" d="M90.74,96c0,.15-17.38.26-38.81.26s-38.8-.11-38.8-.26,17.37-.26,38.8-.26S90.74,95.87,90.74,96Z"/><path class="cls-7" d="M29.61,104.81a15.84,15.84,0,0,1-2.7-.73c-1.65-.5-3.93-1.17-6.46-1.85s-4.86-1.21-6.53-1.6a15.87,15.87,0,0,1-2.71-.7,14.38,14.38,0,0,1,2.78.34c1.7.3,4,.79,6.59,1.46s4.82,1.41,6.45,2A13.28,13.28,0,0,1,29.61,104.81Z"/><path class="cls-7" d="M71.68,103.53a8.55,8.55,0,0,1-1.6,0H65.71l-14.39-.14H32.56a8.57,8.57,0,0,1-1.6-.06,9.61,9.61,0,0,1,1.6-.14c1,0,2.52-.11,4.36-.17,3.69-.1,8.78-.18,14.41-.16s10.71.16,14.39.31c1.85.07,3.34.14,4.36.21A10.7,10.7,0,0,1,71.68,103.53Z"/><path class="cls-7" d="M93.74,99.93c0-.05.09,0-.09,0l-.61.12-2.25.39c-1.9.32-4.53.75-7.43,1.19s-5.55.82-7.46,1.07a17.91,17.91,0,0,1-3.11.3,17.75,17.75,0,0,1,3.06-.66c1.89-.35,4.52-.78,7.43-1.23s5.54-.81,7.46-1c1-.12,1.73-.2,2.27-.23h.81C93.89,99.88,93.74,99.93,93.74,99.93Z"/><path class="cls-7" d="M62.44,110.51c0,.14-6.65.26-14.85.26s-14.85-.12-14.85-.26,6.65-.26,14.85-.26S62.44,110.36,62.44,110.51Z"/><path class="cls-7" d="M72,112.91a25.29,25.29,0,0,1-5.07.26,25.33,25.33,0,0,1-5.07-.26,24.61,24.61,0,0,1,5.07-.26A24.54,24.54,0,0,1,72,112.91Z"/><path class="cls-7" d="M56,119.22a18.18,18.18,0,0,1-3.13.24c-1.93.06-4.6.09-7.55,0s-5.62-.22-7.55-.37a17.17,17.17,0,0,1-3.11-.38,18.18,18.18,0,0,1,3.13,0l7.54.22,7.54.13A21.81,21.81,0,0,1,56,119.22Z"/><path class="cls-7" d="M72.84,121.35a98.72,98.72,0,0,1-10.18.26,98.86,98.86,0,0,1-10.18-.26,101.76,101.76,0,0,1,10.18-.26A101.69,101.69,0,0,1,72.84,121.35Z"/><path class="cls-7" d="M74.37,128.73a10,10,0,0,1-1.64.07H68.27c-3.77,0-9-.14-14.73-.32s-11-.41-14.72-.65c-1.88-.12-3.4-.22-4.45-.32a10,10,0,0,1-1.63-.22,11.22,11.22,0,0,1,1.64,0l4.46.17,14.72.49,14.72.47,4.46.18A9.86,9.86,0,0,1,74.37,128.73Z"/><path class="cls-7" d="M75.74,137.1a13.37,13.37,0,0,1-1.79,0l-4.85-.19c-4.09-.18-9.74-.47-16-.81s-11.9-.7-16-1l-4.85-.35a10.56,10.56,0,0,1-1.77-.21,13.07,13.07,0,0,1,1.77,0l4.85.19c4.09.18,9.75.47,16,.82s11.9.69,16,1l4.85.36A10.77,10.77,0,0,1,75.74,137.1Z"/><g class="cls-16"><path d="M36.43,121.14c3.53,2.64,8.74,1.76,13.1,1A19,19,0,0,0,60.94,116a7.67,7.67,0,0,0,2.11-5.4c-.17-2-1.92-3.88-3.88-3.64-2.26.27-3.35,2.8-4.43,4.8a17.52,17.52,0,0,1-18.24,8.56S35.8,120.66,36.43,121.14Z"/></g><g class="cls-16"><path d="M63.33,82.78c1.1,8.89,2.54,16.17,4.39,24.93.92,4.31,2,8.8,5,12.05L71,100.07Z"/></g><path class="cls-6" d="M38.11,64.23a6.38,6.38,0,0,0-3.67,8.24,6.07,6.07,0,0,0,.67,1.29,3.19,3.19,0,0,1,.82,1.77c-.09,1.59-2.64,1.63-3.45,3a2.45,2.45,0,0,0,.69,2.86,20.16,20.16,0,0,0,2.63,1.77,3.2,3.2,0,0,1,1.62,2.57c.89,0,1.42-1.11,1.28-2a8.43,8.43,0,0,0-1.09-2.43,2.58,2.58,0,0,1-.12-2.55c.59-.83,1.78-.87,2.73-1.23a3.8,3.8,0,0,0,2-4.89C41.65,71.34,40.31,70,41,68.79a3.83,3.83,0,0,1,1.88-1.34,4.9,4.9,0,0,0,1.9-6.66,4.85,4.85,0,0,0-1.28-1.5"/><polygon class="cls-5" points="19.94 216.34 14.36 319.7 31.4 323.82 44.18 218.52 19.94 216.34"/><polygon class="cls-7" points="13.85 319.3 10.95 332.07 30.56 332.07 31.4 323.76 13.85 319.3"/><path class="cls-6" d="M31,330.21a12.93,12.93,0,0,1-2.85.17c-1.77,0-4.21,0-6.9-.13L14.33,330a16,16,0,0,1-2.85-.23,14.45,14.45,0,0,1,2.86-.16c1.77,0,4.2,0,6.89.14l6.88.28A17.4,17.4,0,0,1,31,330.21Z"/><path class="cls-6" d="M22.66,321.79a30.72,30.72,0,0,1-.55,8.23,32,32,0,0,1,.56-8.23Z"/><g class="cls-8"><polyline class="cls-3" points="10.95 332.07 30.56 332.07 30.75 330.22 11.3 329.73 10.95 331.85"/></g><polygon class="cls-5" points="81.61 295.53 85.75 326.7 100.83 325.65 97.66 297.07 81.61 295.53"/><path class="cls-7" d="M101,322.27h0s17,5.73,17.23,8.82L85.81,332l-.29-8.47,1.2.24A24.12,24.12,0,0,0,101,322.27Z"/><g class="cls-8"><path class="cls-3" d="M89.31,325a1.32,1.32,0,0,0-.87,1.53,1.26,1.26,0,0,0,1.51.88,1.39,1.39,0,0,0,.92-1.63,1.33,1.33,0,0,0-1.68-.74"/></g><g class="cls-8"><path class="cls-3" d="M85.81,332v-2.63l31.07.08s1.46.58,1.33,1.61Z"/></g><path class="cls-6" d="M101.51,322.09c0,.16-.79.25-1.55.78s-1.16,1.21-1.31,1.15.06-1,1-1.6A2,2,0,0,1,101.51,322.09Z"/><path class="cls-6" d="M105,323.4c0,.15-.64.44-1.16,1.12s-.65,1.4-.81,1.4-.28-.9.38-1.74S104.94,323.24,105,323.4Z"/><path class="cls-6" d="M107,327.41c-.14,0-.39-.75,0-1.63s1.11-1.24,1.19-1.11-.38.6-.68,1.33S107.16,327.39,107,327.41Z"/><path class="cls-6" d="M101.15,322a3.18,3.18,0,0,1-1.62,0,7.9,7.9,0,0,1-2.66-.94,2.23,2.23,0,0,1-.5-.37.7.7,0,0,1-.1-.84.87.87,0,0,1,.69-.38,2.07,2.07,0,0,1,.61.06,6.85,6.85,0,0,1,1,.32,5.68,5.68,0,0,1,1.52.94,3.25,3.25,0,0,1,1,1.29,13.09,13.09,0,0,0-1.23-1,6.28,6.28,0,0,0-1.47-.78,7.7,7.7,0,0,0-.94-.26c-.35-.08-.64-.07-.72.08s0,.09,0,.19a1.9,1.9,0,0,0,.37.26,7.43,7.43,0,0,0,.9.43,9.06,9.06,0,0,0,1.59.55A10.68,10.68,0,0,1,101.15,322Z"/><path class="cls-6" d="M101,322.24a2.6,2.6,0,0,1-.47-1.55,5.15,5.15,0,0,1,.17-1.79,6.09,6.09,0,0,1,.39-1,1.35,1.35,0,0,1,1-.85.75.75,0,0,1,.69.44,2.11,2.11,0,0,1,.18.59,3.32,3.32,0,0,1,0,1.09,3.71,3.71,0,0,1-.64,1.7c-.61.86-1.26,1.06-1.28,1a9.68,9.68,0,0,0,1-1.22,3.64,3.64,0,0,0,.47-1.54,3.72,3.72,0,0,0-.06-.94c-.06-.34-.2-.61-.32-.57a1.17,1.17,0,0,0-.56.54,5.76,5.76,0,0,0-.37.89,5.68,5.68,0,0,0-.27,1.63A5.54,5.54,0,0,0,101,322.24Z"/><path class="cls-7" d="M29.27,137.72s-12,20-12,31.94l-3,145.6,20.69,3L49.47,176S82.61,320.14,83.74,320.14s18.32-3.09,18.32-3.09L76,138.36Z"/><path class="cls-6" d="M62.65,179.22c0,.16-6.34-1.25-14.07-3.14s-14-3.54-13.93-3.69,6.34,1.25,14.07,3.14S62.74,179.07,62.65,179.22Z"/><path class="cls-6" d="M37,173.57a2.29,2.29,0,0,1,0,.37L36.74,175c-.16,1-.38,2.34-.66,4.1-.58,3.56-1.39,8.72-2.35,15.1-1.93,12.76-4.32,30.43-6.33,50s-3.24,37.38-3.94,50.27c-.35,6.44-.6,11.66-.75,15.27l-.2,4.15V315a2.16,2.16,0,0,1,0,.36,2.29,2.29,0,0,1,0-.37V313.9c0-1,0-2.37.1-4.15.08-3.61.28-8.83.58-15.28.61-12.89,1.79-30.7,3.79-50.3s4.46-37.27,6.48-50c1-6.38,1.88-11.53,2.52-15.08.33-1.75.58-3.13.75-4.09l.21-1.06A2.38,2.38,0,0,1,37,173.57Z"/><path class="cls-6" d="M66.87,176c.14,0,5.91,31.93,12.88,71.36s12.5,71.44,12.36,71.46-5.9-31.92-12.88-71.37S66.74,176,66.87,176Z"/><path class="cls-10" d="M15.49,55.59a4.12,4.12,0,0,1,.73.88,11.41,11.41,0,0,1,1.52,2.73,5.48,5.48,0,0,1,.35,2.16,4.62,4.62,0,0,1-.83,2.4c-.49.75-1.12,1.41-1.68,2.14a4.42,4.42,0,0,0-1,2.48A5.15,5.15,0,0,0,15.34,71a25.46,25.46,0,0,0,1.52,2.21,9.85,9.85,0,0,1,1.26,2.15,5.45,5.45,0,0,1,.41,2.15,8.18,8.18,0,0,0,.15,1.71,2.56,2.56,0,0,0,.61,1.09,2,2,0,0,0,1,.5,1.17,1.17,0,0,1-1.09-.35,2.57,2.57,0,0,1-.75-1.16,7.07,7.07,0,0,1-.25-1.77,5.49,5.49,0,0,0-.44-2,10.63,10.63,0,0,0-1.25-2,21.92,21.92,0,0,1-1.57-2.24,5.38,5.38,0,0,1-.84-2.89,4.92,4.92,0,0,1,1.17-2.77c.59-.76,1.21-1.4,1.68-2.1a4.48,4.48,0,0,0,.53-4.18,13.79,13.79,0,0,0-1.33-2.73A5.31,5.31,0,0,1,15.49,55.59Z"/></g><g id="Plant"><rect class="cls-6" x="584.95" y="283.31" width="57.85" height="7.95"/><path class="cls-6" d="M642.91,291.36h-58v-8.15h58Zm-57.86-.2h57.69v-7.75H585.05Z"/><polygon class="cls-6" points="590.32 288.61 598.65 329.69 629.46 329.69 637.51 291.26 590.32 288.61"/><polygon class="cls-6" points="590.32 325.81 594.76 331.92 632.21 331.92 637.51 325.81 590.32 325.81"/><path class="cls-6" d="M611.74,289.81c-.12,0-.26-19-.33-42.51s0-42.51.09-42.51.26,19,.33,42.51S611.82,289.81,611.74,289.81Z"/><path class="cls-6" d="M624.6,242.18a1.79,1.79,0,0,1-.16.44c-.13.33-.31.73-.52,1.23l-.37.89-.39,1.08c-.14.39-.29.8-.44,1.24s-.28.92-.43,1.41a57.71,57.71,0,0,0-1.62,7.09,87.74,87.74,0,0,0-.9,8.86,119.73,119.73,0,0,0,.46,16.18c.19,2.06.37,3.73.51,4.88.06.55.11,1,.15,1.33a1.85,1.85,0,0,1,0,.47,2.42,2.42,0,0,1-.1-.45c-.06-.35-.14-.79-.23-1.32-.18-1.15-.41-2.82-.64-4.88a106,106,0,0,1-.58-16.23,80.64,80.64,0,0,1,.94-8.9,54.11,54.11,0,0,1,1.71-7.11c.16-.5.29-1,.46-1.41l.48-1.24.42-1.07c.14-.33.28-.62.41-.88.24-.49.43-.89.59-1.2S624.58,242.17,624.6,242.18Z"/><path class="cls-6" d="M623.12,226.79a4.44,4.44,0,0,1-.19.62l-.6,1.77c-.13.39-.28.82-.44,1.28s-.3,1-.47,1.54c-.34,1.1-.73,2.35-1.08,3.76-.18.7-.37,1.43-.58,2.2s-.35,1.57-.54,2.4c-.4,1.66-.69,3.46-1.07,5.34-.63,3.78-1.2,8-1.58,12.37s-.53,8.62-.58,12.46,0,7.29.19,10.19c0,1.45.14,2.76.22,3.91s.14,2.14.21,2.95.11,1.4.14,1.86a3.53,3.53,0,0,1,0,.65,4.49,4.49,0,0,1-.1-.64c0-.46-.13-1.08-.22-1.86s-.19-1.8-.28-3-.21-2.46-.28-3.91c-.2-2.9-.28-6.36-.28-10.2s.18-8.07.55-12.5,1-8.61,1.62-12.4c.38-1.88.69-3.68,1.11-5.34.19-.83.38-1.64.56-2.41s.42-1.5.61-2.2c.37-1.41.78-2.66,1.14-3.75.18-.55.35-1.06.5-1.53s.33-.89.48-1.27l.68-1.75A3.45,3.45,0,0,1,623.12,226.79Z"/><path class="cls-6" d="M608.05,293.18a.89.89,0,0,1,0-.23,2.35,2.35,0,0,0-.06-.65c0-.61-.1-1.45-.17-2.52-.14-2.22-.33-5.38-.58-9.27-.5-7.83-1.23-18.64-2.54-30.53-.68-5.95-1.46-11.59-2.27-16.71-.43-2.56-.82-5-1.26-7.25s-.85-4.37-1.25-6.29-.81-3.64-1.15-5.16-.66-2.82-.93-3.89-.46-1.86-.6-2.45l-.15-.64v-.22a1.72,1.72,0,0,1,.07.21l.19.63.68,2.43c.29,1.06.64,2.36,1,3.87s.8,3.24,1.2,5.16.88,4,1.3,6.29.86,4.69,1.31,7.25c.83,5.12,1.62,10.77,2.3,16.72,1.31,11.91,2,22.73,2.42,30.56.22,3.92.36,7.09.45,9.28,0,1.07.07,1.92.1,2.53v.7A.64.64,0,0,1,608.05,293.18Z"/><path class="cls-7" d="M611.24,214c-.25-2.69-3-4.73-5.69-4.76a9,9,0,0,0-6.89,3.74,21.94,21.94,0,0,0-3.31,7.36,49.94,49.94,0,0,0-2,19.59,29.61,29.61,0,0,0,8.15,17.67,2.59,2.59,0,0,0,3.52,1,2.41,2.41,0,0,0,.77-.65A43.86,43.86,0,0,0,620,224.61c-.08-2.5-.4-5.1-1.79-7.17s-4.6-4.29-7-3.46"/><path class="cls-7" d="M591,192.35q-1.92,3.45-3.82,6.9c-.09.16-.2.34-.39.36s-.35-.17-.46-.34l-10.08-15.48,2.32-1.31Z"/><g class="cls-16"><path d="M591,192.35q-1.92,3.45-3.82,6.9c-.09.16-.2.34-.39.36s-.35-.17-.46-.34l-10.08-15.48,2.32-1.31Z"/></g><path class="cls-7" d="M611.47,204.79l-34.4-20.29a1.64,1.64,0,0,1-.83-.85c-.14-.51.24-1,.61-1.38a23.71,23.71,0,0,1,18.38-7.22,21,21,0,0,1,16.62,10.34c3.32,5.93,3.43,13.77-.38,19.4"/><path class="cls-6" d="M582,178a1.17,1.17,0,0,1,.45-.06c.3,0,.74-.07,1.3-.06a24.57,24.57,0,0,1,4.77.38,27.73,27.73,0,0,1,22.27,20.14,26,26,0,0,1,.85,4.71c.06.57.05,1,.07,1.3a3.53,3.53,0,0,1,0,.46s-.08-.62-.22-1.74a28.24,28.24,0,0,0-23-24.59,29.87,29.87,0,0,0-4.72-.5A17.43,17.43,0,0,1,582,178Z"/><path class="cls-6" d="M606.81,190.78a7.74,7.74,0,0,1-1.73.79c-1.1.44-2.63,1-4.35,1.53s-3.28,1-4.42,1.26a8.56,8.56,0,0,1-1.88.36,9,9,0,0,1,1.8-.64l4.38-1.37L605,191.3A10.39,10.39,0,0,1,606.81,190.78Z"/><path class="cls-6" d="M601.4,176.23a24.2,24.2,0,0,1,.19,7.69,25.94,25.94,0,0,1-.2-3.84A23.57,23.57,0,0,1,601.4,176.23Z"/><path class="cls-6" d="M576.74,184.11a16.14,16.14,0,0,1,2.5-.88c1.56-.48,3.74-1.09,6.17-1.68s4.64-1,6.25-1.31a16.51,16.51,0,0,1,2.62-.36,17.14,17.14,0,0,1-2.56.65c-1.6.35-3.8.84-6.22,1.43s-4.6,1.14-6.18,1.55A18.93,18.93,0,0,1,576.74,184.11Z"/><path class="cls-7" d="M595.61,207.56c-3-2.24-6.09-2.68-9.8-2.54a30,30,0,0,0-10.72,2.77c-5.8,2.54-11.25,6.28-14.72,11.58s-4.67,12.32-2.07,18.09a2.67,2.67,0,0,0,1.17,1.43,2.82,2.82,0,0,0,1.94-.15c6.6-2.15,13.24-4.32,19.31-7.69s11.59-8.06,14.84-14.19a12,12,0,0,0,1.56-4.7,5.89,5.89,0,0,0-1.51-4.6"/><path class="cls-6" d="M595.67,206.86a2.55,2.55,0,0,1-.48.2l-1.38.47-1,.34-1.17.45c-.83.34-1.8.68-2.82,1.17l-1.62.74c-.56.26-1.12.58-1.71.88-1.2.59-2.41,1.34-3.7,2.1A58.85,58.85,0,0,0,567.24,226c-.92,1.18-1.82,2.29-2.55,3.4-.38.55-.77,1.06-1.09,1.59s-.64,1-.94,1.51c-.62.94-1.08,1.86-1.52,2.65-.22.39-.43.76-.6,1.1s-.32.66-.46,1l-.65,1.31a2.46,2.46,0,0,1-.25.45,2,2,0,0,1,.18-.48l.58-1.35c.13-.29.27-.62.42-1a8.5,8.5,0,0,1,.58-1.12c.42-.8.86-1.73,1.47-2.69l.92-1.54c.32-.53.7-1,1.08-1.61.72-1.12,1.62-2.24,2.53-3.44a56.76,56.76,0,0,1,14.65-12.89c1.3-.75,2.53-1.5,3.74-2.08.6-.29,1.17-.61,1.73-.86l1.64-.71a26.9,26.9,0,0,1,2.86-1.12c.43-.16.82-.31,1.19-.43l1-.3,1.41-.4A4.77,4.77,0,0,1,595.67,206.86Z"/><path class="cls-6" d="M572.56,219.38a137.7,137.7,0,0,1-14.51,4.24A136,136,0,0,1,572.56,219.38Z"/><path class="cls-6" d="M572.26,235.26a11.21,11.21,0,0,1-.16-2.24V227.6c0-2.11.17-4,.28-5.41a11.74,11.74,0,0,1,.36-2.2,12,12,0,0,1,0,2.24c0,1.52-.11,3.37-.17,5.41s-.1,3.89-.14,5.41A12.58,12.58,0,0,1,572.26,235.26Z"/><path class="cls-6" d="M585.86,228.33c-.11,0-.47-3.89-.8-8.7s-.51-8.71-.4-8.72.47,3.88.81,8.69A84.86,84.86,0,0,1,585.86,228.33Z"/><path class="cls-6" d="M568.93,210.53a12.75,12.75,0,0,1,2.31-.07c1.42,0,3.38,0,5.55.12s4.13.16,5.55.25a11.87,11.87,0,0,1,2.3.22,11.88,11.88,0,0,1-2.31.07c-1.42,0-3.38-.05-5.55-.12s-4.14-.16-5.56-.25A11.77,11.77,0,0,1,568.93,210.53Z"/><path class="cls-6" d="M602.93,259.39a3.69,3.69,0,0,1,0-.47,10.17,10.17,0,0,0-.06-1.35c0-1.18-.06-2.88,0-5s.18-4.6.43-7.37.65-5.8,1.21-9,1.25-6.14,2-8.82,1.45-5.08,2.14-7.07,1.29-3.58,1.74-4.66c.21-.51.39-.92.52-1.25a2.74,2.74,0,0,1,.21-.42,1.37,1.37,0,0,1-.13.45l-.45,1.28c-.41,1.1-1,2.7-1.61,4.69s-1.35,4.39-2.06,7.07-1.35,5.66-1.91,8.81-1,6.16-1.24,8.92-.44,5.25-.51,7.34-.12,3.79-.12,5v1.36A1.66,1.66,0,0,1,602.93,259.39Z"/><path class="cls-6" d="M604.74,235.92a9.35,9.35,0,0,1-1.37,1.51c-.89.88-2.16,2.07-3.6,3.34S597,243.13,596,243.9a10.24,10.24,0,0,1-1.68,1.16,10.31,10.31,0,0,1,1.49-1.39l3.7-3.21,3.67-3.25A10.69,10.69,0,0,1,604.74,235.92Z"/><path class="cls-6" d="M615.64,244.69a16.85,16.85,0,0,1-1.47-2l-3.39-5-3.47-4.92a14.4,14.4,0,0,1-1.39-2.07,14.65,14.65,0,0,1,1.62,1.9c1,1.21,2.23,2.92,3.57,4.85s2.5,3.72,3.31,5A14.72,14.72,0,0,1,615.64,244.69Z"/><path class="cls-6" d="M609.93,217.11c.06.09-3.55,2.53-8.07,5.44s-8.24,5.18-8.3,5.09,3.55-2.53,8.07-5.44S609.87,217,609.93,217.11Z"/><path class="cls-6" d="M620.13,228.11a65.29,65.29,0,0,1-5.47-5.05,68.85,68.85,0,0,1-5.18-5.35,63.88,63.88,0,0,1,5.47,5.06A70.55,70.55,0,0,1,620.13,228.11Z"/><path class="cls-7" d="M622.74,227.89l3.11-.25a15.59,15.59,0,0,0,6.27-1.92,26.58,26.58,0,0,1,2.92-1.47c3.84-1.54,8.12-1.27,12.25-1.47a50.77,50.77,0,0,0,19.49-5,1.82,1.82,0,0,0,.85-.77c.64-1.16-.54-2.19-1.56-2.82-5.23-3.22-10.56-6.49-16.49-8.09s-12.66-1.33-17.73,2.16c-5.94,4.08-8.1,12.48-9.11,19.62"/><path class="cls-6" d="M667.65,216.64a4.9,4.9,0,0,1-.52-.24l-1.47-.77c-1.28-.68-3.12-1.67-5.44-2.78a50.38,50.38,0,0,0-8.41-3.24,27.72,27.72,0,0,0-10.91-.89A18.66,18.66,0,0,0,631,213a22.11,22.11,0,0,0-5.17,7.27c-.84,1.85-1.6,3.74-2.26,5.66L623,227.5a2.11,2.11,0,0,1-.22.54,4,4,0,0,1,.14-.57l.48-1.59a55.54,55.54,0,0,1,2.14-5.73,22.16,22.16,0,0,1,5.19-7.43,18.73,18.73,0,0,1,10.14-4.39,27.75,27.75,0,0,1,11.06.92,49.12,49.12,0,0,1,8.44,3.35c2.31,1.15,4.13,2.18,5.38,2.89l1.44.84A2.69,2.69,0,0,1,667.65,216.64Z"/><path class="cls-6" d="M660.2,220.65c-.07.09-4.13-2.54-9.07-5.87s-8.9-6.11-8.84-6.21,4.12,2.53,9.07,5.87S660.26,220.55,660.2,220.65Z"/><path class="cls-6" d="M656.3,208.18a15.07,15.07,0,0,1-6.4.59,19,19,0,0,1,3.19-.36A20.31,20.31,0,0,1,656.3,208.18Z"/><path class="cls-6" d="M638.09,204.92a22,22,0,0,1-3,5.12,21.56,21.56,0,0,1,3-5.12Z"/><path class="cls-6" d="M641.74,223a10.94,10.94,0,0,1-2-1.06c-1.17-.71-2.75-1.76-4.45-3s-3.18-2.39-4.26-3.24a10.54,10.54,0,0,1-1.68-1.45,12.17,12.17,0,0,1,1.86,1.22l4.33,3.14c1.68,1.23,3.23,2.3,4.36,3.07A13.39,13.39,0,0,1,641.74,223Z"/><path class="cls-7" d="M627.27,241.08c-3-.78-6.49,2.1-7.11,5.1s.52,6.08,1.84,8.84a45.09,45.09,0,0,0,12.24,16,30.32,30.32,0,0,0,18.73,6.9c-1.25-5.82.33-11.89-.37-17.8a23.11,23.11,0,0,0-20.5-20.3c-1.89-.21-4.08-.5-4.83,1.24"/><path class="cls-6" d="M653,278a2,2,0,0,1-.42-.2,7.39,7.39,0,0,1-1.11-.74,11.47,11.47,0,0,1-2.92-3.91c-.48-.92-1-1.92-1.52-3l-1.59-3.52a35.6,35.6,0,0,0-2-3.76,28.4,28.4,0,0,0-2.7-3.67c-2-2.38-4.2-4.44-6.08-6.41a42,42,0,0,1-4.65-5.57,20.74,20.74,0,0,1-2.26-4.33,11.67,11.67,0,0,1-.4-1.27,1.22,1.22,0,0,1-.09-.46s.2.61.63,1.67a23.33,23.33,0,0,0,2.36,4.23,44.44,44.44,0,0,0,4.68,5.47c1.89,1.94,4.08,4,6.13,6.4a30,30,0,0,1,2.72,3.72,34.68,34.68,0,0,1,2,3.82l1.56,3.54c.5,1.09,1,2.1,1.46,3a12,12,0,0,0,2.77,3.92C652.41,277.62,653,277.9,653,278Z"/><path class="cls-6" d="M637.65,273.1a9,9,0,0,1,.28-2c.23-1.22.61-2.89,1.12-4.72s1.07-3.45,1.5-4.61a8.87,8.87,0,0,1,.81-1.84,9.85,9.85,0,0,1-.53,1.93c-.37,1.19-.87,2.82-1.38,4.63s-.94,3.47-1.24,4.67A10.23,10.23,0,0,1,637.65,273.1Z"/><path class="cls-6" d="M652.41,258.83a12.42,12.42,0,0,1-2.09-.48c-1.28-.33-3-.79-5-1.23s-3.75-.79-5-1a12.37,12.37,0,0,1-2.09-.46,9.48,9.48,0,0,1,2.13.17c1.32.17,3.12.47,5.09.92s3.73.94,5,1.35A10.5,10.5,0,0,1,652.41,258.83Z"/><path class="cls-6" d="M626.67,263a12,12,0,0,1,.32-2.31c.26-1.41.67-3.36,1.22-5.48s1.15-4,1.61-5.38a13,13,0,0,1,.85-2.17,14.54,14.54,0,0,1-.57,2.25c-.39,1.38-.93,3.29-1.49,5.4s-1,4.05-1.34,5.44A14.34,14.34,0,0,1,626.67,263Z"/><path class="cls-6" d="M645.61,246.39a81.41,81.41,0,0,1-8.25-.67c-4.55-.48-8.23-1-8.22-1.07a81.59,81.59,0,0,1,8.26.66C642,245.8,645.63,246.28,645.61,246.39Z"/><path class="cls-10" d="M642.9,291.22c0,.12-13,.21-29,.21s-29-.09-29-.21,13-.2,29-.2S642.9,291.11,642.9,291.22Z"/><path class="cls-10" d="M633.86,308c0,.11-8.75.2-19.55.2s-19.57-.13-19.57-.2,8.76-.21,19.56-.21S633.86,307.83,633.86,308Z"/><path class="cls-10" d="M634.21,310.34c0,.11-8.76.2-19.56.2s-19.56-.09-19.56-.2,8.76-.21,19.56-.21S634.21,310.22,634.21,310.34Z"/><path class="cls-10" d="M634.21,306c0,.11-9.06.2-20.23.2s-20.24-.1-20.24-.2,9.06-.21,20.23-.21S634.21,305.86,634.21,306Z"/></g></g></g></g></g></g></g></g></svg>