<svg xmlns="http://www.w3.org/2000/svg" viewBox="0 0 715.07 398.05"><defs><style>.cls-1{fill:#f5f5f5;}.cls-2{fill:#e0e0e0;}.cls-3{fill:#fff;}.cls-4{fill:#fafafa;}.cls-5{fill:#ebebeb;}.cls-6{fill:#263238;}.cls-7{fill:#b78876;}.cls-8{fill:#aa6550;}.cls-9{fill:#edcd00;}.cls-10{opacity:0.6;}.cls-11{opacity:0.4;}.cls-12{fill:#455a64;}.cls-13{opacity:0.3;}.cls-14{fill:#ffbe9d;}.cls-15{fill:#eb996e;}.cls-16{fill:#995037;}.cls-17{opacity:0.2;}</style></defs><g id="Camada_2" data-name="Camada 2"><g id="Camada_1-2" data-name="Camada 1"><g id="Camada_2-2" data-name="Camada 2"><g id="Background_Complete" data-name="Background Complete"><polygon class="cls-1" points="279.06 365.07 279.06 389.27 314.45 389.27 353.48 389.27 353.48 365.07 279.06 365.07"/><polygon class="cls-2" points="275.94 358.3 275.94 365.07 356.08 365.07 356.08 358.3 314.45 358.3 275.94 358.3"/><polygon class="cls-2" points="316.01 389.27 353.48 389.27 353.48 365.07 356.08 365.07 356.08 358.3 314.45 358.3 314.45 364.44 316.01 389.27"/><rect class="cls-2" x="289.47" y="368.97" width="15.09" height="3.64"/><rect class="cls-3" x="287.53" y="377.17" width="19.38" height="7.69"/><polygon class="cls-1" points="285.9 334.13 285.9 358.33 321.29 358.33 360.32 358.33 360.32 334.13 285.9 334.13"/><polygon class="cls-2" points="282.78 327.36 282.78 334.13 362.92 334.13 362.92 327.36 321.29 327.36 282.78 327.36"/><polygon class="cls-2" points="322.85 358.33 360.32 358.33 360.32 334.13 362.92 334.13 362.92 327.36 321.29 327.36 321.29 333.5 322.85 358.33"/><rect class="cls-2" x="296.31" y="338.03" width="15.09" height="3.64"/><rect class="cls-3" x="294.37" y="346.23" width="19.38" height="7.69"/><path class="cls-1" d="M34,216.49s-3.89,2.94-3.89,6.84v19.92H59.19V222.44s-.41-5.11-3.82-5.95Z"/><path class="cls-2" d="M32.34,242.17a57,57,0,0,1-.43-6.13,4.92,4.92,0,0,1,3.4-4.51c1.54-.42,3.14.14,4.71.4a12.48,12.48,0,0,0,7.51-1.12c2-1,3.76-2.5,5.94-2.7,1.43-.13,3.08.54,3.47,1.92a4.81,4.81,0,0,1,0,2c-.47,3.07.13,6.88.13,9.83-8.13.38-16.56.11-24.7.29"/><polyline class="cls-2" points="28.29 246.07 32.67 243.25 59.19 243.25 63.45 246.07 28.29 246.07"/><path class="cls-1" d="M27.47,181.26v29.65h36v35.16H28.29v8.42H88.93V181.26a6.32,6.32,0,0,0-6.3-6.32H33.79a6.32,6.32,0,0,0-6.32,6.32Z"/><path class="cls-2" d="M88.93,181.93c0,.14-13.76.26-30.73.26s-30.73-.12-30.73-.26,13.76-.26,30.73-.26S88.93,181.79,88.93,181.93Z"/><path class="cls-2" d="M71.87,254.49c-.14,0-.26-17.76-.26-39.67s.12-39.67.26-39.67.26,17.76.26,39.67S72,254.49,71.87,254.49Z"/><path class="cls-2" d="M24.22,233.64l-.37-9a12.08,12.08,0,0,1,2-7.33,6.4,6.4,0,0,1,5.29-3.21H55.37v2.37H31.55s-4.29.45-4.85,6.32a57.62,57.62,0,0,0,0,10.83Z"/><rect class="cls-2" x="46.27" y="369.49" width="10.64" height="19.18"/><rect class="cls-2" x="93.28" y="369.49" width="10.64" height="19.18"/><rect class="cls-2" x="22.88" y="254.49" width="88.13" height="115"/><rect class="cls-1" x="6.74" y="254.49" width="85.84" height="115"/><rect class="cls-1" x="14.33" y="369.49" width="10.64" height="19.18"/><rect class="cls-1" x="75.51" y="369.49" width="10.64" height="19.18"/><path class="cls-2" d="M85.75,356.36v-7.62c0-4.89,0-12-.07-20.77l.12.12-73.67.05h0l.17-.17v28.39l-.17-.17,52.77.08H65l-52.89.08h-.17V327.79h.17l73.67.06h.12V328c0,8.83,0,15.93-.06,20.84v7.06A3.86,3.86,0,0,0,85.75,356.36Z"/><path class="cls-2" d="M51.14,342.16a1.54,1.54,0,0,0-.13-.52,2.22,2.22,0,0,0-.82-1.15,2.14,2.14,0,0,0-2-.27,2.08,2.08,0,1,0,1.54,3.86,1.86,1.86,0,0,0,.46-.25,2.19,2.19,0,0,0,.82-1.14c.1-.33.1-.53.13-.53a1.06,1.06,0,0,1,0,.56,2.28,2.28,0,0,1-.8,1.31,2.35,2.35,0,0,1-2.24.37,2.38,2.38,0,0,1,0-4.48,2.35,2.35,0,0,1,2.24.38,2.29,2.29,0,0,1,.8,1.3A1.06,1.06,0,0,1,51.14,342.16Z"/><path class="cls-2" d="M85.75,322.36v-7.61c0-4.9,0-12-.07-20.78l.12.12-73.67.06h0l.17-.18v28.39l-.17-.17,52.77.08,15.35.05h0L65,322.45l-52.89.08h-.17V293.8h.17l73.67.05h.12V294c0,8.83-.05,15.94-.06,20.85v7.06A2.48,2.48,0,0,0,85.75,322.36Z"/><path class="cls-2" d="M51.14,308.17a1.61,1.61,0,0,0-.13-.53,2.19,2.19,0,0,0-.82-1.14,2.08,2.08,0,0,0-2.46,3.36,2.05,2.05,0,0,0,.46.25,2.14,2.14,0,0,0,2-.27,2.22,2.22,0,0,0,.82-1.15c.1-.33.1-.52.13-.52a1.06,1.06,0,0,1,0,.56,2.29,2.29,0,0,1-.8,1.3,2.35,2.35,0,0,1-2.24.38,2.38,2.38,0,0,1,0-4.48,2.35,2.35,0,0,1,2.24.37,2.23,2.23,0,0,1,.8,1.31A1.06,1.06,0,0,1,51.14,308.17Z"/><path class="cls-2" d="M85.75,288.82v-7.61c0-4.89,0-12-.07-20.77l.12.11-73.67.06h0l.17-.17v28.38l-.17-.16,52.77.07H80.29L65,288.91,12.08,289h-.17V260.26h.17l73.67.05h.12v.12c0,8.83-.05,15.93-.06,20.84v7.06C85.76,288.66,85.75,288.82,85.75,288.82Z"/><path class="cls-2" d="M51.14,274.63a1.61,1.61,0,0,0-.13-.53,2.19,2.19,0,0,0-.82-1.14,2.08,2.08,0,0,0-2.46,3.36,2.05,2.05,0,0,0,.46.25,2.14,2.14,0,0,0,2-.27,2.19,2.19,0,0,0,.82-1.14c.1-.33.1-.53.13-.53a1.06,1.06,0,0,1,0,.56,2.29,2.29,0,0,1-.8,1.3,2.35,2.35,0,0,1-2.24.38,2.38,2.38,0,0,1,0-4.48,2.35,2.35,0,0,1,2.24.37,2.28,2.28,0,0,1,.8,1.31A1.06,1.06,0,0,1,51.14,274.63Z"/><path class="cls-2" d="M88.05,254.49c0,.15-13.36.26-29.85.26s-29.85-.11-29.85-.26,13.37-.26,29.85-.26S88.05,254.35,88.05,254.49Z"/><rect class="cls-4" x="339.59" y="81.98" width="77.5" height="69.34"/><path class="cls-2" d="M417.09,151.32V132.24c0-12.11,0-29.42-.09-50.26l.17.18H339.68l.21-.21v69.34l-.18-.18,56.06.09,15.81.05H395.84l-56.17.09h-.18V81.61h77.89V82c0,20.88-.07,38.23-.09,50.37,0,6,0,10.79-.05,14v3.68A4.24,4.24,0,0,1,417.09,151.32Z"/><path class="cls-2" d="M369.31,94.3c0,.12-4.08.21-9.11.21s-9.11-.09-9.11-.21,4.08-.21,9.11-.21S369.31,94.19,369.31,94.3Z"/><path class="cls-2" d="M402.15,99.51c0,.11-11.21.2-25,.2s-25-.09-25-.2,11.2-.21,25-.21S402.15,99.39,402.15,99.51Z"/><rect class="cls-2" x="351.22" y="108.33" width="3.27" height="3.27"/><rect class="cls-2" x="359.26" y="108.33" width="3.27" height="3.27"/><rect class="cls-2" x="367.44" y="108.18" width="3.27" height="3.27"/><rect class="cls-2" x="375.33" y="108.33" width="3.27" height="3.27"/><rect class="cls-2" x="383.37" y="108.33" width="3.27" height="3.27"/><rect class="cls-2" x="391.41" y="108.33" width="3.27" height="3.27"/><rect class="cls-5" x="399.44" y="108.33" width="3.27" height="3.27"/><rect class="cls-5" x="351.22" y="115.27" width="3.27" height="3.27"/><rect class="cls-2" x="359.26" y="115.27" width="3.27" height="3.27"/><rect class="cls-5" x="367.3" y="115.27" width="3.27" height="3.27"/><rect class="cls-2" x="375.33" y="115.27" width="3.27" height="3.27"/><rect class="cls-2" x="383.37" y="115.27" width="3.27" height="3.27"/><rect class="cls-2" x="391.56" y="115.12" width="3.27" height="3.27"/><rect class="cls-2" x="399.44" y="115.27" width="3.27" height="3.27"/><rect class="cls-2" x="351.22" y="122.21" width="3.27" height="3.27"/><rect class="cls-2" x="359.41" y="122.06" width="3.27" height="3.27"/><rect class="cls-2" x="367.3" y="122.21" width="3.27" height="3.27"/><rect class="cls-5" x="375.33" y="122.21" width="3.27" height="3.27"/><rect class="cls-2" x="383.37" y="122.21" width="3.27" height="3.27"/><rect class="cls-2" x="391.41" y="122.21" width="3.27" height="3.27"/><rect class="cls-2" x="399.44" y="122.21" width="3.27" height="3.27"/><rect class="cls-2" x="351.22" y="129.15" width="3.27" height="3.27"/><rect class="cls-2" x="359.26" y="129.15" width="3.27" height="3.27"/><rect class="cls-2" x="367.3" y="129.15" width="3.27" height="3.27"/><rect class="cls-2" x="375.48" y="129" width="3.27" height="3.27"/><rect class="cls-2" x="383.37" y="129.15" width="3.27" height="3.27"/><rect class="cls-5" x="391.41" y="129.15" width="3.27" height="3.27"/><rect class="cls-2" x="399.44" y="129.15" width="3.27" height="3.27"/><rect class="cls-2" x="351.22" y="136.09" width="3.27" height="3.27"/><rect class="cls-5" x="359.26" y="136.09" width="3.27" height="3.27"/><rect class="cls-2" x="367.3" y="136.09" width="3.27" height="3.27"/><rect class="cls-2" x="375.33" y="136.09" width="3.27" height="3.27"/><rect class="cls-2" x="383.37" y="136.09" width="3.27" height="3.27"/><rect class="cls-2" x="391.56" y="135.94" width="3.27" height="3.27"/><rect class="cls-2" x="399.44" y="136.09" width="3.27" height="3.27"/><path class="cls-2" d="M645.84,134.17V101.36c0-20.88-.07-50.75-.11-86.79l.21.22H495.64l.26-.26v119.6l-.24-.23,108.58.11,30.76.06h.07l-30.71.07-108.73.11h-.23V14.16H646.19v.21c0,36.1-.09,66-.11,86.92,0,10.43-.05,18.6-.06,24.18v6.34A13.55,13.55,0,0,1,645.84,134.17Z"/><rect class="cls-2" x="514.96" y="36.74" width="5.44" height="60.7"/><rect class="cls-5" x="525.45" y="57.36" width="5.44" height="40.08"/><rect class="cls-2" x="535.95" y="44.28" width="5.44" height="53.46"/><rect class="cls-5" x="546.44" y="39.08" width="5.44" height="58.36"/><rect class="cls-2" x="556.93" y="58.59" width="5.44" height="38.85"/><rect class="cls-5" x="567.43" y="66.21" width="5.44" height="31.23"/><rect class="cls-2" x="577.92" y="42.97" width="5.44" height="54.47"/><rect class="cls-5" x="588.41" y="52.79" width="5.44" height="44.65"/><rect class="cls-2" x="598.91" y="44.94" width="5.44" height="52.5"/><rect class="cls-5" x="609.4" y="61.67" width="5.44" height="35.76"/><rect class="cls-2" x="619.89" y="54.87" width="5.44" height="42.57"/><path class="cls-2" d="M627.55,101.67c0,.12-25.78.22-57.58.22s-57.58-.1-57.58-.22,25.77-.23,57.58-.23S627.55,101.54,627.55,101.67Z"/><path class="cls-2" d="M522.71,106.44a35,35,0,0,1-8.06,0A37.44,37.44,0,0,1,522.71,106.44Z"/><path class="cls-2" d="M536.09,106.69a53.52,53.52,0,0,1-9.64,0A50.08,50.08,0,0,1,536.09,106.69Z"/><path class="cls-2" d="M547.51,106.69a53.63,53.63,0,0,1-9.65,0A50.18,50.18,0,0,1,547.51,106.69Z"/><path class="cls-2" d="M558.92,106.69a53.52,53.52,0,0,1-9.64,0A50.08,50.08,0,0,1,558.92,106.69Z"/><path class="cls-2" d="M570.33,106.69a53.52,53.52,0,0,1-9.64,0A50.08,50.08,0,0,1,570.33,106.69Z"/><path class="cls-2" d="M581.74,106.69a53.52,53.52,0,0,1-9.64,0A50.08,50.08,0,0,1,581.74,106.69Z"/><path class="cls-2" d="M593.15,106.69a53.52,53.52,0,0,1-9.64,0A50.08,50.08,0,0,1,593.15,106.69Z"/><path class="cls-2" d="M604.56,106.69a53.52,53.52,0,0,1-9.64,0A50.08,50.08,0,0,1,604.56,106.69Z"/><path class="cls-2" d="M616,106.69a53.63,53.63,0,0,1-9.65,0A50.18,50.18,0,0,1,616,106.69Z"/><path class="cls-2" d="M627.39,106.69a53.52,53.52,0,0,1-9.64,0A50.08,50.08,0,0,1,627.39,106.69Z"/><rect class="cls-5" x="490.72" y="13.87" width="159.39" height="4.49"/><polygon class="cls-2" points="356.96 139.52 355.91 135.85 358.02 135.95 358.21 139.34 356.96 139.52"/><polyline class="cls-2" points="353.9 139.41 351.5 152.44 345.43 169.66 379.64 164.73 365.83 149.7 360.07 138.52 353.9 139.41"/><path class="cls-2" d="M286.62,230.83v-.54a10.86,10.86,0,0,1,21.71-.66q0,.33,0,.66v.54Z"/><path class="cls-2" d="M297.45,219.86a.43.43,0,0,1-.42-.32l-14.39-54.83a.43.43,0,0,1,.84-.22l14.38,54.83a.43.43,0,0,1-.3.53h-.11Z"/><path class="cls-2" d="M293.65,221.22a.43.43,0,0,1-.42-.32l-14.39-54.83a.43.43,0,0,1,.84-.22l14.38,54.83a.43.43,0,0,1-.29.52h0Z"/><path class="cls-2" d="M278.17,165.14a2.72,2.72,0,1,0,2.73-2.71h0A2.72,2.72,0,0,0,278.17,165.14Z"/><polygon class="cls-2" points="281.13 165.5 280.64 164.79 331.63 129.62 361.45 146.58 361.02 147.33 331.67 130.63 281.13 165.5"/><rect class="cls-2" x="278.18" y="149.22" width="61.06" height="0.86" transform="translate(-30.29 202.36) rotate(-34.7)"/><path class="cls-2" d="M330,131.48a2.44,2.44,0,1,0,2.44-2.44A2.44,2.44,0,0,0,330,131.48Z"/><rect class="cls-2" x="207.23" width="4.91" height="105.54"/><rect class="cls-1" x="136.02" y="0.82" width="70.46" height="104.87" rx="0.07"/><path class="cls-5" d="M207.23,106.5H135.28a.07.07,0,0,1-.07-.07h0V.07a.07.07,0,0,1,.07-.07h71.95a.07.07,0,0,1,.07.07h0V106.43a.07.07,0,0,1-.07.07Zm-70.32-1.63h68.68a.07.07,0,0,0,.07-.07h0V1.7a.07.07,0,0,0-.07-.07H136.91a.07.07,0,0,0-.07.07h0V104.8a.07.07,0,0,0,.07.07Z"/><rect class="cls-4" x="143.12" y="7.29" width="56.39" height="91.86" rx="0.07"/><rect class="cls-5" x="155.42" y="33.33" width="31.66" height="37.11" rx="0.06"/><path class="cls-2" d="M184.58,65.9c0,.12-1.52.8-4.5.45a10.91,10.91,0,0,1-5.05-2,10.28,10.28,0,0,1-3.93-6.17,8.86,8.86,0,0,1,3-8.44,7.65,7.65,0,0,1,2.27-1.34,6.28,6.28,0,0,1,2.85-.33,5.13,5.13,0,0,1,2.85,1.25,3.74,3.74,0,0,1,1.12,3.32,5.3,5.3,0,0,1-1.56,2.84,10.32,10.32,0,0,1-2.39,1.76,13.07,13.07,0,0,1-5.69,1.63,11.41,11.41,0,0,1-6.06-1.38A11.06,11.06,0,0,1,163,52.84a9.45,9.45,0,0,1-.8-6.48A9.68,9.68,0,0,1,165.65,41a8.3,8.3,0,0,1,2.86-1.44,7,7,0,0,1,3.22-.1,5.21,5.21,0,0,1,2.93,1.65,4.83,4.83,0,0,1,1.15,3.12,6.07,6.07,0,0,1-.77,3,8.18,8.18,0,0,1-1.8,2.17,12.16,12.16,0,0,1-4.49,2.38,11.41,11.41,0,0,1-4.72.37,9.66,9.66,0,0,1-4.1-1.57A8.89,8.89,0,0,1,156,44.36,7.5,7.5,0,0,1,157.46,39a6.29,6.29,0,0,1,2.69-2.15c.73-.28,1.16-.27,1.17-.2s-.33.26-.93.66a7,7,0,0,0-2.09,2.25,6.65,6.65,0,0,0-.86,4.55A7.46,7.46,0,0,0,160.93,49a8.59,8.59,0,0,0,7.2.69,10.21,10.21,0,0,0,3.6-2,4.44,4.44,0,0,0,1.68-3.37,2.44,2.44,0,0,0-2.17-2.4,4.82,4.82,0,0,0-2.07.1,5.92,5.92,0,0,0-1.95,1,7.1,7.1,0,0,0-2.47,4,6.84,6.84,0,0,0,.61,4.7,8.46,8.46,0,0,0,3.41,3.55,8.88,8.88,0,0,0,4.68,1.09A10.69,10.69,0,0,0,178.06,55a7.86,7.86,0,0,0,1.84-1.3,3.18,3.18,0,0,0,.94-1.52,1.33,1.33,0,0,0-.38-1.22,2.74,2.74,0,0,0-1.53-.68,3.89,3.89,0,0,0-1.79.16,5.32,5.32,0,0,0-1.67.91,7,7,0,0,0-2.19,3,6.87,6.87,0,0,0-.36,3.45,8.92,8.92,0,0,0,3,5.34,10.65,10.65,0,0,0,4.34,2.17C183,66,184.56,65.67,184.58,65.9Z"/></g><g id="Background_Simple" data-name="Background Simple"><path class="cls-1" d="M628.91,120.45c-12.72-50.4-53.33-94-104-105.68-39.13-9-81.41.94-114.9,23.1-28.77,19-52.24,46.83-84.49,59.09-43.62,16.57-93.25,1.1-138.78,11.3-57.41,12.87-101.07,71-97.47,129.68s54,111,112.58,116.8l1.94-.28c51,10.05,215.13,11.09,265.32-2.46s97-42.2,127.93-84S641.63,170.86,628.91,120.45Z"/></g><g id="Floor"><path class="cls-6" d="M713,388.68c0,.14-159.61.26-356.46.26S0,388.82,0,388.68s159.58-.26,356.49-.26S713,388.53,713,388.68Z"/></g><g id="Character_3" data-name="Character 3"><path class="cls-7" d="M503.7,106.45h0c2.11-3.06,3.27-5.36,4.76-7.29,1.85-2.37,2.44-3.48,2-3.8-.62-.42-.36-.28-4.32,3.56,0,0,5.6-5.54,3.44-5.29-.95.11-5.65,4.66-5.65,4.66,4.11-3.31,5.14-5.21,4.6-5.8-.77-.87-6.44,4.7-6.44,4.7A62.22,62.22,0,0,0,507,92.06c.53-.94-.78-.73-1.81-.22s-7.45,4.86-9.33,6a1.29,1.29,0,0,1-1.81-.21.94.94,0,0,1-.12-.18c-1.13-3-3.6-4.71-4.49-4.87a1,1,0,0,0-1,1,1,1,0,0,0,.32.74,11.65,11.65,0,0,1,1.68,2.76,7.32,7.32,0,0,1,.72,2.47c.11,1,.17,1.85.19,2.57L488.5,118l10,7Z"/><path class="cls-8" d="M503.77,101.29a14.44,14.44,0,0,0,2.83-2.52,13.84,13.84,0,0,0,2.46-2.88,14.76,14.76,0,0,0-2.82,2.53A15,15,0,0,0,503.77,101.29Z"/><path class="cls-8" d="M502.14,99.92a15.65,15.65,0,0,0,3.16-2.51,17.14,17.14,0,0,0,2.82-2.89A15.91,15.91,0,0,0,505,97,16.47,16.47,0,0,0,502.14,99.92Z"/><path class="cls-8" d="M500.45,98.5a15.43,15.43,0,0,0,3-2.34,14.38,14.38,0,0,0,2.69-2.71,15.43,15.43,0,0,0-3,2.34A14.09,14.09,0,0,0,500.45,98.5Z"/><path class="cls-7" d="M434.87,57.5A14.73,14.73,0,0,1,450.72,71c0,.1,0,.19,0,.29.42,6.85.79,14.26.74,18-.09,8-8.11,9.26-8.11,9.26s1.15,13.92,1,16.16l-21.2,1L421.25,72.9A14.73,14.73,0,0,1,434.87,57.5Z"/><path class="cls-8" d="M443.39,98.44a18.63,18.63,0,0,1-10.45-3s2.47,5.77,10.46,5Z"/><path class="cls-7" d="M422,75.62c-.13-.06-5.5-1.63-5.33,3.85s5.64,4.17,5.65,4S422,75.62,422,75.62Z"/><path class="cls-8" d="M420.59,81.46a2.68,2.68,0,0,1-.25.15,1,1,0,0,1-.72,0,2.41,2.41,0,0,1-1.16-2.09,3,3,0,0,1,.23-1.37,1.12,1.12,0,0,1,.69-.76.49.49,0,0,1,.57.25c.08.15.05.26.08.27s.11-.1.06-.32a.58.58,0,0,0-.23-.34.7.7,0,0,0-.53-.12,1.32,1.32,0,0,0-1,.88,3.38,3.38,0,0,0-.28,1.54,2.49,2.49,0,0,0,1.47,2.32,1,1,0,0,0,.87-.17C420.58,81.59,420.61,81.47,420.59,81.46Z"/><path class="cls-6" d="M421.49,75.48a8.86,8.86,0,0,0,0,2.52,2.9,2.9,0,0,0,1.4,2c1.38.68,3.11-.37,3.72-1.78a9.25,9.25,0,0,0,.31-4.55A22,22,0,0,1,427,67.4,9,9,0,0,1,430,62a5.68,5.68,0,0,1,5.9-.85,30.57,30.57,0,0,1,3.12,2.3,4.86,4.86,0,0,0,3.31.83,3.11,3.11,0,0,0,2.54-2.11,3.4,3.4,0,0,0-1.29-3.37,7.75,7.75,0,0,0-3.51-1.4,18.69,18.69,0,0,0-10.39.81,13.53,13.53,0,0,0-7.54,7c-1.6,3.75-.52,6.72-.75,10.89"/><path class="cls-2" d="M502.88,111.05l-13.1-3.16-8.65,23.46L457.23,110h0c-2.55-1.86-6.93-2.1-10.26-2.51h-.26c-1.29-.15-1.92-.34-2.7-.43-5.76,4.33-15.62,4.61-21.28.14,0,0-4.29,1-6.85,1.46-8.07,1.54-13.88,7.42-15.49,12.85l10.1,23.3,1.93,22.13-5.59,19.81A3.44,3.44,0,0,0,409.2,191a4.59,4.59,0,0,0,.51.1l50,.76.82-.4a9.3,9.3,0,0,0,1.34-6.34c-2.16-9.49-.65-37.76-1.11-46.44,9.82,9.53,20.65,17.45,28.57,12.55C495.94,147.09,502.88,111.05,502.88,111.05Z"/><polygon class="cls-2" points="421.11 108.59 422.27 100.58 433.18 104.58 436.26 110.01 438.17 104.06 444.16 102 446.71 107.32 442.32 113.53 434.09 115.2 421.11 108.59"/><path class="cls-6" d="M436.45,111.25a3.16,3.16,0,0,1-.41-.33,12.79,12.79,0,0,1-1-1.08,16,16,0,0,1-2.63-4.54h.4l-2.52,6.35c-.44,1.09-.86,2.14-1.27,3.13l-.13.33-.25-.24c-2.21-2.13-4.11-4-5.45-5.33-.61-.63-1.12-1.16-1.55-1.59a3.16,3.16,0,0,1-.53-.62,3.45,3.45,0,0,1,.64.5l1.65,1.48c1.4,1.29,3.35,3.1,5.57,5.21l-.39.09,1.25-3.14,2.58-6.33.21-.52.19.52a17.9,17.9,0,0,0,2.43,4.54C436,110.69,436.49,111.21,436.45,111.25Z"/><path class="cls-6" d="M446.71,107.32a8.52,8.52,0,0,1-1.28,1.76,17.2,17.2,0,0,1-4.17,3.67l-.24.15-.1-.27c-.36-1-.77-2-1.21-3.11-.65-1.63-1.27-3.18-1.75-4.56h.43c-.36,1.81-.8,3.29-1.07,4.33a9.34,9.34,0,0,1-.48,1.64,6.5,6.5,0,0,1,.22-1.7c.2-1.07.58-2.56.89-4.35l.15-.8.28.77c.5,1.36,1.13,2.89,1.79,4.53.44,1.09.84,2.15,1.19,3.13l-.34-.12a20.22,20.22,0,0,0,4.2-3.46A20.58,20.58,0,0,1,446.71,107.32Z"/><path class="cls-6" d="M440.41,192.79a5.89,5.89,0,0,1,0-.84c.06-.58.15-1.38.25-2.38s.22-2.3.33-3.77c0-.74.11-1.53.16-2.36s.07-1.72.11-2.65c.17-3.71.16-8.14.07-13.06s-.4-10.31-.78-16c-.82-11.33-1.94-21.55-2.78-28.94l-1-8.76c-.11-1-.19-1.79-.25-2.38a4,4,0,0,1-.06-.84,4.66,4.66,0,0,1,.15.83c.09.58.21,1.37.35,2.37.29,2.06.7,5,1.16,8.74.93,7.38,2.1,17.6,2.92,28.94.39,5.67.64,11.08.74,16s0,9.37-.17,13.09c-.05.92-.1,1.81-.14,2.65s-.14,1.62-.21,2.36c-.13,1.47-.24,2.74-.4,3.77s-.27,1.79-.35,2.38A6,6,0,0,1,440.41,192.79Z"/><path class="cls-6" d="M480.85,140.4a23.58,23.58,0,0,1-.24-4.75,23.58,23.58,0,0,1,.24-4.75,22.87,22.87,0,0,1,.25,4.75A22.87,22.87,0,0,1,480.85,140.4Z"/><path class="cls-6" d="M484.19,141c0,.45-.67-.82-2.13-4.9a20.54,20.54,0,0,1-1.32-5.18,46.41,46.41,0,0,1,1.78,5A47.88,47.88,0,0,1,484.19,141Z"/><path class="cls-9" d="M451.89,360.31l-.76,18.17s18.21,6.88,18.4,10.25l-35.28-.21V360.16Z"/><path class="cls-2" d="M440.23,376.89a1.45,1.45,0,0,0-1,1.64,1.39,1.39,0,0,0,1.62,1,1.51,1.51,0,0,0,1.06-1.74,1.44,1.44,0,0,0-1.8-.87"/><g class="cls-10"><path class="cls-3" d="M434.25,388.52l.11-2.86,33.79,1.27s1.57.69,1.38,1.8Z"/></g><path class="cls-6" d="M451.7,378.31c0,.17-.86.24-1.71.79s-1.31,1.27-1.47,1.2.1-1.06,1.15-1.71S451.74,378.15,451.7,378.31Z"/><path class="cls-6" d="M455.4,379.86c0,.17-.71.45-1.3,1.18s-.77,1.49-.94,1.49-.27-1,.48-1.88S455.39,379.69,455.4,379.86Z"/><path class="cls-6" d="M457.47,384.3c-.15,0-.39-.83.06-1.77s1.25-1.31,1.33-1.17-.43.65-.79,1.43S457.64,384.28,457.47,384.3Z"/><path class="cls-6" d="M451.42,374.15c-.07.15-.86-.09-1.84,0s-1.73.36-1.82.22.64-.76,1.79-.82S451.5,374,451.42,374.15Z"/><path class="cls-6" d="M451.5,370.48a3.29,3.29,0,0,1-1.76,0,8,8,0,0,1-1.85-.58,9.64,9.64,0,0,1-1-.54,3.06,3.06,0,0,1-.53-.42.74.74,0,0,1-.07-.92.92.92,0,0,1,.75-.39,2.11,2.11,0,0,1,.66.1,6,6,0,0,1,1.1.38,6.28,6.28,0,0,1,1.62,1.08c.82.76,1.09,1.41,1,1.44s-.47-.49-1.3-1.12a6.76,6.76,0,0,0-1.57-.89,5.82,5.82,0,0,0-1-.32c-.37-.1-.69-.11-.79.06s0,.09,0,.2a1.62,1.62,0,0,0,.39.3,8.65,8.65,0,0,0,.93.54,10.35,10.35,0,0,0,1.7.67A10.25,10.25,0,0,1,451.5,370.48Z"/><path class="cls-6" d="M451.28,370.72a2.89,2.89,0,0,1-.46-1.71,6,6,0,0,1,.25-1.93,6,6,0,0,1,.46-1.07,1.48,1.48,0,0,1,1.13-.89.85.85,0,0,1,.74.5,2.52,2.52,0,0,1,.18.65,4,4,0,0,1,0,1.19,4.09,4.09,0,0,1-.77,1.82c-.69.91-1.41,1.11-1.42,1.06a6.94,6.94,0,0,0,1.07-1.3,3.87,3.87,0,0,0,.57-1.65,3.35,3.35,0,0,0,0-1c-.06-.38-.2-.68-.34-.65a1.26,1.26,0,0,0-.62.58,5.46,5.46,0,0,0-.44.95,6,6,0,0,0-.35,1.77C451.19,370.05,451.37,370.7,451.28,370.72Z"/><path class="cls-9" d="M391,355l-5.73,22.74-9.72,16.68a2.39,2.39,0,0,0,.86,3.28l.14.08h0a2.38,2.38,0,0,0,2.2,0c4.36-2.36,20.38-11.1,20.7-12.78.38-2,7.64-23.59,7.64-23.59Z"/><g class="cls-10"><path class="cls-3" d="M376.59,397.75l23.32-14.34-.26,1a3.58,3.58,0,0,1-1.45,2c-1.9,1.29-7.23,4.74-19.34,11.34A2.4,2.4,0,0,1,376.59,397.75Z"/></g><g class="cls-10"><path class="cls-3" d="M397.29,374.84a1.45,1.45,0,0,0-.89,1.72,1.41,1.41,0,0,0,1.7.9,1.53,1.53,0,0,0,.93-1.83,1.44,1.44,0,0,0-1.87-.74"/></g><path class="cls-6" d="M384.49,389.31A7.33,7.33,0,0,0,383,387a7.56,7.56,0,0,0-2.46-1.22c0-.06.33-.15.88-.08a3.86,3.86,0,0,1,3.06,2.72C384.61,389,384.55,389.3,384.49,389.31Z"/><path class="cls-6" d="M382,391.89c-.13.07-.66-.87-1.73-1.53a18.06,18.06,0,0,0-2.13-.89,2.63,2.63,0,0,1,2.4.46C381.8,390.68,382.18,391.86,382,391.89Z"/><path class="cls-6" d="M388.56,386.26A12.46,12.46,0,0,0,382.9,382a6.57,6.57,0,0,1,5.66,4.25Z"/><path class="cls-6" d="M390.88,379.49c-.1.12-1.2-.75-2.81-1.26s-3-.47-3-.62a5.94,5.94,0,0,1,5.83,1.88Z"/><path class="cls-6" d="M392.73,372.86a12,12,0,0,0-2.89-1.39,12.32,12.32,0,0,0-3.21-.08c0-.05.3-.27.91-.43a5.28,5.28,0,0,1,4.58,1.1C392.58,372.48,392.78,372.82,392.73,372.86Z"/><path class="cls-6" d="M390.23,370.22a2,2,0,0,1,.2-.86,6,6,0,0,1,1.3-2.06,2.73,2.73,0,0,1,1.48-.94,1,1,0,0,1,1,.5,1.52,1.52,0,0,1,.07,1.11,3.39,3.39,0,0,1-3.7,2.24,4,4,0,0,1-3.18-3,1.37,1.37,0,0,1,.24-1.11,1,1,0,0,1,1.09-.22,3.38,3.38,0,0,1,1.27,1.19,6.9,6.9,0,0,1,1.06,2.18,2,2,0,0,1,.13.88,10.12,10.12,0,0,0-1.48-2.84,3.2,3.2,0,0,0-1.13-1,.51.51,0,0,0-.6.12.92.92,0,0,0-.11.74,3.51,3.51,0,0,0,2.78,2.58,3,3,0,0,0,3.18-1.85,1.16,1.16,0,0,0,0-.78.52.52,0,0,0-.55-.29,2.52,2.52,0,0,0-1.26.78A9,9,0,0,0,390.23,370.22Z"/><polygon class="cls-9" points="431.66 108.23 434.14 109.52 433.68 113.69 429.81 112.88 431.66 108.23"/><g class="cls-11"><polygon points="431.66 108.23 434.14 109.52 433.68 113.69 429.81 112.88 431.66 108.23"/></g><polygon class="cls-9" points="437.34 109.26 439.21 107.61 440.93 111.97 438.47 113.16 437.34 109.26"/><polygon class="cls-9" points="434.6 114.71 433.44 164.01 441.78 172.25 445.81 161.31 437.81 114.44 434.6 114.71"/><path class="cls-9" d="M434.65,108c.57-.07,1.35-.22,2-.36a1.39,1.39,0,0,1,1.49.69l1.05,1.94a1.4,1.4,0,0,1,.14.92l-.42,2.17a1.37,1.37,0,0,1-1.07,1.09l-2.38.48a1.38,1.38,0,0,1-1.5-.73l-1.18-2.34a1.36,1.36,0,0,1,0-1.18l.83-1.87A1.36,1.36,0,0,1,434.65,108Z"/><path class="cls-6" d="M438.12,108.52a6.91,6.91,0,0,1-.64.79c-.41.47-1,1.11-1.63,1.81s-1.24,1.32-1.67,1.76a4.91,4.91,0,0,1-.74.7,4.75,4.75,0,0,1,.63-.79c.41-.47,1-1.11,1.64-1.81s1.24-1.32,1.67-1.77A5.4,5.4,0,0,1,438.12,108.52Z"/><path class="cls-6" d="M435.68,110.79a10.87,10.87,0,0,1-2.16-2.07,5.78,5.78,0,0,1,1.15,1A5.7,5.7,0,0,1,435.68,110.79Z"/><path class="cls-6" d="M438.46,114c.15-1,.35-1.91.59-2.85a2.81,2.81,0,0,0-.59-1.85,1.59,1.59,0,0,1-.29-.81,4.63,4.63,0,0,0,.41.74c.13.22.32.47.48.8a1.91,1.91,0,0,1,.19,1.15c-.16.81-.37,1.49-.51,2A4,4,0,0,1,438.46,114Z"/><path class="cls-6" d="M459.75,191.69l-3.5,181a2.23,2.23,0,0,1-2.24,2.17l-21.08-.18a2.23,2.23,0,0,1-2.21-2.25v0L434,216.63,406.57,371.29a4,4,0,0,1-4.06,3.28L384.82,374a4,4,0,0,1-3.83-4.16c0-.15,0-.29,0-.43L408.8,191Z"/><path class="cls-12" d="M393.39,365a2.74,2.74,0,0,1,.05-.43l.19-1.25c.18-1.11.45-2.72.78-4.77.7-4.18,1.7-10.17,2.93-17.57,2.47-14.85,5.89-35.33,9.65-58s7.06-43.15,9.4-58c1.15-7.41,2.09-13.41,2.74-17.59.33-2.06.58-3.67.76-4.78.08-.53.15-.94.2-1.25a2.69,2.69,0,0,1,.09-.42,3.09,3.09,0,0,1,0,.43c0,.3-.09.72-.16,1.25-.15,1.12-.37,2.73-.66,4.8-.57,4.16-1.47,10.18-2.59,17.62-2.25,14.86-5.51,35.38-9.25,58s-7.23,43.11-9.8,57.93c-1.3,7.39-2.35,13.37-3.08,17.54-.37,2.05-.67,3.65-.87,4.76-.1.53-.18.94-.24,1.24A2.75,2.75,0,0,1,393.39,365Z"/><path class="cls-12" d="M447.44,365.65c-.14,0,.1-36.84.53-82.27s.89-82.27,1-82.27-.1,36.83-.53,82.28S447.57,365.65,447.44,365.65Z"/><path class="cls-12" d="M456.89,366.28c0,.14-5.75.25-12.84.25s-12.84-.11-12.84-.25S437,366,444.05,366,456.89,366.15,456.89,366.28Z"/><path class="cls-12" d="M407.82,365.3a3.74,3.74,0,0,1-1,.1l-2.8.1-9.27.22c-3.62.08-6.9.11-9.27.08-1.19,0-2.15,0-2.81-.06a4.19,4.19,0,0,1-1-.09,4.19,4.19,0,0,1,1-.1l2.8-.09,9.27-.23c3.62-.08,6.9-.11,9.27-.08,1.19,0,2.15,0,2.81.06A4.19,4.19,0,0,1,407.82,365.3Z"/><path class="cls-12" d="M437.67,193.83a19.26,19.26,0,0,1-.07,3.13c-.11,1.93-.29,4.59-.53,7.53-.13,1.47-.21,2.87-.39,4.15a7.92,7.92,0,0,1-1.12,3.27,4.51,4.51,0,0,1-1.71,1.59,1.71,1.71,0,0,1-.82.25,5.24,5.24,0,0,0,2.22-2,8,8,0,0,0,1-3.14c.15-1.25.22-2.66.34-4.13.24-2.94.48-5.6.69-7.52A18.35,18.35,0,0,1,437.67,193.83Z"/><g class="cls-13"><path d="M410.46,176.57a9.49,9.49,0,0,0,8.22,2.37c2.07-.42,4-1.55,6.15-1.41,2.31.15,4.22,1.77,6.33,2.72,3.93,1.78,8.52,1.21,12.7.1,1.92-.51,3.92-1.2,5.16-2.76a9.22,9.22,0,0,0,1.59-4.29,44,44,0,0,0,.62-8.5,8.21,8.21,0,0,0-1.37-5.07,5.88,5.88,0,0,0-3.81-1.92,15.06,15.06,0,0,0-4.34.25,71.78,71.78,0,0,0-31.48,13.5"/></g><path class="cls-2" d="M430.75,167.18S404.27,179,401.58,179.61c-8.94,2-19.16-6.48-16.32-16.11,1.05-3.58,15.3-43.18,15.3-43.18l13.56,18.74-5.74,19.18,15-1Z"/><path class="cls-6" d="M422.18,157.4a4.65,4.65,0,0,1-1.05.14l-2.9.25c-2.46.19-5.91.43-9.83.68h-.33l.09-.32c.29-1,.58-2,.88-3,1.34-4.48,2.58-8.53,3.5-11.45l1.11-3.45a7,7,0,0,1,.47-1.25,8.15,8.15,0,0,1-.29,1.3c-.26.91-.58,2.09-1,3.5-.84,2.94-2,7-3.37,11.48-.3,1-.6,2-.89,3l-.23-.29c3.93-.23,7.38-.41,9.85-.52l2.9-.11A4.43,4.43,0,0,1,422.18,157.4Z"/><path class="cls-6" d="M427.79,168.72c0,.12-5.76,2.63-13,5.61s-13.11,5.29-13.16,5.17,5.76-2.63,13-5.61S427.74,168.6,427.79,168.72Z"/><path class="cls-12" d="M424.59,156.52l-2.09-10.17a1.32,1.32,0,0,1,1.05-1.55l.24,0,26.32.13a1.3,1.3,0,0,1,1.3,1.3.76.76,0,0,1,0,.15l-2.72,23.3a1.81,1.81,0,0,1-1.82,1.6l-17.16-.13a1.82,1.82,0,0,1-1.74-1.37Z"/><path class="cls-7" d="M422.27,151.17h0a2.75,2.75,0,0,1,2.59,1.76c.43,1.12,1.06,2.44,1.76,2.82,1.29.7,3.52,1.26,4.7.69s5.87-4.8,6.7-4.33,1.52,1.52.7,2.46-5.17,3.76-4.35,4.7,10-3.19,11.4-2.83,2.23,1.23,1.41,1.8-7.05,2.91-7.4,3.73c0,0,9.4-2.46,9.75-1.88s.94,1.53,0,1.88-9,2.47-9.75,2.82a17,17,0,0,1-3.63,1.06c-.25,0-2.09.62-3.78,1.2a8.3,8.3,0,0,1-5.85-.16l-.95-.38a3.73,3.73,0,0,1-2.31-3.68l.19-3.21-1-2.64Z"/><path class="cls-4" d="M438.07,148.7a1,1,0,1,1-1-1A1,1,0,0,1,438.07,148.7Z"/></g><g id="Desk"><path class="cls-12" d="M551.27,231H472.41v-2.94h75.93A2.94,2.94,0,0,1,551.27,231Z"/><rect class="cls-12" x="472.41" y="184.67" width="60.42" height="45.7" rx="3.34"/><rect class="cls-4" x="474.93" y="186.85" width="55.38" height="40.7"/><path class="cls-6" d="M530.31,227.54V186.85l.07.05H474.93l.08-.06v40.69l-.07-.06h-.11V186.65h55.52v40Z"/><path class="cls-2" d="M522,197.8H483.79l.07-.07v18.79l-.07-.07h-.07V197.73H522Z"/><path class="cls-2" d="M522,201s-8.56.07-19.12.07-19.13,0-19.13-.07,8.56-.07,19.13-.07S522,200.93,522,201Z"/><path class="cls-2" d="M521.74,203.48s-8.56.07-19.12.07-19.13,0-19.13-.07,8.56-.07,19.13-.07S521.74,203.45,521.74,203.48Z"/><path class="cls-2" d="M522,206.14s-8.56.07-19.12.07-19.13,0-19.13-.07,8.56-.07,19.13-.07S522,206.1,522,206.14Z"/><path class="cls-2" d="M522,208.73s-8.56.07-19.12.07-19.13,0-19.13-.07,8.56-.07,19.13-.07S522,208.69,522,208.73Z"/><path class="cls-2" d="M522,211.32s-8.56.06-19.12.06-19.13,0-19.13-.06,8.56-.07,19.13-.07S522,211.28,522,211.32Z"/><path class="cls-2" d="M483.77,213.9s8.56-.06,19.12-.06,19.13,0,19.13.06-8.56.07-19.13.07S483.77,213.94,483.77,213.9Z"/><path class="cls-2" d="M491.34,216.87s-.06-4.27-.06-9.53,0-9.54.06-9.54.07,4.27.07,9.54S491.38,216.87,491.34,216.87Z"/><path class="cls-2" d="M499,216.87s-.07-4.27-.07-9.53,0-9.54.07-9.54.07,4.27.07,9.54S499.05,216.87,499,216.87Z"/><path class="cls-2" d="M506.68,216.87s-.07-4.27-.07-9.53,0-9.54.07-9.54.07,4.27.07,9.54S506.72,216.87,506.68,216.87Z"/><path class="cls-2" d="M514.35,216.87s-.07-4.27-.07-9.53,0-9.54.07-9.54.07,4.27.07,9.54S514.39,216.87,514.35,216.87Z"/><path class="cls-2" d="M522,216.87s-.07-4.27-.07-9.53,0-9.54.07-9.54.07,4.27.07,9.54S522.06,216.87,522,216.87Z"/><path class="cls-9" d="M522,201l-.29.23-.86.6L517.66,204c-2.73,1.87-6.56,4.48-10.9,7.42h-.12l-3.26-1.09-4.41-1.5h.12L491.4,214h0l-5.55,1.92-1.52.51-.4.13h-.14l.13-.06.39-.16,1.5-.56,5.52-2h0l7.65-5.2h.12l4.41,1.49,3.25,1.1h-.11c4.35-2.93,8.19-5.5,11-7.34l3.26-2.15.88-.56Z"/><circle class="cls-9" cx="491.34" cy="213.9" r="0.47"/><circle class="cls-9" cx="499.01" cy="208.73" r="0.47"/><circle class="cls-9" cx="506.68" cy="211.27" r="0.47"/><circle class="cls-9" cx="514.43" cy="206.16" r="0.47"/><path class="cls-12" d="M522,213.9l-.15-.07c-.09-.07-.23-.15-.41-.26l-1.54-1-5.63-3.71h.12L506.75,214l-.1.07-.07-.1-4-5.43L499,203.62h.2c-2.93,3-5.57,5.6-7.69,7.75h0l-5.7,1.85-1.56.49-.41.12h-.14l.13-.06.4-.14,1.54-.54,5.67-1.94h0l7.65-7.78.11-.11.09.12,3.64,4.91,4,5.45h-.18l7.68-5.1h.12l5.57,3.78,1.52,1.05.39.28Z"/><circle class="cls-12" cx="499.01" cy="203.55" r="0.47"/><circle class="cls-12" cx="491.34" cy="211.32" r="0.47"/><circle class="cls-12" cx="506.68" cy="213.9" r="0.47"/><circle class="cls-12" cx="514.35" cy="209.19" r="0.47"/><path class="cls-2" d="M488.14,218.73a2.05,2.05,0,0,1-.74.07,2,2,0,0,1-.73-.07,2,2,0,0,1,.73-.07A2.05,2.05,0,0,1,488.14,218.73Z"/><path class="cls-2" d="M496,218.73a4.09,4.09,0,0,1-1.48,0A4.09,4.09,0,0,1,496,218.73Z"/><path class="cls-2" d="M503.82,218.73a4.09,4.09,0,0,1-1.48,0A4.09,4.09,0,0,1,503.82,218.73Z"/><path class="cls-2" d="M511.66,218.73a4.09,4.09,0,0,1-1.48,0A4.09,4.09,0,0,1,511.66,218.73Z"/><path class="cls-2" d="M519.49,218.73a2,2,0,0,1-.73.07,2.05,2.05,0,0,1-.74-.07,2.05,2.05,0,0,1,.74-.07A2,2,0,0,1,519.49,218.73Z"/><path class="cls-2" d="M482.69,216.48a1.36,1.36,0,0,1-.6.07,1.32,1.32,0,0,1-.59-.07,1.47,1.47,0,0,1,.59-.06A1.52,1.52,0,0,1,482.69,216.48Z"/><path class="cls-2" d="M482.69,213.47a1.36,1.36,0,0,1-.6.07,1.32,1.32,0,0,1-.59-.07,1.47,1.47,0,0,1,.59-.06A1.52,1.52,0,0,1,482.69,213.47Z"/><path class="cls-2" d="M482.69,210.46a1.36,1.36,0,0,1-.6.07,1.32,1.32,0,0,1-.59-.07,1.47,1.47,0,0,1,.59-.06A1.52,1.52,0,0,1,482.69,210.46Z"/><path class="cls-2" d="M482.69,207.45a1.36,1.36,0,0,1-.6.07,1.32,1.32,0,0,1-.59-.07,1.47,1.47,0,0,1,.59-.06A1.52,1.52,0,0,1,482.69,207.45Z"/><path class="cls-2" d="M482.69,204.44a1.36,1.36,0,0,1-.6.07,1.32,1.32,0,0,1-.59-.07,1.47,1.47,0,0,1,.59-.06A1.52,1.52,0,0,1,482.69,204.44Z"/><path class="cls-2" d="M482.69,201.43a1.36,1.36,0,0,1-.6.07,1.32,1.32,0,0,1-.59-.07,1.47,1.47,0,0,1,.59-.06A1.52,1.52,0,0,1,482.69,201.43Z"/><path class="cls-2" d="M482.69,198.42a1.36,1.36,0,0,1-.6.07,1.32,1.32,0,0,1-.59-.07,1.47,1.47,0,0,1,.59-.06A1.52,1.52,0,0,1,482.69,198.42Z"/><rect class="cls-9" x="483.57" y="191.29" width="10.99" height="0.78"/><path class="cls-6" d="M514.18,193.57s-6.87.06-15.34.06-15.34,0-15.34-.06,6.86-.07,15.34-.07S514.18,193.53,514.18,193.57Z"/><path class="cls-6" d="M503,222.49s-4.19.07-9.36.07-9.35,0-9.35-.07,4.19-.07,9.35-.07S503,222.45,503,222.49Z"/><path class="cls-6" d="M488.75,223.9a28.61,28.61,0,0,1-4,0,28.61,28.61,0,0,1,4,0Z"/><path class="cls-6" d="M519.93,222.24s-3,.07-6.65.07-6.65,0-6.65-.07,3-.07,6.65-.07S519.93,222.2,519.93,222.24Z"/><path class="cls-6" d="M512.7,223.15a32.08,32.08,0,0,1-4.16,0A36.08,36.08,0,0,1,512.7,223.15Z"/><polygon class="cls-6" points="185.82 388.68 202.35 242.53 216.36 247.48 193.47 388.68 185.82 388.68"/><rect class="cls-12" x="178.77" y="230.83" width="422.75" height="18.49"/><path class="cls-6" d="M268.33,231.1a.9.9,0,0,1-.14.2c-.1.13-.24.32-.44.56a8.91,8.91,0,0,1-2.12,1.7,11.84,11.84,0,0,1-4.09,1.37,29.25,29.25,0,0,1-5.69.25,54.58,54.58,0,0,1-6.86-.79,60.3,60.3,0,0,0-7.81-.93c-5.54-.2-11.56,1.25-17.58,3.41s-11.66,4.61-17.06,6.1a46.65,46.65,0,0,1-7.77,1.54,32,32,0,0,1-6.92,0,23.68,23.68,0,0,1-9.48-3,15,15,0,0,1-2.93-2.2l.21.13c.15.12.33.26.56.42a18.61,18.61,0,0,0,2.26,1.47,24.2,24.2,0,0,0,9.42,2.84,32.49,32.49,0,0,0,6.83,0,47,47,0,0,0,7.69-1.57c5.35-1.51,11-4,17-6.13s12.14-3.63,17.77-3.4a61.19,61.19,0,0,1,7.86,1,55.63,55.63,0,0,0,6.8.84,28.74,28.74,0,0,0,5.64-.17,12,12,0,0,0,4-1.26A10.7,10.7,0,0,0,268.33,231.1Z"/><path class="cls-6" d="M222.08,231.38a9,9,0,0,1-1.28,1.1A29.1,29.1,0,0,1,217,235a33.55,33.55,0,0,1-6.31,2.57,34.27,34.27,0,0,1-8.24,1.28,31.64,31.64,0,0,1-14.74-3,9.19,9.19,0,0,1-3.55-2.9,4.76,4.76,0,0,1-.58-1.12,1.19,1.19,0,0,1-.11-.42,11.34,11.34,0,0,0,.85,1.42,9.61,9.61,0,0,0,3.56,2.69,32.55,32.55,0,0,0,14.55,2.85,34.19,34.19,0,0,0,14.4-3.66,37.58,37.58,0,0,0,3.91-2.32A12,12,0,0,1,222.08,231.38Z"/><path class="cls-6" d="M321.28,243.1c.22.07.44.15.65.24a13.66,13.66,0,0,0,2,.52,11.49,11.49,0,0,0,7.39-1.16v.23a17.58,17.58,0,0,0-9.17-3.57,17.81,17.81,0,0,0-11.93,3.1,1.93,1.93,0,0,0-.93,1.2,1.29,1.29,0,0,0,.79,1.19,5.63,5.63,0,0,0,1.64.58l1.8.41c2.42.53,4.92,1.07,7.51,1.45a44.65,44.65,0,0,0,8,.54,31.42,31.42,0,0,0,4.1-.39c.68-.12,1.36-.25,2-.43a9.92,9.92,0,0,0,2-.64,6.54,6.54,0,0,0,2.56-1.85,2.92,2.92,0,0,0,.49-2.84,4.79,4.79,0,0,0-2-2.24,15.13,15.13,0,0,0-2.8-1.37,38.13,38.13,0,0,0-11.75-2.44,48.55,48.55,0,0,0-20,3.11,49.09,49.09,0,0,0-12.06,6.59c-1.29,1-2.29,1.78-2.92,2.36-.31.27-.56.47-.74.64a1.35,1.35,0,0,1-.27.2,2.38,2.38,0,0,1,.23-.24l.71-.68c.61-.6,1.59-1.42,2.86-2.45a48.92,48.92,0,0,1,32.26-10,38.77,38.77,0,0,1,11.9,2.44,15.85,15.85,0,0,1,2.9,1.41,5.34,5.34,0,0,1,2.22,2.5,3.45,3.45,0,0,1-.57,3.34,7,7,0,0,1-2.76,2,10.53,10.53,0,0,1-2.06.66c-.69.19-1.38.32-2.08.44a29.14,29.14,0,0,1-4.16.4,45.56,45.56,0,0,1-8.08-.56c-2.6-.39-5.11-.94-7.53-1.48l-1.8-.42a6.13,6.13,0,0,1-1.77-.63,2.34,2.34,0,0,1-.75-.65,1.49,1.49,0,0,1-.27-1,2.34,2.34,0,0,1,1.12-1.52A18.22,18.22,0,0,1,322.13,239a17.82,17.82,0,0,1,9.31,3.73l.17.14-.19.1a11.51,11.51,0,0,1-7.56,1.05A8.12,8.12,0,0,1,321.28,243.1Z"/><path class="cls-6" d="M375.68,231.58a2.5,2.5,0,0,1,.41.93,6.88,6.88,0,0,1,.28,2.78,13.76,13.76,0,0,1-4.11,8.07,21.1,21.1,0,0,1-3.85,3.27,17.18,17.18,0,0,1-3.71,1.8,17.93,17.93,0,0,1-2.69.67,4.19,4.19,0,0,1-1,.09c0-.1,1.42-.3,3.57-1.11a17.85,17.85,0,0,0,3.58-1.85,22.53,22.53,0,0,0,3.73-3.23,14,14,0,0,0,4.13-7.75A10.33,10.33,0,0,0,375.68,231.58Z"/><path class="cls-6" d="M451.59,248.34a24.6,24.6,0,0,0-1.94-1.88,13.59,13.59,0,0,0-6.61-3,14.74,14.74,0,0,0-5,.14,21.68,21.68,0,0,1-5.9.54c-2.17-.2-4.12-1.51-5.88-2.88a20,20,0,0,0-5.9-3.5,21.65,21.65,0,0,0-13.11-.2,30.68,30.68,0,0,0-9.69,4.91,54.67,54.67,0,0,0-5.63,4.8l-1.43,1.42a5.91,5.91,0,0,1-.52.48,3.32,3.32,0,0,1,.44-.55c.3-.35.76-.86,1.37-1.49a46.16,46.16,0,0,1,5.55-5,30.62,30.62,0,0,1,9.78-5.08,21.89,21.89,0,0,1,13.42.17,20.45,20.45,0,0,1,6,3.59c1.76,1.37,3.59,2.61,5.62,2.81a21.21,21.21,0,0,0,5.78-.5,15.15,15.15,0,0,1,5.16-.08,13.65,13.65,0,0,1,6.68,3.19A9.12,9.12,0,0,1,451.59,248.34Z"/><path class="cls-6" d="M519.37,231a4.07,4.07,0,0,1-.46.63c-.33.39-.76,1-1.44,1.72a39.28,39.28,0,0,1-6.18,5.48,49.76,49.76,0,0,1-10.7,5.94,45.14,45.14,0,0,1-6.91,2.2,35.28,35.28,0,0,1-7.72,1,38.29,38.29,0,0,1-14.66-3.05,48.34,48.34,0,0,1-10.65-6,41.8,41.8,0,0,1-6.13-5.53c-.68-.7-1.11-1.32-1.44-1.71a5.73,5.73,0,0,1-.47-.63,4.85,4.85,0,0,1,.55.56,21.74,21.74,0,0,0,1.51,1.64,44.72,44.72,0,0,0,6.2,5.38,49.59,49.59,0,0,0,10.61,5.89,38.27,38.27,0,0,0,14.47,3,35.61,35.61,0,0,0,7.62-1,44.47,44.47,0,0,0,6.84-2.15,50.31,50.31,0,0,0,10.67-5.79,42.27,42.27,0,0,0,6.24-5.32c.7-.67,1.15-1.28,1.51-1.65A4.45,4.45,0,0,1,519.37,231Z"/><path class="cls-6" d="M509.69,230.83a3,3,0,0,1-.36.29c-.24.17-.61.44-1.1.74a43,43,0,0,1-4.23,2.4,43.62,43.62,0,0,1-6.69,2.72,29.79,29.79,0,0,1-8.73,1.5,36,36,0,0,1-15.5-3.92,34,34,0,0,1-4.2-2.47c-.48-.31-.82-.6-1.06-.78a1.43,1.43,0,0,1-.35-.3,13,13,0,0,1,1.52.91,42.53,42.53,0,0,0,4.25,2.31A37.34,37.34,0,0,0,488.58,238a30.19,30.19,0,0,0,8.59-1.43,48.73,48.73,0,0,0,6.67-2.6c1.84-.88,3.3-1.67,4.29-2.24A15,15,0,0,1,509.69,230.83Z"/><path class="cls-6" d="M552.67,232.72a2,2,0,0,1-.49,0l-1.38-.09-1-.08h-4.09l-1.68.09-1.81.21c-1.26.11-2.58.41-4,.64a55.43,55.43,0,0,0-17.12,6.71c-1.19.77-2.36,1.45-3.36,2.22l-1.49,1.06L515,244.59c-.85.66-1.55,1.33-2.18,1.91l-.89.8-.69.71-1,1a1.89,1.89,0,0,1-.37.32,1.8,1.8,0,0,1,.29-.39l.91-1.06.67-.75.86-.84a29.07,29.07,0,0,1,2.15-2l1.3-1.09c.47-.36,1-.72,1.48-1.1,1-.79,2.17-1.49,3.37-2.28a53.23,53.23,0,0,1,17.26-6.77c1.42-.22,2.75-.5,4-.59l1.83-.19,1.7-.06c1.08-.06,2.06,0,2.92,0l1.2.06,1,.12,1.38.18A2.06,2.06,0,0,1,552.67,232.72Z"/><path class="cls-6" d="M570.77,229.1v.35a8.44,8.44,0,0,1-.09,1,14,14,0,0,1-1,3.54,20.67,20.67,0,0,1-7.89,9.07,41.28,41.28,0,0,1-11.12,4.75c-1.49.42-2.7.72-3.54.92a7.32,7.32,0,0,1-1.32.25,7,7,0,0,1,1.26-.45l3.49-1.08a44.72,44.72,0,0,0,10.94-4.82,19,19,0,0,0,9.23-13.53Z"/><path class="cls-6" d="M459.19,248a20.5,20.5,0,0,0-2.33-2.76,21.45,21.45,0,0,0-8.52-4.76,44.61,44.61,0,0,0-6.65-1.47c-2.42-.39-5-.69-7.77-1.16a64.32,64.32,0,0,1-8.44-2.12,55.41,55.41,0,0,0-9-2.17A37.55,37.55,0,0,0,398.93,236a66.08,66.08,0,0,0-7.13,3.21c-2.19,1.12-4.19,2.22-6,3.25-3.64,2.06-6.54,3.81-8.53,5l-2.3,1.41-.6.36a1.51,1.51,0,0,1-.22.11l.19-.16.57-.4c.51-.35,1.27-.86,2.25-1.49,2-1.27,4.83-3.08,8.45-5.18,1.82-1.05,3.82-2.18,6-3.32a63.39,63.39,0,0,1,7.17-3.27A37.66,37.66,0,0,1,416.54,233a54.52,54.52,0,0,1,9.09,2.21,67.23,67.23,0,0,0,8.38,2.13c2.71.48,5.32.8,7.75,1.2a45.2,45.2,0,0,1,6.7,1.55,21.16,21.16,0,0,1,8.54,5A10.91,10.91,0,0,1,459.19,248Z"/><path class="cls-6" d="M364,231.1a4,4,0,0,1-.06,1.19,14.66,14.66,0,0,1-.83,3.12,17.88,17.88,0,0,1-6.5,8.31,43.76,43.76,0,0,1-9.63,4.43c-1.28.43-2.34.74-3.07.93a5.83,5.83,0,0,1-1.16.24,5,5,0,0,1,1.1-.44l3-1.08a49.57,49.57,0,0,0,9.47-4.52,18.53,18.53,0,0,0,6.44-8A25.39,25.39,0,0,0,364,231.1Z"/><path class="cls-6" d="M265.83,249.32a6.75,6.75,0,0,1,1-1c.68-.62,1.71-1.46,3-2.47a88.31,88.31,0,0,1,10.78-6.94c4.39-2.42,8.5-4.35,11.48-5.72,1.49-.68,2.7-1.22,3.54-1.58a8.94,8.94,0,0,1,1.33-.52,6.58,6.58,0,0,1-1.24.7l-3.48,1.74c-2.93,1.45-7,3.43-11.38,5.83a106,106,0,0,0-10.81,6.79c-1.33,1-2.38,1.76-3.1,2.32A7.68,7.68,0,0,1,265.83,249.32Z"/><path class="cls-6" d="M285.75,231.86c0,.06-1-.12-2.73,0a19.38,19.38,0,0,0-7,2.14,64,64,0,0,0-9.16,6.15,46.43,46.43,0,0,1-5.52,3.57,30.57,30.57,0,0,1-6.6,2.55,61.37,61.37,0,0,1-13.5,1.62c-4.18.12-7.94,0-11.09.17a54.2,54.2,0,0,0-7.41.72c-.86.16-1.53.29-2,.4a5.4,5.4,0,0,1-.7.13,3.12,3.12,0,0,1,.67-.23c.45-.14,1.11-.31,2-.5a47.55,47.55,0,0,1,7.43-.89c3.16-.18,6.92-.13,11.08-.28a62.89,62.89,0,0,0,13.39-1.65,30.21,30.21,0,0,0,6.49-2.49,46.19,46.19,0,0,0,5.47-3.51,62.6,62.6,0,0,1,9.28-6.09,18.55,18.55,0,0,1,7.21-2,13.33,13.33,0,0,1,2,.06A4.19,4.19,0,0,1,285.75,231.86Z"/><path class="cls-6" d="M549.4,230.76c0,.14-17.66.26-39.45.26s-39.46-.12-39.46-.26,17.66-.26,39.46-.26S549.4,230.61,549.4,230.76Z"/><rect class="cls-6" x="327.16" y="222.53" width="56.97" height="8.51"/><rect class="cls-2" x="327.16" y="224.49" width="15.06" height="4.58"/><rect class="cls-9" x="332.24" y="214.02" width="56.97" height="8.51"/><rect class="cls-2" x="350.58" y="216.06" width="38.64" height="4.26"/><rect class="cls-6" x="323.73" y="205.51" width="56.97" height="8.51"/><rect class="cls-2" x="365.65" y="207.47" width="15.06" height="4.58"/></g><g id="Character_4" data-name="Character 4"><path class="cls-9" d="M523.93,356.72l6.79,16.87s-14.86,12.57-13.91,15.81l33.18-12-9.51-26.72Z"/><path class="cls-2" d="M540.46,368.44a1.44,1.44,0,0,1,1.5,1.21,1.39,1.39,0,0,1-1.19,1.49,1.51,1.51,0,0,1-1.57-1.29c0-.7.7-1.52,1.4-1.41"/><g class="cls-10"><path class="cls-3" d="M550,377.4l-1.06-2.66-31.42,12.5s-1.24,1.18-.7,2.16Z"/></g><path class="cls-6" d="M530.12,373.61c.07.16.9-.06,1.89.18s1.66.76,1.78.64-.45-1-1.65-1.23S530,373.48,530.12,373.61Z"/><path class="cls-6" d="M527.16,376.31c0,.17.82.19,1.62.68s1.22,1.15,1.38,1.09-.07-1-1.07-1.61S527.11,376.15,527.16,376.31Z"/><path class="cls-6" d="M526.69,381.19c.16,0,.1-.91-.64-1.65s-1.62-.81-1.64-.65.62.46,1.21,1.08S526.53,381.23,526.69,381.19Z"/><path class="cls-6" d="M529,369.6c.12.12.78-.37,1.72-.64s1.76-.24,1.79-.41-.86-.5-2-.17S528.88,369.5,529,369.6Z"/><path class="cls-6" d="M527.69,366.17a3.32,3.32,0,0,0,1.66-.61,7.94,7.94,0,0,0,1.55-1.16,10.49,10.49,0,0,0,.77-.86A1.87,1.87,0,0,0,532,363a.76.76,0,0,0-.24-.89A1,1,0,0,0,531,362a2.22,2.22,0,0,0-.59.31,5.82,5.82,0,0,0-.91.73,6.37,6.37,0,0,0-1.17,1.56,3,3,0,0,0-.49,1.7c.1,0,.29-.61.86-1.49a6.73,6.73,0,0,1,1.18-1.37,6.52,6.52,0,0,1,.85-.64c.31-.21.61-.33.76-.2s.07.07,0,.2a1.88,1.88,0,0,1-.27.42c-.22.29-.46.57-.69.82a9.82,9.82,0,0,1-1.39,1.19A12.38,12.38,0,0,0,527.69,366.17Z"/><path class="cls-6" d="M528,366.32a2.87,2.87,0,0,0-.14-1.76,6,6,0,0,0-.89-1.74,5.77,5.77,0,0,0-.79-.85,1.45,1.45,0,0,0-1.36-.46.86.86,0,0,0-.53.72,3,3,0,0,0,.05.67,4.11,4.11,0,0,0,1.74,2.58c1,.62,1.7.57,1.7.51a14.08,14.08,0,0,1-1.45-.85,4.17,4.17,0,0,1-1.09-1.38,3.16,3.16,0,0,1-.32-1c-.07-.37,0-.7.1-.71a1,1,0,0,1,.78.33,6.55,6.55,0,0,1,.74.75,7.06,7.06,0,0,1,.92,1.54C527.85,365.66,527.89,366.33,528,366.32Z"/><path class="cls-9" d="M555.16,353.63,562,370.5s-14.91,12.57-14,15.81l33.18-12-9.51-26.71Z"/><path class="cls-2" d="M571.69,365.35a1.44,1.44,0,0,1,1.5,1.21,1.39,1.39,0,0,1-1.19,1.49,1.51,1.51,0,0,1-1.57-1.28c0-.71.7-1.52,1.4-1.42"/><g class="cls-10"><path class="cls-3" d="M581.22,374.31l-1.06-2.65-31.42,12.49s-1.24,1.18-.7,2.16Z"/></g><path class="cls-6" d="M561.35,370.53c.07.16.9-.06,1.89.17s1.66.76,1.78.64-.45-1-1.65-1.23S561.27,370.39,561.35,370.53Z"/><path class="cls-6" d="M558.39,373.22c0,.17.83.2,1.62.68s1.22,1.16,1.38,1.09-.07-1-1.07-1.6S558.34,373.07,558.39,373.22Z"/><path class="cls-6" d="M557.92,378.1c.16,0,.1-.91-.64-1.64s-1.62-.82-1.64-.66.62.47,1.21,1.08S557.76,378.15,557.92,378.1Z"/><path class="cls-6" d="M560.23,366.51c.12.12.79-.37,1.72-.64s1.76-.24,1.8-.41-.87-.49-2-.16S560.11,366.41,560.23,366.51Z"/><path class="cls-6" d="M558.92,363.08a3.23,3.23,0,0,0,1.66-.61,7.94,7.94,0,0,0,1.55-1.16,10.36,10.36,0,0,0,.77-.85,2.12,2.12,0,0,0,.36-.57A.75.75,0,0,0,563,359a.93.93,0,0,0-.84-.12,2.25,2.25,0,0,0-.59.32,6.26,6.26,0,0,0-.91.72,6.37,6.37,0,0,0-1.17,1.56,3,3,0,0,0-.49,1.71c.1,0,.29-.62.86-1.49a6.43,6.43,0,0,1,1.18-1.37,5.91,5.91,0,0,1,.85-.64c.31-.22.61-.33.76-.21s.07.07,0,.2a1.88,1.88,0,0,1-.27.42,9.06,9.06,0,0,1-.69.82,10.59,10.59,0,0,1-1.39,1.2A13.08,13.08,0,0,0,558.92,363.08Z"/><path class="cls-6" d="M559.22,363.24a2.76,2.76,0,0,0-.14-1.77,5.92,5.92,0,0,0-.89-1.73,5.38,5.38,0,0,0-.79-.86,1.45,1.45,0,0,0-1.36-.45.84.84,0,0,0-.53.71,2.51,2.51,0,0,0,0,.67,4.11,4.11,0,0,0,1.74,2.58c1,.63,1.7.57,1.7.51a11.7,11.7,0,0,1-1.45-.85,4,4,0,0,1-1.09-1.37,3.89,3.89,0,0,1-.32-1c-.07-.38,0-.71.1-.72a1,1,0,0,1,.78.33,6.64,6.64,0,0,1,.74.76,6.35,6.35,0,0,1,.92,1.54C559.08,362.58,559.12,363.24,559.22,363.24Z"/><path class="cls-14" d="M578,135.07,574.87,161l4.93,12-19.5.69-4-9.35s-9.66-1.09-10-7.27c-.25-4,6.12-32.73,6.12-32.73Z"/><path class="cls-6" d="M571.79,166c2.3-1.56,3.46-2.6,4.47-5.19s1.66-5.32,2.81-7.84,2.95-5.05,4.14-7.72,1.8-5.8.64-8.47c0,0-.42-3.43-5-4.68,0,0-2.61-7.27-8.59-8-8.14-.92-7.86-3.31-13.17-5.35a5.16,5.16,0,0,0-6.87,2.45l0,0s-3.27,1.49-4,4.48v.09a7.14,7.14,0,0,0,3.32,7.81l1,.57a7,7,0,0,1,2.5,2c.88,1.35.69,3.11.31,4.66a12.62,12.62,0,0,0-.74,4.72c.07.54.39,1.18.93,1.16s.81-.9,1-1.52c.57-1.81,3.24-2.71,4.62-1a2.88,2.88,0,0,1,.12,3.62c-.89,1.17-2.46,1.9-3,3.28-1,2.34,1.44,5.06,2.25,6.61a9.93,9.93,0,0,0,1,1.57,23,23,0,0,0,6.81,5.92,6.25,6.25,0,0,0,6.38.32"/><path class="cls-14" d="M491.56,197.32h0c-3.42-1.45-5.62-2.77-7.92-3.61-2.82-1-3.91-1.65-3.69-2.16.3-.69.16-.44,5.56.7,0,0-7.7-1.69-5.74-2.64.86-.42,7.27.92,7.27.92-5.25-.6-7.13-1.66-7-2.44.19-1.15,8,.54,8,.54a60.9,60.9,0,0,1-6.93-1.7c-1-.53.27-1,1.42-1.15s8.89.12,11.09.09a1.3,1.3,0,0,0,1.38-1.22v-.15c-.64-3.12.53-5.9,1.2-6.5s1.72.11,1.5,1.08a12.12,12.12,0,0,0,.05,3.24,7.38,7.38,0,0,0,.71,2.47c.44.9.85,1.65,1.21,2.27L510.58,199l-4.7,11.31Z"/><path class="cls-15" d="M488.74,193a14.79,14.79,0,0,1-3.73-.63,14.32,14.32,0,0,1-3.62-1.11A27.74,27.74,0,0,1,488.74,193Z"/><path class="cls-15" d="M489.4,191a16.81,16.81,0,0,1-4-.45,17.17,17.17,0,0,1-3.93-.93A32.4,32.4,0,0,1,489.4,191Z"/><path class="cls-15" d="M490.07,188.87a15.25,15.25,0,0,1-3.81-.36,14.43,14.43,0,0,1-3.73-.85,15.25,15.25,0,0,1,3.81.36A14.43,14.43,0,0,1,490.07,188.87Z"/><path class="cls-6" d="M563,248.14l-46.61,7a22.66,22.66,0,0,0-15.62,10h0A22.69,22.69,0,0,0,497.93,284l24.61,78.49L544.77,354l-13.65-69.39,72.11-4.83V248.14L563,246.69"/><path class="cls-6" d="M595.78,248.14l-46.61,7a22.66,22.66,0,0,0-15.62,10h0A22.72,22.72,0,0,0,530.76,284l21.46,73.82,24.83-6.55-13-66.63,48.17-3.23V249.75l-16.34-3.06"/><path class="cls-9" d="M503.15,190c1-.13,32.63,24.55,32.63,24.55l-20.21,8-20.49-20.33S493.78,191.29,503.15,190Z"/><path class="cls-9" d="M605.55,180.31c-5.27-7.65-14.26-10.3-17.37-11a9,9,0,0,0-2-.22h-27a18.87,18.87,0,0,0-13.09,5.2,64.33,64.33,0,0,0-10.35,13.33l-13.57,18.86-8.34,14,1.7,2.14a14,14,0,0,0,16.75,4.26c2.75-1.28,4.76-3.67,6.63-6.42,3.41-5,7-10.42,9.32-14.55l13.61,38.89-7.28,4.62,30.66,12.4,31.92-13.66-8.81-31.41h0s14,1.36,15.27-4.13S612,189.68,605.55,180.31Z"/><path class="cls-4" d="M602.39,194.55a128.74,128.74,0,0,1,6.37,11.79c.26.52,1,.06.78-.46a99.57,99.57,0,0,0-6.64-11.62c-.2-.32-.71,0-.51.29Z"/><path class="cls-4" d="M608.73,192.28a128.74,128.74,0,0,1,6.37,11.79c.26.52,1,.06.78-.46A100.26,100.26,0,0,0,609.24,192c-.2-.32-.71,0-.51.29Z"/><path class="cls-4" d="M596.26,195.45c1.35,5.23,2.41,10.53,3.27,15.85.12.75,1.26.43,1.13-.31a104.1,104.1,0,0,0-3.92-15.67.25.25,0,0,0-.48.13Z"/><path class="cls-4" d="M581.82,196.94a63.45,63.45,0,0,1,2.63,15.71c0,.74,1.18.75,1.15,0a52.2,52.2,0,0,0-3.22-15.86c-.12-.35-.67-.21-.56.15Z"/><path class="cls-4" d="M593.63,209.68a71,71,0,0,1-3.49-14.8c-.07-.69-1.1-.72-1.09,0a29.7,29.7,0,0,0,4,15c.19.29.68.11.57-.24Z"/><path class="cls-4" d="M575.37,197.36a66.71,66.71,0,0,0,2.18,14.94.55.55,0,0,0,.74.18.54.54,0,0,0,.26-.46c-.94-4.92-1.84-9.79-2.65-14.73,0-.32-.58-.25-.57.07Z"/><path class="cls-4" d="M567.63,198.25c1.35,5.47,2.34,11,3.33,16.53.09.52,1,.41.94-.13a90.08,90.08,0,0,0-3.9-16.51.2.2,0,0,0-.28-.1.2.2,0,0,0-.12.21Z"/><path class="cls-4" d="M560.55,199.53a65.93,65.93,0,0,0,1.67,15.27c.14.54.9.3.82-.23a139.89,139.89,0,0,1-1.83-15,.33.33,0,1,0-.66,0Z"/><path class="cls-4" d="M537.93,213.5c4.24-4,8-9,11.48-13.62.32-.41-.38-.94-.72-.55-3.8,4.36-8,9-11,13.94-.12.18.13.36.28.23Z"/><path class="cls-4" d="M533,209.05a48,48,0,0,0,9.84-12.1.46.46,0,0,0-.8-.47c-2.93,4.27-6.2,8.16-9.39,12.21a.25.25,0,0,0,.35.36Z"/><path class="cls-4" d="M536,194.51c-2.82,3.16-5.73,6.26-8.4,9.55-.36.44.24,1.07.63.63,2.83-3.16,5.43-6.55,8.11-9.84.19-.24-.13-.58-.34-.34Z"/><path class="cls-4" d="M553.36,200.28c1.2,5.08,1.91,10.23,3,15.32.11.48.93.38.88-.12A115.49,115.49,0,0,0,554,200.1a.35.35,0,0,0-.68.18Z"/><g class="cls-13"><path d="M594.26,211.19a7.42,7.42,0,0,0-5.72,2.86,17.62,17.62,0,0,0-3,5.88,61.27,61.27,0,0,0-3.18,20.8c0,2.15.07,4.64-1.56,6.05-1.4,1.2-3.47,1.11-5.19,1.79-2.75,1.07-5.12,4.75-4.31,7.59L586.73,262Z"/></g><path class="cls-6" d="M577,243.76a5.8,5.8,0,0,1-1.76.68,20.61,20.61,0,0,1-9,.4,5,5,0,0,1-1.81-.53q3.15.31,6.32.31C574.17,244.48,576.9,243.6,577,243.76Z"/><polygon class="cls-12" points="521.45 285.93 509.19 388.81 514.49 388.81 527.51 285.93 521.45 285.93"/><polygon class="cls-12" points="570.32 285.93 581.58 388.81 587.36 388.81 576.38 285.93 570.32 285.93"/><polyline class="cls-12" points="630.94 285.93 640.32 388.81 646.76 388.81 636.05 285.93 628.28 285.93"/><path class="cls-12" d="M599.62,197.56h45.44a7.07,7.07,0,0,1,7.07,7.07,6.73,6.73,0,0,1-.07,1L641.3,280.72a6.08,6.08,0,0,1-6,5.21H576.4Z"/><path class="cls-12" d="M515.4,285.93c.11-1.13,0-6.82,0-6.82l56.36,1.06a8.66,8.66,0,0,0,8.7-7.25l11.23-68.63a8,8,0,0,1,7.93-6.73h0l-12.26,77.27a13.18,13.18,0,0,1-13,11.1Z"/><path class="cls-6" d="M599.62,197.56v.23l-.08.7c-.09.65-.22,1.54-.37,2.66-.36,2.35-.86,5.68-1.47,9.77-1.3,8.28-3.08,19.65-5,32.2-1,6.29-2,12.27-2.84,17.72q-.66,4.1-1.26,7.74a54.46,54.46,0,0,1-1.36,6.7,18.47,18.47,0,0,1-2.33,5.16,13.09,13.09,0,0,1-2.9,3.13,9.41,9.41,0,0,1-2.36,1.31,4.67,4.67,0,0,1-.9.27,11.71,11.71,0,0,0,3.13-1.74,15.49,15.49,0,0,0,5-8.23,55.72,55.72,0,0,0,1.3-6.67c.38-2.43.78-5,1.2-7.74.86-5.45,1.81-11.44,2.8-17.73,2-12.54,3.86-23.9,5.19-32.18.69-4.08,1.24-7.39,1.64-9.74.19-1.12.35-2,.47-2.65,0-.27.1-.5.13-.68A.93.93,0,0,0,599.62,197.56Z"/><path class="cls-6" d="M602.13,198.05a22.22,22.22,0,0,1-2.74-3.87A21.48,21.48,0,0,1,597.1,190a42.73,42.73,0,0,1,5,8Z"/><path class="cls-6" d="M516.36,214.68a40.85,40.85,0,0,1,3.52-5.48,43.69,43.69,0,0,1,4-5.19,41,41,0,0,1-3.52,5.49A41.8,41.8,0,0,1,516.36,214.68Z"/><path class="cls-6" d="M554.38,196.5a7.07,7.07,0,0,1-.62,1.15L552,200.72c-1.54,2.58-3.69,6.13-6.19,10s-4.84,7.27-6.59,9.7c-.88,1.22-1.6,2.2-2.12,2.86a5.37,5.37,0,0,1-.84,1,6.69,6.69,0,0,1,.68-1.12l2-2.95c1.68-2.48,4-5.93,6.47-9.77l6.3-9.88c.81-1.27,1.46-2.29,1.93-3A5.17,5.17,0,0,1,554.38,196.5Z"/></g><g id="Character_2" data-name="Character 2"><path class="cls-6" d="M281.88,80.48c-2.07-3-.79-7.64,2.3-9.63a9.33,9.33,0,0,1,10.34.73c2.94,2.22,3.76,6.07,3.28,9.36-.36,2.46-4.2,7.45-7.86,5.26"/><path class="cls-6" d="M259.83,101.28c-8.13-15.75,8.89-24.71,18.53-22.5,9.06,2.08,13.1,6.33,14.86,12.24a29.44,29.44,0,0,1,0,18.19c-1,2.87-3,5.82-6,6.32"/><path class="cls-14" d="M284.51,87.45a3,3,0,0,1,2.87,3h0l.32,41.09c.18,4.85-6.76,7.94-11.95,8.09h0c-5.24.15-5.54-2.41-5.85-7-.51-7.69-.65-10.58-.65-10.54s-6.67-.77-8.47-9.33c-.9-4.26-1-11.31-1-17.08.07-5.2,3.18-11.72,8.37-11.44Z"/><path class="cls-15" d="M269.25,122a22,22,0,0,0,11.41-3.66s-2.51,6.07-11.19,5.69Z"/><path class="cls-6" d="M262.27,84.74a8.36,8.36,0,0,0,3.5,8,16.82,16.82,0,0,0,4.92,1.93l3.29.9a27.13,27.13,0,0,0,7.42,1.29c-.13,2.82-.46,4.72,1.06,7.1,1.36,2.14,3.34,3.64,5.91,3a85.06,85.06,0,0,0,.95-16.87,7.89,7.89,0,0,0-.85-4.21c-1.3-2-4-2.4-6.43-2.59l-10-.77a20.41,20.41,0,0,0-4.94,0,6.84,6.84,0,0,0-4.26,2.3"/><path class="cls-12" d="M294.78,96.92h-.38a2.83,2.83,0,0,1-1.07-.24,4.53,4.53,0,0,1-1.41-1q-.76-.81-1.44-1.68a8.29,8.29,0,0,0-2-1.83,10.78,10.78,0,0,0-2.82-1.3,24,24,0,0,0-7.11-.78,33,33,0,0,1-7.23-.5,10.35,10.35,0,0,1-5.21-2.77A8.47,8.47,0,0,1,264.74,85a6.74,6.74,0,0,1-.58-1.63,4.47,4.47,0,0,1-.07-1.46c.05,0,0,.53.2,1.43a5.91,5.91,0,0,0,.62,1.57,8.32,8.32,0,0,0,1.38,1.75,10.16,10.16,0,0,0,5.1,2.64,33.64,33.64,0,0,0,7.16.46,23.72,23.72,0,0,1,7.21.82,11,11,0,0,1,2.88,1.37,8.29,8.29,0,0,1,2,1.92c.52.67.94,1.3,1.39,1.78a4.65,4.65,0,0,0,1.33,1A3.47,3.47,0,0,0,294.78,96.92Z"/><path class="cls-12" d="M293.4,91.62a2.71,2.71,0,0,0-.17-1.23,5,5,0,0,0-2.59-2.13,17.07,17.07,0,0,0-4.92-1.32,44,44,0,0,0-6.29,0,30,30,0,0,1-6.35-.22,12.76,12.76,0,0,1-4.83-1.88,8.34,8.34,0,0,1-2.47-2.48c-.16-.28-.3-.56-.43-.85a1.63,1.63,0,0,1-.11-.31,10.07,10.07,0,0,0,.66,1.09,8.55,8.55,0,0,0,2.48,2.35,12.69,12.69,0,0,0,4.76,1.76,30.58,30.58,0,0,0,6.27.2,42.06,42.06,0,0,1,6.35,0,16.74,16.74,0,0,1,5,1.42,5,5,0,0,1,2.6,2.3,2,2,0,0,1,.13,1A.8.8,0,0,1,293.4,91.62Z"/><path class="cls-12" d="M297.18,75.07a1.26,1.26,0,0,1,.14.57,3.66,3.66,0,0,1-.28,1.6,9,9,0,0,1-3.61,3.83,7.84,7.84,0,0,1-5.12,1.13,9.24,9.24,0,0,1-1.57-.29,2.31,2.31,0,0,1-.56-.19c0-.07.82.15,2.15.24a9,9,0,0,0,2.31-.15,8.26,8.26,0,0,0,2.62-1,9.25,9.25,0,0,0,3.55-3.63A4.26,4.26,0,0,0,297.18,75.07Z"/><path class="cls-12" d="M294.06,71.26a1.88,1.88,0,0,1,0,.58,8.32,8.32,0,0,1-.3,1.55,10.25,10.25,0,0,1-7.05,7.12,8.19,8.19,0,0,1-1.55.31,1.88,1.88,0,0,1-.58,0c0-.06.81-.13,2.05-.55a10.87,10.87,0,0,0,6.9-7C293.94,72.08,294,71.25,294.06,71.26Z"/><path class="cls-12" d="M293.21,108.68a1.69,1.69,0,0,1,0-.45v-1.31a14.64,14.64,0,0,0-.88-4.68,9.23,9.23,0,0,0-1.68-2.79,7.71,7.71,0,0,0-3.08-2.07c-2.5-.95-5.51-.79-8.6-.92a26.41,26.41,0,0,1-8.61-1.65,14.56,14.56,0,0,1-5.83-4.12,10.9,10.9,0,0,1-2.24-4.27,7.92,7.92,0,0,1-.23-1.29,1.77,1.77,0,0,1,0-.46,11.78,11.78,0,0,0,.38,1.72,11.19,11.19,0,0,0,2.3,4.14,14.29,14.29,0,0,0,5.76,4,26.28,26.28,0,0,0,8.5,1.6c3.07.13,6.12,0,8.71,1a7.82,7.82,0,0,1,3.17,2.18,9.26,9.26,0,0,1,1.7,2.89,13.85,13.85,0,0,1,.79,4.77v1.31A2,2,0,0,1,293.21,108.68Z"/><path class="cls-9" d="M291.24,86.43A15.48,15.48,0,0,1,290,85.11a20.36,20.36,0,0,0-7.08-4.9,16.28,16.28,0,0,1-1.67-.69A6.69,6.69,0,0,1,283,80a17.39,17.39,0,0,1,3.91,2,16.64,16.64,0,0,1,3.27,3A7.07,7.07,0,0,1,291.24,86.43Z"/><path class="cls-14" d="M286.46,101.78c.12-.06,4.52-2.28,4.83,2.89s-4.94,4.41-5,4.26S286.46,101.78,286.46,101.78Z"/><path class="cls-14" d="M210.44,148s-3.47-6.82-4.35-7.48-8.64-3.36-9.29-3.14-10,2-8.9,3.06,7.6-.22,7.6-.22l.88.43s-5.62,1-6.8,1.69-.68,2,.35,1.86,5.91-1.15,6.2-1-5.3,1.41-5.9,1.78c-.81.49-.87,1.94.16,1.85.6-.05,5.88-1.5,5.88-1.5a46.72,46.72,0,0,0-4.56,2.06.77.77,0,0,0,.8,1.3c.63-.14,3.57-1.61,4.41-1.8,0,0,.78.19,1.52,1.76s5.91,5.5,5.91,5.5Z"/><path class="cls-14" d="M208.3,148.13a1.85,1.85,0,0,1-2.17,0c-.68-.39-1.2-1-1.84-1.44-1.93-1.31-4.66-.95-6.52-2.35-.26-.19-.52-.51-.38-.81s.49-.31.79-.31l7.71.07"/><path class="cls-15" d="M205.89,143.32a2.9,2.9,0,0,0-.83-.1c-.54,0-1.32-.06-2.28-.08l-3.37-.08h-1a1.52,1.52,0,0,0-1.13.25.66.66,0,0,0-.12.72,1.35,1.35,0,0,0,.4.49,4.74,4.74,0,0,0,1,.58,29.16,29.16,0,0,0,4,1.08,5.79,5.79,0,0,1,1.59.7,13,13,0,0,1,1.22,1,2.73,2.73,0,0,0,2.18.73c.57-.12.75-.43.73-.43a2.23,2.23,0,0,1-.75.26,2.63,2.63,0,0,1-2-.8c-.39-.35-.79-.69-1.21-1a6.12,6.12,0,0,0-1.68-.78,33.44,33.44,0,0,1-3.95-1.09,5.3,5.3,0,0,1-.89-.52c-.25-.2-.38-.47-.24-.57a1.61,1.61,0,0,1,.81-.13h4.37c1,0,1.74,0,2.28-.06A3.2,3.2,0,0,0,205.89,143.32Z"/><path class="cls-15" d="M187.92,140.46a4.22,4.22,0,0,0,1.71.45,11.32,11.32,0,0,0,1.93.05c.71-.09,1.49-.22,2.31-.34l1.75-.29h-.11a25.23,25.23,0,0,0,4.06,1.21,25.18,25.18,0,0,0-3.92-1.6h-.11l-1.73.26-2.28.37a14.59,14.59,0,0,1-1.87,0C188.59,140.54,187.93,140.4,187.92,140.46Z"/><path class="cls-9" d="M237.66,344.4l8.4,15.6s-13,13.78-11.76,16.81l30.83-15.2L253,336.77Z"/><path class="cls-2" d="M254.94,354a1.42,1.42,0,0,1,1.58,1,1.34,1.34,0,0,1-1,1.57,1.47,1.47,0,0,1-1.66-1.07,1.39,1.39,0,0,1,1.2-1.53"/><g class="cls-10"><path class="cls-3" d="M265.13,361.61l-1.31-2.46-29.07,15.5s-1.08,1.27-.45,2.16Z"/></g><path class="cls-6" d="M245.49,360.09c.08.15.86-.16,1.84,0s1.69.56,1.8.43-.55-.89-1.73-1S245.39,360,245.49,360.09Z"/><path class="cls-6" d="M242.91,363c0,.16.82.1,1.65.48s1.3,1,1.45.91-.18-1-1.22-1.44S242.85,362.88,242.91,363Z"/><path class="cls-6" d="M243,367.8c.15,0,0-.89-.81-1.53s-1.65-.61-1.66-.46.65.39,1.3.92S242.83,367.86,243,367.8Z"/><path class="cls-6" d="M244,356.32c.13.11.72-.44,1.6-.8s1.67-.42,1.69-.59-.89-.39-1.92.05S243.84,356.24,244,356.32Z"/><path class="cls-6" d="M242.33,353.14c0,.07.67-.13,1.54-.77a7.62,7.62,0,0,0,1.37-1.29,8.44,8.44,0,0,0,.66-.91,1.88,1.88,0,0,0,.28-.59.74.74,0,0,0-.32-.83.87.87,0,0,0-.83,0,2,2,0,0,0-.54.36,6.8,6.8,0,0,0-.8.81,5.68,5.68,0,0,0-1,1.63,2.86,2.86,0,0,0-.29,1.7c.09,0,.21-.62.66-1.53a7.2,7.2,0,0,1,1-1.45,5.58,5.58,0,0,1,.75-.71c.28-.25.56-.39.72-.29s.07.06.05.19a1.78,1.78,0,0,1-.21.44c-.19.31-.39.6-.59.87a9.91,9.91,0,0,1-1.21,1.3C242.85,352.74,242.29,353.06,242.33,353.14Z"/><path class="cls-6" d="M242.63,353.26a2.7,2.7,0,0,0-.33-1.69,5.61,5.61,0,0,0-1-1.59,6.1,6.1,0,0,0-.86-.74A1.42,1.42,0,0,0,239,349a.81.81,0,0,0-.44.75,2.34,2.34,0,0,0,.12.64,3.81,3.81,0,0,0,.52,1,3.91,3.91,0,0,0,1.44,1.27c1,.5,1.71.37,1.7.31a15.37,15.37,0,0,1-1.49-.67,3.88,3.88,0,0,1-1.21-1.21,3.66,3.66,0,0,1-.41-.9c-.11-.36-.12-.68,0-.71a1,1,0,0,1,.79.24,5.46,5.46,0,0,1,.79.65,6,6,0,0,1,1.06,1.39C242.42,352.64,242.54,353.28,242.63,353.26Z"/><path class="cls-9" d="M245.89,357.91l-3.2,17.42s-18.78,2.6-19.69,5.77l33.57,7.41,6.09-26.95Z"/><path class="cls-2" d="M253.39,376.17a1.42,1.42,0,0,1,.61,1.77,1.36,1.36,0,0,1-1.76.62,1.5,1.5,0,0,1-.63-1.89,1.41,1.41,0,0,1,1.9-.43"/><g class="cls-10"><path class="cls-3" d="M256.57,388.51l.51-2.74-32.38-6.08s-1.63.32-1.7,1.41Z"/></g><path class="cls-6" d="M242.19,375c0,.17.77.42,1.46,1.13s1,1.48,1.13,1.45.13-1-.72-1.87S242.18,374.88,242.19,375Z"/><path class="cls-6" d="M238.34,375.72c-.07.15.58.59,1,1.4s.41,1.59.57,1.62.48-.88,0-1.88S238.38,375.56,238.34,375.72Z"/><path class="cls-6" d="M235.42,379.49c.14.07.55-.7.32-1.69s-.91-1.52-1-1.4.27.71.44,1.53S235.26,379.44,235.42,379.49Z"/><path class="cls-6" d="M243.36,371.15c0,.16.83.1,1.75.37s1.57.72,1.68.6-.45-.86-1.53-1.16S243.3,371,243.36,371.15Z"/><path class="cls-6" d="M244.07,367.65a3.27,3.27,0,0,0,1.68.36,8.47,8.47,0,0,0,1.88-.15,6.64,6.64,0,0,0,1.08-.3,2.49,2.49,0,0,0,.59-.29.74.74,0,0,0,.27-.85,1,1,0,0,0-.64-.53,2.35,2.35,0,0,0-.65-.06,6,6,0,0,0-1.12.13,5.91,5.91,0,0,0-1.78.68c-.93.55-1.34,1.1-1.29,1.14a13.92,13.92,0,0,0,1.48-.78,7.16,7.16,0,0,1,1.69-.51,6.74,6.74,0,0,1,1-.08c.37,0,.68,0,.73.22s0,.1-.07.18a1.78,1.78,0,0,1-.44.21,8.88,8.88,0,0,1-1,.31,10.55,10.55,0,0,1-1.76.27A10.11,10.11,0,0,0,244.07,367.65Z"/><path class="cls-6" d="M244.23,367.93a3.05,3.05,0,0,0,.8-1.53,6,6,0,0,0,.18-1.89,5.18,5.18,0,0,0-.21-1.11,1.41,1.41,0,0,0-.88-1.09.8.8,0,0,0-.81.32,2.63,2.63,0,0,0-.31.57,4.47,4.47,0,0,0-.25,1.14,4,4,0,0,0,.34,1.89c.46,1,1.1,1.36,1.13,1.31a13.4,13.4,0,0,1-.75-1.46,4.09,4.09,0,0,1-.18-1.7,3.48,3.48,0,0,1,.24-1c.14-.35.33-.61.46-.54a1.29,1.29,0,0,1,.47.68,5.74,5.74,0,0,1,.21,1,6.41,6.41,0,0,1,0,1.75A17,17,0,0,0,244.23,367.93Z"/><path class="cls-6" d="M261.28,197.53l-51.56,66.41A24.08,24.08,0,0,0,206,286.45l37.36,76.18,12.52-21.29-21.39-60.17,27.9-33.57,12.44-51.36Z"/><path class="cls-6" d="M241.23,372.72l23.1-161.17,1.14-14.42,28.32-1.53s9.9,15.42,10.37,24.86-25.77,75.47-25.77,75.47l-3.76,26.35-15.85,55.8Z"/><path class="cls-12" d="M265.23,200.13c.14,0-5.11,38.68-11.74,86.33s-12.11,86.28-12.26,86.26,5.12-38.66,11.75-86.33S265.09,200.11,265.23,200.13Z"/><path class="cls-12" d="M234.28,281.25c-.06.07-.63-.42-1.69-1a10.73,10.73,0,0,0-9-.35c-1.09.47-1.7.92-1.75.84a4.31,4.31,0,0,1,1.6-1.17,9.75,9.75,0,0,1,9.3.36A4.36,4.36,0,0,1,234.28,281.25Z"/><path class="cls-12" d="M295.46,205.5a3.57,3.57,0,0,1-.61.36,10,10,0,0,1-1.83.65,12.56,12.56,0,0,1-2.86.4,13.94,13.94,0,0,1-6.85-1.57,13.42,13.42,0,0,1-2.4-1.61,9.93,9.93,0,0,1-1.36-1.39c-.28-.36-.42-.57-.39-.59s.71.72,2,1.69a15.71,15.71,0,0,0,2.38,1.47,16.66,16.66,0,0,0,3.22,1.14,16.25,16.25,0,0,0,3.4.38,13.66,13.66,0,0,0,2.78-.28C294.5,205.83,295.42,205.41,295.46,205.5Z"/><path class="cls-12" d="M212.72,300.25a11.65,11.65,0,0,1-.89-1.58c-.55-1-1.33-2.53-2.25-4.4a66,66,0,0,1-2.93-6.74,35.53,35.53,0,0,1-1.25-4.16,23.45,23.45,0,0,1-.64-4.65,19.25,19.25,0,0,1,.41-4.67,25.56,25.56,0,0,1,1.35-4.16,36.69,36.69,0,0,1,3.62-6.4c1.2-1.71,2.26-3,3-3.93.37-.45.67-.79.87-1s.32-.35.33-.33a14.76,14.76,0,0,1-1,1.48c-.7.93-1.71,2.28-2.86,4a38.7,38.7,0,0,0-3.49,6.38,26.36,26.36,0,0,0-1.29,4.07,19.39,19.39,0,0,0-.39,4.56,23.18,23.18,0,0,0,.62,4.54,36.7,36.7,0,0,0,1.21,4.12c.9,2.59,1.93,4.85,2.8,6.74l2.1,4.47.55,1.23A2.13,2.13,0,0,1,212.72,300.25Z"/><polygon class="cls-9" points="255.18 137.86 236.03 159.9 211.21 146.16 202.53 154.85 234.76 176.94 249.15 176.72 261.42 152.53 255.18 137.86"/><path class="cls-9" d="M248.18,154.13,258.84,199l35.75-3,4.6-35.31,9.57-15.07s-2.37-14.17-18.09-14.28l-2.55-6-18.84,1.58L267,132.37s-15.51,1.11-15.15,15.19Z"/><g class="cls-13"><path d="M257.23,192.27a18.66,18.66,0,0,0,16-3.06,5.69,5.69,0,0,1,2.13-1.23,5.11,5.11,0,0,1,2.56.37,47.81,47.81,0,0,0,11.86,2.12,8.25,8.25,0,0,0,4.11-.55,3.24,3.24,0,0,0,1.91-3.39,108.67,108.67,0,0,0-18.6-5,25.43,25.43,0,0,0-9.94-.27c-3.25.73-6.29,2.67-9.15,4.55a4,4,0,0,0-1.82,1.88c-.57,1.66,1.1,3.38.76,5.1"/></g><path class="cls-9" d="M284,145c1,.9,14.31,23.71,14.31,23.71l-21.25,4.64-.73,10.47,20.89,3,9.39,1a12.08,12.08,0,0,0,10.89-4.69h0a12.09,12.09,0,0,0,1.5-12l-10.84-27.62Z"/><path class="cls-6" d="M304.19,168.63c0,.14-6,1.31-13.5,2.62s-13.57,2.24-13.59,2.1,6-1.31,13.5-2.62S304.17,168.49,304.19,168.63Z"/><path class="cls-6" d="M299.16,169.47a5.94,5.94,0,0,1-.56-1.13l-1.38-3.17c-1.13-2.69-2.67-6.41-4.34-10.53l-2.33-5.83a10.47,10.47,0,0,1-.92-5.09,5.12,5.12,0,0,1,1.53-3.13,3.89,3.89,0,0,1,.77-.56c.19-.09.3-.14.31-.12a6.46,6.46,0,0,0-.94.83,5.15,5.15,0,0,0-1.31,3,10.31,10.31,0,0,0,1,4.86l2.36,5.81c1.67,4.13,3.15,7.87,4.2,10.59.49,1.29.9,2.37,1.22,3.23A5.41,5.41,0,0,1,299.16,169.47Z"/><path class="cls-6" d="M310.06,187.92a6.65,6.65,0,0,1-1.34.05c-.86,0-2.11,0-3.64-.11-3.08-.16-7.31-.54-12-1.19s-8.84-1.37-11.86-1.9l-3.58-.64a6.57,6.57,0,0,1-1.31-.31,7.5,7.5,0,0,1,1.34.11c.85.09,2.08.26,3.6.48,3.05.43,7.24,1.1,11.88,1.74s8.85,1.09,11.91,1.34l3.63.28A7.87,7.87,0,0,1,310.06,187.92Z"/><path class="cls-6" d="M254.65,173.78a13.19,13.19,0,0,0-.56-3.8c-.32-1.14-.85-2.47-1.25-4a8.06,8.06,0,0,1-.28-2.54,10.25,10.25,0,0,1,.57-2.68,42,42,0,0,1,4.51-8.28l1.54-2.39a4.65,4.65,0,0,1,.6-.87,4.41,4.41,0,0,1-.42,1c-.31.6-.79,1.45-1.41,2.48a51.55,51.55,0,0,0-4.33,8.26,11,11,0,0,0-.55,2.54,7.46,7.46,0,0,0,.24,2.4c.36,1.53.85,2.88,1.14,4.06a9.82,9.82,0,0,1,.36,2.85,4.13,4.13,0,0,1-.08.78C254.7,173.7,254.67,173.79,254.65,173.78Z"/><path class="cls-6" d="M272.15,133.15a9.91,9.91,0,0,1-.07-3.26,11.05,11.05,0,0,1,.45-3.23,9.91,9.91,0,0,1,.07,3.26A10.42,10.42,0,0,1,272.15,133.15Z"/><path class="cls-6" d="M279.14,132.52a10.31,10.31,0,0,1-.76-3.14,10,10,0,0,1-.26-3.22,9.77,9.77,0,0,1,.77,3.14A10.25,10.25,0,0,1,279.14,132.52Z"/><path class="cls-6" d="M285.18,131.37a7.38,7.38,0,0,1-1-2.55,7.58,7.58,0,0,1-.52-2.7,7.31,7.31,0,0,1,1,2.55A7.36,7.36,0,0,1,285.18,131.37Z"/><g class="cls-13"><path d="M290.19,148.12c.11,6.84,1.33,12.51,1.44,19.36a4.31,4.31,0,0,0,.34,1.94c.76,1.48,2.5,1,4.16.94a15.73,15.73,0,0,0,2.54-.54,2.2,2.2,0,0,0-.21-1.51c-2.75-7.11-5.51-13.08-8.27-20.19"/></g><polygon class="cls-6" points="214.7 161.66 224.97 171.57 241.55 187.55 270.07 186.13 246.99 160.05 214.7 161.66"/><path class="cls-2" d="M219.21,161.37s-7.46,3.3.13,9,18,7.85,19.56,12a7,7,0,0,1-1,7l21.85-1s6.49-5.6,1.65-10.6-17.53-12.2-19-14.14,2.07-3.51,2.07-3.51Z"/><polygon class="cls-12" points="226.12 161.05 225.26 160.04 237.05 159.31 237.05 160.53 226.12 161.05"/><path class="cls-4" d="M240.47,164.38a13.83,13.83,0,0,1-2.93.44c-1.82.2-4.34.41-7.13.57s-5.32.21-7.16.17a12.59,12.59,0,0,1-3-.25,25.08,25.08,0,0,1,3-.12c1.83-.05,4.35-.17,7.13-.32l7.13-.41A20.87,20.87,0,0,1,240.47,164.38Z"/><path class="cls-4" d="M242.79,167.69a89.83,89.83,0,0,1-9.55.71,87.29,87.29,0,0,1-9.57.19,89.83,89.83,0,0,1,9.55-.71A87.29,87.29,0,0,1,242.79,167.69Z"/><path class="cls-4" d="M247.85,170.42a14,14,0,0,1-2.74.48c-1.7.23-4.05.48-6.66.68s-5,.32-6.69.36a14.34,14.34,0,0,1-2.78-.06,15.05,15.05,0,0,1,2.76-.31l6.67-.51,6.66-.53A14.35,14.35,0,0,1,247.85,170.42Z"/><path class="cls-4" d="M251.28,174.15a64,64,0,0,1-8.17.91,66.29,66.29,0,0,1-8.21.4,64,64,0,0,1,8.17-.91A66.29,66.29,0,0,1,251.28,174.15Z"/><path class="cls-4" d="M256.42,177.51a60,60,0,0,1-7.9,1.1,62.89,62.89,0,0,1-8,.57,62,62,0,0,1,7.9-1.09A62.9,62.9,0,0,1,256.42,177.51Z"/><path class="cls-4" d="M258.82,182.26a10,10,0,0,1-2.37.4c-1.47.17-3.5.34-5.76.46s-4.29.14-5.77.12a10.17,10.17,0,0,1-2.4-.16,12,12,0,0,1,2.39-.21l5.76-.27,5.75-.31A12,12,0,0,1,258.82,182.26Z"/><path class="cls-14" d="M276.38,183.64l-5.42-.85-20.19.49s-1.05-.31-.14-.88c.45-.28,7.87-2.12,7.87-2.12l-10.66.86a14.06,14.06,0,0,1,4.07-4.86c2.58-1.77,7.58-2.9,7.58-2.9l-3.23-2.45s10.54-1.38,11.9-.18c1,1,2,2,3,3.08l5.83-.06"/><path class="cls-15" d="M262.22,179.7c0,.15-3.18.25-7.09.63s-7,.86-7.08.71a8.09,8.09,0,0,1,2-.53,49.3,49.3,0,0,1,5-.7c2-.18,3.75-.25,5-.25A7.51,7.51,0,0,1,262.22,179.7Z"/><path class="cls-15" d="M261.6,177.06a35.56,35.56,0,0,1-6.06,1.13,37,37,0,0,1-6.13.6,37.81,37.81,0,0,1,6.06-1.12A37,37,0,0,1,261.6,177.06Z"/></g><g id="Character_1" data-name="Character 1"><polygon class="cls-12" points="162.8 121.37 161.89 124.35 176.36 124.35 175.59 122.32 162.8 121.37"/><polygon class="cls-6" points="176.82 130.83 176.58 130.63 161.66 130.63 161.43 130.83 176.82 130.83"/><path class="cls-6" d="M174.31,147.38l3.06-22.6h-16.5l3.07,22.6S170.23,148.29,174.31,147.38Z"/><path class="cls-12" d="M177.57,125.12H160.68v-.26a1.34,1.34,0,0,1,1.33-1.35h14.21a1.34,1.34,0,0,1,1.35,1.35h0Z"/><polygon class="cls-2" points="175.64 139.65 162.61 139.65 161.43 130.83 176.82 130.83 175.64 139.65"/><path class="cls-6" d="M171,136.66c.84-1.5,1.3-3.34-.38-4.4,0,0-1.61-1-3.37.9-1.37,1.51-2,3.27-.91,4.62C167.63,139.41,170.11,138.16,171,136.66Zm-2.63-.24a3.54,3.54,0,0,0-1.41,1.67c-.16-1.08.3-1.67,1.88-2.9a4,4,0,0,0,1.65-2.73c.79,2-1,3.18-2.17,4Z"/><polygon class="cls-6" points="162.61 122 165.43 122.41 165.43 122.98 162.31 122.98 162.61 122"/><path class="cls-8" d="M167.62,136.87s-24.22,24.36-26.37,25c0,0-7.35-14.32-8-14.84l-14.13,8,8.28,17.76a13.19,13.19,0,0,0,22.41,3.84l23.8-28.06,4.8-5.32a12.35,12.35,0,0,0,1.9-4.85,8.63,8.63,0,0,0-.2-3.24,3.27,3.27,0,0,0-.13-2.51,1.9,1.9,0,0,0-1.3-.86c1-2.6-1.8-3.88-3.23-1.73"/><path class="cls-8" d="M166.73,137.77a5.61,5.61,0,0,0-2.19-3,6.07,6.07,0,0,0-3.36-1.32s.29-1.74,3.17-1.36,3.64,2.24,7.19,1.36l.77,3.31Z"/><path class="cls-16" d="M178.9,131.36a3.5,3.5,0,0,1-1.23,2,4.41,4.41,0,0,1-2,1.28c0-.12.78-.73,1.66-1.64S178.77,131.28,178.9,131.36Z"/><path class="cls-16" d="M180,135.1c.13.06-.08.79-.68,1.5s-1.27,1.05-1.35.94.41-.62,1-1.27S179.87,135,180,135.1Z"/><path class="cls-16" d="M139.23,171.68a22.83,22.83,0,0,1,1.8-10.32c.14,0-.49,2.3-1,5.14S139.38,171.68,139.23,171.68Z"/><polygon class="cls-12" points="52.15 123.08 51.24 126.06 65.7 126.06 64.94 124.03 52.15 123.08"/><polygon class="cls-6" points="66.17 132.53 65.93 132.34 51.01 132.34 50.77 132.53 66.17 132.53"/><path class="cls-6" d="M63.66,149.08l3.06-22.6H50.22l3.07,22.6S59.58,150,63.66,149.08Z"/><path class="cls-12" d="M66.92,126.83H50v-.27a1.34,1.34,0,0,1,1.35-1.35H65.56a1.36,1.36,0,0,1,1.36,1.35Z"/><polygon class="cls-2" points="64.99 141.36 51.95 141.36 50.77 132.53 66.17 132.53 64.99 141.36"/><path class="cls-6" d="M60.29,138.36c.85-1.49,1.31-3.33-.38-4.4,0,0-1.6-1-3.37.91-1.36,1.5-2,3.26-.9,4.61C57,141.12,59.45,139.86,60.29,138.36Zm-2.62-.23a3.54,3.54,0,0,0-1.41,1.67c-.16-1.08.3-1.68,1.87-2.9a4.11,4.11,0,0,0,1.66-2.74C60.63,136.19,58.8,137.35,57.67,138.13Z"/><polygon class="cls-6" points="51.96 123.7 54.77 124.11 54.77 124.69 51.66 124.69 51.96 123.7"/><path class="cls-8" d="M52.15,182.8s-2.87-3.39-2.12-27.59l-.18-13,11.28-3.39,7.78,43.74Z"/><path class="cls-8" d="M60.74,139.65a7.35,7.35,0,0,1,2.46-3.4,6.23,6.23,0,0,1,3.36-1.32s-.29-1.74-3.17-1.36-3.64,2.24-7.19,1.36l-4.11,7.35Z"/><path class="cls-8" d="M57,135.53c-.17-.46-6-5.13-6-5.13s-3,.12-1.88,2.85a2.46,2.46,0,0,0-1.38,3.19,2,2,0,0,0,.24.46s-1.32.95-.39,3.6a25.28,25.28,0,0,0,2.54,5Z"/><path class="cls-8" d="M58.58,161.38,52,177.05a8.89,8.89,0,0,0,5.75,11.15h0a8.88,8.88,0,0,0,11.14-5.6l5.26-15.45Z"/><path class="cls-16" d="M52.61,175.77a8.61,8.61,0,0,1,.53-2.17c.41-1.32,1-3.12,1.82-5.07s1.6-3.69,2.22-4.91a8.78,8.78,0,0,1,1.13-1.94,11.22,11.22,0,0,1-.79,2.09c-.54,1.27-1.29,3-2.07,4.95s-1.47,3.72-2,5A10.77,10.77,0,0,1,52.61,175.77Z"/><path class="cls-16" d="M57.24,164.09A23,23,0,0,0,55,165.18c-1.12.78-1.7,1.75-1.83,1.68s.27-1.26,1.54-2.11A3,3,0,0,1,57.24,164.09Z"/><path class="cls-6" d="M85.08,80.37c.65,1.88-1.58,3.49-3.52,3.93s-4.29.73-5.18,2.51c-.78,1.54,0,3.51-.7,5.09-1.33,3-6.73,2.37-7.79,5.49-.72,2.13,1.28,4.34,1,6.58-.21,1.93-2,3.24-3.53,4.41s-3.19,2.79-2.94,4.71c.28,2.23,3,3.77,2.75,6s-3.21,3.22-3.63,5.39c-.51,2.57,2.71,4.23,3.75,6.63.79,1.84.3,4.21,1.63,5.71s3.8,1.22,5.81.8l20-4.24c-1.35-3.17-.08-6.87,1.85-9.72s4.5-5.25,6.15-8.27,2.21-7,0-9.72"/><path class="cls-6" d="M120.28,96.37a24.29,24.29,0,0,0-.66-3.16,3.05,3.05,0,0,0-.8-1.29c-.39-.38-.91-.14-1.23.4a9.66,9.66,0,0,0,0,8.11c.32.54.84.78,1.23.4a3,3,0,0,0,.8-1.3,21.37,21.37,0,0,0,.66-3.16,2.43,2.43,0,0,1,.07.89,8.91,8.91,0,0,1-.38,2.4,3.53,3.53,0,0,1-.87,1.51,1.08,1.08,0,0,1-1.07.24,1.76,1.76,0,0,1-.84-.71,9.74,9.74,0,0,1,0-8.65,1.84,1.84,0,0,1,.84-.72,1.13,1.13,0,0,1,1.07.25,3.53,3.53,0,0,1,.87,1.51,8.91,8.91,0,0,1,.38,2.4A2.37,2.37,0,0,1,120.28,96.37Z"/><path class="cls-6" d="M87.63,114.81C84,108.69,83,100.54,82.05,93.49c-.43-3.32-1.19-8,1.15-10.12,2.5-2.22,2.74-5.65,5.61-7.37a8.85,8.85,0,0,1,9.48.11"/><path class="cls-8" d="M97.66,136.48h0a9.82,9.82,0,0,0,10.57-9c0-.12,0-.25,0-.37.22-5.35.41-10.75.41-10.75s8.1-.74,8.71-8.75.4-26.51.4-26.51h0a27.91,27.91,0,0,0-28.23,1.73L90,111v15.17C90,131.29,92.58,136.07,97.66,136.48Z"/><path class="cls-6" d="M109.41,97.8a4.11,4.11,0,0,0-5.47-1.22,4.66,4.66,0,0,0-1.57,5.82,6.16,6.16,0,0,0,3.92,3,3.08,3.08,0,0,1,2.41,3.32c-.24,2-3.59,2.76-5.11,4.42-2.35,2.58-7.51,3.66-11,4.06s-3,.43-5-2.38a10.83,10.83,0,0,1-1.94-6.52q-.15-8.86-.31-17.72a25.11,25.11,0,0,1,.42-6.36A8.56,8.56,0,0,1,89.17,79c2-1.28,4.43-1.38,6.65-2.1,2.78-.88,5.14-2.72,7.74-4s5.79-2.11,8.39-.79c1.87,1,3.12,2.82,4.94,3.86,2.58,1.48,6.11,1.15,7.36,5a6.44,6.44,0,0,1-.06,4.07c-1.77,5.18-8.2,7.25-12.82,5-.09.88.77,2.83-.16,5.61-.3.88-.41,2.23-1.8,2.26"/><path class="cls-16" d="M108,102.79a.72.72,0,0,1-.12.35,1.18,1.18,0,0,1-.89.44,2.2,2.2,0,0,1-2.07-2.21,2.31,2.31,0,0,1,.59-1.7,2.5,2.5,0,0,1,1.26-.72c.82-.17,1.3.14,1.26.19a9.11,9.11,0,0,0-1.15.2,2,2,0,0,0-1.39,2,1.88,1.88,0,0,0,1.5,1.84C107.63,103.22,107.91,102.74,108,102.79Z"/><path class="cls-6" d="M120.3,96a29.23,29.23,0,0,1-5.39,1.15,29.69,29.69,0,0,1-5.48.63,29.23,29.23,0,0,1,5.39-1.15A29.69,29.69,0,0,1,120.3,96Z"/><path class="cls-6" d="M88.27,122.63a2.32,2.32,0,0,0,2.78,1.11,6.64,6.64,0,0,0,2.7-1.82,7,7,0,0,1,2.67-1.87c2.13-.65,4.75.78,6.55-.55,1.64-1.21,1.42-3.94,3-5.19.85-.66,2-.74,2.91-1.38,1.63-1.21,1.36-3.89,0-5.38s-3.42-2.09-5.36-2.63l-17.23,7.34Z"/><path class="cls-12" d="M108.73,91.5l-.14.11a2.94,2.94,0,0,1-.46.25,9,9,0,0,1-1.88.68,22.17,22.17,0,0,1-3.13.5,31.73,31.73,0,0,0-4.11.57,7.78,7.78,0,0,0-4.26,2.32c-1.16,1.35-1.59,3.29-2.49,5.16a6.59,6.59,0,0,1-2,2.53,10.49,10.49,0,0,1-3,1.48c-2.11.7-4.44,1.13-6.2,2.62a4.44,4.44,0,0,0-1.59,2.82,18.74,18.74,0,0,0,0,3.35,5.48,5.48,0,0,1-3,5.54c-1.8,1.06-3.69,1.62-5.2,2.58a6.17,6.17,0,0,0-1.85,1.71,4.53,4.53,0,0,0-.7,2.2A14.84,14.84,0,0,0,69.3,130a10.59,10.59,0,0,1,.28,3.17,4.46,4.46,0,0,1-.57,1.92,2.1,2.1,0,0,1-.43.55,4.9,4.9,0,0,0,.8-2.49,10.66,10.66,0,0,0-.37-3.08,15,15,0,0,1-.64-4.16,4.82,4.82,0,0,1,.73-2.39,6.46,6.46,0,0,1,2-1.86c1.57-1,3.46-1.6,5.18-2.63a4.91,4.91,0,0,0,2.66-5,19.76,19.76,0,0,1,0-3.44,5,5,0,0,1,1.77-3.13c1.91-1.61,4.32-2,6.38-2.72A9.9,9.9,0,0,0,90,103.22a6.29,6.29,0,0,0,1.88-2.34c.88-1.79,1.33-3.78,2.59-5.23a8.15,8.15,0,0,1,4.5-2.4,30.81,30.81,0,0,1,4.17-.5,23.41,23.41,0,0,0,3.11-.4A14.52,14.52,0,0,0,108.73,91.5Z"/><path class="cls-12" d="M104.09,94.38a16.17,16.17,0,0,0-1.68.24,7.6,7.6,0,0,0-3.86,2.3A7.09,7.09,0,0,0,97,99.62a11.7,11.7,0,0,0-.31,3.59,9.49,9.49,0,0,1-.6,4.12A4.21,4.21,0,0,1,94.6,109a18.17,18.17,0,0,1-2,1.06,5.2,5.2,0,0,0-1.71,1.22,3,3,0,0,0-.67,1.84c-.1,1.34.19,2.83-.46,4.11a6.7,6.7,0,0,1-2.68,2.65c-1,.61-2,1-2.83,1.55a7.2,7.2,0,0,0-2,1.64,4.58,4.58,0,0,0-.86,1.74,4.22,4.22,0,0,0,0,1.66,1.15,1.15,0,0,1-.17-.41,3.12,3.12,0,0,1-.06-1.29A4.45,4.45,0,0,1,82,122.9a7.08,7.08,0,0,1,2-1.78c.84-.54,1.82-1,2.79-1.6a6.45,6.45,0,0,0,2.47-2.5c.58-1.11.31-2.48.39-3.94A3.49,3.49,0,0,1,90.5,111a5.74,5.74,0,0,1,1.88-1.36c1.35-.65,2.71-1.26,3.26-2.51a9.07,9.07,0,0,0,.58-3.89,12.27,12.27,0,0,1,.38-3.72,7.31,7.31,0,0,1,1.68-2.82,7.56,7.56,0,0,1,4.09-2.25,5.49,5.49,0,0,1,1.28-.1A1.08,1.08,0,0,1,104.09,94.38Z"/><path class="cls-2" d="M76.53,194.73l5.58-16.21-3.87-19.67-3,8.68-18.76-6.89s12.15-24.28,12.76-25.56c5.55-11.66,20.34-11.66,20.34-11.66l18.83.49a20.54,20.54,0,0,1,16.18,6.28c5.39,5.43,17.69,29.19,17.69,29.19l-19.82,6.17-3.92-7.32,1.14,15.46,3.9,23.56Z"/><path class="cls-9" d="M123.85,129.51c0,.15-11.43.26-25.54.26s-25.55-.11-25.55-.26,11.44-.26,25.55-.26S123.85,129.37,123.85,129.51Z"/><path class="cls-6" d="M115.85,129c0,.06-.53.08-1.38.43A6.39,6.39,0,0,0,111.6,132a8.56,8.56,0,0,0-1.17,5.55,21.81,21.81,0,0,0,2.22,6.8c2.19,4.67,4.12,8.94,5.5,12,.64,1.47,1.18,2.7,1.61,3.67a6.72,6.72,0,0,1,.51,1.38,7.65,7.65,0,0,1-.72-1.28l-1.76-3.6c-1.48-3.05-3.46-7.28-5.66-12a21.62,21.62,0,0,1-2.23-7,8.78,8.78,0,0,1,1.36-5.82,6.32,6.32,0,0,1,3.13-2.55,4,4,0,0,1,1.08-.24C115.72,128.93,115.85,128.93,115.85,129Z"/><path class="cls-6" d="M82.3,179.41c-.16,0-2.41-10.18-5-22.8s-4.64-22.87-4.48-22.91,2.41,10.17,5,22.8S82.45,179.37,82.3,179.41Z"/><path class="cls-6" d="M110.59,164.1a4.43,4.43,0,0,1,0,1.36,13.16,13.16,0,0,1-.91,3.59,17.47,17.47,0,0,1-8.23,8.78,24.37,24.37,0,0,1-11.88,2.38,28.16,28.16,0,0,1-3.67-.37,5.82,5.82,0,0,1-1.31-.31c0-.11,1.91.25,5,.28a25.34,25.34,0,0,0,11.61-2.49,17.76,17.76,0,0,0,8.12-8.43A19.93,19.93,0,0,0,110.59,164.1Z"/><path class="cls-9" d="M130.24,138c0,.15-14,.26-31.23.26s-31.23-.11-31.23-.26,14-.26,31.23-.26S130.24,137.82,130.24,138Z"/><path class="cls-9" d="M134.86,145.82c0,.15-15.83.26-35.34.26s-35.34-.11-35.34-.26,15.82-.26,35.34-.26S134.86,145.68,134.86,145.82Z"/><path class="cls-9" d="M138,153c0,.15-17.38.26-38.81.26s-38.8-.11-38.8-.26,17.37-.26,38.8-.26S138,152.88,138,153Z"/><path class="cls-9" d="M76.87,161.82a15.84,15.84,0,0,1-2.7-.73c-1.65-.5-3.93-1.17-6.46-1.85s-4.86-1.21-6.53-1.6a15.87,15.87,0,0,1-2.71-.7,14.38,14.38,0,0,1,2.78.34c1.7.3,4,.79,6.59,1.46s4.82,1.41,6.45,2A14.22,14.22,0,0,1,76.87,161.82Z"/><path class="cls-9" d="M118.94,160.54a9.51,9.51,0,0,1-1.6.05l-4.37-.05-14.39-.14H79.82a8.57,8.57,0,0,1-1.6-.06,9.52,9.52,0,0,1,1.6-.14c1,0,2.52-.11,4.36-.17,3.69-.1,8.78-.18,14.41-.16s10.71.16,14.39.31c1.85.07,3.34.14,4.36.21A10.7,10.7,0,0,1,118.94,160.54Z"/><path class="cls-9" d="M141,156.94c0-.05.09,0-.09,0l-.61.12-2.25.39c-1.9.32-4.53.75-7.43,1.19s-5.55.82-7.46,1.07a18.1,18.1,0,0,1-3.11.3,17.75,17.75,0,0,1,3.06-.66c1.89-.35,4.52-.78,7.43-1.23s5.54-.81,7.46-1c1-.12,1.73-.2,2.27-.23h.81C141.15,156.89,141,156.94,141,156.94Z"/><path class="cls-9" d="M109.7,167.52c0,.14-6.65.26-14.85.26S80,167.66,80,167.52s6.65-.26,14.85-.26S109.7,167.37,109.7,167.52Z"/><path class="cls-9" d="M119.3,169.92a25.33,25.33,0,0,1-5.07.26,25.33,25.33,0,0,1-5.07-.26,24.61,24.61,0,0,1,5.07-.26A24.61,24.61,0,0,1,119.3,169.92Z"/><path class="cls-9" d="M103.21,176.23a18.18,18.18,0,0,1-3.13.24c-1.93.06-4.6.09-7.55,0s-5.62-.22-7.55-.37a17.06,17.06,0,0,1-3.11-.38,18.18,18.18,0,0,1,3.13,0l7.54.22,7.54.13A21.81,21.81,0,0,1,103.21,176.23Z"/><path class="cls-9" d="M120.1,178.36a98.79,98.79,0,0,1-10.18.26,98.79,98.79,0,0,1-10.18-.26,101.69,101.69,0,0,1,10.18-.26A101.69,101.69,0,0,1,120.1,178.36Z"/><path class="cls-9" d="M121.63,185.74a10,10,0,0,1-1.64.07h-4.46c-3.77,0-9-.14-14.73-.32s-11-.41-14.72-.65c-1.88-.12-3.4-.22-4.45-.32A10,10,0,0,1,80,184.3a11.22,11.22,0,0,1,1.64,0l4.46.17,14.72.49,14.72.47,4.46.18A9.86,9.86,0,0,1,121.63,185.74Z"/><path class="cls-9" d="M123,194.11a13.37,13.37,0,0,1-1.79,0l-4.85-.19c-4.09-.18-9.74-.47-16-.81s-11.9-.7-16-1l-4.85-.35a10.56,10.56,0,0,1-1.77-.21,13.07,13.07,0,0,1,1.77,0l4.85.19c4.09.18,9.75.47,16,.82s11.9.69,16,1l4.85.36A10.77,10.77,0,0,1,123,194.11Z"/><g class="cls-17"><path d="M83.69,178.15c3.53,2.64,8.74,1.76,13.1,1A19,19,0,0,0,108.2,173a7.67,7.67,0,0,0,2.11-5.4c-.17-2-1.92-3.88-3.88-3.64-2.26.27-3.35,2.8-4.43,4.8a17.52,17.52,0,0,1-18.24,8.56S83.06,177.67,83.69,178.15Z"/></g><g class="cls-17"><path d="M110.59,139.79c1.1,8.89,2.54,16.17,4.39,24.93.92,4.31,2,8.8,5,12.05l-1.7-19.69Z"/></g><path class="cls-6" d="M85.37,121.24a6.38,6.38,0,0,0-3.67,8.24,6.07,6.07,0,0,0,.67,1.29,3.19,3.19,0,0,1,.82,1.77c-.09,1.59-2.64,1.63-3.45,3a2.44,2.44,0,0,0,.69,2.86,20.16,20.16,0,0,0,2.63,1.77,3.22,3.22,0,0,1,1.62,2.57c.89,0,1.42-1.11,1.28-2a8.43,8.43,0,0,0-1.09-2.43,2.58,2.58,0,0,1-.12-2.55c.59-.83,1.78-.87,2.73-1.23a3.8,3.8,0,0,0,2-4.89c-.57-1.29-1.91-2.59-1.26-3.84a3.86,3.86,0,0,1,1.88-1.34A4.9,4.9,0,0,0,92,117.8a4.85,4.85,0,0,0-1.28-1.5"/><polygon class="cls-8" points="67.2 273.35 61.62 376.71 78.66 380.83 91.44 275.53 67.2 273.35"/><polygon class="cls-9" points="61.11 376.31 58.21 389.08 77.82 389.08 78.66 380.77 61.11 376.31"/><path class="cls-6" d="M78.22,387.22a13,13,0,0,1-2.85.17c-1.77,0-4.21,0-6.9-.13L61.59,387a16,16,0,0,1-2.85-.23,14.41,14.41,0,0,1,2.86-.16c1.77,0,4.2,0,6.89.14l6.88.28A17,17,0,0,1,78.22,387.22Z"/><path class="cls-6" d="M69.92,378.8a31,31,0,0,1-.55,8.23,31.56,31.56,0,0,1,.56-8.23Z"/><g class="cls-10"><polyline class="cls-3" points="58.21 389.08 77.82 389.08 78.01 387.23 58.56 386.74 58.21 388.86"/></g><polygon class="cls-8" points="128.87 352.54 133.01 383.71 148.09 382.66 144.92 354.08 128.87 352.54"/><path class="cls-9" d="M148.25,379.28h0s16.95,5.73,17.23,8.82l-32.41.94-.29-8.47,1.2.24A24.09,24.09,0,0,0,148.25,379.28Z"/><g class="cls-10"><path class="cls-3" d="M136.57,382.05a1.31,1.31,0,0,0-.87,1.53,1.27,1.27,0,0,0,1.51.88,1.4,1.4,0,0,0,.92-1.63,1.33,1.33,0,0,0-1.68-.74"/></g><g class="cls-10"><path class="cls-3" d="M133.07,389v-2.63l31.07.08s1.46.58,1.33,1.61Z"/></g><path class="cls-6" d="M148.77,379.1c0,.16-.79.25-1.55.78s-1.16,1.21-1.31,1.15.06-1,1-1.6A2,2,0,0,1,148.77,379.1Z"/><path class="cls-6" d="M152.21,380.41c0,.15-.64.44-1.16,1.12s-.65,1.4-.81,1.4-.28-.9.38-1.74S152.2,380.25,152.21,380.41Z"/><path class="cls-6" d="M154.26,384.42c-.14,0-.39-.75,0-1.63s1.11-1.24,1.19-1.11-.38.6-.68,1.33S154.42,384.4,154.26,384.42Z"/><path class="cls-6" d="M148.41,379a3.18,3.18,0,0,1-1.62,0,7.83,7.83,0,0,1-2.66-.94,2.23,2.23,0,0,1-.5-.37.7.7,0,0,1-.1-.84.87.87,0,0,1,.69-.38,2.07,2.07,0,0,1,.61.06,6.85,6.85,0,0,1,1,.32,5.68,5.68,0,0,1,1.52.94,3.34,3.34,0,0,1,1,1.29s-.45-.43-1.23-1a6.28,6.28,0,0,0-1.47-.78,7.7,7.7,0,0,0-.94-.26c-.35-.08-.64-.07-.72.08s0,.09,0,.19a1.9,1.9,0,0,0,.37.26,7.3,7.3,0,0,0,.87.47,8.79,8.79,0,0,0,1.59.55A10.91,10.91,0,0,1,148.41,379Z"/><path class="cls-6" d="M148.21,379.25a2.6,2.6,0,0,1-.47-1.55,5.15,5.15,0,0,1,.17-1.79,5.76,5.76,0,0,1,.39-1,1.35,1.35,0,0,1,1-.85.76.76,0,0,1,.69.44,2.11,2.11,0,0,1,.18.59,3.32,3.32,0,0,1,0,1.09,3.71,3.71,0,0,1-.64,1.7c-.61.86-1.26,1.06-1.28,1a9.33,9.33,0,0,0,1-1.22,3.64,3.64,0,0,0,.47-1.54,3.72,3.72,0,0,0-.06-.94c-.06-.34-.2-.61-.32-.57a1.22,1.22,0,0,0-.56.54,5.76,5.76,0,0,0-.37.89,5.68,5.68,0,0,0-.27,1.63C148.11,378.64,148.3,379.22,148.21,379.25Z"/><path class="cls-9" d="M76.53,194.73s-12,20-12,31.94l-3,145.6,20.69,3L96.73,233S129.87,377.15,131,377.15s18.32-3.09,18.32-3.09L123.23,195.37Z"/><path class="cls-6" d="M109.91,236.23c0,.16-6.34-1.25-14.07-3.14s-14-3.54-13.93-3.69,6.34,1.25,14.07,3.14S110,236.08,109.91,236.23Z"/><path class="cls-6" d="M84.21,230.58a2.29,2.29,0,0,1,0,.37L84,232c-.16,1-.38,2.34-.66,4.1-.58,3.56-1.39,8.72-2.35,15.1-1.93,12.76-4.32,30.43-6.33,50s-3.24,37.38-3.94,50.27c-.35,6.44-.6,11.66-.75,15.27l-.2,4.15,0,1.11a2.16,2.16,0,0,1,0,.36,2.29,2.29,0,0,1,0-.37v-1.08c0-1,0-2.37.1-4.15.08-3.61.28-8.83.58-15.28.61-12.89,1.79-30.7,3.79-50.3s4.46-37.27,6.48-50c1-6.38,1.88-11.53,2.52-15.08.33-1.75.58-3.13.75-4.09l.21-1.06A1.57,1.57,0,0,1,84.21,230.58Z"/><path class="cls-6" d="M114.13,233c.14,0,5.91,31.93,12.88,71.36s12.5,71.44,12.36,71.46-5.9-31.92-12.88-71.37S114,233,114.13,233Z"/><path class="cls-12" d="M62.75,112.6a4.12,4.12,0,0,1,.73.88A11.41,11.41,0,0,1,65,116.21a5.48,5.48,0,0,1,.35,2.16,4.62,4.62,0,0,1-.83,2.4c-.49.75-1.12,1.41-1.68,2.14a4.42,4.42,0,0,0-1,2.48A5.06,5.06,0,0,0,62.6,128a23.42,23.42,0,0,0,1.52,2.21,9.85,9.85,0,0,1,1.26,2.15,5.45,5.45,0,0,1,.41,2.15,8.18,8.18,0,0,0,.15,1.71,2.56,2.56,0,0,0,.61,1.09,2,2,0,0,0,1,.5,1.17,1.17,0,0,1-1.09-.35,2.57,2.57,0,0,1-.75-1.16,7.07,7.07,0,0,1-.25-1.77,5.49,5.49,0,0,0-.44-2,10.63,10.63,0,0,0-1.25-2,21.92,21.92,0,0,1-1.57-2.24,5.38,5.38,0,0,1-.84-2.89,4.92,4.92,0,0,1,1.17-2.77c.59-.76,1.21-1.4,1.68-2.1a4.48,4.48,0,0,0,.53-4.18,13.79,13.79,0,0,0-1.33-2.73A5.31,5.31,0,0,1,62.75,112.6Z"/></g><g id="Plant"><rect class="cls-6" x="632.21" y="340.32" width="57.85" height="7.95"/><path class="cls-6" d="M690.17,348.37h-58v-8.15h58Zm-57.86-.2H690v-7.75H632.31Z"/><polygon class="cls-6" points="637.58 345.62 645.91 386.7 676.72 386.7 684.77 348.27 637.58 345.62"/><polygon class="cls-6" points="637.58 382.82 642.02 388.93 679.47 388.93 684.77 382.82 637.58 382.82"/><path class="cls-6" d="M659,346.82c-.12,0-.26-19-.33-42.51s0-42.51.09-42.51.26,19,.33,42.51S659.08,346.82,659,346.82Z"/><path class="cls-6" d="M671.86,299.19a1.79,1.79,0,0,1-.16.44c-.13.33-.31.73-.52,1.23l-.37.89-.39,1.08c-.14.39-.29.8-.44,1.24s-.28.92-.43,1.41a57.29,57.29,0,0,0-1.62,7.09,87.74,87.74,0,0,0-.9,8.86,119.73,119.73,0,0,0,.46,16.18c.19,2.06.37,3.73.51,4.88.06.55.11,1,.15,1.33a1.85,1.85,0,0,1,0,.47,2.42,2.42,0,0,1-.1-.45c-.06-.35-.14-.79-.23-1.32-.18-1.15-.41-2.82-.64-4.88a106,106,0,0,1-.58-16.23,80.64,80.64,0,0,1,.94-8.9,52.56,52.56,0,0,1,1.71-7.11c.16-.5.29-1,.46-1.41l.48-1.24.42-1.07c.14-.33.28-.62.41-.88.24-.49.43-.89.59-1.2S671.84,299.18,671.86,299.19Z"/><path class="cls-6" d="M670.38,283.8a4.44,4.44,0,0,1-.19.62l-.6,1.77c-.13.39-.28.82-.44,1.28s-.3,1-.47,1.54c-.34,1.1-.73,2.35-1.08,3.76-.18.7-.37,1.43-.58,2.2s-.35,1.57-.54,2.4c-.4,1.66-.69,3.46-1.07,5.34-.63,3.78-1.2,8-1.58,12.37s-.53,8.62-.58,12.46,0,7.29.19,10.19c0,1.45.14,2.76.22,3.91s.14,2.14.21,2.95.11,1.4.14,1.86a3.53,3.53,0,0,1,0,.65,4.49,4.49,0,0,1-.1-.64c0-.46-.13-1.08-.22-1.86s-.19-1.8-.28-3-.21-2.46-.28-3.91c-.2-2.9-.28-6.36-.28-10.2s.18-8.07.55-12.5,1-8.61,1.62-12.4c.38-1.88.69-3.68,1.11-5.34.19-.83.38-1.64.56-2.41s.42-1.5.61-2.2c.37-1.41.78-2.66,1.14-3.75.18-.55.35-1.06.5-1.53s.33-.89.48-1.27l.68-1.75A2.77,2.77,0,0,1,670.38,283.8Z"/><path class="cls-6" d="M655.31,350.19a.89.89,0,0,1,0-.23,2.78,2.78,0,0,0-.06-.65c0-.61-.1-1.45-.17-2.52-.14-2.22-.33-5.38-.58-9.27-.5-7.83-1.23-18.64-2.54-30.53-.68-5.95-1.46-11.59-2.27-16.71-.43-2.56-.82-5-1.26-7.25s-.85-4.37-1.25-6.29-.81-3.64-1.15-5.16-.66-2.82-.93-3.89-.46-1.86-.6-2.45l-.15-.64v-.22a1.72,1.72,0,0,1,.07.21l.19.63.68,2.43c.29,1.06.64,2.36,1,3.87s.8,3.24,1.2,5.16.88,4,1.3,6.29.86,4.69,1.31,7.25c.83,5.12,1.62,10.77,2.3,16.72,1.31,11.91,2,22.73,2.42,30.56.22,3.92.36,7.09.45,9.28,0,1.07.07,1.92.1,2.53V350A.86.86,0,0,1,655.31,350.19Z"/><path class="cls-9" d="M658.5,271c-.25-2.69-3-4.73-5.69-4.76a9,9,0,0,0-6.89,3.74,21.94,21.94,0,0,0-3.31,7.36,49.94,49.94,0,0,0-2,19.59,29.63,29.63,0,0,0,8.15,17.67,2.59,2.59,0,0,0,3.52,1,2.54,2.54,0,0,0,.77-.65,43.86,43.86,0,0,0,14.23-33.33c-.08-2.5-.4-5.1-1.79-7.17s-4.6-4.29-7-3.46"/><path class="cls-9" d="M638.28,249.36q-1.92,3.45-3.82,6.9c-.09.16-.2.34-.39.36s-.35-.17-.46-.34L623.53,240.8l2.32-1.31Z"/><g class="cls-17"><path d="M638.28,249.36q-1.92,3.45-3.82,6.9c-.09.16-.2.34-.39.36s-.35-.17-.46-.34L623.53,240.8l2.32-1.31Z"/></g><path class="cls-9" d="M658.73,261.8l-34.4-20.29a1.6,1.6,0,0,1-.83-.85c-.14-.51.24-1,.61-1.38a23.68,23.68,0,0,1,18.38-7.22,21,21,0,0,1,16.62,10.34c3.32,5.93,3.43,13.77-.38,19.4"/><path class="cls-6" d="M629.29,235a1.17,1.17,0,0,1,.45-.06c.3,0,.74-.07,1.3-.06a24.57,24.57,0,0,1,4.77.38,28.18,28.18,0,0,1,14.1,6.8,28.34,28.34,0,0,1,8.17,13.34,26,26,0,0,1,.85,4.71c.06.57.05,1,.07,1.3a3.53,3.53,0,0,1,0,.46s-.08-.62-.22-1.74a28.24,28.24,0,0,0-23-24.59,30,30,0,0,0-4.72-.5A17.53,17.53,0,0,1,629.29,235Z"/><path class="cls-6" d="M654.07,247.79a7.74,7.74,0,0,1-1.73.79c-1.1.44-2.63,1-4.35,1.53s-3.28,1-4.42,1.26a8.56,8.56,0,0,1-1.88.36,9,9,0,0,1,1.8-.64l4.38-1.37,4.37-1.41A10.6,10.6,0,0,1,654.07,247.79Z"/><path class="cls-6" d="M648.66,233.24a24.4,24.4,0,0,1,.19,7.69,25.94,25.94,0,0,1-.2-3.84A23.57,23.57,0,0,1,648.66,233.24Z"/><path class="cls-6" d="M624,241.12a15.78,15.78,0,0,1,2.5-.88c1.56-.48,3.74-1.09,6.17-1.68s4.64-1,6.25-1.31a16.51,16.51,0,0,1,2.62-.36,17.46,17.46,0,0,1-2.56.65c-1.6.35-3.8.84-6.22,1.43s-4.6,1.14-6.18,1.55A18.93,18.93,0,0,1,624,241.12Z"/><path class="cls-9" d="M642.87,264.57c-3-2.24-6.09-2.68-9.8-2.54a30,30,0,0,0-10.72,2.77c-5.8,2.54-11.25,6.28-14.72,11.58s-4.67,12.32-2.07,18.09a2.62,2.62,0,0,0,1.17,1.43,2.82,2.82,0,0,0,1.94-.15c6.6-2.15,13.24-4.32,19.31-7.69s11.59-8.06,14.84-14.19a12,12,0,0,0,1.56-4.7,5.88,5.88,0,0,0-1.51-4.6"/><path class="cls-6" d="M642.93,263.87a2.55,2.55,0,0,1-.48.2l-1.38.47-1,.34-1.17.45c-.83.34-1.8.68-2.82,1.17l-1.62.74c-.56.26-1.12.58-1.71.88-1.2.59-2.41,1.34-3.7,2.1A58.49,58.49,0,0,0,614.5,283c-.92,1.18-1.82,2.29-2.55,3.4-.38.55-.77,1.06-1.09,1.59s-.64,1-.94,1.51c-.62.94-1.08,1.86-1.52,2.65-.22.39-.43.76-.6,1.1s-.32.66-.46,1l-.65,1.31a2.46,2.46,0,0,1-.25.45,2,2,0,0,1,.18-.48l.58-1.35c.13-.29.27-.62.42-1a12,12,0,0,1,.58-1.12c.42-.8.86-1.73,1.47-2.69l.92-1.54c.32-.53.7-1,1.08-1.61.72-1.12,1.62-2.24,2.53-3.44a56.76,56.76,0,0,1,14.65-12.89c1.3-.75,2.53-1.5,3.74-2.08.6-.29,1.17-.61,1.73-.86l1.64-.71a26.94,26.94,0,0,1,2.86-1.12c.43-.16.82-.31,1.19-.43l1-.3,1.41-.4A3.18,3.18,0,0,1,642.93,263.87Z"/><path class="cls-6" d="M619.82,276.39a137.83,137.83,0,0,1-14.51,4.24,135.35,135.35,0,0,1,14.51-4.24Z"/><path class="cls-6" d="M619.52,292.27a11.21,11.21,0,0,1-.16-2.24v-5.42c0-2.11.17-4,.28-5.41A11.74,11.74,0,0,1,620,277a12,12,0,0,1,0,2.24c0,1.52-.11,3.37-.17,5.41s-.1,3.89-.14,5.41A12.58,12.58,0,0,1,619.52,292.27Z"/><path class="cls-6" d="M633.12,285.34c-.11,0-.47-3.89-.8-8.7s-.51-8.71-.4-8.72.47,3.88.81,8.69A86.1,86.1,0,0,1,633.12,285.34Z"/><path class="cls-6" d="M616.19,267.54a12.75,12.75,0,0,1,2.31-.07c1.42,0,3.38,0,5.55.12s4.13.16,5.55.25a11.87,11.87,0,0,1,2.3.22,11.9,11.9,0,0,1-2.31.07c-1.42,0-3.38-.05-5.55-.12s-4.14-.16-5.56-.25A11.69,11.69,0,0,1,616.19,267.54Z"/><path class="cls-6" d="M650.19,316.4a2.42,2.42,0,0,1-.05-.47,11.69,11.69,0,0,0-.06-1.35c-.05-1.18-.06-2.88,0-5s.18-4.6.43-7.37.65-5.8,1.21-9,1.25-6.14,2-8.82,1.45-5.08,2.14-7.07,1.29-3.58,1.74-4.66c.21-.51.39-.92.52-1.25a2.74,2.74,0,0,1,.21-.42,1.37,1.37,0,0,1-.13.45l-.45,1.28c-.41,1.1-1,2.7-1.61,4.69s-1.35,4.39-2.06,7.07-1.35,5.66-1.91,8.81-1,6.16-1.24,8.92-.44,5.25-.51,7.34-.12,3.79-.12,5v1.36A1.66,1.66,0,0,1,650.19,316.4Z"/><path class="cls-6" d="M652,292.93a9.35,9.35,0,0,1-1.37,1.51c-.89.88-2.16,2.07-3.6,3.34s-2.79,2.36-3.78,3.13a10.24,10.24,0,0,1-1.68,1.16,10.31,10.31,0,0,1,1.49-1.39l3.7-3.21,3.67-3.25A10.77,10.77,0,0,1,652,292.93Z"/><path class="cls-6" d="M662.9,301.7a16.85,16.85,0,0,1-1.47-2l-3.39-5-3.47-4.92a14.4,14.4,0,0,1-1.39-2.07,14.65,14.65,0,0,1,1.62,1.9c1,1.21,2.23,2.92,3.57,4.85s2.5,3.72,3.31,5A14.72,14.72,0,0,1,662.9,301.7Z"/><path class="cls-6" d="M657.19,274.12c.06.09-3.55,2.53-8.07,5.44s-8.24,5.18-8.3,5.09,3.55-2.53,8.07-5.44S657.13,274,657.19,274.12Z"/><path class="cls-6" d="M667.39,285.12a65.29,65.29,0,0,1-5.47-5.05,68.85,68.85,0,0,1-5.18-5.35,65.41,65.41,0,0,1,5.47,5.06A68.72,68.72,0,0,1,667.39,285.12Z"/><path class="cls-9" d="M670,284.9l3.11-.25a15.59,15.59,0,0,0,6.27-1.92,26.58,26.58,0,0,1,2.92-1.47c3.84-1.54,8.12-1.27,12.25-1.47a50.77,50.77,0,0,0,19.49-5,1.82,1.82,0,0,0,.85-.77c.64-1.16-.54-2.19-1.56-2.82-5.23-3.22-10.56-6.49-16.49-8.09s-12.66-1.33-17.73,2.16c-5.94,4.08-8.1,12.48-9.11,19.62"/><path class="cls-6" d="M714.91,273.65a4.9,4.9,0,0,1-.52-.24l-1.47-.77c-1.28-.68-3.12-1.67-5.44-2.78a50.72,50.72,0,0,0-8.41-3.24,27.72,27.72,0,0,0-10.91-.89,18.69,18.69,0,0,0-9.94,4.27,22.11,22.11,0,0,0-5.17,7.27q-1.27,2.78-2.26,5.66l-.55,1.57a2.55,2.55,0,0,1-.22.54,4,4,0,0,1,.14-.57l.48-1.59a53.32,53.32,0,0,1,2.14-5.73,22,22,0,0,1,5.19-7.43,18.73,18.73,0,0,1,10.14-4.39,27.75,27.75,0,0,1,11.06.92,49.12,49.12,0,0,1,8.44,3.35c2.31,1.15,4.13,2.18,5.38,2.89l1.44.84A3.08,3.08,0,0,1,714.91,273.65Z"/><path class="cls-6" d="M707.46,277.66c-.07.09-4.13-2.54-9.07-5.87s-8.9-6.11-8.84-6.21,4.12,2.53,9.07,5.87S707.52,277.56,707.46,277.66Z"/><path class="cls-6" d="M703.56,265.19a15.08,15.08,0,0,1-6.4.59,19,19,0,0,1,3.19-.36A20.31,20.31,0,0,1,703.56,265.19Z"/><path class="cls-6" d="M685.35,261.93A11,11,0,0,1,684,264.6a10.59,10.59,0,0,1-1.69,2.45,21.56,21.56,0,0,1,3-5.12Z"/><path class="cls-6" d="M689,280.05a10.94,10.94,0,0,1-2-1.06c-1.17-.71-2.75-1.76-4.45-3s-3.18-2.39-4.26-3.24a10.54,10.54,0,0,1-1.68-1.45,12.17,12.17,0,0,1,1.86,1.22l4.33,3.14c1.68,1.23,3.23,2.3,4.36,3.07A14,14,0,0,1,689,280.05Z"/><path class="cls-9" d="M674.53,298.09c-3-.78-6.49,2.1-7.11,5.1s.52,6.08,1.84,8.84a45.09,45.09,0,0,0,12.24,16,30.32,30.32,0,0,0,18.73,6.9c-1.25-5.82.33-11.89-.37-17.8a23.13,23.13,0,0,0-20.5-20.3c-1.89-.21-4.08-.5-4.83,1.24"/><path class="cls-6" d="M700.23,335a2,2,0,0,1-.42-.2,7.39,7.39,0,0,1-1.11-.74,11.47,11.47,0,0,1-2.92-3.91c-.48-.92-1-1.92-1.52-3l-1.59-3.52a35.6,35.6,0,0,0-2-3.76,28.4,28.4,0,0,0-2.7-3.67c-2-2.38-4.2-4.44-6.08-6.41a42,42,0,0,1-4.65-5.57,20.74,20.74,0,0,1-2.26-4.33,11.67,11.67,0,0,1-.4-1.27,1.22,1.22,0,0,1-.09-.46s.2.61.63,1.67a23.33,23.33,0,0,0,2.36,4.23,44.44,44.44,0,0,0,4.68,5.47c1.89,1.94,4.08,4,6.13,6.4a30,30,0,0,1,2.72,3.72,34.68,34.68,0,0,1,2,3.82l1.56,3.54c.5,1.09,1,2.1,1.46,3a12,12,0,0,0,2.77,3.92C699.67,334.63,700.25,334.91,700.23,335Z"/><path class="cls-6" d="M684.91,330.11a8.93,8.93,0,0,1,.28-2c.23-1.22.61-2.89,1.12-4.72s1.07-3.45,1.5-4.61a8.87,8.87,0,0,1,.81-1.84,9.85,9.85,0,0,1-.53,1.93c-.37,1.19-.87,2.82-1.38,4.63s-.94,3.47-1.24,4.67A10.23,10.23,0,0,1,684.91,330.11Z"/><path class="cls-6" d="M699.67,315.84a12.42,12.42,0,0,1-2.09-.48c-1.28-.33-3-.79-5-1.23s-3.75-.79-5-1a12.37,12.37,0,0,1-2.09-.46,9.53,9.53,0,0,1,2.13.17c1.32.17,3.12.47,5.09.92s3.73.94,5,1.35A10.5,10.5,0,0,1,699.67,315.84Z"/><path class="cls-6" d="M673.93,320a12,12,0,0,1,.32-2.31c.26-1.41.67-3.36,1.22-5.48s1.15-4,1.61-5.38a13,13,0,0,1,.85-2.17,14.54,14.54,0,0,1-.57,2.25c-.39,1.38-.93,3.29-1.49,5.4s-1,4.05-1.34,5.44A14.64,14.64,0,0,1,673.93,320Z"/><path class="cls-6" d="M692.87,303.4a81.41,81.41,0,0,1-8.25-.67c-4.55-.48-8.23-1-8.22-1.07a81.59,81.59,0,0,1,8.26.66C689.21,302.81,692.89,303.29,692.87,303.4Z"/><path class="cls-12" d="M690.16,348.23c0,.12-13,.21-29,.21s-29-.09-29-.21,13-.2,29-.2S690.16,348.12,690.16,348.23Z"/><path class="cls-12" d="M681.12,365c0,.11-8.75.2-19.55.2S642,365.07,642,365s8.76-.21,19.56-.21S681.12,364.84,681.12,365Z"/><path class="cls-12" d="M681.47,367.35c0,.11-8.76.2-19.56.2s-19.56-.09-19.56-.2,8.76-.21,19.56-.21S681.47,367.23,681.47,367.35Z"/><path class="cls-12" d="M681.47,363c0,.11-9.06.2-20.23.2S641,363.1,641,363s9.06-.21,20.23-.21S681.47,362.87,681.47,363Z"/></g></g></g></g></svg>