<?xml version="1.0" encoding="utf-8"?>
<!-- Generator: Adobe Illustrator 24.1.2, SVG Export Plug-In . SVG Version: 6.00 Build 0)  -->
<svg version="1.1" id="Camada_1" xmlns="http://www.w3.org/2000/svg" xmlns:xlink="http://www.w3.org/1999/xlink" x="0px" y="0px"
	 viewBox="0 0 1457.7 693.4" style="enable-background:new 0 0 1457.7 693.4;" xml:space="preserve">
<style type="text/css">
	.st0{opacity:0.6;}
	.st1{fill:#CCCCCC;}
	.st2{opacity:0.4;fill:#272727;enable-background:new    ;}
	.st3{fill:#FFFFFF;}
	.st4{fill:#EDCD00;stroke:#FFFFFF;stroke-width:0.59;stroke-miterlimit:10;}
	.st5{fill:#263238;}
	.st6{fill:#455A64;}
	.st7{fill:#EDCD00;}
	.st8{opacity:0.3;}
	.st9{opacity:0.2;}
	.st10{fill:#EDCD00;stroke:#FFFFFF;stroke-width:0.66;stroke-miterlimit:10;}
	.st11{fill:#B29000;}
	.st12{fill:#2B2B2B;}
	.st13{fill:#444444;}
	.st14{fill:#383838;}
	.st15{fill:#212121;}
	.st16{fill:#EFE8EB;}
	.st17{fill:#FFAD97;}
	.st18{fill:#FFC5B3;}
	.st19{fill:#B59EAB;}
	.st20{fill:#EADCE1;}
	.st21{opacity:0.5;fill:#B59EAB;enable-background:new    ;}
	.st22{fill:#9B8790;}
	.st23{fill:#DDCCD3;}
	.st24{fill:#0156BD;}
	.st25{fill:#474747;}
	.st26{fill:#CCB8C1;}
	.st27{fill:#E2C227;}
</style>
<g id="Shadow-4_3_" class="st0">
	<ellipse class="st1" cx="317.3" cy="652.6" rx="64.5" ry="37.3"/>
</g>
<g id="Shadow-4_2_" class="st0">
	
		<ellipse transform="matrix(0.9647 -0.2634 0.2634 0.9647 -120.8035 326.4987)" class="st1" cx="1157.3" cy="613.8" rx="66.4" ry="35.5"/>
</g>
<g id="Shadow-4_1_" class="st0">
	<ellipse class="st1" cx="1374.3" cy="645.3" rx="64.5" ry="37.3"/>
</g>
<g id="Shadow-4" class="st0">
	<ellipse class="st1" cx="1275.2" cy="606.2" rx="64.5" ry="37.3"/>
</g>
<g id="Camada_2_1_">
	<g id="Camada_1-2">
		<g id="Robô">
			<path class="st2" d="M162.2,406.6c-58.9,18.7-10.9,87,76.7,62C293.5,453.2,254.6,377.4,162.2,406.6z"/>
			<path class="st3" d="M225.1,413.9c0.2-0.1,0.5-0.1,0.6,0.1s0.1,0.5-0.1,0.6c0,0-0.1,0-0.1,0.1c-0.1,0.1-0.3,0.1-0.4,0l0,0
				c-0.2-0.2-0.2-0.4,0-0.6l0,0l0,0"/>
			<path class="st4" d="M263.7,257.3c0,0-2.9,12.4-2.4,14.5c2.8,6.5,5.8,12.7,8.9,18.5c0,0-0.4,12.9-0.4,14.7s1.7,1.5,1.9-0.1
				s2.6-16,1.6-19.1c-1.2-3.4-2.5-6.7-3.9-9.7l1.7-8.4L263.7,257.3z"/>
			<path class="st4" d="M247,139.7c6.2,8.3,10,14.1,16.2,22.2c3.5,4.6,7.7,10.7,10.8,15.6c2.4,4,4.1,8.5,5,13.1
				c0.7,4.6,1,9.3,0.8,13.9c-0.7,19.9-3.4,39.7-8.2,59.1l-6.6-12l1.8-54.3l-24.1-33.7l3.4-22.8c0-1,0.3-1.6,0.7-1.4L247,139.7z"/>
			<path class="st5" d="M250.1,141.2c-4.7-6.3-9.7-3.6-11.1,6.3c-0.5,3.8-0.5,7.7,0,11.5c0.4,3.2,1.2,6.9,3,7c0.6,0,1.1-0.2,1.4-0.7
				C247.2,160.6,249.6,151.9,250.1,141.2z"/>
			<path class="st6" d="M245.6,137.9l0.1-0.2c0.2,0,0.3,0.1,0.5,0.2c0.2,0.1,0.3,0.3,0.4,0.5c0.2,0.2,0.3,0.5,0.4,0.8
				c0.1,0.4,0.2,0.8,0.1,1.2v1.2c0.2,4.2-0.2,8.4-1,12.6c-0.5,3.1-1.7,6.1-3.4,8.8c-0.3,0.6-1,0.8-1.7,0.6c-0.3-0.1-0.5-0.3-0.6-0.5
				c0.2,0.1,0.4,0.2,0.6,0.2c0.6,0,1.2-0.3,1.5-0.9c1.6-2.7,2.7-5.7,3.3-8.8c0.8-4,1.1-8.1,1.1-12.1c0.1-0.7,0-1.5-0.1-2.2
				c0-0.4-0.2-0.9-0.5-1.2C245.8,138,245.6,138,245.6,137.9z"/>
			<path class="st3" d="M266.7,197.4c0.1-0.3,0.2-0.6,0.4-0.8c0.3-0.8,0.6-1.6,1-2.3c0.5-1,1-1.9,1.7-2.7s1.5-1.5,2.5-1.9
				c1.7-0.6,3.6-0.3,5,0.8c0.5,0.4,1,0.8,1.5,1.3c0.2,0.2,0.4,0.4,0.5,0.6c-0.6-0.5-1.3-0.9-2-1.4c-1.4-1.1-3.3-1.4-5-0.9
				c-0.9,0.4-1.7,1-2.4,1.8c-0.7,0.8-1.2,1.6-1.7,2.6C267.2,196.2,266.7,197.6,266.7,197.4z"/>
			<path class="st3" d="M245,162.5c0,0,5.3,6.6,11.8,15.1c6.5,8.5,11.7,15.6,11.7,15.8s-5.3-6.6-11.8-15.2S245,162.7,245,162.5z"/>
			<path class="st3" d="M269.5,259.5c0.1-0.2,0.1-0.5,0.1-0.7l0.3-1.9c0.3-1.6,0.7-4,1.1-7c0.9-5.9,2.1-14.4,3.1-23.9
				c0.5-4.9,0.9-9.5,1.2-13.7s0.6-8.1,0.7-11.4c0.1-1.6,0.1-3.2,0.2-4.5l0.1-3.4l0.1-2.1c0-0.5,0-0.8,0.1-0.7v2.9c0,1,0,2.1-0.1,3.4
				s0,2.9-0.1,4.5c-0.1,3.4-0.4,7.2-0.7,11.5s-0.7,9.1-1.2,13.8c-0.8,8.2-1.9,16.1-3.2,23.9c-0.5,3-0.9,5.3-1.2,6.9l-0.4,1.8
				C269.6,259.1,269.5,259.3,269.5,259.5z"/>
			<path class="st3" d="M264.5,184.8c-0.1-0.1-0.3,0.2-0.3,0.6v0.1c0,0.1,0.2,0.6,0.4,0.5l0,0c0.1-0.3,0.1-0.7,0-1l0,0"/>
			<path class="st3" d="M274.4,199.8c-0.2-0.1-0.3,0.1-0.3,0.4v0.2c0,0.4,0.2,0.6,0.3,0.5s0.2-0.4,0.2-0.7
				C274.6,200.1,274.5,199.9,274.4,199.8"/>
			<path class="st3" d="M273.3,220c-0.2-0.1-0.3,0.1-0.3,0.4v0.2c0.1,0.4,0.3,0.6,0.4,0.5l0,0c0.1-0.3,0.1-0.7,0-1L273.3,220"/>
			<path class="st3" d="M258.5,176.5c-0.2-0.1-0.3,0.2-0.3,0.6v0.1c0.1,0.4,0.2,0.6,0.4,0.5l0,0c0.1-0.3,0.1-0.6,0-0.9l-0.1-0.2"/>
			<path class="st3" d="M251.7,167.1c-0.2-0.3-0.3-0.6-0.2-0.9v-0.1c0.1-0.2,0.3-0.2,0.3,0.1c0,0.1,0.1,0.2,0.1,0.3
				C251.9,166.8,251.9,167.1,251.7,167.1L251.7,167.1"/>
			<path class="st5" d="M271.6,264c-1.9-4.4-4.1-8.6-6.5-12.7c-0.9-1.6-2-3.2-2.9-2.3c-0.7,1.3-1,2.8-0.8,4.3c0.2,1.7,0.5,3.5,1,5.1
				c1.1,4.2,2.9,8.3,5.5,11.8c0.5,0.9,1.3,1.6,2.3,1.9c0.8,0.1,1.5-0.8,1.9-2.4C272.5,267.8,272.3,265.8,271.6,264"/>
			<path class="st6" d="M261.9,251.1c0,0,0.4,1.6,1,4.1c0.7,3,1.8,5.8,3.2,8.5c1,2,2.4,3.7,4.1,5c1.1,0.7,1.8,0.8,1.8,1
				s-0.1,0.3-0.5,0c-0.5-0.1-0.9-0.3-1.3-0.5c-3-1.7-5.8-6.8-7.5-13.7c-0.2-1-0.4-2.1-0.6-3.2C262,251.9,261.9,251.5,261.9,251.1z"
				/>
			<path class="st5" d="M233.7,218.8c-1.6,1.5-3.5,2.6-5.6,3.3c-2.1,0.9-4.4,1.6-6.6,2.2c-2.8,0.7-5.6,1.1-8.5,1.4
				c-2.9,0.2-5.8,0.2-8.6,0c-2.3-0.2-4.7-0.6-6.9-1.2c-3.9-1-6-2.1-6-2.5c2.1-0.1,4.3,0.1,6.4,0.6c1.9,0.3,4.2,0.4,6.6,0.6
				s5.3,0,8.3,0c2.7-0.2,5.5-0.6,8.2-1.1c2.5-0.5,4.7-1,6.6-1.6C231.3,219.3,233.5,218.5,233.7,218.8z"/>
			<path class="st5" d="M232.3,224.7c0,0.3-1.8,1.4-5.2,2.5c-8.9,2.8-18.3,3.5-27.6,2c-3.5-0.6-5.6-1.3-5.5-1.7s8.7,0.4,19.2-0.4
				S232.1,223.9,232.3,224.7z"/>
			<path class="st7" d="M198.4,72c0,0-35,3.9-36.9,35s27.8,27.9,36.5,27.4c3.8-0.2,11.6-0.8,19-1.3c15.6-1.1,27.6-7.8,29.6-23.2
				c0.3-1.8,0.4-3.7,0.4-5.5C245.8,87.8,232.1,67,198.4,72z"/>
			<path class="st5" d="M233.7,105.8l-44.9,6.2c-4.7,0.7-9-2.6-9.7-7.3l0,0c-0.7-4.7,2.6-9,7.3-9.7l0,0l44.9-6.2
				c4.7-0.6,9,2.6,9.7,7.3l0,0C241.6,100.8,238.3,105.1,233.7,105.8z"/>
			<circle class="st3" cx="195.4" cy="103.2" r="2.8"/>
			<circle class="st3" cx="226.8" cy="98.1" r="2.8"/>
			<path class="st3" d="M210.8,89.4c-0.5-1-0.9-2.1-1.3-3.2c-0.9-2.6-2.2-5.1-3.8-7.3c-1.6-2.3-3.7-4.2-6.3-5.3
				c-1-0.4-2.1-0.8-3.2-1.1c0.3,0,0.6,0,0.9,0.1c0.8,0.1,1.7,0.4,2.5,0.7c2.7,1.1,5.1,3,6.7,5.4c1.6,2.3,2.9,4.8,3.7,7.5
				c0.3,1,0.6,1.8,0.7,2.4C210.8,88.8,210.8,89.1,210.8,89.4z"/>
			<path class="st3" d="M208.8,133.8c0.8-0.8,1.6-1.7,2.3-2.7c1.8-2.3,3-4.9,3.6-7.7c0.6-2.8,0.8-5.7,0.6-8.6
				c-0.2-1.2-0.2-2.4-0.2-3.6c0.1,0.3,0.2,0.6,0.2,0.9l0.4,2.6c0.3,2.9,0.2,5.8-0.4,8.7c-0.6,2.9-2,5.6-3.9,7.8
				c-0.6,0.7-1.2,1.3-1.9,1.9C209.3,133.5,209,133.6,208.8,133.8z"/>
			<g class="st8">
				<path d="M241.7,122.6c-3.9-2.8-8.4-4.5-13.2-5c-4.7-0.5-9.5-0.5-14.3-0.1c-11,0.9-22.3,2.6-31.5,8.6c-2.7,1.6-4.9,3.9-6.4,6.6
					c4.9,1.9,10.2,2.7,15.4,2.3c9.3-0.6,27.3-1.9,27.3-1.9c5.5-0.5,10.9-2.1,15.9-4.7C237.5,126.8,239.8,124.9,241.7,122.6z"/>
			</g>
			<path class="st3" d="M243.7,95.3c0.2,0.5,0.2,1.1,0.3,1.7c0.1,1.6-0.1,3.2-0.8,4.7c-1,2.4-2.8,4.3-5.1,5.4
				c-3,1.4-6.3,2.3-9.6,2.6l-25.4,3.7l-7.3,1.1c-2.5,0.3-5.1,0.8-7.7,0.9c-2.7,0.3-5.5-0.4-7.8-1.9c-4.8-3.5-6-10.1-2.9-15.1
				c1.5-2.3,3.7-4.1,6.3-5c1.2-0.4,2.5-0.7,3.8-0.8l3.8-0.6l7.3-1.2l13.4-2.1c4.3-0.6,8.2-1.5,11.8-2c1.7-0.2,3.5-0.3,5.2-0.3
				c1.6-0.1,3.2,0,4.7,0.3c2.4,0.5,4.7,1.7,6.6,3.3c1.2,1.1,2.1,2.4,2.7,3.9c0.1,0.4,0.3,0.8,0.4,1.2v0.4c0,0-0.2-0.6-0.6-1.5
				c-0.6-1.4-1.5-2.7-2.7-3.8c-1.8-1.6-4-2.7-6.4-3.2c-1.5-0.3-3-0.4-4.6-0.3c-1.7,0-3.5,0.1-5.2,0.4c-3.6,0.5-7.5,1.4-11.8,2
				l-13.4,2.3l-7.3,1.2l-3.8,0.6c-1.3,0.2-2.5,0.4-3.8,0.8c-2.5,0.9-4.6,2.6-6,4.8c-1.5,2.3-2,5-1.5,7.7c0.6,2.6,2.1,4.8,4.3,6.4
				c2.2,1.4,4.8,2.1,7.5,1.8c2.6-0.1,5.1-0.6,7.6-0.9l7.4-1.1l25.4-3.6c3.3-0.3,6.5-1.1,9.5-2.4c2.3-1.1,4.1-2.9,5.1-5.2
				c0.6-1.4,0.9-3,0.8-4.5C243.9,96.5,243.8,95.9,243.7,95.3z"/>
			<path class="st3" d="M161.7,112.3c0.5-0.5,1.1-1,1.8-1.4c1.6-1,3.2-1.8,4.9-2.5s3.4-1.2,5.2-1.6c0.7-0.2,1.5-0.3,2.2-0.3
				c0,0.2-3.4,0.8-7.2,2.4S161.8,112.5,161.7,112.3z"/>
			<path class="st3" d="M200.4,76.6c0.2,0,0.4,0,0.4,0.2c0.1,0.2,0.1,0.5-0.1,0.6l0,0c-0.1,0.1-0.3,0.1-0.4,0
				c-0.2-0.1-0.3-0.4-0.1-0.6C200.3,76.7,200.4,76.7,200.4,76.6"/>
			<path class="st3" d="M205.4,84.8L205.4,84.8c0.2-0.1,0.5,0,0.6,0.2l0,0v0.1l0,0c0,0.3-0.2,0.5-0.5,0.5l0,0h-0.1
				c-0.2-0.2-0.2-0.5-0.1-0.7L205.4,84.8"/>
			<path class="st3" d="M170.6,105L170.6,105c0.2-0.1,0.5,0,0.6,0.2c0,0.1,0,0.1,0,0.2l0,0c0,0.3-0.2,0.4-0.5,0.4l0,0h-0.1l0,0
				c-0.2-0.2-0.1-0.5,0.1-0.7l0,0"/>
			<path class="st3" d="M163.4,108.4c0.2-0.1,0.5,0,0.6,0.2v0.2c0,0.2-0.2,0.4-0.5,0.4l0,0h-0.2C163.1,109,163.1,108.7,163.4,108.4
				L163.4,108.4"/>
			<g class="st8">
				<path class="st3" d="M207.8,73.3c-2.6,1.1-5.4,1.9-8.2,2.3c-6.5,1.4-12.8,3.8-18.6,7.2c-3.1,1.9-5.8,4.3-8.2,7
					c-1.9,2.2-3.5,4.7-4.8,7.4c-2,4.6-2,7.9-2.6,7.9s-0.5-0.8-0.4-2.4c0-2.1,0.4-4.3,1.1-6.3c1-3,2.6-5.8,4.6-8.3
					c2.5-3,5.4-5.6,8.8-7.7c3.3-2,6.9-3.6,10.6-4.7c3-0.9,6-1.6,9.1-2.1C202.1,73,205,72.9,207.8,73.3z"/>
			</g>
			<g class="st8">
				<path class="st3" d="M170.8,120.8c-0.5,0.5-2.4-0.4-3.8-2.6s-1.4-4.3-0.6-4.5s1.8,1.3,2.9,3.1S171.2,120.3,170.8,120.8z"/>
			</g>
			<path class="st7" d="M242.2,137c2.1,0.6,2,31.1,1.5,46.6c-0.3,8.3-0.9,17-5.1,24.2c-5,8.1-13.6,13.2-23.1,13.7
				c-11.3,0.3-22.2-4.3-29.8-12.7c-7.4-8.5-12.4-18.7-14.6-29.8c-2.1-11-3.2-22.1-3.3-33.3C167.8,145.7,203.8,126.2,242.2,137z"/>
			<g class="st9">
				<path d="M169.4,160.4c-0.2,10,1.4,19.9,4.7,29.4c3.3,9.2,9,17.3,16.5,23.5c2.3,1.8,4.7,3.4,7.3,4.7c2.2,1.1,4.5,2,6.9,2.6
					c4,1.2,6.3-3.7,7.1-7.7c0.6-4.1-0.5-8.3-3.1-11.5s-5.7-5.9-9.3-7.9c-3.5-2.1-6.9-4.4-10.2-6.8c-5.4-4.6-9.6-10.3-12.4-16.8
					c-2.8-6.4-5.2-13-7.1-19.8"/>
			</g>
			<path class="st3" d="M195.2,201.9c0.2-0.1,0.5-0.1,0.6,0.1c0,0.1,0,0.1,0,0.2l0,0c0,0.2-0.2,0.4-0.5,0.4l0,0h-0.2
				C195,202.5,195,202.2,195.2,201.9L195.2,201.9"/>
			<path class="st3" d="M208.6,201.4L208.6,201.4c0.2-0.1,0.5,0,0.5,0.2l0,0l0,0c0.1,0.2,0,0.4-0.2,0.5l0,0c-0.1,0.1-0.2,0.1-0.3,0
				l0,0C208.4,201.9,208.4,201.7,208.6,201.4L208.6,201.4"/>
			<path class="st3" d="M223.4,187.4c0.2-0.1,0.5,0,0.6,0.2c0,0.1,0,0.1,0,0.2l0,0c0,0.3-0.2,0.5-0.5,0.5l0,0h-0.1
				c-0.2-0.2-0.2-0.5,0-0.7l0,0l0,0"/>
			<path class="st3" d="M216.6,153c0.2-0.1,0.5,0,0.6,0.2c0,0.1,0,0.1,0,0.2l0,0c0,0.3-0.2,0.5-0.5,0.5l0,0l0,0
				c-0.2-0.2-0.2-0.5,0-0.7l0,0"/>
			<path class="st3" d="M230.5,158.7L230.5,158.7c0.2-0.1,0.5,0,0.6,0.2l0,0l0,0c0,0.2-0.2,0.4-0.4,0.4l0,0c-0.1,0-0.1,0-0.2,0l0,0
				C230.3,159.2,230.3,158.9,230.5,158.7L230.5,158.7"/>
			<path class="st3" d="M179.9,197.9L179.9,197.9c0.2-0.1,0.5-0.1,0.6,0.1l0,0v0.2c0,0.2-0.2,0.4-0.5,0.4l0,0h-0.2l0,0
				C179.6,198.4,179.6,198.1,179.9,197.9L179.9,197.9"/>
			<path class="st3" d="M177.6,186.5L177.6,186.5c0.2-0.1,0.5,0,0.6,0.2l0,0l0,0c0,0.3-0.2,0.5-0.4,0.5l0,0h-0.1
				C177.5,187,177.4,186.8,177.6,186.5L177.6,186.5"/>
			<path class="st3" d="M176.7,176.1c0.2-0.1,0.4,0,0.5,0.1c0,0.1,0,0.1,0,0.2l0,0c0,0.3-0.2,0.5-0.5,0.4l0,0
				C176.5,176.6,176.5,176.3,176.7,176.1L176.7,176.1"/>
			<path class="st3" d="M175.7,165.1c0.2-0.1,0.5,0,0.6,0.2c0,0.1,0,0.1,0,0.2l0,0c0,0.3-0.2,0.5-0.5,0.5l0,0h-0.1
				c-0.2-0.2-0.2-0.5,0-0.7l0,0"/>
			<path class="st3" d="M238.7,156c0.2-0.1,0.4,0,0.6,0.2l0,0l0,0c0.1,0.2,0,0.5-0.2,0.6l0,0c-0.1,0.1-0.3,0.1-0.4,0
				C238.5,156.6,238.5,156.3,238.7,156L238.7,156"/>
			<path class="st3" d="M225.7,200.3c0.2-0.1,0.5,0,0.6,0.2c0,0.1,0,0.1,0,0.2l0,0c0,0.3-0.2,0.5-0.5,0.5l0,0h-0.2
				c-0.2-0.2-0.2-0.4,0-0.6l0,0l0,0"/>
			<path class="st3" d="M227.2,211.3c0.2-0.1,0.5-0.1,0.6,0.2l0,0c0,0.1,0,0.1,0,0.2l0,0c0,0.3-0.2,0.5-0.5,0.5l0,0h-0.1
				c-0.2-0.2-0.2-0.5,0-0.7l0,0l0,0"/>
			<g class="st8">
				<path class="st3" d="M233.6,145.2c-2.7,1.6-5.6,2.7-8.7,3.3c-3.3,0.9-6.6,1.6-9.9,2.1c-4.1,0.6-8.2,1-12.4,1.2
					c-4.1,0.1-8.3,0-12.4-0.3c-3.3-0.3-6.6-0.8-9.9-1.4c-3.1-0.3-6.2-1.3-9-2.7c0-0.8,14,2.4,31.4,1.7S233.4,144.4,233.6,145.2z"/>
			</g>
			<path class="st3" d="M193.9,215.7l-0.6-0.5l-1.6-1.4c-1.8-1.8-3.3-3.9-4.4-6.2c-0.7-1.6-1.3-3.3-1.8-5c-0.6-1.9-1.1-3.8-1.7-5.9
				c-1.1-4.2-2.2-8.7-3.1-13.6c-1.6-8.3-2.8-16.8-3.5-25.3c-0.2-3.3-0.5-5.8-0.5-7.7v-2.7c0,0.2,0,0.5,0,0.7v2.1
				c0,1.8,0.3,4.4,0.6,7.6c0.8,8.4,2,16.8,3.7,25.1c0.9,4.8,2,9.5,3.1,13.6c0.5,2.1,1.1,4,1.6,5.9c0.4,1.7,1,3.4,1.7,5
				c1,2.3,2.5,4.5,4.2,6.3l1.4,1.5C193.5,215.4,193.7,215.5,193.9,215.7z"/>
			<path class="st3" d="M218.4,182c0.2,0,1.3,8.4,2.5,18.8s2.2,18.7,2,18.8s-1.3-8.4-2.6-18.7S218.2,182,218.4,182z"/>
			<path class="st3" d="M202.5,135.1c0.3,0.2,0.5,0.5,0.8,0.8c0.4,0.5,1.1,1.3,1.9,2.2c1.6,1.9,3.8,4.4,6.1,7.3l0.9,1.1l0,0
				c0,0.1,0,0.1,0,0.2v0.2l0,0v0.7c0,0.9,0,1.7,0.2,2.6v7.1c0.1,0.4,0.1,0.7,0,1.1c-0.2-1.3-0.3-2.6-0.4-3.9l-0.3-4.3
				c0-0.8,0-1.7-0.2-2.5v-0.6l0,0l-0.2-0.2l-0.9-1.1c-2.4-2.9-4.5-5.5-6-7.4c-0.7-1-1.4-1.8-1.8-2.4
				C202.6,135.5,202.6,135.3,202.5,135.1z"/>
			<path class="st3" d="M219.3,198c-0.4,0.1-0.9,0.2-1.3,0.3c-0.9,0.2-2.1,0.3-3.6,0.5c-3.1,0.4-7.3,0.8-12,1s-9,0.2-12.1,0.2h-3.7
				c-0.4,0.1-0.9,0.1-1.3,0c0.4,0,0.9,0,1.3,0h3.7c3.1,0,7.3,0,12-0.4s9-0.6,12.1-0.9l3.6-0.3L219.3,198z"/>
			<path class="st3" d="M243.7,157.4c-0.2,0.2-0.5,0.4-0.7,0.5l-2.1,1.1c-2.4,1.2-4.9,2.1-7.4,2.9c-2.5,0.8-5.1,1.3-7.8,1.8
				c-1.1,0.2-2.2,0.3-3.3,0.3c1.1-0.3,2.2-0.5,3.3-0.7c2-0.4,4.7-1,7.7-1.9c2.5-0.7,5-1.6,7.4-2.7
				C241.8,158.3,242.8,157.9,243.7,157.4z"/>
			<circle class="st5" cx="214.9" cy="170.2" r="12.3"/>
			<circle class="st3" cx="216.4" cy="169.5" r="9"/>
			<path class="st7" d="M219.6,172c-0.1-0.5-0.2-1-0.2-1.5c0-0.9-0.2-2.3-0.4-3.9v0.4l-4.7-2.4h0.3l-4.4,2.9c0,0.2,0.2-0.2,0-0.2
				l0,0v5.3l-0.2-0.2l4.7,2.4h-0.2l3.3-2c0.4-0.3,0.8-0.5,1.3-0.7l-1.1,0.8c-1.1,0.8-2.2,1.6-3.3,2.4l0,0l-4.8-2.4l0,0v-5.4l0,0
				c0,0,0.2-0.5,0-0.3l4.5-2.9l0,0l4.7,2.4l0,0v4C219.3,171.1,219.5,171.5,219.6,172z"/>
			<g class="st9">
				<path d="M167.7,145.7c0,0,36.1-19.8,74.4-8.7C242.2,137,225.7,152.6,167.7,145.7z"/>
			</g>
			<path class="st3" d="M225.9,388.4c0.2-0.1,0.5,0,0.6,0.2s0,0.5-0.2,0.6c-0.1,0-0.3,0-0.4,0c-0.2-0.2-0.2-0.5,0-0.7l0,0"/>
			<path class="st7" d="M210.2,253.3c0.3,25.7,3.7,51.3,9.9,76.3c0.8,4.4,2.7,8.5,5.5,11.9c3,3.5,8.1,4.3,12,2
				c2.7-2.7,4.1-6.4,4-10.2c3.3-27.5,5.1-55.2,5.5-83c0,0,0.8-21.2-14.1-21.2S209.8,237.6,210.2,253.3z"/>
			<g class="st9">
				<path d="M220.7,231.5c2.2-2.1,5.6-2.2,7.9-0.3c2.2,2,3.5,4.8,3.7,7.8c1.1,9.2-3.3,18.1-5.1,27.2s-0.4,17.9-0.8,26.8
					s-2.4,17.9-9.5,23.5c0,0-6.6-34.4-5.8-47.5C211.8,259.4,220.7,231.5,220.7,231.5z"/>
			</g>
			<path class="st3" d="M222.6,266.1c0.1,0.3,0.1,0.5,0,0.8l0.3,2.4l0.9,8.5c0.7,7.1,1.8,17,3.3,27.9s2.9,20.7,4,27.8l1.3,8.4
				l0.3,2.4v0.9c-0.1-0.3-0.2-0.5-0.2-0.8l-0.4-2.4c-0.4-2-0.9-4.8-1.5-8.4c-1.2-7.1-2.7-16.9-4.1-27.8s-2.4-20.8-3.1-27.9
				c-0.3-3.6-0.6-6.6-0.7-8.5V267C222.6,266.4,222.6,266.1,222.6,266.1z"/>
			<path class="st5" d="M200.6,271.9c7.9,3.2,16.9,0.6,21.7-6.4s6.4-15.8,7.7-24.2c0.8-2.8,0.5-5.8-0.9-8.3
				c-2.1-2.6-5.8-2.7-9.1-2.6l-31.2,1c0,0-11.3,3.3-11.3,9.9S191.1,267.1,200.6,271.9z"/>
			<path class="st7" d="M227.5,347.2c-3.4,0.4-6.3,2.7-7.5,6c-1.2,3.2-1.7,6.5-1.6,9.9c-0.7,20.5-1.5,41-0.3,61.4
				c-0.2,4.5,0.9,8.9,3.3,12.7c2.7,3.5,8.5,5,11.6,1.7c1.5-2,2.3-4.5,2.4-7.1l7.9-73.2c0.6-2.7,0.3-5.6-0.8-8.1
				c-1.5-2.2-3.9-3.6-6.6-3.9c-2.7-0.2-5.3,0-7.9,0.7"/>
			<path class="st3" d="M223.3,443.5v-1c0-0.6-0.3-1.6-0.3-2.8c-0.2-2.4-0.5-6-0.7-10.3c-0.4-8.7-0.4-20.7,0-34s0.8-25.2,1.1-34
				c0-3.5,0.6-6.9,1.7-10.1c0.4-0.9,0.8-1.7,1.3-2.5l0.4-0.6l0,0l-0.4,0.6c-0.5,0.8-0.9,1.6-1.2,2.5c-1.1,3.2-1.6,6.6-1.6,10.1
				c-0.2,8.7-0.5,20.7-0.9,34s-0.5,25.3-0.2,34c0,4.4,0.4,7.9,0.5,10.3l0.2,2.8L223.3,443.5L223.3,443.5z"/>
			<path class="st5" d="M219.9,445.1c-0.4-2.1-0.5-4.2-0.3-6.3c0.2-2.1,1.1-4.1,2.7-5.4c1.4-1,3-1.5,4.7-1.5c1.6-0.2,3.2,0,4.7,0.7
				c2.3,1.3,3.7,3.6,4,6.1l1.6,7.6"/>
			<path class="st7" d="M219.3,444.8l18.1,0.2c0,0,13.2,3,13.2,4.1s-31.8-0.2-31.8-0.2L219.3,444.8z"/>
			<path class="st6" d="M214.8,231.3c0.3,0.5,0.5,1.1,0.6,1.6c0.2,0.7,0.4,1.3,0.6,2c0.2,0.8,0.5,1.6,0.6,2.6s0.4,2.2,0.5,3.3
				c0.2,1.2,0.3,2.5,0.3,3.8c0.1,2.9-0.1,5.8-0.5,8.7s-1.1,5.7-2.1,8.4c-0.4,1.2-0.9,2.4-1.5,3.5c-0.3,0.5-0.5,1.1-0.8,1.5l-0.8,1.4
				c-0.5,0.8-1,1.6-1.5,2.4c-0.4,0.6-0.7,1.1-1.2,1.6c-0.3,0.5-0.7,0.9-1.1,1.4c0.3-0.5,0.6-1,0.9-1.5c0.4-0.5,0.8-1.1,1.2-1.7
				c0.4-0.7,0.9-1.5,1.3-2.4l0.8-1.4l0.7-1.5c0.5-1.1,0.9-2.2,1.4-3.3c1.9-5.4,2.8-11.2,2.6-16.9c0-1.3,0-2.5-0.2-3.7
				s-0.3-2.2-0.5-3.3s-0.4-1.9-0.5-2.7s-0.3-1.4-0.4-2C215,232.6,214.9,231.9,214.8,231.3z"/>
			<path class="st3" d="M229.1,292.5L229.1,292.5c0.2-0.1,0.4-0.1,0.6,0.1l0,0c0,0.1,0,0.1,0,0.2l0,0c0,0.2-0.2,0.4-0.4,0.5h-0.1
				C228.9,293.1,228.9,292.8,229.1,292.5L229.1,292.5"/>
			<path class="st3" d="M231.7,315.1L231.7,315.1c0.2-0.1,0.5,0,0.6,0.2l0,0v0.1l0,0c0,0.2-0.1,0.4-0.4,0.5h-0.2l0,0
				c-0.2-0.1-0.2-0.4-0.1-0.6L231.7,315.1"/>
			<path class="st3" d="M226.4,269.5L226.4,269.5c0.2-0.1,0.5-0.1,0.6,0.1l0,0c0,0.1,0,0.1,0,0.2c0,0.3-0.2,0.5-0.4,0.5h-0.1l0,0
				c-0.2-0.2-0.2-0.5,0-0.7l0,0l0,0"/>
			<path class="st3" d="M226.4,366.9L226.4,366.9c0.2-0.1,0.5-0.1,0.6,0.1l0,0c0,0.1,0,0.1,0,0.2c0,0.3-0.2,0.5-0.4,0.5h-0.1
				c-0.2-0.2-0.2-0.5,0-0.7l0,0"/>
			<path class="st6" d="M236.1,438.8c-0.7,0.4-1.5,0.7-2.4,0.9c-2,0.5-4,0.9-6,1s-4,0-6.1-0.3c-0.8-0.1-1.6-0.3-2.4-0.6
				c2.8,0.3,5.6,0.4,8.4,0.3C230.6,439.8,233.3,439.4,236.1,438.8z"/>
			<g class="st9">
				<path d="M217.4,408.9c4.7-3.8,8.1-8.9,9.6-14.7c1.5-5.8,2.4-11.7,2.6-17.6c0.2-6,1.2-11.9,2.7-17.6c0.5-1.2,0.7-2.5,0.6-3.8
					c-0.8-2-2.4-3.5-4.4-4.1c-2.2-1.4-5-1.6-7.4-0.4c-1.4,1.4-2.1,3.3-2.1,5.3c-1.5,17.9-2,35.8-1.5,53.8"/>
			</g>
			<circle class="st5" cx="233.1" cy="344.1" r="12.9"/>
			<path class="st6" d="M245.4,342.2c-0.2,0.3-0.4,0.6-0.7,0.8c-0.7,0.7-1.5,1.2-2.4,1.7c-2.8,1.5-5.9,2.3-9.1,2
				c-3.1-0.2-6.2-0.8-9.1-1.8c-1.2-0.4-2-0.7-2.7-1s-0.9-0.4-0.9-0.4c1.3,0.2,2.5,0.6,3.7,1c2.9,0.9,6,1.5,9.1,1.7s6.1-0.5,8.9-1.9
				C243.3,343.7,244.3,343,245.4,342.2z"/>
			<path class="st7" d="M188.9,346.2c-3.3,0.7-6,3.1-7.1,6.4c-0.9,3.2-1.3,6.6-1,9.9c0.5,20.5,1,41,3.3,61.3
				c0.1,4.5,1.5,8.8,4.1,12.4c3,3.3,8.9,4.5,11.8,1.1c1.4-2.1,2.1-4.7,1.9-7.2l3.6-73.5c0.4-2.8,0-5.6-1.3-8.1
				c-1.6-2.2-4.2-3.4-6.9-3.5c-2.7,0-5.3,0.4-7.9,1.2"/>
			<path class="st7" d="M171.7,253.8c0.3,25.7,3.7,51.3,9.9,76.2c0.8,4.3,2.7,8.4,5.5,11.8c3,3.5,8,4.4,12,2
				c2.7-2.7,4.2-6.4,4.1-10.2c3.2-27.5,5-55.2,5.4-82.9c0,0,0.8-21.2-14.1-21.2S171.3,237.9,171.7,253.8z"/>
			<g class="st8">
				<path class="st3" d="M184.1,333.5c-1.6-4.6-2.7-9.3-3.3-14.1c-1.6-8.8-3.7-21.1-5.3-34.7c-0.8-6.8-1.4-13.2-1.9-19.3
					c-0.7-5.3-0.8-10.6-0.3-15.9c0.3-3.6,1.4-7.2,3.3-10.3l1.1-1.4c0.3-0.3,0.6-0.6,0.9-0.9c0.5-0.4,0.8-0.7,0.8-0.6
					s-0.2,0.6-0.4,0.9s-0.4,0.7-0.6,1l-0.8,1.4c-1.4,3.1-2.2,6.5-2.4,9.9c-0.2,5.2,0.1,10.4,0.9,15.5c0.6,5.9,1.3,12.4,2.1,19.1
					c1.6,13.5,3.3,25.8,4.5,34.7C183.6,323.8,184.1,328.6,184.1,333.5z"/>
			</g>
			<path class="st3" d="M192.6,344.7v-0.3l-0.2-0.9l-0.8-3.3c-0.7-3-1.6-7.1-2.5-12.4c-1.9-10.5-3.9-25.1-5.3-41.3
				c-0.7-8.1-1.3-15.8-1.8-22.8l-0.7-9.9c-0.3-2.9-0.3-5.8-0.2-8.8c0.1-2.4,0.5-4.8,1.4-7.1c0.6-1.7,1.5-3.3,2.6-4.7
				c0.7-0.9,1.5-1.7,2.4-2.4c0.3-0.3,0.6-0.5,1-0.6c-1.3,0.9-2.5,1.9-3.4,3.2c-1.1,1.4-1.9,3-2.5,4.7c-0.8,2.3-1.2,4.7-1.3,7.1
				c-0.1,2.9,0,5.8,0.3,8.7c0.2,3.1,0.5,6.5,0.8,9.9c0.5,7,1.1,14.8,1.8,22.9c1.4,16.2,3.3,30.8,5.1,41.3c0.9,5.3,1.7,9.5,2.4,12.4
				l0.7,3.3L192.6,344.7L192.6,344.7z"/>
			<path class="st3" d="M189.5,436c0-0.3,0-0.6,0-0.9c0-0.9-0.1-1.7-0.3-2.5c-0.3-2.2-0.6-5.4-1-9.3c-0.8-7.9-1.7-18.7-2.4-30.8
				s-1-23.1-1-30.9v-11.9c0-0.3,0-0.6,0-0.9v3.4c0,2.4,0,5.5,0.2,9.4c0.2,7.9,0.5,18.9,1.2,30.9s1.5,22.9,2.2,30.8
				c0.3,4,0.6,7.1,0.8,9.4l0.2,2.5C189.5,435.7,189.5,436,189.5,436z"/>
			<circle class="st5" cx="192.7" cy="344.4" r="12.9"/>
			<path class="st5" d="M185.1,447.6c-0.1-3.3,0.1-6.6,0.6-9.9c0.5-2.1,1.8-3.9,3.6-5c3-1.4,6.5-1.2,9.4,0.5c2,1.6,3.2,4,3.1,6.6
				l0.4,7.8"/>
			<path class="st7" d="M185.5,445.1l18.2-0.2c0,0,13.4,2.7,13.2,3.8s-31.8,0.5-31.8,0.5L185.5,445.1z"/>
			<path class="st3" d="M186,274.9L186,274.9c0.2-0.1,0.5,0,0.6,0.2s0,0.5-0.2,0.6c-0.1,0.1-0.3,0.1-0.4,0l0,0
				c-0.2-0.2-0.2-0.4,0-0.6l0,0l0,0"/>
			<path class="st3" d="M184.7,255.5L184.7,255.5c0.2-0.1,0.5,0,0.6,0.2v0.2c0,0.2-0.2,0.4-0.5,0.4h-0.2
				C184.5,256.1,184.5,255.8,184.7,255.5L184.7,255.5"/>
			<path class="st3" d="M187.6,298.8c0.2-0.1,0.5-0.1,0.6,0.2v0.2c0,0.3-0.3,0.5-0.6,0.4l0,0l0,0
				C187.5,299.4,187.5,299.1,187.6,298.8L187.6,298.8"/>
			<path class="st3" d="M190.8,325.6L190.8,325.6c0.2-0.1,0.4,0,0.5,0.2l0,0l0,0c0.1,0.2,0,0.4-0.2,0.6l0,0c-0.1,0.1-0.3,0.1-0.4,0
				l0,0c-0.2-0.2-0.2-0.4,0-0.6l0,0C190.8,325.7,190.8,325.7,190.8,325.6"/>
			<path class="st3" d="M187.2,366.5c0.2-0.1,0.5-0.1,0.6,0.1v0.2c0,0.2-0.2,0.4-0.5,0.5h-0.2l0,0c-0.2-0.2-0.2-0.5,0-0.6l0,0"/>
			<path class="st3" d="M189.4,387.6c0.2-0.1,0.5,0,0.6,0.2v0.2l0,0c0,0.3-0.2,0.5-0.5,0.5l0,0h-0.2c-0.2-0.2-0.2-0.5,0-0.7l0,0"/>
			<path class="st3" d="M189.5,411.2L189.5,411.2c0.2-0.1,0.5,0,0.6,0.2v0.1l0,0c0,0.2-0.1,0.4-0.4,0.5c-0.1,0-0.1,0-0.2,0
				c-0.2-0.1-0.3-0.4-0.1-0.6h0.1"/>
			<path class="st6" d="M205.3,341.9c-0.2,0.3-0.5,0.5-0.8,0.8c-0.7,0.7-1.5,1.2-2.4,1.7c-5.7,3.5-12.8,3.7-18.7,0.4
				c-0.8-0.5-1.6-1-2.4-1.6c-0.3-0.2-0.6-0.4-0.8-0.7c1.1,0.7,2.2,1.4,3.3,2c5.8,2.9,12.6,2.7,18.3-0.5
				C203.1,343.4,204.2,342.7,205.3,341.9z"/>
			<path class="st6" d="M201.8,439.5c-0.7,0.4-1.5,0.7-2.4,0.9c-1.9,0.5-3.9,0.9-5.8,0.9c-2,0.1-4,0-5.9-0.4
				c-0.8-0.1-1.6-0.3-2.4-0.6c2.7,0.4,5.5,0.5,8.2,0.5C196.3,440.6,199.1,440.2,201.8,439.5z"/>
			<path class="st3" d="M214.8,100.5c0.2,0.6,0.1,1.2-0.1,1.8c-0.5,1.4-1.8,2.5-3.3,2.7c-0.8,0.1-1.7,0-2.4-0.3
				c-0.6-0.3-1.1-0.7-1.5-1.3c-0.4-0.5-0.7-1.1-0.7-1.7c0.3,0.5,0.6,1,0.9,1.5c0.4,0.5,0.9,0.8,1.5,1.1c0.7,0.3,1.5,0.3,2.2,0.2
				c0.7-0.1,1.4-0.4,2-0.9c0.5-0.4,0.8-0.9,1.1-1.5C214.6,101.6,214.8,101,214.8,100.5z"/>
			<path class="st10" d="M160.4,259.5l3.9,5.7c-1.9,2.1-3.7,4.3-5.3,6.6c-1.2,2.1,4.8,11.9,5.3,13s3.5,1.3,3.2,0.1s-2.7-10-2.7-10
				c4.4-4,8.5-8.2,12.4-12.6c0.5-1.4-6.1-9.8-6.1-9.8L160.4,259.5z"/>
			<path class="st6" d="M154.1,256.8c1.2,0.2,2.5,0.3,3.7,0.3c6,0,11.7-2.7,15.5-7.4c1.4-1.8,2.1-3.1,2.2-3
				c-0.1,0.3-0.2,0.6-0.4,0.9c-0.4,0.8-0.9,1.6-1.5,2.3c-3.7,5-9.7,7.8-15.9,7.5c-0.9,0-1.9-0.1-2.8-0.4
				C154.7,257,154.4,256.9,154.1,256.8z"/>
			<path class="st7" d="M171.5,244.5l-15.7,8.1c0,0-12.4-42.1-13.7-49.8s24.9-52,24.9-52l18.1,11.4l-21.3,38.6L171.5,244.5z"/>
			<path class="st3" d="M142,200c1,0.5,2,1,3.1,1.5c1.1,0.4,2.2,0.8,3.4,1.1c1.4,0.4,2.9,0.6,4.4,0.6s3,0,4.4-0.3
				c1.2-0.2,2.3-0.4,3.5-0.8c1.1-0.3,2.1-0.7,3.1-1.2c-0.2,0.2-0.5,0.4-0.8,0.5c-0.7,0.4-1.5,0.7-2.2,1c-2.6,0.9-5.3,1.4-8,1.3
				c-1.5-0.1-3-0.3-4.4-0.7c-1.2-0.3-2.3-0.7-3.4-1.3c-0.7-0.3-1.4-0.7-2.1-1.2C142.5,200.5,142.2,200.2,142,200z"/>
			<path class="st3" d="M150.5,202.6c0.1-0.6,0.3-1.1,0.6-1.6l1.8-4.3c1.6-3.6,3.8-8.6,6.5-13.9s5.3-10.1,7.3-13.5
				c0.7-1.4,1.5-2.8,2.4-4.1c0.3-0.5,0.7-0.9,1.1-1.4c-0.2,0.5-0.5,1.1-0.7,1.6l-2.3,4.1c-1.9,3.5-4.4,8.3-7.1,13.6
				s-5,10.3-6.8,13.8l-2,4.2C151.1,201.5,150.8,202.1,150.5,202.6z"/>
			<path class="st3" d="M167,246.3c0,0-2-9.8-4.1-21.9s-3.6-21.9-3.6-22s2,9.8,4.1,21.9S167,246.3,167,246.3z"/>
			<path class="st3" d="M159.8,214.4L159.8,214.4c0,0.2-0.3,0.4-0.5,0.4l0,0l-0.1-0.1c-0.2-0.1-0.3-0.3-0.3-0.4
				c0-0.3,0.3-0.4,0.5-0.4C159.7,213.9,159.8,214.1,159.8,214.4"/>
			<path class="st3" d="M163,183.2L163,183.2c0,0.2-0.3,0.4-0.5,0.3l0,0l0,0c-0.2,0-0.4-0.3-0.3-0.5c0-0.1,0.1-0.3,0.2-0.3l0,0
				c0.2-0.1,0.5,0.1,0.6,0.3C163,183,162.9,183,163,183.2"/>
			<path class="st3" d="M157.2,194.6c0,0.3-0.3,0.4-0.5,0.4l0,0c-0.2,0-0.4-0.3-0.4-0.5s0.1-0.3,0.3-0.4
				C156.9,194.1,157.1,194.3,157.2,194.6L157.2,194.6"/>
			<path class="st3" d="M161.7,225.2L161.7,225.2c-0.1,0.2-0.3,0.4-0.5,0.3c0,0-0.1,0-0.1-0.1l0,0c-0.2-0.2-0.2-0.4,0-0.6l0,0h0.1
				c0.2,0,0.4,0.2,0.4,0.4l0,0"/>
			<path class="st3" d="M163.6,236.4L163.6,236.4c0,0.2-0.3,0.4-0.5,0.4l0,0l-0.1-0.1c-0.2-0.1-0.3-0.4-0.2-0.6s0.4-0.3,0.6-0.2l0,0
				c0.1,0.1,0.2,0.2,0.2,0.4"/>
			<g class="st8">
				<path class="st3" d="M163.6,197.5c-0.6-0.5,2.3-6.8,6.2-13.8s7.9-12.8,8.6-12.4s-2.1,6.6-6.2,13.8S164.2,198,163.6,197.5z"/>
			</g>
			<path class="st3" d="M168.2,173.2c0,0.2-0.3,0.4-0.5,0.4c-0.2-0.1-0.4-0.3-0.4-0.5c0-0.1,0.1-0.3,0.3-0.3l0,0
				C167.8,172.8,168.1,173,168.2,173.2L168.2,173.2"/>
			<path class="st5" d="M162.7,156.1c1.3-4.5,5.3-7.8,10-8.2c4.7-0.3,9.4,1.7,12.3,5.4c3.1,4.8,4.4,10.5,3.7,16.1"/>
			<path class="st6" d="M188.3,169c-0.2-1.6-0.6-3.2-1.2-4.8c-0.6-1.7-1.5-3.2-2.6-4.6c-1.3-1.7-3-3.1-4.9-4.1
				c-3.4-2-7.3-3-11.2-3.1c-1.2-0.1-2.4,0.1-3.5,0.5c-0.4,0.2-0.8,0.4-1.1,0.7l0.2-0.3c0.2-0.2,0.5-0.5,0.8-0.6
				c1.1-0.5,2.3-0.7,3.6-0.7c4,0,8,1,11.5,3c2,1.1,3.7,2.5,5.1,4.3c1.1,1.5,1.9,3.1,2.4,4.9c0.4,1.2,0.6,2.3,0.8,3.5
				C188.2,168.1,188.3,168.5,188.3,169z"/>
			<path class="st5" d="M171.3,244.7c-4.9,1.7-9.7,3.7-14.3,6.1c-1.9,0.9-4,2.3-4.1,4.3c0,1.5,0.9,2.9,2.3,3.6
				c1.4,0.6,3,0.8,4.5,0.6c4.6-0.3,9.1-1.8,12.9-4.5c1.4-0.9,2.5-2.1,3.3-3.6s0.7-3.3-0.1-4.7C174.9,244.9,173.1,244.2,171.3,244.7"
				/>
		</g>
		<path class="st11" d="M1145.5,356v136.9c1.8,24.5,21.7,48.8,58.4,65.9c47.6,22.2,110.4,26.2,161.4,13.2V356L1145.5,356z"/>
		<path class="st12" d="M1450.7,492.9v-99.8l-85.4-37.1v216.1c20.1-5.1,38.4-12.7,53.2-23.1C1441.8,532.7,1452.2,512.8,1450.7,492.9
			z"/>
		<path class="st7" d="M1177.8,299.9c-23.3,16.3-33.7,36.3-32.3,56.1H1298v-86.4C1252.7,268.6,1207.9,278.8,1177.8,299.9z"/>
		<path class="st7" d="M1145.5,407.8c1.8,24.5,21.7,48.8,58.4,65.9c47.6,22.2,110.4,26.2,161.4,13.3l-67.2-79.2H1145.5z"/>
		<path class="st13" d="M1450.7,382.8c-1.8-24.5-21.7-48.8-58.4-65.9c-28-13.1-61.3-19.8-94.3-20.5v86.5l67.2,79.2
			c20.1-5.1,38.4-12.8,53.2-23.1C1441.8,422.6,1452.2,402.6,1450.7,382.8z"/>
		<rect x="1145.5" y="356" class="st11" width="152.5" height="51.8"/>
		<polygon class="st14" points="1365.3,462 1298.1,382.8 1298.1,407.8 1365.3,487 		"/>
		<path class="st15" d="M1193.4,347.5c-4.5,11.3-10.6,40.6-10.3,44.1c0.7,7.6,13.5,15.2,15.7,9.4c2.6-7.1,7.4-23.3,9-27.4
			c4.2-11.1,9.5-30.5,10.2-34.2c0.7-12.6,7-33.8,15.3-42.4c0,0-7.1-3.7-12.4,1.2c-3.2,2.9-10.3,10.9-14,18
			C1205.3,319.5,1196.9,338.7,1193.4,347.5z"/>
		<path class="st14" d="M1128.1,540.3c-5.4,5.3-7.1,6.8-12.2,11.8c-3,2.9-0.5,5.5,5.1,5.3c5-0.2,16.2-2.6,22.4-4.9
			c4.5-1.6,12.6-6.1,16.8-8.8c2.4-1.4,4.2-3.6,5-6.3v-8.9l-26.8,1.1C1138.4,529.7,1134,534.5,1128.1,540.3z"/>
		<path class="st14" d="M1175.3,568.2c-5.4,5.3-7.1,6.8-12.2,11.8c-3,2.9-0.5,5.5,5.1,5.3c5-0.2,16.2-2.6,22.4-4.9
			c4.4-1.6,12.6-6.1,16.8-8.8c2.4-1.4,4.2-3.6,5-6.3v-15.6l-26.8,7.9C1185.6,557.7,1181.2,562.5,1175.3,568.2z"/>
		<path class="st15" d="M1271,413.8l-53.5-20.6c0,0-8.7,8.4-24.9,18.2c-9.4,5.7-35.4,20.9-43.7,26.8c-5.1,3.6-7.4,11.4-9.4,29
			c-3.3,29-5.7,62.2-5.7,62.2s5.8,8.1,18.9,8c6,0,12-1.1,17.6-3.2l2-66.8l43.9-25.3c0,0-24.9,15.4-28.4,29.1
			c-2.9,11-3.8,19.4-4.3,33.1c-0.9,29.5-1.2,48.8-1.2,48.8s1.9,9.8,15.1,9.7c10.1,0,18.4-8.2,18.4-8.2l2.7-67.6
			c0,0,37.9-27,47.8-38.4C1277.2,435.7,1271,413.8,1271,413.8z"/>
		<path class="st14" d="M1226.7,299.8c0,0-16,12.9-17.9,31.2c-1,9.1,1.5,40.2,1.6,60.2c-7.7,5.2-29.7,18.1-29.7,18.1
			s17.7,5.5,24.6,17.7c4.6-2,8.9-4.5,12.8-7.5c0,0-0.7,2-4.7,10.1c4.8,1.5,21.3-2.4,36.6,4.3c15.3,6.7,26,3.7,26,3.7
			s2.7-13.2,0.8-25.4c-1.7-11.1-5.8-23.3-5-29.8c2.6-20.3,6.6-53.1,5.9-58.5c-1.2-9-21.6-18.7-21.6-18.7S1241.7,293.9,1226.7,299.8z
			"/>
		<path class="st15" d="M1236,298.1c0,0-9.3,0-17.3,15.4c-2.8,5.5-4.7,8.5-4.7,8.5l4.7,4.6l-6.7,3.2c0,0-2.4,23.5-0.5,33.2
			c2.1,10.7,13,30.3,13,30.3s7.1-21.9,10.2-27.4s14.8-20.6,14.8-20.6l-5.9-8.9l9.6-3.1c0,0,13.5-16.9,12.1-22
			c-1.6-5.7-6.1-10-11.8-11.5L1236,298.1z"/>
		<path class="st16" d="M1225,315.5c-2.3,7.2-4.3,14.5-5.9,21.9c-2.1,10.4,3.7,44.5,3.7,44.5s5.2-33.3,11.9-42.9
			c5.7-7.8,11.9-15.3,18.5-22.3C1253.3,316.7,1232,312.8,1225,315.5z"/>
		<path class="st7" d="M1229,317.6l-1.1,8.9c0,0-5.3,5.1-6.4,11.3c-1.1,6.2-0.8,29.5-0.8,29.5l2.2,14.6l3.1-10.1
			c0,0,2.4-13.8,4.5-22.3c0.1-2.6,0.4-5.2,0.9-7.8c1.4-4.2,1.7-12.8,1.7-12.8l5.6-6.7l-5.3-6.2L1229,317.6z"/>
		<path class="st17" d="M1232.5,299.2l-1,14.1c1.9,2.5,4.1,4.8,6.6,6.8c5.1-1.6,16.9-12.5,16.9-12.5l-3.9-21.8L1232.5,299.2z"/>
		<path class="st18" d="M1253.2,261.7c-5.3-6.8-20.5-12.4-30.4,2.2c-10.4,15.4-0.6,40.5,8.5,39.1c5.1-0.8,16.6-5.5,21.6-13.7
			C1258.6,280.1,1257.4,266.9,1253.2,261.7z"/>
		<path class="st3" d="M1232.2,303l1.2,13l-9.3,3.8C1224.1,319.8,1223.1,306.1,1232.2,303z"/>
		<path class="st3" d="M1253.6,299.8c-2.5,3.6-5.4,7-8.6,10c-4.2,4.1-11.6,6.3-11.6,6.3l3.5,10.5c0,0,12.8-5.9,17.5-11
			C1254.3,315.5,1259.9,306,1253.6,299.8z"/>
		<path class="st14" d="M1218.9,269.1c2.1,3.4,5.4,7.3,13.9,7.8c4.2,0.2,8.4-0.4,12.4-1.7l-0.6,9.3c0.9,0,1.7-0.1,2.6-0.3
			c0.9-3.5,2.4-4.3,4.1-2.9c2,1.7,1.7,8.1,1.7,8.1c4.6-4.4,7.3-10.5,7.3-17c0-6.6-5.8-20.9-17.9-22.4s-20.7,4.8-23.7,11.3
			C1217.5,263.7,1217.6,266.6,1218.9,269.1z"/>
		<rect x="1150.7" y="421.4" class="st19" width="3.5" height="2.7"/>
		<path class="st19" d="M1201.2,454.6l-48.7-28.1c-2.6-1.5-2.2-4.1,0.7-5.8l32.5-18.8c3-1.7,7.5-1.9,10-0.4l48.7,28.1
			c2.6,1.5,2.2,4.1-0.7,5.8l-32.5,18.8C1208.3,455.9,1203.7,456.1,1201.2,454.6z"/>
		<rect x="1244" y="429.4" class="st19" width="2.2" height="2.7"/>
		<path class="st20" d="M1201.2,452.1l-48.7-28.1c-2.6-1.5-2.2-4.1,0.7-5.8l32.5-18.8c3-1.7,7.5-1.9,10-0.4l48.7,28.1
			c2.6,1.5,2.2,4.1-0.7,5.8l-32.5,18.8C1208.3,453.3,1203.7,453.5,1201.2,452.1z"/>
		<polygon class="st21" points="1191.7,399.9 1157.4,419.7 1208.6,449.1 1243,429.3 		"/>
		<polygon class="st20" points="1188.8,399.5 1186.2,401.1 1237.3,430.5 1240.1,429 		"/>
		<polygon class="st20" points="1227.8,427 1225.2,428.6 1233,433 1235.7,431.5 		"/>
		<polygon class="st20" points="1219.3,422.1 1216.7,423.6 1222.1,426.8 1224.9,425.3 		"/>
		<polygon class="st20" points="1212.6,418.3 1209.9,419.8 1215.4,422.9 1218.1,421.5 		"/>
		<polygon class="st20" points="1205.8,414.4 1203.2,415.9 1208.6,419.1 1211.4,417.6 		"/>
		<polygon class="st20" points="1222.1,434.3 1219.4,435.9 1223.3,438.1 1226,436.6 		"/>
		<polygon class="st20" points="1216.5,431.1 1213.9,432.6 1217.7,434.8 1220.4,433.4 		"/>
		<polygon class="st20" points="1209.6,427.2 1207,428.7 1212.4,431.9 1215.1,430.4 		"/>
		<polygon class="st20" points="1217.6,437 1214.9,438.5 1218.8,440.7 1221.5,439.2 		"/>
		<polygon class="st20" points="1212,433.7 1209.4,435.2 1213.2,437.4 1215.9,436 		"/>
		<polygon class="st20" points="1212.8,439.5 1210.2,441 1214,443.2 1216.7,441.7 		"/>
		<polygon class="st20" points="1207.2,436.2 1204.6,437.7 1208.4,439.9 1211.1,438.5 		"/>
		<polygon class="st20" points="1205.1,429.8 1202.5,431.3 1207.9,434.5 1210.6,433 		"/>
		<polygon class="st20" points="1203.1,423.4 1200.4,424.9 1205.9,428 1208.6,426.6 		"/>
		<polygon class="st20" points="1196.3,419.5 1193.7,421 1199.1,424.2 1201.9,422.7 		"/>
		<polygon class="st20" points="1221.8,428.8 1219.2,430.3 1228.2,435.5 1231,434 		"/>
		<polygon class="st20" points="1214.6,424.6 1212,426.1 1217.4,429.3 1220.1,427.8 		"/>
		<polygon class="st20" points="1207.8,420.8 1205.2,422.3 1210.6,425.4 1213.4,424 		"/>
		<polygon class="st20" points="1201.1,416.9 1198.5,418.4 1203.9,421.6 1206.6,420.1 		"/>
		<path class="st18" d="M1222.6,406.7c0,0-8,4.1-13,6.6s-20,15.4-16.8,18.4s11,6.4,13.2,6s7.2-5.8,8-7c0.8-1.2,10.5-4.9,13.3-9.2
			C1230.1,417.2,1222.6,406.7,1222.6,406.7z"/>
		<path class="st22" d="M1209.5,405.5l0.2,41.4c0,2.2-1.8,4-4,4c-0.7,0-1.4-0.2-2-0.5l-48.8-27.9c-1.2-0.7-2-2-2-3.5l-0.2-41.4
			c0-2.2,1.8-4,4-4c0.7,0,1.4,0.2,2,0.5l48.8,27.9C1208.7,402.7,1209.5,404,1209.5,405.5z"/>
		<polygon class="st22" points="1208.1,450.1 1205.5,451.6 1202.4,448.3 1208.6,444.5 		"/>
		<polygon class="st22" points="1154.4,374.2 1152.6,375.2 1157.3,375.3 		"/>
		<path class="st23" d="M1207.5,406.7l0.2,41.4c0,2.2-1.7,4-4,4c-0.7,0-1.4-0.2-2-0.5l-48.8-27.9c-1.2-0.7-2-2-2-3.5l-0.2-41.4
			c0-2.2,1.8-4,4-4c0.7,0,1.4,0.2,2,0.5l48.8,27.9C1206.7,403.9,1207.5,405.3,1207.5,406.7z"/>
		<polygon class="st20" points="1166.3,434.5 1154.7,427.8 1154.7,422.8 1166.3,429.4 		"/>
		<polygon class="st20" points="1197.7,452.6 1186.2,446 1186.2,440.9 1197.7,447.6 		"/>
		<path class="st3" d="M1181.7,414.7c0,2.4-2.2,3.1-4.8,1.6s-4.8-4.7-4.8-7.1c0-2.4,2.1-3.1,4.8-1.6S1181.7,412.3,1181.7,414.7z"/>
		<path class="st15" d="M1287,368c3.1-21.7,2.9-40.4-8.9-48.2c-8.6-5.6-13.6,17.3-16,34.5c-0.6,4.1-4.4,23.1-5.4,27.6
			c-5.8,1.4-36.9,21.6-40.8,25.3c1,2,8.2,7.4,10.3,19.1c12.9-2.9,33.3-15.4,46.9-22.4C1283.4,398.8,1285.6,378.2,1287,368z"/>
		<path class="st24" d="M287,439.5c-31.2-13.4-67.8-19.8-104.1-19.8c-52.4,0-104.1,13.3-138.1,38.8C21.7,475.7,10.4,496,10,516.2
			h172.9l0,0L302.7,447C297.8,444.3,292.6,441.8,287,439.5z"/>
		<polygon class="st11" points="10,372.9 10,515.9 182.9,490.8 182.9,345.3 		"/>
		<polygon class="st11" points="302.7,303.6 182.9,345.3 182.9,490.8 302.7,473.4 		"/>
		<path class="st7" d="M287,296.1c-31.2-13.4-67.8-19.8-104.1-19.8c-52.4-0.1-104.1,13.3-138.1,38.7c-23.1,17.4-34.5,37.7-34.8,57.9
			h172.9l0,0l119.7-69.2C297.8,301,292.6,298.5,287,296.1z"/>
		<rect x="196.3" y="434.9" class="st14" width="172.9" height="87.1"/>
		<path class="st13" d="M369.2,434.9c-0.7-25.5-18.9-50.6-53.1-69.2l-119.7,69.2l0,0L369.2,434.9z"/>
		<polygon class="st14" points="172.9,414.2 172.9,557.8 51,605.2 51,484.7 		"/>
		<path class="st12" d="M0,414.2V536l0,0c0.1,25.4,17.7,50.4,51,69.2V438.8L0,414.2z"/>
		<path class="st13" d="M0,414.2c-0.4,25.8,17.1,51.4,51,70.4l121.9-70.4H0z"/>
		<path class="st11" d="M66.7,537.1v78.5c5.8,3.3,11.7,6.2,17.8,8.8c76.3,32.6,184.7,24.2,242.2-18.9c23.6-17.7,34.9-38.5,34.8-59.1
			l0,0v-79.7L66.7,537.1z"/>
		<path class="st7" d="M188.7,466.7L188.7,466.7l-122,70.4c5.8,3.3,11.7,6.2,17.8,8.8c31.2,13.3,67.8,19.8,104.1,19.8
			c52.4,0,104.1-13.3,138.1-38.8c24.1-18,35.4-39.3,34.8-60.3H188.7V466.7z"/>
		<path class="st15" d="M323.2,529.6c0,0-14.8,4-25.9,10.7s-16.4,13.8-23.9,9.8S262,519.7,262,519.7l65.1-11.7
			C327.1,508,331.3,524.6,323.2,529.6z"/>
		<path class="st18" d="M320,500.5c0,0,16.2,13.5,15,27.8c-0.6,7.8,0.3,11.3-0.9,21c-1.2,9.1-0.2,42.4,0.3,54.4
			c0.3,6,10.3,13.3,14.8,16.7s2.6,7.9,4.1,10c3,4.2-9.7,7.5-16.6,1.5s-18.3-10.5-18.8-20.5c-0.5-11.1-1.9-29.2-5.9-45.4
			c-2.4-9.7-2.1-21.7-2-30.7c0.1-6-22-25.1-22.8-27C285.2,503.5,320,500.5,320,500.5z"/>
		<path class="st18" d="M298.1,523.6c3.8,3.8,7.8,11.5,6.2,19.8c-1.5,7.7-2.7,13.5-2.7,21.7c0,9.2-4.2,48.6-3.7,60.6
			c0.4,8.8,3.1,17.4,3.6,22.7c0.2,2.8-1.6,6.7-1.5,9.6c0.3,5.1-12.1,4.2-16,2.4s-3.4-27.6-0.5-34.7c-0.1-9.2-2.5-24.7-6.5-40.9
			s1.1-38-2.2-42.1c-6.8-8.1-20.9-15.2-21.4-23.4c-0.6-10.2,9.6-27.1,19.7-22.5C276.6,498.4,285.5,511,298.1,523.6z"/>
		<path class="st15" d="M224,474.4c0,0-9.3,25.1-0.7,40.6c7.1,12.8,50.1,35,50.1,35s3.2-16.4,13.7-23c8.9-5.6,40-19,40-19
			l-53.2-40.8C273.9,467.2,254.1,491.7,224,474.4z"/>
		<path class="st18" d="M301.1,455.1c3.6-1.8,7.3-3.3,11.1-4.7c-2-5.4-4.3-10.6-6.8-15.7c-2.9-5.7-6.1-11.2-9.6-16.6
			c-3.2-4.3-12.7-17.8-12.7-17.8l-14,10.5c0,0,17.2,20.3,19.4,23.3s11.4,17.1,12.6,20.2C301.1,454.5,301.1,454.8,301.1,455.1z"/>
		<path class="st15" d="M349.2,620.3c0,0,8,4.1,11.9,9s-0.5,12.2-11.1,10.6c-5.6-0.8-13-6.8-16-9c-4.2-3.1-11.6-6.7-14.9-9.5
			s-1.3-10-1.3-10c1,2.9,2.8,5.4,5.2,7.2c4.4,3.3,10.3,6.7,12.9,7.6c6.5,2.3,11.1,3.9,13.7,0.8C352.1,624.1,349.2,620.3,349.2,620.3
			z"/>
		<path class="st15" d="M301.1,645.4c0,0,0.8,7-1.8,10.7s-9.2,3.9-13-2.6c-3.5-6.1-3.9-14.6-4.2-18.7c0-3.1,0.5-6.1,1.5-9
			c-2.7,1.7-4.1,4.9-3.3,8c1.2,5.6-0.3,13.8-0.1,18c0.7,10,3.2,17.3,10.4,20.5c5.8,2.6,14.2,0.7,14.1-9
			C304.7,657.2,303.4,651.1,301.1,645.4z"/>
		<path class="st25" d="M271.4,413.7c2.1-1,4.1-2.4,5.8-4c2.4-2.3,4.4-4.9,5.9-7.9c0,0-5.1-19-19.7-24.7c-7.1-2.8-16.4,5.1-16.4,5.1
			L271.4,413.7z"/>
		<path class="st3" d="M282,398.6l2.1,3.9c0,0-4.8,9.4-11.2,11.2s-3.1-4-3.1-4S273.8,411.3,282,398.6z"/>
		<path class="st25" d="M209.4,409.6c1.2-5.9,18.6-19.1,18.6-19.1s10.4,7.5,14.1,10.1c3.5,2.5,9.5,9,10,9.6h0.1
			c-0.9-6.7-2.6-13.2-5.2-19.5c-1.3-3,0-11.9,0-11.9s1.4-0.4,3.4-0.9c3.2,3.2,9.7,11.9,13.1,15.5s16.1,14.1,13.2,25.8
			c-1,3.7-2.2,7.3-3.6,10.9c-1.8,4.9-1.3,14-0.7,19c0.6,5.7,6.6,20.4,6.6,20.4s-12.3,15.8-26.4,15.8c-16.4,0.1-28.5-10.9-28.5-10.9
			s2.7-24.9,1.7-35.1C225.7,439.3,205.5,429.2,209.4,409.6z"/>
		<path class="st3" d="M252.5,387.8c0,0,10.2,11.7,9.4,16.3c-2.6,2.5-8.6,7.4-8.6,7.4l-6.9-22.8L252.5,387.8z"/>
		<path class="st18" d="M273.4,480.9c-9.7-7.3-19.9-14.2-30.6-19.5c-3.5-4-4.9-6.5-7.1-12.7s-5.9-15.1-5.9-15.1l-18.5,6.2
			c0,0,7.2,16.7,10.5,22.1c2.1,3.5,5.7,10.2,10.7,13.9c5.3,3.9,11.8,8.6,35.3,15.6C268.5,487.2,273.5,480.9,273.4,480.9z"/>
		<path class="st14" d="M267.5,350c0,0,3.9,11.7,1.7,38.5c-0.6,6.9-2.6,13.6-5.7,19.7c0,0-5.8-16-14.1-21.3
			c-5.8-3.7,2.9-10.7,2.9-10.7L267.5,350z"/>
		<path class="st17" d="M248.1,380.1c0,0,0.4,10.1,2.4,15.4c1.6,2.3,3.5,9.5,2.9,16c-3.4-1.7-9.1-7.2-12.4-10
			c-3.9-3.4-14.3-10.1-14.3-10.1l0.4-30L248.1,380.1z"/>
		<path class="st18" d="M236,344.5c6.6-5,22.3-6.7,28,9.5c6,17-9.4,38.2-17.6,34.6c-4.6-2-14.2-9.2-16.9-18.1
			C226.4,360.5,230.8,348.5,236,344.5z"/>
		<path class="st3" d="M226.8,385.3c4.4,2.8,8.5,6.1,12.1,9.8c8.8,9.2,14.4,16.4,14.4,16.4s-2.8,2-13.3,2.9
			c-8.5-8.2-15.7-13.2-18.7-18.6C221.6,393.3,226.8,385.3,226.8,385.3z"/>
		<path class="st25" d="M214.1,446.4c-3.6-4.5-7.9-9-8.7-11.8c-2.3-7.4-6.1-19.1,5.6-28.2c9.2-7.1,18.1,10.2,19.9,16.6
			c2,7,1.5,12.1,1.5,17.1C229.7,443.8,220.5,449,214.1,446.4z"/>
		<path class="st3" d="M232.8,438.4c0.2,1.6,0.4,3.3,0.8,4.9c-2.9,2.7-6.4,4.6-10.3,5.5c-2.5,0.7-5,1.1-7.6,1.2l-2.7-4.9
			c3.5-0.1,6.9-0.7,10.3-1.7C227.2,442.1,232.8,438.4,232.8,438.4z"/>
		<path class="st14" d="M249.4,351.9c0,0,0.8,12.3-5,21s-5.8,16.7-5.6,25.7c0.3,15.7,4.5,20.3,4.5,20.3
			c-12.3-4.9-20.8-16.5-21.8-29.7c-2.1-22.1-1.6-39.5,4.1-47.7c5.2-7.5,15.5-5.7,15.5-5.7s13.4-10,24.4,9.1c5,8.6,2.1,15.5,0,18.7
			C260.5,353,249.4,351.9,249.4,351.9z"/>
		<path class="st26" d="M326.1,432.5c-0.5-0.3-1.3-0.3-2.4,0.2l-24,13.9c-3.2,1.6-5.8,4-7.7,7l-26,44.9c-0.9,1.5-0.9,2.6-0.3,3l0,0
			l2.6,1.5l1.2-2.5l22.7-13.1c3.2-1.6,5.8-4,7.7-7l25.9-44.9c0.1-0.1,0.1-0.2,0.2-0.3l0.6,0.6l2-1.8L326.1,432.5L326.1,432.5z"/>
		<path class="st16" d="M326.2,434.1l-24,13.9c-3.2,1.6-5.8,4-7.7,7l-26,44.9c-1.5,2.7-0.6,3.9,2.1,2.8l24-13.9c3.2-1.6,5.8-4,7.7-7
			l25.9-44.9C329.8,434.2,328.9,433,326.2,434.1z"/>
		<path class="st18" d="M316.3,457.7c-6.1,3.9-11.2,11.1-10.3,15.2s5.9,0.4,8.3-3.3S317.8,462.1,316.3,457.7z"/>
		<path class="st18" d="M267,476.2c0,0,4.6,2.1,7,0.4c3.8-2.8,6.4-2.8,6.4-2.8s-2.1,3.2,0.8,4.3s3.3,1.5,7.5,0.4
			c3.1-0.8,5.7-0.4,3,5.1c-2,4.1-8.1,8.6-11.2,9.4c-4.8,1.2-9.8-0.5-15.1-2.3C256.4,488,267,476.2,267,476.2z"/>
		<path class="st27" d="M1419.6,617.6c-10.9-6.6-26.3-10.7-43.5-10.7s-32.6,4.1-43.5,10.7l-16,4.8v17.9c0,5.2,2.2,10.1,5.9,14.5
			v-33.1h5.1v38.1c2.8,2.2,5.8,4,8.9,5.6v-33.5h5.1v35.8c3.3,1.3,6.6,2.4,10.1,3.2v-35.6h5.1V672c3.8,0.7,7.6,1.2,11.5,1.5v-36.8
			h5.1v37c0.9,0,1.7,0.1,2.6,0.1c3.1,0,6.2-0.2,9.2-0.4v-38.9h5.1v38.3c3.9-0.5,7.7-1.3,11.5-2.3v-34.4h5.1V669
			c3.6-1.2,7.1-2.7,10.5-4.5v-38.3h5.1v35.1c3-2,5.6-4.5,7.8-7.3v-36.3h-10.7V617.6z"/>
		<path class="st11" d="M1322.6,621.7v33.2c1.5,1.8,3.3,3.4,5.1,4.9v-38.1H1322.6z"/>
		<path class="st11" d="M1430.4,654c3.2-3.8,5-8.6,5.1-13.5v-17.8l-5.1-5.1V654z"/>
		<path class="st11" d="M1336.6,631.9v33.5c1.6,0.8,3.3,1.6,5.1,2.3v-35.8H1336.6z"/>
		<path class="st11" d="M1417.5,626.1v38.3c1.8-1,3.5-2,5.1-3.2v-35.1L1417.5,626.1L1417.5,626.1z"/>
		<path class="st11" d="M1351.8,635.3v35.6c1.7,0.4,3.4,0.8,5.1,1.1v-36.7H1351.8z"/>
		<path class="st11" d="M1368.4,636.8v36.7c1.7,0.1,3.4,0.2,5.1,0.2v-37L1368.4,636.8z"/>
		<path class="st11" d="M1385.3,634.6v38.9c1.7-0.1,3.4-0.3,5.1-0.6v-38.3H1385.3z"/>
		<path class="st11" d="M1401.9,636.1v34.5c1.8-0.5,3.5-1,5.1-1.6v-32.9H1401.9z"/>
		<path class="st7" d="M1435.5,622.7c0,18.5-26.6,33.5-59.4,33.5s-59.4-15-59.4-33.5s26.6-33.5,59.4-33.5S1435.5,604.2,1435.5,622.7
			z"/>
		<path class="st27" d="M1427.9,621.4c0,14.5-23,26.4-51.4,26.4s-51.4-11.8-51.4-26.4c0-14.6,23-26.4,51.4-26.4
			S1427.9,606.9,1427.9,621.4z"/>
		<path class="st7" d="M1421.9,621.5c0,12.7-20.4,23-45.5,23s-45.5-10.3-45.5-23s20.4-22.9,45.5-22.9S1421.9,608.8,1421.9,621.5z"/>
		<path class="st7" d="M1418.1,620.9c0,11.5-18.4,20.8-41.2,20.8s-41.2-9.3-41.2-20.8s18.4-20.8,41.2-20.8
			S1418.1,609.4,1418.1,620.9z"/>
		<path class="st11" d="M1376,649.1c-28.7,0-52-12.3-52-27.5s23.3-27.5,52-27.5s52,12.3,52,27.5S1404.7,649.1,1376,649.1z
			 M1376,596.4c-27.4,0-49.8,11.3-49.8,25.2s22.3,25.2,49.8,25.2s49.8-11.3,49.8-25.2S1403.5,596.4,1376,596.4z"/>
		<path class="st3" d="M1395.6,635.8c-3.6,1.7-7.5,2.8-11.5,3.1l-9.9-6.2l4.7-3l3.8,2.4c0.9,0.7,2,1,3.1,0.8s2.3-0.6,3.3-1.1
			l-12.4-7.9c-6.4,1.5-13.4,2.1-21-2.8c-6.6-4.2-7.5-8.9-3-12.4l-6.1-3.9l3.9-2.1l6,3.8c3.4-1.5,6.9-2.4,10.6-2.6l9.3,5.9l-4.7,2.9
			l-3.6-2.3c-0.9-0.7-2-1-3.1-0.8c-0.8,0.2-1.6,0.4-2.4,0.7l11.7,7.4l0,0c6.4-1.3,13.8-2.1,21.8,2.9c7.2,4.5,7.6,9.3,3.1,12.9
			l6.8,4.3l-3.9,2L1395.6,635.8z M1368.7,618.8l-9.6-6c-0.9,1.3-0.4,2.9,2.2,4.5C1363.6,618.7,1366.2,619.2,1368.7,618.8
			L1368.7,618.8z M1382.3,622.8l10.3,6.5c1-1.4,0.6-3.1-2.5-5C1387.7,622.9,1384.9,622.4,1382.3,622.8L1382.3,622.8z"/>
		<path class="st27" d="M1318.3,578.8c-10.8-6.6-26.3-10.7-43.5-10.7s-32.6,4.1-43.5,10.7l-16,4.8v17.9c0,5.2,2.2,10.1,5.9,14.5
			v-33.2h5.1v38.1c2.8,2.2,5.8,4,8.9,5.6V593h5.1v35.8c3.3,1.3,6.6,2.4,10.1,3.2v-35.6h5.1v36.7c3.8,0.7,7.7,1.2,11.5,1.5v-36.7h5.1
			v37c0.9,0,1.7,0.1,2.6,0.1c3.1,0,6.2-0.2,9.2-0.4v-38.9h5.1V634c3.9-0.5,7.7-1.3,11.5-2.3v-34.4h5.1v32.9
			c3.6-1.2,7.1-2.7,10.4-4.5v-38.3h5.1v35.1c3-2,5.6-4.5,7.8-7.3v-36.3h-10.6V578.8z"/>
		<path class="st11" d="M1221.3,582.8V616c1.5,1.8,3.3,3.4,5.1,4.9v-38.1H1221.3z"/>
		<path class="st11" d="M1329.2,615.1c3.2-3.8,5-8.6,5.1-13.5v-17.7l-5.1-5.1V615.1z"/>
		<path class="st11" d="M1235.4,593.1v33.5c1.6,0.8,3.3,1.6,5.1,2.3v-35.8H1235.4z"/>
		<path class="st11" d="M1316.2,587.3v38.3c1.8-1,3.5-2,5.1-3.2v-35.1L1316.2,587.3L1316.2,587.3z"/>
		<path class="st11" d="M1250.6,596.5v35.6c1.7,0.4,3.4,0.8,5.1,1.1v-36.7H1250.6z"/>
		<path class="st11" d="M1267.2,598v36.7c1.7,0.1,3.4,0.2,5.1,0.2v-37L1267.2,598z"/>
		<path class="st11" d="M1284,595.7v38.9c1.7-0.1,3.4-0.3,5.1-0.6v-38.3H1284z"/>
		<path class="st11" d="M1300.6,597.2v34.5c1.8-0.5,3.5-1,5.1-1.6v-32.9H1300.6z"/>
		<path class="st7" d="M1334.3,583.9c0,18.5-26.6,33.5-59.4,33.5s-59.4-15-59.4-33.5s26.6-33.5,59.4-33.5S1334.3,565.4,1334.3,583.9
			z"/>
		<path class="st27" d="M1326.6,582.6c0,14.6-23,26.4-51.4,26.4s-51.4-11.8-51.4-26.4c0-14.6,23-26.4,51.4-26.4
			S1326.6,568,1326.6,582.6z"/>
		<path class="st7" d="M1320.7,582.7c0,12.7-20.4,22.9-45.5,22.9s-45.5-10.3-45.5-22.9c0-12.6,20.4-23,45.5-23
			S1320.7,570,1320.7,582.7z"/>
		<path class="st7" d="M1316.9,582c0,11.5-18.4,20.8-41.2,20.8s-41.2-9.3-41.2-20.8s18.4-20.8,41.2-20.8S1316.9,570.6,1316.9,582z"
			/>
		<path class="st11" d="M1274.8,610.3c-28.7,0-52-12.3-52-27.5s23.3-27.5,52-27.5s52.1,12.3,52.1,27.5S1303.5,610.3,1274.8,610.3z
			 M1274.8,557.6c-27.4,0-49.8,11.3-49.8,25.2s22.3,25.2,49.8,25.2s49.8-11.3,49.8-25.2S1302.3,557.6,1274.8,557.6L1274.8,557.6z"/>
		<path class="st3" d="M1294.4,597c-3.6,1.7-7.5,2.8-11.5,3.1l-9.9-6.3l4.7-3l3.8,2.4c0.9,0.7,2,1,3.1,0.8s2.3-0.6,3.3-1.1
			l-12.4-7.8c-6.5,1.5-13.4,2.1-21-2.8c-6.6-4.2-7.5-8.9-3-12.4l-6.1-3.9l3.9-2l6,3.8c3.4-1.5,6.9-2.4,10.6-2.6l9.3,5.9l-4.7,2.9
			l-3.6-2.3c-0.9-0.7-2-1-3.1-0.8c-0.8,0.2-1.6,0.4-2.4,0.7l11.7,7.4l0,0c6.4-1.3,13.8-2.1,21.8,2.9c7.2,4.5,7.6,9.3,3.1,12.9
			l6.8,4.3l-3.9,2L1294.4,597z M1267.5,580l-9.6-6c-0.9,1.3-0.4,2.9,2.2,4.5C1262.4,579.9,1265,580.4,1267.5,580L1267.5,580z
			 M1281,584l10.3,6.5c1-1.4,0.6-3.1-2.5-5C1286.5,584.1,1283.7,583.6,1281,584L1281,584z"/>
		<path class="st27" d="M1336.7,550.1c-10.8-6.5-26.3-10.7-43.4-10.7s-32.6,4.1-43.5,10.7l-16,4.8v18c0,5.2,2.2,10.1,5.9,14.5v-33.2
			h5.1v38.1c2.8,2.2,5.8,4,8.9,5.6v-33.5h5.1v35.8c3.3,1.3,6.6,2.4,10.1,3.3v-35.8h5.1v36.7c3.8,0.7,7.6,1.2,11.5,1.5v-36.7h5.1v37
			c0.9,0,1.7,0.1,2.6,0.1c3.1,0,6.2-0.2,9.2-0.4V567h5.1v38.3c3.9-0.5,7.7-1.3,11.5-2.3v-34.5h5.1v32.9c3.6-1.2,7.1-2.7,10.5-4.5
			v-38.3h5.1v35.1c3-2,5.6-4.5,7.8-7.3V550L1336.7,550.1L1336.7,550.1z"/>
		<path class="st11" d="M1239.7,554.1v33.2c1.5,1.8,3.3,3.4,5.1,4.9v-38.1H1239.7z"/>
		<path class="st11" d="M1347.5,586.4c3.2-3.8,5-8.6,5.1-13.5v-17.7l-5.1-5.1V586.4z"/>
		<path class="st11" d="M1253.7,564.3v33.5c1.6,0.8,3.3,1.6,5.1,2.3v-35.8H1253.7z"/>
		<path class="st11" d="M1334.6,558.6v38.3c1.8-1,3.5-2,5.1-3.2v-35.1L1334.6,558.6L1334.6,558.6z"/>
		<path class="st11" d="M1268.9,567.7v35.6c1.7,0.4,3.4,0.8,5.1,1.1v-36.7H1268.9z"/>
		<path class="st11" d="M1285.5,569.3V606c1.7,0.1,3.4,0.2,5.1,0.2v-37L1285.5,569.3z"/>
		<path class="st11" d="M1302.4,567v38.9c1.7-0.2,3.4-0.4,5.1-0.6V567H1302.4z"/>
		<path class="st11" d="M1319,568.5V603c1.8-0.5,3.5-1,5.1-1.6v-32.9H1319z"/>
		<path class="st7" d="M1352.7,555.2c0,18.5-26.6,33.5-59.4,33.5s-59.4-15-59.4-33.5s26.6-33.5,59.4-33.5S1352.7,536.7,1352.7,555.2
			z"/>
		<path class="st27" d="M1345,553.8c0,14.5-23,26.4-51.4,26.4s-51.4-11.8-51.4-26.4c0-14.6,23-26.4,51.4-26.4S1345,539.3,1345,553.8
			z"/>
		<path class="st7" d="M1339,553.9c0,12.7-20.4,23-45.5,23s-45.5-10.3-45.5-23s20.4-23,45.5-23S1339,541.2,1339,553.9z"/>
		<path class="st7" d="M1335.2,553.3c0,11.5-18.4,20.8-41.2,20.8s-41.2-9.3-41.2-20.8s18.4-20.8,41.2-20.8
			S1335.2,541.8,1335.2,553.3z"/>
		<path class="st11" d="M1293.2,581.6c-28.7,0-52-12.3-52-27.5s23.3-27.5,52-27.5s52,12.3,52,27.5S1321.9,581.6,1293.2,581.6z
			 M1293.2,528.9c-27.4,0-49.8,11.3-49.8,25.2s22.3,25.2,49.8,25.2s49.8-11.3,49.8-25.2S1320.6,528.9,1293.2,528.9z"/>
		<path class="st3" d="M1312.7,568.2c-3.6,1.7-7.5,2.8-11.5,3.1l-9.9-6.3l4.7-3l3.8,2.4c0.9,0.7,2,1,3.1,0.8s2.3-0.6,3.3-1.1
			l-12.4-7.8c-6.5,1.5-13.4,2.1-21-2.8c-6.6-4.2-7.5-8.9-3-12.4l-6.1-3.9l3.9-2l6,3.8c3.4-1.5,6.9-2.4,10.6-2.6l9.3,5.9l-4.7,2.9
			l-3.6-2.3c-0.9-0.7-2-1-3.1-0.8c-0.8,0.2-1.6,0.4-2.4,0.7l11.7,7.4l0,0c6.4-1.3,13.8-2.1,21.8,2.9c7.2,4.5,7.6,9.3,3.1,12.9
			l6.8,4.3l-3.9,2L1312.7,568.2z M1285.9,551.2l-9.6-6c-0.9,1.3-0.4,2.8,2.2,4.5C1280.7,551.1,1283.3,551.7,1285.9,551.2
			L1285.9,551.2z M1299.4,555.2l10.3,6.5c1-1.4,0.6-3.1-2.5-5C1304.8,555.4,1302.1,554.8,1299.4,555.2L1299.4,555.2z"/>
	</g>
</g>
</svg>
