<?xml version="1.0" encoding="utf-8"?>
<!-- Generator: Adobe Illustrator 24.1.2, SVG Export Plug-In . SVG Version: 6.00 Build 0)  -->
<svg version="1.1" id="Capa_1" xmlns="http://www.w3.org/2000/svg" xmlns:xlink="http://www.w3.org/1999/xlink" x="0px" y="0px"
	 viewBox="0 0 512 512" style="enable-background:new 0 0 512 512;" xml:space="preserve">
<style type="text/css">
	.st0{fill:#EDCD00;}
</style>
<g>
	<path class="st0" d="M143.5,187.5h-42.8c-16.3,0-29.6,13.3-29.6,29.6V258H57.5c-4.1,0-7.5,3.4-7.5,7.5s3.4,7.5,7.5,7.5h397
		c4.1,0,7.5-3.4,7.5-7.5s-3.4-7.5-7.5-7.5h-13.6V150.2c0-16.3-13.3-29.6-29.6-29.6h-42.8c-16.3,0-29.6,13.3-29.6,29.6V258h-32v-84.3
		c0-16.3-13.3-29.6-29.6-29.6h-42.8c-16.3,0-29.6,13.3-29.6,29.6V258h-32v-40.9C173.1,200.8,159.8,187.5,143.5,187.5L143.5,187.5z
		 M86.1,217.1c0-8,6.5-14.6,14.6-14.6h42.8c8,0,14.6,6.5,14.6,14.6V258H86.1V217.1z M353.9,150.2c0-8,6.5-14.6,14.6-14.6h42.8
		c8,0,14.6,6.5,14.6,14.6V258h-71.9V150.2z M220,173.7c0-8,6.5-14.6,14.6-14.6h42.8c8,0,14.6,6.5,14.6,14.6V258H220V173.7z"/>
	<path class="st0" d="M482.8,26.5H29.2C13.1,26.5,0,39.6,0,55.7v205.8c0,4.1,3.4,7.5,7.5,7.5s7.5-3.4,7.5-7.5V55.7
		c0-7.8,6.4-14.2,14.2-14.2h453.6c7.8,0,14.2,6.4,14.2,14.2v115.8c0,4.1,3.4,7.5,7.5,7.5s7.5-3.4,7.5-7.5V55.7
		C512,39.6,498.9,26.5,482.8,26.5z"/>
	<path class="st0" d="M504.5,198c-4.1,0-7.5,3.4-7.5,7.5v119.1c0,7.8-6.4,14.2-14.2,14.2H186.2c-4.9,0-9.6,1.8-13.3,4.9L31.3,466.6
		V350.4c0-5.5-3.2-10.6-8.3-13.1C18.2,335,15,330,15,324.5v-29c0-4.1-3.4-7.5-7.5-7.5S0,291.4,0,295.5v29c0,11.1,6.4,21.3,16.3,26.2
		v123c0,4.6,2.6,8.7,6.9,10.7c1.6,0.7,3.2,1.1,4.9,1.1c2.7,0,5.4-1,7.6-2.9l147-127.6c1-0.8,2.2-1.3,3.4-1.3h296.6
		c16.1,0,29.2-13.1,29.2-29.2V205.5C512,201.3,508.6,198,504.5,198L504.5,198z"/>
</g>
</svg>
