<svg xmlns="http://www.w3.org/2000/svg" viewBox="0 0 512 459"><defs><style>.cls-1{fill:#edcd00;}</style></defs><g id="Camada_2" data-name="Camada 2"><g id="Capa_1" data-name="Capa 1"><path class="cls-1" d="M454.5,231.5H57.5a7.5,7.5,0,0,0,0,15h397a7.5,7.5,0,0,0,0-15Z"/><path class="cls-1" d="M482.8,0H29.2A29.23,29.23,0,0,0,0,29.2V235a7.55,7.55,0,0,0,7.5,7.5A7.55,7.55,0,0,0,15,235V29.2A14.25,14.25,0,0,1,29.2,15H482.8A14.25,14.25,0,0,1,497,29.2V145a7.5,7.5,0,0,0,15,0V29.2A29.23,29.23,0,0,0,482.8,0Z"/><path class="cls-1" d="M504.5,171.5A7.55,7.55,0,0,0,497,179V298.1a14.25,14.25,0,0,1-14.2,14.2H186.2a20.77,20.77,0,0,0-13.3,4.9L31.3,440.1V323.9A14.66,14.66,0,0,0,23,310.8,14.25,14.25,0,0,1,15,298V269a7.55,7.55,0,0,0-7.5-7.5A7.55,7.55,0,0,0,0,269v29a29.36,29.36,0,0,0,16.3,26.2v123a11.7,11.7,0,0,0,6.9,10.7,12.06,12.06,0,0,0,4.9,1.1,11.65,11.65,0,0,0,7.6-2.9l147-127.6a5.55,5.55,0,0,1,3.4-1.3H482.7A29.23,29.23,0,0,0,511.9,298V179A7.34,7.34,0,0,0,504.5,171.5Z"/></g></g></svg>