<svg xmlns="http://www.w3.org/2000/svg" viewBox="0 0 484 465.27"><defs><style>.cls-1{fill:#f5f5f5;}.cls-2{fill:#e0e0e0;}.cls-17,.cls-3{fill:#edcd00;}.cls-16,.cls-4,.cls-6,.cls-7,.cls-9{fill:#fff;}.cls-4{opacity:0.7;}.cls-5{opacity:0.05;}.cls-6{opacity:0.9;}.cls-7{opacity:0.75;}.cls-8{opacity:0.2;}.cls-10{opacity:0.1;}.cls-11{fill:#272727;}.cls-12,.cls-16{opacity:0.4;}.cls-13{fill:#373737;}.cls-14{opacity:0.3;}.cls-15{opacity:0.15;}.cls-17{opacity:0.76;}.cls-18{fill:none;stroke:#272727;stroke-miterlimit:10;stroke-width:0.91px;}.cls-19{fill:#fafafa;}.cls-20{fill:#455a64;}.cls-21{fill:#262626;}.cls-22{fill:#3b3b3b;}.cls-23{fill:#eaaa96;}.cls-24{fill:#efc3b1;}.cls-25{fill:#d6cad1;}</style></defs><g id="Camada_2" data-name="Camada 2"><g id="Floor"><ellipse id="Floor-2" data-name="Floor" class="cls-1" cx="242" cy="325.49" rx="242" ry="139.78"/></g><g id="Shadows"><path id="Shadow" class="cls-2" d="M83.42,358.55l-69.64-40.2c-2.43-1.41-2.43-3.68,0-5.09l125.87-72.69a9.74,9.74,0,0,1,8.8,0l69.65,40.21c2.43,1.4,2.43,3.68,0,5.08L92.22,358.55A9.68,9.68,0,0,1,83.42,358.55Z"/><ellipse id="Shadow-2" data-name="Shadow" class="cls-2" cx="390.36" cy="364.73" rx="60.77" ry="35.09"/></g><g id="Gears"><g id="Gears-2" data-name="Gears"><path class="cls-3" d="M128.14,8.74h0a.88.88,0,0,0-1,.15l-1.92,1.45-.37,1.24a2.3,2.3,0,0,0,.7,2.19,11.25,11.25,0,0,1,1,1.06,1.35,1.35,0,0,0,1.9.29L133,11.74a.93.93,0,0,1,.95-.16Zm-6.07,17.68c-.91-3.76-3.45-5.49-6.57-5a9.55,9.55,0,0,1,.79,2.18c1.44,5.95-1.81,14.74-7.24,19.63a11.67,11.67,0,0,1-5.83,3.08c2.15,3.91,6.93,4,11.61-.24C120.27,41.15,123.51,32.36,122.07,26.42ZM120.47.69h0a1.41,1.41,0,0,0-.38-.12L116.51,0a1.92,1.92,0,0,0-1.94,1.06l-2.9,6.55a2.94,2.94,0,0,1-.69.89h0a3.57,3.57,0,0,1-.54.42l1.26,3.38a1.21,1.21,0,0,0,1.72.65,15.57,15.57,0,0,1,2.13-.86,3.7,3.7,0,0,0,1.21-.74,2.62,2.62,0,0,0,.69-.9l2.9-6.55a1.93,1.93,0,0,1,1.94-1.06l3.59.56a1.37,1.37,0,0,1,.36.11ZM114.58,62.6a1,1,0,0,1-.37-.51l-1.45-3.88a1.19,1.19,0,0,0-1.72-.65,16.29,16.29,0,0,1-2.13.85,2.59,2.59,0,0,0-.66.34l.19.5a1,1,0,0,0,.49.58h0ZM104,5a.85.85,0,0,0-.39-.07,1,1,0,0,0-.63.29l-5,4.51a1.8,1.8,0,0,0-.19.2.7.7,0,0,0-.13.17,3.41,3.41,0,0,0-.41.86c0,.07,0,.15,0,.21h0a2.37,2.37,0,0,0-.08.86l.64,5a4,4,0,0,1-.66,2.49c-.8,1.09-1.54,2.24-2.24,3.41a2.61,2.61,0,0,1-1.1,1,2.14,2.14,0,0,1-.46.17.54.54,0,0,1-.22.05.78.78,0,0,1-.3,0l-3.41.06h-.08a1.26,1.26,0,0,0-.28,0l-.24.07,0,0a1.11,1.11,0,0,0-.27.13,2.21,2.21,0,0,0-.47.33,2.07,2.07,0,0,0-.5.73L84.74,33a1.36,1.36,0,0,0,.65,1.69l3.92,1.92a1.75,1.75,0,0,1,.15,1A31.86,31.86,0,0,0,89.09,41a4.2,4.2,0,0,1-1,2.4l-.06,0L83.7,48a1.33,1.33,0,0,0-.21.26l0,0a1.23,1.23,0,0,0-.17.32,2.78,2.78,0,0,0-.24,1.73l1.23,5.05a1,1,0,0,0,.45.67l5.76,2.83a1,1,0,0,1-.43-.65l-1.22-5.05a2.35,2.35,0,0,1,0-1,2.72,2.72,0,0,1,.64-1.38l4.35-4.57,0-.05a4.37,4.37,0,0,0,1-2.39,29.88,29.88,0,0,1,.36-3.46,1.7,1.7,0,0,0-1.07-1.83l-2.82-1a1.37,1.37,0,0,1-.84-1.77l2.72-7.37a2.17,2.17,0,0,1,1.88-1.33L98.52,27a2.31,2.31,0,0,0,1-.26,2.66,2.66,0,0,0,1.11-1c.69-1.17,1.45-2.32,2.24-3.41a3.92,3.92,0,0,0,.66-2.49l-.65-5a2.44,2.44,0,0,1,.07-.88,2.93,2.93,0,0,1,.79-1.44l5-4.51a.91.91,0,0,1,1-.21ZM99.58,58.94a2.33,2.33,0,0,0-.71-2.19,12.42,12.42,0,0,1-1-1.06A1.37,1.37,0,0,0,96,55.38l-2.55,1.94-1.6,5.39a1.17,1.17,0,0,0,.57,1.4h0L98.18,67a1.17,1.17,0,0,1-.57-1.41Z"/><path class="cls-4" d="M128.14,8.74h0a.88.88,0,0,0-1,.15l-1.92,1.45-.37,1.24a2.3,2.3,0,0,0,.7,2.19,11.25,11.25,0,0,1,1,1.06,1.35,1.35,0,0,0,1.9.29L133,11.74a.93.93,0,0,1,.95-.16Zm-6.07,17.68c-.91-3.76-3.45-5.49-6.57-5a9.55,9.55,0,0,1,.79,2.18c1.44,5.95-1.81,14.74-7.24,19.63a11.67,11.67,0,0,1-5.83,3.08c2.15,3.91,6.93,4,11.61-.24C120.27,41.15,123.51,32.36,122.07,26.42ZM120.47.69h0a1.41,1.41,0,0,0-.38-.12L116.51,0a1.92,1.92,0,0,0-1.94,1.06l-2.9,6.55a2.94,2.94,0,0,1-.69.89h0a3.57,3.57,0,0,1-.54.42l1.26,3.38a1.21,1.21,0,0,0,1.72.65,15.57,15.57,0,0,1,2.13-.86,3.7,3.7,0,0,0,1.21-.74,2.62,2.62,0,0,0,.69-.9l2.9-6.55a1.93,1.93,0,0,1,1.94-1.06l3.59.56a1.37,1.37,0,0,1,.36.11ZM114.58,62.6a1,1,0,0,1-.37-.51l-1.45-3.88a1.19,1.19,0,0,0-1.72-.65,16.29,16.29,0,0,1-2.13.85,2.59,2.59,0,0,0-.66.34l.19.5a1,1,0,0,0,.49.58h0ZM104,5a.85.85,0,0,0-.39-.07,1,1,0,0,0-.63.29l-5,4.51a1.8,1.8,0,0,0-.19.2.7.7,0,0,0-.13.17,3.41,3.41,0,0,0-.41.86c0,.07,0,.15,0,.21h0a2.37,2.37,0,0,0-.08.86l.64,5a4,4,0,0,1-.66,2.49c-.8,1.09-1.54,2.24-2.24,3.41a2.61,2.61,0,0,1-1.1,1,2.14,2.14,0,0,1-.46.17.54.54,0,0,1-.22.05.78.78,0,0,1-.3,0l-3.41.06h-.08a1.26,1.26,0,0,0-.28,0l-.24.07,0,0a1.11,1.11,0,0,0-.27.13,2.21,2.21,0,0,0-.47.33,2.07,2.07,0,0,0-.5.73L84.74,33a1.36,1.36,0,0,0,.65,1.69l3.92,1.92a1.75,1.75,0,0,1,.15,1A31.86,31.86,0,0,0,89.09,41a4.2,4.2,0,0,1-1,2.4l-.06,0L83.7,48a1.33,1.33,0,0,0-.21.26l0,0a1.23,1.23,0,0,0-.17.32,2.78,2.78,0,0,0-.24,1.73l1.23,5.05a1,1,0,0,0,.45.67l5.76,2.83a1,1,0,0,1-.43-.65l-1.22-5.05a2.35,2.35,0,0,1,0-1,2.72,2.72,0,0,1,.64-1.38l4.35-4.57,0-.05a4.37,4.37,0,0,0,1-2.39,29.88,29.88,0,0,1,.36-3.46,1.7,1.7,0,0,0-1.07-1.83l-2.82-1a1.37,1.37,0,0,1-.84-1.77l2.72-7.37a2.17,2.17,0,0,1,1.88-1.33L98.52,27a2.31,2.31,0,0,0,1-.26,2.66,2.66,0,0,0,1.11-1c.69-1.17,1.45-2.32,2.24-3.41a3.92,3.92,0,0,0,.66-2.49l-.65-5a2.44,2.44,0,0,1,.07-.88,2.93,2.93,0,0,1,.79-1.44l5-4.51a.91.91,0,0,1,1-.21ZM99.58,58.94a2.33,2.33,0,0,0-.71-2.19,12.42,12.42,0,0,1-1-1.06A1.37,1.37,0,0,0,96,55.38l-2.55,1.94-1.6,5.39a1.17,1.17,0,0,0,.57,1.4h0L98.18,67a1.17,1.17,0,0,1-.57-1.41Z"/><path class="cls-5" d="M128.14,8.74h0a.88.88,0,0,0-1,.15l-1.92,1.45-.37,1.24a2.3,2.3,0,0,0,.7,2.19,11.25,11.25,0,0,1,1,1.06,1.35,1.35,0,0,0,1.9.29L133,11.74a.93.93,0,0,1,.95-.16Zm-6.07,17.68c-.91-3.76-3.45-5.49-6.57-5a9.55,9.55,0,0,1,.79,2.18c1.44,5.95-1.81,14.74-7.24,19.63a11.67,11.67,0,0,1-5.83,3.08c2.15,3.91,6.93,4,11.61-.24C120.27,41.15,123.51,32.36,122.07,26.42ZM120.47.69h0a1.41,1.41,0,0,0-.38-.12L116.51,0a1.92,1.92,0,0,0-1.94,1.06l-2.9,6.55a2.94,2.94,0,0,1-.69.89h0a3.57,3.57,0,0,1-.54.42l1.26,3.38a1.21,1.21,0,0,0,1.72.65,15.57,15.57,0,0,1,2.13-.86,3.7,3.7,0,0,0,1.21-.74,2.62,2.62,0,0,0,.69-.9l2.9-6.55a1.93,1.93,0,0,1,1.94-1.06l3.59.56a1.37,1.37,0,0,1,.36.11ZM114.58,62.6a1,1,0,0,1-.37-.51l-1.45-3.88a1.19,1.19,0,0,0-1.72-.65,16.29,16.29,0,0,1-2.13.85,2.59,2.59,0,0,0-.66.34l.19.5a1,1,0,0,0,.49.58h0ZM104,5a.85.85,0,0,0-.39-.07,1,1,0,0,0-.63.29l-5,4.51a1.8,1.8,0,0,0-.19.2.7.7,0,0,0-.13.17,3.41,3.41,0,0,0-.41.86c0,.07,0,.15,0,.21h0a2.37,2.37,0,0,0-.08.86l.64,5a4,4,0,0,1-.66,2.49c-.8,1.09-1.54,2.24-2.24,3.41a2.61,2.61,0,0,1-1.1,1,2.14,2.14,0,0,1-.46.17.54.54,0,0,1-.22.05.78.78,0,0,1-.3,0l-3.41.06h-.08a1.26,1.26,0,0,0-.28,0l-.24.07,0,0a1.11,1.11,0,0,0-.27.13,2.21,2.21,0,0,0-.47.33,2.07,2.07,0,0,0-.5.73L84.74,33a1.36,1.36,0,0,0,.65,1.69l3.92,1.92a1.75,1.75,0,0,1,.15,1A31.86,31.86,0,0,0,89.09,41a4.2,4.2,0,0,1-1,2.4l-.06,0L83.7,48a1.33,1.33,0,0,0-.21.26l0,0a1.23,1.23,0,0,0-.17.32,2.78,2.78,0,0,0-.24,1.73l1.23,5.05a1,1,0,0,0,.45.67l5.76,2.83a1,1,0,0,1-.43-.65l-1.22-5.05a2.35,2.35,0,0,1,0-1,2.72,2.72,0,0,1,.64-1.38l4.35-4.57,0-.05a4.37,4.37,0,0,0,1-2.39,29.88,29.88,0,0,1,.36-3.46,1.7,1.7,0,0,0-1.07-1.83l-2.82-1a1.37,1.37,0,0,1-.84-1.77l2.72-7.37a2.17,2.17,0,0,1,1.88-1.33L98.52,27a2.31,2.31,0,0,0,1-.26,2.66,2.66,0,0,0,1.11-1c.69-1.17,1.45-2.32,2.24-3.41a3.92,3.92,0,0,0,.66-2.49l-.65-5a2.44,2.44,0,0,1,.07-.88,2.93,2.93,0,0,1,.79-1.44l5-4.51a.91.91,0,0,1,1-.21ZM99.58,58.94a2.33,2.33,0,0,0-.71-2.19,12.42,12.42,0,0,1-1-1.06A1.37,1.37,0,0,0,96,55.38l-2.55,1.94-1.6,5.39a1.17,1.17,0,0,0,.57,1.4h0L98.18,67a1.17,1.17,0,0,1-.57-1.41Z"/><path class="cls-3" d="M93.83,46.28l-4.35,4.57a2.72,2.72,0,0,0-.64,1.38L83.07,49.4a3.73,3.73,0,0,1,.23-.76,1.23,1.23,0,0,1,.17-.32l0,0A1.33,1.33,0,0,1,83.7,48l4.35-4.57Z"/><path class="cls-3" d="M99.49,26.77a2.31,2.31,0,0,1-1,.26l-3.41.06a2.14,2.14,0,0,0-1.38.6L88,24.84a2.21,2.21,0,0,1,.47-.33,1.11,1.11,0,0,1,.27-.13l0,0,.24-.07a1.26,1.26,0,0,1,.28,0h.08l3.41-.06a2.91,2.91,0,0,0,.52-.09,2.72,2.72,0,0,0,.44-.18h0Z"/><path class="cls-3" d="M133.91,11.57a.9.9,0,0,0-.95.18l-4.48,3.39a1.36,1.36,0,0,1-1.9-.3,10.07,10.07,0,0,0-1-1.06,2.32,2.32,0,0,1-.7-2.2l.37-1.22,1.92-1.46a.91.91,0,0,1,1-.16h0Z"/><path class="cls-3" d="M126.24,3.53a1.37,1.37,0,0,0-.36-.11l-3.59-.56a1.93,1.93,0,0,0-1.94,1.06l-2.9,6.55a2.62,2.62,0,0,1-.69.9L111,8.52a2.94,2.94,0,0,0,.69-.89l2.9-6.55A1.92,1.92,0,0,1,116.51,0l3.58.56a1.41,1.41,0,0,1,.38.12h0Z"/><path class="cls-3" d="M109.76,7.85a.91.91,0,0,0-1,.21l-5,4.51a2.93,2.93,0,0,0-.79,1.44l-5.77-2.84c0-.06,0-.14,0-.21a3.41,3.41,0,0,1,.41-.86.7.7,0,0,1,.13-.17,1.8,1.8,0,0,1,.19-.2l5-4.51a1,1,0,0,1,.63-.29A.85.85,0,0,1,104,5Z"/><path class="cls-6" d="M93.83,46.28l-4.35,4.57a2.72,2.72,0,0,0-.64,1.38L83.07,49.4a3.73,3.73,0,0,1,.23-.76,1.23,1.23,0,0,1,.17-.32l0,0A1.33,1.33,0,0,1,83.7,48l4.35-4.57Z"/><path class="cls-6" d="M99.49,26.77a2.31,2.31,0,0,1-1,.26l-3.41.06a2.14,2.14,0,0,0-1.38.6L88,24.84a2.21,2.21,0,0,1,.47-.33,1.11,1.11,0,0,1,.27-.13l0,0,.24-.07a1.26,1.26,0,0,1,.28,0h.08l3.41-.06a2.91,2.91,0,0,0,.52-.09,2.72,2.72,0,0,0,.44-.18h0Z"/><path class="cls-6" d="M133.91,11.57a.9.9,0,0,0-.95.18l-4.48,3.39a1.36,1.36,0,0,1-1.9-.3,10.07,10.07,0,0,0-1-1.06,2.32,2.32,0,0,1-.7-2.2l.37-1.22,1.92-1.46a.91.91,0,0,1,1-.16h0Z"/><path class="cls-6" d="M126.24,3.53a1.37,1.37,0,0,0-.36-.11l-3.59-.56a1.93,1.93,0,0,0-1.94,1.06l-2.9,6.55a2.62,2.62,0,0,1-.69.9L111,8.52a2.94,2.94,0,0,0,.69-.89l2.9-6.55A1.92,1.92,0,0,1,116.51,0l3.58.56a1.41,1.41,0,0,1,.38.12h0Z"/><path class="cls-6" d="M109.76,7.85a.91.91,0,0,0-1,.21l-5,4.51a2.93,2.93,0,0,0-.79,1.44l-5.77-2.84c0-.06,0-.14,0-.21a3.41,3.41,0,0,1,.41-.86.7.7,0,0,1,.13-.17,1.8,1.8,0,0,1,.19-.2l5-4.51a1,1,0,0,1,.63-.29A.85.85,0,0,1,104,5Z"/><path class="cls-3" d="M135.62,17.31l-1.22-5a.85.85,0,0,0-1.44-.52l-4.48,3.4a1.36,1.36,0,0,1-1.9-.3,9.12,9.12,0,0,0-1-1.06,2.31,2.31,0,0,1-.7-2.19l2-6.62a1.18,1.18,0,0,0-1-1.55l-3.58-.55a1.91,1.91,0,0,0-1.94,1l-2.9,6.55a3.49,3.49,0,0,1-1.9,1.64,17,17,0,0,0-2.13.86,1.21,1.21,0,0,1-1.72-.65l-1.45-3.88a.89.89,0,0,0-1.53-.38l-5,4.51a3,3,0,0,0-.86,2.31l.65,5a4,4,0,0,1-.66,2.49c-.8,1.1-1.55,2.24-2.24,3.41A2.71,2.71,0,0,1,98.52,27l-3.41.06a2.16,2.16,0,0,0-1.87,1.32l-2.73,7.38a1.38,1.38,0,0,0,.84,1.77l2.82,1a1.71,1.71,0,0,1,1.07,1.83,29.65,29.65,0,0,0-.36,3.46,4.3,4.3,0,0,1-1,2.39l-4.4,4.62a2.85,2.85,0,0,0-.63,2.36l1.22,5.06a.84.84,0,0,0,1.43.51L96,55.39a1.36,1.36,0,0,1,1.91.3,11,11,0,0,0,1,1.05,2.32,2.32,0,0,1,.7,2.2l-2,6.61a1.18,1.18,0,0,0,1,1.55l3.58.56a1.92,1.92,0,0,0,1.94-1.06l2.9-6.54a3.43,3.43,0,0,1,1.91-1.64,17.58,17.58,0,0,0,2.12-.87,1.21,1.21,0,0,1,1.72.66l1.46,3.88a.88.88,0,0,0,1.52.37l5-4.51a3,3,0,0,0,.86-2.31l-.65-5a4,4,0,0,1,.66-2.49,39.28,39.28,0,0,0,2.24-3.41,2.78,2.78,0,0,1,2.08-1.24l3.41-.05a2.22,2.22,0,0,0,1.88-1.33L134,34.73a1.36,1.36,0,0,0-.83-1.76l-2.83-1a1.72,1.72,0,0,1-1.06-1.84,34.52,34.52,0,0,0,.36-3.45,4.31,4.31,0,0,1,1-2.4l4.4-4.62A2.85,2.85,0,0,0,135.62,17.31ZM114.83,46c-5.43,4.88-11,4-12.44-1.93s1.81-14.74,7.24-19.63,11-4,12.44,1.93S120.26,41.15,114.83,46Z"/><path class="cls-7" d="M135.62,17.31l-1.22-5a.85.85,0,0,0-1.44-.52l-4.48,3.4a1.36,1.36,0,0,1-1.9-.3,9.12,9.12,0,0,0-1-1.06,2.31,2.31,0,0,1-.7-2.19l2-6.62a1.18,1.18,0,0,0-1-1.55l-3.58-.55a1.91,1.91,0,0,0-1.94,1l-2.9,6.55a3.49,3.49,0,0,1-1.9,1.64,17,17,0,0,0-2.13.86,1.21,1.21,0,0,1-1.72-.65l-1.45-3.88a.89.89,0,0,0-1.53-.38l-5,4.51a3,3,0,0,0-.86,2.31l.65,5a4,4,0,0,1-.66,2.49c-.8,1.1-1.55,2.24-2.24,3.41A2.71,2.71,0,0,1,98.52,27l-3.41.06a2.16,2.16,0,0,0-1.87,1.32l-2.73,7.38a1.38,1.38,0,0,0,.84,1.77l2.82,1a1.71,1.71,0,0,1,1.07,1.83,29.65,29.65,0,0,0-.36,3.46,4.3,4.3,0,0,1-1,2.39l-4.4,4.62a2.85,2.85,0,0,0-.63,2.36l1.22,5.06a.84.84,0,0,0,1.43.51L96,55.39a1.36,1.36,0,0,1,1.91.3,11,11,0,0,0,1,1.05,2.32,2.32,0,0,1,.7,2.2l-2,6.61a1.18,1.18,0,0,0,1,1.55l3.58.56a1.92,1.92,0,0,0,1.94-1.06l2.9-6.54a3.43,3.43,0,0,1,1.91-1.64,17.58,17.58,0,0,0,2.12-.87,1.21,1.21,0,0,1,1.72.66l1.46,3.88a.88.88,0,0,0,1.52.37l5-4.51a3,3,0,0,0,.86-2.31l-.65-5a4,4,0,0,1,.66-2.49,39.28,39.28,0,0,0,2.24-3.41,2.78,2.78,0,0,1,2.08-1.24l3.41-.05a2.22,2.22,0,0,0,1.88-1.33L134,34.73a1.36,1.36,0,0,0-.83-1.76l-2.83-1a1.72,1.72,0,0,1-1.06-1.84,34.52,34.52,0,0,0,.36-3.45,4.31,4.31,0,0,1,1-2.4l4.4-4.62A2.85,2.85,0,0,0,135.62,17.31ZM114.83,46c-5.43,4.88-11,4-12.44-1.93s1.81-14.74,7.24-19.63,11-4,12.44,1.93S120.26,41.15,114.83,46Z"/><path class="cls-3" d="M78.94,64.24h0a1.25,1.25,0,0,0-1.33.21l-2.65,2-.5,1.7a3.19,3.19,0,0,0,1,3,13.71,13.71,0,0,1,1.37,1.46,1.88,1.88,0,0,0,2.62.4l6.17-4.68a1.29,1.29,0,0,1,1.31-.22ZM70.57,88.59c-1.25-5.17-4.75-7.56-9-6.92a13.08,13.08,0,0,1,1.09,3c2,8.2-2.49,20.3-10,27a15.92,15.92,0,0,1-8,4.25c3,5.39,9.55,5.47,16-.33C68.08,108.89,72.55,96.78,70.57,88.59Zm-2.2-35.43h0a1.74,1.74,0,0,0-.53-.17l-4.93-.77a2.65,2.65,0,0,0-2.67,1.45l-4,9a4,4,0,0,1-.94,1.23h0a3.81,3.81,0,0,1-.75.57l1.75,4.66a1.66,1.66,0,0,0,2.36.9,21.89,21.89,0,0,1,2.93-1.18,5.12,5.12,0,0,0,1.68-1,3.92,3.92,0,0,0,.95-1.25l4-9a2.67,2.67,0,0,1,2.67-1.46l4.94.78a1.94,1.94,0,0,1,.5.14Zm-8.12,85.28a1.43,1.43,0,0,1-.5-.71l-2-5.35a1.64,1.64,0,0,0-2.36-.89,23.13,23.13,0,0,1-2.94,1.18,3.5,3.5,0,0,0-.91.45l.26.69a1.38,1.38,0,0,0,.68.8h0ZM45.64,59.09a1.24,1.24,0,0,0-.54-.1,1.41,1.41,0,0,0-.87.4L37.31,65.6a1.84,1.84,0,0,0-.26.29,1.08,1.08,0,0,0-.18.23,4.67,4.67,0,0,0-.56,1.19c0,.09-.05.19-.07.28h0a3.33,3.33,0,0,0-.11,1.19l.89,6.9a5.47,5.47,0,0,1-.91,3.43C35,80.62,34,82.2,33,83.81a3.68,3.68,0,0,1-1.53,1.35,3.12,3.12,0,0,1-.62.23,1.63,1.63,0,0,1-.3.07,1.51,1.51,0,0,1-.42.05l-4.7.08h-.11a2.32,2.32,0,0,0-.38.06,1.91,1.91,0,0,0-.34.1.05.05,0,0,0,0,0,3.14,3.14,0,0,0-.37.18,3,3,0,0,0-.65.46,2.85,2.85,0,0,0-.69,1L19.14,97.59a1.88,1.88,0,0,0,.9,2.32l5.4,2.65a2.36,2.36,0,0,1,.21,1.35,43.75,43.75,0,0,0-.51,4.76,5.75,5.75,0,0,1-1.36,3.3l-.07.07-6,6.29a1.93,1.93,0,0,0-.28.36.25.25,0,0,1,0,.07,1.65,1.65,0,0,0-.22.44,3.74,3.74,0,0,0-.33,2.39l1.69,7a1.39,1.39,0,0,0,.62.91l7.93,3.9a1.34,1.34,0,0,1-.59-.9l-1.68-7a3.07,3.07,0,0,1,0-1.35,3.77,3.77,0,0,1,.88-1.9l6-6.29.07-.07a6,6,0,0,0,1.37-3.31,44.23,44.23,0,0,1,.5-4.76,2.34,2.34,0,0,0-1.47-2.52l-3.89-1.36a1.88,1.88,0,0,1-1.15-2.43l3.75-10.16a2.61,2.61,0,0,1,.69-1,3,3,0,0,1,1.89-.83l4.71-.08a3,3,0,0,0,1.33-.36A3.62,3.62,0,0,0,41,87.73c1-1.61,2-3.19,3.09-4.7A5.47,5.47,0,0,0,45,79.6l-.89-6.89a3,3,0,0,1,.1-1.21,4,4,0,0,1,1.08-2l6.9-6.21a1.27,1.27,0,0,1,1.43-.3Zm-6.06,74.3a3.24,3.24,0,0,0-1-3,13.5,13.5,0,0,1-1.36-1.46,1.87,1.87,0,0,0-2.62-.42l-3.53,2.67-2.2,7.42a1.61,1.61,0,0,0,.78,1.93h0l8,3.93a1.61,1.61,0,0,1-.78-1.94Z"/><path class="cls-4" d="M78.94,64.24h0a1.25,1.25,0,0,0-1.33.21l-2.65,2-.5,1.7a3.19,3.19,0,0,0,1,3,13.71,13.71,0,0,1,1.37,1.46,1.88,1.88,0,0,0,2.62.4l6.17-4.68a1.29,1.29,0,0,1,1.31-.22ZM70.57,88.59c-1.25-5.17-4.75-7.56-9-6.92a13.08,13.08,0,0,1,1.09,3c2,8.2-2.49,20.3-10,27a15.92,15.92,0,0,1-8,4.25c3,5.39,9.55,5.47,16-.33C68.08,108.89,72.55,96.78,70.57,88.59Zm-2.2-35.43h0a1.74,1.74,0,0,0-.53-.17l-4.93-.77a2.65,2.65,0,0,0-2.67,1.45l-4,9a4,4,0,0,1-.94,1.23h0a3.81,3.81,0,0,1-.75.57l1.75,4.66a1.66,1.66,0,0,0,2.36.9,21.89,21.89,0,0,1,2.93-1.18,5.12,5.12,0,0,0,1.68-1,3.92,3.92,0,0,0,.95-1.25l4-9a2.67,2.67,0,0,1,2.67-1.46l4.94.78a1.94,1.94,0,0,1,.5.14Zm-8.12,85.28a1.43,1.43,0,0,1-.5-.71l-2-5.35a1.64,1.64,0,0,0-2.36-.89,23.13,23.13,0,0,1-2.94,1.18,3.5,3.5,0,0,0-.91.45l.26.69a1.38,1.38,0,0,0,.68.8h0ZM45.64,59.09a1.24,1.24,0,0,0-.54-.1,1.41,1.41,0,0,0-.87.4L37.31,65.6a1.84,1.84,0,0,0-.26.29,1.08,1.08,0,0,0-.18.23,4.67,4.67,0,0,0-.56,1.19c0,.09-.05.19-.07.28h0a3.33,3.33,0,0,0-.11,1.19l.89,6.9a5.47,5.47,0,0,1-.91,3.43C35,80.62,34,82.2,33,83.81a3.68,3.68,0,0,1-1.53,1.35,3.12,3.12,0,0,1-.62.23,1.63,1.63,0,0,1-.3.07,1.51,1.51,0,0,1-.42.05l-4.7.08h-.11a2.32,2.32,0,0,0-.38.06,1.91,1.91,0,0,0-.34.1.05.05,0,0,0,0,0,3.14,3.14,0,0,0-.37.18,3,3,0,0,0-.65.46,2.85,2.85,0,0,0-.69,1L19.14,97.59a1.88,1.88,0,0,0,.9,2.32l5.4,2.65a2.36,2.36,0,0,1,.21,1.35,43.75,43.75,0,0,0-.51,4.76,5.75,5.75,0,0,1-1.36,3.3l-.07.07-6,6.29a1.93,1.93,0,0,0-.28.36.25.25,0,0,1,0,.07,1.65,1.65,0,0,0-.22.44,3.74,3.74,0,0,0-.33,2.39l1.69,7a1.39,1.39,0,0,0,.62.91l7.93,3.9a1.34,1.34,0,0,1-.59-.9l-1.68-7a3.07,3.07,0,0,1,0-1.35,3.77,3.77,0,0,1,.88-1.9l6-6.29.07-.07a6,6,0,0,0,1.37-3.31,44.23,44.23,0,0,1,.5-4.76,2.34,2.34,0,0,0-1.47-2.52l-3.89-1.36a1.88,1.88,0,0,1-1.15-2.43l3.75-10.16a2.61,2.61,0,0,1,.69-1,3,3,0,0,1,1.89-.83l4.71-.08a3,3,0,0,0,1.33-.36A3.62,3.62,0,0,0,41,87.73c1-1.61,2-3.19,3.09-4.7A5.47,5.47,0,0,0,45,79.6l-.89-6.89a3,3,0,0,1,.1-1.21,4,4,0,0,1,1.08-2l6.9-6.21a1.27,1.27,0,0,1,1.43-.3Zm-6.06,74.3a3.24,3.24,0,0,0-1-3,13.5,13.5,0,0,1-1.36-1.46,1.87,1.87,0,0,0-2.62-.42l-3.53,2.67-2.2,7.42a1.61,1.61,0,0,0,.78,1.93h0l8,3.93a1.61,1.61,0,0,1-.78-1.94Z"/><path class="cls-5" d="M78.94,64.24h0a1.25,1.25,0,0,0-1.33.21l-2.65,2-.5,1.7a3.19,3.19,0,0,0,1,3,13.71,13.71,0,0,1,1.37,1.46,1.88,1.88,0,0,0,2.62.4l6.17-4.68a1.29,1.29,0,0,1,1.31-.22ZM70.57,88.59c-1.25-5.17-4.75-7.56-9-6.92a13.08,13.08,0,0,1,1.09,3c2,8.2-2.49,20.3-10,27a15.92,15.92,0,0,1-8,4.25c3,5.39,9.55,5.47,16-.33C68.08,108.89,72.55,96.78,70.57,88.59Zm-2.2-35.43h0a1.74,1.74,0,0,0-.53-.17l-4.93-.77a2.65,2.65,0,0,0-2.67,1.45l-4,9a4,4,0,0,1-.94,1.23h0a3.81,3.81,0,0,1-.75.57l1.75,4.66a1.66,1.66,0,0,0,2.36.9,21.89,21.89,0,0,1,2.93-1.18,5.12,5.12,0,0,0,1.68-1,3.92,3.92,0,0,0,.95-1.25l4-9a2.67,2.67,0,0,1,2.67-1.46l4.94.78a1.94,1.94,0,0,1,.5.14Zm-8.12,85.28a1.43,1.43,0,0,1-.5-.71l-2-5.35a1.64,1.64,0,0,0-2.36-.89,23.13,23.13,0,0,1-2.94,1.18,3.5,3.5,0,0,0-.91.45l.26.69a1.38,1.38,0,0,0,.68.8h0ZM45.64,59.09a1.24,1.24,0,0,0-.54-.1,1.41,1.41,0,0,0-.87.4L37.31,65.6a1.84,1.84,0,0,0-.26.29,1.08,1.08,0,0,0-.18.23,4.67,4.67,0,0,0-.56,1.19c0,.09-.05.19-.07.28h0a3.33,3.33,0,0,0-.11,1.19l.89,6.9a5.47,5.47,0,0,1-.91,3.43C35,80.62,34,82.2,33,83.81a3.68,3.68,0,0,1-1.53,1.35,3.12,3.12,0,0,1-.62.23,1.63,1.63,0,0,1-.3.07,1.51,1.51,0,0,1-.42.05l-4.7.08h-.11a2.32,2.32,0,0,0-.38.06,1.91,1.91,0,0,0-.34.1.05.05,0,0,0,0,0,3.14,3.14,0,0,0-.37.18,3,3,0,0,0-.65.46,2.85,2.85,0,0,0-.69,1L19.14,97.59a1.88,1.88,0,0,0,.9,2.32l5.4,2.65a2.36,2.36,0,0,1,.21,1.35,43.75,43.75,0,0,0-.51,4.76,5.75,5.75,0,0,1-1.36,3.3l-.07.07-6,6.29a1.93,1.93,0,0,0-.28.36.25.25,0,0,1,0,.07,1.65,1.65,0,0,0-.22.44,3.74,3.74,0,0,0-.33,2.39l1.69,7a1.39,1.39,0,0,0,.62.91l7.93,3.9a1.34,1.34,0,0,1-.59-.9l-1.68-7a3.07,3.07,0,0,1,0-1.35,3.77,3.77,0,0,1,.88-1.9l6-6.29.07-.07a6,6,0,0,0,1.37-3.31,44.23,44.23,0,0,1,.5-4.76,2.34,2.34,0,0,0-1.47-2.52l-3.89-1.36a1.88,1.88,0,0,1-1.15-2.43l3.75-10.16a2.61,2.61,0,0,1,.69-1,3,3,0,0,1,1.89-.83l4.71-.08a3,3,0,0,0,1.33-.36A3.62,3.62,0,0,0,41,87.73c1-1.61,2-3.19,3.09-4.7A5.47,5.47,0,0,0,45,79.6l-.89-6.89a3,3,0,0,1,.1-1.21,4,4,0,0,1,1.08-2l6.9-6.21a1.27,1.27,0,0,1,1.43-.3Zm-6.06,74.3a3.24,3.24,0,0,0-1-3,13.5,13.5,0,0,1-1.36-1.46,1.87,1.87,0,0,0-2.62-.42l-3.53,2.67-2.2,7.42a1.61,1.61,0,0,0,.78,1.93h0l8,3.93a1.61,1.61,0,0,1-.78-1.94Z"/><path class="cls-3" d="M31.67,116l-6,6.29a3.77,3.77,0,0,0-.88,1.9l-7.95-3.91a4.64,4.64,0,0,1,.32-1,1.65,1.65,0,0,1,.22-.44.25.25,0,0,0,0-.07,1.93,1.93,0,0,1,.28-.36l6-6.29Z"/><path class="cls-3" d="M39.47,89.07a3,3,0,0,1-1.33.36l-4.71.08a3,3,0,0,0-1.89.83l-8-3.92a3,3,0,0,1,.65-.46,3.14,3.14,0,0,1,.37-.18.05.05,0,0,1,0,0,1.91,1.91,0,0,1,.34-.1,2.32,2.32,0,0,1,.38-.06h.11l4.7-.08a1.51,1.51,0,0,0,.42-.05l.3-.07c.2-.07.4-.16.6-.25l0,0Z"/><path class="cls-3" d="M86.88,68.14a1.26,1.26,0,0,0-1.31.24L79.4,73.05a1.87,1.87,0,0,1-2.62-.41,12.76,12.76,0,0,0-1.37-1.46,3.18,3.18,0,0,1-1-3l.5-1.69,2.64-2a1.25,1.25,0,0,1,1.34-.21h0Z"/><path class="cls-3" d="M76.31,57.06a1.94,1.94,0,0,0-.5-.14l-4.94-.78A2.67,2.67,0,0,0,68.2,57.6l-4,9a3.92,3.92,0,0,1-.95,1.25l-8-3.93a4,4,0,0,0,.94-1.23l4-9a2.65,2.65,0,0,1,2.67-1.45l4.93.77a1.74,1.74,0,0,1,.53.17h0Z"/><path class="cls-3" d="M53.61,63a1.27,1.27,0,0,0-1.43.3l-6.9,6.21a4,4,0,0,0-1.08,2l-8-3.91c0-.09,0-.19.07-.28a4.67,4.67,0,0,1,.56-1.19,1.08,1.08,0,0,1,.18-.23,1.84,1.84,0,0,1,.26-.29l6.92-6.21a1.41,1.41,0,0,1,.87-.4,1.24,1.24,0,0,1,.54.1Z"/><path class="cls-6" d="M31.67,116l-6,6.29a3.77,3.77,0,0,0-.88,1.9l-7.95-3.91a4.64,4.64,0,0,1,.32-1,1.65,1.65,0,0,1,.22-.44.25.25,0,0,0,0-.07,1.93,1.93,0,0,1,.28-.36l6-6.29Z"/><path class="cls-6" d="M39.47,89.07a3,3,0,0,1-1.33.36l-4.71.08a3,3,0,0,0-1.89.83l-8-3.92a3,3,0,0,1,.65-.46,3.14,3.14,0,0,1,.37-.18.05.05,0,0,1,0,0,1.91,1.91,0,0,1,.34-.1,2.32,2.32,0,0,1,.38-.06h.11l4.7-.08a1.51,1.51,0,0,0,.42-.05l.3-.07c.2-.07.4-.16.6-.25l0,0Z"/><path class="cls-6" d="M86.88,68.14a1.26,1.26,0,0,0-1.31.24L79.4,73.05a1.87,1.87,0,0,1-2.62-.41,12.76,12.76,0,0,0-1.37-1.46,3.18,3.18,0,0,1-1-3l.5-1.69,2.64-2a1.25,1.25,0,0,1,1.34-.21h0Z"/><path class="cls-6" d="M76.31,57.06a1.94,1.94,0,0,0-.5-.14l-4.94-.78A2.67,2.67,0,0,0,68.2,57.6l-4,9a3.92,3.92,0,0,1-.95,1.25l-8-3.93a4,4,0,0,0,.94-1.23l4-9a2.65,2.65,0,0,1,2.67-1.45l4.93.77a1.74,1.74,0,0,1,.53.17h0Z"/><path class="cls-6" d="M53.61,63a1.27,1.27,0,0,0-1.43.3l-6.9,6.21a4,4,0,0,0-1.08,2l-8-3.91c0-.09,0-.19.07-.28a4.67,4.67,0,0,1,.56-1.19,1.08,1.08,0,0,1,.18-.23,1.84,1.84,0,0,1,.26-.29l6.92-6.21a1.41,1.41,0,0,1,.87-.4,1.24,1.24,0,0,1,.54.1Z"/><path class="cls-3" d="M89.23,76.05l-1.68-7a1.16,1.16,0,0,0-2-.71L79.4,73.05a1.87,1.87,0,0,1-2.62-.41,13.57,13.57,0,0,0-1.36-1.46,3.19,3.19,0,0,1-1-3l2.7-9.11a1.64,1.64,0,0,0-1.35-2.14l-4.93-.76a2.65,2.65,0,0,0-2.68,1.46l-4,9a4.82,4.82,0,0,1-2.62,2.26,22.25,22.25,0,0,0-2.93,1.19,1.66,1.66,0,0,1-2.37-.9l-2-5.35a1.21,1.21,0,0,0-2.09-.51l-6.91,6.21A4.06,4.06,0,0,0,44.1,72.7L45,79.6A5.43,5.43,0,0,1,44.08,83Q42.43,85.3,41,87.73a3.76,3.76,0,0,1-2.87,1.7l-4.7.08a3,3,0,0,0-2.58,1.83L27.1,101.5a1.89,1.89,0,0,0,1.15,2.44l3.89,1.36a2.36,2.36,0,0,1,1.47,2.52,41.59,41.59,0,0,0-.5,4.76,5.93,5.93,0,0,1-1.37,3.31l-6.06,6.36a3.91,3.91,0,0,0-.87,3.25l1.68,7a1.16,1.16,0,0,0,2,.71l6.17-4.67a1.87,1.87,0,0,1,2.63.41,14.58,14.58,0,0,0,1.36,1.46,3.19,3.19,0,0,1,1,3l-2.7,9.11a1.62,1.62,0,0,0,1.35,2.13l4.93.77a2.64,2.64,0,0,0,2.67-1.46l4-9a4.75,4.75,0,0,1,2.62-2.26,24.36,24.36,0,0,0,2.93-1.19,1.67,1.67,0,0,1,2.37.9l2,5.35a1.22,1.22,0,0,0,2.1.51L68.76,132a4.09,4.09,0,0,0,1.17-3.18L69,121.94a5.57,5.57,0,0,1,.91-3.43c1.1-1.5,2.13-3.08,3.09-4.7a3.79,3.79,0,0,1,2.87-1.7L80.6,112a3,3,0,0,0,2.58-1.83L86.93,100a1.87,1.87,0,0,0-1.14-2.43L81.9,96.25a2.34,2.34,0,0,1-1.47-2.52,47.12,47.12,0,0,0,.5-4.77,5.91,5.91,0,0,1,1.36-3.3l6.06-6.36A3.88,3.88,0,0,0,89.23,76.05ZM60.6,115.62c-7.49,6.73-15.16,5.54-17.14-2.66s2.49-20.3,10-27,15.15-5.54,17.13,2.66S68.08,108.89,60.6,115.62Z"/><path class="cls-7" d="M89.23,76.05l-1.68-7a1.16,1.16,0,0,0-2-.71L79.4,73.05a1.87,1.87,0,0,1-2.62-.41,13.57,13.57,0,0,0-1.36-1.46,3.19,3.19,0,0,1-1-3l2.7-9.11a1.64,1.64,0,0,0-1.35-2.14l-4.93-.76a2.65,2.65,0,0,0-2.68,1.46l-4,9a4.82,4.82,0,0,1-2.62,2.26,22.25,22.25,0,0,0-2.93,1.19,1.66,1.66,0,0,1-2.37-.9l-2-5.35a1.21,1.21,0,0,0-2.09-.51l-6.91,6.21A4.06,4.06,0,0,0,44.1,72.7L45,79.6A5.43,5.43,0,0,1,44.08,83Q42.43,85.3,41,87.73a3.76,3.76,0,0,1-2.87,1.7l-4.7.08a3,3,0,0,0-2.58,1.83L27.1,101.5a1.89,1.89,0,0,0,1.15,2.44l3.89,1.36a2.36,2.36,0,0,1,1.47,2.52,41.59,41.59,0,0,0-.5,4.76,5.93,5.93,0,0,1-1.37,3.31l-6.06,6.36a3.91,3.91,0,0,0-.87,3.25l1.68,7a1.16,1.16,0,0,0,2,.71l6.17-4.67a1.87,1.87,0,0,1,2.63.41,14.58,14.58,0,0,0,1.36,1.46,3.19,3.19,0,0,1,1,3l-2.7,9.11a1.62,1.62,0,0,0,1.35,2.13l4.93.77a2.64,2.64,0,0,0,2.67-1.46l4-9a4.75,4.75,0,0,1,2.62-2.26,24.36,24.36,0,0,0,2.93-1.19,1.67,1.67,0,0,1,2.37.9l2,5.35a1.22,1.22,0,0,0,2.1.51L68.76,132a4.09,4.09,0,0,0,1.17-3.18L69,121.94a5.57,5.57,0,0,1,.91-3.43c1.1-1.5,2.13-3.08,3.09-4.7a3.79,3.79,0,0,1,2.87-1.7L80.6,112a3,3,0,0,0,2.58-1.83L86.93,100a1.87,1.87,0,0,0-1.14-2.43L81.9,96.25a2.34,2.34,0,0,1-1.47-2.52,47.12,47.12,0,0,0,.5-4.77,5.91,5.91,0,0,1,1.36-3.3l6.06-6.36A3.88,3.88,0,0,0,89.23,76.05ZM60.6,115.62c-7.49,6.73-15.16,5.54-17.14-2.66s2.49-20.3,10-27,15.15-5.54,17.13,2.66S68.08,108.89,60.6,115.62Z"/></g></g><g id="Plants"><g id="Plants-2" data-name="Plants"><path class="cls-3" d="M77.27,309c-1-14.9-2.65-20-11.92-31.32a42.81,42.81,0,0,0-19.21-13c-6.19-2-11.59-1.75-15.52,1.33a8.16,8.16,0,0,0-2,9.84c1.57,3.34,9.45,8.11,16.5,11.78,10.75,5.62,24.82,13.56,30.91,32.32l1.31,10Z"/><path class="cls-8" d="M77.27,309c-1-14.9-2.65-20-11.92-31.32a42.81,42.81,0,0,0-19.21-13c-6.19-2-11.59-1.75-15.52,1.33a8.16,8.16,0,0,0-2,9.84c1.57,3.34,9.45,8.11,16.5,11.78,10.75,5.62,24.82,13.56,30.91,32.32l1.31,10Z"/><path class="cls-9" d="M76.71,317.21a.5.5,0,0,1-.48-.46c-2.31-26.52-24.42-43.25-39.5-45.13a.5.5,0,0,1-.43-.56.49.49,0,0,1,.56-.44c15.41,1.93,38,19,40.37,46a.5.5,0,0,1-.46.54Z"/><path class="cls-3" d="M76.42,345.88l-.85.72c-3.86,3.13-9.67,4-14.52,4.1-3.2.06-7.52.13-10.23-1.8a4.19,4.19,0,0,1-1.88-4.25c.46-1.71,2.36-3,2.23-4.74-3.59-.55-7.45,1-10.82-.36-2.53-1-4.14-3.51-5.58-5.84-.86-1.37-1.74-3-1.28-4.51.55-1.83,2.65-2.61,4.47-3.21a3.72,3.72,0,0,0,1.35-.67,1.28,1.28,0,0,0,.41-1.36c-.23-.57-.94-.77-1.55-.86-1.31-.19-2.65-.2-4-.46a5.94,5.94,0,0,1-3.46-1.82,7.72,7.72,0,0,1-1.34-4.46,65.38,65.38,0,0,1-.24-8c0-.64-.32-7-.54-6.93,6.22-2.53,13.27-3.19,19.93-2.94,3.71.14,9.21.93,11.42,4.41a7.08,7.08,0,0,1,1,3.3c0,.41-.25,2.59,0,2.75a.5.5,0,0,0,.61-.13,1.33,1.33,0,0,0,.29-.61c.33-1.14.89-2.06,1.23-3.16s.28-2.24,1-3.12a3.55,3.55,0,0,1,2.9-1c3.93.1,7.24,3.29,8.73,6.93s1.52,7.68,1.53,11.61l1.87-3.84c2.19-4.48,4.64,3.84,5,5.39a25.13,25.13,0,0,1-7.72,24.94Z"/><path class="cls-9" d="M76.77,346.89a.53.53,0,0,1-.43-.37c-5.42-16.8-31.1-39-40.93-42.34a.52.52,0,0,1-.33-.67.54.54,0,0,1,.68-.34c10,3.41,36.09,26,41.59,43a.53.53,0,0,1-.34.67A.65.65,0,0,1,76.77,346.89Z"/><path class="cls-9" d="M45.64,331.5a.49.49,0,0,1-.44-.26.51.51,0,0,1,.2-.68,30.6,30.6,0,0,1,20.7-1.84,45.74,45.74,0,0,1,1.83-19.07l0-.14a.5.5,0,0,1,1,.26l0,.15a44.42,44.42,0,0,0-1.71,19.42.48.48,0,0,1-.16.45.5.5,0,0,1-.47.1,29.52,29.52,0,0,0-20.68,1.55A.53.53,0,0,1,45.64,331.5Z"/></g><g id="Plants-3" data-name="Plants"><path class="cls-3" d="M424.93,326.1s.55-11.58,5.68-20.87,12.62-15.38,19.91-16.44,13.65,5.29,6.12,10.44S435.48,310,430.21,327.76Z"/><g class="cls-10"><path d="M424.93,326.1s.55-11.58,5.68-20.87,12.62-15.38,19.91-16.44,13.65,5.29,6.12,10.44S435.48,310,430.21,327.76Z"/></g><path class="cls-9" d="M426.88,323l-.08,0a.41.41,0,0,1-.25-.5C433,302.91,447.24,294,453.84,292a.38.38,0,0,1,.49.26.4.4,0,0,1-.26.49c-6.47,1.94-20.39,10.71-26.77,30A.4.4,0,0,1,426.88,323Z"/><path class="cls-3" d="M466.35,321.32c-.6,1.64-2.28,2.58-3.86,3.34s-3.28,1.57-4.05,3.13c-1.56,3.15,1.61,7.24-.09,10.32a5.48,5.48,0,0,1-3.57,2.4,36.53,36.53,0,0,1-3.63.56,14.41,14.41,0,0,1-1.74,0,7.91,7.91,0,0,0-5,.87c-2.33,1.51-2.87,4.61-4.18,7.06a11.47,11.47,0,0,1-7.8,5.63c-1.07.22-3.08.55-4.22,0a1.36,1.36,0,0,1-.24-.13l0,0a6.4,6.4,0,0,1-.46-.48s0,0-.05-.06c-.53-1.55.06-3.24,0-4.87a1.42,1.42,0,0,0,0-.29c-.19-1.89-.37-3.76-.53-5.65-.32-3.46-.59-6.94-.79-10.42-.13-2.25-.56-4.71.25-6.9.91-2.4,3.53-2.63,4.37-5,.34-.94.49-1.93.81-2.88a8.1,8.1,0,0,1,6.57-5.26c4.57-.53,8.94,2.91,13.5,2.27a35.37,35.37,0,0,0,3.47-.9c3.67-.94,8-.16,10.33,2.84A4.85,4.85,0,0,1,466.35,321.32Z"/><path class="cls-9" d="M426.6,346.71h0a.39.39,0,0,1-.31-.46C431,322,455.88,317,461.77,317a.4.4,0,0,1,.39.4.38.38,0,0,1-.39.39c-5.77,0-30.06,4.94-34.74,28.63A.4.4,0,0,1,426.6,346.71Z"/><path class="cls-9" d="M453.66,332.82a.43.43,0,0,1-.21-.09A20.88,20.88,0,0,0,436.07,329a.39.39,0,0,1-.46-.3.4.4,0,0,1,.3-.47A21.7,21.7,0,0,1,454,332.14a.38.38,0,0,1,0,.55A.37.37,0,0,1,453.66,332.82Z"/></g></g><g id="Device"><g id="Device-2" data-name="Device"><g id="Mobile"><path class="cls-11" d="M181.51,39.25,80.15,97.79a10.91,10.91,0,0,0-5.47,9.06V342.52c0,3.72,2.29,8.05,5.12,9.68s7.73,1.46,10.94-.4l101-58.31a12.91,12.91,0,0,0,5.83-10.09V48.52c0-3.71-2.3-8-5.12-9.67S184.73,37.39,181.51,39.25Z"/><path class="cls-12" d="M89.35,352.46c-3.11,1.21-7.1,1.16-9.54-.26-2.83-1.63-5.12-6-5.12-9.68V106.85a10.49,10.49,0,0,1,1.47-5l9.4,5.33A11.35,11.35,0,0,0,82.84,114V347.25C82.84,351.72,85.66,353.83,89.35,352.46Z"/><path class="cls-13" d="M88,105.08A11.39,11.39,0,0,0,82.84,114V347.25c0,5,3.55,7.07,7.9,4.56l101-58.32a12.91,12.91,0,0,0,5.83-10.09V48.52c0-3.69-2.62-5.21-5.83-3.36Z"/><path class="cls-8" d="M88,105.08A11.39,11.39,0,0,0,82.84,114V347.25c0,5,3.55,7.07,7.9,4.56l101-58.32a12.91,12.91,0,0,0,5.83-10.09V48.52c0-3.69-2.62-5.21-5.83-3.36Z"/><path class="cls-8" d="M93.24,119.45A12.2,12.2,0,0,0,87.71,129V329.76c0,3.53,2.47,5,5.53,3.2l95-54.87a12.27,12.27,0,0,0,5.54-9.59V67.77c0-3.51-2.49-4.95-5.54-3.19Z"/><path class="cls-3" d="M186.79,263.89V65.43l-93.55,54A12.2,12.2,0,0,0,87.71,129V327.5l93.55-54A12.29,12.29,0,0,0,186.79,263.89Z"/><path class="cls-4" d="M186.79,263.89V65.43l-93.55,54A12.2,12.2,0,0,0,87.71,129V327.5l93.55-54A12.29,12.29,0,0,0,186.79,263.89Z"/><path class="cls-3" d="M132.83,86.8l16.85-9.73c1-.58,1.81-.16,1.81.92a3.92,3.92,0,0,1-1.81,3l-16.85,9.72c-1,.58-1.82.17-1.82-.92A3.91,3.91,0,0,1,132.83,86.8Z"/><path class="cls-3" d="M161.73,70.09c.94-.55,1.71-.1,1.71,1a3.75,3.75,0,0,1-1.71,3c-.94.54-1.7.1-1.7-1A3.77,3.77,0,0,1,161.73,70.09Z"/><path class="cls-3" d="M168.56,66.15c.95-.54,1.71-.1,1.71,1a3.75,3.75,0,0,1-1.71,3c-.94.55-1.7.1-1.7-1A3.77,3.77,0,0,1,168.56,66.15Z"/><path class="cls-3" d="M113.94,97.68c1-.54,1.71-.1,1.71,1a3.74,3.74,0,0,1-1.71,3c-.94.55-1.7.11-1.7-1A3.79,3.79,0,0,1,113.94,97.68Z"/><path class="cls-3" d="M120.78,93.74c.94-.54,1.7-.1,1.7,1a3.79,3.79,0,0,1-1.7,3c-1,.54-1.71.1-1.71-1A3.77,3.77,0,0,1,120.78,93.74Z"/><path class="cls-14" d="M197.55,48c-.21-3.34-2.73-4.64-5.79-2.88L88,105.08a9.73,9.73,0,0,0-2.42,2.11l-9.4-5.33a10.47,10.47,0,0,1,3.49-3.78L181.51,39.25c3.22-1.86,8.12-2,10.94-.41S197.37,44.44,197.55,48Z"/></g></g></g><g id="Features"><g id="Features-2" data-name="Features"><path class="cls-3" d="M233.34,70.28c0-11.5,8.08-25.5,18-31.25,5-2.88,9.51-3.15,12.77-1.26l4.59,2.69a21.47,21.47,0,0,1,3,10.37c0,11.51-8.08,25.5-18,31.26a21.35,21.35,0,0,1-10.5,2.56L238.62,82C235.36,80.08,233.34,76,233.34,70.28Z"/><path class="cls-15" d="M238.54,52.65c-3.21,5.62-5.2,11.93-5.2,17.63s2,9.8,5.28,11.68l4.61,2.69a21.35,21.35,0,0,0,10.5-2.56c4.94-2.86,9.41-7.73,12.67-13.33Z"/><path class="cls-16" d="M271.77,50.83c0,5.81-2.06,12.24-5.37,17.93L238.54,52.65c3.28-5.72,7.82-10.72,12.84-13.62s9.51-3.15,12.77-1.26l4.59,2.69A21.47,21.47,0,0,1,271.77,50.83Z"/><path class="cls-17" d="M233.71,65.83a40.17,40.17,0,0,1,4.83-13.18L266.4,68.76a40.12,40.12,0,0,1-9,10.78Z"/><ellipse class="cls-3" cx="255.98" cy="62.55" rx="25.52" ry="14.73" transform="translate(73.82 252.97) rotate(-60)"/><ellipse class="cls-18" cx="253.68" cy="61.21" rx="33.01" ry="23.1" transform="translate(73.83 250.3) rotate(-60)"/><path class="cls-19" d="M262.29,66.6a.78.78,0,0,1-1.09-.13c-1.11-1.47-2.92-1.69-4.85-.57s-3.26,3.56-4.37,6.26c-.43,1-1.26,1.71-1.86,1.48s-.73-1.26-.3-2.3c1.61-3.91,3.77-7.4,6.53-9s5.43-1.31,7,.83a2.59,2.59,0,0,1-.33,2.66A2.29,2.29,0,0,1,262.29,66.6Z"/><path class="cls-19" d="M247.36,71a.86.86,0,0,1-.84.08c-.57-.29-.56-1.33-.18-2.39,2.33-6.55,6-10.32,10-12.63s7.73-2.11,10.27.53a2.4,2.4,0,0,1-.18,2.6c-.56,1-1.4,1.33-1.87.84-2-2.11-5-2.26-8.22-.42s-6,5.28-8,10.15A2.51,2.51,0,0,1,247.36,71Z"/><path class="cls-19" d="M243.74,68.17a.85.85,0,0,1-.88.06c-.55-.32-.53-1.38-.12-2.43,3.56-9.22,8.39-13.09,13.61-16.1s10.11-2.87,13.54.33c.49.45.44,1.6-.11,2.57s-1.4,1.38-1.88.92c-2.93-2.72-7.14-2.83-11.55-.28A26.82,26.82,0,0,0,244.74,67,2.42,2.42,0,0,1,243.74,68.17Z"/><path class="cls-19" d="M253.87,74.53a5.93,5.93,0,0,1,2.48-4.73c1.37-.79,2.48,0,2.48,1.87a5.93,5.93,0,0,1-2.48,4.74C255,77.2,253.87,76.36,253.87,74.53Z"/><line class="cls-18" x1="279.61" y1="52.65" x2="339.72" y2="17.95"/><path class="cls-3" d="M335.33,20.36a9.22,9.22,0,0,1,4.17-7.22c2.3-1.33,4.16-.25,4.16,2.41a9.21,9.21,0,0,1-4.16,7.21C337.2,24.09,335.33,23,335.33,20.36Z"/><path class="cls-20" d="M296.12,51.2l34.4-19.73c.59-.35,1.08-.1,1.08.55a2.33,2.33,0,0,1-1.08,1.79l-34.4,19.73c-.6.35-1.08.1-1.08-.54A2.31,2.31,0,0,1,296.12,51.2Z"/><path class="cls-20" d="M296.12,58.23l34.4-19.72c.59-.35,1.08-.1,1.08.54a2.33,2.33,0,0,1-1.08,1.8l-34.4,19.73c-.6.35-1.08.1-1.08-.55A2.32,2.32,0,0,1,296.12,58.23Z"/><path class="cls-20" d="M296.12,65.27l34.4-19.73c.59-.34,1.08-.1,1.08.55a2.35,2.35,0,0,1-1.08,1.8l-34.4,19.73c-.6.34-1.08.1-1.08-.55A2.32,2.32,0,0,1,296.12,65.27Z"/><path class="cls-3" d="M233.34,145.12c0-11.5,8.08-25.49,18-31.25,5-2.88,9.51-3.15,12.77-1.25l4.59,2.68a21.48,21.48,0,0,1,3,10.38c0,11.5-8.08,25.5-18,31.25a21.35,21.35,0,0,1-10.5,2.56l-4.61-2.69C235.36,154.92,233.34,150.88,233.34,145.12Z"/><path class="cls-15" d="M238.54,127.49c-3.21,5.62-5.2,11.93-5.2,17.63s2,9.8,5.28,11.68l4.61,2.69a21.35,21.35,0,0,0,10.5-2.56c4.94-2.85,9.41-7.73,12.67-13.32Z"/><path class="cls-16" d="M271.77,125.68c0,5.8-2.06,12.23-5.37,17.92l-27.86-16.11c3.28-5.72,7.82-10.72,12.84-13.62s9.51-3.15,12.77-1.25l4.59,2.68A21.48,21.48,0,0,1,271.77,125.68Z"/><path class="cls-17" d="M233.71,140.67a40.17,40.17,0,0,1,4.83-13.18L266.4,143.6a40,40,0,0,1-9,10.78Z"/><ellipse class="cls-3" cx="255.98" cy="137.4" rx="25.52" ry="14.73" transform="translate(9 290.39) rotate(-60)"/><ellipse class="cls-18" cx="253.68" cy="136.05" rx="33.01" ry="23.1" transform="translate(9.02 287.72) rotate(-60)"/><line class="cls-18" x1="279.62" y1="127.38" x2="339.72" y2="92.68"/><path class="cls-3" d="M335.56,95.09a9.21,9.21,0,0,1,4.16-7.22c2.3-1.33,4.17-.25,4.17,2.41a9.2,9.2,0,0,1-4.17,7.21C337.42,98.82,335.56,97.75,335.56,95.09Z"/><path class="cls-19" d="M267,141.12,245,153.79c-.46.27-.84,0-.84-.64V135.62l11.17,6.06c.38.17.91-.14,1.29-.75l11.17-19V139.5A2,2,0,0,1,267,141.12Z"/><path class="cls-19" d="M244.17,134.55,267.8,120.9l-11.21,17c-.36.56-.85.84-1.22.7Z"/><path class="cls-20" d="M296.12,125.94l34.4-19.73c.59-.35,1.08-.1,1.08.54a2.33,2.33,0,0,1-1.08,1.8l-34.4,19.73c-.6.35-1.08.1-1.08-.55A2.3,2.3,0,0,1,296.12,125.94Z"/><path class="cls-20" d="M296.12,133l34.4-19.73c.59-.34,1.08-.1,1.08.55a2.35,2.35,0,0,1-1.08,1.8l-34.4,19.73c-.6.34-1.08.1-1.08-.55A2.32,2.32,0,0,1,296.12,133Z"/><path class="cls-20" d="M296.12,140l34.4-19.73c.59-.35,1.08-.1,1.08.55a2.33,2.33,0,0,1-1.08,1.79l-34.4,19.73c-.6.35-1.08.1-1.08-.54A2.31,2.31,0,0,1,296.12,140Z"/><path class="cls-3" d="M233.34,220c0-11.51,8.08-25.5,18-31.26,5-2.88,9.51-3.14,12.77-1.25l4.59,2.68a21.48,21.48,0,0,1,3,10.38c0,11.51-8.08,25.5-18,31.25a21.42,21.42,0,0,1-10.5,2.57l-4.61-2.69C235.36,229.76,233.34,225.72,233.34,220Z"/><path class="cls-15" d="M238.54,202.33c-3.21,5.62-5.2,11.93-5.2,17.64s2,9.79,5.28,11.68l4.61,2.69a21.42,21.42,0,0,0,10.5-2.57c4.94-2.85,9.41-7.73,12.67-13.32Z"/><path class="cls-16" d="M271.77,200.52c0,5.8-2.06,12.24-5.37,17.93l-27.86-16.12c3.28-5.71,7.82-10.71,12.84-13.62s9.51-3.14,12.77-1.25l4.59,2.68A21.48,21.48,0,0,1,271.77,200.52Z"/><path class="cls-17" d="M233.71,215.51a40.17,40.17,0,0,1,4.83-13.18l27.86,16.12a39.92,39.92,0,0,1-9,10.77Z"/><ellipse class="cls-3" cx="255.98" cy="212.24" rx="25.52" ry="14.73" transform="translate(-55.81 327.81) rotate(-60)"/><ellipse class="cls-18" cx="253.68" cy="210.89" rx="33.01" ry="23.1" transform="translate(-55.8 325.15) rotate(-60)"/><line class="cls-18" x1="279.62" y1="202.12" x2="339.72" y2="167.42"/><path class="cls-3" d="M335.66,169.83a9.22,9.22,0,0,1,4.17-7.22c2.3-1.33,4.16-.25,4.16,2.41a9.21,9.21,0,0,1-4.16,7.21C337.53,173.56,335.66,172.48,335.66,169.83Z"/><path class="cls-19" d="M266.59,204.24l-.23.13v-1.76c0-4-2.4-5.77-5.36-4.06a8.63,8.63,0,0,0-3.34,4.27c-.53-3.34-2.93-4.7-5.81-3-3.56,2.05-6.45,7.56-6.45,12.31v4.37l0,0c-2.27,1.3-4.1,4.81-4.1,7.82s1.83,4.4,4.1,3.1l21.21-12.25c2.26-1.31,4.1-4.81,4.1-7.83S268.85,202.93,266.59,204.24Zm-8.26,7V217l-4.69,2.71V214l-2.12,1.22L256,206.8l4.46,3.23Z"/><path class="cls-20" d="M296.12,200.67l34.4-19.73c.59-.34,1.08-.1,1.08.55a2.35,2.35,0,0,1-1.08,1.8L296.12,203c-.6.34-1.08.1-1.08-.55A2.32,2.32,0,0,1,296.12,200.67Z"/><path class="cls-20" d="M296.12,207.71,330.52,188c.59-.34,1.08-.1,1.08.55a2.35,2.35,0,0,1-1.08,1.8l-34.4,19.73c-.6.34-1.08.1-1.08-.55A2.32,2.32,0,0,1,296.12,207.71Z"/><path class="cls-20" d="M296.12,214.75,330.52,195c.59-.35,1.08-.1,1.08.54a2.33,2.33,0,0,1-1.08,1.8l-34.4,19.73c-.6.35-1.08.1-1.08-.55A2.3,2.3,0,0,1,296.12,214.75Z"/></g></g><g id="Speech_Bubble" data-name="Speech Bubble"><g id="Speech_Bubbles" data-name="Speech Bubbles"><g id="Speech_Bubble-2" data-name="Speech Bubble"><path class="cls-3" d="M386.81,81.18a.78.78,0,0,1-.28-.29l-3.59-6.2V71.27l10.55-4.12v3.41l-1.28,3.69,6.27-3.61.38,2.11-3.73,12.19a.8.8,0,0,1-1.14.42Z"/><path class="cls-14" d="M386.81,81.18a.78.78,0,0,1-.28-.29l-3.59-6.2V71.27l10.55-4.12v3.41l-1.28,3.69,6.27-3.61.38,2.11-3.73,12.19a.8.8,0,0,1-1.14.42Z"/><path class="cls-3" d="M398.48,70.64l.38,2.11-3.73,12.19a.79.79,0,0,1-1.42.14l-4-7,.47-2.6Z"/><path class="cls-8" d="M398.48,70.64l.38,2.11-3.73,12.19a.79.79,0,0,1-1.42.14l-4-7,.47-2.6Z"/><path class="cls-3" d="M413,18.59a7.55,7.55,0,0,0-3.42-5.91h0a7.54,7.54,0,0,0-6.83,0L370.8,31a7.55,7.55,0,0,0-3.42,5.91V79.22a7.53,7.53,0,0,0,3.42,5.91h0a7.52,7.52,0,0,0,6.82,0l32.3-18.57c3.07-1.75,3.1-3.5,3.1-5.68Z"/><path class="cls-8" d="M413,18.59a7.55,7.55,0,0,0-3.42-5.91h0a7.54,7.54,0,0,0-6.83,0L370.8,31a7.55,7.55,0,0,0-3.42,5.91V79.22a7.53,7.53,0,0,0,3.42,5.91h0a7.52,7.52,0,0,0,6.82,0l32.3-18.57c3.07-1.75,3.1-3.5,3.1-5.68Z"/><path class="cls-8" d="M367.38,79.22a7.53,7.53,0,0,0,3.42,5.91h0a7.61,7.61,0,0,0,6.24.28c-1.61.61-2.83-.31-2.83-2.25V40.87a6.93,6.93,0,0,1,1-3.36l-6.83-3.94a7.07,7.07,0,0,0-1,3.36Z"/><path class="cls-3" d="M412.9,17.62c-.39-1.44-1.72-1.91-3.29-1L377.62,35a6.73,6.73,0,0,0-2.4,2.55l-6.82-3.93A6.81,6.81,0,0,1,370.8,31l32-18.34a7.6,7.6,0,0,1,6.83,0h0A7.48,7.48,0,0,1,412.9,17.62Z"/></g><path class="cls-19" d="M393.74,32.55a8.75,8.75,0,0,1,3.53-1.23,4.71,4.71,0,0,1,2.88.55,4.84,4.84,0,0,1,1.92,2.23,9.2,9.2,0,0,1,.7,3.85,14.29,14.29,0,0,1-.4,3.47,22.2,22.2,0,0,1-1,3.11A26.26,26.26,0,0,1,400,47.35c-.49.88-1,1.74-1.42,2.59s-.86,1.7-1.23,2.54a10.8,10.8,0,0,0-.76,2.52,5.05,5.05,0,0,1-.31,1.16,1.44,1.44,0,0,1-.59.75l-4.08,2.36a.48.48,0,0,1-.63-.05,1.08,1.08,0,0,1-.27-.82,12.17,12.17,0,0,1,.45-3.3A23.71,23.71,0,0,1,392.27,52c.45-1,.93-1.95,1.46-2.87s1-1.79,1.45-2.62a20.82,20.82,0,0,0,1.12-2.37,5.89,5.89,0,0,0,.45-2.16c0-1-.24-1.64-.73-1.92s-1.25-.13-2.28.46a5.89,5.89,0,0,0-2.15,1.94,9.47,9.47,0,0,0-1,2.07c-.2.67-.37,1.27-.51,1.82a1.86,1.86,0,0,1-.86,1.19l-4.07,2.35a.42.42,0,0,1-.52,0,.86.86,0,0,1-.22-.7,17.07,17.07,0,0,1,.67-4.17,24.85,24.85,0,0,1,1.82-4.7,23.74,23.74,0,0,1,2.89-4.43A14.57,14.57,0,0,1,393.74,32.55ZM396.65,66a2.6,2.6,0,0,1-.27,1.13,1.65,1.65,0,0,1-.63.78l-4.21,2.43a.49.49,0,0,1-.64,0,1.1,1.1,0,0,1-.27-.83V64.31a2.64,2.64,0,0,1,.27-1.14,1.77,1.77,0,0,1,.64-.78L395.75,60a.48.48,0,0,1,.63,0,1.08,1.08,0,0,1,.27.82Z"/></g></g><g id="Character_1" data-name="Character 1"><path class="cls-21" d="M374.84,181.76c7.47-16.1,12-35.29,12-35.29l-2-3.08s-8.15-.92-15.35,13.69-15.41,29.23-11.29,35.78C363.13,195.5,366.31,190.83,374.84,181.76Z"/><path class="cls-22" d="M368.43,338.36s-3,3.24-6.95,7.11c-3.67,3.59-4.81,4.62-8.22,7.95-2,1.94-.36,3.73,3.44,3.59a68.29,68.29,0,0,0,15.13-3.28,76.89,76.89,0,0,0,11.33-5.9,7.51,7.51,0,0,0,3.36-4.25v-6Z"/><path class="cls-22" d="M408.48,357.26s-.69,6.13-1.11,13.83.67,14.5,3,15.35,9.06.74,12.87-9.95a42.59,42.59,0,0,0,1.54-21.07Z"/><path class="cls-21" d="M423.33,240.45c1.4-21.95-10.69-33.48-10.69-33.48,1-7.39-33.34,2.95-33.34,2.95S372,249.67,368.86,270.6c-3.53,23.79-2,66.26-2,66.26s.45,5.17,9.31,5.14c6.8,0,12.4-5.56,12.4-5.56l.71-49.58,9.21-34s-.19,33.84,3.75,47.58c5.86,20.49,4,59.71,4,59.71s11.5,4.11,19.38.17S432,352,432,352s2.56-33.67-7.56-56.46C423.54,278.23,422.68,250.52,423.33,240.45Z"/><path class="cls-22" d="M385.37,145.42s-11.84,9.56-13.25,23.07c-.7,6.71,1.35,29.31,1.41,44.12,0,8.31-3.27,31.63-3.27,31.63a75.8,75.8,0,0,0,10.85,6c0-5.91,2.24-15.15,2.24-15.15s.67,10.41.67,16.15A41.24,41.24,0,0,0,396.1,253c11,0,29-7.67,29-7.67s0-24.94-3.33-38.72c-3.55-14.72,1.84-39.45,1.31-43.42-.88-6.64-15.95-13.84-15.95-13.84S396.44,141.06,385.37,145.42Z"/><path class="cls-21" d="M390.53,144.15a69.63,69.63,0,0,0-11.06,11.38A22.75,22.75,0,0,0,376,161.8l3.48,3.41-5,2.37s-2.77,18.67,1,24.94,8.29,21.95,8.29,21.95,5.23-16.2,7.52-20.23S402.27,179,402.27,179l-4.34-6.55,5.52-1.8s11.52-13,10.48-16.78a12.22,12.22,0,0,0-8.71-8.49Z"/><path class="cls-9" d="M384.09,157a162.79,162.79,0,0,0-4.35,16.22c-1.54,7.7,4.06,33.33,4.06,33.33s2.49-25.05,7.52-32.17A161.69,161.69,0,0,1,405,158S389.22,155.08,384.09,157Z"/><path class="cls-3" d="M387,158.63l-.84,6.58s-3.89,3.75-4.72,8.34,0,21.22,0,21.22l2.28,11.82,1-7.9s1.79-10.22,3.31-16.52a39.69,39.69,0,0,1,.69-5.73c1.06-3.1,1.27-9.49,1.27-9.49l4.11-4.91-3.92-4.57Z"/><path class="cls-23" d="M389.6,145l-.72,10.41a27.62,27.62,0,0,0,4.89,5c3.76-1.17,12.49-9.27,12.49-9.27L403.35,135Z"/><path class="cls-24" d="M407.85,120.32c-2.7-5.73-12.73-12.34-22.3-3.4-10,9.37-6.08,28.24,1.31,29.55,3.76.66,11.25-1.19,16.23-6.28C408.7,134.46,410,124.78,407.85,120.32Z"/><path class="cls-25" d="M389.32,149l.93,8.44-6.85,2.79S382.61,151.25,389.32,149Z"/><path class="cls-25" d="M405.66,147.84a19.13,19.13,0,0,1-7.05,6.74c-2.52,1.43-8.36,2.89-8.36,2.89l2.58,7.74S401,161.9,405,158.72C405,158.72,410.32,152.41,405.66,147.84Z"/><path class="cls-21" d="M395,210.73c2.09,3.66,6.12,3.74,11.31,0,11-7.9,18.14-25.79,20.32-35.16,2.73-11.78-1.85-16.31-8.17-19-3.49.88-6.65,6.6-10.65,17.62C404.18,184,391.27,204.31,395,210.73Z"/><path class="cls-22" d="M405.06,113.41c-4.66-9.27-15.57-8.36-21.08-1.78-5.32,6.35-5.09,6.36-9.15,8.72,9,9.45,20.47,4.74,24.56,3.27-2,5.7.52,11.12,1.3,11,1.24-2.38,2.46-2.73,3.46-1.37,1.12,1.53-.15,6.13-.15,6.13a17.56,17.56,0,0,0,8.07-11C413.14,123.63,413.67,116.1,405.06,113.41Z"/><path class="cls-24" d="M395.23,162.53s.4-9.17.66-11.05a41.67,41.67,0,0,1,1.18-6c.89-2.61.95-4.25-.8-2.95s-2.23,3.31-3.89,4.14-4.15-3.89-7.51-5.32-5.1-2.86-5.9-1.27a15.22,15.22,0,0,0-.39,7.77c.66,2.7,5.73,3.49,8.57,6.46a4.84,4.84,0,0,1,1.45,2.4,48,48,0,0,1,.46,5.19Z"/><path class="cls-9" d="M387.64,165.81v-8.34a8.29,8.29,0,0,0,3.52.56,21.6,21.6,0,0,0,5.75-1.24s.73,6.45.66,8.23S387.88,167.87,387.64,165.81Z"/><path class="cls-21" d="M398.15,161.48a30,30,0,0,1-11.34,1.05s-.84,15.29.29,25.83c1.2,11.2,1.58,20.9,5.51,23.67s10.61-2.19,10.61-2.19,1.84-18.14,0-28.27C401,169.2,400.71,169.14,398.15,161.48Z"/><path class="cls-24" d="M380.23,192.27a44.92,44.92,0,0,0,12,9.08c1.08.53,8,2,5.33,4.09-1.85,1.42-8.69-2.49-7.32,1.42,1.27,3.62,13,2.52,11.08,6.42-4.61,3.71-11.32,1.79-14.71-.83-1.52-1.17-8.65-11.63-8.65-11.63Z"/><path class="cls-9" d="M380,190.55a40.93,40.93,0,0,1,6.82,4.81c-3.44,2.61-5.69,8.51-5.69,11.5a52.87,52.87,0,0,0-5.93-3.91Z"/><path class="cls-21" d="M364.16,182.89s-6.57.61-6.9,3.68c-.56,5.35-1.94,8,1.7,10.94,4.1,3.26,14.42,7.42,20.09,9.08-2.16-8,4.93-14.85,4.93-14.85S374.49,182.29,364.16,182.89Z"/><path class="cls-23" d="M381,139.62a11.45,11.45,0,0,1,4.48,2.07c2.26,1.71,4.1,3.6,4.77,4.15-.65-.84-1.61-3.94-4.62-5.61S381,139.62,381,139.62Z"/><path class="cls-23" d="M393.77,145.5s1.51-2.49,2.5-2.94,1.41,0,1.41,0-.53-1.67-2-.72S393.77,145.5,393.77,145.5Z"/></g></g></svg>