<svg xmlns="http://www.w3.org/2000/svg" viewBox="0 0 440.3 517.3"><defs><style>.cls-1{fill:#272727;}.cls-2{fill:#ffad97;}.cls-3{fill:#373737;}.cls-4{fill:#ffc5b3;}.cls-5{fill:#383838;}.cls-17,.cls-6{fill:#fff;}.cls-23,.cls-24,.cls-29,.cls-7,.cls-9{fill:#edcd00;}.cls-8{fill:#43439b;}.cls-23,.cls-9{stroke:#b29000;}.cls-20,.cls-23,.cls-24,.cls-29,.cls-9{stroke-miterlimit:10;}.cls-29,.cls-9{stroke-width:0.25px;}.cls-10{fill:#b29000;}.cls-11{fill:#147c77;}.cls-12{fill:#ccc;}.cls-13,.cls-20{fill:#fafafa;}.cls-14,.cls-28{opacity:0.2;}.cls-14,.cls-17{isolation:isolate;}.cls-15{fill:#e6e6e6;}.cls-16{fill:#fcecac;}.cls-17{opacity:0.7;}.cls-18{fill:#e0e0e0;}.cls-19{fill:#f5f5f5;}.cls-20{stroke:#ebebeb;stroke-width:0.79px;}.cls-21{fill:#ebebeb;}.cls-22{opacity:0.3;}.cls-23{stroke-width:0.2px;}.cls-24,.cls-29{stroke:#fff;}.cls-24{stroke-width:0.28px;}.cls-25{opacity:0.3;}.cls-26{fill:#263238;}.cls-27{fill:#455a64;}</style></defs><g id="Camada_2" data-name="Camada 2"><g id="Camada_1-2" data-name="Camada 1"><path class="cls-1" d="M74.57,343.64c37.2,10.63,57.6-18.43,32.58-26.36C67.9,304.88,51.38,337.08,74.57,343.64Z"/><path class="cls-2" d="M82.45,260.31c-.83-2.19,13.44-3.86,13.44-3.86s0,10.64.42,15.12c.58,6.76.45,10-1.5,19.07-.87,4-2,19.28-1.66,24.65.42,7.86,4,11.58,5.28,13.52s-3.45,3.78-6.42.95-3.27-3.39-4.94-4.28-1.11-3-1-7.45c.1-3.43-1.39-14.87-2-22.2-.81-10.41,1.47-10.64,1.31-15.9A78.09,78.09,0,0,0,82.45,260.31Z"/><path class="cls-3" d="M84.72,320.31v-.06c0-.18.09-.28.09-.28h0a6.71,6.71,0,0,1,1.26-2s.71,6.3,4.41,8.9c4.13,2.9,6,3.33,7.94,1.88a41.75,41.75,0,0,0,3.27,4c1.22,1.35.2,2.71-3.4,2.45a9,9,0,0,1-6.13-3c-1.59-2-2.81-4.2-4.29-5.52l-.62-.57h0c-.11,1.67-.06,2.73-.14,3.94-.35.56-.89.42-1.31,0-.24-1.33.07-2.55-.67-5A9.08,9.08,0,0,1,84.72,320.31Z"/><path class="cls-4" d="M71.44,266c-.83-2.2,13.44-3.86,13.44-3.86s0,10.64.42,15.12c.58,6.76.45,10-1.5,19.07-.87,4-2,19.28-1.66,24.65.42,7.86,4,11.58,5.28,13.52s-3.45,3.78-6.42.95-3.27-3.39-4.94-4.28-1.11-3-1-7.45c.1-3.43-1.39-14.87-2-22.21-.81-10.41,1.47-10.63,1.31-15.9A78.07,78.07,0,0,0,71.44,266Z"/><path class="cls-3" d="M73.75,325.8v-.06a2.16,2.16,0,0,1,.09-.27h0a6.59,6.59,0,0,1,1.26-1.94s.7,6.29,4.4,8.89c4.13,2.9,6,3.33,7.94,1.89a40.52,40.52,0,0,0,3.28,4c1.22,1.36.19,2.72-3.41,2.46a9.11,9.11,0,0,1-6.13-3c-1.58-2-2.81-4.21-4.28-5.53l-.63-.57h0c-.11,1.66-.06,2.73-.14,3.94-.35.55-.88.42-1.3,0-.25-1.33.07-2.56-.68-5A9.08,9.08,0,0,1,73.75,325.8Z"/><path class="cls-1" d="M108.71,214.48c-.49-.8-1-1.57-1.46-2.3-3.71-5.6-8.86-18.3-15.59-20.76-6.9-2.53-8.15,2.3-8.15,2.3L100,221.29A16.14,16.14,0,0,0,108.71,214.48Z"/><path class="cls-5" d="M77.81,182.38s-3.33,3.74-4.44,12.41-.79,11.07-.79,11.07,7.43.92,9.1-2.88S77.81,182.38,77.81,182.38Z"/><path class="cls-1" d="M99.27,236.16a69.29,69.29,0,0,1,1,11.33c.18,9-.93,27.15-.93,27.15s-2.19,3.09-7.61,4.6c-3.61,1-9.63,1.24-13.79-.36-.92-4-1.73-10.1-1.73-10.1-.25,2.85-1.48,6.85-1.56,9.49a8.16,8.16,0,0,1-3.84-2.06s-.7-7.33-1.4-15.26c-.67-7.62-.3-14.71,3-23C77.53,225.07,99,229.17,99.27,236.16Z"/><path class="cls-6" d="M68.1,207.15c.69-4.85,11.72-11.41,11.72-11.41s1.81,5.4,3.5,6.72a43.59,43.59,0,0,1,4.54,4.8h0a36.62,36.62,0,0,0-2-9.39c-.53-1.44.27-5.64.27-5.64s.67-.17,1.64-.34c1.46,1.61,4.33,5.9,5.88,7.68s5.92,7.65,4.57,13.27a61.47,61.47,0,0,0-1.63,13.45c.14,2.72,3,11.34,3,11.34s-2.84,7.08-13.26,5.46A30.5,30.5,0,0,1,73,237.23s1.87-11.81,1.62-16.68A13,13,0,0,1,68.1,207.15Z"/><path class="cls-3" d="M87.89,197s2.39,6.79,4.6,12.77,2.19,22.6,2.83,25.07c1.06,4,4,5.62,5.89,4.23,0,0-4.45-19.5-3-26.19s-.14-8.37-4.69-14.4-4.43-4.91-4.43-4.91Z"/><path class="cls-1" d="M89.11,194.79c1.76,2.37,5.09,6.89,5.09,6.89l-1.31,1.83a7.1,7.1,0,0,1,2,1.85c0,3-.93,11.57-.93,11.57a59.73,59.73,0,0,0-6.74-17.42c-1.58-2.55-.66-2.59-.66-2.59S88.29,194.7,89.11,194.79Z"/><path class="cls-2" d="M86.64,192.87a44,44,0,0,0,1.25,7.76,1.54,1.54,0,0,1-1.27,1.8c-1.28.23-3.83,0-4.63-.59-3.62-2.91-4.17-4.43-4.17-4.43s.74-3.39.83-4.61c.14-2,0-8.7,0-8.7Z"/><path class="cls-7" d="M88,201.66a8.31,8.31,0,0,1,.25,2.65c-.16,1.08-.86,1.44-2,.58a5.43,5.43,0,0,1-1.55-2.14A2.58,2.58,0,0,1,88,201.66Z"/><path class="cls-7" d="M87.9,204.38a24.7,24.7,0,0,1,3.17,7.26,155.8,155.8,0,0,1,3.48,15.89,13,13,0,0,1-2.17,4.28l-3.5-3L86.8,205Z"/><path class="cls-6" d="M87.79,195.74s1.12.81,2,4.76a6,6,0,0,1-.51,4.24l-3-3.33a8.94,8.94,0,0,0,.43-5.67C86.44,194.4,87.79,195.74,87.79,195.74Z"/><path class="cls-4" d="M80.14,175.67c3-2.57,10.45-3.73,13.58,3.85C97,187.46,90.2,198,86.21,196.43c-2.24-.84-6.76-2.92-8.28-7.11C76.22,184.6,77.78,177.66,80.14,175.67Z"/><path class="cls-3" d="M77.63,195.74a43,43,0,0,1,9.48,19.35,116.15,116.15,0,0,1,2.58,16.42c.34,6.49-.69,12-3.18,14-7.52,5.86-16.67-3-16.67-3s3.64-12.25,3-16S67.46,206.19,69,203.51,77.63,195.74,77.63,195.74Z"/><path class="cls-1" d="M78.35,194.79s-.3,3.23,3.64,7.64c6.05,6.75,5.9,17.1,5.9,17.1l-7.91-10,1.35-2.94-3.11-.19a16.68,16.68,0,0,1-2.73-8.4C75.5,195.71,78.35,194.79,78.35,194.79Z"/><path class="cls-6" d="M85.19,206.7a26.25,26.25,0,0,0,1.11-5.29s-5.39-2.49-7.82-5.3C78.12,199.51,80.78,205.08,85.19,206.7Z"/><path class="cls-8" d="M65.36,242.5s2,1.48,4.2-.78,3.32-4.38,2.12-5.51-3.19-1.33-5.44.66A4.62,4.62,0,0,0,65.36,242.5Z"/><path class="cls-1" d="M71.84,201.13c-2.48-.27-5.92,5.33-10.19,12.78S56,226.16,55.79,230a7.93,7.93,0,0,0,1.52,4c2.1,3.1,5.67,7.23,8,8.6.25-2.38.87-4.27,2.58-5.58a6,6,0,0,1,3.74-.71l-5.28-8.6s6.26-7.2,8.55-13.38C77,208.86,74.87,201.45,71.84,201.13Z"/><path class="cls-5" d="M87.94,181.43s-5.14,5.95-10.6,7.29c-2.58-5.81-3.08-7.41-1.85-11.09a6.14,6.14,0,0,1,5.82-4.15s4.46-5,10.75-.44c9.15,6.57,2.15,14.34,2.15,14.34S93.89,183.54,87.94,181.43Z"/><path class="cls-4" d="M81.94,187.88a7,7,0,0,0-1.27-1.38c-.57-.43-1.65-.56-2,1.09a2.76,2.76,0,0,0,1.38,3.09Z"/><path class="cls-1" d="M103.3,211.29c.39,0,16.24-2.13,18.24-2.21-.62,3.32-1.41,4.34,1.55,7.4-1.31,1.68-7.41,2.8-11.62,4-3.3.92-6.06,1.88-8.16,2a3.65,3.65,0,0,1-3.3-1.17C96.66,217.14,103.3,211.29,103.3,211.29Z"/><polygon class="cls-9" points="174.27 132.59 129 167.19 141.76 175.97 107.89 245.52 79.66 226.56 0.3 386.67 31.14 368.86 84.76 261.08 112.76 280.11 158.07 187.15 169.42 194.84 174.27 132.59"/><polygon class="cls-10" points="181.64 136.87 136.38 171.47 149.13 180.25 115.27 249.8 87.03 230.84 7.67 390.95 38.52 373.14 92.14 265.36 120.14 284.39 165.44 191.43 176.79 199.12 181.64 136.87"/><polygon class="cls-9" points="7.67 390.95 0.3 386.67 79.66 226.56 87.03 230.84 7.67 390.95"/><polygon class="cls-11" points="120.14 284.39 112.76 280.11 91.86 265.91 92.14 265.36 120.14 284.39"/><polygon class="cls-9" points="181.64 136.87 174.27 132.59 129 167.19 136.38 171.47 181.64 136.87"/><polygon class="cls-10" points="129 167.19 136.38 171.47 149.13 180.25 141.76 175.97 129 167.19"/><polygon class="cls-11" points="169.42 194.84 176.79 199.12 165.44 191.43 165.18 191.97 169.42 194.84"/><path class="cls-2" d="M121.33,209.75s1.46-1.63,3-3.05,2.09-3.46,2.69-4.18,1.65.42.77,2.22-1.9,3.9-1.9,3.9l-3.52,7.22S119.45,214.67,121.33,209.75Z"/><path class="cls-4" d="M65.63,241.09a6.54,6.54,0,0,0,1.87,2.23c1.2.59,2.19.53,3.29,1.12a11.43,11.43,0,0,0,4.95,1.91,3,3,0,0,0,2.85-4.9c-2.13-2.39-3.1-3.76-4.34-4a14.3,14.3,0,0,1-4.36-1.24C65.63,235.93,65.63,241.09,65.63,241.09Z"/><g id="Documento"><g id="Document-4"><path class="cls-12" d="M193.15,3.23V252.56A21.85,21.85,0,0,0,196,261a23.26,23.26,0,0,0,5.9,7L365.05,368.64c1.8,1,2.93.37,3.05-1.6V113.87a12.39,12.39,0,0,0-.89-4.26c-1.69-4.64-5.22-9.6-7.88-11.09L200.34.41a4.19,4.19,0,0,1-.89-.27L198.64,0a6.15,6.15,0,0,1-.88.07l-.32,0-.58,0-.5,0a4.42,4.42,0,0,1-.89.67c-.12.07-.25.12-.38.18l-.15.12a3.48,3.48,0,0,1-.48.35L193.7,2a4.07,4.07,0,0,1-.55.28"/><path class="cls-12" d="M193.15,2.24v1"/><path class="cls-6" d="M194.89,263.87,358,364.53c1.8,1,2.93.38,3.05-1.6V109.72a7,7,0,0,0-3.05-5.37L194.89,3.68c-1.8-1-2.93-.37-3,1.6V258.47A7.19,7.19,0,0,0,194.89,263.87Z"/><path class="cls-1" d="M360.81,100.07,197.63.36a1.61,1.61,0,0,0-1.15-.21l-.93.62a3.6,3.6,0,0,0-1,.79c-.33.4-.64.77-1,1.12a1.67,1.67,0,0,0,.79,1.58L357.55,104a1.71,1.71,0,0,0,1.83,0l1.5-1A1.69,1.69,0,0,0,360.81,100.07Z"/><g id="Text"><polygon class="cls-1" points="218.51 18.32 333.3 89 333.3 115.1 218.51 44.47 218.51 18.32"/><polygon class="cls-7" points="356.24 137.94 264.6 81.43 264.6 101.05 356.24 157.54 356.24 137.94"/><path class="cls-13" d="M281.78,96.64c.05,0,.12.1.17.2s0,.21,0,.24v1.58a.61.61,0,0,1,0,.33c0,.05-.09.05-.17,0l-1.73-1v7.67a.57.57,0,0,1,0,.32s-.1,0-.19,0l-1.27-.79-.19-.23a.68.68,0,0,1-.08-.33V96.94l-1.73-1a.67.67,0,0,1-.19-.23,1,1,0,0,1-.08-.33V93.75a.33.33,0,0,1,.08-.23c.05,0,.11,0,.19,0Z"/><path class="cls-13" d="M282.57,101a4.84,4.84,0,0,1,.24-1.43,1.82,1.82,0,0,1,.61-.86,1.31,1.31,0,0,1,.94-.28,2.53,2.53,0,0,1,1.28.47,5,5,0,0,1,1.27,1.11,6.75,6.75,0,0,1,.94,1.44,7.59,7.59,0,0,1,.59,1.63,7.44,7.44,0,0,1,.24,1.74v2.65a4.1,4.1,0,0,1-.24,1.41,2,2,0,0,1-.59.88,1.4,1.4,0,0,1-.94.28,3.07,3.07,0,0,1-1.27-.47,5.46,5.46,0,0,1-1.28-1.1,7.24,7.24,0,0,1-.94-1.45,7.81,7.81,0,0,1-.61-1.67,8.41,8.41,0,0,1-.24-1.72v-1.29C282.57,101.92,282.56,101.44,282.57,101Zm4.31,5.24v-2.51a4.79,4.79,0,0,0-.11-.76,3,3,0,0,0-.24-.69,2.61,2.61,0,0,0-.37-.58,1.94,1.94,0,0,0-.52-.47,1,1,0,0,0-.53-.18.42.42,0,0,0-.38.13,1.39,1.39,0,0,0-.34,1v2.51a3.71,3.71,0,0,0,.34,1.43,2.43,2.43,0,0,0,.91,1.08c.4.25.71.27.89.07A1.72,1.72,0,0,0,286.88,106.27Z"/><path class="cls-13" d="M294.74,104.64a.43.43,0,0,1,.19.22.32.32,0,0,1,0,.24v1.57a.65.65,0,0,1,0,.34s-.1,0-.19,0L293,106v7.64a.6.6,0,0,1,0,.33s-.1,0-.17,0l-1.3-.8a.48.48,0,0,1-.17-.21.53.53,0,0,1-.08-.33v-7.65l-1.72-1a.52.52,0,0,1-.2-.23,1,1,0,0,1-.08-.33v-1.57a.45.45,0,0,1,.08-.24c0-.06.11,0,.2,0Z"/><path class="cls-13" d="M298.83,107.15l.3.36a1.72,1.72,0,0,1,.14.42l2.14,10.7a.74.74,0,0,1,0,.21.56.56,0,0,1,0,.26c0,.05-.08.05-.14,0l-1.23-.75a.64.64,0,0,1-.29-.34.74.74,0,0,1-.09-.31l-.29-1.41-2.6-1.6-.27,1.06a.32.32,0,0,1-.11.19c-.06,0-.16,0-.28,0l-1.22-.75a.53.53,0,0,1-.16-.19c0-.09,0-.16,0-.19a1,1,0,0,1,0-.25l2.13-8.07a1,1,0,0,1,.15-.24q.11-.07.3,0Zm-1.6,5.53,1.6,1-.79-4.08Z"/><path class="cls-13" d="M307,120.32l.19.23a.68.68,0,0,1,.08.33v1.57a.33.33,0,0,1-.08.24c0,.11-.11.06-.19,0l-4.53-2.79-.19-.23a.68.68,0,0,1-.08-.33v-9.61a.33.33,0,0,1,.08-.24s.1,0,.19,0l1.28.79a.59.59,0,0,1,.19.23,1,1,0,0,1,.08.33v7.64Z"/><path class="cls-13" d="M327.68,124.79a6.39,6.39,0,0,1,.84,1,6.65,6.65,0,0,1,.61,1,6.54,6.54,0,0,1,.36,1,5,5,0,0,1,.15.84.63.63,0,0,1,0,.34.19.19,0,0,1-.19,0l-.69-.42c-.11-.13-.21-.17-.25-.3a1.66,1.66,0,0,1-.16-.37,3.71,3.71,0,0,0-.45-.92,2.62,2.62,0,0,0-.88-.81,2.43,2.43,0,0,0-.49-.24.9.9,0,0,0-.4,0,.64.64,0,0,0-.27.22.94.94,0,0,0-.1.45,1.76,1.76,0,0,0,.11.62,2.3,2.3,0,0,0,.35.59,6.93,6.93,0,0,0,.63.74l.91.87a10.48,10.48,0,0,1,1,1.07,4.6,4.6,0,0,1,.67,1.05,3.91,3.91,0,0,1,.37,1,5.54,5.54,0,0,1,.11,1.15,3.24,3.24,0,0,1-.14,1,1.57,1.57,0,0,1-.42.66,1.1,1.1,0,0,1-.68.24,2.29,2.29,0,0,1-.91-.18v1a.33.33,0,0,1-.08.24c0,.05-.1,0-.19,0l-.8-.49a.48.48,0,0,1-.17-.21.52.52,0,0,1-.08-.33v-1a6.37,6.37,0,0,1-.83-.87,5.8,5.8,0,0,1-.67-1,5.55,5.55,0,0,1-.48-1.12,4.56,4.56,0,0,1-.19-1.15.24.24,0,0,1,.08-.24c0-.05.1-.05.19,0l.68.42c.12.13.2.15.26.3s.09.11.14.34.1.32.16.49a2.78,2.78,0,0,0,.27.51,3.15,3.15,0,0,0,.42.5,3.75,3.75,0,0,0,.62.47,5.3,5.3,0,0,0,.57.3,1.43,1.43,0,0,0,.48.06.75.75,0,0,0,.34-.18.83.83,0,0,0,.13-.5,1.47,1.47,0,0,0-.15-.62,3.24,3.24,0,0,0-.41-.61,7.67,7.67,0,0,0-.69-.7l-1-.95a9.37,9.37,0,0,1-.86-1,5,5,0,0,1-.6-1,4,4,0,0,1-.35-1,5.23,5.23,0,0,1-.13-1.24,2.46,2.46,0,0,1,.16-1,1.19,1.19,0,0,1,1-.92,2,2,0,0,1,.8.11v-1c0-.12,0-.2.08-.23s.09,0,.17,0l.8.48a.58.58,0,0,1,.19.23.68.68,0,0,1,.08.33Z"/><path class="cls-13" d="M334.39,128.88a6.81,6.81,0,0,1,.85,1,8.25,8.25,0,0,1,.6,1,6,6,0,0,1,.38,1,5.28,5.28,0,0,1,.15.85.3.3,0,0,1-.08.24c0,.05-.11.05-.19,0l-.69-.42a.54.54,0,0,1-.24-.28A2.68,2.68,0,0,1,335,132a3.4,3.4,0,0,0-.44-.93,2.55,2.55,0,0,0-.88-.82,1.63,1.63,0,0,0-.5-.22.65.65,0,0,0-.39,0,.45.45,0,0,0-.28.21.88.88,0,0,0-.09.44,1.48,1.48,0,0,0,.11.63,2.3,2.3,0,0,0,.35.59,7.65,7.65,0,0,0,.61.72l.92.9a7.94,7.94,0,0,1,1,1.06,5.9,5.9,0,0,1,.67,1,4.88,4.88,0,0,1,.37,1.07,5.54,5.54,0,0,1,.11,1.15,3.17,3.17,0,0,1-.14,1,1.23,1.23,0,0,1-.44.64,1.16,1.16,0,0,1-.66.28,2.08,2.08,0,0,1-.93-.22v1c0,.24-.08.34-.26.26l-.79-.5s-.13-.11-.18-.21a.78.78,0,0,1-.08-.35v-1.08a8.66,8.66,0,0,1-.83-.86,6.86,6.86,0,0,1-1.15-2.15,5.2,5.2,0,0,1-.23-1.2.45.45,0,0,1,0-.33s.1,0,.19,0l.68.42a1.41,1.41,0,0,1,.26.31,1.72,1.72,0,0,1,.16.38,3.85,3.85,0,0,0,.16.48,2.78,2.78,0,0,0,.27.51,3.14,3.14,0,0,0,.41.5,3.87,3.87,0,0,0,.62.48,2.18,2.18,0,0,0,.56.27.6.6,0,0,0,.94-.6,1.47,1.47,0,0,0-.12-.61,3.2,3.2,0,0,0-.42-.62c-.23-.26-.47-.5-.7-.72l-.94-.91a10,10,0,0,1-.86-1,5.67,5.67,0,0,1-.61-1,4.27,4.27,0,0,1-.35-1.07,5.81,5.81,0,0,1-.13-1.24,2.84,2.84,0,0,1,.15-1,1.64,1.64,0,0,1,.41-.62,1.13,1.13,0,0,1,.62-.27,1.68,1.68,0,0,1,.8.11v-1c0-.12,0-.2.08-.24s.09,0,.18,0l.79.49c.05,0,.13.1.18.2v0a.32.32,0,0,1,0,.24Z"/><path class="cls-13" d="M341.2,133.09a5.9,5.9,0,0,1,.85,1,6.16,6.16,0,0,1,.6,1,6.65,6.65,0,0,1,.37,1,4.87,4.87,0,0,1,.16.88.3.3,0,0,1-.08.24s-.11,0-.19,0l-.69-.44a.71.71,0,0,1-.25-.3,1.61,1.61,0,0,1-.15-.34,3.92,3.92,0,0,0-.44-.93,2.7,2.7,0,0,0-.9-.82,2,2,0,0,0-.48-.21.74.74,0,0,0-.39,0,.45.45,0,0,0-.28.21,1,1,0,0,0-.09.45,1.48,1.48,0,0,0,.11.63,2,2,0,0,0,.33.57,7.9,7.9,0,0,0,.63.73l.91.86a12.22,12.22,0,0,1,1,1.09,5.46,5.46,0,0,1,.67,1,4.88,4.88,0,0,1,.37,1.07,5.57,5.57,0,0,1,.11,1.16,3.15,3.15,0,0,1-.14,1,1.33,1.33,0,0,1-.44.64,1.1,1.1,0,0,1-.68.24,1.8,1.8,0,0,1-.91-.18v1c0,.12,0,.2-.08.24s-.09.05-.18,0l-.79-.49a.46.46,0,0,1-.19-.23.68.68,0,0,1-.08-.33v-1a5,5,0,0,1-.83-.87,6.7,6.7,0,0,1-.67-1,5.72,5.72,0,0,1-.47-1.12,4.64,4.64,0,0,1-.19-1.15.64.64,0,0,1,0-.34.25.25,0,0,1,.19,0l.69.42c.11.13.19.15.26.3a1.39,1.39,0,0,1,.14.36c.05.16.11.33.17.49a2.17,2.17,0,0,0,.26.5,3.28,3.28,0,0,0,.43.51,3.72,3.72,0,0,0,.61.47,5,5,0,0,0,.57.28.78.78,0,0,0,.48.07.45.45,0,0,0,.33-.17.79.79,0,0,0,.13-.5,1.37,1.37,0,0,0-.14-.64,2.54,2.54,0,0,0-.42-.6,9.39,9.39,0,0,0-.68-.71l-1-.94a10,10,0,0,1-.84-1,4.62,4.62,0,0,1-.61-1,4.88,4.88,0,0,1-.37-1.07,6.25,6.25,0,0,1-.11-1.22,3.21,3.21,0,0,1,.14-1,1.48,1.48,0,0,1,.42-.62.87.87,0,0,1,.62-.27,2.18,2.18,0,0,1,.78.09v-1a.38.38,0,0,1,.08-.24s.11,0,.19,0l.8.49a.56.56,0,0,1,.18.21.73.73,0,0,1,.08.33Z"/><path class="cls-13" d="M348,137.28a5.46,5.46,0,0,1,.84,1,7.15,7.15,0,0,1,.61,1,5.73,5.73,0,0,1,.37,1,3.26,3.26,0,0,1,.14.85.61.61,0,0,1,0,.33.19.19,0,0,1-.19,0l-.69-.42-.25-.3a2,2,0,0,1-.14-.35,4.1,4.1,0,0,0-.45-.92,4,4,0,0,0-.89-.84,2.42,2.42,0,0,0-.48-.21.68.68,0,0,0-.4,0,.4.4,0,0,0-.27.22.78.78,0,0,0-.1.44,1.7,1.7,0,0,0,.1.61,2,2,0,0,0,.35.59,5.91,5.91,0,0,0,.62.74l.91.88a8.17,8.17,0,0,1,1,1.08,5.34,5.34,0,0,1,.66,1,4.45,4.45,0,0,1,.38,1.09,6.17,6.17,0,0,1,.11,1.15,3.24,3.24,0,0,1-.14,1,1.18,1.18,0,0,1-1.12.88,2.06,2.06,0,0,1-.91-.19v1a.33.33,0,0,1-.08.24s-.1,0-.19,0l-.78-.47c-.06,0-.13-.12-.19-.23a.68.68,0,0,1-.08-.33v-1a5.73,5.73,0,0,1-.83-.86,6.61,6.61,0,0,1-1.13-2.12,4.09,4.09,0,0,1-.21-1.17.33.33,0,0,1,.08-.24s.11,0,.19,0l.69.42a1.13,1.13,0,0,1,.25.3,1.15,1.15,0,0,1,.15.36c.05.16.1.33.17.51a2.11,2.11,0,0,0,.26.49,3.53,3.53,0,0,0,.41.49,2.68,2.68,0,0,0,.62.49,2.85,2.85,0,0,0,.58.29,1.42,1.42,0,0,0,.48.08.49.49,0,0,0,.33-.19.82.82,0,0,0,.13-.49,1.44,1.44,0,0,0-.14-.63,3.2,3.2,0,0,0-.42-.62c-.23-.25-.46-.49-.69-.7s-.63-.6-.95-.93a10,10,0,0,1-.85-1,5,5,0,0,1-.6-1,4.07,4.07,0,0,1-.37-1.08,5.56,5.56,0,0,1-.11-1.22,3,3,0,0,1,.14-1,1.75,1.75,0,0,1,.4-.65,1.13,1.13,0,0,1,.62-.27,2,2,0,0,1,.8.12v-1a.33.33,0,0,1,.08-.24c0-.06.1-.06.19,0l.78.47c.06,0,.14.11.19.22a.74.74,0,0,1,.08.34Z"/><polygon class="cls-7" points="211.04 76.82 354.24 165.1 354.24 168.37 211.04 80.08 211.04 76.82"/><polygon class="cls-14" points="211.04 76.82 354.24 165.1 354.24 168.37 211.04 80.08 211.04 76.82"/><polygon class="cls-7" points="211.04 161.77 354.24 250.06 354.24 253.32 211.04 165.03 211.04 161.77"/><polygon class="cls-14" points="211.04 161.77 354.24 250.06 354.24 253.32 211.04 165.03 211.04 161.77"/><polygon class="cls-7" points="211.04 86.62 262.6 118.42 262.6 124.94 211.04 93.16 211.04 86.62"/><polygon class="cls-7" points="274.05 125.47 296.97 139.59 296.97 146.13 274.05 132.01 274.05 125.47"/><polygon class="cls-7" points="302.69 143.13 325.6 157.25 325.6 163.77 302.69 149.67 302.69 143.13"/><polygon class="cls-7" points="331.34 160.78 354.24 174.91 354.24 181.43 331.34 167.32 331.34 160.78"/><polygon class="cls-15" points="211.04 106.22 354.24 194.51 354.24 207.57 211.04 119.28 211.04 106.22"/><polygon class="cls-15" points="211.04 132.37 354.24 220.65 354.24 233.72 211.04 145.43 211.04 132.37"/><path class="cls-1" d="M216.78,104.28a4.5,4.5,0,0,1-1.05-2.32c0-.36.2-.46.51-.28l40.09,24.72a4.56,4.56,0,0,1,1.45,2.1c.29.84.12,1.27-.38,1l-40.09-24.72A2.76,2.76,0,0,1,216.78,104.28Z"/><path class="cls-1" d="M279.78,140.24a3,3,0,0,1-.7-1.53c0-.24.13-.31.35-.18l17.19,10.67a3.09,3.09,0,0,1,.94,1.43c.16.5.05.75-.24.6l-17.19-10.57A2.16,2.16,0,0,1,279.78,140.24Z"/><path class="cls-1" d="M279.78,145a3.8,3.8,0,0,1-.61-1.07c-.19-.57-.08-.86.26-.66l17.19,10.69a3,3,0,0,1,1,1.38c.19.57.08.86-.26.66l-17.19-10.59A2.08,2.08,0,0,1,279.78,145Z"/><path class="cls-1" d="M308.42,160.42a3,3,0,0,1-.7-1.53c0-.24.13-.31.35-.18l17.18,10.59a3,3,0,0,1,1,1.39c.2.56.09.86-.25.66l-17.19-10.61A1.43,1.43,0,0,1,308.42,160.42Z"/><path class="cls-1" d="M337.06,178.08a3.54,3.54,0,0,1-.6-1.07c-.2-.55-.1-.85.23-.66l0,0L353.89,187a3.15,3.15,0,0,1,1,1.41c.19.55.09.84-.24.64l0,0-17.18-10.57A2.06,2.06,0,0,1,337.06,178.08Z"/><path class="cls-1" d="M216.78,117.35a4.43,4.43,0,0,1-1.05-2.32c0-.35.2-.45.51-.27L245,132.49a4.85,4.85,0,0,1,1.45,2.1c.29.85.11,1.28-.4,1l-28.63-17.64A2.49,2.49,0,0,1,216.78,117.35Z"/><path class="cls-1" d="M279.78,153.38a3.67,3.67,0,0,1-.61-1.07c-.19-.56-.08-.85.26-.65l17.19,10.6a3.14,3.14,0,0,1,1,1.39c.19.57.08.86-.26.66L280.13,153.7A1.25,1.25,0,0,1,279.78,153.38Z"/><path class="cls-1" d="M279.78,158.05a3,3,0,0,1-.7-1.53c0-.24.13-.31.35-.18l17.19,10.6a2.94,2.94,0,0,1,.94,1.35l0,0c.19.56.07.85-.26.64l-17.19-10.6A1.67,1.67,0,0,1,279.78,158.05Z"/><path class="cls-1" d="M308.42,173.5a3.8,3.8,0,0,1-.61-1.07c-.19-.57-.08-.86.26-.66l17.18,10.59a2.7,2.7,0,0,1,1,1.32c.25.6.19,1-.12.85a1.2,1.2,0,0,1-.17-.11l-17.19-10.6A1.43,1.43,0,0,1,308.42,173.5Z"/><path class="cls-1" d="M337.06,191.16a3.54,3.54,0,0,1-.6-1.07c-.2-.57-.08-.86.25-.66L353.89,200a3.05,3.05,0,0,1,1,1.4c.2.57.09.86-.25.66l0,0-17.18-10.58A2.36,2.36,0,0,1,337.06,191.16Z"/><path class="cls-1" d="M216.78,130.42a4.46,4.46,0,0,1-1.05-2.32c0-.35.2-.46.51-.28l45.83,28.26a4.6,4.6,0,0,1,1.44,2.1h0c.29.84.13,1.27-.36,1h0L217.31,130.9A2.46,2.46,0,0,1,216.78,130.42Z"/><path class="cls-1" d="M279.78,166.44a2.94,2.94,0,0,1-.7-1.52c0-.25.13-.32.35-.18l17.19,10.6a3.09,3.09,0,0,1,.94,1.43c.16.5.05.76-.24.6l-17.19-10.6A1.5,1.5,0,0,1,279.78,166.44Z"/><path class="cls-1" d="M279.78,171.12a3.61,3.61,0,0,1-.61-1.06c-.19-.57-.08-.86.26-.66L296.62,180a3,3,0,0,1,1,1.38c.19.57.08.86-.26.66l-17.19-10.6A1.5,1.5,0,0,1,279.78,171.12Z"/><path class="cls-1" d="M308.42,186.56a2.74,2.74,0,0,1-.64-1.51c0-.2.15-.25.35-.12l17.18,10.58a2.93,2.93,0,0,1,.95,1.34s0,.05,0,.07c.19.56.08.85-.25.64L308.83,187A1.68,1.68,0,0,1,308.42,186.56Z"/><path class="cls-1" d="M337.06,204.22a3.43,3.43,0,0,1-.6-1.07c-.2-.55-.1-.85.23-.66l0,0,17.18,10.59a3.05,3.05,0,0,1,1,1.4c.19.55.09.84-.24.65l0,0-17.18-10.59A2.36,2.36,0,0,1,337.06,204.22Z"/><path class="cls-1" d="M216.78,143.5a4.46,4.46,0,0,1-1.05-2.32c0-.35.2-.46.51-.28L239.16,155a4.68,4.68,0,0,1,1.45,2.12c.29.84.11,1.26-.4,1h0L217.31,144A2.76,2.76,0,0,1,216.78,143.5Z"/><path class="cls-1" d="M279.78,179.52a3.61,3.61,0,0,1-.61-1.06c-.19-.57-.08-.86.26-.66l17.19,10.6a3.14,3.14,0,0,1,1,1.39c.19.57.08.86-.26.66l-17.19-10.6A1.5,1.5,0,0,1,279.78,179.52Z"/><path class="cls-1" d="M279.78,184.19a3,3,0,0,1-.7-1.53c0-.24.13-.31.35-.18l17.19,10.6a2.86,2.86,0,0,1,.92,1.3.36.36,0,0,1,0,.09c.19.56.07.85-.26.65l-17.19-10.61A1.43,1.43,0,0,1,279.78,184.19Z"/><path class="cls-1" d="M308.42,199.64a3.67,3.67,0,0,1-.61-1.07c-.19-.56-.08-.86.26-.65l17.18,10.58a2.7,2.7,0,0,1,1,1.32c.25.6.19,1-.12.85l-.17-.1L308.77,200A1.25,1.25,0,0,1,308.42,199.64Z"/><path class="cls-1" d="M337.06,217.3a3,3,0,0,1-.68-1.56c0-.21.13-.28.33-.17l17.18,10.59a3.09,3.09,0,0,1,1,1.41c.2.56.09.85-.25.65h0l-17.18-10.59A2.36,2.36,0,0,1,337.06,217.3Z"/><path class="cls-1" d="M216.78,156.56a4.46,4.46,0,0,1-1.05-2.32c0-.35.2-.46.51-.28l40.09,24.73a4.51,4.51,0,0,1,1.45,2.08c.29.85.12,1.29-.38,1L217.31,157A2.46,2.46,0,0,1,216.78,156.56Z"/><path class="cls-1" d="M279.78,192.59a3,3,0,0,1-.7-1.53c0-.24.13-.31.35-.18l17.19,10.6a3,3,0,0,1,.94,1.35l0,0c.19.56.07.85-.26.64l-17.19-10.6A1.43,1.43,0,0,1,279.78,192.59Z"/><path class="cls-1" d="M279.78,197.27a3.53,3.53,0,0,1-.61-1.08c-.19-.56-.08-.85.26-.65l17.19,10.61a3.09,3.09,0,0,1,.94,1.43c.16.5.05.75-.24.6l-17.19-10.59A1.43,1.43,0,0,1,279.78,197.27Z"/><path class="cls-1" d="M308.42,212.7a2.94,2.94,0,0,1-.7-1.52c0-.25.13-.32.35-.19l17.18,10.58a3.13,3.13,0,0,1,1,1.42c.19.56.08.85-.26.64L308.77,213A1.5,1.5,0,0,1,308.42,212.7Z"/><path class="cls-1" d="M337.06,230.3a3.54,3.54,0,0,1-.6-1.07c-.2-.55-.1-.85.23-.66l0,0,17.18,10.65a3.09,3.09,0,0,1,1,1.41c.19.55.09.84-.24.64l0,0-17.18-10.56A3.08,3.08,0,0,1,337.06,230.3Z"/><path class="cls-1" d="M308.42,232.31a3.09,3.09,0,0,1-.74-1.53c0-.32.17-.38.45-.15l17.18,10.58a3,3,0,0,1,1,1.39c.2.57.09.86-.24.66l-17.2-10.6A1.46,1.46,0,0,1,308.42,232.31Z"/><path class="cls-1" d="M337.06,250a3.38,3.38,0,0,1-.6-1.06c-.2-.55-.1-.85.23-.66l0,0,17.18,10.58a3.09,3.09,0,0,1,1,1.41c.19.55.09.84-.24.64l0,0-17.18-10.58A2,2,0,0,1,337.06,250Z"/><path class="cls-1" d="M308.42,238.85a3.8,3.8,0,0,1-.61-1.07c-.19-.57-.08-.86.26-.66l17.18,10.67a3.31,3.31,0,0,1,.93,1.49c.13.44,0,.68-.22.57l-17.19-10.6A2.93,2.93,0,0,1,308.42,238.85Z"/><path class="cls-1" d="M337.06,256.5a3.38,3.38,0,0,1-.6-1.06c-.2-.56-.1-.85.23-.66l0,0,17.18,10.58a3.09,3.09,0,0,1,1,1.41c.19.55.09.84-.24.64l0,0-17.18-10.58A2,2,0,0,1,337.06,256.5Z"/><path class="cls-1" d="M216.78,188.88a3.75,3.75,0,0,1-.62-1.08c-.19-.56-.08-.85.26-.65l34.3,21.12a3,3,0,0,1,1,1.39c.2.56.09.86-.24.66l-34.37-21.19A1,1,0,0,1,216.78,188.88Z"/><path class="cls-1" d="M216.78,195.42a3.75,3.75,0,0,1-.62-1.08c-.19-.56-.08-.85.26-.65l34.3,21.12a2.89,2.89,0,0,1,.95,1.33s0,.05,0,.08c.2.56.08.84-.25.64l-34.37-21.19A1.56,1.56,0,0,1,216.78,195.42Z"/><path class="cls-1" d="M216.78,202a3.67,3.67,0,0,1-.62-1.09c-.19-.56-.08-.85.26-.65l34.3,21.11a3.33,3.33,0,0,1,.94,1.5c.12.44,0,.67-.22.57l-34.37-21.19A1.56,1.56,0,0,1,216.78,202Z"/><g id="documentos"><path class="cls-6" d="M228.49,29.56a8.87,8.87,0,0,1,2,1.72,10.38,10.38,0,0,1,1.42,2.18,11.79,11.79,0,0,1,.88,2.61,17.75,17.75,0,0,1,.36,2.85v3.4a10.28,10.28,0,0,1-.36,2.39,2.94,2.94,0,0,1-.88,1.43,1.86,1.86,0,0,1-1.39.4,4.41,4.41,0,0,1-2-.77l-3.93-2.5a.72.72,0,0,1-.29-.34,1.26,1.26,0,0,1-.13-.53V27.57a.49.49,0,0,1,.13-.35c.06-.07.16-.07.29,0Zm2.55,8a7.14,7.14,0,0,0-.19-1.48,6.66,6.66,0,0,0-.48-1.4,5.68,5.68,0,0,0-.81-1.26,4.61,4.61,0,0,0-1.15-1L226.31,31V41.37l2.18,1.4a2.46,2.46,0,0,0,1.1.42,1.07,1.07,0,0,0,.78-.22,1.7,1.7,0,0,0,.48-.81,4.5,4.5,0,0,0,.19-1.25c.05-1.09.05-2.23,0-3.4Z"/><path class="cls-6" d="M234.84,39.59a8.8,8.8,0,0,1,.33-2.21,3.13,3.13,0,0,1,.85-1.45,2,2,0,0,1,1.4-.43,4.41,4.41,0,0,1,2,.81,8.4,8.4,0,0,1,2,1.73,10.17,10.17,0,0,1,1.4,2.23,10.35,10.35,0,0,1,.86,2.6,13.25,13.25,0,0,1,.35,2.66v4.11a8.78,8.78,0,0,1-.33,2.2,2.71,2.71,0,0,1-.86,1.42,1.82,1.82,0,0,1-1.4.43,4.58,4.58,0,0,1-2-.79,8.45,8.45,0,0,1-2-1.77,10.33,10.33,0,0,1-1.4-2.2,12.32,12.32,0,0,1-.85-2.5,15.19,15.19,0,0,1-.33-2.64V40.56A6.26,6.26,0,0,1,234.84,39.59Zm7.08,4.6a7.05,7.05,0,0,0-.73-3,5.08,5.08,0,0,0-1.76-2.08c-.76-.46-1.38-.54-1.77-.21a2.69,2.69,0,0,0-.72,2.1v3.87a6.8,6.8,0,0,0,.72,3,5,5,0,0,0,1.77,2c.76.46,1.37.53,1.76.21a2.62,2.62,0,0,0,.73-2.07v-2c0-.71,0-1.27,0-1.84Z"/><path class="cls-6" d="M252.81,56a.44.44,0,0,1,.16-.34.29.29,0,0,1,.29,0l1.27.8a1,1,0,0,1,.42.87,6,6,0,0,1-.32,1.67,2.43,2.43,0,0,1-.83,1.19,2.17,2.17,0,0,1-1.43.32,5.26,5.26,0,0,1-2.08-.89,7.52,7.52,0,0,1-1.91-1.69,9.94,9.94,0,0,1-1.4-2.18,12.14,12.14,0,0,1-.9-2.64,13.48,13.48,0,0,1-.38-2.8V46.47a7.94,7.94,0,0,1,.38-2.3,3,3,0,0,1,.9-1.45,2,2,0,0,1,1.4-.43,4,4,0,0,1,1.91.7,8.37,8.37,0,0,1,2.08,1.8,12.26,12.26,0,0,1,1.43,2.14,10.63,10.63,0,0,1,.83,2.25,11.55,11.55,0,0,1,.32,2.06.46.46,0,0,1-.11.39.3.3,0,0,1-.31,0l-1.27-.8a.93.93,0,0,1-.29-.34,1.27,1.27,0,0,1-.17-.56,5.51,5.51,0,0,0-.23-1,5.58,5.58,0,0,0-.46-1.06,5.9,5.9,0,0,0-.75-1,5.28,5.28,0,0,0-1.07-.89,2.13,2.13,0,0,0-1.07-.4,1,1,0,0,0-.75.26,1.55,1.55,0,0,0-.47.78,5.64,5.64,0,0,0-.2,1.24v3.85a8.9,8.9,0,0,0,.2,1.49,6.57,6.57,0,0,0,.47,1.4,6.25,6.25,0,0,0,.75,1.2,4,4,0,0,0,1.07,1,3,3,0,0,0,1.07.46,1.16,1.16,0,0,0,.75-.09,1,1,0,0,0,.48-.47A1.66,1.66,0,0,0,252.81,56Z"/><path class="cls-6" d="M265.24,52.9a.82.82,0,0,1,.3.36,1.26,1.26,0,0,1,.13.53v9.45a8.83,8.83,0,0,1-.29,2.39,2.74,2.74,0,0,1-.85,1.42,1.79,1.79,0,0,1-1.4.38,4.48,4.48,0,0,1-2-.75,8.22,8.22,0,0,1-2-1.68,10.1,10.1,0,0,1-1.33-2.13,10.63,10.63,0,0,1-.83-2.56,14.21,14.21,0,0,1-.27-2.74V48.11a.4.4,0,0,1,.13-.35c.06-.07.16-.07.29,0l1.27.82a.72.72,0,0,1,.29.34,1.12,1.12,0,0,1,.13.52v9.29a8.07,8.07,0,0,0,.17,1.79,5.76,5.76,0,0,0,.48,1.39,4.75,4.75,0,0,0,.75,1.09,5,5,0,0,0,1,.81,3,3,0,0,0,1,.43.92.92,0,0,0,.75-.15,1.72,1.72,0,0,0,.5-.77,5.53,5.53,0,0,0,.17-1.5V52.52a.5.5,0,0,1,.13-.36c.05-.08.16-.07.3,0Z"/><path class="cls-6" d="M273.15,66.12l3-5.7c0-.1.11-.12.23-.21s.24-.11.44,0l1.07.69a.9.9,0,0,1,.3.35,1.18,1.18,0,0,1,.13.53V76.61a.49.49,0,0,1-.13.37.28.28,0,0,1-.3,0l-1.26-.8a.76.76,0,0,1-.3-.36,1.26,1.26,0,0,1-.13-.53v-9l-2,3.9a.73.73,0,0,1-.22.24c-.08.07-.2.06-.35,0l-.81-.5-.37-.44a3.85,3.85,0,0,1-.22-.52l-2-6.45v9a.42.42,0,0,1-.13.35c-.06.08-.16.07-.3,0l-1.26-.8a.76.76,0,0,1-.3-.36,1,1,0,0,1-.11-.49V55.33a.49.49,0,0,1,.11-.38c.06-.06.17-.05.3,0l1.07.68a1.06,1.06,0,0,1,.46.55l.21.5Z"/><path class="cls-6" d="M288,80.54a.88.88,0,0,1,.31.36,1.22,1.22,0,0,1,.12.53V83a.42.42,0,0,1-.12.35c-.06.07-.17.07-.31,0L281.14,79a.76.76,0,0,1-.31-.36,1,1,0,0,1-.12-.51V63.33a.42.42,0,0,1,.12-.35.31.31,0,0,1,.31,0l6.73,4.27a.87.87,0,0,1,.3.36,1.33,1.33,0,0,1,.13.53v1.58a.46.46,0,0,1-.13.35c-.06.08-.16.08-.3,0l-5-3.2v3.66l4.7,3a.76.76,0,0,1,.29.35,1.22,1.22,0,0,1,.13.51V76a.42.42,0,0,1-.13.35c-.06.07-.16.08-.29,0l-4.7-3v3.8Z"/><path class="cls-6" d="M297.45,89.36a1.07,1.07,0,0,1-.4-.48l-.21-.45-4.37-12.32v9.45a.42.42,0,0,1-.12.35c-.06.07-.17.07-.31,0l-1.26-.79a.81.81,0,0,1-.3-.36,1.26,1.26,0,0,1-.13-.53V69.41a.53.53,0,0,1,.13-.37c.07-.06.17-.06.3,0l1.09.68a1.08,1.08,0,0,1,.41.5,4.54,4.54,0,0,1,.21.45L296.86,83V73.56a.42.42,0,0,1,.13-.35c.05-.09.16-.08.3,0l1.26.79a.72.72,0,0,1,.3.35,1.17,1.17,0,0,1,.12.5V89.69a.48.48,0,0,1-.12.37.29.29,0,0,1-.3,0Z"/><path class="cls-6" d="M308.69,80.5a.76.76,0,0,1,.31.36,1.22,1.22,0,0,1,.12.53V83a.46.46,0,0,1-.12.36c-.07.06-.17.05-.31,0l-2.8-1.75v12.6a.5.5,0,0,1-.13.36c-.07.06-.17.06-.3,0l-1.26-.8a.76.76,0,0,1-.31-.36,1.15,1.15,0,0,1-.12-.51V80.21L301,78.46a.81.81,0,0,1-.3-.36,1.18,1.18,0,0,1-.13-.53V76a.42.42,0,0,1,.13-.35c.06-.07.16-.07.3,0Z"/><path class="cls-6" d="M310.08,87.36a8.76,8.76,0,0,1,.34-2.2,2.71,2.71,0,0,1,.86-1.42,1.87,1.87,0,0,1,1.4-.45,4.59,4.59,0,0,1,2,.79,8.32,8.32,0,0,1,2,1.75,10.1,10.1,0,0,1,1.4,2.22,11.23,11.23,0,0,1,.86,2.6,13.78,13.78,0,0,1,.35,2.56v4.11a8.88,8.88,0,0,1-.33,2.22,3.2,3.2,0,0,1-.86,1.42,1.85,1.85,0,0,1-1.42.41,4.31,4.31,0,0,1-2-.79,8.62,8.62,0,0,1-2-1.73A11.05,11.05,0,0,1,310.42,94a14.37,14.37,0,0,1-.34-2.63v-4ZM317.16,92a6.61,6.61,0,0,0-.72-3,5,5,0,0,0-1.77-2.1c-.76-.46-1.37-.53-1.75-.2a2.65,2.65,0,0,0-.72,2.11v3.87a6.82,6.82,0,0,0,.72,3,5,5,0,0,0,1.75,2.08c.77.48,1.39.56,1.77.24a2.58,2.58,0,0,0,.72-2.09v-2C317.16,93.21,317.19,92.59,317.16,92Z"/><path class="cls-6" d="M325.09,90.65a8.56,8.56,0,0,1,1.85,1.59,11.44,11.44,0,0,1,1.32,1.87,10.24,10.24,0,0,1,.82,1.88,7.43,7.43,0,0,1,.3,1.61.43.43,0,0,1-.11.38c-.07.06-.19,0-.32,0l-1.09-.69a.84.84,0,0,1-.39-.47,2.2,2.2,0,0,1-.24-.56,6.31,6.31,0,0,0-.72-1.45,4.38,4.38,0,0,0-1.42-1.34,2.85,2.85,0,0,0-.77-.35,1,1,0,0,0-.63,0,.62.62,0,0,0-.44.3,1.16,1.16,0,0,0-.15.68,2.84,2.84,0,0,0,.14,1,3.16,3.16,0,0,0,.51.89,13.68,13.68,0,0,0,.92,1.1c.39.45.87.85,1.44,1.4a16.43,16.43,0,0,1,1.59,1.69,8.56,8.56,0,0,1,1.76,3.37,8.14,8.14,0,0,1,.21,1.83,4.25,4.25,0,0,1-.31,1.73,1.79,1.79,0,0,1-.89.94,2.3,2.3,0,0,1-1.42.1,5.65,5.65,0,0,1-1.9-.84,9.44,9.44,0,0,1-1.67-1.37,10.84,10.84,0,0,1-1.41-1.78,10.44,10.44,0,0,1-1-2,7.44,7.44,0,0,1-.41-2.07c0-.19,0-.32.11-.37s.17-.06.3,0l1.1.71a1,1,0,0,1,.4.38,2.62,2.62,0,0,1,.24.56,7.27,7.27,0,0,0,.27.78,3.64,3.64,0,0,0,.41.78,5,5,0,0,0,.67.79,5.14,5.14,0,0,0,1,.78,5.78,5.78,0,0,0,.91.48,1.88,1.88,0,0,0,.77.14.74.74,0,0,0,.52-.27,1,1,0,0,0,.21-.75,2.13,2.13,0,0,0-.22-1,4,4,0,0,0-.66-.94,13.43,13.43,0,0,0-1.1-1.14c-.44-.43-.94-.91-1.51-1.5a16,16,0,0,1-1.37-1.51,9.71,9.71,0,0,1-1-1.55,7.41,7.41,0,0,1-.57-1.68,8.29,8.29,0,0,1-.18-1.88,4.2,4.2,0,0,1,.31-1.72,1.85,1.85,0,0,1,.86-.94,2.25,2.25,0,0,1,1.31-.14A4.81,4.81,0,0,1,325.09,90.65Z"/></g></g></g></g><g id="robo_fiscal" data-name="robo fiscal"><polygon class="cls-1" points="440.3 233.31 435.86 235.86 286.98 149.95 291.41 147.39 440.3 233.31"/><polygon class="cls-1" points="440.3 249.09 435.86 251.65 435.86 235.86 440.3 233.31 440.3 249.09"/><polygon class="cls-12" points="440.3 438.49 435.86 441.07 435.86 251.65 440.3 249.09 440.3 438.49"/><polygon class="cls-3" points="435.86 235.86 286.98 149.95 286.98 165.73 435.86 251.65 435.86 235.86"/><path class="cls-7" d="M418.11,232c-.94-.47-1.54-.13-1.6.93a3.54,3.54,0,0,0,1.6,2.76c.93.45,1.5.08,1.55-1A3.4,3.4,0,0,0,418.11,232Z"/><path class="cls-7" d="M423.67,235.17c-.94-.47-1.54-.12-1.6.93a3.52,3.52,0,0,0,1.6,2.75c.94.48,1.53.14,1.6-.91A3.46,3.46,0,0,0,423.67,235.17Z"/><ellipse class="cls-7" cx="429.29" cy="240.29" rx="1.31" ry="2.25" transform="translate(-62.63 247) rotate(-30.02)"/><polygon class="cls-6" points="286.98 355.15 435.86 441.07 435.86 251.65 286.98 165.73 286.98 355.15"/><polygon class="cls-10" points="416.65 267.28 413.59 269.05 386.21 253.25 389.26 251.47 416.65 267.28"/><polygon class="cls-10" points="416.65 298.73 413.59 300.49 413.59 269.05 416.65 267.28 416.65 298.73"/><polygon class="cls-7" points="413.59 269.05 386.21 253.25 386.21 284.68 413.59 300.49 413.59 269.05"/><polygon class="cls-10" points="373.65 244.56 370.59 246.33 343.21 230.52 346.26 228.75 373.65 244.56"/><polygon class="cls-10" points="373.65 276 370.59 277.76 370.59 246.33 373.65 244.56 373.65 276"/><polygon class="cls-7" points="370.59 246.33 343.21 230.52 343.21 261.96 370.59 277.76 370.59 246.33"/><polygon class="cls-10" points="329.65 220.84 326.59 222.6 299.21 206.79 302.26 205.03 329.65 220.84"/><polygon class="cls-10" points="329.65 252.28 326.59 254.04 326.59 222.6 329.65 220.84 329.65 252.28"/><polygon class="cls-7" points="326.59 222.6 299.21 206.79 299.21 238.24 326.59 254.04 326.59 222.6"/><polygon class="cls-16" points="341.48 313.62 294.3 286.38 294.3 261.82 341.48 289.06 341.48 313.62"/><polygon class="cls-7" points="297.28 286.31 302.5 289.32 302.5 285.01 297.28 281.99 297.28 286.31"/><polygon class="cls-7" points="304.35 290.39 309.57 293.41 309.57 284.77 304.35 281.76 304.35 290.39"/><polygon class="cls-7" points="311.43 294.48 316.64 297.49 316.64 285.21 311.43 282.2 311.43 294.48"/><polygon class="cls-10" points="318.5 298.56 323.71 301.57 323.71 285.66 318.5 282.65 318.5 298.56"/><polygon class="cls-10" points="325.57 302.64 330.78 305.65 330.78 285.01 325.57 281.99 325.57 302.64"/><polygon class="cls-1" points="332.64 286.08 332.64 306.72 337.86 309.74 337.86 289.09 332.64 286.08"/><polygon class="cls-16" points="412.8 418.92 345.56 380.1 345.56 289.42 412.8 328.24 412.8 418.92"/><polygon class="cls-1" points="352.58 303.98 348.51 301.64 348.14 303.35 348.14 306.06 348.51 308.22 352.58 310.56 352.96 308.85 352.96 306.13 352.58 303.98"/><polygon class="cls-10" points="352.58 315.1 348.51 312.76 348.14 314.46 348.14 317.18 348.51 319.32 352.58 321.67 352.96 319.96 352.96 317.24 352.58 315.1"/><polygon class="cls-7" points="352.58 326.22 348.51 323.88 348.14 325.59 348.14 328.3 348.51 330.44 352.58 332.79 352.96 331.08 352.96 328.35 352.58 326.22"/><polygon class="cls-1" points="345.56 380.1 368.92 338.56 377.33 345.89 388.95 329.95 399.33 346.85 412.8 328.24 412.8 343.71 408.97 406.21 345.56 380.1"/><polygon class="cls-10" points="345.56 380.1 357.1 341.42 376.4 362.05 397.03 354.8 405.6 364.07 412.8 343.71 412.8 363.89 407.89 411.76 345.56 380.1"/><polygon class="cls-7" points="345.56 380.1 365.3 359.35 374.23 380.59 389.31 373.22 399.69 385.39 412.8 363.89 412.8 418.92 345.56 380.1"/></g><g id="Device"><g id="Laptop"><path class="cls-1" d="M338.17,438.78,151.58,331.1a10.78,10.78,0,0,0-9.74,0l-106,61.14a9.15,9.15,0,0,0,0,16.17L222.43,516.14a10.78,10.78,0,0,0,9.74,0l106-61.19a9.15,9.15,0,0,0,0-16.17Z"/><path class="cls-3" d="M35,392.87c-1.76,1.54-1.47,3.64.88,5L222.47,505.59a9.89,9.89,0,0,0,4.86,1.17v10.5a10,10,0,0,1-4.86-1.16L35.87,408.41A9.09,9.09,0,0,1,35,392.87Z"/><path class="cls-3" d="M232.18,505.6l106-61.2c2.49-1.45,2.67-3.74.49-5.3A9.13,9.13,0,0,1,338.2,455l-106,61.19a9.82,9.82,0,0,1-4.86,1.16V506.77A10,10,0,0,0,232.18,505.6Z"/><path class="cls-3" d="M324.71,441.88l-5,2.63a5.36,5.36,0,0,1-4.87,0l-173.2-99.95c-1.35-.81-1.35-2,0-2.81l5-2.65a5.4,5.4,0,0,1,4.86,0l173.21,100C326.05,439.85,326.05,441.1,324.71,441.88Z"/><path class="cls-3" d="M139.48,349.4l171.69,97.49c1.33.76,1.42,1.72.26,2.58l-48.15,27.09a5.11,5.11,0,0,1-4.55-.16L87.21,379c-1.33-.77-1.43-1.72-.27-2.58l48-27.19A5.12,5.12,0,0,1,139.48,349.4Z"/><path class="cls-1" d="M237.92,434l5.37,3.06a.89.89,0,0,0,.78,0l5.11-2.88c.22-.14.23-.3,0-.44l-5.39-3.05a.85.85,0,0,0-.76,0L238,433.53C237.73,433.68,237.72,433.84,237.92,434Zm19.28-4.75-5.38-3.05a.93.93,0,0,0-.78,0L245.93,429c-.22.15-.23.31,0,.45l5.37,3.05a.92.92,0,0,0,.79,0l5.11-2.88C257.39,429.52,257.4,429.35,257.2,429.22Zm-17.38-9.86-9.08-5.17a.9.9,0,0,0-.78,0L224.85,417c-.22.14-.23.3,0,.44l9.1,5.16a.9.9,0,0,0,.78,0l5.17-2.91c.17-.14.15-.29-.07-.41Zm9.51,5.4L244,421.7a.86.86,0,0,0-.78,0l-5.11,2.87c-.23.14-.24.31,0,.44l5.37,3.05a.86.86,0,0,0,.78,0l5.11-2.87c.23-.14.23-.31,0-.44Zm-21.1-12-5.37-3a.89.89,0,0,0-.78,0L217,412.58c-.22.14-.24.3,0,.44l5.37,3.05a.9.9,0,0,0,.78,0l5.11-2.88C228.42,413.08,228.43,412.92,228.23,412.78Zm-7.86-4.46L215,405.27a.87.87,0,0,0-.77,0l-5.13,2.87c-.2.15-.18.32.06.44l5.38,3.06a.89.89,0,0,0,.78,0l5.11-2.88c.2-.14.18-.31-.06-.44ZM198,420.42l5.38,3.05a.89.89,0,0,0,.78,0l5.11-2.87c.22-.15.23-.31,0-.45L204,417.13a.89.89,0,0,0-.78,0L198.06,420C197.84,420.12,197.83,420.28,198,420.42ZM190.17,416l5.39,3.05a.85.85,0,0,0,.76,0l5.13-2.88c.22-.14.23-.3,0-.44l-5.55-3.05a.89.89,0,0,0-.78,0L190,415.52C189.87,415.67,189.91,415.83,190.17,416Zm-7.85-4.47,5.38,3.06a.93.93,0,0,0,.78,0l5.11-2.88c.22-.14.23-.3,0-.44l-5.37-3.05a.88.88,0,0,0-.79,0l-5.11,2.87c-.22.15-.23.31,0,.44ZM174.46,407l5.37,3a.88.88,0,0,0,.79,0l5.11-2.87c.22-.14.23-.31,0-.44l-5.38-3.05a.86.86,0,0,0-.78,0l-5.11,2.87C174.27,406.74,174.26,406.9,174.46,407ZM230,429.51l5.38,3.06a.89.89,0,0,0,.78,0l5.11-2.88c.22-.14.23-.3,0-.44l-5.38-3a.86.86,0,0,0-.78,0L230,429.09c-.18.14-.17.29,0,.42Zm-24.17-4.63,12,6.81a.89.89,0,0,0,.78,0l13.15-7.4c.22-.14.23-.3,0-.44l-6.2-3.52a.86.86,0,0,0-.78,0l-7.32,4.11a.9.9,0,0,1-.78,0l-5-2.81a.87.87,0,0,0-.77,0l-5.13,2.87C205.63,424.58,205.61,424.75,205.81,424.88Zm6.75-21-5.37-3.05a.88.88,0,0,0-.79,0l-5.11,2.88c-.22.14-.23.3,0,.43l5.38,3.06a.86.86,0,0,0,.78,0l5.11-2.87C212.75,404.16,212.76,404,212.56,403.86Zm-7.86-4.46-5.38-3.06a.89.89,0,0,0-.78,0l-5.11,2.87c-.2.15-.18.31.06.44l5.37,3.05a.88.88,0,0,0,.77,0l5.13-2.88c.19-.15.15-.31-.1-.44Zm-85.24-24c-.22.14-.23.3,0,.43l5.38,3.06a.89.89,0,0,0,.78,0l5.07-2.88c.22-.14.23-.3,0-.44l-5.37-3.05a.86.86,0,0,0-.78,0Zm22.35-11.66-5.38-3a.82.82,0,0,0-.76,0l-5.13,2.87c-.19.15-.17.31.06.44L136,367a.86.86,0,0,0,.78,0l5.11-2.87C142.07,364,142,363.84,141.81,363.71Zm-16.44,6c-.22.14-.23.31,0,.44l5.37,3.05a.89.89,0,0,0,.78,0l5.12-2.87c.22-.15.23-.31,0-.45l-5.35-3.05a.9.9,0,0,0-.78,0Zm-9.78,13,5.37,3.05a.87.87,0,0,0,.77,0l5.12-2.88c.21-.15.18-.31-.06-.44l-5.37-3.05a.89.89,0,0,0-.78,0l-5.11,2.88c-.21.14-.19.31,0,.44Zm-7.91-4.91c-.22.14-.23.31,0,.44l5.38,3.06a.89.89,0,0,0,.78,0l5.16-2.88c.22-.14.23-.3,0-.44l-5.37-3.05a.86.86,0,0,0-.78,0Zm42-9.6-5.37-3.05a.92.92,0,0,0-.79,0L138.33,368c-.22.14-.23.3,0,.44l5.37,3a.88.88,0,0,0,.79,0l5.11-2.88C149.81,368.47,149.85,368.31,149.67,368.17ZM189,390.49l-5.37-3.05a.88.88,0,0,0-.79,0l-5.11,2.87c-.22.14-.23.31,0,.44l5.38,3a.9.9,0,0,0,.78,0l5.11-2.88C189.14,390.79,189.15,390.63,189,390.49Zm-31.42-17.84-5.37-3a.86.86,0,0,0-.78,0l-5.12,2.88c-.22.14-.23.3,0,.43l5.38,3.06a.86.86,0,0,0,.78,0l5.2-2.91c.18-.14.16-.29-.06-.42ZM196.81,395l-5.37-3a.9.9,0,0,0-.78,0l-5.11,2.88c-.22.14-.23.3,0,.44l5.37,3.06a.89.89,0,0,0,.78,0l5.11-2.87c.24-.15.25-.32,0-.46ZM181.09,386l-5.38-3a.85.85,0,0,0-.76,0l-5.13,2.88c-.19.14-.17.31.06.44l5.37,3.05a.89.89,0,0,0,.78,0l5.12-2.87c.22-.16.19-.33-.06-.46Zm-7.85-4.46-5.32-3.07a.89.89,0,0,0-.78,0L162,381.35c-.22.14-.23.31,0,.44l5.37,3a.9.9,0,0,0,.78,0l5.12-2.88c.2-.14.19-.3,0-.44Zm-7.86-4.46L160,374.06a.89.89,0,0,0-.78,0l-5.11,2.87c-.2.15-.18.31.06.44l5.37,3.06a.91.91,0,0,0,.77,0l5.13-2.87c.22-.15.2-.33-.06-.46Zm-6.63,21,5.37,3.05a.92.92,0,0,0,.79,0l5.11-2.87c.22-.15.23-.31,0-.45l-5.38-3.05a.9.9,0,0,0-.78,0l-5.11,2.87c-.2.14-.21.3,0,.43Zm115.79,41L269.22,436a.91.91,0,0,0-.77,0l-5.13,2.88c-.22.15-.23.31,0,.45l5.38,3.05a.89.89,0,0,0,.78,0l5.11-2.88c.21-.15.2-.31,0-.44Zm-9.5-5.4-5.39-3.05a.82.82,0,0,0-.76,0l-5.13,2.87c-.19.15-.17.31.06.44l5.37,3.06a.86.86,0,0,0,.78,0l5.11-2.87c.22-.15.2-.32,0-.46Zm17.36,9.86L277,440.51a.86.86,0,0,0-.78,0l-5.11,2.87c-.22.14-.23.31,0,.44l5.38,3.06a.89.89,0,0,0,.78,0l5.18-2.9c.19-.15.18-.31,0-.44ZM211.87,419.2l5.38,3.05a.86.86,0,0,0,.78,0l5.11-2.88c.2-.14.18-.3-.06-.43l-5.37-3.06a.88.88,0,0,0-.79,0l-5.11,2.87c-.18.14-.16.3.06.42Zm78.43,29.26c.22-.14.24-.31,0-.44L285,445a.9.9,0,0,0-.78,0l-5.11,2.87c-.22.15-.23.31,0,.44l5.37,3.06a.89.89,0,0,0,.78,0ZM166.61,402.59l5.38,3.05a.86.86,0,0,0,.78,0l5.11-2.88c.2-.14.18-.3-.06-.43l-5.37-3.06a.84.84,0,0,0-.77,0l-5.13,2.87c-.18.14-.16.3.06.42ZM263,457.3l5.37,3.05a.9.9,0,0,0,.78,0l5.11-2.88c.22-.14.23-.31,0-.44L268.87,454a.9.9,0,0,0-.78,0L263,456.85c-.21.14-.22.3,0,.43Zm.19-9,5.37,3.05a.86.86,0,0,0,.78,0l5.11-2.87c.22-.14.23-.31,0-.44L269.06,445a.86.86,0,0,0-.78,0l-5.11,2.88c-.23.13-.28.29-.12.42Zm19.2,4.65c.2-.15.18-.32-.06-.44l-5.37-3.06a.92.92,0,0,0-.79,0L271,452.32c-.22.14-.24.3,0,.44l5.38,3.05a.86.86,0,0,0,.78,0Zm1.72.93-13.17,7.4c-.18.15-.16.31.06.44l5.38,3.05a.86.86,0,0,0,.78,0l13.15-7.4c.22-.14.23-.3,0-.44l-5.38-3.05a1.43,1.43,0,0,0-1,0Zm-17.42-10.3-5.37-3.05a.89.89,0,0,0-.78,0l-5.11,2.87c-.22.15-.24.31,0,.45l5.39,3.05a.85.85,0,0,0,.76,0l5.13-2.88c.16-.15.12-.31-.13-.44ZM207.51,410l-5.37-3a.89.89,0,0,0-.78,0l-5.11,2.88c-.22.14-.23.3,0,.44l5.37,3.05a.9.9,0,0,0,.78,0l5-2.85c.23-.15.21-.33,0-.47Zm47.67,42.36c-.2.14-.17.31.06.44l5.38,3.05a.89.89,0,0,0,.78,0l4.9-2.87c.22-.15.24-.31,0-.44L261,449.53a.82.82,0,0,0-.76,0Zm-40-37.89-5.37-3.05a.9.9,0,0,0-.78,0L204,414.28c-.22.15-.23.31,0,.44l5.37,3.06a.86.86,0,0,0,.78,0l5.11-2.87C215.42,414.79,215.44,414.62,215.23,414.49Zm-88-34.66c-.2.14-.18.31.06.44l5.38,3.05a.89.89,0,0,0,.78,0l5.11-2.88c.2-.15.18-.31-.06-.43l-5.38-3a.85.85,0,0,0-.76,0Zm17.25-5.49-5.38-3.06a.86.86,0,0,0-.78,0l-5.11,2.87c-.2.15-.18.31.06.44l5.37,3.05a.86.86,0,0,0,.78,0l5.12-2.87C144.78,374.63,144.75,374.47,144.52,374.34Zm-9.34,10.39,5.37,3a.9.9,0,0,0,.78,0l5.11-2.88c.22-.14.24-.3,0-.44L141,381.44a.89.89,0,0,0-.78,0l-5.11,2.88C134.91,384.44,134.94,384.6,135.18,384.73Zm7.86,4.46,5.38,3.05a.89.89,0,0,0,.78,0l5.11-2.88c.22-.14.23-.31,0-.44L149,385.89a.86.86,0,0,0-.78,0l-5.11,2.87c-.22.14-.24.31,0,.45Zm7.86,4.46,5.38,3.05a.85.85,0,0,0,.76,0l5.13-2.88c.19-.14.17-.31-.06-.44l-5.37-3.05a.86.86,0,0,0-.78,0l-5.12,2.87c-.21.15-.2.31,0,.44Zm1.48-14.85L147,375.75a.92.92,0,0,0-.79,0l-5,2.88c-.22.14-.23.31,0,.44l5.38,3.05a.93.93,0,0,0,.78,0l5.11-2.88c.2-.15.18-.31,0-.44Zm7.86,4.46-5.39-3.05a.82.82,0,0,0-.76,0L149,383.05c-.19.15-.16.31.06.44l5.37,3.06a.86.86,0,0,0,.78,0l5.11-2.87c.2-.15.19-.31,0-.44Zm31.42,17.84-5.44-3.05a.92.92,0,0,0-.79,0l-5.11,2.88c-.22.14-.23.31,0,.44l5.38,3.05a.93.93,0,0,0,.78,0l5.11-2.88c.24-.14.28-.31.1-.45Zm-7.86-4.46-5.38-3.05a.86.86,0,0,0-.78,0l-5.11,2.87c-.2.15-.18.31.06.44l5.37,3.05a.88.88,0,0,0,.79,0l5.11-2.87c.2-.15.18-.31-.06-.45Zm15.72,8.93-5.39-3.05a.82.82,0,0,0-.76,0l-5.13,2.88c-.22.14-.23.3,0,.44l5.37,3.06a.88.88,0,0,0,.79,0l5.2-2.89c.18-.14.16-.3,0-.42Zm-31.43-17.85-5.38-3.05a.89.89,0,0,0-.78,0l-5.11,2.87c-.22.15-.23.31,0,.45l5.38,3.05a.89.89,0,0,0,.78,0l5.11-2.88c.22-.14.23-.3,0-.44Zm7.86,4.46-5.37-3.05a.86.86,0,0,0-.78,0L164.69,392c-.22.14-.24.3,0,.43l5.37,3.06a.89.89,0,0,0,.78,0l5.11-2.88c.21-.14.21-.3,0-.44Zm-52.53-5.05,5.37,3.06a.9.9,0,0,0,.78,0l5.11-2.88c.22-.14.23-.3,0-.44l-5.37-3a.86.86,0,0,0-.78,0l-5.12,2.88c-.22.14-.23.3,0,.43Zm5.47-24.59,5.11-2.88c.22-.14.23-.3,0-.44l-5.37-3.05a.89.89,0,0,0-.78,0L122.77,359c-.22.14-.24.31,0,.44l5.37,3.1A.89.89,0,0,0,128.89,362.54Zm-5.15,6.17,5.11-2.88c.22-.14.23-.3,0-.44l-8.28-4.7a.82.82,0,0,0-.76,0l-5.13,2.87c-.21.14-.22.31,0,.44l8.28,4.7a.81.81,0,0,0,.78.05ZM139,358.29l5.11-2.88c.22-.14.23-.3,0-.44l-6.61-3.75a.86.86,0,0,0-.78,0l-5.11,2.87c-.22.14-.24.31,0,.44l6.61,3.76A.93.93,0,0,0,139,358.29Zm5.15,2.88c-.22.14-.23.3,0,.44l5.38,3.05a.86.86,0,0,0,.78,0l5.11-2.88c.22-.14.23-.3,0-.44L150,358.32a.89.89,0,0,0-.78,0Zm-26.32,13.27,5.13-2.88c.19-.14.17-.31-.06-.44l-10.3-5.86a.86.86,0,0,0-.78,0l-5.11,2.87c-.22.14-.23.31,0,.44l10.3,5.87a1,1,0,0,0,.8,0Zm-11.76,2.41,5.11-2.88c.22-.14.23-.3,0-.44l-6.61-3.75a.86.86,0,0,0-.78,0l-5.11,2.88c-.22.14-.23.3,0,.44l6.63,3.75a.92.92,0,0,0,.71,0Zm96.46,17.46c-.22.14-.24.31,0,.44l5.37,3.05a.9.9,0,0,0,.78,0l5.11-2.87c.22-.15.23-.31,0-.45l-5.37-3.05a.86.86,0,0,0-.78,0Zm-15.71-8.92c-.22.14-.23.3,0,.44l5.37,3.05a.89.89,0,0,0,.78,0L198,386c.22-.14.23-.3,0-.44l-5.46-3a.93.93,0,0,0-.78,0ZM151.93,365.6c-.23.14-.24.31,0,.44l5.37,3.06a.82.82,0,0,0,.76,0l5.13-2.87c.2-.15.17-.31-.06-.44l-5.37-3.05a.86.86,0,0,0-.78,0Zm42.69,24.25c-.22.14-.24.3,0,.44l5.38,3.06a.89.89,0,0,0,.78,0l5.11-2.87c.23-.14.24-.31,0-.44L200.52,387a.89.89,0,0,0-.78,0Zm-15.7-8.93c-.22.15-.24.31,0,.45l5.39,3.05a.85.85,0,0,0,.76,0l5.13-2.87c.18-.15.16-.31-.06-.44l-5.37-3.06a.92.92,0,0,0-.79,0Zm-74.2-1.52c.22-.15.23-.31,0-.45l-8.27-4.69a.87.87,0,0,0-.77,0l-5.13,2.88c-.19.14-.17.31.06.44l8.26,4.69a.86.86,0,0,0,.78,0Zm62.91-4.87c-.19.14-.17.31.06.44l5.38,3a.86.86,0,0,0,.78,0l5.11-2.87c.2-.15.18-.31-.06-.44l-5.37-3.05a.87.87,0,0,0-.77,0Zm-7.84-4.42c-.22.14-.23.3,0,.44l5.37,3.05a.86.86,0,0,0,.78,0l5.11-2.87c.22-.14.23-.31,0-.44l-5.37-3.06a.9.9,0,0,0-.78,0Zm90.49,92c.22-.14.23-.31,0-.44L237,454.12a.88.88,0,0,0-.79,0L231.1,457c-.22.14-.23.31,0,.44l13.24,7.52a.89.89,0,0,0,.78,0Zm-17.36-9.86c.18-.15.16-.31-.06-.44l-5.37-3a.88.88,0,0,0-.79,0l-5.11,2.87c-.22.15-.23.31,0,.45l5.39,3.05a.84.84,0,0,0,.77,0ZM131.28,391.6l5.37,3a.89.89,0,0,0,.78,0l5.12-2.87c.22-.15.23-.31,0-.45l-5.39-3.05a.85.85,0,0,0-.76,0l-5.13,2.88C131.08,391.3,131.08,391.46,131.28,391.6Zm85.91,51.69c.22-.15.23-.31,0-.44l-5.37-3.06a.93.93,0,0,0-.78,0L206,442.64c-.22.14-.24.3,0,.44l5.37,3.06a.89.89,0,0,0,.78,0Zm40.95,23.23c.2-.15.18-.31-.06-.44L252.71,463a.89.89,0,0,0-.78,0l-5.12,2.88c-.22.14-.23.3,0,.44l5.37,3.05a.82.82,0,0,0,.76,0Zm2.74,7.33,13.16-7.4c.23-.14.24-.3,0-.44L268.7,463a.86.86,0,0,0-.78,0l-13.15,7.4c-.22.14-.23.31,0,.44l5.37,3.05a.8.8,0,0,0,.76.05Zm-73-47.24c.22-.14.23-.3,0-.44l-6.61-3.75a.86.86,0,0,0-.78,0l-5.11,2.88c-.22.14-.23.3,0,.43l6.61,3.76a.9.9,0,0,0,.78,0Zm19.85,11.26c.22-.14.23-.3,0-.44l-8.39-4.7a.82.82,0,0,0-.76,0l-5.13,2.87c-.23.14-.24.31,0,.44l8.26,4.7a.93.93,0,0,0,.78,0Zm-38-21.6c.2-.14.18-.31-.06-.44l-44.24-25.12a.87.87,0,0,0-.77,0l-5.13,2.87c-.2.15-.18.32.06.45l44.25,25.12a.89.89,0,0,0,.78,0ZM123,389.74c.22-.14.23-.31,0-.44l-6.63-3.76a.87.87,0,0,0-.77,0l-5.13,2.88c-.18.14-.16.31.06.44l6.61,3.76a.88.88,0,0,0,.79,0Zm55.83,31.7c.18-.15.16-.31-.06-.44l-6.61-3.76a.9.9,0,0,0-.78,0l-5.11,2.88c-.22.14-.23.3,0,.44l6.62,3.75a.87.87,0,0,0,.77,0Zm-64.93-36.87c.22-.14.23-.3,0-.44l-6.69-3.75a.93.93,0,0,0-.78,0l-5.11,2.88c-.22.14-.23.3,0,.44l6.61,3.76a.86.86,0,0,0,.78,0ZM197,431.77c.22-.14.23-.31,0-.44l-6.61-3.76a.9.9,0,0,0-.78,0l-5.11,2.88c-.22.14-.23.3,0,.44l6.61,3.76a.86.86,0,0,0,.78,0Zm28.12,16c.22-.14.23-.3,0-.44l-5.39-3.05a.85.85,0,0,0-.76,0l-5.13,2.88c-.19.15-.17.31.06.44l5.37,3.05a.86.86,0,0,0,.78,0Zm22,9.6,5.38,3.05a.86.86,0,0,0,.78,0l5.11-2.87c.22-.15.23-.31,0-.44L253,454a1,1,0,0,0-.79,0l-5.11,2.88c-.24.14-.26.31-.06.45Zm-1.28-18.9,5.39,3.05a.84.84,0,0,0,.77,0l5.09-2.86c.19-.15.17-.31-.06-.44l-5.38-3.06a.93.93,0,0,0-.78,0L245.72,438c-.2.15-.19.32,0,.45Zm-51.63-11.15,15.71,8.92a.86.86,0,0,0,.78,0l5.11-2.87c.23-.14.24-.31,0-.44L200,424a.92.92,0,0,0-.79,0l-5.11,2.88c-.2.15-.18.31.06.44Zm45,25.15c-.23.14-.24.31,0,.44l5.37,3.05a.89.89,0,0,0,.78,0l5.12-2.87c.2-.15.17-.32-.06-.44L245,449.58a.89.89,0,0,0-.76,0Zm8.09-4.09,5.38,3.06a.89.89,0,0,0,.78,0l5.11-2.88c.22-.14.23-.3,0-.44l-5.48-3a.92.92,0,0,0-.79,0l-5.11,2.87c-.16.14-.15.29.05.42Zm-60.93-25.52,5.38,3.06a.93.93,0,0,0,.78,0l5.11-2.88c.22-.14.23-.3,0-.44l-5.38-3.06a.89.89,0,0,0-.78,0l-5.11,2.87C186.15,422.53,186.14,422.69,186.34,422.82Zm35.52,19.76c-.22.14-.24.31,0,.44l5.37,3.05a.9.9,0,0,0,.78,0l5.11-2.87c.22-.15.23-.31,0-.45l-5.44-3a.92.92,0,0,0-.79,0Zm-74.8-42.06,5.37,3.05a.92.92,0,0,0,.79,0l5.11-2.87c.22-.15.23-.31,0-.45l-5.38-3a.9.9,0,0,0-.78,0l-5.11,2.88c-.24.14-.28.3-.1.44Zm7.86,4.46,5.38,3a.82.82,0,0,0,.76,0l5.08-2.87c.2-.15.18-.32-.06-.44l-5.38-3.06a.86.86,0,0,0-.78,0l-5.11,2.87c-.21.15-.19.31,0,.44Zm-15.8-8.91,5.38,3.05a.86.86,0,0,0,.78,0l5.11-2.87c.22-.14.23-.31,0-.44l-5.37-3.05a.92.92,0,0,0-.79,0l-5.11,2.87C138.93,395.77,138.92,395.93,139.12,396.07Zm31.44,17.84,5.37,3a.88.88,0,0,0,.79,0l5.11-2.88c.22-.14.23-.3,0-.43l-5.39-3.06a.84.84,0,0,0-.77,0l-5.13,2.87c-.21.15-.22.31,0,.44Zm-7.86-4.46,5.37,3.05a.9.9,0,0,0,.78,0l5.11-2.87c.22-.15.23-.31,0-.45l-5.37-3a.89.89,0,0,0-.78,0L162.73,409c-.22.14-.23.3,0,.43Zm15.71,8.92,5.37,3.05a.9.9,0,0,0,.78,0l5.11-2.87c.22-.15.23-.31,0-.44l-5.37-3.06a.89.89,0,0,0-.78,0l-5.11,2.88c-.22.14-.23.3,0,.44Zm111.33,23.39c-.22.14-.23.31,0,.44l5.37,3.05a.9.9,0,0,0,.78,0l1.37-.77c.19-.15.17-.31-.06-.44L291.8,441a.86.86,0,0,0-.78,0Zm-42.82-22.19c-.22.15-.23.31,0,.44l5.39,3.06a.88.88,0,0,0,.76,0l5.13-2.88c.2-.15.18-.31-.06-.44l-5.37-3a.93.93,0,0,0-.78,0Zm15.67,8.92c-.23.14-.24.31,0,.44l5.38,3.05a.86.86,0,0,0,.78,0l5.11-2.88c.2-.14.18-.31-.06-.44l-5.25-3.05a.86.86,0,0,0-.78,0Zm-25.3-14.37c-.21.15-.18.31.06.44l5.37,3.05a.86.86,0,0,0,.78,0l5.11-2.88c.23-.14.24-.3,0-.43l-5.37-3.06a.87.87,0,0,0-.77,0ZM254.75,424c-.22.14-.23.3,0,.44l5.37,3a.89.89,0,0,0,.78,0l5.11-2.87c.22-.15.23-.31,0-.45l-5.37-3.05a.9.9,0,0,0-.78,0ZM221.58,405.2c-.21.14-.18.31.06.44l5.37,3.05a.85.85,0,0,0,.76,0l5.13-2.88c.22-.14.23-.31,0-.44l-5.37-3a.89.89,0,0,0-.78,0Zm7.86,4.45c-.22.15-.23.31,0,.45l5.37,3a.92.92,0,0,0,.79,0l5.11-2.87c.22-.15.23-.31,0-.45l-5.38-3.05a.9.9,0,0,0-.78,0ZM274,432.83c-.22.15-.23.31,0,.45l5.38,3.05a.89.89,0,0,0,.78,0l1.35-.77c.22-.14.23-.31,0-.44l-5.37-3a.92.92,0,0,0-.79,0Zm23.56,13.39c-.23.14-.24.31,0,.44l5.37,3a.89.89,0,0,0,.78,0L305,449c.22-.15.23-.31,0-.45l-5.37-3a.9.9,0,0,0-.78,0Zm-10.74,6c-.2.15-.18.31.06.44l5.37,3.05a.87.87,0,0,0,.77,0l5.12-2.87c.23-.15.24-.31,0-.45l-5.37-3.05a.89.89,0,0,0-.78,0Zm-31.93,9.55,5.37,3.05a.89.89,0,0,0,.78,0l5.11-2.88c.22-.14.23-.31,0-.44l-5.37-3.05a.9.9,0,0,0-.78,0l-5.15,2.89c-.22.15-.2.32,0,.45Zm27-24.51c-.23.14-.24.3,0,.44l5.37,3.05a.87.87,0,0,0,.77,0l1.37-.76c.22-.15.23-.31,0-.45L284,436.53a.87.87,0,0,0-.77,0ZM213.73,400.7c-.22.15-.23.31,0,.45l5.38,3.05a.89.89,0,0,0,.78,0l5.11-2.87c.22-.15.23-.31,0-.45l-5.37-3.05a.92.92,0,0,0-.79,0Z"/><polygon class="cls-3" points="139.28 415.55 108.63 433.24 109.72 433.86 162.25 464.18 191.78 447.13 192.89 446.49 139.28 415.55"/><polygon class="cls-3" points="162.25 464.18 191.29 447.42 139.28 417.37 110.21 434.14 162.25 464.18"/><path class="cls-1" d="M338.17,438.78,151.58,331.05a10.72,10.72,0,0,1-4.87-8.43V176.22c0-3.1,1.61-4.38,4.13-5.81s5-2.55,7.69-1L345.12,277.1a10.79,10.79,0,0,1,4.87,8.47V432c0,3.08,0,5.32-2.38,7C345,440.78,342.24,441.53,338.17,438.78Z"/><path class="cls-3" d="M343,436V289.55a9.93,9.93,0,0,0-1.42-4.77l7-4a10,10,0,0,1,1.42,4.79V432c0,3.09,0,5.33-2.38,7-2.59,1.83-5.37,2.57-9.44-.17C340.84,440.33,343,439.1,343,436Z"/><path class="cls-3" d="M338.17,281.18,151.58,173.44c-2.69-1.55-4.87-.29-4.87,2.81V322.67a10.72,10.72,0,0,0,4.87,8.43L338.17,438.78c2.69,1.55,4.87.3,4.87-2.81V289.61A10.79,10.79,0,0,0,338.17,281.18Z"/><path class="cls-3" d="M338.48,291.85V425.23c0,1.86-1.31,2.62-2.92,1.69L155.65,323.08a6.43,6.43,0,0,1-2.92-5.06V184.64c0-1.87,1.31-2.62,2.92-1.69L335.56,286.79A6.51,6.51,0,0,1,338.48,291.85Z"/><path class="cls-7" d="M156.71,183.56V316a6.43,6.43,0,0,0,2.92,5.06L338.48,424.36V291.85a6.51,6.51,0,0,0-2.92-5.06Z"/><path class="cls-17" d="M156.71,183.56V316a6.43,6.43,0,0,0,2.92,5.06L338.48,424.36V291.85a6.51,6.51,0,0,0-2.92-5.06Z"/><g id="Window"><path class="cls-13" d="M167.41,315.93a6,6,0,0,1-1.49-3.72V209.08l162,93.28V405c-.13,2.11-1.32,2.79-3.22,1.84l-156-89.76a5.13,5.13,0,0,1-1.32-1.11Z"/><path class="cls-18" d="M327.54,302.58v102c-.12,2-1.23,2.61-3,1.75l-156-89.83a4.48,4.48,0,0,1-2.22-3.84V209.76l161.22,92.85m.8-.45L165.53,208.4V311.73a7.52,7.52,0,0,0,1.88,4.6,6,6,0,0,0,1.52,1.28l156,89.82c2,1,3.28.28,3.41-2V302.16Z"/><polygon class="cls-7" points="165.53 208.4 165.53 223.12 328.33 316.86 328.33 302.13 165.53 208.4"/><path class="cls-13" d="M267.71,273v3.17a2.24,2.24,0,0,0,1,1.75l50,28.79v-5.53l-50-28.79C268.12,272.11,267.75,272.34,267.71,273Z"/><path class="cls-1" d="M324.12,304.3a2.19,2.19,0,0,1,1,1.74v3.17c0,.68-.4.9-1,.61l-5.38-3.1v-5.53Z"/><path class="cls-13" d="M323.74,308.2l-.59-.86a2.15,2.15,0,0,0,.09-.66,3.79,3.79,0,0,0-.54-1.91,2.83,2.83,0,0,0-.88-1c-.77-.3-1.21.12-1.19,1.12a3.79,3.79,0,0,0,.55,1.9,3.66,3.66,0,0,0,.37.54,2,2,0,0,0,.5.42c.47.24.82.19,1-.13l.6.88.07.08c.12.16.24.2.25.1a.8.8,0,0,0-.19-.47h0Zm-1.92-1.06a1.33,1.33,0,0,1-.42-.49,2.44,2.44,0,0,1-.33-1.27c0-.83.36-1.17,1-.94a.67.67,0,0,1,.26.21,1.45,1.45,0,0,1,.16.18,2.58,2.58,0,0,1,.33,1.28c0,.88-.35,1.25-1,1Z"/><path class="cls-3" d="M165.53,201.27c.13-2.24,1.39-3,3.4-2l156,89.84a7.55,7.55,0,0,1,3.41,5.93v7.13L165.53,208.4Z"/><path class="cls-7" d="M308.18,283.72c-.94-.47-1.54-.13-1.6.93a3.54,3.54,0,0,0,1.6,2.76c.93.44,1.51.08,1.55-1A3.4,3.4,0,0,0,308.18,283.72Z"/><path class="cls-7" d="M313.74,286.91c-.94-.47-1.53-.12-1.59.93a3.51,3.51,0,0,0,1.59,2.75c.94.48,1.53.14,1.6-.91A3.46,3.46,0,0,0,313.74,286.91Z"/><ellipse class="cls-7" cx="319.36" cy="292.03" rx="1.31" ry="2.25" transform="translate(-103.26 198.95) rotate(-30.02)"/><path class="cls-19" d="M167.41,315.93a6,6,0,0,1-1.49-3.72V223.85l31.14,17.89v91.63l-28.33-16.28a5.13,5.13,0,0,1-1.32-1.11Z"/><path class="cls-18" d="M196.67,242v90.72l-28.13-16.19a4.48,4.48,0,0,1-2.22-3.84V224.49L196.67,242m.79-.45-31.93-18.37v88.6a7.52,7.52,0,0,0,1.88,4.6,6,6,0,0,0,1.52,1.28L197.46,334Z"/><path class="cls-18" d="M176.12,236.61l15.28,8.79a2.19,2.19,0,0,1,1,1.74v1.33c0,.67-.4.9-1,.61l-15.28-8.79a2.17,2.17,0,0,1-1-1.74v-1.32C175.16,236.55,175.53,236.32,176.12,236.61Z"/><path class="cls-7" d="M171.91,235.35v1.33c0,.67-.4.9-1,.6l-1.15-.65a2.22,2.22,0,0,1-1-1.75v-1.33c0-.67.41-.9,1-.61l1.15.66A2.22,2.22,0,0,1,171.91,235.35Z"/><path class="cls-18" d="M176.12,243.93l15.28,8.79a2.19,2.19,0,0,1,1,1.75v1.32c0,.67-.4.9-1,.61l-15.28-8.79a2.16,2.16,0,0,1-1-1.74v-1.32C175.16,243.87,175.53,243.64,176.12,243.93Z"/><path class="cls-7" d="M171.91,242.69V244c0,.67-.4.9-1,.6l-1.15-.65a2.22,2.22,0,0,1-1-1.75v-1.33c0-.67.41-.9,1-.61l1.15.66A2.2,2.2,0,0,1,171.91,242.69Z"/><path class="cls-18" d="M176.12,251.27l15.28,8.79a2.21,2.21,0,0,1,1,1.75v1.32c0,.67-.4.9-1,.61L176.12,255a2.15,2.15,0,0,1-1-1.73v-1.33C175.16,251.22,175.53,251,176.12,251.27Z"/><path class="cls-7" d="M171.91,250v1.33c0,.67-.4.9-1,.6l-1.15-.65a2.22,2.22,0,0,1-1-1.75v-1.33c0-.67.41-.9,1-.61l1.15.66A2.23,2.23,0,0,1,171.91,250Z"/><path class="cls-18" d="M176.12,275.61l15.28,8.79a2.21,2.21,0,0,1,1,1.75v1.33c0,.67-.4.9-1,.6l-15.28-8.78a2.19,2.19,0,0,1-1-1.74v-1.33C175.16,275.56,175.53,275.33,176.12,275.61Z"/><path class="cls-7" d="M171.91,274.37v1.33c0,.67-.4.9-1,.61l-1.15-.66a2.22,2.22,0,0,1-1-1.75v-1.33c0-.67.41-.9,1-.6l1.15.65A2.3,2.3,0,0,1,171.91,274.37Z"/><path class="cls-18" d="M176.12,282.11l15.28,8.79a2.21,2.21,0,0,1,1,1.75V294c0,.67-.4.9-1,.6l-15.28-8.78a2.19,2.19,0,0,1-1-1.74v-1.33C175.16,282.06,175.53,281.83,176.12,282.11Z"/><path class="cls-7" d="M171.91,280.87v1.33c0,.67-.4.9-1,.61l-1.15-.66a2.21,2.21,0,0,1-1-1.75v-1.28c0-.67.41-.9,1-.6l1.15.65A2.07,2.07,0,0,1,171.91,280.87Z"/><path class="cls-18" d="M176.12,288.61l15.28,8.79a2.22,2.22,0,0,1,1,1.75v1.33c0,.67-.4.9-1,.61l-15.28-8.79a2.19,2.19,0,0,1-1-1.74v-1.33C175.16,288.56,175.53,288.33,176.12,288.61Z"/><path class="cls-7" d="M171.91,287.37v1.33c0,.67-.4.9-1,.61l-1.15-.66a2.21,2.21,0,0,1-1-1.75v-1.32c0-.67.4-.9,1-.61l1.15.65A2.3,2.3,0,0,1,171.91,287.37Z"/><polygon class="cls-7" points="175.1 258.11 175.1 260.4 177.09 260.4 175.1 258.11"/><path class="cls-18" d="M178.3,261.31a1.53,1.53,0,0,0,.68,1.17l12.76,7.37c.4.2.66,0,.68-.39a1.47,1.47,0,0,0-.68-1.16L179,260.9C178.57,260.69,178.31,260.84,178.3,261.31Z"/><polygon class="cls-7" points="175.1 261.79 175.1 264.09 177.09 264.08 175.1 261.79"/><path class="cls-18" d="M178.3,265a1.5,1.5,0,0,0,.68,1.17l12.76,7.38c.4.2.66,0,.68-.39a1.47,1.47,0,0,0-.68-1.17L179,264.62C178.58,264.42,178.33,264.56,178.3,265Z"/><polygon class="cls-7" points="175.1 265.48 175.1 267.77 177.09 267.77 175.1 265.48"/><path class="cls-18" d="M178.3,268.68a1.5,1.5,0,0,0,.68,1.16l12.76,7.38c.4.2.66,0,.68-.39a1.48,1.48,0,0,0-.68-1.17L179,268.3C178.58,268.1,178.33,268.24,178.3,268.68Z"/><polygon class="cls-7" points="175.1 269.16 175.1 271.45 177.09 271.45 175.1 269.16"/><path class="cls-18" d="M178.3,272.36a1.53,1.53,0,0,0,.68,1.17l12.76,7.37c.4.2.66.05.68-.39a1.5,1.5,0,0,0-.68-1.17L179,272C178.58,271.78,178.32,271.92,178.3,272.36Z"/><path class="cls-7" d="M207,258.71V277.9a2.76,2.76,0,0,0,1.26,2.18l21.12,12.15c.76.39,1.23.12,1.28-.72V275.75a2.79,2.79,0,0,0-1.26-2.19l-12.25-7a2.79,2.79,0,0,1-1.26-2.19v-.5a2.8,2.8,0,0,0-1.26-2.18L208.31,258C207.56,257.61,207.08,257.88,207,258.71Z"/><path class="cls-18" d="M211.19,286.31v1.23a2.08,2.08,0,0,0,.94,1.63L228,298.29c.57.31.95.13,1-.49v-1.23a2.21,2.21,0,0,0-1-1.69l-15.84-9.12C211.57,285.48,211.22,285.69,211.19,286.31Z"/><path class="cls-7" d="M236.39,275.7v19.19a2.78,2.78,0,0,0,1.26,2.18l21.12,12.16c.75.37,1.21.1,1.26-.72V292.72a2.8,2.8,0,0,0-1.26-2.18l-12.25-7.06a2.76,2.76,0,0,1-1.26-2.18v-.5a2.77,2.77,0,0,0-1.26-2.18L237.69,275C236.93,274.62,236.45,274.88,236.39,275.7Z"/><path class="cls-18" d="M240.54,303.3v1.23a2.22,2.22,0,0,0,1,1.7l15.84,9.12c.56.27.91.06.94-.56v-1.23a2,2,0,0,0-.94-1.62l-15.89-9.18C240.93,302.47,240.58,302.67,240.54,303.3Z"/><path class="cls-7" d="M207,297.24v19.19a2.76,2.76,0,0,0,1.26,2.18l21.12,12.16c.74.37,1.21.1,1.26-.74V314.28a2.79,2.79,0,0,0-1.26-2.18l-12.25-7.05a2.75,2.75,0,0,1-1.26-2.17v-.51a2.77,2.77,0,0,0-1.26-2.17l-6.35-3.66C207.56,296.17,207.09,296.43,207,297.24Z"/><path class="cls-18" d="M211.19,324.88v1.23a2.06,2.06,0,0,0,.94,1.62L228,336.85c.58.32.95.13,1-.49v-1.23a2.21,2.21,0,0,0-1-1.69l-15.84-9.12C211.57,324,211.22,324.25,211.19,324.88Z"/><path class="cls-7" d="M236.39,314.26v19.19a2.77,2.77,0,0,0,1.26,2.18l21.12,12.16c.75.38,1.22.11,1.26-.72V331.34a2.8,2.8,0,0,0-1.26-2.19l-12.25-7.06a2.76,2.76,0,0,1-1.26-2.18v-.5a2.74,2.74,0,0,0-1.26-2.17l-6.31-3.66C236.93,313.18,236.45,313.44,236.39,314.26Z"/><path class="cls-18" d="M240.54,341.87v1.23a2.2,2.2,0,0,0,1,1.7l15.84,9.12c.56.27.91.07.94-.56v-1.23a2.06,2.06,0,0,0-.94-1.62l-15.84-9.12C241,341.07,240.59,341.25,240.54,341.87Z"/><path class="cls-7" d="M266.1,292.17v19.16a2.77,2.77,0,0,0,1.26,2.18l21.12,12.16c.75.37,1.21.1,1.26-.73V309.19a2.77,2.77,0,0,0-1.26-2.18l-12.26-7a2.79,2.79,0,0,1-1.26-2.18v-.51a2.75,2.75,0,0,0-1.26-2.17l-6.34-3.65C266.63,291.12,266.16,291.37,266.1,292.17Z"/><path class="cls-18" d="M269.91,320.3v1.23a2.08,2.08,0,0,0,.94,1.63l15.87,9.16c.56.27.91.07.95-.55v-1.23a2.11,2.11,0,0,0-.95-1.64l-15.87-9.1C270.31,319.53,270,319.71,269.91,320.3Z"/><path class="cls-7" d="M295.12,309.68v19.2a2.82,2.82,0,0,0,1.26,2.19l21.12,12.16c.74.36,1.21.09,1.26-.73V326.71a2.75,2.75,0,0,0-1.26-2.17l-12.26-7.09a2.82,2.82,0,0,1-1.26-2.19v-.5a2.79,2.79,0,0,0-1.26-2.18l-6.34-3.65C295.63,308.55,295.16,308.84,295.12,309.68Z"/><path class="cls-18" d="M299.27,337.29v1.27a2.22,2.22,0,0,0,1,1.7l15.84,9.11c.55.28.9.08.94-.54v-1.27a2.1,2.1,0,0,0-.94-1.64l-15.84-9.12C299.69,336.49,299.32,336.67,299.27,337.29Z"/><path class="cls-18" d="M269.91,358.85v1.23a2,2,0,0,0,.94,1.62l15.87,9.16c.56.28.91.08.95-.54v-1.23a2.11,2.11,0,0,0-.95-1.64l-15.84-9.12C270.31,358,270,358.23,269.91,358.85Z"/><path class="cls-20" d="M270.3,332.32l16.42,9.45a3,3,0,0,1,1.36,2.36v19c-.05.89-.56,1.18-1.36.78l-16.43-9.46a3,3,0,0,1-1.36-2.35v-19C269,332.2,269.49,331.91,270.3,332.32Z"/><path class="cls-7" d="M276.43,333,272,331c-1-.4-1.6-.11-1.66.77v4.12a2.85,2.85,0,0,0,1.66,2.29l4.47,2.06c1,.39,1.6.11,1.67-.77v-4.13A3,3,0,0,0,276.43,333Z"/><path class="cls-21" d="M271.56,346.86l13.67,7.88a1.55,1.55,0,0,1,.68,1.17v.25c0,.46-.28.6-.68.4l-13.68-7.88a1.56,1.56,0,0,1-.68-1.17v-.28C270.9,346.79,271.16,346.65,271.56,346.86Z"/><path class="cls-21" d="M271.56,350.54l13.67,7.84a1.55,1.55,0,0,1,.68,1.17v.26c0,.46-.28.6-.68.4l-13.68-7.88a1.58,1.58,0,0,1-.68-1.18v-.27C270.91,350.46,271.17,350.33,271.56,350.54Z"/><path class="cls-21" d="M271.56,339.86l13.67,7.88a1.55,1.55,0,0,1,.68,1.17v.25c0,.46-.28.6-.68.4l-13.68-7.88a1.56,1.56,0,0,1-.68-1.17v-.28C270.9,339.79,271.16,339.65,271.56,339.86Z"/><path class="cls-21" d="M271.56,343.54l13.67,7.84a1.55,1.55,0,0,1,.68,1.17v.26c0,.46-.28.6-.68.4l-13.68-7.88a1.58,1.58,0,0,1-.68-1.18v-.27C270.91,343.46,271.17,343.33,271.56,343.54Z"/><path class="cls-18" d="M298.64,375.38v1.23a2.1,2.1,0,0,0,.94,1.64l15.85,9.13c.55.27.9.06.94-.56v-1.23a2,2,0,0,0-.94-1.62l-15.85-9.13C299,374.56,298.67,374.76,298.64,375.38Z"/><path class="cls-20" d="M299,348.87l16.43,9.45a3,3,0,0,1,1.36,2.36v19c-.05.9-.56,1.19-1.36.78L299,371a3,3,0,0,1-1.36-2.36v-19C297.73,348.75,298.23,348.46,299,348.87Z"/><path class="cls-21" d="M300.29,363.4,314,371.27a1.62,1.62,0,0,1,.69,1.2v.26c0,.45-.29.59-.69.37l-13.67-7.86a1.57,1.57,0,0,1-.68-1.18v-.27C299.63,363.34,299.88,363.19,300.29,363.4Z"/><path class="cls-21" d="M300.29,367.08,314,375a1.6,1.6,0,0,1,.69,1.19v.27c0,.45-.29.59-.69.37l-13.67-7.86a1.57,1.57,0,0,1-.68-1.18v-.27C299.63,367,299.88,366.87,300.29,367.08Z"/><path class="cls-21" d="M300.29,355.4,314,363.27a1.62,1.62,0,0,1,.69,1.2v.26c0,.45-.29.59-.69.37l-13.67-7.86a1.57,1.57,0,0,1-.68-1.18v-.27C299.63,355.34,299.88,355.19,300.29,355.4Z"/><path class="cls-21" d="M300.29,359.08,314,367a1.6,1.6,0,0,1,.69,1.19v.27c0,.45-.29.59-.69.37l-13.67-7.86a1.57,1.57,0,0,1-.68-1.18v-.27C299.63,359,299.88,358.87,300.29,359.08Z"/><path class="cls-7" d="M306.43,349,302,347c-1-.4-1.6-.11-1.66.77v4.12a2.85,2.85,0,0,0,1.66,2.29l4.47,2.06c1,.39,1.6.11,1.67-.77v-4.13A3,3,0,0,0,306.43,349Z"/></g></g></g><g id="Graph"><polygon class="cls-22" points="251.87 457.92 123.97 384.63 145.77 372.13 273.67 445.43 251.87 457.92"/><polygon class="cls-10" points="161.48 381.15 139.69 393.64 136.4 301.41 139.69 296.75 161.48 284.26 161.48 381.15"/><polygon class="cls-10" points="139.69 296.75 131.82 298.34 123.97 287.74 145.76 275.25 161.48 284.26 139.69 296.75"/><polygon class="cls-23" points="139.69 393.64 123.97 384.63 123.97 287.74 139.69 296.75 139.69 393.64"/><polygon class="cls-10" points="189.53 397.22 167.74 409.71 164.44 369.39 167.74 325.86 189.53 313.37 189.53 397.22"/><polygon class="cls-10" points="167.74 325.86 159.88 327.44 152.01 316.85 173.81 304.36 189.53 313.37 167.74 325.86"/><polygon class="cls-7" points="167.74 409.71 152.01 400.7 152.01 316.85 167.74 325.86 167.74 409.71"/><polygon class="cls-10" points="217.58 413.29 195.78 425.79 192.49 359.28 195.78 354.62 217.58 342.12 217.58 413.29"/><polygon class="cls-10" points="195.78 354.62 187.92 356.2 180.06 345.61 201.86 333.12 217.58 342.12 195.78 354.62"/><polygon class="cls-7" points="195.78 425.79 180.06 416.77 180.06 345.61 195.78 354.62 195.78 425.79"/><polygon class="cls-10" points="245.62 429.36 223.82 441.86 220.53 416.28 223.82 384.29 245.62 371.8 245.62 429.36"/><polygon class="cls-10" points="223.82 384.29 215.96 385.86 208.11 375.27 229.91 362.79 245.62 371.8 223.82 384.29"/><polygon class="cls-7" points="223.82 441.86 208.11 432.84 208.11 375.27 223.82 384.29 223.82 441.86"/><polygon class="cls-10" points="273.67 445.43 251.87 457.92 248.58 440.54 251.87 408.56 273.67 396.06 273.67 445.43"/><polygon class="cls-10" points="251.87 408.56 244.01 410.13 236.15 399.54 257.95 387.05 273.67 396.06 251.87 408.56"/><polygon class="cls-7" points="251.87 457.92 236.15 448.92 236.15 399.54 251.87 408.56 251.87 457.92"/><polygon class="cls-7" points="125.08 283.68 131.55 279.98 151.04 264.48 126.28 255.74 125.08 283.68"/><polygon class="cls-10" points="144.58 268.18 151.04 264.48 124.45 246.39 117.98 250.1 132.9 265.56 144.58 268.18"/><polygon class="cls-10" points="204.88 330.52 211.35 326.82 163.56 299.42 152.87 303.13 177.85 319.05 204.88 330.52"/><polygon class="cls-10" points="157.09 303.13 163.56 299.42 144 270.07 137.53 273.79 146.23 292.11 157.09 303.13"/><polygon class="cls-10" points="242.04 386.26 248.51 382.56 211.35 326.82 204.88 330.52 215.97 354.78 242.04 386.26"/><polygon class="cls-10" points="289.83 423.94 296.29 420.23 296.3 409.94 288.29 411.41 285.54 414.53 289.83 423.94"/><polygon class="cls-10" points="289.83 413.65 296.3 409.94 248.51 382.56 242.04 386.26 262.8 402.18 289.83 413.65"/><polygon class="cls-23" points="117.98 250.1 144.58 268.18 137.53 273.79 157.09 303.13 204.88 330.52 242.04 386.26 289.83 413.65 289.83 423.94 238.87 394.72 201.7 338.98 153.92 311.6 131.77 278.37 125.08 283.68 117.98 250.1"/></g><g id="Rob"><path class="cls-24" d="M303.53,349.29s-1.07-4.41-1.65-4.62a70.09,70.09,0,0,0-7.5.78s-2.25-3.14-2.6-3.55-1.08.62-.84,1.09,1.88,5.05,2.91,5.2a24.17,24.17,0,0,0,3.61,0l.84,2.81Z"/><path class="cls-1" d="M339.57,504.64c37.2,10.63,57.6-18.43,32.58-26.36C332.9,465.88,316.38,498.08,339.57,504.64Z"/><path class="cls-6" d="M345.46,483.43l0,0a.18.18,0,0,1,0,.27.17.17,0,0,1-.17,0,.19.19,0,0,1-.08-.25.19.19,0,0,1,.25-.07"/><path class="cls-7" d="M318.7,365.47l18.46,3.14-1,9.05s-21.66-3.06-23.88-5.52-12.93-17.74-12.93-17.74l6.86-3.08Z"/><path class="cls-6" d="M313.22,372.46a6.26,6.26,0,0,1,.17-1,7.22,7.22,0,0,1,.49-1.49,9.3,9.3,0,0,1,.95-1.65,8.7,8.7,0,0,1,1.3-1.41,9.65,9.65,0,0,1,1.25-.93,6.29,6.29,0,0,1,.94-.46,1.55,1.55,0,0,1,.36-.13s-.49.26-1.22.73a9.91,9.91,0,0,0-1.19.95,10.34,10.34,0,0,0-1.25,1.4,9.36,9.36,0,0,0-.94,1.62,8.8,8.8,0,0,0-.54,1.4,13.13,13.13,0,0,0-.32,1.41A1.34,1.34,0,0,1,313.22,372.46Z"/><path class="cls-6" d="M315.34,369.54l1.92.46c1.63.36,3.87.89,6.37,1.41s4.76.94,6.41,1.24L332,373a5.62,5.62,0,0,1,.71.16H332c-.46,0-1.13-.14-2-.27-1.65-.24-3.92-.65-6.42-1.17s-4.75-1.08-6.37-1.51l-1.89-.55a2.82,2.82,0,0,1-.69-.24A5.42,5.42,0,0,1,315.34,369.54Z"/><path class="cls-6" d="M310.82,359.33c3.47,3.93,6.23,7.19,6.19,7.19s-2.89-3.1-6.36-7-6.2-7.18-6.2-7.18S307.35,355.39,310.82,359.33Z"/><path class="cls-6" d="M313.16,363.19a.2.2,0,0,1,.08.19.2.2,0,0,1-.23.16.2.2,0,0,1-.16-.22l0-.07a.19.19,0,0,1,.27-.07"/><path class="cls-6" d="M324.37,370.43a.12.12,0,0,1,.05.05.19.19,0,0,1-.05.27.17.17,0,0,1-.17,0,.18.18,0,0,1-.07-.25.17.17,0,0,1,.24-.07"/><path class="cls-6" d="M319,369.27l0,0a.22.22,0,0,1,0,.3.23.23,0,0,1-.2,0,.2.2,0,0,1,.2-.34"/><path class="cls-6" d="M310,359.75a.12.12,0,0,1,0,.05.18.18,0,0,1,0,.27H310a.19.19,0,0,1-.2-.19.14.14,0,0,1,0-.06.19.19,0,0,1,.26-.09"/><path class="cls-6" d="M306.88,356.11a.2.2,0,0,1,.08.19.2.2,0,0,1-.23.16.2.2,0,0,1-.16-.22l0-.07a.19.19,0,0,1,.27-.07"/><g class="cls-25"><path class="cls-6" d="M326.16,366.83c3.48.56,6.26,1.29,6.21,1.6s-3,.11-6.39-.45-6.23-1.28-6.23-1.6S322.67,366.27,326.16,366.83Z"/></g><path class="cls-6" d="M329.05,371.31l0,0a.19.19,0,0,1,0,.28.17.17,0,0,1-.17,0,.19.19,0,0,1-.08-.25.18.18,0,0,1,.25-.07"/><path class="cls-26" d="M337.47,379.63a10.21,10.21,0,0,1-4.77-5.16,6.21,6.21,0,0,1,1.06-5.62,4.91,4.91,0,0,1,5.29-1.56"/><path class="cls-27" d="M337,379a7.93,7.93,0,0,1-1.06-1.11,6.76,6.76,0,0,1-1.13-2,7.24,7.24,0,0,1-.29-2.81,9.53,9.53,0,0,1,1.68-4.78,3.34,3.34,0,0,1,1.08-1.1,2,2,0,0,1,.41-.14h.16a1.87,1.87,0,0,0-.52.23,3.54,3.54,0,0,0-1,1.11,10,10,0,0,0-1.59,4.69,6.56,6.56,0,0,0,1.32,4.69,11.12,11.12,0,0,0,1.41,1.56A4,4,0,0,1,337,379Z"/><path class="cls-26" d="M306.17,351.32a1.72,1.72,0,0,0,.57-1.94,2,2,0,0,0-1.53-1.31,4.44,4.44,0,0,0-2.08.17,10.5,10.5,0,0,0-4.91,3.08,3.7,3.7,0,0,0-1,1.64,1.7,1.7,0,0,0,.56,1.72c.72.52,1.72.17,2.52-.2a46.91,46.91,0,0,0,5.83-3.16"/><path class="cls-27" d="M297.71,353.48a6.32,6.32,0,0,1,.62-1,7.94,7.94,0,0,1,6.7-3.31,7.36,7.36,0,0,1,1.15.13,1.85,1.85,0,0,1,.42.11c0,.05-.6-.07-1.59-.07a8.47,8.47,0,0,0-6.56,3.19,11.37,11.37,0,0,0-.9,1.29A1.58,1.58,0,0,1,297.71,353.48Z"/><path class="cls-26" d="M344.42,401.21c.8.22,1.76.45,2.81.66a34,34,0,0,0,3.47.46c1.25,0,2.49.06,3.51,0s2-.14,2.81-.25a9.44,9.44,0,0,1,2.7-.24c0,.14-.9.63-2.54,1.05a21.16,21.16,0,0,1-2.95.51,25,25,0,0,1-3.67,0,25.85,25.85,0,0,1-3.61-.58,18.54,18.54,0,0,1-2.81-.94,6.18,6.18,0,0,1-2.37-1.4C341.85,400.32,342.82,400.66,344.42,401.21Z"/><path class="cls-26" d="M350.49,404c4.47.35,8.13,0,8.16.17s-.86.48-2.34.73A25.38,25.38,0,0,1,344.6,404c-1.44-.48-2.22-.93-2.22-1.07C342.47,402.61,346,403.61,350.49,404Z"/><path class="cls-7" d="M337,349.35a13.06,13.06,0,0,0,0,2.34c.38,6.61,5.28,9.8,11.84,10.74,3.09.45,6.38.92,8,1.13,3.67.47,16.14,2.69,16.31-10.53s-14.57-15.94-14.57-15.94C344.46,333.9,338,342.33,337,349.35Z"/><path class="cls-26" d="M339.81,346h0a3.67,3.67,0,0,1,4.33-2.81l18.84,4h0a3.64,3.64,0,0,1,2.79,4.32h0v0a3.64,3.64,0,0,1-4.32,2.79l-18.84-4A3.66,3.66,0,0,1,339.81,346Z"/><circle class="cls-6" cx="358.92" cy="350.36" r="1.17"/><circle class="cls-6" cx="345.76" cy="347.57" r="1.17"/><path class="cls-6" d="M352.85,343.68c.08-.24.21-.59.38-1a11.07,11.07,0,0,1,1.8-3.08,6.29,6.29,0,0,1,3-2.08,4.83,4.83,0,0,1,1.07-.21,1.27,1.27,0,0,1,.39,0,9.55,9.55,0,0,0-1.4.35,6.61,6.61,0,0,0-2.81,2.08,12.69,12.69,0,0,0-1.83,3,11.37,11.37,0,0,1-.63,1.32A1,1,0,0,1,352.85,343.68Z"/><path class="cls-6" d="M352,362.69c-.26-.28-.5-.56-.73-.86a7.67,7.67,0,0,1-1.4-3.43,12.68,12.68,0,0,1,.1-3.69l.23-1.1a1.63,1.63,0,0,1,.13-.39,9.61,9.61,0,0,1-.2,1.51,13.86,13.86,0,0,0,0,3.64,8.19,8.19,0,0,0,1.3,3.36,12.77,12.77,0,0,0,.91,1.21A1.92,1.92,0,0,1,352,362.69Z"/><g class="cls-25"><path d="M341.41,359.83a18.31,18.31,0,0,0,6.54,2.48s8.17,1.41,12.13,1.68a14.46,14.46,0,0,0,6-.55,7.21,7.21,0,0,0-2.53-3c-3.75-2.81-8.48-3.9-13.1-4.6a29.89,29.89,0,0,0-6.05-.41,11.8,11.8,0,0,0-5.74,1.75A10.24,10.24,0,0,0,341.41,359.83Z"/></g><path class="cls-6" d="M338.53,346.35a4.31,4.31,0,0,0,.22,1.95,4.48,4.48,0,0,0,2,2.35,13.4,13.4,0,0,0,3.94,1.29l10.67,2.27,3.09.66c1.05.23,2.12.5,3.21.64a4.93,4.93,0,0,0,3.22-.54,4.65,4.65,0,0,0,2-2.57,4.54,4.54,0,0,0-.4-3.31,4.87,4.87,0,0,0-2.4-2.21,9.43,9.43,0,0,0-1.57-.46l-1.59-.37-3.06-.73-5.62-1.4c-1.78-.4-3.41-.9-4.93-1.21a14.69,14.69,0,0,0-2.18-.32,8,8,0,0,0-1.95,0,6,6,0,0,0-2.81,1.15,4.52,4.52,0,0,0-1.27,1.51c-.19.41-.28.64-.28.64v-.17A2.82,2.82,0,0,1,339,345a4.44,4.44,0,0,1,1.25-1.57,6.21,6.21,0,0,1,2.9-1.21,7.37,7.37,0,0,1,2,0,16.36,16.36,0,0,1,2.2.29c1.53.31,3.16.82,4.95,1.2l5.62,1.32,3.07.71,1.59.38a8.9,8.9,0,0,1,1.6.47,5.2,5.2,0,0,1,2.53,2.3,4.77,4.77,0,0,1-1.67,6.31,5,5,0,0,1-3.36.56c-1.12-.14-2.19-.42-3.25-.63l-3.07-.68-10.66-2.33a12.79,12.79,0,0,1-4-1.4,4.65,4.65,0,0,1-2-2.46,4.44,4.44,0,0,1-.18-2,3.17,3.17,0,0,1,.17-.69S338.6,345.87,338.53,346.35Z"/><path class="cls-6" d="M370.13,353.6c-1.59-.79-3-1.14-3-1.23a3.36,3.36,0,0,1,.94.2,12.7,12.7,0,0,1,2.15.82,14.3,14.3,0,0,1,2,1.2,3.37,3.37,0,0,1,.72.64C372.88,355.28,371.72,354.38,370.13,353.6Z"/><path class="cls-6" d="M357.58,338.94a.2.2,0,0,1,.08.08.19.19,0,0,1-.08.25.25.25,0,0,1-.17,0,.19.19,0,0,1,.17-.33"/><path class="cls-6" d="M355.21,342.34l.05.05a.21.21,0,0,1-.05.28h-.06a.19.19,0,0,1-.19-.2.43.43,0,0,1,0-.05.2.2,0,0,1,.27-.09"/><path class="cls-6" d="M369.38,351.94l0,0a.21.21,0,0,1,0,.3h-.06a.19.19,0,0,1-.2-.19.14.14,0,0,1,0-.07.19.19,0,0,1,.27-.07"/><path class="cls-6" d="M372.31,353.58l0,0a.2.2,0,0,1,0,.29h-.07a.19.19,0,0,1-.19-.2l0-.09a.19.19,0,0,1,.26-.05"/><g class="cls-25"><path class="cls-6" d="M358.15,337.72a28,28,0,0,1,3.79,1.15,19.38,19.38,0,0,1,4.33,2.31,14.91,14.91,0,0,1,3.48,3.52,11.76,11.76,0,0,1,1.7,3.66,8.39,8.39,0,0,1,.28,2.69c0,.65,0,1-.22,1s-.12-1.41-.85-3.43a12.81,12.81,0,0,0-1.79-3.29,15.7,15.7,0,0,0-3.26-3.2,27.48,27.48,0,0,0-7.65-3.6,14.24,14.24,0,0,1-3.4-1.22A9.7,9.7,0,0,1,358.15,337.72Z"/></g><g class="cls-25"><path class="cls-6" d="M369.55,356.88c.54-.73,1-1.32,1.34-1.22s.25,1-.38,1.9-1.48,1.22-1.67,1S369,357.61,369.55,356.88Z"/></g><path class="cls-7" d="M369.78,369.4a80.15,80.15,0,0,1-1.41,14.16,26.87,26.87,0,0,1-6.19,12.65,16.36,16.36,0,0,1-12.65,5.43,12.4,12.4,0,0,1-9.83-5.83c-1.81-3.05-2.06-6.74-2.18-10.28-.18-6.62-.24-19.57.65-19.82C354.49,361.1,369.78,369.4,369.78,369.4Z"/><g class="cls-28"><path d="M368.94,371.21a59.93,59.93,0,0,1-3,8.43,19.68,19.68,0,0,1-5.29,7.12,49.65,49.65,0,0,1-4.34,2.9,14.48,14.48,0,0,0-3.94,3.37,6.38,6.38,0,0,0-1.32,4.87c.32,1.72,1.31,3.78,3,3.29A13,13,0,0,0,357,400.1a21.4,21.4,0,0,0,3.11-2,22.89,22.89,0,0,0,7-10,34.87,34.87,0,0,0,2-12.48"/></g><path class="cls-6" d="M358.15,393.33s0,0,0,0a.21.21,0,0,1,0,.3h-.07a.2.2,0,0,1-.2-.19.24.24,0,0,1,0-.08.2.2,0,0,1,.27-.06"/><path class="cls-6" d="M352.43,393.1l0,0a.2.2,0,0,1,0,.29.17.17,0,0,1-.14,0,.18.18,0,0,1-.1-.24.18.18,0,0,1,.24-.09"/><path class="cls-6" d="M346.13,387.17l0,0a.2.2,0,0,1,0,.29l-.06,0a.2.2,0,0,1-.2-.2.19.19,0,0,1,0-.07.21.21,0,0,1,.27-.07"/><path class="cls-6" d="M349,372.55l0,0a.2.2,0,0,1,0,.28H349a.2.2,0,0,1-.2-.2.19.19,0,0,1,0-.07.21.21,0,0,1,.27-.07"/><path class="cls-6" d="M343.13,374.94l.05,0a.2.2,0,0,1-.05.28H343a.17.17,0,0,1-.16-.19.13.13,0,0,1,0-.06.21.21,0,0,1,.27-.08"/><path class="cls-6" d="M364.65,391.64l0,0a.19.19,0,0,1,0,.28h-.07a.2.2,0,0,1-.2-.19l0-.08a.19.19,0,0,1,.27-.06"/><path class="cls-6" d="M365.59,386.76l.05.05a.2.2,0,0,1-.05.28h-.06a.2.2,0,0,1-.19-.21s0,0,0-.05a.19.19,0,0,1,.26-.09"/><path class="cls-6" d="M366,382.35l0,0a.22.22,0,0,1,0,.3H366a.2.2,0,0,1-.21-.2.14.14,0,0,1,0-.07.19.19,0,0,1,.27-.07"/><path class="cls-6" d="M366.43,377.66l0,0a.2.2,0,0,1,0,.29l-.06,0a.2.2,0,0,1-.2-.2.19.19,0,0,1,0-.07.21.21,0,0,1,.27-.07"/><path class="cls-6" d="M339.67,373.8l0,0a.2.2,0,0,1,0,.28.25.25,0,0,1-.17,0,.18.18,0,0,1-.07-.25.18.18,0,0,1,.24-.08"/><path class="cls-6" d="M345.17,392.66l0,0a.19.19,0,0,1,0,.27l-.07,0a.2.2,0,0,1-.2-.2.19.19,0,0,1,0-.07.21.21,0,0,1,.27-.07"/><path class="cls-6" d="M344.55,397.29l0,0a.21.21,0,0,1,0,.3h-.05a.21.21,0,0,1-.22-.21.11.11,0,0,1,0-.07.2.2,0,0,1,.27-.07"/><g class="cls-25"><path class="cls-6" d="M355,370.81c7.36.28,13.32-1.07,13.32-.72a11.07,11.07,0,0,1-3.81,1.15,39.84,39.84,0,0,1-4.21.59A44.34,44.34,0,0,1,355,372a48.68,48.68,0,0,1-5.27-.49,38.13,38.13,0,0,1-4.22-.89,10.78,10.78,0,0,1-3.71-1.4C341.89,368.85,347.61,370.52,355,370.81Z"/></g><path class="cls-6" d="M359,399l.62-.65a9.27,9.27,0,0,0,1.79-2.67,12.91,12.91,0,0,0,.72-2.12c.22-.78.45-1.61.67-2.5.47-1.75.92-3.71,1.32-5.77a100.81,100.81,0,0,0,1.55-10.65c.13-1.36.27-2.47.27-3.25v-.88a.81.81,0,0,1,0-.31v1.19c0,.78-.1,1.86-.2,3.26a93.62,93.62,0,0,1-1.49,10.68c-.41,2.08-.87,4-1.33,5.79-.24.88-.47,1.71-.71,2.5a12.49,12.49,0,0,1-.74,2.13,9.39,9.39,0,0,1-1.88,2.62l-.66.6-.24.2S358.78,399,359,399Z"/><path class="cls-6" d="M347.46,392.86c-.54,4.4-1,8-1.09,7.95s.31-3.57.85-8,1-8,1.08-8S348,388.46,347.46,392.86Z"/><path class="cls-6" d="M354.93,365.16c-.17.24-.44.57-.75,1-.64.82-1.54,1.94-2.54,3.16l-.38.45-.07.1h0v.27a5,5,0,0,0-.08,1.06L351,373a11.65,11.65,0,0,1-.15,1.67,1.69,1.69,0,0,1,0-.45v-3.05a4.3,4.3,0,0,0,.09-1.08v-.29h0v-.1a.09.09,0,0,1,0-.07h0l.36-.46c1-1.23,1.93-2.32,2.6-3.12.34-.4.61-.72.8-.93a2.5,2.5,0,0,1,.33-.32A1.54,1.54,0,0,1,354.93,365.16Z"/><path class="cls-6" d="M348.47,391.82,350,392c1.31.13,3.12.21,5.12.37s3.8.15,5.12.15h1.56a2.62,2.62,0,0,1,.56,0,1.75,1.75,0,0,1-.56,0h-1.56c-1.32,0-3.14,0-5.14-.08s-3.81-.28-5.11-.44c-.66-.08-1.18-.15-1.55-.22a3.47,3.47,0,0,1-.56-.11Z"/><path class="cls-6" d="M338.76,374.91a25.33,25.33,0,0,0,3.16,1.14c1.26.37,2.42.63,3.26.8a9.67,9.67,0,0,1,1.4.29,6,6,0,0,1-1.4-.13,24.61,24.61,0,0,1-3.3-.74,18.56,18.56,0,0,1-3.16-1.21l-.9-.49a2.65,2.65,0,0,1-.3-.22S338,374.64,338.76,374.91Z"/><circle class="cls-26" cx="349.78" cy="379.79" r="5.24"/><circle class="cls-6" cx="349.14" cy="379.51" r="3.82"/><path class="cls-7" d="M348,380v-1.67h0l2-1h0l1.9,1.23c-.1-.08,0,.11,0,.11h0V381h0l-2.05,1h0c-.62-.41-1.1-.73-1.41-1l-.48-.35a2.65,2.65,0,0,1,.55.3l1.41.86h-.09l2-1-.07.09V378.6h0c-.07,0,0,.2,0,.1l-1.89-1.25H350l-2,1v-.07c-.06.68-.15,1.25-.15,1.64a4.52,4.52,0,0,1-.08.63A3.84,3.84,0,0,1,348,380Z"/><g class="cls-28"><path d="M338.23,365.71c16.25-4.75,31.6,3.68,31.6,3.68C345.19,372.32,338.17,365.71,338.23,365.71Z"/></g><path class="cls-6" d="M345.1,472.59l0,0a.2.2,0,0,1,0,.28.28.28,0,0,1-.18,0,.19.19,0,0,1-.07-.25.19.19,0,0,1,.25-.08"/><path class="cls-7" d="M342.1,404.86c-6.35,0-6,9-6,9a335,335,0,0,0,2.32,35.25,6,6,0,0,0,1.71,4.32,4,4,0,0,0,5.09-.82,11.3,11.3,0,0,0,2.34-5.06,141.2,141.2,0,0,0,4.22-32.41C351.94,408.44,348.45,404.87,342.1,404.86Z"/><g class="cls-28"><path d="M351.32,421.79c.35,5.57-2.46,20.19-2.46,20.19-3-2.38-3.82-6.24-4-10s.41-7.48-.34-11.36-2.6-7.64-2.15-11.56a4.84,4.84,0,0,1,1.58-3.3,2.5,2.5,0,0,1,3.37.11S351.07,417.73,351.32,421.79Z"/></g><path class="cls-6" d="M346.47,420.92v1c-.05.8-.15,2.09-.29,3.61-.28,3-.72,7.23-1.31,11.85s-1.24,8.8-1.74,11.8c-.25,1.51-.47,2.73-.63,3.56l-.19,1a1.23,1.23,0,0,1-.08.33v-.35l.14-1,.55-3.56c.46-3,1.05-7.18,1.68-11.8s1.1-8.81,1.41-11.85l.36-3.59.12-1a.92.92,0,0,1,0-.33S346.49,420.69,346.47,420.92Z"/><path class="cls-26" d="M365.65,410c0-2.8-4.82-4.21-4.82-4.21l-13.26-.44c-1.39,0-3,0-3.87,1.11a4.58,4.58,0,0,0-.39,3.53c.59,3.58,1.24,7.31,3.29,10.3a7.7,7.7,0,0,0,9.24,2.72C359.89,421,365.65,412.82,365.65,410Z"/><path class="cls-7" d="M344.25,455.08a10.34,10.34,0,0,0-3.37-.29,3.76,3.76,0,0,0-2.81,1.64,5.63,5.63,0,0,0-.35,3.46L341.09,491a5,5,0,0,0,1,3c1.31,1.37,3.77.75,4.92-.74a9.36,9.36,0,0,0,1.4-5.38c.5-8.68.19-17.39-.12-26.09a11.23,11.23,0,0,0-.68-4.22,3.89,3.89,0,0,0-3.19-2.52"/><path class="cls-6" d="M346.2,496v-.41l.09-1.19c.07-1,.22-2.52.22-4.37.13-3.7.06-8.8-.09-14.43s-.29-10.73-.38-14.44a13.32,13.32,0,0,0-.68-4.29,6.12,6.12,0,0,0-.52-1.06l-.17-.26v0l.19.24a8.36,8.36,0,0,1,.56,1.07,12.31,12.31,0,0,1,.74,4.3c.13,3.72.3,8.79.45,14.44s.18,10.76,0,14.45c-.08,1.84-.19,3.35-.29,4.37,0,.51-.13.92-.13,1.18V496Z"/><path class="cls-26" d="M340.26,497.14l.68-3.24a3.37,3.37,0,0,1,1.7-2.61,3.65,3.65,0,0,1,2-.29,3.89,3.89,0,0,1,2,.66,3.48,3.48,0,0,1,1.15,2.32,10,10,0,0,1-.13,2.67"/><path class="cls-7" d="M348.06,498.23s-13.5.56-13.5.09,5.62-1.74,5.62-1.74l7.71-.08Z"/><path class="cls-27" d="M349.63,406.56c-.05.24-.12.5-.19.84s-.16.68-.23,1.13-.1.89-.2,1.4a9.19,9.19,0,0,0-.09,1.59A19.73,19.73,0,0,0,350,418.7c.19.45.38.95.59,1.4l.31.65.32.59c.18.38.41.7.57,1a7.11,7.11,0,0,0,.5.72,4.38,4.38,0,0,1,.4.62,3.87,3.87,0,0,1-.49-.57,5.9,5.9,0,0,1-.5-.7,10.84,10.84,0,0,1-.64-1l-.32-.59c-.11-.19-.21-.42-.32-.64a15.89,15.89,0,0,1-.63-1.49,18.49,18.49,0,0,1-.9-3.57,20.62,20.62,0,0,1-.23-3.68c0-.56.06-1.11.14-1.6a13.31,13.31,0,0,1,.21-1.41c.07-.42.19-.79.27-1.12a6,6,0,0,1,.24-.83,4.22,4.22,0,0,1,.27-.7A6.66,6.66,0,0,1,349.63,406.56Z"/><path class="cls-6" d="M343.76,431.83l0,0a.22.22,0,0,1,0,.3h-.06a.19.19,0,0,1-.19-.2.16.16,0,0,1,0-.09.18.18,0,0,1,.25-.05"/><path class="cls-6" d="M342.61,441.4l.05.05a.19.19,0,0,1-.05.27l-.09,0a.18.18,0,0,1-.16-.2.07.07,0,0,1,0-.05.2.2,0,0,1,.27-.09"/><path class="cls-6" d="M344.88,422.07l0,0a.21.21,0,0,1,0,.3h-.06a.2.2,0,0,1-.19-.21.11.11,0,0,1,0-.08.18.18,0,0,1,.25-.06"/><path class="cls-6" d="M344.88,463.46l0,0a.21.21,0,0,1,0,.3h-.06a.21.21,0,0,1-.19-.21.11.11,0,0,1,0-.08.18.18,0,0,1,.25-.06"/><path class="cls-27" d="M344.29,494.52a28.66,28.66,0,0,0,3.59-.13,3.69,3.69,0,0,1-1,.25,13,13,0,0,1-2.57.12,14.5,14.5,0,0,1-2.54-.43,3.28,3.28,0,0,1-1-.38A28.51,28.51,0,0,0,344.29,494.52Z"/><g class="cls-28"><path d="M348.62,481.59a207.45,207.45,0,0,0-.64-22.85,3.17,3.17,0,0,0-.88-2.25,3.11,3.11,0,0,0-3.13.15,2.89,2.89,0,0,0-1.88,1.74,3.45,3.45,0,0,0,.24,1.62,34,34,0,0,1,1.15,7.5,35.22,35.22,0,0,0,1.12,7.5,11.86,11.86,0,0,0,4.09,6.25"/></g><circle class="cls-26" cx="342.05" cy="453.71" r="5.49"/><path class="cls-27" d="M338.2,453.83a7.53,7.53,0,0,0,3.76.79,16.77,16.77,0,0,0,3.85-.72,11,11,0,0,1,1.57-.42,1.78,1.78,0,0,1-.39.17c-.27.11-.64.25-1.14.41a13.87,13.87,0,0,1-3.87.78,7,7,0,0,1-3.85-.87,4.25,4.25,0,0,1-1-.71,3.17,3.17,0,0,1-.3-.34A12.14,12.14,0,0,0,338.2,453.83Z"/><path class="cls-29" d="M395,414.18s.93,5.34,1.44,6.06c2.18,2.07,4.37,4,6.53,5.77,0,0,2,5.11,2.27,5.83s.94.32.73-.36-1.64-6.69-2.53-7.74c-1.05-1.14-2.1-2.2-3.15-3.16l-.73-3.55Z"/><path class="cls-29" d="M369,370.94c3.79,2.22,6.23,3.85,10,6,2.12,1.23,4.8,2.92,6.8,4.33a16.6,16.6,0,0,1,4.13,4.3,28.45,28.45,0,0,1,2.62,5.31,122.26,122.26,0,0,1,6.57,24.48l-4.56-3.6-8.28-21.55-15-9.19-2.45-9.48c-.16-.38-.13-.68.06-.67Z"/><path class="cls-26" d="M368.8,381.86c2.81,1.83,4.38,0,3.51-4.14a19.1,19.1,0,0,0-1.69-4.59c-.62-1.22-1.5-2.55-2.23-2.38a.68.68,0,0,0-.47.52C367.12,373.71,367.43,377.51,368.8,381.86Z"/><path class="cls-27" d="M371.1,382.5v.1a.78.78,0,0,1-.22,0,.55.55,0,0,1-.21-.13,1.15,1.15,0,0,1-.27-.27,2.08,2.08,0,0,1-.24-.47l-.2-.49a23,23,0,0,1-1.44-5.16,9,9,0,0,1,.09-4,.62.62,0,0,1,.57-.5.48.48,0,0,1,.34.12.76.76,0,0,0-.29,0,.7.7,0,0,0-.48.57,10.46,10.46,0,0,0,0,4,24.57,24.57,0,0,0,1.36,5,3.58,3.58,0,0,0,.38.87.83.83,0,0,0,.39.4C371,382.52,371.09,382.46,371.1,382.5Z"/><path class="cls-6" d="M386.27,390.25a2.4,2.4,0,0,1,0-.38,9.53,9.53,0,0,1,0-1.07,6.45,6.45,0,0,1,.22-1.35,2.76,2.76,0,0,1,.65-1.16,2.2,2.2,0,0,1,2.08-.49,3.85,3.85,0,0,1,.8.25,1.11,1.11,0,0,1,.32.17,7.86,7.86,0,0,0-1-.2,2.32,2.32,0,0,0-2.08.49,2.85,2.85,0,0,0-.65,1.09,5.94,5.94,0,0,0-.24,1.28C386.25,389.67,386.31,390.28,386.27,390.25Z"/><path class="cls-6" d="M372,380.19s3.17,1.69,7.11,3.94,7.17,4.15,7.19,4.25-3.17-1.69-7.12-4S372,380.25,372,380.19Z"/><path class="cls-6" d="M397.63,414.09a1.08,1.08,0,0,0-.08-.29l-.2-.8c-.16-.68-.4-1.69-.72-2.95-.61-2.47-1.56-6-2.74-9.89-.6-2-1.23-3.85-1.78-5.56s-1.12-3.28-1.6-4.58c-.23-.66-.47-1.27-.66-1.79l-.52-1.35L389,386c-.07-.2-.11-.3-.09-.29l.13.3.36.85c.15.38.34.83.53,1.35s.46,1.15.69,1.79c.51,1.33,1.06,2.89,1.65,4.62s1.23,3.66,1.8,5.6q1.53,5,2.69,9.88c.31,1.25.53,2.24.66,2.91l.16.78C397.6,413.91,397.62,414,397.63,414.09Z"/><path class="cls-6" d="M383.31,385.67c-.07,0-.09.12,0,.28s0,0,0,.05.19.19.23.13a.05.05,0,0,0,0,0,.65.65,0,0,0-.18-.37s0,0,0,0"/><path class="cls-6" d="M389.68,389.9c-.08,0-.1.08-.05.23l.05.09c.07.13.17.19.21.14s0-.19-.06-.31a.42.42,0,0,0-.15-.15"/><path class="cls-6" d="M392.58,398c-.08,0-.1.09-.05.23l.05.09c.09.14.2.19.23.12a0,0,0,0,0,0,0,.66.66,0,0,0-.17-.37l-.06,0"/><path class="cls-6" d="M379.58,383.43c-.08,0-.09.12,0,.27a.08.08,0,0,0,0,.05c.09.13.19.2.23.14a.07.07,0,0,0,0-.05.61.61,0,0,0-.15-.34l-.07-.05"/><path class="cls-6" d="M375.37,380.86a.54.54,0,0,1-.23-.32.64.64,0,0,1,0-.07c0-.1.06-.12.15,0a.6.6,0,0,1,.08.08c.07.14.09.29,0,.32h0"/><path class="cls-26" d="M399.21,415.51a58.42,58.42,0,0,0-4.64-3.91c-.61-.47-1.32-.92-1.51-.44a3,3,0,0,0,.41,1.82,10.81,10.81,0,0,0,1.23,1.85,15.29,15.29,0,0,0,4.1,3.73,1.8,1.8,0,0,0,1.22.35c.35-.08.47-.56.33-1.26a4.76,4.76,0,0,0-1.15-2.14"/><path class="cls-27" d="M393.26,412.05s.41.59,1.07,1.47a17.13,17.13,0,0,0,2.69,2.83,6.07,6.07,0,0,0,2.45,1.27c.56.1.84,0,.87.07s0,.12-.19.1a1.47,1.47,0,0,1-.6,0c-1.47-.15-3.41-1.7-5.2-4.13-.26-.36-.52-.75-.77-1.14C393.47,412.4,393.36,412.23,393.26,412.05Z"/><path class="cls-7" d="M360.53,454.6a11.79,11.79,0,0,0-3.34-.49,3.81,3.81,0,0,0-2.92,1.49,5.59,5.59,0,0,0-.56,3.43l1.53,31.23a5,5,0,0,0,.83,3.06c1.22,1.44,3.72.94,5-.46a9.55,9.55,0,0,0,1.75-5.28c1-8.64,1.2-17.35,1.41-26.05a11.5,11.5,0,0,0-.42-4.21,4,4,0,0,0-3-2.72"/><path class="cls-7" d="M358.47,405c-6.34,0-6,9-6,9a334.77,334.77,0,0,0,2.28,35.24,5.89,5.89,0,0,0,1.75,4.33,4,4,0,0,0,5.09-.83,11.19,11.19,0,0,0,2.33-5.06,140.5,140.5,0,0,0,4.21-32.41C368.32,408.57,364.81,405,358.47,405Z"/><g class="cls-25"><path class="cls-6" d="M363.47,443.07c.49-3.79,1.22-9,1.9-14.75.33-2.88.62-5.63.88-8.13a37.31,37.31,0,0,0,.37-6.59,11,11,0,0,0-1-4.22l-.34-.6c-.08-.15-.17-.3-.26-.44s-.21-.38-.18-.4.15.07.36.26.25.25.37.38l.45.58a10,10,0,0,1,1.4,4.37,32.61,32.61,0,0,1-.13,6.77c-.19,2.56-.45,5.28-.8,8.17-.67,5.78-1.54,11-2.23,14.74a31.26,31.26,0,0,1-1.41,6A34.55,34.55,0,0,1,363.47,443.07Z"/></g><path class="cls-6" d="M359.3,453.89l.07-.37.29-1.4c.26-1.24.61-3,1-5.27.77-4.47,1.58-10.66,2.17-17.55.31-3.44.55-6.73.78-9.72.11-1.47.22-2.89.32-4.21a30.44,30.44,0,0,0,.13-3.7,10.11,10.11,0,0,0-.54-3,6.86,6.86,0,0,0-1.06-2,6.19,6.19,0,0,0-1.41-1.34,2.27,2.27,0,0,1,.44.27,5.9,5.9,0,0,1,1,1,6.57,6.57,0,0,1,1.12,2,10,10,0,0,1,.58,3,30.81,30.81,0,0,1-.1,3.72l-.31,4.22c-.21,3-.45,6.26-.76,9.7-.59,6.89-1.43,13.1-2.23,17.56-.41,2.24-.79,4-1.07,5.26l-.32,1.4-.1.38V454A.56.56,0,0,1,359.3,453.89Z"/><path class="cls-6" d="M360.59,492.44l.1-1.08c.08-1,.2-2.31.34-4,.29-3.35.64-8,.92-13.09s.42-9.76.51-13.12c.08-1.66.08-3,.08-4v-1.46a1.21,1.21,0,0,1,0,.38v5.07c0,3.3-.17,8-.43,13.14s-.66,9.75-1,13.09c-.16,1.67-.3,3-.42,3.95a3.91,3.91,0,0,0-.12,1.08,2.29,2.29,0,0,1,0,.37S360.58,492.65,360.59,492.44Z"/><circle class="cls-26" cx="359.19" cy="453.83" r="5.49"/><path class="cls-26" d="M355.15,497.69l.19-3.3a3.4,3.4,0,0,1,1.3-2.81,4.36,4.36,0,0,1,4-.2,3.37,3.37,0,0,1,1.54,2.11,25.92,25.92,0,0,1,.25,4.22"/><path class="cls-7" d="M362.45,498.37s-13.44.28-13.52-.19,5.62-1.63,5.62-1.63l7.73.07Z"/><path class="cls-6" d="M362.05,424.36l0,0a.19.19,0,0,1,0,.28.17.17,0,0,1-.17,0,.19.19,0,1,1,.17-.33"/><path class="cls-6" d="M362.6,416.1l0,0a.22.22,0,0,1,0,.3h-.07a.19.19,0,0,1-.2-.19l0-.07a.19.19,0,0,1,.27-.07"/><path class="cls-6" d="M361.35,434.49l0,0a.22.22,0,0,1,0,.3h0a.22.22,0,0,1-.25-.2s0-.05,0-.07a.2.2,0,0,1,.27-.07"/><path class="cls-6" d="M360,445.87a.12.12,0,0,1,0,.05.19.19,0,0,1,0,.27.17.17,0,0,1-.17,0,.18.18,0,0,1-.07-.25.17.17,0,0,1,.24-.07"/><path class="cls-6" d="M361.53,463.26s0,0,0,0a.19.19,0,0,1,0,.28h-.07a.21.21,0,0,1-.2-.19l0-.08a.21.21,0,0,1,.27-.07"/><path class="cls-6" d="M360.62,472.24l0,0a.19.19,0,0,1,0,.27l-.07,0a.2.2,0,0,1-.2-.2s0-.05,0-.07a.2.2,0,0,1,.27-.07"/><path class="cls-6" d="M360.55,482.29l.06.06a.19.19,0,0,1-.06.25l-.09,0a.18.18,0,0,1-.16-.2.09.09,0,0,1,0-.05.2.2,0,0,1,.27-.09"/><path class="cls-27" d="M355.28,453.66a8.28,8.28,0,0,0,7.76.19,12.9,12.9,0,0,0,1.4-.85,1.26,1.26,0,0,1-.34.31,6.7,6.7,0,0,1-1,.69,8.28,8.28,0,0,1-4,1,8.17,8.17,0,0,1-3.93-1.16,6,6,0,0,1-1-.73,1.62,1.62,0,0,1-.32-.32S354.31,453.16,355.28,453.66Z"/><path class="cls-27" d="M358.85,494.8a22.76,22.76,0,0,0,3.5-.2,3.69,3.69,0,0,1-1,.27,11.13,11.13,0,0,1-2.51.17,11.56,11.56,0,0,1-2.48-.4,3.11,3.11,0,0,1-1-.38A22.56,22.56,0,0,0,358.85,494.8Z"/><path class="cls-6" d="M350.89,349.31a2,2,0,0,0,.41.66,1.78,1.78,0,0,0,.83.45,1.67,1.67,0,0,0,.94,0,2.11,2.11,0,0,0,.67-.42,4.45,4.45,0,0,0,.43-.61,1.11,1.11,0,0,1-.34.69,1.68,1.68,0,0,1-.69.49,1.8,1.8,0,0,1-1.05.07,1.8,1.8,0,0,1-1.32-1.26,1.1,1.1,0,0,1,0-.76A2.78,2.78,0,0,0,350.89,349.31Z"/></g></g></g></svg>