<svg xmlns="http://www.w3.org/2000/svg" xmlns:xlink="http://www.w3.org/1999/xlink" viewBox="0 0 2044.08 1261.02"><defs><style>.cls-1{fill:#263238;}.cls-2{fill:#b29000;}.cls-3{fill:#f5f5f5;}.cls-4{fill:url(#linear-gradient);}.cls-5{fill:#fff;}.cls-6{opacity:0.73;}.cls-12,.cls-17,.cls-7{fill:#edcd00;}.cls-8{fill:#455a64;}.cls-9{opacity:0.77;}.cls-10{clip-path:url(#clip-path);}.cls-11{clip-path:url(#clip-path-2);}.cls-12{opacity:0.81;}.cls-13{opacity:0.64;}.cls-14{opacity:0.85;}.cls-15{opacity:0.7;}.cls-16{fill:#b78876;}.cls-17{stroke:#000;stroke-miterlimit:10;stroke-width:0.25px;}.cls-18{fill:#cc9287;}.cls-19{fill:#b59085;}.cls-20{fill:#272727;}.cls-21{fill:url(#linear-gradient-2);}.cls-22{fill:url(#linear-gradient-3);}.cls-23{fill:url(#linear-gradient-4);}.cls-24{fill:url(#linear-gradient-5);}.cls-25{fill:url(#linear-gradient-6);}.cls-26{fill:url(#linear-gradient-7);}.cls-27{fill:#aa6550;}.cls-28{fill:#b7695c;}.cls-29{fill:url(#linear-gradient-8);}.cls-30{fill:url(#linear-gradient-9);}.cls-31{fill:url(#linear-gradient-10);}.cls-32{fill:url(#linear-gradient-11);}.cls-33{fill:url(#linear-gradient-12);}.cls-34{fill:url(#linear-gradient-13);}.cls-35{fill:url(#linear-gradient-14);}.cls-36{fill:#e0e0e0;}</style><linearGradient id="linear-gradient" x1="1361.48" y1="1151.63" x2="1356.33" y2="1165.05" gradientUnits="userSpaceOnUse"><stop offset="0" stop-color="#a737d5"/><stop offset="1" stop-color="#ef497a"/></linearGradient><clipPath id="clip-path"><polygon class="cls-1" points="707.52 248.41 719.32 237.15 730.58 248.96 730.81 239.17 719.55 227.37 707.75 238.63 707.52 248.41"/></clipPath><clipPath id="clip-path-2"><polygon class="cls-1" points="1214.7 540.82 1226.38 529.43 1214.98 517.76 1224.77 517.88 1236.16 529.55 1224.49 540.94 1214.7 540.82"/></clipPath><linearGradient id="linear-gradient-2" x1="220.44" y1="1195.15" x2="243.8" y2="1195.15" gradientUnits="userSpaceOnUse"><stop offset="0" stop-color="#ff928e"/><stop offset="1" stop-color="#feb3b1"/></linearGradient><linearGradient id="linear-gradient-3" x1="331.09" y1="1197.12" x2="358.98" y2="1197.12" xlink:href="#linear-gradient-2"/><linearGradient id="linear-gradient-4" x1="211.57" y1="754.61" x2="115.57" y2="867.61" xlink:href="#linear-gradient-2"/><linearGradient id="linear-gradient-5" x1="293.64" y1="938.95" x2="358.06" y2="938.95" xlink:href="#linear-gradient-2"/><linearGradient id="linear-gradient-6" x1="1790.39" y1="178.95" x2="1818.39" y2="274.45" gradientTransform="translate(-2035.11 -186.41) rotate(-7.5)" xlink:href="#linear-gradient-2"/><linearGradient id="linear-gradient-7" x1="1767.98" y1="185.53" x2="1795.98" y2="281.03" gradientTransform="translate(-2035.11 -186.41) rotate(-7.5)" xlink:href="#linear-gradient-2"/><linearGradient id="linear-gradient-8" x1="-9406.42" y1="1215.31" x2="-9413.36" y2="1161.04" gradientTransform="matrix(-1, 0, 0, 1, -8461.11, 0)" xlink:href="#linear-gradient-2"/><linearGradient id="linear-gradient-9" x1="-9558.13" y1="1233.91" x2="-9564.89" y2="1181.03" gradientTransform="matrix(-1, 0, 0, 1, -8461.11, 0)" xlink:href="#linear-gradient-2"/><linearGradient id="linear-gradient-10" x1="-9507" y1="886.59" x2="-9412.2" y2="886.59" gradientTransform="matrix(-1, 0, 0, 1, -8461.11, 0)" xlink:href="#linear-gradient-2"/><linearGradient id="linear-gradient-11" x1="915.39" y1="607.74" x2="898.06" y2="677.07" xlink:href="#linear-gradient-2"/><linearGradient id="linear-gradient-12" x1="-9483.38" y1="668.46" x2="-9421.77" y2="605.24" gradientTransform="matrix(-1, 0, 0, 1, -8461.11, 0)" xlink:href="#linear-gradient-2"/><linearGradient id="linear-gradient-13" x1="1029.33" y1="525.51" x2="993.33" y2="552.85" xlink:href="#linear-gradient-2"/><linearGradient id="linear-gradient-14" x1="-9506.53" y1="645.89" x2="-9444.92" y2="582.68" gradientTransform="matrix(-1, 0, 0, 1, -8461.11, 0)" xlink:href="#linear-gradient-2"/></defs><g id="Camada_2" data-name="Camada 2"><g id="Illustration"><path class="cls-2" d="M2033.87,857.34c6.62,2.68,12.78-4.66,9.12-10.89-21-35.64-69.64-101.29-142.32-99.35-99.62,2.65-172.9,47.93-268.36,209.51-92.79,157.06-305,211.59-362.36,213a5.51,5.51,0,0,0-5.29,4.73h0a5.55,5.55,0,0,0,5.67,6.46c40.3-2,252-15,358.85-71.68C1741.39,1049.62,1906.17,805.64,2033.87,857.34Z"/><path class="cls-3" d="M1974.24,811a141.69,141.69,0,0,0-24.33-7.3,176.39,176.39,0,0,0-25.24-3.53c-4.24-.37-8.49-.38-12.73-.48-4.25.1-8.49.08-12.72.46A194.31,194.31,0,0,0,1826,819.45a253.57,253.57,0,0,0-43.2,26.65c-27,20.59-50,46.27-70,73.82-4.9,7-9.64,14.05-14.49,21.17s-9.57,14.41-14.64,21.43l-7.5,10.6-7.73,10.44c-5.09,7-10.57,13.73-15.88,20.57-11,13.44-22.22,26.64-34.28,39.14a469.28,469.28,0,0,1-38.14,35.52,351.62,351.62,0,0,1-89,53.84c-32.08,13.45-65.76,22.36-99.67,28.86s-68.11,11.21-102.26,15.85a1,1,0,0,1-.29-2c34-5.8,68-11.1,101.61-18.42s66.79-16.4,98.09-30.18a357.6,357.6,0,0,0,86.62-53.88,462.77,462.77,0,0,0,37.26-35.12c11.8-12.38,22.84-25.48,33.58-38.8,5.21-6.8,10.59-13.47,15.58-20.44l7.59-10.37,7.36-10.55c5-7,9.59-14.22,14.39-21.33s9.78-14.34,14.78-21.43c20.59-28,44.17-54.15,72.14-75.24s60.44-36.45,95-42.66a188.94,188.94,0,0,1,26.09-2.77c4.37-.25,8.74-.11,13.11-.07,4.37.24,8.74.38,13.07.9,17.38,1.78,34.52,5.64,50.57,13a1.65,1.65,0,0,1-1.32,3Z"/><path class="cls-4" d="M1353.92,1164.12l-1.28-9h1.25c3.34,0,6.74-.23,10.11-.59l4-.43-3.23,2.4c-3.43,2.54-6.51,4.71-9.4,6.63Zm1.24-6.8.44,3c1.5-1,3.06-2.11,4.69-3.29C1358.58,1157.2,1356.86,1157.28,1355.16,1157.32Z"/><path class="cls-2" d="M1975.86,351.67c-38.64,40.71-94,66.45-147.95,85.81-70.52,25.32-145.78,45.47-202.12,94.86C1566.93,583.93,1536.72,661,1520,737.45s-22.15,155.23-42.27,230.87c-19.13,71.93-54.13,143.26-113.59,187.33,50.6-5.41,93.19-46.53,115-93.33,23.23-49.9,28.06-106,36-160.5s20.54-110.82,55.58-153.28c68.77-83.3,196.81-85,284.7-147.8,45.47-32.49,78.22-80.3,101-131.33,15.53-34.77,26.78-71.19,36.63-108C1995.79,351.18,1983.13,344,1975.86,351.67Z"/><path class="cls-2" d="M668.6,1186.77a6.24,6.24,0,0,0,4.41-10c-34.54-43.07-169.79-231-10.73-356.17,180.61-142.16,241.16-172,230.2-304.72C882.5,395,819,336,750.25,306.76c-4.79-2-9.16,3.92-5.74,7.84,29.53,33.75,90.92,116.51,60.74,192.66-39.08,98.62-219,248-236.67,395.94-17.48,146.11,40.4,208.22,94.7,281.19a6,6,0,0,0,5.32,2.38Z"/><path class="cls-2" d="M149.91,167.33a11.13,11.13,0,0,1,7-17.22c21.53-4.06,61.26-15.71,106.22-49.09S417.86.39,540.13,88.38s56.11,344.76-25.81,589.73S655,1130.18,655,1130.18l57.54,60.22S481.84,1032.79,468,814.06,594.13,332.67,439,265.38C290.16,200.78,228.78,279.41,149.91,167.33Z"/><path class="cls-2" d="M59.4,483.65c-8.27-.45-11.13-11.2-4.21-15.93,39.62-27.08,123.06-72.05,198.44-34.18,103.3,51.89,157.94,135.57,178.54,352.31,20,210.67,216,372.55,275.54,402.3a6.41,6.41,0,0,1,3.22,7.59h0a6.45,6.45,0,0,1-9.15,4c-41.33-22-257.23-140-341.51-252.16C271.78,829.75,219,492.3,59.4,483.65Z"/><path class="cls-3" d="M1194.24,825.7c2.59-20.23,9.24-39.47,18.07-57.66,2.13-4.58,4.65-9,7.08-13.41,2.62-4.32,5.15-8.71,8-12.86a222.19,222.19,0,0,1,18.6-24c27.11-30.23,62.06-52.88,99.72-67.58s77.87-22.1,118-25.41c10-.62,20.15-1.13,30.13-1.57s19.91-.57,29.84-1.25l14.91-.87,14.88-1.2c9.93-.7,19.79-2,29.69-3,19.72-2.52,39.39-5.47,58.82-9.62a538.14,538.14,0,0,0,57.43-15.5,414.27,414.27,0,0,0,106-53,488.09,488.09,0,0,0,46.62-37.08c14.82-13.28,29-27.3,42.81-41.68,27.62-28.8,53.52-59.27,79.82-89.37a1,1,0,0,1,1.47,1.24c-12.72,15.42-25.43,30.86-38.39,46.1s-26,30.37-39.63,45.1c-27.1,29.47-56.37,57.29-89.16,80.71a408.42,408.42,0,0,1-107.19,55,546.52,546.52,0,0,1-58.2,16c-19.66,4.3-39.53,7.38-59.45,10-10,1.08-19.94,2.4-30,3.16l-15,1.28-15,1c-10,.74-20,1-30.06,1.42s-19.85.87-29.76,1.45c-39.49,3.1-78.87,10.16-115.76,24.41a293.42,293.42,0,0,0-52.71,26.62A225.87,225.87,0,0,0,1232.15,745c-2.94,4-5.5,8.19-8.17,12.34-2.47,4.27-5,8.49-7.25,12.92a207.77,207.77,0,0,0-11.82,27.17,163.5,163.5,0,0,0-7.5,28.58v.12a1.6,1.6,0,0,1-3.16-.44Z"/><path class="cls-3" d="M144.85,460.82c20.39.29,40.26,4.73,59.32,11.46,4.8,1.6,9.44,3.61,14.13,5.52,4.59,2.12,9.24,4.13,13.68,6.56a219.78,219.78,0,0,1,25.94,15.77c33.09,23.53,59.54,55.71,78.38,91.47S367,666.49,374.84,706c1.75,9.9,3.4,19.89,5,29.76s2.81,19.72,4.61,29.51L386.94,780l2.87,14.64c1.81,9.79,4.18,19.45,6.31,29.17,4.73,19.31,9.87,38.52,16.18,57.36a537.45,537.45,0,0,0,21.88,55.32,414.12,414.12,0,0,0,64.61,99.37,486.8,486.8,0,0,0,42.1,42.15c14.86,13.23,30.39,25.73,46.23,37.84,31.73,24.2,64.92,46.51,97.8,69.25a1,1,0,0,1-1.07,1.59c-16.76-10.9-33.53-21.79-50.13-32.94s-33.12-22.47-49.28-34.31c-32.34-23.6-63.27-49.55-90.24-79.49a408.23,408.23,0,0,1-66.71-100.31,545.46,545.46,0,0,1-22.48-56c-6.49-19.06-11.79-38.46-16.66-58-2.2-9.79-4.64-19.55-6.51-29.41l-3-14.76-2.64-14.81c-1.86-9.87-3.19-19.81-4.79-29.71s-3.1-19.62-4.8-29.41c-7.52-38.88-19-77.22-37.3-112.27A292.31,292.31,0,0,0,297,545.88a238.37,238.37,0,0,0-42.7-40.66,237.29,237.29,0,0,0-25-15.82c-4.27-2.47-8.75-4.54-13.18-6.73-4.52-2-9-4.06-13.65-5.75a205.87,205.87,0,0,0-28.33-8.68A163,163,0,0,0,144.89,464h-.12a1.59,1.59,0,0,1,.08-3.18Z"/><path class="cls-3" d="M166.49,158.61A95,95,0,0,0,187.66,165a119.9,119.9,0,0,0,22,2.11,126.37,126.37,0,0,0,43.22-7.69,152.32,152.32,0,0,0,20.08-9,178.24,178.24,0,0,0,18.58-11.81c2.95-2.2,5.89-4.42,8.74-6.75l8.57-7.25a162.85,162.85,0,0,1,18.86-13.39,230,230,0,0,1,86.1-30.92A172.18,172.18,0,0,1,460.14,80,142.78,142.78,0,0,1,483,85a125.62,125.62,0,0,1,21.63,9.15c3.49,1.81,6.79,3.94,10.1,6,3.2,2.28,6.42,4.53,9.41,7.07a123.2,123.2,0,0,1,16.64,16.53c10.1,11.94,17.88,25.59,23.93,39.76,11.92,28.52,17.26,59,19.37,89.22a450.33,450.33,0,0,1,.84,45.43c-.36,15.13-1.42,30.21-2.9,45.23a896.61,896.61,0,0,1-13.87,89.29,1.4,1.4,0,0,1-2.76-.5c4.45-29.69,8.24-59.46,10.15-89.33.93-14.93,1.67-29.87,1.6-44.8s-.41-29.83-1.79-44.64c-2.71-29.54-8.25-59-19.86-85.93a168.63,168.63,0,0,0-10-19.4,130.41,130.41,0,0,0-12.57-17.66,112.53,112.53,0,0,0-15.34-15.14c-2.74-2.32-5.69-4.36-8.62-6.44-3-1.9-6.05-3.84-9.25-5.48A120.73,120.73,0,0,0,479.84,95a132.84,132.84,0,0,0-21.11-4.71,162.1,162.1,0,0,0-43.56.09,224.56,224.56,0,0,0-82.89,28.4,154,154,0,0,0-18.15,12.28l-8.79,7.1c-3,2.35-6.13,4.62-9.27,6.81a183.43,183.43,0,0,1-19.8,11.74A160.73,160.73,0,0,1,255,165.5a131.25,131.25,0,0,1-45.39,6.13c-15.28-.75-30.44-4-44.15-11a1.14,1.14,0,0,1,1-2.05Z"/><polygon class="cls-1" points="970.31 1050.25 894.3 974.58 869.33 1000.9 970.31 1068.58 970.31 1050.25"/><polygon class="cls-1" points="1015.65 1050.25 1094.59 974.58 1118.1 1000.9 1015.65 1068.58 1015.65 1050.25"/><polygon class="cls-1" points="981.64 927.44 727.41 1178.79 679.03 1178.79 981.64 881.5 981.64 927.44"/><path class="cls-1" d="M739.64,1190.51l-.27-1.6A9.54,9.54,0,0,0,731,1181l-47.79-5.3a18.64,18.64,0,0,0-20.16,14.13,9.33,9.33,0,0,0,1.77,8.05,9.45,9.45,0,0,0,7.5,3.55h57.9a9.45,9.45,0,0,0,7.28-3.29A9.32,9.32,0,0,0,739.64,1190.51Z"/><polygon class="cls-1" points="1008.85 927.44 1265.59 1178.79 1313.98 1178.79 1008.85 881.5 1008.85 927.44"/><path class="cls-1" d="M1253.36,1190.51l.27-1.6A9.56,9.56,0,0,1,1262,1181l47.79-5.3a18.64,18.64,0,0,1,20.16,14.13,9.37,9.37,0,0,1-1.77,8.05,9.47,9.47,0,0,1-7.5,3.55h-57.9a9.47,9.47,0,0,1-7.29-3.29A9.35,9.35,0,0,1,1253.36,1190.51Z"/><path class="cls-1" d="M970.31,773v296.11c0,5.27,8.29,7.66,13.56,7.66h23.25c5.27,0,8.53-2.39,8.53-7.66V773Z"/><rect class="cls-1" x="263.04" y="43.07" width="1464.42" height="759.41"/><rect class="cls-3" x="274.37" y="43.07" width="1439.48" height="739.01"/><path class="cls-1" d="M1750.06,0H242.94c-10.29,0-20.71,8.34-20.71,18.64V41c0,5,3,9.75,6.56,13.25a19.84,19.84,0,0,0,13.81,5.39l1506-14.2c10.23-.1,17.37-8.42,17.37-18.64V18.64C1766,8.34,1760.36,0,1750.06,0Z"/><path class="cls-1" d="M1750.06,773H242.94c-10.29,0-20.71,9.55-20.71,19.84v22.36c0,5,3,9.74,6.56,13.24a19.85,19.85,0,0,0,13.81,5.4l1506-14.21c10.23-.09,17.37-8.41,17.37-18.64v-8.15C1766,782.56,1760.36,773,1750.06,773Z"/><path class="cls-5" d="M1658.93,86.57,318.09,78.75c-5.62,0-12.06,2.18-16,6.14s-7.27,9.36-7.27,15V739c0,11.67,11.57,20.43,23.23,20.43H1658.87c11.67,0,21-8.76,21-20.43V107.69A21.06,21.06,0,0,0,1658.93,86.57Z"/><g class="cls-6"><rect class="cls-7" x="1327.08" y="248.02" width="15.03" height="117.61"/><rect class="cls-8" x="1352.2" y="288.44" width="15.03" height="77.19"/><rect class="cls-1" x="1377.31" y="188.54" width="15.03" height="177.08"/><rect class="cls-7" x="1402.42" y="323.08" width="15.03" height="42.54"/><rect class="cls-8" x="1427.54" y="212.22" width="15.03" height="153.4"/><rect class="cls-1" x="1452.65" y="238.78" width="15.03" height="126.84"/><rect class="cls-7" x="1477.76" y="267.65" width="15.03" height="97.97"/><rect class="cls-8" x="1502.88" y="152.74" width="15.03" height="212.88"/><rect class="cls-1" x="1527.99" y="175.26" width="15.03" height="190.36"/><rect class="cls-7" x="1553.1" y="209.33" width="15.03" height="156.29"/><rect class="cls-8" x="1578.22" y="327.03" width="15.03" height="38.59"/></g><g class="cls-9"><path class="cls-7" d="M944,217.51l279.23-5.69a5.08,5.08,0,0,1,5.18,5.13l0,4.49a5.08,5.08,0,0,1-5.06,5l-279.18,1.19a5.08,5.08,0,0,1-5.1-5.12h0A5.08,5.08,0,0,1,944,217.51Z"/><path class="cls-7" d="M1228.38,244.18v-1.91a5.07,5.07,0,0,0-5.11-5.05L944.11,239a5.08,5.08,0,0,0-5,5.11V246a5.07,5.07,0,0,0,5.11,5l279.15-1.79A5.08,5.08,0,0,0,1228.38,244.18Z"/><path class="cls-7" d="M1024.3,266.77v.85a5.07,5.07,0,0,0,5,5.12l194.42,1.85a5.06,5.06,0,0,0,5.12-5l0-3.95a5.07,5.07,0,0,0-5.11-5.13l-194.45,1.26A5.07,5.07,0,0,0,1024.3,266.77Z"/><path class="cls-7" d="M1165.38,437.46a3.41,3.41,0,0,1-2.17-.79l-91.81-76.42-92.15,65.81a3.4,3.4,0,0,1-4.62-.62L849.18,271.23c-16.9,14.46-109.37,93.6-121.85,104.26a3.4,3.4,0,0,1-4.41-5.18c13.74-11.73,124.49-106.52,124.49-106.52a3.45,3.45,0,0,1,2.52-.8,3.4,3.4,0,0,1,2.33,1.24L977.89,418.67l91.7-65.48a3.39,3.39,0,0,1,4.15.15l91.62,76.27,49.78-42.47a3.4,3.4,0,0,1,4.41,5.18l-52,44.32A3.4,3.4,0,0,1,1165.38,437.46Z"/><path class="cls-8" d="M848.45,527.17h0a2.27,2.27,0,0,1-2.24-2.29v-1.25a2.28,2.28,0,0,1,2.27-2.24h0a2.28,2.28,0,0,1,2.24,2.3l0,1.24A2.26,2.26,0,0,1,848.45,527.17Zm.2-17.11h0a2.27,2.27,0,0,1-2.24-2.29l.09-6.8a2.25,2.25,0,0,1,2.26-2.24h0A2.27,2.27,0,0,1,851,501l-.08,6.8A2.28,2.28,0,0,1,848.65,510.06Zm.27-22.67h0a2.25,2.25,0,0,1-2.24-2.29l.08-6.8a2.26,2.26,0,0,1,2.26-2.24h0a2.26,2.26,0,0,1,2.24,2.29l-.08,6.8A2.26,2.26,0,0,1,848.92,487.39Zm.28-22.66h0a2.27,2.27,0,0,1-2.24-2.3l.08-6.8a2.27,2.27,0,0,1,2.27-2.24h0a2.26,2.26,0,0,1,2.24,2.3l-.08,6.8A2.27,2.27,0,0,1,849.2,464.73Zm.27-22.67h0a2.27,2.27,0,0,1-2.24-2.3l.08-6.8a2.28,2.28,0,0,1,2.27-2.24h0a2.27,2.27,0,0,1,2.23,2.3l-.08,6.8A2.26,2.26,0,0,1,849.47,442.06Zm.27-22.67h0a2.27,2.27,0,0,1-2.24-2.29l.08-6.8a2.27,2.27,0,0,1,4.54.05l-.09,6.8A2.26,2.26,0,0,1,849.74,419.39Zm.27-22.67h0a2.27,2.27,0,0,1-2.24-2.29l.08-6.8a2.28,2.28,0,0,1,2.27-2.24h0a2.27,2.27,0,0,1,2.24,2.29l-.08,6.8A2.27,2.27,0,0,1,850,396.72Zm.27-22.66h0a2.28,2.28,0,0,1-2.24-2.3l.09-6.8a2.36,2.36,0,0,1,2.29-2.24,2.28,2.28,0,0,1,2.24,2.3l-.08,6.8A2.28,2.28,0,0,1,850.28,374.06Zm.27-22.67h0a2.26,2.26,0,0,1-2.24-2.29l.08-6.81a2.2,2.2,0,0,1,2.29-2.24,2.28,2.28,0,0,1,2.24,2.3l-.08,6.8A2.28,2.28,0,0,1,850.55,351.39Zm.27-22.67h0a2.25,2.25,0,0,1-2.24-2.29l.08-6.8a2.27,2.27,0,0,1,2.27-2.24h0a2.25,2.25,0,0,1,2.24,2.29l-.08,6.8A2.27,2.27,0,0,1,850.82,328.72Zm.28-22.67h0a2.26,2.26,0,0,1-2.24-2.29l.08-6.8a2.28,2.28,0,0,1,2.27-2.24h0a2.26,2.26,0,0,1,2.24,2.29l-.08,6.8A2.26,2.26,0,0,1,851.1,306.05Z"/><path class="cls-8" d="M976.27,508.87h0a2.27,2.27,0,0,1-2.24-2.29l.08-6.8a2.23,2.23,0,0,1,2.29-2.24,2.26,2.26,0,0,1,2.24,2.29l-.08,6.8A2.27,2.27,0,0,1,976.27,508.87Zm.27-22.67h0a2.26,2.26,0,0,1-2.24-2.29l.08-6.8a2.31,2.31,0,0,1,2.29-2.24,2.25,2.25,0,0,1,2.24,2.29l-.08,6.8A2.26,2.26,0,0,1,976.54,486.2Zm.28-22.66h0a2.28,2.28,0,0,1-2.24-2.3l.08-6.8a2.27,2.27,0,1,1,4.53.06l-.08,6.79A2.26,2.26,0,0,1,976.82,463.54Zm.27-22.67h0a2.28,2.28,0,0,1-2.24-2.3l.08-6.8a2.28,2.28,0,0,1,2.27-2.24h0a2.28,2.28,0,0,1,2.24,2.3l-.08,6.8A2.28,2.28,0,0,1,977.09,440.87Z"/><path class="cls-8" d="M1072.89,516a2.28,2.28,0,0,1-2.27-2.23l-.13-6.8a2.27,2.27,0,0,1,2.23-2.31,2.32,2.32,0,0,1,2.31,2.23l.13,6.8a2.28,2.28,0,0,1-2.23,2.31Zm-.43-22.67a2.26,2.26,0,0,1-2.27-2.22l-.13-6.8a2.27,2.27,0,0,1,2.22-2.31,2.24,2.24,0,0,1,2.31,2.22l.13,6.8a2.26,2.26,0,0,1-2.22,2.31Zm-.44-22.66a2.26,2.26,0,0,1-2.26-2.23l-.13-6.8a2.27,2.27,0,1,1,4.53-.08l.13,6.8a2.27,2.27,0,0,1-2.22,2.31Zm-.43-22.67a2.26,2.26,0,0,1-2.26-2.22l-.13-6.8a2.26,2.26,0,0,1,2.22-2.31,2.29,2.29,0,0,1,2.31,2.22l.13,6.8a2.27,2.27,0,0,1-2.22,2.31Zm-.43-22.66a2.26,2.26,0,0,1-2.26-2.23l-.13-6.8A2.27,2.27,0,0,1,1071,414a2.29,2.29,0,0,1,2.31,2.23l.13,6.8a2.27,2.27,0,0,1-2.22,2.31Zm-.43-22.67a2.28,2.28,0,0,1-2.27-2.22l-.13-6.8a2.27,2.27,0,0,1,4.54-.09l.13,6.8a2.27,2.27,0,0,1-2.23,2.31ZM1070.3,380a2.28,2.28,0,0,1-2.27-2.23l-.13-6.8a2.27,2.27,0,1,1,4.54-.08l.13,6.8a2.28,2.28,0,0,1-2.23,2.31Z"/><path class="cls-8" d="M1165.63,517.18h0a2.27,2.27,0,0,1-2.24-2.29l.08-6.8a2.2,2.2,0,0,1,2.3-2.24,2.27,2.27,0,0,1,2.24,2.29l-.08,6.8A2.28,2.28,0,0,1,1165.63,517.18Zm.27-22.67h0a2.27,2.27,0,0,1-2.24-2.29l.09-6.8a2.32,2.32,0,0,1,2.29-2.24,2.27,2.27,0,0,1,2.24,2.29l-.08,6.81A2.27,2.27,0,0,1,1165.9,494.51Zm.27-22.66h0a2.26,2.26,0,0,1-2.24-2.3l.08-6.8a2.26,2.26,0,0,1,2.26-2.24h0a2.27,2.27,0,0,1,2.24,2.3l-.08,6.8A2.27,2.27,0,0,1,1166.17,471.85Zm.28-22.67h0a2.26,2.26,0,0,1-2.24-2.29l.08-6.81a2.26,2.26,0,0,1,2.27-2.23h0a2.25,2.25,0,0,1,2.24,2.29l-.08,6.8A2.27,2.27,0,0,1,1166.45,449.18Z"/><path class="cls-1" d="M712.24,541.14h-.08a3.39,3.39,0,0,1-3.32-3.48L716,235.06a3.45,3.45,0,0,1,3.48-3.32,3.41,3.41,0,0,1,3.32,3.48l-7.14,302.6A3.39,3.39,0,0,1,712.24,541.14Z"/><polygon class="cls-1" points="707.52 248.41 719.32 237.15 730.58 248.96 730.81 239.17 719.55 227.37 707.75 238.63 707.52 248.41"/><g class="cls-10"><polygon class="cls-1" points="712.54 226.69 712.28 247.09 707.35 247.09 707.35 226.69 712.54 226.69"/><polygon class="cls-1" points="712.61 226.69 712.35 247.09 712.28 247.09 712.54 226.69 712.61 226.69"/><polygon class="cls-1" points="712.68 226.69 712.42 247.09 712.35 247.09 712.61 226.69 712.68 226.69"/><polygon class="cls-1" points="712.75 226.69 712.49 247.09 712.42 247.09 712.68 226.69 712.75 226.69"/><polygon class="cls-1" points="712.81 226.69 712.56 247.09 712.49 247.09 712.75 226.69 712.81 226.69"/><polygon class="cls-1" points="712.88 226.69 712.63 247.09 712.56 247.09 712.81 226.69 712.88 226.69"/><polygon class="cls-1" points="712.95 226.69 712.69 247.09 712.63 247.09 712.88 226.69 712.95 226.69"/><polygon class="cls-1" points="713.02 226.69 712.76 247.09 712.69 247.09 712.95 226.69 713.02 226.69"/><polygon class="cls-1" points="713.09 226.69 712.83 247.09 712.76 247.09 713.02 226.69 713.09 226.69"/><polygon class="cls-1" points="713.16 226.69 712.9 247.09 712.83 247.09 713.09 226.69 713.16 226.69"/><polygon class="cls-1" points="713.23 226.69 712.97 247.09 712.9 247.09 713.16 226.69 713.23 226.69"/><polygon class="cls-1" points="713.29 226.69 713.04 247.09 712.97 247.09 713.23 226.69 713.29 226.69"/><polygon class="cls-1" points="713.36 226.69 713.11 247.09 713.04 247.09 713.29 226.69 713.36 226.69"/><polygon class="cls-1" points="713.43 226.69 713.17 247.09 713.11 247.09 713.36 226.69 713.43 226.69"/><polygon class="cls-1" points="713.5 226.69 713.24 247.09 713.17 247.09 713.43 226.69 713.5 226.69"/><polygon class="cls-1" points="713.57 226.69 713.31 247.09 713.24 247.09 713.5 226.69 713.57 226.69"/><polygon class="cls-1" points="713.64 226.69 713.38 247.09 713.31 247.09 713.57 226.69 713.64 226.69"/><polygon class="cls-1" points="713.71 226.69 713.45 247.09 713.38 247.09 713.64 226.69 713.71 226.69"/><polygon class="cls-1" points="713.77 226.69 713.52 247.09 713.45 247.09 713.71 226.69 713.77 226.69"/><polygon class="cls-1" points="713.84 226.69 713.58 247.09 713.52 247.09 713.77 226.69 713.84 226.69"/><polygon class="cls-1" points="713.91 226.69 713.65 247.09 713.58 247.09 713.84 226.69 713.91 226.69"/><polygon class="cls-1" points="713.98 226.69 713.72 247.09 713.65 247.09 713.91 226.69 713.98 226.69"/><polygon class="cls-1" points="714.05 226.69 713.79 247.09 713.72 247.09 713.98 226.69 714.05 226.69"/><polygon class="cls-1" points="714.12 226.69 713.86 247.09 713.79 247.09 714.05 226.69 714.12 226.69"/><polygon class="cls-1" points="714.18 226.69 713.93 247.09 713.86 247.09 714.12 226.69 714.18 226.69"/><polygon class="cls-1" points="714.25 226.69 714 247.09 713.93 247.09 714.18 226.69 714.25 226.69"/><polygon class="cls-1" points="714.32 226.69 714.06 247.09 714 247.09 714.25 226.69 714.32 226.69"/><polygon class="cls-1" points="714.39 226.69 714.13 247.09 714.06 247.09 714.32 226.69 714.39 226.69"/><polygon class="cls-1" points="714.46 226.69 714.2 247.09 714.13 247.09 714.39 226.69 714.46 226.69"/><polygon class="cls-1" points="714.53 226.69 714.27 247.09 714.2 247.09 714.46 226.69 714.53 226.69"/><polygon class="cls-1" points="714.6 226.69 714.34 247.09 714.27 247.09 714.53 226.69 714.6 226.69"/><polygon class="cls-1" points="714.66 226.69 714.41 247.09 714.34 247.09 714.6 226.69 714.66 226.69"/><polygon class="cls-1" points="714.73 226.69 714.48 247.09 714.41 247.09 714.66 226.69 714.73 226.69"/><polygon class="cls-1" points="714.8 226.69 714.54 247.09 714.48 247.09 714.73 226.69 714.8 226.69"/><polygon class="cls-1" points="714.87 226.69 714.61 247.09 714.54 247.09 714.8 226.69 714.87 226.69"/><polygon class="cls-1" points="714.94 226.69 714.68 247.09 714.61 247.09 714.87 226.69 714.94 226.69"/><polygon class="cls-1" points="715.01 226.69 714.75 247.09 714.68 247.09 714.94 226.69 715.01 226.69"/><polygon class="cls-1" points="715.08 226.69 714.82 247.09 714.75 247.09 715.01 226.69 715.08 226.69"/><polygon class="cls-1" points="715.14 226.69 714.89 247.09 714.82 247.09 715.08 226.69 715.14 226.69"/><polygon class="cls-1" points="715.21 226.69 714.95 247.09 714.89 247.09 715.14 226.69 715.21 226.69"/><polygon class="cls-1" points="715.28 226.69 715.02 247.09 714.95 247.09 715.21 226.69 715.28 226.69"/><polygon class="cls-1" points="715.35 226.69 715.09 247.09 715.02 247.09 715.28 226.69 715.35 226.69"/><polygon class="cls-1" points="715.42 226.69 715.16 247.09 715.09 247.09 715.35 226.69 715.42 226.69"/><polygon class="cls-1" points="715.49 226.69 715.23 247.09 715.16 247.09 715.42 226.69 715.49 226.69"/><polygon class="cls-1" points="715.55 226.69 715.3 247.09 715.23 247.09 715.49 226.69 715.55 226.69"/><polygon class="cls-1" points="715.62 226.69 715.37 247.09 715.3 247.09 715.55 226.69 715.62 226.69"/><polygon class="cls-1" points="715.69 226.69 715.43 247.09 715.37 247.09 715.62 226.69 715.69 226.69"/><polygon class="cls-1" points="715.76 226.69 715.5 247.09 715.43 247.09 715.69 226.69 715.76 226.69"/><polygon class="cls-1" points="715.83 226.69 715.57 247.09 715.5 247.09 715.76 226.69 715.83 226.69"/><polygon class="cls-1" points="715.9 226.69 715.64 247.09 715.57 247.09 715.83 226.69 715.9 226.69"/><polygon class="cls-1" points="715.97 226.69 715.71 247.09 715.64 247.09 715.9 226.69 715.97 226.69"/><polygon class="cls-1" points="716.03 226.69 715.78 247.09 715.71 247.09 715.97 226.69 716.03 226.69"/><polygon class="cls-1" points="716.1 226.69 715.85 247.09 715.78 247.09 716.03 226.69 716.1 226.69"/><polygon class="cls-1" points="716.17 226.69 715.91 247.09 715.85 247.09 716.1 226.69 716.17 226.69"/><polygon class="cls-1" points="716.24 226.69 715.98 247.09 715.91 247.09 716.17 226.69 716.24 226.69"/><polygon class="cls-1" points="716.31 226.69 716.05 247.09 715.98 247.09 716.24 226.69 716.31 226.69"/><polygon class="cls-1" points="716.38 226.69 716.12 247.09 716.05 247.09 716.31 226.69 716.38 226.69"/><polygon class="cls-1" points="716.45 226.69 716.19 247.09 716.12 247.09 716.38 226.69 716.45 226.69"/><polygon class="cls-1" points="716.51 226.69 716.26 247.09 716.19 247.09 716.45 226.69 716.51 226.69"/><polygon class="cls-1" points="716.58 226.69 716.32 247.09 716.26 247.09 716.51 226.69 716.58 226.69"/><polygon class="cls-1" points="716.65 226.69 716.39 247.09 716.32 247.09 716.58 226.69 716.65 226.69"/><polygon class="cls-1" points="716.72 226.69 716.46 247.09 716.39 247.09 716.65 226.69 716.72 226.69"/><polygon class="cls-1" points="716.79 226.69 716.53 247.09 716.46 247.09 716.72 226.69 716.79 226.69"/><polygon class="cls-1" points="716.86 226.69 716.6 247.09 716.53 247.09 716.79 226.69 716.86 226.69"/><polygon class="cls-1" points="716.92 226.69 716.67 247.09 716.6 247.09 716.86 226.69 716.92 226.69"/><polygon class="cls-1" points="716.99 226.69 716.74 247.09 716.67 247.09 716.92 226.69 716.99 226.69"/><polygon class="cls-1" points="717.06 226.69 716.8 247.09 716.74 247.09 716.99 226.69 717.06 226.69"/><polygon class="cls-1" points="717.13 226.69 716.87 247.09 716.8 247.09 717.06 226.69 717.13 226.69"/><polygon class="cls-1" points="717.2 226.69 716.94 247.09 716.87 247.09 717.13 226.69 717.2 226.69"/><polygon class="cls-1" points="717.27 226.69 717.01 247.09 716.94 247.09 717.2 226.69 717.27 226.69"/><polygon class="cls-1" points="717.34 226.69 717.08 247.09 717.01 247.09 717.27 226.69 717.34 226.69"/><polygon class="cls-1" points="717.4 226.69 717.15 247.09 717.08 247.09 717.34 226.69 717.4 226.69"/><polygon class="cls-1" points="717.47 226.69 717.22 247.09 717.15 247.09 717.4 226.69 717.47 226.69"/><polygon class="cls-1" points="717.54 226.69 717.28 247.09 717.22 247.09 717.47 226.69 717.54 226.69"/><polygon class="cls-1" points="717.61 226.69 717.35 247.09 717.28 247.09 717.54 226.69 717.61 226.69"/><polygon class="cls-1" points="717.68 226.69 717.42 247.09 717.35 247.09 717.61 226.69 717.68 226.69"/><polygon class="cls-1" points="717.75 226.69 717.49 247.09 717.42 247.09 717.68 226.69 717.75 226.69"/><polygon class="cls-1" points="717.82 226.69 717.56 247.09 717.49 247.09 717.75 226.69 717.82 226.69"/><polygon class="cls-1" points="717.88 226.69 717.63 247.09 717.56 247.09 717.82 226.69 717.88 226.69"/><polygon class="cls-1" points="717.95 226.69 717.7 247.09 717.63 247.09 717.88 226.69 717.95 226.69"/><polygon class="cls-1" points="718.02 226.69 717.76 247.09 717.7 247.09 717.95 226.69 718.02 226.69"/><polygon class="cls-1" points="718.09 226.69 717.83 247.09 717.76 247.09 718.02 226.69 718.09 226.69"/><polygon class="cls-1" points="718.16 226.69 717.9 247.09 717.83 247.09 718.09 226.69 718.16 226.69"/><polygon class="cls-1" points="718.23 226.69 717.97 247.09 717.9 247.09 718.16 226.69 718.23 226.69"/><polygon class="cls-1" points="718.29 226.69 718.04 247.09 717.97 247.09 718.23 226.69 718.29 226.69"/><polygon class="cls-1" points="718.36 226.69 718.11 247.09 718.04 247.09 718.29 226.69 718.36 226.69"/><polygon class="cls-1" points="718.43 226.69 718.17 247.09 718.11 247.09 718.36 226.69 718.43 226.69"/><polygon class="cls-1" points="718.5 226.69 718.24 247.09 718.17 247.09 718.43 226.69 718.5 226.69"/><polygon class="cls-1" points="718.57 226.69 718.31 247.09 718.24 247.09 718.5 226.69 718.57 226.69"/><polygon class="cls-1" points="718.64 226.69 718.38 247.09 718.31 247.09 718.57 226.69 718.64 226.69"/><polygon class="cls-1" points="718.71 226.69 718.45 247.09 718.38 247.09 718.64 226.69 718.71 226.69"/><polygon class="cls-1" points="718.77 226.69 718.52 247.09 718.45 247.09 718.71 226.69 718.77 226.69"/><polygon class="cls-1" points="718.84 226.69 718.59 247.09 718.52 247.09 718.77 226.69 718.84 226.69"/><polygon class="cls-1" points="718.91 226.69 718.65 247.09 718.59 247.09 718.84 226.69 718.91 226.69"/><polygon class="cls-1" points="718.98 226.69 718.72 247.09 718.65 247.09 718.91 226.69 718.98 226.69"/><polygon class="cls-1" points="719.05 226.69 718.79 247.09 718.72 247.09 718.98 226.69 719.05 226.69"/><polygon class="cls-1" points="719.12 226.69 718.86 247.09 718.79 247.09 719.05 226.69 719.12 226.69"/><polygon class="cls-1" points="719.18 226.69 718.93 247.09 718.86 247.09 719.12 226.69 719.18 226.69"/><polygon class="cls-1" points="719.25 226.69 719 247.09 718.93 247.09 719.18 226.69 719.25 226.69"/><polygon class="cls-1" points="719.32 226.69 719.07 247.09 719 247.09 719.25 226.69 719.32 226.69"/><polygon class="cls-1" points="719.39 226.69 719.13 247.09 719.07 247.09 719.32 226.69 719.39 226.69"/><polygon class="cls-1" points="719.46 226.69 719.2 247.09 719.13 247.09 719.39 226.69 719.46 226.69"/><polygon class="cls-1" points="719.53 226.69 719.27 247.09 719.2 247.09 719.46 226.69 719.53 226.69"/><polygon class="cls-1" points="719.6 226.69 719.34 247.09 719.27 247.09 719.53 226.69 719.6 226.69"/><polygon class="cls-1" points="719.66 226.69 719.41 247.09 719.34 247.09 719.6 226.69 719.66 226.69"/><polygon class="cls-1" points="719.73 226.69 719.48 247.09 719.41 247.09 719.66 226.69 719.73 226.69"/><polygon class="cls-1" points="719.8 226.69 719.54 247.09 719.48 247.09 719.73 226.69 719.8 226.69"/><polygon class="cls-1" points="719.87 226.69 719.61 247.09 719.54 247.09 719.8 226.69 719.87 226.69"/><polygon class="cls-1" points="719.94 226.69 719.68 247.09 719.61 247.09 719.87 226.69 719.94 226.69"/><polygon class="cls-1" points="720.01 226.69 719.75 247.09 719.68 247.09 719.94 226.69 720.01 226.69"/><polygon class="cls-1" points="720.08 226.69 719.82 247.09 719.75 247.09 720.01 226.69 720.08 226.69"/><polygon class="cls-1" points="720.14 226.69 719.89 247.09 719.82 247.09 720.08 226.69 720.14 226.69"/><polygon class="cls-1" points="720.21 226.69 719.96 247.09 719.89 247.09 720.14 226.69 720.21 226.69"/><polygon class="cls-1" points="720.28 226.69 720.02 247.09 719.96 247.09 720.21 226.69 720.28 226.69"/><polygon class="cls-1" points="720.35 226.69 720.09 247.09 720.02 247.09 720.28 226.69 720.35 226.69"/><polygon class="cls-1" points="720.42 226.69 720.16 247.09 720.09 247.09 720.35 226.69 720.42 226.69"/><polygon class="cls-1" points="720.49 226.69 720.23 247.09 720.16 247.09 720.42 226.69 720.49 226.69"/><polygon class="cls-1" points="720.56 226.69 720.3 247.09 720.23 247.09 720.49 226.69 720.56 226.69"/><polygon class="cls-1" points="720.62 226.69 720.37 247.09 720.3 247.09 720.56 226.69 720.62 226.69"/><polygon class="cls-1" points="720.69 226.69 720.43 247.09 720.37 247.09 720.62 226.69 720.69 226.69"/><polygon class="cls-1" points="720.76 226.69 720.5 247.09 720.43 247.09 720.69 226.69 720.76 226.69"/><polygon class="cls-1" points="720.83 226.69 720.57 247.09 720.5 247.09 720.76 226.69 720.83 226.69"/><polygon class="cls-1" points="720.9 226.69 720.64 247.09 720.57 247.09 720.83 226.69 720.9 226.69"/><polygon class="cls-1" points="720.97 226.69 720.71 247.09 720.64 247.09 720.9 226.69 720.97 226.69"/><polygon class="cls-1" points="721.03 226.69 720.78 247.09 720.71 247.09 720.97 226.69 721.03 226.69"/><polygon class="cls-1" points="721.1 226.69 720.85 247.09 720.78 247.09 721.03 226.69 721.1 226.69"/><polygon class="cls-1" points="721.17 226.69 720.91 247.09 720.85 247.09 721.1 226.69 721.17 226.69"/><polygon class="cls-1" points="721.24 226.69 720.98 247.09 720.91 247.09 721.17 226.69 721.24 226.69"/><polygon class="cls-1" points="721.31 226.69 721.05 247.09 720.98 247.09 721.24 226.69 721.31 226.69"/><polygon class="cls-1" points="721.38 226.69 721.12 247.09 721.05 247.09 721.31 226.69 721.38 226.69"/><polygon class="cls-1" points="721.45 226.69 721.19 247.09 721.12 247.09 721.38 226.69 721.45 226.69"/><polygon class="cls-1" points="721.51 226.69 721.26 247.09 721.19 247.09 721.45 226.69 721.51 226.69"/><polygon class="cls-1" points="721.58 226.69 721.33 247.09 721.26 247.09 721.51 226.69 721.58 226.69"/><polygon class="cls-1" points="721.65 226.69 721.39 247.09 721.33 247.09 721.58 226.69 721.65 226.69"/><polygon class="cls-1" points="721.72 226.69 721.46 247.09 721.39 247.09 721.65 226.69 721.72 226.69"/><polygon class="cls-1" points="721.79 226.69 721.53 247.09 721.46 247.09 721.72 226.69 721.79 226.69"/><polygon class="cls-1" points="721.86 226.69 721.6 247.09 721.53 247.09 721.79 226.69 721.86 226.69"/><polygon class="cls-1" points="721.93 226.69 721.67 247.09 721.6 247.09 721.86 226.69 721.93 226.69"/><polygon class="cls-1" points="721.99 226.69 721.74 247.09 721.67 247.09 721.93 226.69 721.99 226.69"/><polygon class="cls-1" points="722.06 226.69 721.8 247.09 721.74 247.09 721.99 226.69 722.06 226.69"/><polygon class="cls-1" points="722.13 226.69 721.87 247.09 721.8 247.09 722.06 226.69 722.13 226.69"/><polygon class="cls-1" points="722.2 226.69 721.94 247.09 721.87 247.09 722.13 226.69 722.2 226.69"/><polygon class="cls-1" points="722.27 226.69 722.01 247.09 721.94 247.09 722.2 226.69 722.27 226.69"/><polygon class="cls-1" points="722.34 226.69 722.08 247.09 722.01 247.09 722.27 226.69 722.34 226.69"/><polygon class="cls-1" points="722.4 226.69 722.15 247.09 722.08 247.09 722.34 226.69 722.4 226.69"/><polygon class="cls-1" points="722.47 226.69 722.22 247.09 722.15 247.09 722.4 226.69 722.47 226.69"/><polygon class="cls-1" points="722.54 226.69 722.28 247.09 722.22 247.09 722.47 226.69 722.54 226.69"/><polygon class="cls-1" points="722.61 226.69 722.35 247.09 722.28 247.09 722.54 226.69 722.61 226.69"/><polygon class="cls-1" points="722.68 226.69 722.42 247.09 722.35 247.09 722.61 226.69 722.68 226.69"/><polygon class="cls-1" points="722.75 226.69 722.49 247.09 722.42 247.09 722.68 226.69 722.75 226.69"/><polygon class="cls-1" points="722.82 226.69 722.56 247.09 722.49 247.09 722.75 226.69 722.82 226.69"/><polygon class="cls-1" points="722.88 226.69 722.63 247.09 722.56 247.09 722.82 226.69 722.88 226.69"/><polygon class="cls-1" points="722.95 226.69 722.7 247.09 722.63 247.09 722.88 226.69 722.95 226.69"/><polygon class="cls-1" points="722.7 247.09 722.95 226.69 730.02 226.69 730.02 247.09 722.7 247.09"/></g><path class="cls-1" d="M1228.39,532.85h0l-535.7-6.41a3.4,3.4,0,1,1,.08-6.8l535.7,6.41a3.4,3.4,0,0,1,0,6.8Z"/><polygon class="cls-1" points="1214.7 540.82 1226.38 529.43 1214.98 517.76 1224.77 517.88 1236.16 529.55 1224.49 540.94 1214.7 540.82"/><g class="cls-11"><polygon class="cls-1" points="1217.98 516.85 1217.7 539.52 1215.14 539.52 1215.14 516.85 1217.98 516.85"/><polygon class="cls-1" points="1221.6 516.85 1221.32 539.52 1217.7 539.52 1217.98 516.85 1221.6 516.85"/><polygon class="cls-1" points="1225.22 516.85 1224.94 539.52 1221.32 539.52 1221.6 516.85 1225.22 516.85"/><polygon class="cls-1" points="1228.84 516.85 1228.56 539.52 1224.94 539.52 1225.22 516.85 1228.84 516.85"/><polygon class="cls-1" points="1232.46 516.85 1232.18 539.52 1228.56 539.52 1228.84 516.85 1232.46 516.85"/><polygon class="cls-1" points="1236.08 516.85 1235.8 539.52 1232.18 539.52 1232.46 516.85 1236.08 516.85"/><polygon class="cls-1" points="1235.8 539.52 1236.08 516.85 1235.54 516.85 1235.54 539.52 1235.8 539.52"/></g></g><circle class="cls-12" cx="1369.43" cy="478.1" r="35.01" transform="translate(727.59 1778.85) rotate(-82.98)"/><circle class="cls-12" cx="1456.43" cy="478.1" r="35.01" transform="translate(-73.36 380.62) rotate(-14.53)"/><circle class="cls-12" cx="1543.43" cy="479.25" r="35.01" transform="translate(-68.44 362.15) rotate(-13.09)"/><path class="cls-2" d="M1390.23,470.7a22.49,22.49,0,1,1-20.8-13.94c.38,0,.76,0,1.13,0v-5.7c-.37,0-.75,0-1.13,0a28.16,28.16,0,1,0,26,17.37Z"/><path class="cls-2" d="M1468,498.27a22.49,22.49,0,1,1-12-41.51c.38,0,.76,0,1.13,0v-5.7c-.37,0-.75,0-1.13,0a28.19,28.19,0,1,0,14.81,52.17Z"/><path class="cls-2" d="M1562.2,491.89a22.49,22.49,0,1,1-18.6-35.13q.57,0,1.14,0v-5.7l-1.14,0a28.19,28.19,0,1,0,23.21,44.17Z"/><g class="cls-13"><path class="cls-1" d="M1398,527.94h-57a6.48,6.48,0,1,0,0,13h57a6.48,6.48,0,1,0,0-13Z"/><path class="cls-1" d="M1485,527.94h-57a6.48,6.48,0,1,0,0,13h57a6.48,6.48,0,1,0,0-13Z"/><path class="cls-1" d="M1514.91,540.9h57a6.48,6.48,0,1,0,0-13h-57a6.48,6.48,0,0,0,0,13Z"/><rect class="cls-7" x="1334.42" y="548.11" width="70.01" height="51.15" rx="6.48"/><rect class="cls-7" x="1421.42" y="548.11" width="70.01" height="51.15" rx="6.48"/><rect class="cls-7" x="1508.43" y="548.11" width="70.01" height="51.15" rx="6.48"/></g><g class="cls-14"><path class="cls-2" d="M514.75,546.21c-19.23,0-34.29-44.41-34.29-101.11S495.52,344,514.75,344s34.3,44.42,34.3,101.11S534,546.21,514.75,546.21Zm0-197.68c-14.37,0-29.76,38.8-29.76,96.57s15.39,96.58,29.76,96.58,29.76-38.81,29.76-96.58S529.13,348.53,514.75,348.53Z"/><path class="cls-7" d="M512.37,544.26c-19.23,0-34.29-44.41-34.29-101.11S493.14,342,512.37,342s34.3,44.42,34.3,101.11S531.6,544.26,512.37,544.26Zm0-197.68c-14.37,0-29.76,38.8-29.76,96.57s15.39,96.58,29.76,96.58,29.76-38.81,29.76-96.58S526.74,346.58,512.37,346.58Z"/><path class="cls-2" d="M448.11,505.75c-9.66,0-16.41-2.65-19.6-7.86-10-16.4,20-52.44,68.34-82C519.57,402,542.71,391.74,562,387.1c20.12-4.84,34-3,39,5.22s.38,21.37-13.08,37.09c-12.91,15.08-32.54,31-55.25,44.94s-45.86,24.12-65.17,28.76A84.11,84.11,0,0,1,448.11,505.75ZM581.54,389a81,81,0,0,0-18.47,2.54c-18.85,4.54-41.53,14.56-63.85,28.22-49.28,30.16-74.34,63.54-66.84,75.8,3.86,6.3,16.27,7.46,34.05,3.18,18.86-4.53,41.54-14.55,63.86-28.21s41.56-29.3,54.18-44c11.9-13.9,16.51-25.48,12.65-31.78C594.8,390.89,589.38,389,581.54,389Z"/><path class="cls-7" d="M445.73,503.8c-9.66,0-16.41-2.65-19.6-7.86-10-16.4,20-52.44,68.34-82,22.71-13.9,45.85-24.11,65.16-28.75,20.12-4.84,34-3,39,5.22s.37,21.37-13.08,37.08C572.61,442.54,553,458.5,530.27,472.4s-45.85,24.12-65.16,28.76A84.11,84.11,0,0,1,445.73,503.8ZM579.16,387a81,81,0,0,0-18.47,2.54c-18.86,4.54-41.53,14.56-63.86,28.22-49.27,30.16-74.33,63.54-66.83,75.8,3.85,6.3,16.27,7.46,34.05,3.18,18.86-4.53,41.54-14.55,63.86-28.21s41.56-29.3,54.17-44c11.9-13.9,16.52-25.48,12.66-31.78C592.42,388.94,587,387,579.16,387Z"/><path class="cls-2" d="M581.4,505.75A84.19,84.19,0,0,1,562,503.11c-19.3-4.64-42.44-14.85-65.16-28.76-48.36-29.6-78.37-65.63-68.34-82s55.79-6.06,104.15,23.53h0c22.71,13.91,42.34,29.87,55.25,44.95,13.46,15.71,18.1,28.89,13.08,37.09C597.8,503.1,591.05,505.75,581.4,505.75ZM448.08,389c-7.92,0-13.39,1.94-15.7,5.7-7.5,12.26,17.56,45.65,66.84,75.81,22.32,13.66,45,23.68,63.85,28.21,17.79,4.28,30.2,3.12,34-3.18s-.75-17.88-12.65-31.77c-12.62-14.73-31.86-30.37-54.18-44h0C496.16,398.83,465.93,389,448.08,389Z"/><path class="cls-7" d="M579,503.8a84.19,84.19,0,0,1-19.39-2.64c-19.31-4.64-42.45-14.85-65.16-28.76-48.36-29.6-78.38-65.63-68.34-82s55.79-6.07,104.14,23.53h0c22.72,13.91,42.34,29.87,55.26,45,13.45,15.71,18.1,28.89,13.08,37.09C595.42,501.15,588.67,503.8,579,503.8ZM445.7,387c-7.92,0-13.39,1.94-15.7,5.7-7.5,12.26,17.56,45.65,66.83,75.81,22.33,13.66,45,23.68,63.86,28.21,17.79,4.28,30.2,3.12,34-3.18s-.76-17.88-12.66-31.77c-12.61-14.73-31.85-30.37-54.17-44h0C493.77,396.88,463.54,387,445.7,387Z"/><path class="cls-1" d="M530,442.8a14.44,14.44,0,1,1-14.44-14.43A14.45,14.45,0,0,1,530,442.8Z"/></g><g class="cls-15"><rect class="cls-2" x="430.25" y="159.42" width="183.62" height="45.34" rx="11.6"/><rect class="cls-7" x="426.25" y="154.42" width="183.62" height="45.34" rx="11.6"/><rect class="cls-2" x="430.25" y="213.55" width="183.62" height="45.34" rx="11.6"/><rect class="cls-7" x="426.25" y="208.55" width="183.62" height="45.34" rx="11.6"/><rect class="cls-2" x="430.25" y="268.69" width="183.62" height="45.34" rx="11.6"/><rect class="cls-7" x="426.25" y="263.69" width="183.62" height="45.34" rx="11.6"/></g><path class="cls-1" d="M409.42,1185.71s-2.69,14.44-4.08,28.74a9.87,9.87,0,0,0,9.33,10.78c19.06,1,59.83,2.91,74.47,2.4a3.21,3.21,0,0,0,2.86-4.37h0a7.14,7.14,0,0,0-3.63-3.91l-67.07-31.6Z"/><path class="cls-16" d="M407.41,1177.19l1.89,17.32s11.74,5.61,19.86-.5l-4.7-19.33Z"/><path class="cls-1" d="M412.05,852c-.92,4.5-6.9,225.39,15.77,324.62a3.37,3.37,0,0,1-2,3.89,58.59,58.59,0,0,1-19.27,3.72,5.78,5.78,0,0,1-5.7-4.21c-6.54-23-37.78-138.43-40.95-248.41-3.55-122.89,0-4.18,0-4.18l3.49-75.91Z"/><path class="cls-1" d="M331.86,1192.52s-4.14,7.26-8.26,26.62a6,6,0,0,0,5.23,7.26c6.29.68,16,1.57,23.73,1.59a6,6,0,0,0,6-6.64c-.79-7.09-3.36-18.73-11.55-27.87Z"/><path class="cls-16" d="M328.5,1170.23l4.55,26.21s4.7,3.57,14.11,1.1l-2-28.17Z"/><path class="cls-1" d="M318.52,857.86C298.1,974.24,320,1146,327.57,1179.64a5.23,5.23,0,0,0,4.19,4,35,35,0,0,0,15.11-.46,4.78,4.78,0,0,0,3.49-4.38c1.33-27.13,1-193.78,19.63-259.46a14.91,14.91,0,0,1,5.84-8.19L411,886.66l3.06-40.11Z"/><path class="cls-17" d="M343.47,708.47l-21.66-56.26s-54.41,36.22-63.75,82.71c10.21.85,28.77,3.69,46.88,13.05C309.15,726,343.47,708.47,343.47,708.47Z"/><path class="cls-17" d="M443.7,638.18c-57.87-1.51-121.89,14-121.89,14C303.6,752.72,316.72,869,316.72,869c44.7,12.18,95.43-6.28,95.43-6.28,7.85-42,43.73-160.09,43.73-160.09,28.31-3.24,51.68-11.18,71-21.78-14.47-17.1-21.16-38.75-24-51.54C482.29,635.44,461.55,638.64,443.7,638.18Z"/><path class="cls-16" d="M615.48,554.56a11.07,11.07,0,0,0-12.85-3.75c-8.86,35.9-53.8,64.65-99.82,78.47,2.88,12.79,9.57,34.44,24,51.54C603.41,638.73,615.48,554.56,615.48,554.56Z"/><path class="cls-16" d="M614.08,556.29c.58,1.9-6.34,4.71-10.32-3.06-.11-3.71-2.21-19.62,0-22.62,12-16,35-35.91,35-35.91a5.45,5.45,0,0,1,.61,7.57l-11.21,11.45c2.28,4.22,5.08,7.78,6.36,12.87A15.56,15.56,0,0,1,632.91,538a135.84,135.84,0,0,1-7.23,11.57A15.37,15.37,0,0,1,614.08,556.29Z"/><path class="cls-16" d="M623.29,521.17l-10.2,8.48-3.25,8.5,8.92,10.09s3.19-16.9,5.48-20.55S625.38,522.27,623.29,521.17Z"/><path class="cls-16" d="M390.22,761.66s-61,33.72-81.23,4.24c-4.2-6.13-5.15-12.18-4.05-17.93-18.11-9.36-36.67-12.2-46.88-13.05a64.28,64.28,0,0,0,6.57,44.13c35.25,66,133.48-2.35,133.48-2.35Z"/><path class="cls-16" d="M385.52,590.63l-18.93,53.08a1.92,1.92,0,0,0,.86,2.32c5,2.83,23,11,44.93-2.59A9,9,0,0,0,416.6,637l6.4-46Z"/><path class="cls-18" d="M426.06,541.69s19.86,38.26,17.12,53.62-27.79,14-49.56,1.31l-14.9-41.25Z"/><path class="cls-1" d="M394.78,576.44a1.57,1.57,0,0,0,.71-2.29c-1.6-2.49-4.59-7.57-5.51-12,0,0-3.62-2.36,9.3-5.32s32.19-7.57,36.33-18.5c4-10.66-6.05-37.66-22.77-16.38a1.56,1.56,0,0,1-2.48,0c-2.68-3.55-9.72-10.93-19.65-6.59-9.28,4.06-10.39,10.83-10.29,14.24a1.56,1.56,0,0,1-1.87,1.58c-4.66-.94-15.87-1.81-21.22,9.65-4.4,9.44-1.65,14.83.88,17.48a1.57,1.57,0,0,1-.69,2.59c-3.09.91-7.08,3.48-6.75,10.68.46,9.95,11.59,9.18,14.76,8.76a1.58,1.58,0,0,1,1.39.5c2.69,3,14.8,15.91,28,17.58a1.59,1.59,0,0,0,1.68-2.08l-5.57-16.71a1.58,1.58,0,0,1,.87-2Z"/><path class="cls-19" d="M397.06,578.83s-14.3-10-15.43-1.71,12.85,12.18,19.82,9.14Z"/><path class="cls-8" d="M378.22,820.25l33.93-118.48a3.44,3.44,0,0,1,2.92-2.49c6.15-.72,24-2.73,44.53-4.47,24.77-2.1,53.54-3.8,70.73-2.35a3.46,3.46,0,0,1,2.83,5c-9.77,19.78-50,100.23-70.12,126.58a3.49,3.49,0,0,1-2.8,1.37l-78.72-.73A3.47,3.47,0,0,1,378.22,820.25Z"/><path class="cls-1" d="M377.74,815,411,698.86a3.36,3.36,0,0,1,2.86-2.43c6-.71,23.48-2.68,43.63-4.38,24.27-2.06,52.46-3.72,69.3-2.31a3.4,3.4,0,0,1,2.78,4.89c-9.58,19.38-49,98.21-68.71,124a3.39,3.39,0,0,1-2.74,1.35L381,819.29A3.4,3.4,0,0,1,377.74,815Z"/><path class="cls-16" d="M385.78,786.91s-4.63-19-2.77-25.8,5.49-15.44,17.55-13.51,26.3,7,26.3,7-.72,8.8-9.89,6l5.69,4.4s-.82,7-8.56,3.28l5.29,5.84s-3.33,5.78-9,2.07S401.93,789.2,385.78,786.91Z"/><path class="cls-7" d="M455.26,726.7a9.76,9.76,0,1,0,9.76-9.76A9.76,9.76,0,0,0,455.26,726.7Z"/><path class="cls-8" d="M414.59,733.09l-2.17-.64,6.77-23a10.29,10.29,0,0,1,7.75-7.22c21.43-4.47,79.73-5.42,80.32-5.43l0,2.27c-.58,0-58.66.95-79.89,5.38a8,8,0,0,0-6,5.64Z"/><path class="cls-8" d="M21.32,1058c-3.55,5.24-17.63,124-19.83,167.82a5.18,5.18,0,0,0,5.19,5.43h0a5.18,5.18,0,0,0,5.13-4.39l25.76-165.08Z"/><path class="cls-8" d="M134.55,1058c3.55,5.24,17.63,124,19.84,167.82a5.19,5.19,0,0,1-5.2,5.43h0a5.18,5.18,0,0,1-5.13-4.39L118.3,1061.81Z"/><path class="cls-8" d="M0,1048.76v1.3c-.08,9.31,7.94,17,18,17.12l119.07,2c9.9.17,18.16-7,18.64-16.16l.06-1.18c.5-9.57-7.62-17.62-17.95-17.81l-119.12-2.13C8.49,1031.74.1,1039.31,0,1048.76Z"/><path class="cls-7" d="M250.84,1221.53c-21.16,0-30.53-1.81-34.72-3.47a8,8,0,0,0,7.82,6.22h74.89a3.64,3.64,0,0,0,3.51-4.6C293.8,1220.37,275.67,1221.53,250.84,1221.53Z"/><path class="cls-20" d="M302.34,1219.68a3.57,3.57,0,0,0-.62-1.27c-5.7-7.28-17.16-18.72-32.75-18.5-22.83.32-30.79,2.8-48.53.14l-4.19,13.87a8,8,0,0,0-.13,4.14c4.19,1.66,13.56,3.47,34.72,3.47C275.67,1221.53,293.8,1220.37,302.34,1219.68Z"/><path class="cls-21" d="M225.57,1185.1l-5.13,17.47s11.38,5.18,21.39,1l2-15.14Z"/><path class="cls-7" d="M380.77,1210.53c-16.5,13.26-24.93,17.71-29.23,19a8,8,0,0,0,10-.07l58.37-46.9a3.63,3.63,0,0,0-.13-5.77C413.54,1182.72,400.13,1195,380.77,1210.53Z"/><path class="cls-20" d="M419.76,1176.84a3.57,3.57,0,0,0-1.27-.61c-9-2.07-25.05-3.77-37.06,6.16-17.6,14.55-22.26,21.46-37.75,30.51l5.38,13.39a7.94,7.94,0,0,0,2.48,3.29c4.3-1.34,12.73-5.79,29.23-19C400.13,1195,413.54,1182.72,419.76,1176.84Z"/><path class="cls-1" d="M115.66,986s126.72,10.35,152.72,22.59-21.22,183.76-21.22,183.76-7.07,3.4-22.82-1.49c0,0,16.15-126.58,4.13-154L91.26,1014.38Z"/><path class="cls-22" d="M331.09,1188.81c1.17,1.07,12.59,24.09,12.59,24.09s12.7-2.75,15.3-10.79l-11.44-20.78Z"/><path class="cls-1" d="M39.33,984.93a64.17,64.17,0,0,0-4,23.14c.23,18.27,14.91,33.08,33.15,34l149.81,6.83a7.18,7.18,0,0,1,6.64,5.4c3.52,13.61,20.73,55.43,104.84,138.87a6.77,6.77,0,0,0,8.39.91l12-7.56a2.76,2.76,0,0,0,.91-3.73l-87.23-149a33.77,33.77,0,0,0-20.51-15.21L115.66,986Z"/><path class="cls-23" d="M187,752.25s-16.05,28.38-32.41,42.12l33.82,18.87s7.62-30,25-38.83Z"/><path class="cls-17" d="M36.61,986s40.44,9.86,79.05,0c0,0,54-72.61,74.91-92.38,0,0,33.33,52.6,107.53,60.06l4.14-9.25S243.17,917.19,225,875.35s-25.49-59.68-42-70.59c-10.3-6.8-16.47-11.45-19.66-14a5.27,5.27,0,0,0-6-.39C139.68,801.09,57.07,857.67,36.61,986Z"/><path class="cls-24" d="M293.64,939.59l8.35-2.22,25.36-5.88a11.78,11.78,0,0,1,8.91,1.51l21.8,13.71-60.21-.1Z"/><path class="cls-25" d="M212.45,709.7S228,735.63,230.75,750s7.05,23.29-9.26,28.39-31.46-1.35-41-14.73c0,0-14.85-20.58-13.37-30S212.45,709.7,212.45,709.7Z"/><path class="cls-1" d="M184.86,752.53l2.11-.28s-11.05-16.68-3.82-20.82,36.67-14.3,41.79-25.9c4.93-11.18-2.45-23.81-11.34-26.45a1.14,1.14,0,0,0-1.36.72l-.52,1.41a1.15,1.15,0,0,1-2.12.06h0a1.14,1.14,0,0,0-2.07,0c-1.58,3.47-6.3,9.4-20.46,14-20.1,6.51-32.62,16.64-31.08,30.92a1.15,1.15,0,0,1-1.63,1.16c-1.64-.73-4.13-.84-7,2.32-5,5.5-1.09,17.53,12.64,26a1.15,1.15,0,0,1,.19,1.83c-2.06,1.76-4.95,5.68,4.34,9.17,9.51,3.58,14.7,2.37,16.61,1.6a1.14,1.14,0,0,0,.71-1.28l-2.44-12.51a1.14,1.14,0,0,1,1-1.36Z"/><path class="cls-26" d="M185.72,755.1s-6.88-17-14.11-11,6.68,19.14,13.1,19Z"/><path class="cls-1" d="M270.38,958.52h.29l128.63-.13a5.75,5.75,0,1,0,0-11.49L270.66,947a5.74,5.74,0,0,0-.28,11.48Z"/><path class="cls-1" d="M449.11,832.56c0,.09-.09.17-.13.26L394.86,949.51a5.75,5.75,0,1,0,10.43,4.83l54.12-116.68a5.75,5.75,0,0,0-10.3-5.1Z"/><rect class="cls-8" x="772.36" y="1075.79" width="13.58" height="146.81"/><path class="cls-8" d="M838.6,1225.44H719.69a8.84,8.84,0,0,1,8.84-8.84H829.76a8.84,8.84,0,0,1,8.84,8.84Z"/><rect class="cls-8" x="706.75" y="1042.9" width="149.5" height="42.4" rx="14.6"/><path class="cls-27" d="M678.92,977.9s-20.17,3.13-42.85,18.29a11.31,11.31,0,0,0-5,10.81c2.71,21.51,13.88,91.14,50.7,159.15a17.09,17.09,0,0,1,1.65,11.74l-6.4,29.78-11.86,11.12h30.55l20.35-55.06-8.7-2.75a16.47,16.47,0,0,1-11.5-15.41l-1-59.07c.87-26.31-16.13-44.47-16.13-44.47l48.8-2.37Z"/><path class="cls-20" d="M653.23,1224.16c-2.78,3.64,30,8.45,46.49.48,0,0,22.93-39.89,22.93-60.42,0,0-1.82-4.19-15.28-3.24,0,0-7.7,47.23-15.83,52.52s-22.74.53-22.74.53S657.34,1218.79,653.23,1224.16Z"/><path class="cls-27" d="M721.35,1042.9c-.26-.45-52.55-6.29-52.55-6.29s1.71,15.9-3.63,37.78-82.12,116.7-82.12,116.7l8.05,25.51c-24.88,8.67-49.36,10.06-73.45,4.42l49.88-29.93s46.69-159.09,75.28-187.47l52.41-18.14Z"/><path class="cls-17" d="M838.6,950.33s30.12,44.8,32.59,65.24-8.25,28.74-39.86,30.11-116,1.35-116,1.35l-72-61.55s52.48-18.72,66.12-24S838.6,950.33,838.6,950.33Z"/><path class="cls-20" d="M588.06,1208s8.67,8.39,2.81,17.73c0,0-68.64,12.17-87.28,6.65,0,0,3.87-8.84,24.86-18.89l-1.55,1.19a2.51,2.51,0,0,0,1.66,4.5C542.38,1218.4,571,1215.86,588.06,1208Z"/><path class="cls-1" d="M708.12,666.19c61.57-10.47,90.56,39.75,88.44,50.3a1.94,1.94,0,0,0,2.42,2.22c7.07-1.91,22.69-4.3,32.37,7.83,8.54,10.71,2.16,20.81-3.05,26.36a1.94,1.94,0,0,0,1.62,3.29c13-1.65,41.24-2,45.86,24.42,4.31,24.67-12.86,31.63-23,33.59a1.93,1.93,0,0,0-.64,3.53c5.08,3.23,11,9.89,8.59,23-3.73,20.6-44.12,18.92-48.84,18.65a1.91,1.91,0,0,1-.84-.25l-64.7-36.9a2,2,0,0,1-.95-1.36l-13.06-75.43a1.93,1.93,0,0,1,.51-1.68l-42.18-59.52C675.31,682,707.39,666.31,708.12,666.19Z"/><path class="cls-17" d="M757.13,944.4s-35.07-33.4-52.34-55.53a46.93,46.93,0,0,1-7.95-42.24c7.88-26.56,21.89-54.07,23.17-58.35,2-6.56,41.29-6.29,41.29-6.29s77.4,50.23,107.81,135.32L835,927.94s-20.21-33.9-40.18-55.46c0,0,34.55,45.65,35.77,64.33Z"/><path class="cls-27" d="M715.26,751.6c.41,1.37,10.67,35.4,11.47,36.11s22.52,1.87,32.74-5.11L734.12,733Z"/><path class="cls-28" d="M674.1,707.88s-5,19.49,8.77,45.71,29.26,26.2,37.75,17.8,19-22.63,16.48-48S681.27,683.07,674.1,707.88Z"/><path class="cls-1" d="M718.12,724.78S695.35,690,674,717.37l-.39,10s-25-3-20.63-25.9,26-37.27,53.83-27.33,43.79,20.12,45.58,40.07-14.07,15.57-14.07,15.57-5.18-14-12.54-15.5-5.44,9.49-5.44,9.49Z"/><path class="cls-28" d="M725,728.32s-11.81-17.83.29-20.49,10.23,17.37,8.92,24.78Z"/><path class="cls-27" d="M685.67,946.88,711.44,922,747.1,937.1s35.49,5.5,55.8,0l20.31-5.5,45.9-14.29,7.21,20.37a12.28,12.28,0,0,1-4.48,14.1c-4,2.82-8.63,5.92-11.6,7.22-6,2.64-149-1.83-149-1.83Z"/><path class="cls-1" d="M783.2,958.59h-.34l-149.5-.17a6.69,6.69,0,1,1,0-13.38l149.5.16a6.69,6.69,0,0,1,.33,13.38Z"/><path class="cls-8" d="M492.65,818.23H624.44a25.22,25.22,0,0,1,22.72,13.9l60.92,124.61H544.3a15.26,15.26,0,0,1-14.19-9.31L482.86,832.12C481.25,828.18,478.46,818.23,492.65,818.23Z"/><path class="cls-1" d="M499,822.85H623.47a23.73,23.73,0,0,1,21.46,13.61l57.56,122H547.76a14.43,14.43,0,0,1-13.41-9.12L489.72,836.45A9.94,9.94,0,0,1,499,822.85Z"/><path class="cls-7" d="M586.68,885.43c2.7,8.38.7,16.52-4.45,18.18S570.7,899.82,568,891.44s-.7-16.52,4.46-18.18S584,877.05,586.68,885.43Z"/><path class="cls-1" d="M953.65,1206.93a182,182,0,0,1,2.19,19.06,8.21,8.21,0,0,1-7.4,8.66c-15.3,1.49-50.14,4.23-72.38,1a3.74,3.74,0,0,1-2-6.43c9.17-8.54,31.32-25.16,67.78-28.79Z"/><path class="cls-29" d="M961.25,1187.29l-7.73,19a6.32,6.32,0,0,1-6.49,3.92,33.9,33.9,0,0,1-6.32-1.23,8.29,8.29,0,0,1-5.52-10.32L941,1179.1Z"/><path class="cls-1" d="M1093.53,1222s-15.49,13-21.53,29.59a7.07,7.07,0,0,0,6.71,9.39h31.89a7.53,7.53,0,0,0,7.43-8.8C1116,1240.74,1110.14,1222.08,1093.53,1222Z"/><path class="cls-30" d="M1112.72,1205.17s-3.13,13.85-5.53,23a2.94,2.94,0,0,1-3.83,2c-4.83-1.73-8.75-2.49-11.61-2.11a2.26,2.26,0,0,1-2.49-2.25l-.3-23Z"/><path class="cls-1" d="M1030.32,893.49,936.09,1181s18.07,11.84,26.69,11.35l111.92-231s19.59,142.36,10.1,244.56l32.06,2.45S1169,947.1,1129.5,857.65Z"/><path class="cls-17" d="M1012.66,640.51s76.34,6.78,65.54,61.18c0,0,42.21,79.43,61.94,173a5.5,5.5,0,0,1-4.47,6.54L1008.53,903a6.84,6.84,0,0,1-7.78-5L970.37,780.54l-11.84,54.59-37.61-9.8,31.66-160.41S957,641.52,1012.66,640.51Z"/><path class="cls-7" d="M969.72,775.29l.21,0a1,1,0,0,0,.72-1.13l-10.6-48.66a.95.95,0,1,0-1.85.4l10.6,48.66A1,1,0,0,0,969.72,775.29Z"/><path class="cls-31" d="M977.4,920.1a18.18,18.18,0,0,1,13.13-1.71l8.84,2.21a3.21,3.21,0,0,0,4-2.76l9.16-81.48c11.44,5.44,28,4.79,33.4,4.39l-21.07,96.06H951.09Z"/><path class="cls-32" d="M781.5,743.36l2.22-7.4a14.7,14.7,0,0,1,8.57-9.38l40.3-16.2s.61-5.17-8.51-8.69-7-13.73-7-13.73,12.46,5.69,30.71,14.71c10.44,5.16,16.29,14.26,19.4,21.12l91.33,111.34-10.72,7.37a28.63,28.63,0,0,1-41.51-10.19l-49.48-94.88C832,744.9,806.85,746.32,781.5,743.36Z"/><path class="cls-33" d="M987.92,588.57l23.49,65.73s-20.8,16.25-36,10.75L963.6,627.38S972.64,581.34,987.92,588.57Z"/><path class="cls-34" d="M917.84,565c0,1,22.62,64,22.62,64l35.71-13.69L963.6,552.41S917.84,548,917.84,565Z"/><path class="cls-1" d="M957.34,567.74l9.21,32.6a4.58,4.58,0,0,1,.18,1.27c0,2.66-.66,11.81-10,10.57-8.45-1.13-16.19-2-21.11.28a4.73,4.73,0,0,0-2.44,5.88c2.06,5.72,6.93,18.54,12.87,29a4.72,4.72,0,0,0,6.07,1.94c6.7-3,20.67-9.88,30.61-18a4.73,4.73,0,0,0,1.68-4.54c-1.57-8.34-6.23-33.71-6.43-41-.2-6.82,7.46-12,10.83-14a4.63,4.63,0,0,0,2.19-2.94c1.06-4.39,2-14.33-10.72-16.52a4.75,4.75,0,0,1-3.85-5.64c1.08-5.25.73-13-9.24-15.83-10.14-2.89-16.52,3.21-19.76,7.89a4.74,4.74,0,0,1-5.87,1.57,3.74,3.74,0,0,0-4.2.75,4.66,4.66,0,0,1-6.82-1c-2.95-4.35-8.32-8.69-17.41-5.75-16.14,5.22-15.37,23.82-9.45,33.93s23.08,3.46,31.21-3.24c6.18-5.09,15.59-2.05,19.74-.29A4.67,4.67,0,0,1,957.34,567.74Z"/><path class="cls-35" d="M981.23,597.69S971.68,579.62,978,574s17-4.74,16.72,9.38C994.36,600.9,981.23,597.69,981.23,597.69Z"/><path class="cls-7" d="M1038.48,842a90.12,90.12,0,0,0,9.34-.44l.67-.07,27.8-129.62a.95.95,0,0,0-1.85-.4l-27.51,128.28c-4.14.36-26.23,1.83-37.89-6.44l24.08-112.61-5-9.47a.95.95,0,0,0-1.67.89l4.7,8.86-24.19,113.13.48.36C1015.84,840.78,1029.42,842,1038.48,842Z"/><path class="cls-8" d="M205.05,1237.16a4.5,4.5,0,0,1-1.91-.43,5.49,5.49,0,0,1-2.54-7L302.19,972a4.7,4.7,0,0,1,6.36-2.77,5.48,5.48,0,0,1,2.54,7L209.5,1234A4.85,4.85,0,0,1,205.05,1237.16Z"/><path class="cls-8" d="M319.49,1237.16A4.86,4.86,0,0,1,315,1234L213.45,976.2a5.49,5.49,0,0,1,2.54-7,4.71,4.71,0,0,1,6.36,2.77l101.59,257.76a5.49,5.49,0,0,1-2.53,7A4.58,4.58,0,0,1,319.49,1237.16Z"/><path class="cls-8" d="M894.5,1237.16a4.5,4.5,0,0,1-1.91-.43,5.49,5.49,0,0,1-2.54-7L991.64,972a4.71,4.71,0,0,1,6.37-2.77,5.49,5.49,0,0,1,2.53,7L899,1234A4.85,4.85,0,0,1,894.5,1237.16Z"/><path class="cls-8" d="M1008.94,1237.16a4.86,4.86,0,0,1-4.45-3.2L902.9,976.2a5.49,5.49,0,0,1,2.54-7A4.71,4.71,0,0,1,911.8,972l101.59,257.76a5.49,5.49,0,0,1-2.53,7A4.58,4.58,0,0,1,1008.94,1237.16Z"/><path class="cls-5" d="M879.76,953.81H1026.9V938.63H879.76C882.91,938.63,882.91,953.81,879.76,953.81Z"/><path class="cls-1" d="M1025.9,953.81a1,1,0,0,0,1-1V939.63a1,1,0,0,0-1-1H876.27a1,1,0,0,1-1-1V936.2a1,1,0,0,1,1-1h159a6.35,6.35,0,0,1,6.36,6.35v9.71a6,6,0,0,1-6,6H876.27a1,1,0,0,1-1-1v-1.44a1,1,0,0,1,1-1Z"/><path class="cls-8" d="M1048.22,964.05a4.46,4.46,0,0,0-1.83-4.78,10.93,10.93,0,0,0-6.73-2.1H158c-3.42,0-6.61,1.16-8.45,3.07a4.8,4.8,0,0,0-.66,6.38l9.56,13.71c2.18,3.14,6.92,5.15,12.14,5.15h863c4.86,0,9-2.28,10-5.44Z"/><path class="cls-1" d="M1855.4,919.27l32-21.95a18.14,18.14,0,0,1,10.48-3.17l7,.09s34.47,218.88,30.23,311.75c-.38,8.2-2.31,33-2.31,33s-4.22.51-8.81.88a23.64,23.64,0,0,1-13.55-3l-45.77-25.79Z"/><path class="cls-8" d="M2018.83,896.83l-118.91-2.59a7.08,7.08,0,0,0-7.22,7.58l23,328.32a10.71,10.71,0,0,0,8.3,9.7h0l107.63-4.63a6,6,0,0,0,5.7-5.63c1.81-34,10.52-220.8-10.88-326.35A8,8,0,0,0,2018.83,896.83Z"/><path class="cls-36" d="M1914.26,926.78l.14,2.75a3.83,3.83,0,0,0,3.76,3.63l92.24,1.53a3.82,3.82,0,0,0,3.89-3.83v-5.08a3.83,3.83,0,0,0-3.86-3.83l-92.38.81A3.84,3.84,0,0,0,1914.26,926.78Z"/><path class="cls-36" d="M1917.87,968l.64,5.94a3.83,3.83,0,0,0,3.87,3.41l89.43-1.44a3.82,3.82,0,0,0,3.76-3.83v-5.65a3.83,3.83,0,0,0-3.87-3.83l-90.08,1.16A3.83,3.83,0,0,0,1917.87,968Z"/><path class="cls-36" d="M1919.44,1010.52l.16,1.15a3.82,3.82,0,0,0,3.88,3.31l88.33-2.09a3.83,3.83,0,0,0,3.69-4.45l-.65-3.94a3.83,3.83,0,0,0-4-3.2l-87.84,4.89A3.82,3.82,0,0,0,1919.44,1010.52Z"/><path class="cls-36" d="M1923.19,1049.19h0a3.82,3.82,0,0,0,3.79,3.37h88a3.83,3.83,0,0,0,3.83-3.83v-1.8a3.82,3.82,0,0,0-3.9-3.82l-88,1.79A3.82,3.82,0,0,0,1923.19,1049.19Z"/><path class="cls-36" d="M1929.78,1089.76l9.53,128.4a3.83,3.83,0,0,0,4.09,3.54l73.62-5.26a3.82,3.82,0,0,0,3.55-3.87l-1.74-123.15a3.82,3.82,0,0,0-3.82-3.77H1933.6A3.83,3.83,0,0,0,1929.78,1089.76Z"/><path class="cls-3" d="M2008.85,1197a3.4,3.4,0,0,1-3.4-3.4v-87.89a5.34,5.34,0,0,0-5.35-5.35h0c-52.74.24-53.71,0-54.35-.13a3.4,3.4,0,0,1,1.23-6.68c2.07.15,21.85.15,53.09,0a12.29,12.29,0,0,1,8.62,3.54,12.06,12.06,0,0,1,3.58,8.61v87.89A3.4,3.4,0,0,1,2008.85,1197Z"/><path class="cls-3" d="M2016.21,1077.58h-85.46a9.34,9.34,0,0,1-9.23-8.09c-8.34-63-13.2-111.49-15.29-152.52a9.29,9.29,0,0,1,9.52-9.77l97.49,2.47a9.29,9.29,0,0,1,9.06,9.1l3.2,149.31a9.31,9.31,0,0,1-9.29,9.5ZM1915.52,914a2.48,2.48,0,0,0-2.5,2.62c2.08,40.84,6.93,89.14,15.25,152a2.51,2.51,0,0,0,2.48,2.18h85.46a2.51,2.51,0,0,0,2.5-2.56l-3.21-149.3a2.51,2.51,0,0,0-2.44-2.45L1915.58,914Z"/><path class="cls-3" d="M2014.29,951.52h0L1914.79,950a3.4,3.4,0,1,1,.11-6.8l99.44,1.57a3.4,3.4,0,0,1,0,6.8Z"/><path class="cls-3" d="M2014.29,995.44h-91.13a3.4,3.4,0,0,1,0-6.8h91.13a3.4,3.4,0,1,1,0,6.8Z"/><path class="cls-3" d="M1952.89,1034.78c-27.18,0-27.9-.22-28.32-.35a3.4,3.4,0,0,1,1.55-6.61c3.73.28,55.36.13,89.41,0h0a3.4,3.4,0,0,1,0,6.8C1986.15,1034.73,1966.3,1034.78,1952.89,1034.78Z"/><path class="cls-1" d="M1389.26,926.41l-32-21.95a18.18,18.18,0,0,0-10.47-3.17l-7,.1s-34.46,218.88-30.22,311.74c.38,8.21,2.31,33,2.31,33s4.22.5,8.81.88a23.73,23.73,0,0,0,13.55-3l45.77-25.79Z"/><path class="cls-8" d="M1225.83,904l118.91-2.58A7.09,7.09,0,0,1,1352,909l-23,328.32a10.74,10.74,0,0,1-8.3,9.71h0L1213,1242.35a6,6,0,0,1-5.69-5.63c-1.82-34-10.53-220.8,10.87-326.35A8,8,0,0,1,1225.83,904Z"/><path class="cls-36" d="M1330.39,933.92l-.13,2.75a3.84,3.84,0,0,1-3.76,3.64l-92.24,1.52a3.82,3.82,0,0,1-3.89-3.82v-5.09a3.83,3.83,0,0,1,3.86-3.83l92.37.81A3.83,3.83,0,0,1,1330.39,933.92Z"/><path class="cls-36" d="M1326.79,975.12l-.64,5.94a3.82,3.82,0,0,1-3.87,3.41L1232.85,983a3.81,3.81,0,0,1-3.76-3.82v-5.66a3.82,3.82,0,0,1,3.87-3.82l90.07,1.15A3.83,3.83,0,0,1,1326.79,975.12Z"/><path class="cls-36" d="M1325.21,1017.66l-.15,1.16a3.83,3.83,0,0,1-3.88,3.31l-88.33-2.1a3.83,3.83,0,0,1-3.69-4.45l.65-3.94a3.83,3.83,0,0,1,4-3.2l87.83,4.89A3.82,3.82,0,0,1,1325.21,1017.66Z"/><path class="cls-36" d="M1321.47,1056.33h0a3.83,3.83,0,0,1-3.8,3.37h-88a3.82,3.82,0,0,1-3.82-3.83v-1.79a3.83,3.83,0,0,1,3.9-3.83l88,1.8A3.82,3.82,0,0,1,1321.47,1056.33Z"/><path class="cls-36" d="M1314.87,1096.91l-9.52,128.39a3.83,3.83,0,0,1-4.09,3.54l-73.62-5.25a3.83,3.83,0,0,1-3.55-3.87l1.73-123.15a3.83,3.83,0,0,1,3.83-3.77h81.41A3.82,3.82,0,0,1,1314.87,1096.91Z"/><path class="cls-3" d="M1235.81,1204.11a3.41,3.41,0,0,1-3.41-3.4v-87.9a12.15,12.15,0,0,1,12.15-12.15h.06c31.23.14,51,.14,53.09,0a3.4,3.4,0,0,1,1.23,6.69c-.64.14-1.6.36-54.35.12a5.34,5.34,0,0,0-5.37,5.35v87.9A3.4,3.4,0,0,1,1235.81,1204.11Z"/><path class="cls-3" d="M1313.91,1084.72h-85.46a9.31,9.31,0,0,1-9.3-9.5l3.21-149.3a9.28,9.28,0,0,1,9.06-9.1l97.48-2.48a9.31,9.31,0,0,1,9.53,9.77c-2.09,41-7,89.51-15.3,152.53A9.32,9.32,0,0,1,1313.91,1084.72Zm15.23-163.58h-.06l-97.49,2.47a2.5,2.5,0,0,0-2.43,2.45L1226,1075.37a2.47,2.47,0,0,0,.72,1.8,2.43,2.43,0,0,0,1.78.75h85.46a2.5,2.5,0,0,0,2.48-2.17c8.32-62.84,13.16-111.13,15.25-152a2.44,2.44,0,0,0-.7-1.87A2.5,2.5,0,0,0,1329.14,921.14Zm-.15-3.4h0Z"/><path class="cls-3" d="M1230.37,958.66a3.4,3.4,0,0,1,0-6.8l99.44-1.56a3.4,3.4,0,1,1,.11,6.8l-99.45,1.56Z"/><path class="cls-3" d="M1321.5,1002.58h-91.13a3.4,3.4,0,1,1,0-6.8h91.13a3.4,3.4,0,1,1,0,6.8Z"/><path class="cls-3" d="M1291.76,1041.92c-13.4,0-33.25-.05-62.67-.2a3.4,3.4,0,0,1,0-6.8h0c34,.17,85.68.32,89.41,0a3.4,3.4,0,0,1,1.55,6.6C1319.67,1041.7,1318.94,1041.92,1291.76,1041.92Z"/><rect class="cls-1" x="1398.76" y="829.69" width="444.31" height="371.77"/><path class="cls-17" d="M1859.72,780l-478.54,3c-6.5.05-11.75,4.8-11.75,10.62v71.41c0,5.6,5.06,10.18,11.31,10.22l479,3c7.1.05,12.87-4.77,12.87-10.76V790.78C1872.59,784.79,1866.82,780,1859.72,780Z"/><path class="cls-7" d="M1859.72,780l-479,3c-6.25,0-11.31,4.61-11.31,10.21l503.16-2.46C1872.59,784.79,1866.82,780,1859.72,780Z"/><path class="cls-2" d="M1380.74,875.27l479,3c7.1.05,12.87-4.77,12.87-10.76l-503.16-2.47C1369.43,870.65,1374.49,875.23,1380.74,875.27Z"/><path class="cls-17" d="M1860.1,899.1l-478.9-1c-6.7,0-12.18,4.84-12.26,10.83l-.89,73.72c-.07,5.79,5.11,10.54,11.58,10.59l480.44,4.21c6.92.06,12.52-4.76,12.52-10.76V909.94C1872.59,904,1867,899.11,1860.1,899.1Z"/><path class="cls-7" d="M1860.1,899.1l-479.35-1c-6.45,0-11.73,4.66-11.8,10.43l503.64,1.41C1872.59,904,1867,899.11,1860.1,899.1Z"/><path class="cls-2" d="M1379.63,993.24l480.44,4.21c6.92.06,12.52-4.76,12.52-10.76l-504.54-4C1368,988.44,1373.16,993.19,1379.63,993.24Z"/><path class="cls-17" d="M1860.53,1018.51H1382c-6.92,0-12.53,5-12.53,11.26v76.32c0,6,5.4,10.85,12.07,10.85h479c6.66,0,12.06-4.86,12.06-10.85v-76.74C1872.59,1023.36,1867.19,1018.51,1860.53,1018.51Z"/><path class="cls-7" d="M1860.53,1018.51h-479c-6.67,0-12.07,4.85-12.07,10.84h503.16C1872.59,1023.36,1867.19,1018.51,1860.53,1018.51Z"/><path class="cls-2" d="M1381.5,1116.94h479c6.66,0,12.06-4.86,12.06-10.85H1369.43C1369.43,1112.08,1374.83,1116.94,1381.5,1116.94Z"/><path class="cls-17" d="M1861,1139.72l-478.83-1.87c-7,0-12.77,5-12.77,11.22v76.32c0,6,5.5,10.84,12.29,10.85l479.05.18c6.55,0,11.87-4.76,11.88-10.64l.22-75.36C1872.88,1144.54,1867.59,1139.75,1861,1139.72Z"/><path class="cls-7" d="M1861,1139.72l-479.31-1.87c-6.78,0-12.29,4.81-12.29,10.8l503.44,1.77C1872.88,1144.54,1867.59,1139.75,1861,1139.72Z"/><path class="cls-2" d="M1381.72,1236.24l479.05.18c6.55,0,11.87-4.76,11.88-10.64l-503.22-.39C1369.43,1231.38,1374.93,1236.23,1381.72,1236.24Z"/></g></g></svg>