<?xml version="1.0" encoding="utf-8"?>
<!-- Generator: Adobe Illustrator 24.1.2, SVG Export Plug-In . SVG Version: 6.00 Build 0)  -->
<svg version="1.1" id="Capa_1" xmlns="http://www.w3.org/2000/svg" xmlns:xlink="http://www.w3.org/1999/xlink" x="0px" y="0px"
	 viewBox="0 0 512 512" style="enable-background:new 0 0 512 512;" xml:space="preserve">
<style type="text/css">
	.st0{fill:#EDCD00;}
</style>
<g>
	<path class="st0" d="M272.6,325.2c-9.6-3.4-20.1-7.4-25.8-11.9c-0.3-0.2-0.7-1.2-0.7-2.8c0-3.4,1.9-7.2,5.5-8.3
		c6.2-1.9,12.1-0.6,16,2.2c6.1,5.6,15.6,5.1,21.2-1c5.6-6.1,5.2-15.5-0.9-21.1c-0.1-0.1-0.1,0,0-0.2c-3.4-3.1-9.3-6.8-16.9-9.1v-1.3
		c0-8.3-6.7-15-15-15c-8.1,0-15,6.5-15,15.2v2c-27,9.8-33.3,46.9-12.6,63c9.4,7.4,22.9,12.5,34.3,16.5c6.1,2.2,8.4,6.5,7.5,11.8
		c-0.8,4.5-4.6,12-14.2,12.1c-10,0.1-12.4-0.3-19.7-5.1c-6.9-4.5-16.2-2.6-20.8,4.3c-4.4,6.8-2.8,16.3,4.3,20.9
		c8,5.2,14.3,7.8,21.2,9v1.4c0,8.3,6.7,15,15,15c8.1,0,15-6.5,15-15.2v-3C307.6,391.8,311.9,339.1,272.6,325.2L272.6,325.2z"/>
	<path class="st0" d="M484.6,249.9c2.6-3,3.8-6.7,3.7-10.2c-1-44.2-19.1-83.7-57.9-104.5c-23.8-12.7-51.6-16.5-78.6-16
		c0.1,0-1.4,1.9,33.9-45.4c23.6-28.3,4.8-71.3-31.7-73.6c-3.2-0.2-6.3-0.4-10,1.7c-1.4,0.8-2.8,1.8-3.9,3
		C340,5,323.8,21.8,296.2,30.4C283.4,9.6,261.8,2.1,260.7,1.8c-3.1-1-6.6-1.1-10,0.2c-12.5,4.5-26.7,14.9-35,28.5
		c-14.9-4.6-32.1-14.1-43.3-25.1c-1.9-1.9-3.6-3.6-6.9-4.6c-1.3-0.4-3-0.7-4.6-0.7c-38.3,0-58.9,44.5-34.6,73.7l33.9,45.4
		c-15.2-0.3-30.4,0.8-45.1,4c-60,13-90.1,58.3-91.4,116.5c-0.2,8.3,6.4,15.1,14.7,15.3c8.3,0.2,15.1-6.4,15.3-14.7
		c0.5-22.6,6.6-53.7,32.7-72.8c21.7-15.9,51.3-19.3,77.9-18.2c-99.1,136.4-96.6,133-96.8,133.3c-46.1,67-22.9,159,48.6,196.1
		c3.6,1.9,5.5,2.7,10.1,4.8c85.8,38,173.7,38,259.5,0c2.5-1.1,5.1-2.3,7.6-3.5c70.9-34.9,96.3-123.7,55.2-191.1
		c-3.8-6.2,3.2,3.7-100.9-139.6c26.7-1.1,56.2,2.3,77.9,18.2c26.1,19.2,32.2,50.2,32.7,72.8C458.6,254.1,475.7,260.1,484.6,249.9z
		 M421.5,302.2c34.5,53.6,13.8,125.6-44,152.1c-80.7,37-162.2,37-242.9,0c-58.1-26.6-78.4-98.8-44-152.1
		c1.8-2.8-6.6,8.9,108.3-149.3c9.8,1.6,20.2,3.7,30.9,6.3c-3.7,14.4-10.8,28.5-22.7,37.5c-9.5,7.1-7.3,21.8,3.6,26
		c1.4,0.5,3.3,1,5.4,1c5.6,0,8.9-2.8,12.6-5.9c13-11,21.9-25.8,27.4-42.1c5.6,16.4,14.5,31.1,27.4,42.1c3.8,3.2,7,5.9,12.6,5.9
		c1.7,0,3.6-0.3,5.4-1c11-4.2,13.1-18.9,3.7-26c-11.9-8.9-18.9-23.1-22.7-37.5c0.4,0,12.6-3.3,30.9-6.3
		C428.7,311.9,419.7,299.4,421.5,302.2L421.5,302.2z M150,55.5c-0.9-1.2-4.4-4.7-4.2-10.9c0.3-6.5,4.5-11.9,10-13.8
		c15,13.1,35,24.1,56.8,29.9c1.9,0.5,8.6,2.2,10.4,2.2c7,0.5,13.2-3.9,15.3-10.2c2.3-7,7.1-12.9,13.2-17.3c3.1-2.2,4.5-2.8,4.5-2.9
		c0.1,0,0,0,0.1,0c0.9,0.2,5.4,3.4,8,5.7c8.3,7.5,9.2,13.9,10.8,16.9c1.3,2.4,3.3,4.5,6,6c5.1,2.8,9.3,1.9,14.9,0.5
		c23.8-6,44.1-16.5,60.5-30.9c8.7,3,13.2,14.4,7.2,22.8c-0.9,1.2,0,0-2.9,3.8c-3.2,4.2-18.4,24.7-48.8,65.3
		c-18.6,2.9-37.6,7.3-55.7,12.3c-17.9-5.1-37-9.5-55.7-12.3C200.2,122.8,199.5,121.7,150,55.5L150,55.5z"/>
</g>
</svg>
