<svg xmlns="http://www.w3.org/2000/svg" viewBox="0 0 520 343.65"><defs><style>.cls-1{fill:#edcd00;stroke:#edcd00;stroke-miterlimit:10;stroke-width:8px;}</style></defs><g id="Camada_2" data-name="Camada 2"><g id="Capa_1" data-name="Capa 1"><path class="cls-1" d="M99.68,324.64H19.52a.51.51,0,0,1-.52-.51V244a7.5,7.5,0,0,0-15,0v80.16a15.53,15.53,0,0,0,15.52,15.51H99.68a7.5,7.5,0,0,0,0-15Z"/><path class="cls-1" d="M11.5,107.18a7.5,7.5,0,0,0,7.5-7.5V19.52a.52.52,0,0,1,.52-.52H99.68a7.5,7.5,0,0,0,0-15H19.52A15.53,15.53,0,0,0,4,19.52V99.68A7.5,7.5,0,0,0,11.5,107.18Z"/><path class="cls-1" d="M508.5,236.47A7.5,7.5,0,0,0,501,244v80.16a.52.52,0,0,1-.52.52H420.32a7.5,7.5,0,0,0,0,15h80.16A15.53,15.53,0,0,0,516,324.13V244A7.5,7.5,0,0,0,508.5,236.47Z"/><path class="cls-1" d="M500.48,4H420.32a7.5,7.5,0,0,0,0,15h80.16a.52.52,0,0,1,.52.52V99.68a7.5,7.5,0,1,0,15,0V19.52A15.53,15.53,0,0,0,500.48,4Z"/><path class="cls-1" d="M340.48,209.1a7.5,7.5,0,0,0-10.57.93,41.25,41.25,0,0,1-4.11,4.24c-7.45,6.64-16.84,10-27.91,10a52.45,52.45,0,1,1,29.32-95.94,7.5,7.5,0,1,0,8.39-12.43,67.45,67.45,0,1,0-37.71,123.37c14.65,0,27.75-4.77,37.89-13.8a55.08,55.08,0,0,0,5.62-5.8A7.51,7.51,0,0,0,340.48,209.1Z"/><path class="cls-1" d="M382.36,181.77l48.36,55A7.5,7.5,0,0,0,442,226.82L402.27,181.7h1.16c22.29,0,40.43-17.34,40.43-38.65s-18.14-38.66-40.43-38.66H371.57a7.54,7.54,0,0,0-7.5,7.5h0V231.77a7.5,7.5,0,0,0,15,0v-50l3.33,0ZM428.85,143c0,12.82-11.64,23.65-25.42,23.65-4.91,0-16.59.05-24.4.08V119.38h24.4c13.78,0,25.42,10.83,25.42,23.65Z"/><path class="cls-1" d="M143.59,104.38A67.45,67.45,0,1,0,211,171.82a67.51,67.51,0,0,0-67.45-67.44Zm0,119.89A52.45,52.45,0,1,1,196,171.82,52.5,52.5,0,0,1,143.59,224.27Z"/></g></g></svg>