<svg xmlns="http://www.w3.org/2000/svg" viewBox="0 0 494 512"><defs><style>.cls-1{fill:#edcd00;}</style></defs><g id="Camada_2" data-name="Camada 2"><g id="Capa_1" data-name="Capa 1"><path class="cls-1" d="M118.74,209H87a15,15,0,0,0-15,15.05L72.22,338a15,15,0,0,0,30,0V303.4c6.13,0,12.69-.06,16.52-.06,26.36,0,47.8-21.16,47.8-47.17S145.1,209,118.74,209Zm0,64.34c-3.87,0-10.44,0-16.6.06,0-6.39-.06-13.27-.06-17.23,0-3.39,0-10.49,0-17.17h16.7c9.65,0,17.8,7.86,17.8,17.17S128.39,273.34,118.74,273.34Z"/><path class="cls-1" d="M246.33,209H215a15,15,0,0,0-15,15s.22,110.24.22,110.64a15,15,0,0,0,15,14.95h.06c.95,0,23.3-.09,32.23-.24,33.89-.6,58.49-30.06,58.49-70.07,0-42.05-24-70.31-59.67-70.31ZM247,319.38c-3.89.07-10.57.12-16.82.16,0-13-.12-67-.14-80.54h16.3c27.53,0,29.67,30.85,29.67,40.31,0,19.69-9,39.72-29,40.07Z"/><path class="cls-1" d="M404.86,237.84a15,15,0,0,0,0-30H359a15,15,0,0,0-15,15V336a15,15,0,0,0,30,0V293.35h27.22a15,15,0,0,0,0-30H374V237.84Z"/><path class="cls-1" d="M449,145H438v-4.28a74.72,74.72,0,0,0-20.57-51.6L355.12,23.4A75.29,75.29,0,0,0,300.7,0H101A45.05,45.05,0,0,0,56,45V145H45A45.05,45.05,0,0,0,0,190V370a45.05,45.05,0,0,0,45,45H56v52a45.05,45.05,0,0,0,45,45H393a45.05,45.05,0,0,0,45-45V415h11a45.05,45.05,0,0,0,45-45V190A45.05,45.05,0,0,0,449,145ZM86,45a15,15,0,0,1,15-15H300.7a45.19,45.19,0,0,1,32.65,14l62.31,65.72a44.82,44.82,0,0,1,12.34,31V145H86ZM408,467a15,15,0,0,1-15,15H101a15,15,0,0,1-15-15V415H408Zm56-97a15,15,0,0,1-15,15H45a15,15,0,0,1-15-15V190a15,15,0,0,1,15-15H449a15,15,0,0,1,15,15Z"/></g></g></svg>