<svg xmlns="http://www.w3.org/2000/svg" viewBox="0 0 494 512"><defs><style>.cls-1{fill:#edcd00;}</style></defs><g id="Camada_2" data-name="Camada 2"><g id="Camada_1-2" data-name="Camada 1"><g id="Camada_2-2" data-name="Camada 2"><g id="Capa_1" data-name="Capa 1"><path class="cls-1" d="M70,245.44H54.67a7.26,7.26,0,0,0-7.26,7.26v0l.1,55.13a7.26,7.26,0,0,0,14.52,0V291.12c3,0,6.14,0,8,0a22.83,22.83,0,1,0,0-45.65Zm0,31.13c-1.87,0-5,0-8,0,0-3.09,0-6.42,0-8.33V260H70a8.31,8.31,0,1,1,0,16.61Z"/><path class="cls-1" d="M131.76,245.44H116.6a7.26,7.26,0,0,0-7.26,7.26h0s.11,53.34.11,53.53a7.26,7.26,0,0,0,7.26,7.24h0c.46,0,11.28-.05,15.6-.12,16.4-.29,28.3-14.54,28.3-33.9,0-20.35-11.61-34-28.87-34Zm.32,53.41c-1.88,0-5.11.06-8.14.08,0-6.29,0-32.42-.06-39h7.88c13.32,0,14.36,14.93,14.36,19.5,0,9.53-4.36,19.22-14,19.39Z"/><path class="cls-1" d="M208.46,259.4a7.26,7.26,0,1,0,0-14.52H186.27a7.26,7.26,0,0,0-7.25,7.26h0v54.75a7.26,7.26,0,1,0,14.51,0V286.26H206.7a7.26,7.26,0,1,0,0-14.52H193.53V259.4Z"/><path class="cls-1" d="M449,145H438v-4.28a74.74,74.74,0,0,0-20.57-51.6L355.12,23.4A75.29,75.29,0,0,0,300.7,0H101A45.05,45.05,0,0,0,56,45V145H45A45.05,45.05,0,0,0,0,190V370a45.05,45.05,0,0,0,45,45H56v52a45.05,45.05,0,0,0,45,45H393a45.05,45.05,0,0,0,45-45V415h11a45.05,45.05,0,0,0,45-45V190A45.05,45.05,0,0,0,449,145ZM86,45a15,15,0,0,1,15-15H300.7a45.17,45.17,0,0,1,32.65,14l62.31,65.72a44.81,44.81,0,0,1,12.34,31V145H86ZM408,467a15,15,0,0,1-15,15H101a15,15,0,0,1-15-15V415H408Zm56-97a15,15,0,0,1-15,15H45a15,15,0,0,1-15-15V190a15,15,0,0,1,15-15H449a15,15,0,0,1,15,15Z"/></g></g><path class="cls-1" d="M275.15,301.23l15.11-22.09-12.75-19.65a39.44,39.44,0,0,1-2.65-4.91,9.82,9.82,0,0,1-.9-4,4.55,4.55,0,0,1,1.73-3.48,6.08,6.08,0,0,1,4.22-1.55,5.86,5.86,0,0,1,4.45,1.69,40.18,40.18,0,0,1,4.41,6.25L298.91,270l10.87-16.42,2.28-3.56a18.86,18.86,0,0,1,1.82-2.44,5.57,5.57,0,0,1,4.47-1.92,5.89,5.89,0,0,1,4.23,1.54,4.93,4.93,0,0,1,1.64,3.67q0,3.09-3.56,8.39l-13.33,19.93,14.34,22.09a36.58,36.58,0,0,1,2.84,4.83,8.73,8.73,0,0,1,.88,3.62,5.69,5.69,0,0,1-3,5.07,6.77,6.77,0,0,1-3.23.79,6.36,6.36,0,0,1-3.28-.81,6.92,6.92,0,0,1-2.16-2q-.84-1.2-3.09-4.66l-11.91-18.72L286,308.61c-1,1.54-1.68,2.61-2.1,3.23a12.28,12.28,0,0,1-1.49,1.8,6.57,6.57,0,0,1-2.08,1.38,7.08,7.08,0,0,1-2.84.51,5.45,5.45,0,0,1-5.72-5.95C271.79,307.3,272.9,304.52,275.15,301.23Z"/><path class="cls-1" d="M357.52,304.18,346.69,261.1v46.68c0,2.59-.58,4.52-1.73,5.82a6.35,6.35,0,0,1-9,.15l-.13-.13q-1.75-1.89-1.75-5.84V254.27q0-4.43,2.3-6a11.07,11.07,0,0,1,6.23-1.55h4.25a15.9,15.9,0,0,1,5.56.7,4.6,4.6,0,0,1,2.56,2.49,37.64,37.64,0,0,1,1.89,5.85l9.83,37,9.83-37a37.64,37.64,0,0,1,1.89-5.85,4.63,4.63,0,0,1,2.56-2.49,15.9,15.9,0,0,1,5.56-.7h4.25A11,11,0,0,1,397,248.3q2.31,1.55,2.31,6v53.51c0,2.59-.57,4.52-1.73,5.82a5.9,5.9,0,0,1-4.63,1.93,5.77,5.77,0,0,1-4.48-1.93q-1.75-2-1.75-5.82V261.1l-10.86,43.08q-1.06,4.2-1.73,6.14a8.5,8.5,0,0,1-2.47,3.58,7.18,7.18,0,0,1-5,1.61,7.29,7.29,0,0,1-6.64-3.69,15.2,15.2,0,0,1-1.45-3.57Z"/><path class="cls-1" d="M426.82,253.9v49.22h27.76a7.33,7.33,0,0,1,5.1,1.62,5.27,5.27,0,0,1,1.78,4.06,5.13,5.13,0,0,1-1.76,4,7.51,7.51,0,0,1-5.12,1.54H421.52q-4.49,0-6.43-2c-1.31-1.33-2-3.46-2-6.42V253.9c0-2.76.63-4.84,1.89-6.22a6.26,6.26,0,0,1,4.91-2.08,6.54,6.54,0,0,1,5,2.06C426.18,249,426.82,251.11,426.82,253.9Z"/><path class="cls-1" d="M256.76,276.74a22.66,22.66,0,0,1-2.34-.05H231.55a3.28,3.28,0,0,0-3.05,1.88,10.91,10.91,0,0,0-1,5,10.36,10.36,0,0,0,1,4.92,3.24,3.24,0,0,0,3,1.89h25.38a3.27,3.27,0,0,0,3.12-2c.65-1.31,1-3.45,1-6.44v-5.29c-1.25-.22-3.52.07-.82,0C260.13,276.69,257.15,276.81,256.76,276.74Z"/><path class="cls-1" d="M237.24,276.74a22.66,22.66,0,0,0,2.34-.05h22.87a3.28,3.28,0,0,1,3.05,1.88,10.91,10.91,0,0,1,1,5,10.36,10.36,0,0,1-1,4.92,3.24,3.24,0,0,1-3,1.89H237.07a3.27,3.27,0,0,1-3.12-2c-.65-1.31-1-3.45-1-6.44v-5.29c1.25-.22,3.52.07.82,0C233.87,276.69,236.85,276.81,237.24,276.74Z"/></g></g></svg>