<svg xmlns="http://www.w3.org/2000/svg" viewBox="0 0 1648.64 763.53"><defs><style>.cls-1{fill:#edcd00;}.cls-2{opacity:0.15;}.cls-3{fill:#fff;}</style></defs><g id="Camada_2" data-name="Camada 2"><g id="Camada_1-2" data-name="Camada 1"><g id="Camada_2-2" data-name="Camada 2"><g id="Camada_1-2-2" data-name="Camada 1-2"><g id="Plants"><path class="cls-1" d="M1648.63,176.1s1-52.09-19.25-95.31-52-72.73-84.38-79.67-62.81,19.66-30.54,45,91.67,54.7,110,135.83Z"/><g class="cls-2"><path d="M1648.63,176.1s1-52.09-19.25-95.31-52-72.73-84.38-79.67-62.81,19.66-30.54,45,91.67,54.7,110,135.83Z"/></g><path class="cls-3" d="M1640.81,161.5a2.14,2.14,0,0,0,.35-.06,1.76,1.76,0,0,0,1.27-2.14h0C1619.2,69.65,1558.18,25.4,1529.16,14.53a1.76,1.76,0,0,0-1.24,3.3h0C1556.35,28.48,1616.15,72,1639,160.18A1.77,1.77,0,0,0,1640.81,161.5Z"/><path class="cls-1" d="M1481.28,124.18c1.89,6.69,8.29,10.95,14.31,14.45s12.56,7.25,15.16,13.7c5.23,13-8.62,28.27-2.83,41,2.43,5.36,7.89,8.78,13.47,10.63,4.64,1.58,9.49,2.27,14.26,3.37a61.88,61.88,0,0,0,6.94.45c6.76,0,14,.71,19.58,5,8.78,6.74,10,19.22,14.44,29.36,5.36,12.13,16.61,21.19,29.28,24.8,10.63,3,27.21,2.89,30.7-1.5,2.65-3.34-2.12-15.23-1.65-19.46a174.71,174.71,0,0,0,.53-32.74c-.41-5.31-.76-9.63,0-14.91q1.24-8.29,2.38-16.6c.82-6,2.9-10.5,1.61-16.84-1.23-6-4.15-11.7-7.1-17.06s-5.89-10.64-8.91-15.91c-3.56-6.23-7.24-12.48-12.22-17.64a45.79,45.79,0,0,0-33.56-13.78c-10.32.23-21,4.48-31.3,2.51-10-1.91-19.53-6-30-6.8-10.89-.8-22.54,2.19-30,10.56C1482.23,111.49,1479.58,118.11,1481.28,124.18Z"/><path class="cls-3" d="M1631.54,237.32h.13a1.56,1.56,0,0,0,1.37-1.73h0C1621.47,137.85,1524.25,110,1500.8,108.35a1.56,1.56,0,0,0-.22,3.12c22.93,1.62,118,28.87,129.35,124.49A1.58,1.58,0,0,0,1631.54,237.32Z"/><path class="cls-3" d="M1528.2,173.79a1.54,1.54,0,0,0,.88-.31c.29-.22,29.16-21.52,70.23-9.32a1.57,1.57,0,0,0,.94-3c-42.65-12.67-72.71,9.59-73,9.82a1.57,1.57,0,0,0,1,2.81Z"/></g><g id="Plants-2"><path class="cls-1" d="M0,606s-.95,46.56,17.08,85.21,46.38,65.07,75.31,71.31,56.17-17.49,27.36-40.17-81.86-49-98.16-121.54Z"/><g class="cls-2"><path d="M0,606s-.95,46.56,17.08,85.21,46.38,65.07,75.31,71.31,56.17-17.49,27.36-40.17-81.86-49-98.16-121.54Z"/></g><path class="cls-3" d="M7,619a1.64,1.64,0,0,0-.32,0A1.58,1.58,0,0,0,5.53,621v0c20.65,80.14,75.13,119.77,101.05,129.52a1.6,1.6,0,0,0,1.11-3C82.31,738,28.91,699.09,8.59,620.2A1.59,1.59,0,0,0,7,619Z"/><path class="cls-1" d="M149.52,652.58c-1.68-6-7.39-9.81-12.77-12.94s-11.22-6.49-13.53-12.26c-4.66-11.64,7.74-25.26,2.58-36.68-2.17-4.79-7-7.86-12-9.52-4.14-1.41-8.47-2-12.73-3a53.67,53.67,0,0,0-6.21-.42c-6,0-12.51-.65-17.49-4.47-7.84-6-8.9-17.19-12.87-26.25-4.78-10.85-14.82-19-26.14-22.21-9.49-2.68-24.32-2.61-27.44,1.31-2.37,3,1.88,13.61,1.45,17.4a155.35,155.35,0,0,0-.51,29.25c.36,4.75.66,8.61,0,13.33Q10.67,593.53,9.65,601c-.77,5.34-2.64,9.36-1.49,15,1.09,5.4,3.7,10.46,6.32,15.26s5.26,9.51,8,14.23c3.18,5.57,6.46,11.16,10.9,15.78a41,41,0,0,0,30,12.36c9.22-.2,18.76-4,28-2.21,9,1.73,17.45,5.42,26.76,6.12,9.73.73,20.16-1.93,26.85-9.4C148.65,663.92,151,658,149.52,652.58Z"/><path class="cls-3" d="M15.37,551.27h-.12A1.39,1.39,0,0,0,14,552.81v0c10.21,87.36,97.07,112.38,118,113.89a1.42,1.42,0,0,0,1.5-1.3,1.38,1.38,0,0,0-1.26-1.49h0C111.76,662.45,26.8,638,16.8,552.5A1.39,1.39,0,0,0,15.37,551.27Z"/><path class="cls-3" d="M107.65,608.17a1.34,1.34,0,0,0-.79.29c-.25.19-26.09,19.19-62.77,8.23a1.4,1.4,0,0,0-.81,2.69h0c38.11,11.37,65-8.49,65.27-8.69a1.4,1.4,0,0,0-.9-2.52Z"/></g></g></g></g></g></svg>