<svg xmlns="http://www.w3.org/2000/svg" viewBox="0 0 519.99 519.98"><defs><style>.cls-1{fill:#edcd00;stroke:#edcd00;stroke-miterlimit:10;stroke-width:9px;}</style></defs><g id="Camada_2" data-name="Camada 2"><g id="Capa_1" data-name="Capa 1"><path class="cls-1" d="M452,4.5a63.83,63.83,0,0,0-61.58,48H247A39.28,39.28,0,0,0,219,64.07L13.71,269.39a31.54,31.54,0,0,0,0,44.55L206,506.27a31.54,31.54,0,0,0,44.55,0L455.92,301A39.24,39.24,0,0,0,467.49,273V142.88a104.43,104.43,0,0,0,17.32-11.1c20.07-16,30.68-38,30.68-63.78A63.58,63.58,0,0,0,452,4.5Zm.5,268.52a24.32,24.32,0,0,1-7.18,17.32L240,495.67a16.53,16.53,0,0,1-23.34,0L24.32,303.33a16.5,16.5,0,0,1,0-23.33L229.64,74.68A24.34,24.34,0,0,1,247,67.5H436A16.52,16.52,0,0,1,452.49,84v49.27a139.51,139.51,0,0,1-41.35,9.61,39.47,39.47,0,1,0-.95,15.15,156.51,156.51,0,0,0,42.3-8.65ZM370.31,155.31a128.39,128.39,0,0,0,23.91,3,24.5,24.5,0,1,1,1.81-15,114,114,0,0,1-22.37-2.62,7.5,7.5,0,1,0-3.35,14.62Zm105.16-35.26a85,85,0,0,1-8,5.6V84A31.54,31.54,0,0,0,436,52.5H406A48.51,48.51,0,0,1,500.49,68C500.49,89.31,492.07,106.82,475.47,120.05Z"/></g></g></svg>