<svg xmlns="http://www.w3.org/2000/svg" viewBox="0 0 512.06 401.99"><defs><style>.cls-1{fill:#edcd00;}</style></defs><g id="Camada_2" data-name="Camada 2"><g id="Capa_1" data-name="Capa 1"><path class="cls-1" d="M426.64,133.19A176,176,0,0,0,80.4,163.27,96,96,0,0,0,96.4,354h80V322h-80a64,64,0,0,1,0-128,16,16,0,0,0,16-16,144,144,0,0,1,285.28-28,16,16,0,0,0,13.6,12.8A80,80,0,0,1,400.4,322h-64v32h64a112,112,0,0,0,26.24-220.8Z"/><path class="cls-1" d="M245,198.63l-64,64,22.56,22.56,36.8-36.64V402h32V248.55L309,285.19l22.56-22.56-64-64A16,16,0,0,0,245,198.63Z"/></g></g></svg>