<svg xmlns="http://www.w3.org/2000/svg" viewBox="0 0 494 512"><defs><style>.cls-1{fill:#edcd00;}</style></defs><g id="Camada_2" data-name="Camada 2"><g id="Capa_1" data-name="Capa 1"><path class="cls-1" d="M0,190V370a45.05,45.05,0,0,0,45,45H56v52a45.05,45.05,0,0,0,45,45H393a45.05,45.05,0,0,0,45-45V415h11a45.05,45.05,0,0,0,45-45V190a45.05,45.05,0,0,0-45-45H438V45A45.05,45.05,0,0,0,393,0H193.3a75.29,75.29,0,0,0-54.42,23.4L76.57,89.12A74.72,74.72,0,0,0,56,140.72V145H45A45.05,45.05,0,0,0,0,190Zm408-45H86v-4.28a44.82,44.82,0,0,1,12.34-31L160.65,44A45.19,45.19,0,0,1,193.3,30H393a15,15,0,0,1,15,15ZM86,415H408v52a15,15,0,0,1-15,15H101a15,15,0,0,1-15-15ZM30,190a15,15,0,0,1,15-15H449a15,15,0,0,1,15,15V370a15,15,0,0,1-15,15H45a15,15,0,0,1-15-15Z"/><path class="cls-1" d="M62.62,321.66l32-46.77-27-41.6A84.37,84.37,0,0,1,62,222.89a20.77,20.77,0,0,1-1.9-8.35,9.74,9.74,0,0,1,3.66-7.38,12.94,12.94,0,0,1,8.94-3.27q6,0,9.42,3.57t9.33,13.23l21.48,34.76,23-34.76q2.83-4.4,4.83-7.52a40.28,40.28,0,0,1,3.86-5.18,12.48,12.48,0,0,1,4.15-3.07,12.82,12.82,0,0,1,5.32-1,12.5,12.5,0,0,1,8.94,3.27,10.35,10.35,0,0,1,3.47,7.77q0,6.54-7.52,17.77l-28.23,42.19,30.37,46.77a78.56,78.56,0,0,1,6,10.21,18.43,18.43,0,0,1,1.86,7.67,12.2,12.2,0,0,1-1.66,6.25,12,12,0,0,1-4.69,4.49,14.07,14.07,0,0,1-6.84,1.66,13.19,13.19,0,0,1-6.93-1.71,14.66,14.66,0,0,1-4.59-4.25q-1.75-2.53-6.54-9.86l-25.2-39.65L85.66,337.29c-2.08,3.26-3.56,5.53-4.44,6.84a26.07,26.07,0,0,1-3.17,3.8,13.62,13.62,0,0,1-4.4,2.93,15.14,15.14,0,0,1-6,1.08A12.4,12.4,0,0,1,59,348.72q-3.47-3.23-3.46-9.38Q55.49,332.11,62.62,321.66Z"/><path class="cls-1" d="M237,327.91,214.08,236.7v98.83q0,8.21-3.66,12.31a13.45,13.45,0,0,1-19.29.05q-3.7-4-3.71-12.36V222.25q0-9.37,4.88-12.65t13.19-3.27h9q8.11,0,11.77,1.47a9.85,9.85,0,0,1,5.42,5.27,81.65,81.65,0,0,1,4,12.4l20.8,78.42,20.81-78.42a81.65,81.65,0,0,1,4-12.4,9.85,9.85,0,0,1,5.42-5.27q3.66-1.47,11.77-1.47h9q8.3,0,13.18,3.27t4.89,12.65V335.53q0,8.21-3.66,12.31a12.54,12.54,0,0,1-9.82,4.1,12.21,12.21,0,0,1-9.47-4.1q-3.72-4.11-3.71-12.31V236.7l-23,91.21q-2.25,8.89-3.66,13a18.05,18.05,0,0,1-5.23,7.57q-3.81,3.42-10.55,3.42a15.45,15.45,0,0,1-14.06-7.81,31.75,31.75,0,0,1-3.07-7.57Q238.21,332.41,237,327.91Z"/><path class="cls-1" d="M383.71,221.47v104.2H442.5q7,0,10.79,3.42a11.11,11.11,0,0,1,3.76,8.59,10.88,10.88,0,0,1-3.71,8.55q-3.72,3.27-10.84,3.27h-70q-9.48,0-13.62-4.2t-4.15-13.58V221.47q0-8.79,4-13.18a13.34,13.34,0,0,1,10.4-4.4,13.82,13.82,0,0,1,10.6,4.35C382.36,211.13,383.71,215.55,383.71,221.47Z"/></g></g></svg>