<svg xmlns="http://www.w3.org/2000/svg" viewBox="0 0 512 512"><defs><style>.cls-1{fill:#555;}.cls-2{fill:#373737;}.cls-3{fill:#f2f2f2;}.cls-4{fill:#a3a3a3;}</style></defs><g id="Camada_2" data-name="Camada 2"><g id="Capa_1" data-name="Capa 1"><path class="cls-1" d="M512,256a255.81,255.81,0,0,1-11.07,74.68v0a254.84,254.84,0,0,1-37.34,75.15h0a257.23,257.23,0,0,1-89.28,77.22,253.72,253.72,0,0,1-60.46,22.36h0A255.85,255.85,0,0,1,0,256C0,114.61,114.61,0,256,0S512,114.61,512,256Z"/><path class="cls-2" d="M372.12,111.78V238.07a53.82,53.82,0,0,1-53.82,53.82H188.93a67.72,67.72,0,0,0-67.71,67.72v62H78.92A53.67,53.67,0,0,1,57,417.07,255.07,255.07,0,0,1,10.9,330.13q-1.15-11.88-1.16-25.36c0-78.47,31-116.88,69.18-116.88H256.71V169.67H138.39V111.78c0-29.39,52.32-53.22,116.87-53.22S372.12,82.39,372.12,111.78Z"/><circle class="cls-3" cx="189.32" cy="116.62" r="21.51"/><path class="cls-4" d="M503,298a249.56,249.56,0,0,1-2,32.65v0a254.84,254.84,0,0,1-37.34,75.15h0a52.91,52.91,0,0,1-29.8,9H256v18.23H374.3v50a253.72,253.72,0,0,1-60.46,22.36h0a257,257,0,0,1-173.26-20.88V364.72a53.84,53.84,0,0,1,53.83-53.83H323.77a67.7,67.7,0,0,0,67.71-67.71v-62h42.3C472,181.15,503,218.77,503,298Z"/><path class="cls-3" d="M344.88,486.17a21.41,21.41,0,0,1-3.08,11.1,253.9,253.9,0,0,1-28,8.17h0a21.5,21.5,0,1,1,31.05-19.27Z"/></g></g></svg>