<svg xmlns="http://www.w3.org/2000/svg" viewBox="0 0 526 411"><defs><style>.cls-1{fill:#fff;}.cls-2{fill:#f2b029;}.cls-3{fill:#f8b52d;}.cls-4{fill:#1f1601;}.cls-5{fill:#2a2107;}.cls-6{fill:#251b02;}.cls-7{fill:#2e2409;}.cls-8{fill:#1a1301;}.cls-9{fill:#261c03;}.cls-10{fill:#2c2208;}.cls-11{fill:#231a02;}.cls-12{fill:#291d03;}.cls-13{fill:#221801;}.cls-14{fill:#161000;}.cls-15{fill:#140e00;}.cls-16{fill:#120c00;}.cls-17{fill:#0e0a00;}.cls-18{fill:#130d00;}.cls-19{fill:#100b00;}.cls-20{fill:#070601;}.cls-21{fill:#1e1602;}.cls-22{fill:#181205;}.cls-23{fill:#0f0b01;}.cls-24{fill:#f8b42b;}.cls-25{font-size:23px;fill:#1d1d1b;font-family:Stencil;}</style></defs><g id="Camada_2" data-name="Camada 2"><g id="Camada_1-2" data-name="Camada 1"><path class="cls-1" d="M263.15.08H521.07a22.57,22.57,0,0,0,3.49,0c1.55-.26,1.48.59,1.41,1.62-.05.83,0,1.67,0,2.5V407c0,1-.07,2,0,3s-.11,1.12-1,1a30,30,0,0,0-3,0H3.64C0,411,0,411,0,407.13V3.83C0,.09,0,.08,3.73.08Zm-254,349L9.2,366.3l0,12.72V391c-.05,1.6-.05,3.2-.17,4.79s.31,2.48,2.1,2.26c.95-.11,1.91-.11,2.87-.16l7.94,0,8,0,7.94,0,8,0,7.87,0,8.1,0,7.33,0,8.64,0,7.17,0h24.58l7.24,0,8.12,0,7.83,0,8.07,0,7.89,0h55.85l7.92,0,8.08,0,7.84,0,8.09,0,7.32,0,8.65,0,7.24,0h31.75l8.13,0,7.8,0,8.09,0,7.9,0h55.85l7.94,0,8,0,7.85,0,8.11,0,7.32,0,8.64,0,7.19,0h24.61l7.17,0,8.65-.05,7.32.05,8.05,0,7.91,0h16c4,.11,4,.11,4-3.81a6.71,6.71,0,0,0-.13-1l0-14,0-12.75-.06-15.48c.1-1.65.28-3.3.28-4.95,0-3.47,0-3.47-3.79-3.41l-7.15-.14-7.94.1-8.92-.09-7,.12-8.93-.13-7.31,0-8.1.07-8.22.19-23.44-.28-7.81.14-9.09-.13H404l-9.25.22-6.43-.12-9.48.1-7.35-.06-8.12-.12-7.82.13-9.27,0H340.4l-9.27,0-6.73-.05-9-.07-7,.07-8.28,0-7.61.07-9.25,0-6.69.05-9.27-.05-6.73,0-8.09-.1-7.84.12-9.07-.11-6.31,0-9.28.25-6.43-.15-9-.08-7.82.15-8.12-.16-7,.11-10.11,0-6.1-.06-9.05.12-6.72-.06h-16l-9-.07-6.88.1-9.26,0-7-.08-9,.09-6.69,0-8.18-.14-8.48.24-7.69-.13-8.27.15h-8l-7.3-.08L30,342.32H14C9,342,9,342,9,346.7,9,347.49,9.09,348.29,9.14,349.08ZM266,282.28v0c4.82,0,9.64,0,14.46,0,10,0,19.95.12,29.92.12,11.8,0,23.61-.12,35.41-.14q22.94,0,45.88,0a9,9,0,0,0,5.95-2.08c4-3.28,6.35-9.83,3.43-15.17-1.81-3.32-3.71-6.59-5.61-9.86-6.54-11.23-13.15-22.42-19.65-33.67-5.73-9.92-11.32-19.92-17-29.86-7.16-12.45-14.4-24.85-21.58-37.29-6.81-11.81-13.55-23.64-20.36-35.44q-13.76-23.82-27.55-47.61c-4.32-7.48-8.56-15-12.95-22.45-3.84-6.52-10.8-8.62-16.78-4.85a17.39,17.39,0,0,0-5,5.31c-3.08,4.84-5.86,9.86-8.7,14.85-6.89,12.1-13.68,24.26-20.63,36.34s-14,24-21,36c-5.4,9.32-10.69,18.7-16.09,28-5.58,9.63-11.28,19.2-16.84,28.84-5.69,9.88-11.19,19.86-16.91,29.72-6.48,11.15-13.14,22.2-19.65,33.33-1.8,3.09-3.43,6.28-5,9.49a11.51,11.51,0,0,0,11.1,16.31c4.49-.08,9,.14,13.46.14l78.3-.14Q249.28,282.26,266,282.28Z"/><path class="cls-2" d="M518.44,353.55,518.5,369c-4.53,1.13-7,3.69-6.75,6.9.25,2.75,3.11,5.22,6.78,5.85l0,14c-.64.31-1.51.47-1.86,1a31.61,31.61,0,0,0-2,3.8h-7.93c1.59-2.67,3.15-5.37,4.8-8,1.06-1.68.21-1.83-1.23-1.9-6.07-.33-6.08-.36-9.15,5.12-.87,1.56-1.64,3.18-2.46,4.78l-7.91,0c1.68-2.76,3.37-5.52,5-8.3.45-.76.6-1.4-.71-1.6-5.21-.78-6.69-.14-9.35,4.37-1.06,1.81-2,3.67-3,5.51l-7.32-.05c1.1-2,2.18-4,3.31-6,2.18-3.85,2.18-3.67-2.34-3.91-3-.16-4.91.56-6,3.56a46.82,46.82,0,0,1-3.58,6.39l-7.17,0c1.46-2.71,2.9-5.43,4.39-8.11.7-1.26.39-1.77-1-1.74a17,17,0,0,1-2.47,0c-3-.42-4.89.54-6,3.51a48.22,48.22,0,0,1-3.58,6.36h-7.18c1.43-2.54,2.86-5.07,4.28-7.61,1.05-1.86.88-2-1.29-2.28-4.16-.54-7.34.41-8.95,4.75a41.7,41.7,0,0,1-2.76,5.13l-7.19,0q2.26-4,4.51-8c.64-1.15.39-1.84-1-1.86-.82,0-1.65.07-2.46,0-3-.38-5,.55-6.16,3.49a56.46,56.46,0,0,1-3.51,6.36l-7.32,0c1.54-2.65,3.09-5.3,4.61-8,.66-1.15.33-1.86-1-1.89a33.36,33.36,0,0,0-4.9,0,3.56,3.56,0,0,0-2.4,1.32c-1.59,2.77-2.94,5.68-4.38,8.53l-7.85,0c1.48-2.56,2.88-5.16,4.44-7.66.92-1.46.7-2.15-1-2.19a27.9,27.9,0,0,0-4.48,0,3.68,3.68,0,0,0-2.48,1.21c-1.63,2.8-3,5.74-4.49,8.63l-7.94,0c1.37-2.42,2.77-4.82,4.11-7.26s1.19-2.5-1.14-2.6a16,16,0,0,0-4,0,4.52,4.52,0,0,0-2.77,1.59c-1.57,2.64-2.83,5.47-4.21,8.23h-8c1.49-2.54,2.91-5.11,4.48-7.6,1.24-2,.18-2.28-1.48-2.27a19.36,19.36,0,0,0-4,.06,4.46,4.46,0,0,0-2.73,1.6c-1.59,2.64-2.88,5.47-4.29,8.22h-7.95c1.48-2.53,2.93-5.09,4.47-7.59,1.14-1.85.27-2.07-1.43-2.34-4.13-.65-6.9.66-8.37,4.71a45.7,45.7,0,0,1-2.65,5.22h-8c1.57-2.5,3.2-5,4.69-7.51,1.17-2,.89-2.06-1.6-2.44-4.16-.64-6.9.74-8.42,4.73a49.4,49.4,0,0,1-2.69,5.21l-7.9,0c1.58-2.5,3.21-5,4.71-7.52,1.16-2,.91-2.29-1.61-2.38a12.49,12.49,0,0,1-1.5,0c-3-.45-5,.45-6.12,3.47a50.78,50.78,0,0,1-3.57,6.43l-7.8,0c1.62-2.62,3.25-5.23,4.84-7.86.68-1.14.95-2.16-1-2.07a16.46,16.46,0,0,1-3.44,0c-2.34-.37-3.6.8-4.58,2.69-1.27,2.43-2.62,4.82-3.94,7.22h-7.16c1.35-2.41,2.68-4.84,4.07-7.23s1.27-2.54-1.65-2.63a20.45,20.45,0,0,1-2.48,0c-2.28-.36-3.72.57-4.73,2.59-1.24,2.48-2.65,4.87-4,7.3h-7.12q2.13-3.79,4.25-7.6c1-1.87.88-2-1.28-2.29-4.15-.54-7.33.42-8.92,4.75a41.54,41.54,0,0,1-2.74,5.13l-7.24,0c1.51-2.67,3-5.33,4.54-8,.65-1.15.35-1.84-1-1.87a19.3,19.3,0,0,1-3,0c-2.71-.47-4.24.72-5.36,3.12s-2.55,4.51-3.84,6.75l-7.32,0c1-1.83,2.06-3.65,3-5.51.65-1.25,1.21-2.55,1.81-3.83-1.57-.18-3.13-.41-4.71-.52s-3.06-.27-3.9,1.33c-1.49,2.83-2.89,5.71-4.33,8.57l-7.84,0c1.12-2,2.28-3.9,3.35-5.89.59-1.1,1-2.29,1.52-3.44a18.53,18.53,0,0,0-3.73-.49c-1.54.1-3.78.07-4.45,1-1.93,2.7-3.22,5.86-4.77,8.84l-7.92,0c1.38-2.41,2.78-4.82,4.13-7.26s1.18-2.5-1.16-2.6a20.23,20.23,0,0,0-4,0,3.76,3.76,0,0,0-2.46,1.21c-1.64,2.79-3,5.74-4.52,8.63l-8,0c1.49-2.54,2.92-5.11,4.48-7.6,1.25-2,.18-2.27-1.47-2.27a19.45,19.45,0,0,0-4,.06,4.51,4.51,0,0,0-2.72,1.6c-1.59,2.65-2.88,5.47-4.28,8.22h-8c1.49-2.53,2.94-5.08,4.48-7.58,1.12-1.83.31-2.08-1.42-2.35-4.13-.66-6.89.67-8.38,4.71a47.39,47.39,0,0,1-2.65,5.22h-7.95c.89-1.38,1.85-2.72,2.66-4.15,1-1.7,1.79-3.49,2.68-5.24a63.65,63.65,0,0,0-6.74-.41c-.72,0-1.63.92-2.06,1.64-1.61,2.67-3.05,5.43-4.56,8.15l-7.89,0c1.29-2.09,2.62-4.16,3.85-6.28.58-1,1-2.07,1.48-3.11-1.25-.17-2.5-.32-3.74-.52-3-.47-5,.42-6.11,3.45a48.88,48.88,0,0,1-3.55,6.44l-7.83,0c1.61-2.62,3.25-5.22,4.83-7.86.64-1.08,1-2.17-1-2.08a16.38,16.38,0,0,1-3.43,0c-2.33-.37-3.59.8-4.57,2.69-1.26,2.43-2.63,4.81-4,7.22l-7.24,0c1.08-2,2.12-4,3.24-6,2.18-3.86,2.19-3.68-2.29-3.92-3-.15-4.9.59-6,3.56a48.47,48.47,0,0,1-3.6,6.37H94.51L98.77,393c1-1.84.85-2-1.32-2.28-4.15-.53-7.34.4-8.92,4.77a36.36,36.36,0,0,1-2.79,5.11l-7.17,0q2.27-4,4.52-8c.64-1.15.38-1.84-1-1.87a20.71,20.71,0,0,1-3,0c-2.7-.46-4.24.72-5.35,3.12s-2.54,4.5-3.83,6.74l-7.33,0c1-1.83,2.06-3.65,3-5.51.66-1.25,1.22-2.55,1.82-3.83-1.57-.18-3.14-.41-4.71-.52s-3.06-.27-3.91,1.33c-1.49,2.84-2.89,5.72-4.33,8.58l-7.87-.05c1.57-2.68,3.16-5.36,4.7-8.06.51-.88.38-1.69-.77-1.75a38.55,38.55,0,0,0-5.48,0,2.91,2.91,0,0,0-2,1.17c-1.59,2.83-3,5.76-4.47,8.66l-7.94,0c1.48-2.55,2.91-5.13,4.47-7.64.88-1.41.75-2.16-1-2.21a27.91,27.91,0,0,0-4.48,0A3.66,3.66,0,0,0,27.18,392c-1.65,2.79-3.05,5.73-4.54,8.62l-7.94,0c1.56-2.65,3.18-5.28,4.63-8a1.94,1.94,0,0,0-.57-1.77A7.88,7.88,0,0,0,9.9,393.7V381.76c3.72-.61,3.75-.61,3.85-3.62.06-1.64,0-3.3,0-4.95,0-3.15,0-3.15-3.83-4.15l-.06-17.22c.57-.17,1.44-.17,1.66-.55,1.17-2,2.18-4.13,3.24-6.2h7.77C21.36,347,20.12,349,19,351c-.75,1.38-1.29,2.88-1.93,4.32l4.87.4c1.79.16,3.28-.26,4.19-2,1.51-2.89,3.06-5.76,4.59-8.63l8.11.13c-1.86,2.85-3.76,5.68-5.56,8.57a1.68,1.68,0,0,0,.06,1.61c1,.85,7.36.34,8-.72,1.73-3.06,3.25-6.24,4.85-9.38h8c-1.35,2.23-2.77,4.42-4,6.68-2.07,3.67-2,3.81,2.39,3.77,1.74,0,3.86.7,5-1.21,1.79-3,3.31-6.25,5-9.39l7.69.13c-1.27,2.1-2.58,4.18-3.79,6.31-2.39,4.2-2.36,4.05,2.63,4.24,2.63.1,4.33-.52,5.45-3.06s2.78-5.16,4.19-7.73l8.18.14c-2,3-4,5.93-5.88,8.94-.19.28.08,1.24.12,1.24,2.56-.06,5.12-.2,7.68-.32,1.67-3.26,4.84-5.79,4.77-9.88l9-.08c-1.79,2.7-3.62,5.37-5.32,8.13-.34.55-.12,1.44-.17,2.17l7.62-.38c1.68-3.25,4.62-5.88,4.84-9.85l9.26,0c-2,2.77-4,5.52-5.83,8.35a1.89,1.89,0,0,0,0,1.76c.82,1,7,.45,7.75-.8,1.78-3.06,3.31-6.26,4.94-9.41l9,.07c-3.07,2.2-4.14,5.78-6,8.83-.19.3.24,1.38.63,1.56,2.66,1.2,7-.2,8.56-2.69s2.93-5.14,4.4-7.71h8.35c-3.11,2.11-4,5.74-6,8.65a1.76,1.76,0,0,0,.48,1.64c1.2.85,6.62.25,7.39-.95,1.89-2.94,4.38-5.59,4.85-9.28l9-.12c-2,2.92-4,5.82-5.87,8.8-.19.3.38,1.55.59,1.55,2.26,0,5.42.66,6.6-.55,2.38-2.43,3.68-5.91,5.38-9,.06-.11-.39-.49-.59-.75l10.1,0c-3.33,1.66-4,5.27-5.89,8-1.39,2-1.09,2.57,1.28,2.45s5.15,1.11,6.76-1.62c1.73-2.91,3.23-6,4.84-8.94l8.12.17c-1.87,2.87-3.76,5.73-5.6,8.62-.81,1.27-.11,1.72,1.13,1.85,5.75.62,6.35.33,9.31-5,1-1.85,2-3.74,3-5.61l8.95.09c-3.83,2-4.45,6.27-6.8,9.32-.11.14.08.67.27.86,1,1,7.7.32,8.42-1,1.63-3,3-6,4.54-9.06l9.28-.25c-3.34,2.15-4.23,6-6.35,9.06-.13.19.6,1.43,1,1.48a26.5,26.5,0,0,0,5,0c.75-.07,1.95-.43,2.13-.94,1.18-3.37,4.71-5.62,4.55-9.6l9.07.11c-2,3-3.95,5.9-5.83,8.91a1.59,1.59,0,0,0,.53,1.45,7.5,7.5,0,0,0,9.12-3.27c1.36-2.39,2.68-4.8,4-7.21l8.09.1c-2,3-3.94,5.93-5.85,8.93a2,2,0,0,0,.14,1.24c2.54-.07,5.09-.2,7.63-.33,1.67-3.25,4.83-5.78,4.81-9.86l9.27.05c-2,2.79-4,5.55-5.85,8.39a1.89,1.89,0,0,0,.05,1.75c.8.94,7.37.49,7.92-.67,1.52-3.17,4.51-5.66,4.57-9.52l9.25,0c-2,2.79-4,5.56-5.86,8.41a1.79,1.79,0,0,0,.13,1.74c1.19,1.15,7.11.21,8.09-1.34,1.84-2.91,3.51-5.92,5.25-8.88l8.28,0c-3.07,2.17-4.15,5.71-6,8.72a1.73,1.73,0,0,0,.54,1.61c1.88,1.06,7,.06,8.07-1.77,1.64-2.77,2.93-5.75,4.37-8.63l8.95.07c-3.12,2.09-4,5.73-6,8.64a1.76,1.76,0,0,0,.48,1.64c1.2.85,6.62.26,7.38-.95,1.87-3,4.37-5.6,4.85-9.28l9.27,0c-3.46,2.06-4.17,6.09-6.42,9-.13.18.3,1.14.47,1.14,2.42,0,4.83-.15,7.25-.25,1.73-3.05,3.48-6.11,5.17-9.18.05-.1-.41-.48-.62-.73l9.27.05c-1.76,2.74-3.57,5.45-5.27,8.23-1.09,1.78-.81,2.32,1.37,2.19,2.35-.14,5.21,1.16,6.86-1.55,1.77-2.91,3.25-6,4.86-9l8.12.12c-1.92,3-3.86,6-5.73,9a1.27,1.27,0,0,0,.31,1.19c1.1.8,7.33.3,8-.81,1.73-3.05,3.22-6.23,4.8-9.36l9.48-.1c-3.62,1.46-4.11,5.3-6,8-1.38,2-1.05,2.38,1.39,2.47a20.33,20.33,0,0,0,4-.06,3.8,3.8,0,0,0,2.5-1.27c1.67-2.94,3.09-6,4.6-9.06l9.24-.22c-3.38,2.13-4.21,6.07-6.36,9.07-.12.17.63,1.41,1,1.46a25.69,25.69,0,0,0,5,0c.76-.07,1.95-.43,2.13-.95,1.16-3.37,4.7-5.62,4.54-9.59l9.09.12c-2,3-4,5.9-5.86,8.9-.17.28.31,1.43.52,1.43,2.13.1,4.39.48,6.33-.14,1.23-.4,2.06-2.28,2.89-3.61,1.39-2.19,2.63-4.47,3.93-6.72l23.44.28c-1.53,2.69-3.08,5.37-4.58,8.07-1,1.82-.8,2.35,1.31,2.22,2.33-.14,5.21,1.18,6.83-1.48,1.75-2.88,3.12-6,4.66-9l8.1-.07c-1.78,2.93-3.6,5.84-5.31,8.82a2.28,2.28,0,0,0,.23,1.53c2.43,0,5.76.8,7.1-.47,2.67-2.52,5.07-5.79,5.29-9.9l8.93.13c-1.76,2.72-3.45,5.49-5.31,8.15-1.21,1.73-.74,2.47,1.19,2.3,2.22-.2,5.13,1.17,6.51-1.05,1.84-3,4.56-5.64,4.6-9.52l8.92.09c-1.85,2.84-3.73,5.67-5.52,8.55-.26.42-.34,1.4-.07,1.64,1.33,1.18,7.53.13,8.47-1.44,1.75-2.91,3.38-5.89,5.06-8.85l7.15.15c-1.92,3-3.86,6-5.7,9-.15.25.47,1.38.66,1.36C512.84,355.33,516.26,357,518.44,353.55Zm-260.34,22a6.12,6.12,0,1,0,12.24,0,6.4,6.4,0,0,0-5.88-6.65C261,368.7,258.1,371.79,258.1,375.57Zm176.23-19.91c2.55,1.13,4.18-.87,5.5-3.42.22-.43.42-.87.61-1.32l2-4.73a28.66,28.66,0,0,0-5.37-.34,5,5,0,0,0-3.22,1.71c-1.35,1.82-2.23,4-3.4,5.95-.85,1.42-.67,2.14,1.09,2.15Z"/><path class="cls-3" d="M266.73,285q-16.71,0-33.41,0-39.15.06-78.29.14c-4.49,0-9-.22-13.47-.14a11.51,11.51,0,0,1-11.1-16.31c1.58-3.21,3.21-6.4,5-9.48,6.51-11.14,13.17-22.19,19.65-33.34,5.72-9.86,11.22-19.84,16.91-29.71,5.56-9.65,11.26-19.21,16.84-28.85,5.4-9.32,10.69-18.7,16.09-28,7-12,14.06-24,21-36S239.68,79.06,246.58,67c2.83-5,5.61-10,8.69-14.85a17.39,17.39,0,0,1,5-5.31c6-3.77,12.94-1.67,16.78,4.85,4.39,7.44,8.63,15,12.95,22.45q13.77,23.8,27.55,47.61c6.81,11.8,13.56,23.64,20.36,35.44,7.18,12.44,14.42,24.85,21.58,37.3,5.71,9.93,11.3,19.93,17,29.85,6.5,11.25,13.11,22.44,19.65,33.67,1.91,3.27,3.8,6.54,5.61,9.86,2.92,5.35.53,11.89-3.43,15.17a9,9,0,0,1-6,2.08q-22.93-.09-45.88,0c-11.8,0-23.61.13-35.41.14-10,0-19.95-.09-29.92-.12-4.82,0-9.64,0-14.46,0Zm-.4-9v0H382.59a33.84,33.84,0,0,0,3.49,0c5.05-.51,7.69-5.09,5.51-9.51-.44-.88-.94-1.74-1.44-2.6-7.86-13.52-15.76-27-23.58-40.58-11.93-20.69-23.76-41.45-35.71-62.13q-28.92-50.07-57.95-100.07A14.11,14.11,0,0,0,271,58.28c-4-4.19-7-2.72-9.71,0a11.26,11.26,0,0,0-1.58,2.48l-30.86,53.46-39.57,68.48q-18,31.22-36.08,62.43c-4,7-8.06,14-12,21-2.6,4.64,0,9.33,5.41,9.81,1,.08,2,0,3,0Z"/><path class="cls-4" d="M62.38,345.14c-1.64,3.14-3.16,6.34-5,9.39-1.12,1.91-3.24,1.2-5,1.21-4.37,0-4.46-.1-2.39-3.77,1.28-2.26,2.7-4.45,4-6.68Z"/><path class="cls-5" d="M30.74,345.07c-1.53,2.87-3.08,5.74-4.59,8.63-.91,1.71-2.4,2.13-4.19,2l-4.87-.4c.64-1.44,1.18-2.94,1.93-4.32,1.1-2,2.34-3.92,3.53-5.88Z"/><path class="cls-6" d="M459.59,345.14c-1.54,3-2.91,6.12-4.66,9-1.62,2.66-4.5,1.34-6.83,1.48-2.11.13-2.33-.4-1.31-2.22,1.5-2.7,3-5.38,4.58-8.07Z"/><path class="cls-7" d="M46.16,345.28c-1.6,3.14-3.12,6.32-4.85,9.38-.6,1.06-7,1.57-8,.72a1.68,1.68,0,0,1-.06-1.61c1.8-2.89,3.7-5.72,5.56-8.57Z"/><path class="cls-8" d="M78.55,345c-1.41,2.57-3,5.06-4.19,7.73s-2.82,3.16-5.45,3.06c-5-.19-5,0-2.63-4.24,1.21-2.13,2.52-4.21,3.79-6.31Z"/><path class="cls-7" d="M379.55,345.25c-1.58,3.13-3.07,6.31-4.8,9.36-.64,1.11-6.87,1.61-8,.81a1.27,1.27,0,0,1-.31-1.19c1.87-3,3.81-6,5.73-9Z"/><path class="cls-9" d="M364.08,345.07c-1.61,3-3.09,6.09-4.86,9-1.65,2.71-4.51,1.41-6.86,1.55-2.18.13-2.46-.41-1.37-2.19,1.7-2.78,3.51-5.49,5.27-8.23Z"/><path class="cls-10" d="M205.4,345.06c-1,1.87-2,3.76-3,5.61-3,5.35-3.56,5.64-9.31,5-1.24-.13-1.94-.58-1.13-1.85,1.84-2.89,3.73-5.75,5.6-8.62Z"/><path class="cls-5" d="M142.14,345.13c-1.47,2.57-2.88,5.17-4.4,7.71s-5.9,3.89-8.56,2.69c-.39-.18-.82-1.26-.63-1.56,1.83-3.05,2.9-6.63,6-8.83Z"/><path class="cls-11" d="M475,345.05c-.22,4.11-2.62,7.38-5.29,9.9-1.34,1.27-4.67.45-7.1.47a2.28,2.28,0,0,1-.23-1.53c1.71-3,3.53-5.89,5.31-8.82Z"/><path class="cls-5" d="M253.28,345.06c-1.34,2.41-2.66,4.82-4,7.21a7.5,7.5,0,0,1-9.12,3.27,1.59,1.59,0,0,1-.53-1.45c1.88-3,3.87-5.95,5.83-8.91Z"/><path class="cls-6" d="M427.93,345.05c-1.3,2.25-2.54,4.53-3.93,6.72-.83,1.33-1.66,3.21-2.89,3.61-1.94.62-4.2.24-6.33.14-.21,0-.69-1.15-.52-1.43,1.89-3,3.89-5.94,5.86-8.9Z"/><path class="cls-6" d="M395.47,345.27c-1.51,3-2.93,6.12-4.6,9.06a3.8,3.8,0,0,1-2.5,1.27,20.33,20.33,0,0,1-4,.06c-2.44-.09-2.77-.49-1.39-2.47,1.92-2.74,2.41-6.58,6-8Z"/><path class="cls-5" d="M284.06,345.14c-.06,3.86-3.05,6.35-4.57,9.52-.55,1.16-7.12,1.61-7.92.67a1.89,1.89,0,0,1-.05-1.75c1.89-2.84,3.89-5.6,5.85-8.39Z"/><path class="cls-7" d="M268.1,345.14c0,4.08-3.14,6.61-4.81,9.86-2.54.13-5.09.26-7.63.33a2,2,0,0,1-.14-1.24c1.91-3,3.89-6,5.85-8.93Z"/><path class="cls-9" d="M220.78,345.29c-1.5,3-2.91,6.11-4.54,9.06-.72,1.3-7.42,1.94-8.42,1-.19-.19-.38-.72-.27-.86,2.35-3.05,3-7.36,6.8-9.32Z"/><path class="cls-12" d="M507.78,345.05c-1.68,3-3.31,5.94-5.06,8.85-.94,1.57-7.14,2.62-8.47,1.44-.27-.24-.19-1.22.07-1.64,1.79-2.88,3.67-5.71,5.52-8.55Z"/><path class="cls-13" d="M189.46,345.05c-1.61,3-3.11,6-4.84,8.94-1.61,2.73-4.43,1.51-6.76,1.62s-2.67-.42-1.28-2.45c1.86-2.73,2.56-6.34,5.89-8Z"/><path class="cls-7" d="M109.4,345.14c-.22,4-3.16,6.6-4.84,9.85l-7.62.38c0-.73-.17-1.62.17-2.17,1.7-2.76,3.53-5.43,5.32-8.13Z"/><path class="cls-7" d="M93.42,345.15c.07,4.09-3.1,6.62-4.77,9.88-2.56.12-5.12.26-7.68.32,0,0-.31-1-.12-1.24,1.91-3,3.91-6,5.88-8.94Z"/><path class="cls-10" d="M316.19,345.07c-1.44,2.88-2.73,5.86-4.37,8.63-1.09,1.83-6.19,2.83-8.07,1.77a1.73,1.73,0,0,1-.54-1.61c1.84-3,2.92-6.55,6-8.72Z"/><path class="cls-6" d="M300.92,345.1c-1.74,3-3.41,6-5.25,8.88-1,1.55-6.9,2.49-8.09,1.34a1.79,1.79,0,0,1-.13-1.74c1.89-2.85,3.89-5.62,5.86-8.41Z"/><path class="cls-11" d="M490.92,345.06c0,3.88-2.76,6.56-4.6,9.52-1.38,2.22-4.29.85-6.51,1.05-1.93.17-2.4-.57-1.19-2.3,1.86-2.66,3.55-5.43,5.31-8.15Z"/><path class="cls-11" d="M125.54,345.07c-1.63,3.15-3.16,6.35-4.94,9.41-.72,1.25-6.93,1.8-7.75.8a1.89,1.89,0,0,1,0-1.76c1.88-2.83,3.87-5.58,5.83-8.35Z"/><path class="cls-11" d="M157.21,345.19c-.47,3.69-3,6.34-4.85,9.28-.77,1.2-6.19,1.8-7.39.95a1.76,1.76,0,0,1-.48-1.64c2-2.91,2.89-6.54,6-8.65Z"/><path class="cls-11" d="M331.87,345.19c-.48,3.68-3,6.33-4.85,9.28-.76,1.21-6.18,1.8-7.38.95a1.76,1.76,0,0,1-.48-1.64c1.94-2.91,2.86-6.55,6-8.64Z"/><path class="cls-13" d="M347,345.15c.21.25.67.63.62.73-1.69,3.07-3.44,6.13-5.17,9.18-2.42.1-4.83.23-7.25.25-.17,0-.6-1-.47-1.14,2.25-2.93,3-7,6.42-9Z"/><path class="cls-4" d="M172.37,345.13c.2.26.65.64.59.75-1.7,3.08-3,6.56-5.38,9-1.18,1.21-4.34.52-6.6.55-.21,0-.78-1.25-.59-1.55,1.89-3,3.9-5.88,5.87-8.8Z"/><path class="cls-13" d="M411,345.07c.16,4-3.38,6.22-4.54,9.59-.18.52-1.37.88-2.13.95a25.69,25.69,0,0,1-5,0c-.42-.05-1.17-1.29-1-1.46,2.15-3,3-6.94,6.36-9.07Z"/><path class="cls-13" d="M236.37,345.07c.16,4-3.37,6.23-4.55,9.6-.18.51-1.38.87-2.13.94a26.5,26.5,0,0,1-5,0c-.42-.05-1.15-1.29-1-1.48,2.12-3,3-6.91,6.35-9.06Z"/><path class="cls-14" d="M466.85,400.6a46.82,46.82,0,0,0,3.58-6.39c1.13-3,3-3.72,6-3.56,4.52.24,4.52.06,2.34,3.91-1.13,2-2.21,4-3.31,6Z"/><path class="cls-14" d="M276.27,400.58c1.34-2.43,2.75-4.82,4-7.3,1-2,2.45-2.95,4.73-2.59a20.45,20.45,0,0,0,2.48,0c2.92.09,3,.27,1.65,2.63s-2.72,4.82-4.07,7.23Z"/><path class="cls-14" d="M451,400.57a48.22,48.22,0,0,0,3.58-6.36c1.15-3,3.08-3.93,6-3.51a17,17,0,0,0,2.47,0c1.4,0,1.71.48,1,1.74-1.49,2.68-2.93,5.4-4.39,8.11Z"/><path class="cls-15" d="M435.07,400.57a41.7,41.7,0,0,0,2.76-5.13c1.61-4.34,4.79-5.29,8.95-4.75,2.17.28,2.34.42,1.29,2.28-1.42,2.54-2.85,5.07-4.28,7.61Z"/><path class="cls-15" d="M419.24,400.55a56.46,56.46,0,0,0,3.51-6.36c1.19-2.94,3.21-3.87,6.16-3.49.81.1,1.64,0,2.46,0,1.41,0,1.66.71,1,1.86q-2.24,4-4.51,8Z"/><path class="cls-14" d="M324.13,400.6a49.4,49.4,0,0,0,2.69-5.21c1.52-4,4.26-5.37,8.42-4.73,2.49.38,2.77.45,1.6,2.44-1.49,2.54-3.12,5-4.69,7.51Z"/><path class="cls-15" d="M101.62,400.58a48.47,48.47,0,0,0,3.6-6.37c1.15-3,3.07-3.71,6-3.56,4.48.24,4.47.06,2.29,3.92-1.12,2-2.16,4-3.24,6Z"/><path class="cls-15" d="M260.46,400.57a41.54,41.54,0,0,0,2.74-5.13c1.59-4.33,4.77-5.29,8.92-4.75,2.16.28,2.32.42,1.28,2.29q-2.11,3.81-4.25,7.6Z"/><path class="cls-15" d="M85.74,400.57a36.36,36.36,0,0,0,2.79-5.11c1.58-4.37,4.77-5.3,8.92-4.77,2.17.28,2.35.44,1.32,2.28l-4.26,7.61Z"/><path class="cls-16" d="M181.39,400.6c1.4-2.75,2.69-5.57,4.28-8.22a4.51,4.51,0,0,1,2.72-1.6,19.45,19.45,0,0,1,4-.06c1.65,0,2.72.28,1.47,2.27-1.56,2.49-3,5.06-4.48,7.6Z"/><path class="cls-17" d="M213.24,400.62c1.55-3,2.84-6.14,4.77-8.84.67-.94,2.91-.91,4.45-1a18.53,18.53,0,0,1,3.73.49c-.5,1.15-.93,2.34-1.52,3.44-1.07,2-2.23,3.93-3.35,5.89Z"/><path class="cls-17" d="M229.16,400.63c1.44-2.86,2.84-5.74,4.33-8.57.84-1.6,2.44-1.42,3.9-1.33s3.14.34,4.71.52c-.6,1.28-1.16,2.58-1.81,3.83-1,1.86-2,3.68-3,5.51Z"/><path class="cls-17" d="M244.57,400.56c1.29-2.24,2.76-4.41,3.84-6.75s2.65-3.59,5.36-3.12a19.3,19.3,0,0,0,3,0c1.39,0,1.69.72,1,1.87-1.5,2.67-3,5.33-4.54,8Z"/><path class="cls-18" d="M308.14,400.6a50.78,50.78,0,0,0,3.57-6.43c1.16-3,3.16-3.92,6.12-3.47a12.49,12.49,0,0,0,1.5,0c2.52.09,2.77.4,1.61,2.38-1.5,2.55-3.13,5-4.71,7.52Z"/><path class="cls-19" d="M356,400.6c1.41-2.75,2.7-5.58,4.29-8.22a4.46,4.46,0,0,1,2.73-1.6,19.36,19.36,0,0,1,4-.06c1.66,0,2.72.29,1.48,2.27-1.57,2.49-3,5.06-4.48,7.6Z"/><path class="cls-17" d="M387.92,400.61c1.48-2.89,2.86-5.83,4.49-8.63a3.68,3.68,0,0,1,2.48-1.21,27.9,27.9,0,0,1,4.48,0c1.73,0,1.95.73,1,2.19-1.56,2.5-3,5.1-4.44,7.66Z"/><path class="cls-17" d="M403.81,400.63c1.44-2.85,2.79-5.76,4.38-8.53a3.56,3.56,0,0,1,2.4-1.32,33.36,33.36,0,0,1,4.9,0c1.37,0,1.7.74,1,1.89-1.52,2.66-3.07,5.31-4.61,8Z"/><path class="cls-18" d="M482.82,400.6c1-1.84,2-3.7,3-5.51,2.66-4.51,4.14-5.15,9.35-4.37,1.31.2,1.16.84.71,1.6-1.66,2.78-3.35,5.54-5,8.3Z"/><path class="cls-18" d="M498.78,400.6c.82-1.6,1.59-3.22,2.46-4.78,3.07-5.48,3.08-5.45,9.15-5.12,1.44.07,2.29.22,1.23,1.9-1.65,2.64-3.21,5.34-4.8,8Z"/><path class="cls-19" d="M22.64,400.61c1.49-2.89,2.89-5.83,4.54-8.62a3.66,3.66,0,0,1,2.45-1.22,27.91,27.91,0,0,1,4.48,0c1.78.05,1.91.8,1,2.21-1.56,2.51-3,5.09-4.47,7.64Z"/><path class="cls-17" d="M54.5,400.64c1.44-2.86,2.84-5.74,4.33-8.58.85-1.6,2.45-1.42,3.91-1.33s3.14.34,4.71.52c-.6,1.28-1.16,2.58-1.82,3.83-1,1.86-2,3.68-3,5.51Z"/><path class="cls-19" d="M69.93,400.55c1.29-2.24,2.74-4.41,3.83-6.74s2.65-3.58,5.35-3.12a20.71,20.71,0,0,0,3,0c1.41,0,1.67.72,1,1.87q-2.25,4-4.52,8Z"/><path class="cls-15" d="M117.56,400.59c1.32-2.41,2.69-4.79,4-7.22,1-1.89,2.24-3.06,4.57-2.69a16.38,16.38,0,0,0,3.43,0c2-.09,1.64,1,1,2.08-1.58,2.64-3.22,5.24-4.83,7.86Z"/><path class="cls-18" d="M133.51,400.6a48.88,48.88,0,0,0,3.55-6.44c1.15-3,3.15-3.92,6.11-3.45,1.24.2,2.49.35,3.74.52-.49,1-.9,2.12-1.48,3.11-1.23,2.12-2.56,4.19-3.85,6.28Z"/><path class="cls-18" d="M149.47,400.6c1.51-2.72,2.95-5.48,4.56-8.15.43-.72,1.34-1.62,2.06-1.64a63.65,63.65,0,0,1,6.74.41c-.89,1.75-1.72,3.54-2.68,5.24-.81,1.43-1.77,2.77-2.66,4.15Z"/><path class="cls-19" d="M372,400.6c1.38-2.76,2.64-5.59,4.21-8.23a4.52,4.52,0,0,1,2.77-1.59,16,16,0,0,1,4,0c2.33.1,2.42.29,1.14,2.6s-2.74,4.84-4.11,7.26Z"/><path class="cls-17" d="M38.61,400.61c1.47-2.9,2.88-5.83,4.47-8.66a2.91,2.91,0,0,1,2-1.17,38.55,38.55,0,0,1,5.48,0c1.15.06,1.28.87.77,1.75-1.54,2.7-3.13,5.38-4.7,8.06Z"/><path class="cls-18" d="M292.21,400.59c1.32-2.4,2.67-4.79,3.94-7.22,1-1.89,2.24-3.06,4.58-2.69a16.46,16.46,0,0,0,3.44,0c2-.09,1.69.93,1,2.07-1.59,2.63-3.22,5.24-4.84,7.86Z"/><path class="cls-19" d="M197.34,400.61c1.48-2.89,2.88-5.84,4.52-8.63a3.76,3.76,0,0,1,2.46-1.21,20.23,20.23,0,0,1,4,0c2.34.1,2.43.29,1.16,2.6s-2.75,4.85-4.13,7.26Z"/><path class="cls-20" d="M340.1,400.6a45.7,45.7,0,0,0,2.65-5.22c1.47-4.05,4.24-5.36,8.37-4.71,1.7.27,2.57.49,1.43,2.34-1.54,2.5-3,5.06-4.47,7.59Z"/><path class="cls-17" d="M165.44,400.6a47.39,47.39,0,0,0,2.65-5.22c1.49-4,4.25-5.37,8.38-4.71,1.73.27,2.54.52,1.42,2.35-1.54,2.5-3,5.05-4.48,7.58Z"/><path class="cls-12" d="M518.44,353.55c-2.18,3.42-5.6,1.78-8.55,2-.19,0-.81-1.11-.66-1.36,1.84-3.05,3.78-6,5.7-9,3.76-.07,3.8-.07,3.79,3.4C518.72,350.25,518.54,351.9,518.44,353.55Z"/><path class="cls-15" d="M9.9,393.7a7.88,7.88,0,0,1,8.86-2.88,1.94,1.94,0,0,1,.57,1.77c-1.45,2.72-3.07,5.35-4.63,8-1,.05-1.92.05-2.87.16-1.79.22-2.22-.69-2.1-2.26S9.85,395.3,9.9,393.7Z"/><path class="cls-21" d="M14.78,345.07c-1.06,2.07-2.07,4.18-3.24,6.2-.22.38-1.09.38-1.66.55-.05-.79-.13-1.59-.14-2.38C9.71,344.77,9.72,344.77,14.78,345.07Z"/><path class="cls-22" d="M514.75,400.6a31.61,31.61,0,0,1,2-3.8c.35-.52,1.22-.68,1.86-1a6.41,6.41,0,0,1,.13,1C518.75,400.71,518.74,400.71,514.75,400.6Z"/><path class="cls-15" d="M258.1,375.57c0-3.78,2.94-6.87,6.36-6.68a6.4,6.4,0,0,1,5.88,6.65,6.12,6.12,0,1,1-12.24,0Z"/><path class="cls-15" d="M9.88,375.06c0-2.89,0-4.41.06-6.18,0-.05.12,0,.18,0A6.41,6.41,0,0,1,16,375.54a6,6,0,0,1-6,6.29s-.12,0-.13,0C9.88,379.65,9.89,378.53,9.88,375.06Z"/><path class="cls-6" d="M434.33,355.66h-2.75c-1.76,0-1.94-.73-1.09-2.15,1.17-2,2.05-4.13,3.4-5.95a5,5,0,0,1,3.22-1.71,28.66,28.66,0,0,1,5.37.34l-2,4.73c-.19.45-.39.89-.61,1.32C438.51,354.79,436.88,356.79,434.33,355.66Z"/><path class="cls-23" d="M266.33,276H149.57c-1,0-2,.07-3,0-5.38-.48-8-5.17-5.41-9.81,3.94-7,8-14,12-21q18-31.23,36.08-62.43l39.57-68.48,30.86-53.46a11.26,11.26,0,0,1,1.58-2.48c2.75-2.75,5.73-4.22,9.71,0a14.11,14.11,0,0,1,1.94,2.86q29,50,57.95,100.07c11.95,20.68,23.78,41.44,35.71,62.13,7.82,13.55,15.72,27.06,23.58,40.58.5.86,1,1.72,1.44,2.6,2.18,4.42-.46,9-5.51,9.51a33.84,33.84,0,0,1-3.49,0H266.33Zm-.63-9.9c35.26,0,70.51-.07,105.77.07,6.2,0,8.37-.78,4.34-7.69-8.19-14.07-16.26-28.21-24.42-42.3-11.62-20.05-23.31-40.06-34.91-60.12Q293.29,116,270.18,75.82c-3.15-5.47-4.76-5.44-8,.07-3.71,6.37-7.38,12.78-11.07,19.17q-21.7,37.57-43.42,75.16Q182.06,214.61,156.35,259c-3.38,5.86-2.63,7.14,4.08,7.14Z"/><path class="cls-24" d="M265.7,266.11H160.43c-6.71,0-7.46-1.28-4.08-7.14q25.68-44.39,51.37-88.75,21.74-37.58,43.42-75.16c3.69-6.39,7.36-12.8,11.07-19.17,3.21-5.51,4.82-5.54,8-.07q23.18,40.11,46.3,80.25c11.6,20.06,23.29,40.07,34.91,60.12,8.16,14.09,16.23,28.23,24.42,42.3,4,6.91,1.86,7.72-4.34,7.69C336.21,266,301,266.11,265.7,266.11Zm27.42-95.25h.05c0-9.31.06-18.61,0-27.91a6.44,6.44,0,0,0-6.55-6.57c-3.62,0-6.13,2.4-6.43,6.16-.1,1.32-.05,2.65-.05,4q0,14.7,0,29.41c0,1.77.42,4.31-2.06,4.24s-1.91-2.64-1.91-4.38c0-8,0-15.95,0-23.93,0-6,.08-12,0-17.94-.08-4.13-2.46-6.4-6.49-6.54-4.62-.15-7.23,2.41-7.25,7.35-.05,13.3,0,26.59,0,39.88a35.19,35.19,0,0,1,0,4c-.12,1,.28,2.53-1.47,2.67s-1.53-1.41-1.67-2.43a25.21,25.21,0,0,1-.07-3.48V145.44c0-1.66.09-3.32,0-5-.24-3.62-2.82-6.67-5.82-7-4.84-.55-7.84,2.08-7.86,7.15-.06,13.12,0,26.25,0,39.37a18.72,18.72,0,0,1-.19,4c-.11.53-1,1.07-1.66,1.22-.29.08-1.13-.74-1.17-1.2-.17-2-.16-4-.16-6,0-6.48.09-13,0-19.44a6.14,6.14,0,0,0-5.22-6.22,6.52,6.52,0,0,0-7.22,4.72,12.32,12.32,0,0,0-.2,3.44c.42,17.08-.65,34.16.64,51.25.53,6.89,1.94,13.3,5.22,19.28,4.33,7.88,10.69,13.39,19.7,15.13a73.55,73.55,0,0,0,11.79,1c13.37.42,23-5.4,29.14-17.33,3.06-6,6.42-11.82,9.61-17.74,3.34-6.2,6.76-12.35,9.92-18.64,2.14-4.26,0-7.75-2.71-9.53-2.88-1.91-6.58-1.22-9.17,2a60.36,60.36,0,0,0-3.58,5.89c-1.66,2.65-3.31,5.3-5.07,7.87-.6.86-1.48.72-1.75-.38a10.85,10.85,0,0,1-.1-2.49Q293.11,183.83,293.12,170.86Z"/><path class="cls-17" d="M293.12,170.86q0,13,0,25.91a10.85,10.85,0,0,0,.1,2.49c.27,1.1,1.15,1.24,1.75.38,1.76-2.57,3.41-5.22,5.07-7.87a60.36,60.36,0,0,1,3.58-5.89c2.59-3.22,6.29-3.91,9.17-2,2.68,1.78,4.85,5.27,2.71,9.53-3.16,6.29-6.58,12.44-9.92,18.64C302.39,218,299,223.8,296,229.79c-6.1,11.93-15.77,17.75-29.14,17.33a73.55,73.55,0,0,1-11.79-1c-9-1.74-15.37-7.25-19.7-15.13-3.28-6-4.69-12.39-5.22-19.28-1.29-17.09-.22-34.17-.64-51.25a12.32,12.32,0,0,1,.2-3.44,6.52,6.52,0,0,1,7.22-4.72,6.14,6.14,0,0,1,5.22,6.22c.14,6.48,0,13,0,19.44,0,2,0,4,.16,6,0,.46.88,1.28,1.17,1.2.64-.15,1.55-.69,1.66-1.22a18.72,18.72,0,0,0,.19-4c0-13.12,0-26.25,0-39.37,0-5.07,3-7.7,7.86-7.15,3,.34,5.58,3.39,5.82,7,.11,1.66,0,3.32,0,5v29.91a25.21,25.21,0,0,0,.07,3.48c.14,1-.2,2.58,1.67,2.43s1.35-1.64,1.47-2.67a35.19,35.19,0,0,0,0-4c0-13.29,0-26.58,0-39.88,0-4.94,2.63-7.5,7.25-7.35,4,.14,6.41,2.41,6.49,6.54.1,6,0,12,0,17.94,0,8,0,15.95,0,23.93,0,1.74-.53,4.31,1.91,4.38s2.06-2.47,2.06-4.24q0-14.72,0-29.41c0-1.33-.05-2.66.05-4,.3-3.76,2.81-6.13,6.43-6.16a6.44,6.44,0,0,1,6.55,6.57c.09,9.3,0,18.6,0,27.91Z"/><path class="cls-15" d="M511.73,375.61c0-3.77,3.35-7,6.77-6.8.06,2.41,0,2.58,0,6.6,0,3.46,0,3.94,0,6.43a3.44,3.44,0,0,1-.66,0A6.13,6.13,0,0,1,511.73,375.61Z"/><text class="cls-25" transform="translate(49.94 382.55)">ACESSO NEGADO</text><text class="cls-25" transform="translate(303.82 382.55)">ACESSO NEGADO</text></g></g></svg>