<svg xmlns="http://www.w3.org/2000/svg" viewBox="0 0 829 653"><g id="Camada_2" data-name="Camada 2"><g id="Camada_1-2" data-name="Camada 1"><g id="Borda"><rect x="0.58" y="3.58" width="54.84" height="645.84" rx="20.32"/><path d="M35.1,4.16A19.76,19.76,0,0,1,54.84,23.9V629.1A19.76,19.76,0,0,1,35.1,648.84H20.9A19.76,19.76,0,0,1,1.16,629.1V23.9A19.76,19.76,0,0,1,20.9,4.16H35.1M35.1,3H20.9A20.9,20.9,0,0,0,0,23.9V629.1A20.9,20.9,0,0,0,20.9,650H35.1A20.9,20.9,0,0,0,56,629.1V23.9A20.9,20.9,0,0,0,35.1,3Z"/><rect x="778.76" y="3.55" width="49.69" height="645.9" rx="19.36"/><path d="M809.09,4.1A18.83,18.83,0,0,1,827.9,22.91V630.09a18.83,18.83,0,0,1-18.81,18.81h-11a18.83,18.83,0,0,1-18.8-18.81V22.91A18.83,18.83,0,0,1,798.11,4.1h11m0-1.1h-11a19.9,19.9,0,0,0-19.9,19.91V630.09A19.9,19.9,0,0,0,798.11,650h11A19.9,19.9,0,0,0,829,630.09V22.91A19.9,19.9,0,0,0,809.09,3Z"/><rect x="0.65" y="0.65" width="827.69" height="54.69" rx="23.01"/><path d="M805.34,0V1.31a22.38,22.38,0,0,1,22.35,22.35v8.68a22.38,22.38,0,0,1-22.35,22.35H23.66A22.38,22.38,0,0,1,1.31,32.34V23.66A22.38,22.38,0,0,1,23.66,1.31H805.34V0m0,0H23.66A23.66,23.66,0,0,0,0,23.66v8.68A23.66,23.66,0,0,0,23.66,56H805.34A23.66,23.66,0,0,0,829,32.34V23.66A23.66,23.66,0,0,0,805.34,0Z"/><rect x="0.65" y="597.65" width="827.69" height="54.69" rx="23.01"/><path d="M805.34,597v1.31a22.38,22.38,0,0,1,22.35,22.35v8.68a22.38,22.38,0,0,1-22.35,22.35H23.66A22.38,22.38,0,0,1,1.31,629.34v-8.68a22.38,22.38,0,0,1,22.35-22.35H805.34V597m0,0H23.66A23.66,23.66,0,0,0,0,620.66v8.68A23.66,23.66,0,0,0,23.66,653H805.34A23.66,23.66,0,0,0,829,629.34v-8.68A23.66,23.66,0,0,0,805.34,597Z"/></g><rect x="105.5" y="88.5" width="55" height="483" rx="17.58"/><path d="M142.92,89A17.1,17.1,0,0,1,160,106.08V553.92A17.1,17.1,0,0,1,142.92,571H123.08A17.1,17.1,0,0,1,106,553.92V106.08A17.1,17.1,0,0,1,123.08,89h19.84m0-1H123.08A18.07,18.07,0,0,0,105,106.08V553.92A18.07,18.07,0,0,0,123.08,572h19.84A18.07,18.07,0,0,0,161,553.92V106.08A18.07,18.07,0,0,0,142.92,88Z"/><rect x="186.47" y="88.47" width="55.06" height="431.06" rx="16.61"/><path d="M224.92,88.94a16.16,16.16,0,0,1,16.14,16.14V502.92a16.16,16.16,0,0,1-16.14,16.14H203.08a16.16,16.16,0,0,1-16.14-16.14V105.08a16.16,16.16,0,0,1,16.14-16.14h21.84m0-.94H203.08A17.08,17.08,0,0,0,186,105.08V502.92A17.08,17.08,0,0,0,203.08,520h21.84A17.08,17.08,0,0,0,242,502.92V105.08A17.08,17.08,0,0,0,224.92,88Z"/><rect x="267.47" y="88.47" width="55.06" height="431.06" rx="16.61"/><path d="M305.92,88.94a16.16,16.16,0,0,1,16.14,16.14V502.92a16.16,16.16,0,0,1-16.14,16.14H284.08a16.16,16.16,0,0,1-16.14-16.14V105.08a16.16,16.16,0,0,1,16.14-16.14h21.84m0-.94H284.08A17.08,17.08,0,0,0,267,105.08V502.92A17.08,17.08,0,0,0,284.08,520h21.84A17.08,17.08,0,0,0,323,502.92V105.08A17.08,17.08,0,0,0,305.92,88Z"/><rect x="348.47" y="88.47" width="55.06" height="431.06" rx="16.61"/><path d="M386.92,88.94a16.16,16.16,0,0,1,16.14,16.14V502.92a16.16,16.16,0,0,1-16.14,16.14H365.08a16.16,16.16,0,0,1-16.14-16.14V105.08a16.16,16.16,0,0,1,16.14-16.14h21.84m0-.94H365.08A17.08,17.08,0,0,0,348,105.08V502.92A17.08,17.08,0,0,0,365.08,520h21.84A17.08,17.08,0,0,0,404,502.92V105.08A17.08,17.08,0,0,0,386.92,88Z"/><rect x="429.47" y="88.47" width="55.06" height="431.06" rx="16.61"/><path d="M467.92,88.94a16.16,16.16,0,0,1,16.14,16.14V502.92a16.16,16.16,0,0,1-16.14,16.14H446.08a16.16,16.16,0,0,1-16.14-16.14V105.08a16.16,16.16,0,0,1,16.14-16.14h21.84m0-.94H446.08A17.08,17.08,0,0,0,429,105.08V502.92A17.08,17.08,0,0,0,446.08,520h21.84A17.08,17.08,0,0,0,485,502.92V105.08A17.08,17.08,0,0,0,467.92,88Z"/><rect x="510.47" y="88.47" width="55.05" height="431.06" rx="16.61"/><path d="M548.92,88.94a16.16,16.16,0,0,1,16.14,16.14V502.92a16.16,16.16,0,0,1-16.14,16.14H527.08a16.16,16.16,0,0,1-16.14-16.14V105.08a16.16,16.16,0,0,1,16.14-16.14h21.84m0-.94H527.08A17.08,17.08,0,0,0,510,105.08V502.92A17.08,17.08,0,0,0,527.08,520h21.84A17.08,17.08,0,0,0,566,502.92V105.08A17.08,17.08,0,0,0,548.92,88Z"/><rect x="591.47" y="88.47" width="55.05" height="431.06" rx="16.61"/><path d="M629.92,88.94a16.16,16.16,0,0,1,16.14,16.14V502.92a16.16,16.16,0,0,1-16.14,16.14H608.08a16.16,16.16,0,0,1-16.14-16.14V105.08a16.16,16.16,0,0,1,16.14-16.14h21.84m0-.94H608.08A17.08,17.08,0,0,0,591,105.08V502.92A17.08,17.08,0,0,0,608.08,520h21.84A17.08,17.08,0,0,0,647,502.92V105.08A17.08,17.08,0,0,0,629.92,88Z"/><rect x="676.5" y="88.5" width="55" height="481" rx="17.54"/><path d="M714,89a17.05,17.05,0,0,1,17,17V552a17.05,17.05,0,0,1-17,17H694a17.05,17.05,0,0,1-17-17V106a17.05,17.05,0,0,1,17-17H714m0-1H694a18,18,0,0,0-18,18V552a18,18,0,0,0,18,18H714a18,18,0,0,0,18-18V106a18,18,0,0,0-18-18Z"/></g></g></svg>