<svg xmlns="http://www.w3.org/2000/svg" viewBox="0 0 464.22 403.98"><defs><style>.cls-1{fill:#f5f5f5;}.cls-2{fill:#ebebeb;}.cls-3{fill:#edcd00;}.cls-4,.cls-9{opacity:0.1;}.cls-10,.cls-15,.cls-17,.cls-25,.cls-5{fill:#fff;}.cls-12,.cls-6{fill:#fafafa;}.cls-7{fill:#e0e0e0;}.cls-8{fill:#373737;}.cls-10,.cls-23{opacity:0.4;}.cls-11{opacity:0.2;}.cls-12{stroke:#e0e0e0;stroke-miterlimit:10;stroke-width:1.17px;}.cls-13{fill:#474747;}.cls-14{opacity:0.15;}.cls-15{opacity:0.45;}.cls-16,.cls-21,.cls-25{opacity:0.5;}.cls-17{opacity:0.6;}.cls-18{fill:#272727;}.cls-19{opacity:0.05;}.cls-20{opacity:0.3;}.cls-22{fill:#e6e6e6;}.cls-24{fill:#f0f0f0;}</style></defs><g id="Camada_2" data-name="Camada 2"><g id="Floor"><path id="Floor-2" data-name="Floor" class="cls-1" d="M66.57,369.94c88.76,45.38,232.66,45.39,321.42,0s88.75-119,0-164.34-232.66-45.38-321.42,0S-22.19,324.57,66.57,369.94Z"/></g><g id="Shadows"><path id="Shadow" class="cls-2" d="M356.85,297.45c4.86,2.81,14.42,1.84,21.35-2.16l39.93-23.19c6.93-4,8.6-9.53,3.72-12.34s-14.44-1.85-21.37,2.15l-39.9,23.21C353.65,289.12,352,294.64,356.85,297.45Z"/><polygon id="Shadow-2" data-name="Shadow" class="cls-2" points="116.42 318.84 75.81 295.38 116.42 271.93 116.42 318.84"/><polygon id="Shadow-3" data-name="Shadow" class="cls-2" points="231.23 332.87 165.76 295.04 231.25 257.3 231.23 332.87"/></g><g id="Plants"><g id="Plants-2" data-name="Plants"><path class="cls-3" d="M61.48,264c.11-9.5-6.53-29.26-16.24-41.72s-25.1-21.66-36.16-18c-10.29,3.38-9.35,16.85,3,25.91s30.9,20.49,36.19,36l11.26,19.05Z"/><path class="cls-4" d="M61.48,264c.11-9.5-6.53-29.26-16.24-41.72s-25.1-21.66-36.16-18c-10.29,3.38-9.35,16.85,3,25.91s30.9,20.49,36.19,36l11.26,19.05Z"/><path class="cls-5" d="M62,277a.7.7,0,0,1-.62-.56c-6-32.51-31.89-59.19-47.53-65.2a.7.7,0,0,1-.39-.9.68.68,0,0,1,.89-.4c15.93,6.13,42.33,33.24,48.4,66.25a.69.69,0,0,1-.56.8A.41.41,0,0,1,62,277Z"/><path class="cls-3" d="M56.93,297.71c-1.46-5.35-7.88-14.25-18.34-21.65C27,267.86,12.29,264,9,257.67c-4-7.58,2.43-14.61,14.4-13s32.86,18.24,35.93,42.91Z"/><path class="cls-5" d="M59.32,292.14a.7.7,0,0,1-.59-.47c-9.61-27.9-30.7-37.91-40.5-39.3a.71.71,0,0,1-.59-.79.69.69,0,0,1,.79-.59c10.84,1.54,31.8,11.75,41.61,40.23a.69.69,0,0,1-.43.88A.59.59,0,0,1,59.32,292.14Z"/></g><g id="Plants-3" data-name="Plants"><path class="cls-3" d="M416,237s1.33-20,13.14-34.9,11.08-21,2.94-24S405.07,193,409.28,217,416,237,416,237Z"/><path class="cls-4" d="M416,237s1.33-20,13.14-34.9,11.08-21,2.94-24S405.07,193,409.28,217,416,237,416,237Z"/><path class="cls-5" d="M412.43,225.52a.46.46,0,0,1-.46-.44c-1.38-22.06,14.2-40.16,20-44.25a.46.46,0,1,1,.53.76c-5.71,4-21,21.77-19.63,43.43a.48.48,0,0,1-.44.5Z"/><path class="cls-3" d="M412.83,253.5a104.73,104.73,0,0,0,16.25,3.91c9.15,1.45,13.18-2.92,13.18-2.92s-3.6-8.57-8.79-11A50.83,50.83,0,0,1,449.33,250s5.59.08,7.81-8.44c0,0-3.31-5.12-14.4-7.89,0,0,6.75-1.7,16.47.78.73.29,3.84-10.73,4.78-15.81s-1.1-5-5.06-6.08-17.08-4-19.56-1.83-3.74,9.63-3.74,9.63a17.54,17.54,0,0,1-.38-9.44s-3.56-1.4-9.09.21c-4.53,1.32-4.75,4.4-4.54,7.88a34,34,0,0,0,2,8.84s-3.53-4.53-3.64-14.33c0,0-9.26,4.6-10.84,13.79C408.24,232.3,407,246.9,412.83,253.5Z"/><path class="cls-5" d="M414.58,251.71a.5.5,0,0,0,.46-.29c7.38-15.32,34.8-33.13,44.63-35a.51.51,0,0,0,.4-.6.52.52,0,0,0-.6-.41c-10,1.94-37.86,20-45.36,35.61a.52.52,0,0,0,.24.68A.48.48,0,0,0,414.58,251.71Z"/></g></g><g id="Computer_Screen" data-name="Computer Screen"><path class="cls-6" d="M57.9,304.8c-1.14,0-1.82-.94-1.82-2.51V134.09l206-118.94V182.69a8.93,8.93,0,0,1-4,7L59.54,304.29a3.44,3.44,0,0,1-1.64.51Z"/><path class="cls-7" d="M261.49,16.17V182.69a8.4,8.4,0,0,1-3.74,6.48L59.24,303.78a2.77,2.77,0,0,1-1.35.44c-1.1,0-1.22-1.35-1.22-1.93V134.42L261.49,16.17m1.17-2L55.5,133.75V302.29c0,2,1,3.1,2.39,3.1a3.87,3.87,0,0,0,1.94-.6l198.5-114.6a9.58,9.58,0,0,0,4.33-7.5V14.14Z"/><polygon class="cls-3" points="55.5 133.75 55.5 161.89 262.66 42.29 262.66 14.14 55.5 133.75"/><path class="cls-6" d="M71.75,135.25v4c0,.82.58,1.16,1.3.75l63.69-36.78v-7L73,133A2.87,2.87,0,0,0,71.75,135.25Z"/><path class="cls-8" d="M143.56,92.29c.72-.42,1.3-.08,1.3.75v4a2.86,2.86,0,0,1-1.3,2.25l-6.82,3.94v-7Z"/><path class="cls-8" d="M55.5,124.68a9.56,9.56,0,0,1,4.33-7.5L258.33,2.57c2.39-1.38,4.33-.26,4.33,2.5v9.07L55.5,133.75Z"/><path class="cls-3" d="M239.64,18.07a4.51,4.51,0,0,0-2,3.52c0,1.3.91,1.82,2,1.17a4.47,4.47,0,0,0,2-3.51C241.67,18,240.76,17.43,239.64,18.07Z"/><path class="cls-3" d="M246.07,14.35a4.51,4.51,0,0,0-2,3.52c0,1.3.91,1.82,2,1.17a4.47,4.47,0,0,0,2-3.51C248.1,14.23,247.19,13.7,246.07,14.35Z"/><path class="cls-3" d="M252.51,10.63a4.51,4.51,0,0,0-2,3.52c0,1.3.91,1.82,2,1.17a4.47,4.47,0,0,0,2-3.51C254.54,10.51,253.63,10,252.51,10.63Z"/><g class="cls-9"><path d="M197.67,60.61a9.83,9.83,0,0,0-4.44,7.69c0,2.83,2,4,4.44,2.57a9.83,9.83,0,0,0,4.44-7.69C202.11,60.34,200.12,59.2,197.67,60.61Z"/><path d="M177.36,72.34A9.81,9.81,0,0,0,172.92,80c0,2.83,2,4,4.44,2.56a9.81,9.81,0,0,0,4.44-7.69C181.8,72.07,179.81,70.92,177.36,72.34Z"/><path d="M218,48.89a9.8,9.8,0,0,0-4.44,7.69c0,2.83,2,4,4.44,2.56a9.83,9.83,0,0,0,4.44-7.69C222.42,48.62,220.43,47.47,218,48.89Z"/><path d="M238.29,37.14a9.81,9.81,0,0,0-4.44,7.69c0,2.83,2,4,4.44,2.56a9.81,9.81,0,0,0,4.44-7.69C242.73,36.87,240.74,35.72,238.29,37.14Z"/></g><path class="cls-7" d="M76.08,164.08l48.2-27.83c2.4-1.38,4.33-.26,4.33,2.5V185a9.56,9.56,0,0,1-4.33,7.5l-48.2,27.83c-2.39,1.38-4.33.26-4.33-2.5V171.58A9.55,9.55,0,0,1,76.08,164.08Z"/><path class="cls-7" d="M145.13,124.21l101-58.32c2.39-1.38,4.33-.26,4.33,2.5v46.29a9.58,9.58,0,0,1-4.33,7.5l-101,58.32c-2.4,1.38-4.33.26-4.33-2.5V131.71A9.58,9.58,0,0,1,145.13,124.21Z"/><path class="cls-7" d="M76.08,234.44l76.64-44.25c2.39-1.38,4.33-.4,4.33,2.19a9.29,9.29,0,0,1-4.33,7.19L76.08,243.82c-2.39,1.38-4.33.4-4.33-2.19A9.29,9.29,0,0,1,76.08,234.44Z"/><path class="cls-7" d="M76.08,250.85l76.64-44.25c2.39-1.38,4.33-.4,4.33,2.19a9.27,9.27,0,0,1-4.33,7.19L76.08,260.23c-2.39,1.39-4.33.4-4.33-2.19A9.29,9.29,0,0,1,76.08,250.85Z"/><path class="cls-7" d="M76.08,267.27,152.72,223c2.39-1.38,4.33-.4,4.33,2.19a9.29,9.29,0,0,1-4.33,7.19L76.08,276.65c-2.39,1.38-4.33.4-4.33-2.19A9.29,9.29,0,0,1,76.08,267.27Z"/></g><g id="Envelope"><g id="Letter"><path class="cls-3" d="M112.37,211.61a5.74,5.74,0,0,1,2.59-4.5l132.92-76.74a5.75,5.75,0,0,1,5.19,0l2.93,1.69a5.74,5.74,0,0,1,2.6,4.5V238.44a5.76,5.76,0,0,1-2.6,4.5L123.09,319.68a5.8,5.8,0,0,1-5.2,0L115,318a5.77,5.77,0,0,1-2.6-4.5Z"/><path class="cls-10" d="M113.12,209.05l7.38,4.25L257.84,134a5.38,5.38,0,0,0-1.84-1.94l-2.93-1.68a5.66,5.66,0,0,0-5.19,0L115,207.11A5.32,5.32,0,0,0,113.12,209.05Z"/><path class="cls-4" d="M112.36,211.61V313.48A5.72,5.72,0,0,0,115,318l2.92,1.7a4.75,4.75,0,0,0,.72.32,5.6,5.6,0,0,0,1.07.24,6.14,6.14,0,0,0,2-.07l.5-.13.31-.13a1.55,1.55,0,0,1-1.24,0,1.81,1.81,0,0,1-.8-1.71V216.3a2.27,2.27,0,0,1,1.35-2.21l-1.35-.79-7.38-4.25A5.4,5.4,0,0,0,112.36,211.61Z"/><path class="cls-11" d="M120.5,213.3l61.55,23a10,10,0,0,0,11.87-3.91l9.89-15.14,54.52-83.53-52.55,84.1,52.82,20.67a5.51,5.51,0,0,1-.81,2.59l-52.16-23-11.49,18.38a10,10,0,0,1-12.52,3.85l-8.18-3.61L121.3,319.89a1.81,1.81,0,0,1-.8-1.71v-1.7l52.69-79.92Z"/></g></g><g id="Mobile_Screen" data-name="Mobile Screen"><path class="cls-12" d="M260.17,69.34V303.25c0,2.76,1.93,3.88,4.33,2.5l105.07-60.67a9.55,9.55,0,0,0,4.33-7.5V3.68c0-2.77-1.93-3.88-4.33-2.5L264.5,61.84A9.55,9.55,0,0,0,260.17,69.34Z"/><path class="cls-8" d="M266.26,73.7a2.36,2.36,0,0,1,1.12-1.82l12-6.91c.62-.36,1.13-.13,1.13.52a2.36,2.36,0,0,1-1.13,1.82l-12,6.91C266.76,74.58,266.26,74.35,266.26,73.7Z"/><path class="cls-8" d="M266.26,78.36a2.35,2.35,0,0,1,1.12-1.82l12-6.91c.62-.36,1.13-.13,1.13.52A2.38,2.38,0,0,1,279.35,72l-12,6.91C266.76,79.24,266.26,79,266.26,78.36Z"/><path class="cls-8" d="M266.26,83a2.38,2.38,0,0,1,1.12-1.83l12-6.9c.62-.36,1.13-.13,1.13.52a2.38,2.38,0,0,1-1.13,1.82l-12,6.91C266.76,83.9,266.26,83.66,266.26,83Z"/><path class="cls-13" d="M365.78,23V21.17c0-.11-.08-.16-.19-.12l-1.43.65a.16.16,0,0,1-.24-.11,3.33,3.33,0,0,0-.33-.71.43.43,0,0,1,0-.35l1-1.94a.22.22,0,0,0-.08-.28l-1-.6a.21.21,0,0,0-.29.07l-1.2,1.79a.38.38,0,0,1-.31.16,3,3,0,0,0-.78.08.17.17,0,0,1-.21-.15l-.16-1.58c0-.11-.1-.15-.2-.1l-1.62.94a.44.44,0,0,0-.19.3l-.16,1.8a.65.65,0,0,1-.17.34,11.68,11.68,0,0,0-.9.95.33.33,0,0,1-.31.09l-1-.36a.25.25,0,0,0-.29.1l-1.19,2.06a.24.24,0,0,0,.05.31l.83.72a.29.29,0,0,1,.08.32A9.39,9.39,0,0,0,355,26.8a.69.69,0,0,1-.21.32l-1.48,1a.41.41,0,0,0-.16.31v1.87c0,.11.08.17.18.12l1.44-.65a.18.18,0,0,1,.24.11,3.4,3.4,0,0,0,.32.72.39.39,0,0,1,0,.35l-1,1.93a.22.22,0,0,0,.09.28l1,.6a.22.22,0,0,0,.29-.06l1.19-1.8a.45.45,0,0,1,.32-.16,3.13,3.13,0,0,0,.78-.08.17.17,0,0,1,.21.16l.16,1.57a.12.12,0,0,0,.19.1l1.62-.94a.42.42,0,0,0,.2-.3l.16-1.8a.58.58,0,0,1,.17-.34,8.11,8.11,0,0,0,.89-.95.34.34,0,0,1,.32-.09l1,.37a.27.27,0,0,0,.29-.11l1.19-2.06a.26.26,0,0,0,0-.31l-.83-.72a.32.32,0,0,1-.09-.32,8.15,8.15,0,0,0,.38-1.25.56.56,0,0,1,.21-.31l1.47-1A.43.43,0,0,0,365.78,23Zm-6.33,5.87c-1.51.87-2.73.17-2.73-1.58a6,6,0,0,1,2.73-4.73c1.51-.87,2.74-.16,2.74,1.58A6,6,0,0,1,359.45,28.91Z"/><path class="cls-5" d="M317,69.14c12.27-7.09,22.23-1.34,22.23,12.83s-10,31.42-22.23,38.51-22.24,1.34-22.24-12.84S304.76,76.23,317,69.14Z"/><path class="cls-13" d="M316.88,80.29c4-2.3,7.21-.43,7.21,4.17A15.94,15.94,0,0,1,316.88,97c-4,2.3-7.21.44-7.21-4.16A16,16,0,0,1,316.88,80.29Z"/><path class="cls-13" d="M331.09,104.82c0-7.56-5.3-10.62-11.85-6.84l-4.09,2.36c-6.54,3.78-11.85,13-11.85,20.52v2.06a11.94,11.94,0,0,0,3.82.59,20,20,0,0,0,9.92-3,43.81,43.81,0,0,0,14-13.91Z"/><path class="cls-3" d="M297,141.57,337.1,118.4c1.2-.69,2.17-.2,2.17,1.1a4.64,4.64,0,0,1-2.17,3.59L297,146.26c-1.2.69-2.17.2-2.17-1.09A4.64,4.64,0,0,1,297,141.57Z"/><path class="cls-8" d="M292.66,158.14,341.41,130c1.19-.69,2.16-.2,2.16,1.1a4.65,4.65,0,0,1-2.16,3.59l-48.75,28.17c-1.19.69-2.16.2-2.16-1.09A4.65,4.65,0,0,1,292.66,158.14Z"/><path class="cls-13" d="M342.71,152.68l13.65-7.88c.71-.41,1.3-.22,1.3.42a2.64,2.64,0,0,1-1.3,1.93L342.71,155c-.72.41-1.3.22-1.3-.43A2.61,2.61,0,0,1,342.71,152.68Z"/><path class="cls-3" d="M274.52,187.37l20-11.57c1.2-.7,2.17-.14,2.17,1.25v13.76a4.78,4.78,0,0,1-2.17,3.75l-20,11.57c-1.2.69-2.17.13-2.17-1.25V191.12A4.78,4.78,0,0,1,274.52,187.37Z"/><path class="cls-6" d="M277.71,189.29l13.65-7.88c.72-.42,1.3-.23,1.3.42a2.58,2.58,0,0,1-1.3,1.92l-13.65,7.89c-.71.41-1.29.22-1.29-.43A2.61,2.61,0,0,1,277.71,189.29Z"/><path class="cls-6" d="M276.42,196.23v4c0,.82.58,1.16,1.29.75l13.65-7.89a2.86,2.86,0,0,0,1.3-2.25v-4c0-.83-.58-1.16-1.3-.75L277.71,194A2.87,2.87,0,0,0,276.42,196.23Z"/><path class="cls-3" d="M307,168.61,327.06,157c1.19-.69,2.16-.13,2.16,1.25v13.77a4.8,4.8,0,0,1-2.16,3.75L307,187.37c-1.19.69-2.16.13-2.16-1.25V172.36A4.78,4.78,0,0,1,307,168.61Z"/><path class="cls-6" d="M310.21,170.53l13.65-7.88c.72-.42,1.3-.23,1.3.42a2.58,2.58,0,0,1-1.3,1.92l-13.65,7.88c-.72.42-1.3.23-1.3-.42A2.58,2.58,0,0,1,310.21,170.53Z"/><path class="cls-6" d="M308.91,177.47v4c0,.83.58,1.17,1.3.75l13.65-7.88a2.86,2.86,0,0,0,1.3-2.25v-4c0-.83-.58-1.17-1.3-.75l-13.65,7.88A2.86,2.86,0,0,0,308.91,177.47Z"/><path class="cls-3" d="M339.51,149.84l20-11.57c1.2-.69,2.17-.13,2.17,1.25v13.76a4.78,4.78,0,0,1-2.17,3.75l-20,11.57c-1.2.69-2.16.14-2.16-1.25V153.59A4.77,4.77,0,0,1,339.51,149.84Z"/><path class="cls-6" d="M342.71,151.77l13.65-7.88c.71-.42,1.29-.23,1.29.42a2.59,2.59,0,0,1-1.29,1.92l-13.65,7.88c-.72.42-1.3.23-1.3-.42A2.58,2.58,0,0,1,342.71,151.77Z"/><path class="cls-6" d="M341.41,158.71v4c0,.83.58,1.17,1.3.75l13.65-7.88a2.88,2.88,0,0,0,1.3-2.25v-4c0-.83-.59-1.17-1.3-.75l-13.65,7.88A2.86,2.86,0,0,0,341.41,158.71Z"/><path class="cls-7" d="M276.68,219l80.71-46.6c2.39-1.38,4.33-.4,4.33,2.2a9.3,9.3,0,0,1-4.33,7.19l-80.71,46.59c-2.39,1.38-4.33.4-4.33-2.19A9.29,9.29,0,0,1,276.68,219Z"/><path class="cls-7" d="M276.68,237.71l80.71-46.59c2.39-1.38,4.33-.4,4.33,2.19a9.29,9.29,0,0,1-4.33,7.19l-80.71,46.59c-2.39,1.38-4.33.4-4.33-2.19A9.29,9.29,0,0,1,276.68,237.71Z"/><path class="cls-3" d="M303,246l28.17-16.26c1.19-.7,2.16-.14,2.16,1.25v9.07a4.8,4.8,0,0,1-2.16,3.75L303,260.07c-1.19.69-2.16.13-2.16-1.25v-9.07A4.8,4.8,0,0,1,303,246Z"/><path class="cls-6" d="M278.45,220.33a4.45,4.45,0,0,0-2,3.52c0,1.29.9,1.82,2,1.17a4.49,4.49,0,0,0,2-3.52C280.48,220.2,279.57,219.68,278.45,220.33Z"/><path class="cls-6" d="M284.88,216.61a4.48,4.48,0,0,0-2,3.52c0,1.29.91,1.82,2,1.17a4.49,4.49,0,0,0,2-3.52C286.91,216.48,286,216,284.88,216.61Z"/><path class="cls-6" d="M291.31,212.89a4.48,4.48,0,0,0-2,3.52c0,1.29.91,1.82,2,1.17a4.48,4.48,0,0,0,2-3.52C293.35,212.76,292.44,212.24,291.31,212.89Z"/><path class="cls-6" d="M297.75,209.17a4.48,4.48,0,0,0-2,3.52c0,1.29.91,1.82,2,1.17a4.49,4.49,0,0,0,2-3.52C299.78,209,298.87,208.52,297.75,209.17Z"/><path class="cls-6" d="M304.18,205.45a4.47,4.47,0,0,0-2,3.51c0,1.3.91,1.83,2,1.18a4.49,4.49,0,0,0,2-3.52C306.21,205.32,305.3,204.8,304.18,205.45Z"/><path class="cls-6" d="M310.62,201.73a4.47,4.47,0,0,0-2,3.51c0,1.3.91,1.83,2,1.18a4.49,4.49,0,0,0,2-3.52C312.65,201.6,311.74,201.08,310.62,201.73Z"/><path class="cls-6" d="M317.05,198a4.47,4.47,0,0,0-2,3.51c0,1.3.91,1.83,2,1.18a4.51,4.51,0,0,0,2-3.52C319.08,197.88,318.17,197.36,317.05,198Z"/><path class="cls-6" d="M278.45,239.11a4.47,4.47,0,0,0-2,3.52c0,1.29.9,1.82,2,1.17a4.49,4.49,0,0,0,2-3.52C280.48,239,279.57,238.46,278.45,239.11Z"/><path class="cls-6" d="M284.88,235.39a4.49,4.49,0,0,0-2,3.52c0,1.29.91,1.82,2,1.17a4.49,4.49,0,0,0,2-3.52C286.91,235.27,286,234.74,284.88,235.39Z"/><path class="cls-6" d="M291.31,231.67a4.49,4.49,0,0,0-2,3.52c0,1.29.91,1.82,2,1.17a4.48,4.48,0,0,0,2-3.52C293.35,231.55,292.44,231,291.31,231.67Z"/><path class="cls-6" d="M297.75,228a4.49,4.49,0,0,0-2,3.52c0,1.29.91,1.82,2,1.17a4.49,4.49,0,0,0,2-3.52C299.78,227.83,298.87,227.3,297.75,228Z"/><path class="cls-6" d="M304.18,224.23a4.49,4.49,0,0,0-2,3.52c0,1.29.91,1.82,2,1.17a4.49,4.49,0,0,0,2-3.52C306.21,224.11,305.3,223.58,304.18,224.23Z"/><path class="cls-6" d="M310.62,220.51a4.49,4.49,0,0,0-2,3.52c0,1.29.91,1.82,2,1.17a4.49,4.49,0,0,0,2-3.52C312.65,220.39,311.74,219.86,310.62,220.51Z"/><path class="cls-6" d="M317.05,216.79a4.49,4.49,0,0,0-2,3.52c0,1.29.91,1.82,2,1.17a4.49,4.49,0,0,0,2-3.52C319.08,216.67,318.17,216.14,317.05,216.79Z"/></g><g id="Key"><path class="cls-8" d="M377.3,286.07a19.46,19.46,0,0,1-9.85-2.61c-7.2-4.16-11.34-12.87-11.34-23.89,0-19.38,12.32-41.68,28.05-50.76,8.47-4.88,16.88-5.42,23.68-1.49,7.21,4.16,11.34,12.87,11.34,23.89,0,19.39-12.32,41.68-28.05,50.76A27.76,27.76,0,0,1,377.3,286.07ZM398,218.68a14.8,14.8,0,0,0-6.83,2.22c-11.42,6.59-21.07,24.3-21.07,38.67,0,5.82,1.64,10.23,4.37,11.81,3.11,1.8,7.43-.16,9.73-1.49,11.42-6.59,21.07-24.31,21.07-38.68,0-5.81-1.63-10.23-4.36-11.8A5.72,5.72,0,0,0,398,218.68Z"/><path class="cls-13" d="M407.72,234.32c0-10.89-6.85-14.91-6.85-14.91h0c2.73,1.57,4.36,6,4.36,11.8,0,14.37-9.65,32.09-21.07,38.68-2.3,1.33-6.62,3.29-9.73,1.49,0,0,5.79,3.59,13.78-.77C399.79,264.29,407.72,248.69,407.72,234.32Z"/><path class="cls-13" d="M396.72,98.23a7.21,7.21,0,0,0-14.42,0v0h0V213h0a3.57,3.57,0,0,0,2.11,2.94,11.25,11.25,0,0,0,10.2,0,3.57,3.57,0,0,0,2.11-2.94h0V98.25h0Z"/><path class="cls-8" d="M391,123.86a9.22,9.22,0,0,0-4.17-7.21,2.88,2.88,0,0,0-3-.26h0L366,126.63l-.43.26a1,1,0,0,0-.17.1,5.28,5.28,0,0,0-.85.7,5.89,5.89,0,0,0,6.95,9.37l.34-.19,17.91-10.32h0A3,3,0,0,0,391,123.86Z"/><path class="cls-8" d="M391,152.59a9.22,9.22,0,0,0-4.17-7.22,2.9,2.9,0,0,0-3-.26h0l-20.86,12-.43.26a1,1,0,0,0-.17.1,5.84,5.84,0,0,0-.86.7,5.9,5.9,0,0,0,7,9.37l.34-.19,21-12h0A2.93,2.93,0,0,0,391,152.59Z"/></g><g id="Pastas"><g id="Box"><polygon class="cls-3" points="163.43 363.44 163.43 338.81 195.43 320.34 195.43 344.97 163.43 363.44"/><polygon class="cls-3" points="163.43 338.81 123.44 315.73 123.44 340.35 163.43 363.44 163.43 338.81"/><polygon class="cls-14" points="163.43 338.81 123.44 315.73 123.44 340.35 163.43 363.44 163.43 338.81"/><polygon class="cls-3" points="163.43 338.81 196.38 319.79 155.43 296.14 122.49 315.17 163.43 338.81"/><polygon class="cls-15" points="163.43 338.81 196.38 319.79 155.43 296.14 122.49 315.17 163.43 338.81"/><polygon class="cls-3" points="163.43 338.81 163.43 344.97 196.38 325.95 196.38 319.79 163.43 338.81"/><polygon class="cls-11" points="163.43 344.97 195.43 326.5 195.43 327.85 163.43 346.33 163.43 344.97"/><polygon class="cls-3" points="122.49 315.17 163.43 338.81 163.43 344.97 122.49 321.33 122.49 315.17"/><polygon class="cls-11" points="122.49 315.17 163.43 338.81 163.43 344.97 122.49 321.33 122.49 315.17"/><polygon class="cls-11" points="163.43 344.97 123.44 321.88 123.44 323.24 163.43 346.33 163.43 344.97"/><path class="cls-8" d="M174,342.56l10.92-6.31c.48-.27.86-.05.86.49v6.46a1.86,1.86,0,0,1-.86,1.48L174,351c-.48.27-.86.05-.86-.49V344A1.86,1.86,0,0,1,174,342.56Z"/><path class="cls-1" d="M174.67,343.29l9.52-5.5c.32-.18.57,0,.57.33V343a1.25,1.25,0,0,1-.57,1l-9.52,5.5c-.32.18-.57,0-.57-.33v-4.84A1.24,1.24,0,0,1,174.67,343.29Z"/><g class="cls-16"><path class="cls-8" d="M174.93,344.57a.13.13,0,0,1-.12-.07.14.14,0,0,1,.05-.19l9-5.19a.14.14,0,0,1,.19.05.15.15,0,0,1-.05.19l-9,5.19Z"/><path class="cls-8" d="M174.93,345.76a.15.15,0,0,1-.12-.07.14.14,0,0,1,.05-.19l9-5.19a.14.14,0,0,1,.19.05.15.15,0,0,1-.05.19l-9,5.19Z"/><path class="cls-8" d="M174.93,347a.15.15,0,0,1-.12-.07.14.14,0,0,1,.05-.19l9-5.19a.14.14,0,0,1,.19.05.15.15,0,0,1-.05.19l-9,5.19Z"/><path class="cls-8" d="M174.93,348.14a.15.15,0,0,1-.12-.07.14.14,0,0,1,.05-.19l9-5.19a.14.14,0,0,1,.19.05.15.15,0,0,1-.05.19l-9,5.19Z"/></g></g><polygon id="Shadow-4" data-name="Shadow" class="cls-4" points="193.7 318.24 163.43 335.72 125.17 313.61 124.23 314.17 163.43 336.73 194.64 318.79 193.7 318.24"/><g id="Box-2" data-name="Box"><polygon class="cls-3" points="163.43 335.72 163.43 311.09 195.43 292.62 195.43 317.25 163.43 335.72"/><polygon class="cls-3" points="163.43 311.09 123.44 288 123.44 312.63 163.43 335.72 163.43 311.09"/><polygon class="cls-14" points="163.43 311.09 123.44 288 123.44 312.63 163.43 335.72 163.43 311.09"/><polygon class="cls-3" points="163.43 311.09 196.38 292.06 155.43 268.42 122.49 287.45 163.43 311.09"/><polygon class="cls-17" points="163.43 311.09 196.38 292.06 155.43 268.42 122.49 287.45 163.43 311.09"/><polygon class="cls-3" points="163.43 311.09 163.43 317.25 196.38 298.23 196.38 292.06 163.43 311.09"/><polygon class="cls-11" points="163.43 317.25 195.43 298.78 195.43 300.13 163.43 318.6 163.43 317.25"/><polygon class="cls-3" points="122.49 287.45 163.43 311.09 163.43 317.25 122.49 293.61 122.49 287.45"/><polygon class="cls-11" points="122.49 287.45 163.43 311.09 163.43 317.25 122.49 293.61 122.49 287.45"/><polygon class="cls-11" points="163.43 317.25 123.44 294.16 123.44 295.51 163.43 318.6 163.43 317.25"/><path class="cls-8" d="M174,314.83l10.92-6.31c.48-.27.86,0,.86.5v6.46a1.86,1.86,0,0,1-.86,1.47L174,323.26c-.48.28-.86.06-.86-.49v-6.46A1.89,1.89,0,0,1,174,314.83Z"/><path class="cls-1" d="M174.67,315.57l9.52-5.51c.32-.18.57,0,.57.33v4.85a1.24,1.24,0,0,1-.57,1l-9.52,5.5c-.32.18-.57,0-.57-.33v-4.84A1.24,1.24,0,0,1,174.67,315.57Z"/><g class="cls-16"><path class="cls-8" d="M174.93,316.85a.15.15,0,0,1-.12-.07.14.14,0,0,1,.05-.19l9-5.2a.15.15,0,0,1,.19.05.14.14,0,0,1-.05.19l-9,5.2Z"/><path class="cls-8" d="M174.93,318a.14.14,0,0,1-.12-.06.14.14,0,0,1,.05-.19l9-5.2a.15.15,0,0,1,.19.05.14.14,0,0,1-.05.19l-9,5.2Z"/><path class="cls-8" d="M174.93,319.22a.14.14,0,0,1-.12-.06.14.14,0,0,1,.05-.19l9-5.2a.15.15,0,0,1,.19.05.14.14,0,0,1-.05.19l-9,5.2Z"/><path class="cls-8" d="M174.93,320.41a.13.13,0,0,1-.07-.25l9-5.2a.15.15,0,0,1,.19.05.14.14,0,0,1-.05.19l-9,5.2Z"/></g></g><g id="Cabinet"><g id="Cabinet-2" data-name="Cabinet"><polygon class="cls-18" points="87.71 382.38 53.88 362.85 53.88 256.82 87.71 276.35 87.71 382.38"/><polygon class="cls-13" points="87.71 276.35 136.04 248.44 136.04 354.48 87.71 382.38 87.71 276.35"/><polygon class="cls-8" points="136.04 248.44 87.71 276.35 53.88 256.82 102.21 228.91 136.04 248.44"/><polygon class="cls-18" points="92.54 345.07 131.21 322.75 131.21 349.62 132.09 350.13 93.43 372.45 92.54 371.94 92.54 345.07"/><polygon class="cls-8" points="93.43 345.58 132.1 323.26 132.09 350.13 93.43 372.45 93.43 345.58"/><g class="cls-19"><polygon points="93.43 345.58 132.1 323.26 132.09 350.13 93.43 372.45 93.43 345.58"/></g><path class="cls-18" d="M108.59,341.39l6.57-3.8c.86-.49,1.55-.27,1.55.5a3.08,3.08,0,0,1-1.55,2.29l-6.57,3.8c-.86.49-1.55.26-1.55-.51A3.07,3.07,0,0,1,108.59,341.39Z"/><polygon class="cls-18" points="92.54 312.62 131.21 290.3 131.21 317.17 132.09 317.68 93.43 340.01 92.54 339.49 92.54 312.62"/><polygon class="cls-8" points="93.43 313.13 132.1 290.81 132.09 317.68 93.43 340.01 93.43 313.13"/><g class="cls-19"><polygon points="93.43 313.13 132.1 290.81 132.09 317.68 93.43 340.01 93.43 313.13"/></g><path class="cls-18" d="M108.59,308.94l6.57-3.8c.86-.49,1.55-.27,1.55.51a3.07,3.07,0,0,1-1.55,2.28l-6.57,3.8c-.86.49-1.55.27-1.55-.5A3.08,3.08,0,0,1,108.59,308.94Z"/><polygon class="cls-18" points="92.54 280.17 131.21 257.85 131.21 284.72 92.54 307.04 92.54 280.17"/></g><g id="Drawer"><polygon class="cls-13" points="150.54 273.56 129.09 261.18 129.08 284.85 150.54 297.23 150.54 273.56"/><g class="cls-9"><polygon points="150.54 273.56 129.09 261.18 129.08 284.85 150.54 297.23 150.54 273.56"/></g><polygon class="cls-8" points="130.58 260.31 129.08 261.18 150.54 273.56 152.04 272.69 130.58 260.31"/><path class="cls-3" d="M136.63,262.92a.52.52,0,0,0-.21-.47l0,0-1.1-.64h0a.52.52,0,0,0-.53.05l-21.85,12.6-.64-2.57a.68.68,0,0,0-.32-.41h0l-1.14-.66h0a.66.66,0,0,0-.69,0l-9.3,5.36a1.69,1.69,0,0,0-.75,1.31v31a.56.56,0,0,0,.2.48h0l1.17.68h0a.56.56,0,0,0,.52-.06L135.88,290a1.66,1.66,0,0,0,.76-1.31Z"/><path class="cls-11" d="M111.92,271.43a.69.69,0,0,0-.68,0L102,276.83a1.56,1.56,0,0,0-.54.57l-1.13-.66a1.54,1.54,0,0,1,.53-.57l9.3-5.36a.66.66,0,0,1,.69,0h0Z"/><path class="cls-11" d="M136.37,262.42a.55.55,0,0,0-.5.07L114,275.11a.66.66,0,0,1-1-.4l-.1-.28,21.85-12.6a.65.65,0,0,1,.33-.1.33.33,0,0,1,.2,0h0Z"/><path class="cls-3" d="M136.63,262.93v25.74a1.66,1.66,0,0,1-.76,1.31l-34,19.65a.45.45,0,0,1-.67-.39v-31.1a1.47,1.47,0,0,1,.22-.74,1.63,1.63,0,0,1,.53-.57l9.3-5.36a.67.67,0,0,1,.68,0h0a.67.67,0,0,1,.32.42l.64,2.56.1.28a.66.66,0,0,0,1,.4l21.87-12.62a.53.53,0,0,1,.49-.07h.06A.53.53,0,0,1,136.63,262.93Z"/><path class="cls-20" d="M136.63,262.93v25.74a1.66,1.66,0,0,1-.76,1.31l-34,19.65a.45.45,0,0,1-.67-.39v-31.1a1.47,1.47,0,0,1,.22-.74,1.63,1.63,0,0,1,.53-.57l9.3-5.36a.67.67,0,0,1,.68,0h0a.67.67,0,0,1,.32.42l.64,2.56.1.28a.66.66,0,0,0,1,.4l21.87-12.62a.53.53,0,0,1,.49-.07h.06A.53.53,0,0,1,136.63,262.93Z"/><polygon class="cls-7" points="114.29 276.23 114.29 272.16 116.71 270.77 116.71 274.83 114.29 276.23"/><path class="cls-21" d="M101.47,309.65h0l-1.17-.68a.56.56,0,0,1-.2-.48v-31a1.5,1.5,0,0,1,.22-.74l1.13.66h0a1.58,1.58,0,0,0-.22.74v31.1A.44.44,0,0,0,101.47,309.65Z"/><path class="cls-3" d="M140.27,265.05a.54.54,0,0,0-.21-.48l-.05,0-1.09-.64h0a.52.52,0,0,0-.53.05l-21.85,12.6-.64-2.56a.69.69,0,0,0-.31-.42h0l-1.14-.66h0a.66.66,0,0,0-.69,0l-9.29,5.37a1.65,1.65,0,0,0-.76,1.3v31a.55.55,0,0,0,.2.48h0l1.18.68h0a.54.54,0,0,0,.51-.06l33.94-19.59a1.7,1.7,0,0,0,.75-1.31Z"/><path class="cls-4" d="M115.56,273.56a.67.67,0,0,0-.68,0L105.59,279a1.65,1.65,0,0,0-.54.57l-1.13-.66a1.56,1.56,0,0,1,.54-.57l9.29-5.36a.68.68,0,0,1,.69,0h0Z"/><path class="cls-4" d="M140,264.54a.55.55,0,0,0-.5.07l-21.87,12.62a.66.66,0,0,1-1-.4l-.1-.28L138.38,264a.65.65,0,0,1,.33-.1.42.42,0,0,1,.2,0h0Z"/><path class="cls-3" d="M140.27,265.05V290.8a1.69,1.69,0,0,1-.75,1.31l-34,19.64a.45.45,0,0,1-.67-.39v-31.1a1.62,1.62,0,0,1,.22-.74,1.53,1.53,0,0,1,.54-.56l9.29-5.37a.69.69,0,0,1,.68,0h0a.69.69,0,0,1,.31.42l.64,2.56.1.28a.66.66,0,0,0,1,.4l21.87-12.62a.55.55,0,0,1,.5-.07l0,0h0A.54.54,0,0,1,140.27,265.05Z"/><path class="cls-11" d="M140.27,265.05V290.8a1.69,1.69,0,0,1-.75,1.31l-34,19.64a.45.45,0,0,1-.67-.39v-31.1a1.62,1.62,0,0,1,.22-.74,1.53,1.53,0,0,1,.54-.56l9.29-5.37a.69.69,0,0,1,.68,0h0a.69.69,0,0,1,.31.42l.64,2.56.1.28a.66.66,0,0,0,1,.4l21.87-12.62a.55.55,0,0,1,.5-.07l0,0h0A.54.54,0,0,1,140.27,265.05Z"/><polygon class="cls-22" points="123.15 275.34 123.15 271.27 125.57 269.88 125.57 273.94 123.15 275.34"/><path class="cls-23" d="M105.11,311.77h0l-1.17-.68a.55.55,0,0,1-.2-.48v-31a1.62,1.62,0,0,1,.22-.74l1.13.66h0a1.65,1.65,0,0,0-.22.75v31.09A.43.43,0,0,0,105.11,311.77Z"/><path class="cls-3" d="M143.91,267.17a.54.54,0,0,0-.21-.48l0,0-1.09-.64h0a.53.53,0,0,0-.53.06l-21.85,12.6-.63-2.57a.77.77,0,0,0-.32-.42h0l-1.13-.66h0a.68.68,0,0,0-.69,0l-9.3,5.37a1.67,1.67,0,0,0-.76,1.31v31a.55.55,0,0,0,.21.48h0l1.17.67h0a.51.51,0,0,0,.51-.06l33.94-19.59a1.66,1.66,0,0,0,.75-1.31Z"/><path class="cls-3" d="M119.2,275.68a.67.67,0,0,0-.67,0l-9.3,5.37a1.68,1.68,0,0,0-.53.56l-1.14-.66a1.61,1.61,0,0,1,.54-.56l9.29-5.37a.7.7,0,0,1,.7,0h0Z"/><path class="cls-3" d="M143.65,266.66a.62.62,0,0,0-.5.07l-21.87,12.62a.66.66,0,0,1-1-.4l-.1-.27L142,266.07a.69.69,0,0,1,.34-.1.38.38,0,0,1,.19,0h0Z"/><path class="cls-3" d="M143.91,267.17v25.75a1.66,1.66,0,0,1-.75,1.31l-34,19.64a.44.44,0,0,1-.66-.38v-31.1a1.54,1.54,0,0,1,.22-.75,1.68,1.68,0,0,1,.53-.56l9.3-5.37a.67.67,0,0,1,.67,0h0a.71.71,0,0,1,.31.42l.64,2.57.1.27a.66.66,0,0,0,1,.41l21.87-12.62a.6.6,0,0,1,.5-.08l0,0h0A.55.55,0,0,1,143.91,267.17Z"/><path class="cls-4" d="M143.91,267.17v25.75a1.66,1.66,0,0,1-.75,1.31l-34,19.64a.44.44,0,0,1-.66-.38v-31.1a1.54,1.54,0,0,1,.22-.75,1.68,1.68,0,0,1,.53-.56l9.3-5.37a.67.67,0,0,1,.67,0h0a.71.71,0,0,1,.31.42l.64,2.57.1.27a.66.66,0,0,0,1,.41l21.87-12.62a.6.6,0,0,1,.5-.08l0,0h0A.55.55,0,0,1,143.91,267.17Z"/><polygon class="cls-24" points="132.01 274.45 132.01 270.38 134.43 268.99 134.43 273.05 132.01 274.45"/><path class="cls-20" d="M108.75,313.9h0l-1.17-.68a.55.55,0,0,1-.21-.48v-31a1.52,1.52,0,0,1,.23-.75l1.13.66h0a1.47,1.47,0,0,0-.22.74v31.1A.44.44,0,0,0,108.75,313.9Z"/><path class="cls-3" d="M147.55,269.29a.54.54,0,0,0-.2-.47l-.06,0-1.09-.63h0a.57.57,0,0,0-.54.06l-21.85,12.6-.63-2.57a.71.71,0,0,0-.32-.41h0l-1.14-.66h0a.66.66,0,0,0-.69,0l-9.3,5.36a1.66,1.66,0,0,0-.75,1.31v31a.53.53,0,0,0,.2.48h0l1.17.68h0a.54.54,0,0,0,.51-.06l33.94-19.6a1.67,1.67,0,0,0,.76-1.31Z"/><path class="cls-25" d="M122.85,277.8a.69.69,0,0,0-.68,0l-9.3,5.36a1.63,1.63,0,0,0-.53.57l-1.13-.66a1.46,1.46,0,0,1,.53-.57l9.3-5.36a.66.66,0,0,1,.69,0h0Z"/><path class="cls-25" d="M147.29,268.78a.57.57,0,0,0-.49.08l-21.88,12.62a.65.65,0,0,1-1-.41l-.11-.27,21.85-12.6a.69.69,0,0,1,.34-.1.3.3,0,0,1,.19,0h0Z"/><path class="cls-3" d="M147.55,269.29l0,25.75a1.66,1.66,0,0,1-.76,1.31l-34,19.65a.45.45,0,0,1-.67-.39v-31.1a1.47,1.47,0,0,1,.22-.74,1.63,1.63,0,0,1,.53-.57l9.3-5.36a.67.67,0,0,1,.68,0h0a.7.7,0,0,1,.32.42l.63,2.56.1.28a.66.66,0,0,0,1,.4l21.88-12.62a.53.53,0,0,1,.49-.07h.06A.54.54,0,0,1,147.55,269.29Z"/><polygon class="cls-6" points="140.87 273.56 140.87 269.49 143.29 268.1 143.29 272.16 140.87 273.56"/><path class="cls-11" d="M112.39,316h0l-1.17-.68a.53.53,0,0,1-.2-.48v-31a1.47,1.47,0,0,1,.22-.74l1.13.66h0a1.47,1.47,0,0,0-.22.74v31.1A.44.44,0,0,0,112.39,316Z"/><polygon class="cls-13" points="114.88 294.14 93.43 281.76 93.43 305.44 114.88 317.82 114.88 294.14"/><polygon class="cls-8" points="94.93 280.9 93.43 281.76 114.88 294.14 116.38 293.28 94.93 280.9"/><polygon class="cls-8" points="114.45 292.82 153.11 270.5 153.11 297.37 114.45 319.69 114.45 292.82"/><path class="cls-18" d="M129.6,288.62l6.58-3.79c.85-.5,1.55-.27,1.55.5a3.13,3.13,0,0,1-1.55,2.29l-6.58,3.79c-.85.5-1.54.27-1.54-.5A3.11,3.11,0,0,1,129.6,288.62Z"/><polygon class="cls-18" points="114.45 292.82 113.16 292.08 113.16 318.95 114.45 319.69 114.45 292.82"/><polygon class="cls-13" points="113.16 292.08 151.83 269.75 153.11 270.5 114.45 292.82 113.16 292.08"/></g></g></g></g></svg>