<svg xmlns="http://www.w3.org/2000/svg" viewBox="0 0 426.67 512"><defs><style>.cls-1{fill:#edcd00;}</style></defs><g id="Camada_2" data-name="Camada 2"><g id="Capa_1" data-name="Capa 1"><path class="cls-1" d="M213.33,0C93.72,0,0,42.18,0,96s93.72,96,213.33,96,213.34-42.18,213.34-96S333,0,213.33,0Zm0,170.67c-113.15,0-192-39.36-192-74.67s78.85-74.67,192-74.67,192,39.36,192,74.67S326.49,170.67,213.33,170.67Z"/><path class="cls-1" d="M416,192a10.67,10.67,0,0,0-10.67,10.67c0,35.3-78.84,74.66-192,74.66s-192-39.36-192-74.66a10.67,10.67,0,1,0-21.33,0c0,53.82,93.72,96,213.33,96s213.34-42.18,213.34-96A10.67,10.67,0,0,0,416,192Z"/><path class="cls-1" d="M416,298.67a10.67,10.67,0,0,0-10.67,10.66c0,35.31-78.84,74.67-192,74.67s-192-39.36-192-74.67a10.67,10.67,0,0,0-21.33,0c0,53.83,93.72,96,213.33,96s213.34-42.17,213.34-96A10.67,10.67,0,0,0,416,298.67Z"/><path class="cls-1" d="M416,85.33A10.67,10.67,0,0,0,405.33,96V416c0,35.31-78.84,74.67-192,74.67s-192-39.36-192-74.67V96A10.67,10.67,0,1,0,0,96V416c0,53.82,93.72,96,213.33,96s213.34-42.18,213.34-96V96A10.67,10.67,0,0,0,416,85.33Z"/></g></g></svg>