<svg xmlns="http://www.w3.org/2000/svg"
    xmlns:xlink="http://www.w3.org/1999/xlink" viewBox="0 0 104.6 100.03">
    <defs>
        <style>.cls-1{fill:none;}.cls-2{fill:#1d1d1b;}.cls-3{opacity:0.2;}.cls-4{clip-path:url(#clip-path);}.cls-5{fill:#fff;}.cls-6{fill:#f6cd33;}</style>
        <clipPath id="clip-path">
            <circle class="cls-1" cx="50.03" cy="50.07" r="34.78"/>
        </clipPath>
    </defs>
    <g id="Layer_2" data-name="Layer 2">
        <g id="Layer_1-2" data-name="Layer 1">
            <g id="Layer_2-2" data-name="Layer 2">
                <g id="Layer_1-2-2" data-name="Layer 1-2">
                    <circle class="cls-2" cx="50.03" cy="50.07" r="34.78"/>
                    <g class="cls-3">
                        <g class="cls-4">
                            <polygon class="cls-5" points="12.92 54.41 12.29 54.41 12.29 35.85 33.1 15.04 33.54 15.48 12.92 36.1 12.92 54.41"/>
                            <circle class="cls-5" cx="12.61" cy="54.37" r="0.93"/>
                            <polygon class="cls-5" points="20.79 55.12 20.17 55.12 20.17 46.17 25.13 41.21 30.35 41.21 40.69 30.88 51.34 30.88 67.31 14.91 67.75 15.35 51.6 31.5 40.95 31.5 30.61 41.83 25.39 41.83 20.79 46.43 20.79 55.12"/>
                            <path class="cls-5" d="M21.42,55.09a.94.94,0,1,1-.94-.94h0A.94.94,0,0,1,21.42,55.09Z"/>
                            <polygon class="cls-5" points="29.86 57.8 29.24 57.8 29.24 52.44 43.33 38.35 50.11 38.35 72.42 16.04 72.86 16.48 50.37 38.97 43.58 38.97 29.86 52.69 29.86 57.8"/>
                            <circle class="cls-5" cx="29.55" cy="57.75" r="0.93"/>
                            <polygon class="cls-5" points="38.39 62.23 37.95 61.79 41.43 58.32 41.43 48.75 44.94 45.23 58.34 45.23 86.69 16.88 87.13 17.32 58.6 45.85 45.2 45.85 42.05 49 42.05 58.58 38.39 62.23"/>
                            <path class="cls-5" d="M38.87,62.63a.93.93,0,0,1-1.32-1.32.92.92,0,0,1,1.32,0A.94.94,0,0,1,38.87,62.63Z"/>
                            <polygon class="cls-5" points="47.85 56.99 47.41 56.55 50.48 53.47 84.19 53.47 94.39 43.28 94.83 43.72 84.45 54.09 50.74 54.09 47.85 56.99"/>
                            <path class="cls-5" d="M48.32,57.39a.93.93,0,0,1-1.3,0l0,0a1,1,0,0,1,0-1.3.92.92,0,0,1,1.32,0,.94.94,0,0,1,0,1.32Z"/>
                            <polygon class="cls-5" points="63.07 49.45 46.99 49.45 46.99 48.82 62.81 48.82 84.58 27.06 104.6 27.06 104.6 27.68 84.84 27.68 63.07 49.45"/>
                            <circle class="cls-5" cx="47.04" cy="49.13" r="0.93"/>
                            <polygon class="cls-5" points="16.65 54.77 16.02 54.77 16.02 40.19 31.89 24.32 46.43 24.32 53.26 17.48 53.7 17.92 46.68 24.94 32.15 24.94 16.65 40.45 16.65 54.77"/>
                            <circle class="cls-5" cx="16.33" cy="54.72" r="0.93"/>
                            <polygon class="cls-5" points="47.31 71 46.69 71 46.69 61.86 51.18 57.37 91.19 57.37 91.19 57.99 51.43 57.99 47.31 62.11 47.31 71"/>
                            <circle class="cls-5" cx="47" cy="70.96" r="0.93"/>
                            <polygon class="cls-5" points="78.44 65.95 64.22 65.95 60.91 62.64 53.35 62.64 53.35 62.02 61.17 62.02 64.48 65.33 78.18 65.33 83.77 59.75 95.53 59.75 95.53 60.37 84.02 60.37 78.44 65.95"/>
                            <path class="cls-5" d="M53.4,63.26a.94.94,0,1,1,.94-.94h0A.94.94,0,0,1,53.4,63.26Z"/>
                            <polygon class="cls-5" points="50.34 75.29 49.71 75.29 49.71 67.96 81.67 67.96 85.08 64.55 98.06 64.55 98.06 65.17 85.34 65.17 81.93 68.58 50.34 68.58 50.34 75.29"/>
                            <path class="cls-5" d="M51,75.24a.94.94,0,1,1-1-.93h0A.94.94,0,0,1,51,75.24Z"/>
                            <polygon class="cls-5" points="98.99 78.72 58.35 78.72 53.79 74.15 54.23 73.71 58.61 78.09 98.99 78.09 98.99 78.72"/>
                            <path class="cls-5" d="M53.38,74.62a.94.94,0,0,1,0-1.32.92.92,0,0,1,1.32,0h0a.93.93,0,1,1-1.32,1.32Z"/>
                            <rect class="cls-5" x="65.82" y="73.28" width="36.53" height="0.62"/>
                            <path class="cls-5" d="M65.87,74.53a1,1,0,0,1-1-.93.94.94,0,0,1,1.88,0h0a.93.93,0,0,1-.92.94Z"/>
                            <polygon class="cls-5" points="25.28 56.18 24.66 56.18 24.66 49.78 28.31 46.12 31.27 46.12 41.16 35.29 47.65 35.29 47.65 35.91 41.43 35.91 31.55 46.74 28.57 46.74 25.28 50.03 25.28 56.18"/>
                            <path class="cls-5" d="M25.9,56.09a.94.94,0,1,1-.94-.94h0a.93.93,0,0,1,.93.93Z"/>
                            <polygon class="cls-5" points="27.86 39.38 23.85 39.38 23.85 38.76 27.61 38.76 38.32 28.04 48.68 28.04 58.65 18.07 59.09 18.51 48.93 28.67 38.58 28.67 27.86 39.38"/>
                            <path class="cls-5" d="M23.9,40a1,1,0,0,1-.95-.93.94.94,0,1,1,1.88,0v0A1,1,0,0,1,23.9,40Z"/>
                            <polygon class="cls-5" points="35.63 57.8 35.01 57.8 35.01 51.69 44.33 42.37 55.63 41.46 80.41 16.68 80.85 17.12 55.9 42.07 44.6 42.97 35.63 51.94 35.63 57.8"/>
                            <circle class="cls-5" cx="35.32" cy="57.75" r="0.93"/>
                            <polygon class="cls-5" points="82.05 49.45 71.69 49.45 71.69 48.82 81.8 48.82 97.49 33.13 97.93 33.57 82.05 49.45"/>
                            <path class="cls-5" d="M71.74,50.09a.94.94,0,0,1-1-.84.93.93,0,0,1,.84-1h.19a.94.94,0,0,1,.84,1A1,1,0,0,1,71.74,50.09Z"/>
                            <polygon class="cls-5" points="76.5 43.09 76.06 42.65 81.56 37.15 86.78 37.15 92.97 30.96 103.83 30.96 103.83 31.58 93.23 31.58 87.04 37.77 81.82 37.77 76.5 43.09"/>
                            <path class="cls-5" d="M77,43.5a1,1,0,0,1-1.33,0A.94.94,0,1,1,77,42.17,1,1,0,0,1,77,43.5Z"/>
                        </g>
                    </g>
                    <path class="cls-2" d="M34.05,97.4A50,50,0,1,1,97.4,66l0,.11A50,50,0,0,1,34.05,97.4ZM65.85,3.3A49.37,49.37,0,1,0,96.79,65.89h0A49.44,49.44,0,0,0,65.85,3.3Z"/>
                    <path class="cls-2" d="M35.22,94l-.38-.13.26-.76.38.13Zm3.11.93.2-.78.38.1-.19.78Zm-6.51-2.23-.37-.16.32-.73.37.15Zm10.06,3,.14-.79.4.07-.14.79ZM28.53,91.18,28.17,91l.38-.71.35.18Zm17,5.06.08-.8H46l-.07.8ZM25.37,89.37l-.32-.22.43-.68.34.22Zm23.75,7.09v-.81h.4v.8ZM22.36,87.32l-.31-.23.48-.64.32.24Zm30.4,9.06,0-.8h.4l.06.8ZM19.52,85l-.3-.27.53-.6.3.26ZM56.38,96l-.11-.8.39-.06.12.8ZM16.87,82.52l-.28-.29.58-.56.28.29ZM60,95.38l-.17-.78.39-.09.18.79ZM14.43,79.82l-.26-.32.62-.5.26.3ZM63.48,94.46l-.23-.77.38-.11.24.76ZM12.21,76.93,12,76.6l.66-.46.23.32ZM66.92,93.27l-.29-.75.37-.15.3.75ZM10.22,73.88l-.17-.35.69-.41.21.35Zm60,17.93-.31-.72.35-.18.36.72ZM8.47,70.68l-.18-.36L9.05,70c.06.12.11.24.17.35Zm65,19.41-.42-.69.35-.2.41.69ZM7,67.36,6.83,67l.75-.29.15.37ZM76.54,88.09l-.49-.62.33-.23.46.66ZM5.76,63.93l-.12-.39.77-.23.11.38Zm73.69,22-.51-.63.3-.25.52.62ZM4.8,60.42,4.71,60l.79-.18.09.39Zm77.37,23.1-.55-.58.28-.28.57.58Zm-78-26.68-.12-.4.8-.11v.4Zm80.57,24-.6-.53.27-.3.6.53Zm-81-27.66v-.4l.8-.05v.39ZM87.05,78.09l-.64-.49.24-.32.64.48ZM3.63,49.59v-.4h.8v.4ZM89.1,75.09l-.68-.44.22-.33.68.42ZM3.81,46v-.4l.8.08V46ZM90.94,72l-.71-.37.18-.36.72.38ZM4.28,42.34l.07-.4.79.15-.09.39ZM92.52,68.67l-.73-.33.15-.36.74.31ZM5.05,38.78l.1-.39.78.2-.1.39Zm88.8,26.49-.8-.26.13-.38.76.26Zm-87-29.73-.8-.25.16-.48.76.27ZM94.13,61.59l.1-.39.78.2-.1.39Zm-86-29.5-.74-.31.16-.37.74.32Zm86.77,26L95,57.7l.79.14-.07.4ZM9.66,28.88,9,28.51l.19-.36.71.38ZM95.4,54.55v-.4l.8.08v.4Zm-84-28.77-.68-.43.22-.34.68.43ZM95.57,51v-.4h.8V51ZM13.46,22.83l-.64-.48.24-.33.64.49ZM95.54,47.4V47l.8-.06v.4ZM15.72,20.09l-.61-.53.27-.31.6.54ZM95.19,43.85v-.4l.79-.11.06.39Zm-77-26.41-.56-.58.29-.28.56.58ZM94.56,40.33a1.8,1.8,0,0,0-.08-.39l.78-.18.09.39ZM20.84,15.09l-.51-.62.31-.25.51.62ZM93.66,36.87l-.12-.38.77-.24.12.38Zm-70-24-.47-.65.33-.24.46.66ZM92.49,33.49l-.15-.4.75-.3.15.37ZM26.69,10.91l-.41-.69.34-.2.41.69Zm64.36,19.3-.18-.36.72-.36.18.37Zm-61.23-21-.36-.72.37-.18.35.73ZM89.37,27.09l-.2-.34.69-.41.21.34ZM33.1,7.74,32.8,7l.38-.15.29.75ZM87.45,24l-.23-.32.65-.47.24.33Zm-51-17.49-.24-.76.39-.12.23.77ZM85.29,21.17l-.25-.3.61-.52c.09.11.18.21.26.32ZM39.92,5.61l-.18-.78.4-.09.17.79Zm43,12.88-.28-.28.57-.57.29.3ZM43.44,5l-.12-.79.4-.06.11.8ZM80.34,16l-.3-.27.53-.6.3.27ZM47,4.57l-.06-.8h.41v.8Zm30.58,9.16-.32-.24.48-.64.32.24Zm-27-9.25V3.67H51v.8Zm24.07,7.2-.33-.21.42-.68.35.22Zm-20.49-7,.07-.8h.4l-.08.8Zm17.4,5.2-.36-.19L71.57,9l.35.18ZM57.68,5.09l.14-.8.4.07-.17.83ZM68.33,8.32,68,8.16l.31-.74.38.16ZM61.18,5.87l.2-.78.39.1-.2.78ZM65,7l-.35-.12.23-.8.39.13Z"/>
                    <path class="cls-2" d="M86.66,60.2l3.81,1.29A42.08,42.08,0,0,0,64.76,10.71l-1.29,3.81A38.06,38.06,0,0,1,86.66,60.2Z"/>
                    <path class="cls-2" d="M59.9,13.37l1.29-3.82A42.07,42.07,0,0,0,11,34.55l3.81,1.29A38,38,0,0,1,59.9,13.37Z"/>
                    <path class="cls-2" d="M13.55,39.42,9.73,38.09a42.1,42.1,0,0,0,24.56,51l1.29-3.82A38,38,0,0,1,13.55,39.42Z"/>
                    <path class="cls-2" d="M39.12,86.47l-1.29,3.81A42.09,42.09,0,0,0,89.29,65.09L85.48,63.8A38.06,38.06,0,0,1,39.12,86.47Z"/>
                    <g id="jpK4aE.tif">
                        <path class="cls-6" d="M77,42.24V63H69V42.56a1,1,0,0,1,.25-.63c.67-.69,1.38-1.35,2.07-2,.21-.21.35-.12.51,0,.54.56,1.1,1.1,1.63,1.68a2.73,2.73,0,0,0,3.41.65Z"/>
                        <path class="cls-6" d="M41.45,63.09h-8V47.72c0-.86.52-1.21,1-1.72l4.44,4.47c.78.78,1.56,1.54,2.32,2.33a1,1,0,0,1,.27.57v9.55Z"/>
                        <path class="cls-6" d="M65.15,46.09v17H57.63c-.42,0-.53-.11-.53-.53V54.45a1,1,0,0,1,.28-.71q3.67-3.7,7.38-7.39A2,2,0,0,1,65.15,46.09Z"/>
                        <path class="cls-6" d="M29.63,50.79V63H22.05c-.32,0-.46-.07-.45-.42V55a.81.81,0,0,1,0-.22l.51.12a4.68,4.68,0,0,0,4.52-1.26c.87-.82,1.69-1.68,2.54-2.52C29.34,51.09,29.46,50.94,29.63,50.79Z"/>
                        <path class="cls-6" d="M53.26,63.09H45.77c-.43,0-.54-.13-.53-.54V56.86c2.38,2.59,5,3,8,1.09Z"/>
                    </g>
                    <path class="cls-6" d="M21.28,51.9a4.82,4.82,0,0,0,1.59,1.49,1.51,1.51,0,0,0,1,.17,1.86,1.86,0,0,0,.87-.55c1-1,2-2.19,2.94-3.32,1.93-2.26,3.81-4.55,5.85-6.74.26-.27.52-.55.79-.81a7.49,7.49,0,0,1,.9-.79,1.18,1.18,0,0,1,.39-.19.49.49,0,0,1,.24,0,.41.41,0,0,1,.19.05h.09l.11.08.07.06c.17.16.29.3.42.44s.5.57.74.86l2.84,3.44c1.88,2.32,3.74,4.62,5.74,6.8A31.88,31.88,0,0,0,49.14,56a7.75,7.75,0,0,0,.81.56,1.69,1.69,0,0,0,.31.13h.11a6.13,6.13,0,0,0,.82-.49c.29-.21.57-.43.85-.65,1.13-.91,2.21-1.91,3.29-2.92s2.12-2,3.17-3.1c4.2-4.17,8.28-8.48,12.34-12.8l.47-.49.48.45,4.71,4.45-1,.38.71-6.24L76.94,29l.47.46c-3.78.44-7.56.82-11.34,1.24l.09-.25c1,1.22,2.08,2.46,3.12,3.69-1.13-1.21-2.23-2.36-3.36-3.54l-.2-.2.29-.05c3.76-.59,7.51-1.21,11.27-1.77l.51-.08V29l-.52,6.25-.54,6.26-.11,1.21-.91-.82-4.82-4.34h.94q-6,6.6-12.28,12.95Q58,52.09,56.33,53.61c-1.09,1-2.19,2-3.38,3q-.45.36-.93.69a5.74,5.74,0,0,1-1.1.64,2.8,2.8,0,0,1-.41.13,1.63,1.63,0,0,1-.54,0,2.56,2.56,0,0,1-.71-.28,6.51,6.51,0,0,1-1-.72,32.16,32.16,0,0,1-3.21-3.29c-2-2.25-3.82-4.59-5.64-6.94l-2.72-3.52c-.23-.29-.46-.57-.7-.85s-.23-.28-.33-.38h.22l-.1,0a7.19,7.19,0,0,0-.8.66c-.27.24-.53.5-.79.76-1,1-2,2.12-3.07,3.2l-3,3.26c-1,1.07-2,2.17-3.13,3.19a2.12,2.12,0,0,1-1,.56,1.72,1.72,0,0,1-1.13-.26A5,5,0,0,1,21.28,51.9Z"/>
                </g>
            </g>
        </g>
    </g>
</svg>