<svg xmlns="http://www.w3.org/2000/svg" viewBox="0 0 199.64 32.17"><defs><style>.cls-1{fill:#1d1d1b;}</style></defs><g id="Layer_2" data-name="Layer 2"><g id="Layer_1-2" data-name="Layer 1"><path class="cls-1" d="M30,12.26a10.92,10.92,0,0,1-.46,3.32,9.28,9.28,0,0,1-1.24,2.59,8.9,8.9,0,0,1-1.81,1.91,11.15,11.15,0,0,1-2.15,1.31,10,10,0,0,1-2.25.74,11.18,11.18,0,0,1-2.15.23l11.36,9.81H22.86L11.52,22.36H7.61V16.92h12.3a6.1,6.1,0,0,0,1.87-.43,4.61,4.61,0,0,0,1.47-.93,4,4,0,0,0,.95-1.41,5.06,5.06,0,0,0,.33-1.89V8.83a1.62,1.62,0,0,0-.11-.7.89.89,0,0,0-.29-.36.93.93,0,0,0-.38-.14l-.37,0H5.44V32.17H0V4.92A2.72,2.72,0,0,1,.21,3.85,2.78,2.78,0,0,1,.78,3a2.73,2.73,0,0,1,.87-.59,3,3,0,0,1,1.09-.2H23.38a6.68,6.68,0,0,1,3.08.65,6.23,6.23,0,0,1,2,1.66,6.4,6.4,0,0,1,1.13,2.14A7.55,7.55,0,0,1,30,8.79Z"/><path class="cls-1" d="M59.19,24.53a8.48,8.48,0,0,1-.35,2.52,7.34,7.34,0,0,1-.94,2,6.46,6.46,0,0,1-1.36,1.44,7.84,7.84,0,0,1-1.63,1A8.3,8.3,0,0,1,53.2,32a8.14,8.14,0,0,1-1.64.18H41.75a8.57,8.57,0,0,1-2.47-.4,7.15,7.15,0,0,1-2.48-1.31,7.24,7.24,0,0,1-1.9-2.36,7.6,7.6,0,0,1-.77-3.57V17.17a7.53,7.53,0,0,1,.77-3.54,7.39,7.39,0,0,1,1.9-2.37A7.3,7.3,0,0,1,39.28,10a8.57,8.57,0,0,1,2.47-.4h9.81a7.7,7.7,0,0,1,3.55.75,7.06,7.06,0,0,1,2.37,1.9,7.34,7.34,0,0,1,1.3,2.47,8.4,8.4,0,0,1,.41,2.49Zm-5.44-7.32a2.2,2.2,0,0,0-.56-1.67A2.27,2.27,0,0,0,51.56,15H41.79a2.24,2.24,0,0,0-1.65.55,2.16,2.16,0,0,0-.57,1.62v7.36a2.21,2.21,0,0,0,.57,1.64,2.24,2.24,0,0,0,1.65.56h9.77a2.21,2.21,0,0,0,1.65-.56,2.28,2.28,0,0,0,.54-1.64Z"/><path class="cls-1" d="M88.75,24.53a8.06,8.06,0,0,1-.18,1.64,7.87,7.87,0,0,1-.56,1.7,7.48,7.48,0,0,1-1,1.62,6.71,6.71,0,0,1-1.44,1.37,7,7,0,0,1-2,.95,8.09,8.09,0,0,1-2.51.36H71.32A8,8,0,0,1,69.69,32a8.42,8.42,0,0,1-1.7-.55,7.53,7.53,0,0,1-1.62-1A6.07,6.07,0,0,1,65,29a7.08,7.08,0,0,1-1-2,8.48,8.48,0,0,1-.35-2.52V0h5.44V24.53a2.12,2.12,0,0,0,.62,1.6,2.2,2.2,0,0,0,1.57.6h9.81a2.07,2.07,0,0,0,1.6-.61,2.18,2.18,0,0,0,.58-1.59V17.17a2.1,2.1,0,0,0-.61-1.6A2.2,2.2,0,0,0,81.13,15H71.32V9.56h9.81a7.89,7.89,0,0,1,1.63.18,8.09,8.09,0,0,1,3.33,1.52,6.28,6.28,0,0,1,1.36,1.45,7.36,7.36,0,0,1,.94,1.95,8.13,8.13,0,0,1,.36,2.51Z"/><path class="cls-1" d="M118,24.53a8.16,8.16,0,0,1-.36,2.52,7.34,7.34,0,0,1-.94,2,6,6,0,0,1-1.36,1.44,8,8,0,0,1-1.62,1A8.59,8.59,0,0,1,112,32a8,8,0,0,1-1.64.18h-9.81a8.51,8.51,0,0,1-2.46-.4,7.06,7.06,0,0,1-2.48-1.31,7.27,7.27,0,0,1-1.91-2.36,7.6,7.6,0,0,1-.76-3.57V17.17a7.53,7.53,0,0,1,.76-3.54,7.42,7.42,0,0,1,1.91-2.37A7.21,7.21,0,0,1,98.08,10a8.51,8.51,0,0,1,2.46-.4h9.81a7.74,7.74,0,0,1,3.56.75,7.12,7.12,0,0,1,2.36,1.9,7.36,7.36,0,0,1,1.31,2.47,8.73,8.73,0,0,1,.41,2.49Zm-5.44-7.32a2.21,2.21,0,0,0-.57-1.67,2.26,2.26,0,0,0-1.63-.54h-9.77a2.27,2.27,0,0,0-1.65.55,2.2,2.2,0,0,0-.56,1.62v7.36a2.25,2.25,0,0,0,.56,1.64,2.27,2.27,0,0,0,1.65.56h9.77a2.21,2.21,0,0,0,1.65-.56,2.24,2.24,0,0,0,.55-1.64Z"/><path class="cls-1" d="M143.07,15h-9.5V32.17h-5.5V15H121V9.56h7.07V2.18h5.5V9.56h9.5Z"/><path class="cls-1" d="M168.69,24.68a8.62,8.62,0,0,1-.4,2.44,7.21,7.21,0,0,1-3.61,4.3,7.4,7.4,0,0,1-3.48.75h-9.81a8.28,8.28,0,0,1-2.44-.4,7.15,7.15,0,0,1-2.42-1.28,7.31,7.31,0,0,1-1.88-2.33,7.4,7.4,0,0,1-.75-3.48,8.39,8.39,0,0,1,.4-2.45,7.2,7.2,0,0,1,1.28-2.43,7.31,7.31,0,0,1,2.33-1.88,7.4,7.4,0,0,1,3.48-.75h9.81v5.19h-9.81a2.21,2.21,0,0,0-1.72.68,2.44,2.44,0,0,0-.6,1.68,2.08,2.08,0,0,0,.7,1.67,2.52,2.52,0,0,0,1.66.59h9.77a2.17,2.17,0,0,0,1.71-.67,2.36,2.36,0,0,0,.61-1.67V17.05a2.24,2.24,0,0,0-.66-1.7,2.3,2.3,0,0,0-1.66-.63H149.26V9.56H161.2a8.33,8.33,0,0,1,2.44.4,7.09,7.09,0,0,1,4.29,3.6,7.35,7.35,0,0,1,.76,3.49Z"/><path class="cls-1" d="M198.41,9.56l-9.77,10.67,11,11.94h-7.49l-7.23-7.89-7.24,7.89h-7.51l11-12L171.43,9.56h7.44l6,6.55,6-6.55Z"/></g></g></svg>