<svg xmlns="http://www.w3.org/2000/svg" viewBox="0 0 671.14 388.87"><defs><style>.cls-1{fill:#fff;}</style></defs><g id="Camada_2" data-name="Camada 2"><g id="Camada_1-2" data-name="Camada 1"><g id="Camada_2-2" data-name="Camada 2"><g id="Camada_1-2-2" data-name="Camada 1-2"><path class="cls-1" d="M71.44,216.69V378.8c0,9.11,0,9.13-6.63,9.12-10,0-20.43,2.65-29.7-.89S18,373.08,9.15,367C2.15,362.11,0,355.9,0,344.82q.55-155,.13-309.94c0-5.58,1.07-8.75,4.65-11.42C14,16.62,23,9.24,31.94,1.8c2.59-2.14,4.63-2.54,7.36-.28,9.79,8.09,19.75,15.76,29.57,23.77a16.66,16.66,0,0,1,3.6,5Q104.14,90,135.74,149.82c.47.88,1,1.71,1.83,3.17,1-1.58,2-2.88,2.75-4.36Q172.18,89.14,204,29.6a14.66,14.66,0,0,1,3.39-4.42c9.7-7.86,19.53-15.4,29.16-23.4,2.86-2.37,5-2.23,7.78.1,9.08,7.58,18.25,15,27.55,22,3,2.31,4.16,4.94,4.14,9.81-.15,32.59-.08,65.18-.08,97.77V378.24c0,9.67,0,9.7-6.79,9.68-9.95,0-20.42,2.61-29.7-.91-9.09-3.46-16.7-14-25.48-19.95-7.45-5-9.63-11.71-9.47-23.21.57-41.44.22-82.91.22-124.37v-9.26c-1.71,2.81-2.69,4.25-3.54,5.84-13.76,25.69-27.44,51.45-41.33,77-1.19,2.2-3.74,4.09-5.68,4.14q-19.66.56-39.32,0c-1.76-.05-4.12-1.88-5.14-3.92-12.07-24.11-23.94-48.42-35.87-72.66C73.38,219.64,72.73,218.78,71.44,216.69ZM5.92,36.82V349.33c0,2,.18,5.16,1.09,6,8.23,7.2,16.64,14,25.58,21.37.13-2.64.27-4.13.27-5.61q0-115.39.07-230.8c0-2.52,1.13-5,1.72-7.55,1.7,1.47,4,2.39,5,4.49Q75,208.41,110,279.86c1,2,2,3.88,3.23,6.36l123-228.95L208.34,35.05c-30.12,56.28-59.9,111.88-89.63,167.54-3.42,6.39-4.39,6.56-7.85.12Q73.65,133.43,36.42,64.16c-1.13-2.1-2.26-4.52-3.81-5.81C24.09,51.25,15.44,44.45,5.92,36.82Zm113,252.52c11,0,20.84-.22,30.71.12,3.69.12,6-1.47,8.24-5.68q39.24-73.8,78.8-147.25c1-1.91,3.16-2.65,4.78-3.93.62,2.05,1.78,4.1,1.78,6.15q.12,116.07,0,232.14v8.58H270V37.06c-7.57,6-14.81,11.33-21.67,17.46a45.28,45.28,0,0,0-9.78,12q-58,107.6-115.81,215.48c-1.09,2-2.13,4.11-3.81,7.34ZM39.05,149.87V379.62H65.49c.09-1.36.21-2.41.21-3.47V208a14.11,14.11,0,0,0-.92-5.64C56.53,185.33,48.19,168.46,39.05,149.87Zm95.05,10.44L67.82,35,40,57.31l74.73,139.15C121.25,184.26,127.49,172.63,134.1,160.31Zm103.09-11.5c-9.05,16.92-17.23,32.11-25.28,47.43a14.17,14.17,0,0,0-1.37,6.07q-.1,74.1,0,148.21c0,1.72.56,4.25,1.46,5,8.14,7,16.42,13.72,25.18,20.94ZM8.8,29.75c9,7.21,17.13,13.81,25.35,20.3a2.34,2.34,0,0,0,2.54.38c8.51-6.62,17-13.41,26.05-20.66C53.8,22.58,45.65,15.93,37.38,9.57c-1-.74-2.78-.36-3.83.45C25.55,16.22,17.64,22.66,8.8,29.75Zm258.59,0C258.48,22.61,250.33,16,242.11,9.57a2.76,2.76,0,0,0-3-.28c-8.34,6.52-16.6,13.24-25.59,20.49,9,7.21,17.36,13.9,25.72,20.44a2.26,2.26,0,0,0,2.54,0c8.33-6.55,16.62-13.22,25.61-20.47Z"/></g></g><path class="cls-1" d="M363.79,315.43v-20h4.84c17.17,0,34.34-.1,51.51.07,3.39,0,5.37-.93,7-4,5.46-9.95,11.31-19.7,16.77-29.65a6.29,6.29,0,0,0,0-5.1c-5.23-9.91-10.83-19.63-16.08-29.53-1.52-2.86-3.34-4-6.58-3.94-17.32.14-34.64.07-52,.07h-5.49V200.79h4.79c26.05,0,52.1,0,78.15.07,2.86,0,4.49-.74,5.92-3.36,5.36-9.84,11-19.56,16.65-29.21a5.92,5.92,0,0,0,0-6.87c-5.78-9.78-11.46-19.61-16.92-29.57-1.43-2.62-3.27-2.88-5.77-2.87q-38.62.06-77.26,0c-22.35,0-44.7.09-67.05-.09-4.34,0-5.57,1.38-5.56,5.61q.17,114.84,0,229.69c0,3,.9,4.85,3.56,6.36,9.12,5.18,18.09,10.63,27.19,15.84a9.73,9.73,0,0,0,4.61,1c38.19.06,76.37,0,114.56.1,2.88,0,4.58-.88,6-3.41,5.59-10.05,11.49-19.94,17-30a6.79,6.79,0,0,0-.05-5.53c-5.13-9.79-10.68-19.36-15.82-29.15-1.62-3.08-3.64-4-7-4-25.89.12-51.78.06-77.67.06ZM358.22,168v54c0,6.63.13,6.77,6.61,6.77,16.28,0,32.57.37,48.82-.18,6.67-.23,10.49,1.5,13.17,7.77,2.91,6.81,7,13.11,11,20.27h-7.06c-22.49,0-45,0-67.47-.17-3.83,0-5.14,1.26-5.12,5.16.13,28.9.07,57.81.08,86.71,0,5.37.57,6,5.68,6h99.53c-4.85,8.52-9.52,16.47-13.9,24.58-1.39,2.58-3,3.35-5.89,3.34-35.52-.1-71-.06-106.54-.07-1.29,0-2.57-.14-4-.22V168Zm-31,211.9c-7.49-4.36-14.14-8.41-21-12.13-2.94-1.6-4.07-3.39-4.07-6.87q.18-110.85.09-221.69v-4.63h142c-4.63,8.09-9.14,15.67-13.32,23.42-1.66,3.09-3.57,4.32-7.22,4.29-30.33-.27-60.66-.23-91-.47-4.32,0-5.62,1.46-5.62,5.66q.13,103.11.07,206.2Zm36.6-58.9c8.77,0,17,0,25.32,0,17.9-.05,35.81,0,53.71-.31,4.37-.09,6.6,1.34,8.46,5.13,3.23,6.61,7,12.95,10.54,19.43a27.35,27.35,0,0,1,1.2,3H363.78Zm80.5-125.78H363.94V167.61c21.06,0,41.76,0,62.47.06a3.88,3.88,0,0,1,2.86,1.49C434.27,177.63,439.11,186.19,444.28,195.23Zm-80.44,67.06h73.69c-4.86,8.54-9.53,16.52-14,24.63a5.37,5.37,0,0,1-5.5,3.23c-16.12-.14-32.24-.07-48.37-.07h-5.86Zm85.34-125c5.19,9,10.12,17.52,14.91,26.09a3.86,3.86,0,0,1-.08,3.17c-4.79,8.6-9.71,17.12-14.91,26.24-5.16-9-10.08-17.56-14.86-26.15a3.88,3.88,0,0,1,0-3.2C439,154.82,444,146.32,449.18,137.25Z"/><path class="cls-1" d="M580.7,202.21c-1.3,2.21-2.14,3.69-3,5.14Q534.48,277,491.22,346.67c-1.91,3.06-2.27,5.44-.63,8.74,4.39,8.84,8.45,17.85,12.51,26.85a5.08,5.08,0,0,0,5.33,3.41c46.81-.08,93.62,0,140.43-.17a6.46,6.46,0,0,0,4.66-2.7q8.73-14.6,16.86-29.53a7.13,7.13,0,0,0,.24-5.85q-8.29-15.33-17.31-30.26c-.78-1.29-3.26-2.19-5-2.2-20.86-.15-41.71-.1-62.56-.1h-5.6c1.15-2,2-3.42,2.83-4.83Q626,241,669,172c2.43-3.88,2.94-6.85.62-11-4.64-8.37-8.78-17-12.78-25.75-1.48-3.22-3.24-4.4-6.88-4.38-43.16.13-86.33.08-129.49.08-2.77,0-5.6-.32-8.3.12-1.73.29-4,1.31-4.78,2.7q-9.09,15.13-17.58,30.62a5.8,5.8,0,0,0,.22,4.71c5.17,9.75,10.67,19.33,15.84,29.08,1.5,2.84,3.35,3.83,6.53,3.83,20.84,0,41.69.16,62.54.27Zm-84.41-38.58c5.18-9.09,9.85-17.45,14.77-25.67.61-1,2.55-1.77,3.87-1.78q66.74-.13,133.46,0a5.72,5.72,0,0,1,4.12,2.66c4.08,7.7,7.68,15.65,11.79,23.33,1.61,3,1.34,5.1-.41,7.9q-27.58,44-54.9,88.1-26.73,42.94-53.48,85.89c-.84,1.33-2.34,3.12-3.6,3.17-7.06.31-14.14.15-21.88.15.88-1.55,1.33-2.42,1.84-3.25Q585.73,257,639.55,169.75a6.79,6.79,0,0,0,1.13-4.62c-.19-.74-2.68-1.25-4.13-1.25q-67.83-.09-135.64,0C499.65,163.83,498.39,163.72,496.29,163.63Zm137.32,5.5c-.91,1.6-1.31,2.36-1.77,3.09q-54,87.35-107.89,174.71c-.77,1.25-1.66,3.15-1.21,4.19s2.58,1.58,4,1.58c32.07.07,64.14.17,96.2-.11,5.33,0,8.45,1.28,10.83,6.22,3.48,7.25,7.85,14.07,11.92,21.2a8.84,8.84,0,0,1-1.4.35q-66.71,0-133.4-.09c-1.37,0-3.32-1.55-4-2.88-3.75-7.53-7.11-15.26-10.81-22.82-1.18-2.41-.9-4.18.49-6.38,9-14.27,17.79-28.64,26.68-43q41.12-66.32,82.29-132.6c.89-1.42,2.55-3.28,3.92-3.34C617.25,169,625.08,169.13,633.61,169.13Zm-32.41.23c-5,8.09-9.84,15.65-14.37,23.37a6.55,6.55,0,0,1-6.54,3.73c-19-.09-38-.54-56.88.37-9.28.44-15-1.86-18.16-10.79-1.63-4.6-4.65-8.7-7-13-.59-1.08-1.05-2.23-1.69-3.63Zm44.62,150.77c-4.85,8.46-9.41,16.18-13.68,24.05-1.38,2.54-3,3.34-5.83,3.32-20.69-.12-41.39-.06-62.08-.07-1.22,0-2.43-.19-4.23-.34,5.52-8.89,10.66-17.28,16-25.58a3.94,3.94,0,0,1,2.9-1.33C600.85,320.11,622.85,320.13,645.82,320.13Zm4.66,57.48c-5.2-9.08-10.11-17.57-14.89-26.14a3.35,3.35,0,0,1,.24-2.75c4.74-8.44,9.57-16.82,14.72-25.79,5.19,9,10.12,17.51,14.92,26.08a3.41,3.41,0,0,1-.29,2.78C660.45,360.24,655.61,368.63,650.48,377.61Z"/></g></g></svg>