<?xml version="1.0" encoding="utf-8"?>
<!-- Generator: Adobe Illustrator 24.1.2, SVG Export Plug-In . SVG Version: 6.00 Build 0)  -->
<svg version="1.1" id="Camada_1" xmlns="http://www.w3.org/2000/svg" xmlns:xlink="http://www.w3.org/1999/xlink" x="0px" y="0px"
	 viewBox="0 0 536 388.9" style="enable-background:new 0 0 536 388.9;" xml:space="preserve">
<style type="text/css">
	.st0{stroke:#000000;stroke-width:2;stroke-miterlimit:10;}
</style>
<g id="Camada_2_1_">
	<g id="Camada_1-2">
		<g id="Camada_2-2">
			<g id="Camada_1-2-2">
				<path d="M71.4,216.7v162.1c0,9.1,0,9.1-6.6,9.1c-10,0-20.4,2.6-29.7-0.9s-17.1-13.9-26-20c-7-4.9-9.1-11.1-9.1-22.2
					C0.4,241.5,0.4,138.2,0.1,34.9c0-5.6,1.1-8.8,4.7-11.4C14,16.6,23,9.2,31.9,1.8c2.6-2.1,4.6-2.5,7.4-0.3
					C49.1,9.6,59,17.3,68.9,25.3c1.5,1.4,2.7,3.1,3.6,5c21.1,39.8,42.2,79.7,63.3,119.5c0.5,0.9,1,1.7,1.8,3.2c1-1.6,2-2.9,2.8-4.4
					c21.2-39.7,42.5-79.3,63.7-119c0.8-1.7,2-3.2,3.4-4.4c9.7-7.9,19.5-15.4,29.2-23.4c2.9-2.4,5-2.2,7.8,0.1
					c9.1,7.6,18.3,15,27.6,22c3,2.3,4.2,4.9,4.1,9.8c-0.1,32.6-0.1,65.2-0.1,97.8v246.8c0,9.7,0,9.7-6.8,9.7
					c-10,0-20.4,2.6-29.7-0.9c-9.1-3.5-16.7-14-25.5-20c-7.4-5-9.6-11.7-9.5-23.2c0.6-41.4,0.2-82.9,0.2-124.4v-9.3
					c-1.7,2.8-2.7,4.3-3.5,5.8c-13.8,25.7-27.4,51.4-41.3,77c-1.2,2.2-3.7,4.1-5.7,4.1c-13.1,0.4-26.2,0.4-39.3,0
					c-1.8,0-4.1-1.9-5.1-3.9c-12.1-24.1-23.9-48.4-35.9-72.7C73.4,219.6,72.7,218.8,71.4,216.7z M5.9,36.8v312.5c0,2,0.2,5.2,1.1,6
					c8.2,7.2,16.6,14,25.6,21.4c0.1-2.6,0.3-4.1,0.3-5.6c0-76.9,0-153.9,0.1-230.8c0-2.5,1.1-5,1.7-7.6c1.7,1.5,4,2.4,5,4.5
					c23.6,47.5,47,95,70.3,142.6c1,2,2,3.9,3.2,6.4l123-228.9L208.3,35c-30.1,56.3-59.9,111.9-89.6,167.5c-3.4,6.4-4.4,6.6-7.8,0.1
					c-24.8-46.2-49.6-92.4-74.4-138.5c-1.1-2.1-2.3-4.5-3.8-5.8C24.1,51.3,15.4,44.5,5.9,36.8z M118.9,289.3c11,0,20.8-0.2,30.7,0.1
					c3.7,0.1,6-1.5,8.2-5.7c26.2-49.2,52.4-98.3,78.8-147.3c1-1.9,3.2-2.6,4.8-3.9c0.6,2.1,1.8,4.1,1.8,6.1
					c0.1,77.4,0.1,154.8,0,232.1v8.6H270V37.1c-7.6,6-14.8,11.3-21.7,17.5c-3.9,3.4-7.2,7.5-9.8,12
					c-38.7,71.7-77.3,143.6-115.8,215.5C121.7,284,120.6,286.1,118.9,289.3L118.9,289.3z M39,149.9v229.8h26.4
					c0.1-1.4,0.2-2.4,0.2-3.5V208c0.1-1.9-0.2-3.8-0.9-5.6C56.5,185.3,48.2,168.5,39,149.9z M134.1,160.3L67.8,35L40,57.3
					l74.7,139.1C121.3,184.3,127.5,172.6,134.1,160.3z M237.2,148.8c-9.1,16.9-17.2,32.1-25.3,47.4c-0.9,1.9-1.4,4-1.4,6.1
					c-0.1,49.4-0.1,98.8,0,148.2c0,1.7,0.6,4.3,1.5,5c8.1,7,16.4,13.7,25.2,20.9L237.2,148.8z M8.8,29.8c9,7.2,17.1,13.8,25.4,20.3
					c0.7,0.6,1.7,0.8,2.5,0.4c8.5-6.6,17-13.4,26-20.7c-8.9-7.2-17.1-13.8-25.4-20.2c-1-0.7-2.8-0.4-3.8,0.4
					C25.5,16.2,17.6,22.7,8.8,29.8z M267.4,29.8c-8.9-7.1-17.1-13.8-25.3-20.2c-0.9-0.7-2-0.8-3-0.3c-8.3,6.5-16.6,13.2-25.6,20.5
					c9,7.2,17.4,13.9,25.7,20.4c0.8,0.5,1.8,0.5,2.5,0C250.1,43.7,258.4,37,267.4,29.8L267.4,29.8z"/>
			</g>
		</g>
		<path class="st0" d="M345.2,241.4V229h3c10.7,0,21.3-0.1,32,0c1.8,0.2,3.6-0.8,4.4-2.4c3.4-6.2,7-12.2,10.4-18.4
			c0.5-1,0.5-2.2,0-3.2c-3.3-6.2-6.7-12.2-10-18.3c-0.7-1.6-2.3-2.6-4.1-2.4c-10.8,0.1-21.5,0-32.3,0h-3.4v-14h3
			c16.2,0,32.4,0,48.5,0c1.6,0.2,3-0.7,3.7-2.1c3.3-6.1,6.8-12.1,10.3-18.1c0.9-1.3,0.9-3,0-4.3c-3.6-6.1-7.1-12.2-10.5-18.4
			c-0.9-1.6-2-1.8-3.6-1.8c-16,0-32,0-48,0c-13.9,0-27.8,0.1-41.6,0c-2.7,0-3.5,0.9-3.5,3.5c0.1,47.5,0.1,95.1,0,142.6
			c-0.2,1.7,0.7,3.2,2.2,4c5.7,3.2,11.2,6.6,16.9,9.8c0.9,0.4,1.9,0.7,2.9,0.6c23.7,0,47.4,0,71.1,0.1c1.6,0.2,3.1-0.7,3.7-2.1
			c3.5-6.2,7.1-12.4,10.6-18.6c0.5-1.1,0.5-2.3,0-3.4c-3.2-6.1-6.6-12-9.8-18.1c-0.7-1.7-2.5-2.7-4.3-2.5c-16.1,0.1-32.1,0-48.2,0
			L345.2,241.4z M341.8,149.9v33.5c0,4.1,0.1,4.2,4.1,4.2c10.1,0,20.2,0.2,30.3-0.1c4.1-0.1,6.5,0.9,8.2,4.8
			c1.8,4.2,4.4,8.1,6.8,12.6h-4.4c-14,0-27.9,0-41.9-0.1c-2.4,0-3.2,0.8-3.2,3.2c0.1,17.9,0,35.9,0,53.8c0,3.3,0.4,3.7,3.5,3.7h61.8
			c-3,5.3-5.9,10.2-8.6,15.3c-0.6,1.4-2.1,2.3-3.7,2.1c-22-0.1-44.1-0.1-66.1,0c-0.8,0-1.6-0.1-2.5-0.1V149.9L341.8,149.9z
			 M322.5,281.4c-4.6-2.7-8.8-5.2-13-7.5c-1.7-0.7-2.7-2.4-2.5-4.3c0-45.9,0-91.8,0-137.6v-2.9h88.2c-2.9,5-5.7,9.7-8.3,14.5
			c-0.7,1.8-2.6,2.9-4.5,2.7c-18.8-0.2-37.7-0.1-56.5-0.3c-2.7,0-3.5,0.9-3.5,3.5c0,42.7,0,85.3,0,128L322.5,281.4z M345.2,244.9
			h15.7c11.1,0,22.2,0,33.4-0.2c2.7,0,4.1,0.8,5.3,3.2c2,4.1,4.4,8,6.5,12.1c0.3,0.6,0.5,1.2,0.8,1.9h-61.6L345.2,244.9z
			 M395.2,166.8h-49.9v-17.2c13.1,0,25.9,0,38.8,0c0.7,0,1.3,0.4,1.8,0.9C389,155.8,392,161.1,395.2,166.8L395.2,166.8z
			 M345.2,208.4H391c-3,5.3-5.9,10.3-8.7,15.3c-0.6,1.3-2,2.2-3.4,2c-10-0.1-20,0-30,0h-3.6L345.2,208.4z M398.2,130.8
			c3.2,5.6,6.3,10.9,9.3,16.2c0.3,0.6,0.3,1.4,0,2c-3,5.3-6,10.6-9.3,16.3c-3.2-5.6-6.3-10.9-9.2-16.2c-0.3-0.6-0.3-1.4,0-2
			C391.9,141.7,395,136.4,398.2,130.8L398.2,130.8z"/>
		<path class="st0" d="M479.9,171.1c-0.8,1.4-1.3,2.3-1.9,3.2c-17.9,28.8-35.8,57.7-53.7,86.5c-1.2,1.6-1.4,3.7-0.4,5.4
			c2.7,5.5,5.3,11.1,7.8,16.7c0.5,1.4,1.8,2.2,3.3,2.1c29.1,0,58.1,0,87.2-0.1c1.2-0.1,2.2-0.7,2.9-1.7c3.6-6,7.1-12.2,10.5-18.3
			c0.6-1.1,0.6-2.5,0.2-3.6c-3.4-6.3-7-12.6-10.8-18.8c-0.8-0.9-1.9-1.4-3.1-1.4C509,241,496,241,483,241h-3.5
			c0.7-1.2,1.2-2.1,1.8-3c17.8-28.6,35.6-57.2,53.4-85.7c1.5-2.4,1.8-4.3,0.4-6.9c-2.9-5.2-5.4-10.6-7.9-16
			c-0.6-1.8-2.4-2.9-4.3-2.7c-26.8,0.1-53.6,0-80.4,0c-1.7-0.1-3.4-0.1-5.1,0.1c-1.2,0.2-2.3,0.8-3,1.7c-3.8,6.3-7.4,12.6-10.9,19
			c-0.4,0.9-0.3,2,0.1,2.9c3.2,6.1,6.6,12,9.8,18.1c0.7,1.6,2.3,2.5,4,2.4c13,0,25.9,0.1,38.8,0.2L479.9,171.1z M427.5,147.1
			c3.2-5.6,6.1-10.8,9.2-15.9c0.6-0.7,1.5-1.1,2.4-1.1c27.6-0.1,55.3-0.1,82.9,0c1.1,0.1,2,0.7,2.6,1.6c2.5,4.8,4.8,9.7,7.3,14.5
			c1,1.5,0.9,3.5-0.3,4.9c-11.4,18.2-22.8,36.4-34.1,54.7c-11.1,17.8-22.1,35.6-33.2,53.3c-0.5,0.8-1.5,1.9-2.2,2
			c-4.4,0.2-8.8,0.1-13.6,0.1c0.5-1,0.8-1.5,1.1-2c22.3-36.1,44.6-72.2,66.9-108.3c0.6-0.8,0.8-1.9,0.7-2.9
			c-0.1-0.5-1.7-0.8-2.6-0.8c-28.1,0-56.2,0-84.2,0C429.6,147.3,428.8,147.2,427.5,147.1L427.5,147.1z M512.8,150.5
			c-0.6,1-0.8,1.5-1.1,1.9c-22.3,36.1-44.7,72.3-67,108.5c-0.5,0.8-1,2-0.8,2.6s1.6,1,2.5,1c19.9,0,39.8,0.1,59.7-0.1
			c3.3,0,5.3,0.8,6.7,3.9c2.2,4.5,4.9,8.7,7.4,13.2c-0.3,0.1-0.6,0.2-0.9,0.2c-27.6,0-55.2,0-82.8,0c-1.1-0.2-2-0.9-2.5-1.8
			c-2.3-4.7-4.4-9.5-6.7-14.2c-0.7-1.3-0.6-2.9,0.3-4c5.6-8.9,11-17.8,16.6-26.7c17-27.4,34-54.9,51.1-82.3c0.5-0.9,1.6-2,2.4-2.1
			C502.6,150.4,507.5,150.6,512.8,150.5L512.8,150.5z M492.6,150.7c-3.1,5-6.1,9.7-8.9,14.5c-0.7,1.6-2.4,2.5-4.1,2.3
			c-11.8-0.1-23.6-0.3-35.3,0.2c-5.8,0.3-9.3-1.2-11.3-6.7c-1-2.9-2.9-5.4-4.3-8.1c-0.4-0.7-0.6-1.4-1-2.3H492.6z M520.3,244.3
			c-3,5.3-5.8,10.1-8.5,14.9c-0.6,1.4-2.1,2.2-3.6,2.1c-12.9-0.1-25.7,0-38.5,0c-0.8,0-1.5-0.1-2.6-0.2c3.4-5.5,6.6-10.7,9.9-15.9
			c0.5-0.5,1.1-0.8,1.8-0.8C492.4,244.3,506.1,244.3,520.3,244.3L520.3,244.3z M523.2,280c-3.2-5.6-6.3-10.9-9.3-16.2
			c-0.2-0.6-0.1-1.2,0.2-1.7c2.9-5.2,6-10.4,9.1-16c3.2,5.6,6.3,10.9,9.3,16.2c0.2,0.6,0.1,1.2-0.2,1.7
			C529.4,269.2,526.4,274.4,523.2,280L523.2,280z"/>
	</g>
</g>
</svg>
