<svg xmlns="http://www.w3.org/2000/svg" viewBox="0 0 537.08 388.9"><defs><style>.cls-1{fill:#edcd00;}.cls-2{fill:none;stroke:#000;stroke-miterlimit:10;stroke-width:2px;}</style></defs><g id="Camada_2" data-name="Camada 2"><g id="Camada_1-2" data-name="Camada 1"><g id="Camada_1-2-2" data-name="Camada 1-2"><path class="cls-1" d="M520.3,244.27c-3,5.3-5.8,10.1-8.5,14.9a3.64,3.64,0,0,1-3.6,2.1c-12.9-.1-25.7,0-38.5,0-.8,0-1.5-.1-2.6-.2,3.4-5.5,6.6-10.7,9.9-15.9a2.5,2.5,0,0,1,1.8-.8C492.4,244.27,506.1,244.27,520.3,244.27Z"/><path class="cls-1" d="M532.5,262.27a2,2,0,0,1-.2,1.7c-2.9,5.2-5.9,10.4-9.1,16-3.2-5.6-6.3-10.9-9.3-16.2a2,2,0,0,1,.2-1.7c2.9-5.2,6-10.4,9.1-16C526.4,251.67,529.5,257,532.5,262.27Z"/><path class="cls-1" d="M520.2,281.47a2.92,2.92,0,0,1-.9.2H436.5a3.61,3.61,0,0,1-2.5-1.8c-2.3-4.7-4.4-9.5-6.7-14.2a3.63,3.63,0,0,1,.3-4c5.6-8.9,11-17.8,16.6-26.7q25.5-41.1,51.1-82.3a4.37,4.37,0,0,1,2.4-2.1c4.9-.2,9.8,0,15.1-.1-.6,1-.8,1.5-1.1,1.9q-33.45,54.15-67,108.5a4.11,4.11,0,0,0-.8,2.6c.2.6,1.6,1,2.5,1,19.9,0,39.8.1,59.7-.1,3.3,0,5.3.8,6.7,3.9C515,272.77,517.7,277,520.2,281.47Z"/><path class="cls-1" d="M531.9,146.17a4.06,4.06,0,0,1-.3,4.9q-17.1,27.3-34.1,54.7c-11.1,17.8-22.1,35.6-33.2,53.3-.5.8-1.5,1.9-2.2,2-4.4.2-8.8.1-13.6.1.5-1,.8-1.5,1.1-2l66.9-108.3a4.21,4.21,0,0,0,.7-2.9c-.1-.5-1.7-.8-2.6-.8H430.4a15.14,15.14,0,0,1-2.9-.1c3.2-5.6,6.1-10.8,9.2-15.9a3.19,3.19,0,0,1,2.4-1.1c27.6-.1,55.3-.1,82.9,0a3.47,3.47,0,0,1,2.6,1.6C527.1,136.47,529.4,141.37,531.9,146.17Z"/><path class="cls-1" d="M492.6,150.57v.1c-3.1,5-6.1,9.7-8.9,14.5a4,4,0,0,1-4.1,2.3c-11.8-.1-23.6-.3-35.3.2-5.8.3-9.3-1.2-11.3-6.7-1-2.9-2.9-5.4-4.3-8.1-.4-.7-.6-1.4-1-2.3Z"/><path class="cls-1" d="M406.9,261.87H345.3l-.1-17h15.7c11.1,0,22.2,0,33.4-.2,2.7,0,4.1.8,5.3,3.2,2,4.1,4.4,8,6.5,12.1C406.4,260.57,406.6,261.17,406.9,261.87Z"/><path class="cls-1" d="M345.2,208.37H391c-3,5.3-5.9,10.3-8.7,15.3a3.37,3.37,0,0,1-3.4,2c-10-.1-20,0-30,0h-3.6Z"/><path class="cls-1" d="M407.5,147a2.33,2.33,0,0,1,0,2c-3,5.3-6,10.6-9.3,16.3-3.2-5.6-6.3-10.9-9.2-16.2a2.33,2.33,0,0,1,0-2c2.9-5.4,6-10.7,9.2-16.3C401.4,136.37,404.5,141.67,407.5,147Z"/><path class="cls-1" d="M395.2,166.77H345.3v-17.2h38.8a2.62,2.62,0,0,1,1.8.9C389,155.77,392,161.07,395.2,166.77Z"/><path class="cls-1" d="M345.2,265.47H407c-3,5.3-5.9,10.2-8.6,15.3a3.55,3.55,0,0,1-3.7,2.1c-22-.1-44.1-.1-66.1,0-.8,0-1.6-.1-2.5-.1V149.87h15.7v33.5c0,4.1.1,4.2,4.1,4.2,10.1,0,20.2.2,30.3-.1,4.1-.1,6.5.9,8.2,4.8,1.8,4.2,4.4,8.1,6.8,12.6h-4.4c-14,0-27.9,0-41.9-.1-2.4,0-3.2.8-3.2,3.2.1,17.9,0,35.9,0,53.8C341.7,265.07,342.1,265.47,345.2,265.47Z"/><path class="cls-1" d="M307,129.07h88.2c-2.9,5-5.7,9.7-8.3,14.5a4.37,4.37,0,0,1-4.5,2.7c-18.8-.2-37.7-.1-56.5-.3-2.7,0-3.5.9-3.5,3.5v128l.1,3.9c-4.6-2.7-8.8-5.2-13-7.5a4.09,4.09,0,0,1-2.5-4.3V129.07Z"/><path class="cls-1" d="M237.2,148.77v227.6c-8.8-7.2-17.1-13.9-25.2-20.9-.9-.7-1.5-3.3-1.5-5q-.15-74.1,0-148.2a14.34,14.34,0,0,1,1.4-6.1C220,180.87,228.1,165.67,237.2,148.77Z"/><path class="cls-1" d="M242.1,9.57c8.2,6.4,16.4,13.1,25.3,20.2-9,7.2-17.3,13.9-25.7,20.4a2.27,2.27,0,0,1-2.5,0c-8.3-6.5-16.7-13.2-25.7-20.4,9-7.3,17.3-14,25.6-20.5A2.74,2.74,0,0,1,242.1,9.57Z"/><path class="cls-1" d="M270,37.07v342.2H243.2v-8.6q.15-116,0-232.1c0-2-1.2-4-1.8-6.1-1.6,1.3-3.8,2-4.8,3.9q-39.6,73.5-78.8,147.3c-2.2,4.2-4.5,5.8-8.2,5.7-9.9-.3-19.7-.1-30.7-.1,1.7-3.2,2.8-5.3,3.8-7.2q57.75-107.85,115.8-215.5a47.31,47.31,0,0,1,9.8-12C255.2,48.37,262.4,43.07,270,37.07Z"/><path class="cls-1" d="M64.7,202.37a13.46,13.46,0,0,1,.9,5.6v168.2c0,1.1-.1,2.1-.2,3.5H39V149.87C48.2,168.47,56.5,185.27,64.7,202.37Z"/><path class="cls-1" d="M236.2,57.27l-123,228.9c-1.2-2.5-2.2-4.4-3.2-6.4q-34.95-71.4-70.3-142.6c-1-2.1-3.3-3-5-4.5-.6,2.6-1.7,5.1-1.7,7.6q-.15,115.35-.1,230.8c0,1.5-.2,3-.3,5.6-9-7.4-17.4-14.2-25.6-21.4-.9-.8-1.1-4-1.1-6V36.77c9.5,7.7,18.2,14.5,26.8,21.5,1.5,1.3,2.7,3.7,3.8,5.8q37.2,69.15,74.4,138.5c3.4,6.5,4.4,6.3,7.8-.1,29.7-55.6,59.5-111.2,89.6-167.5Z"/><path class="cls-1" d="M37.3,9.57c8.3,6.4,16.5,13,25.4,20.2-9,7.3-17.5,14.1-26,20.7a2.32,2.32,0,0,1-2.5-.4C25.9,43.57,17.8,37,8.8,29.77c8.8-7.1,16.7-13.6,24.7-19.8A3.54,3.54,0,0,1,37.3,9.57Z"/><path class="cls-1" d="M67.8,35l66.3,125.3c-6.6,12.3-12.8,24-19.4,36.1L40,57.27Z"/><path d="M535.8,261.27a4.53,4.53,0,0,1-.2,3.6c-3.4,6.1-6.9,12.3-10.5,18.3a3.85,3.85,0,0,1-2.9,1.7c-29.1.1-58.1.1-87.2.1a3.17,3.17,0,0,1-3.3-2.1c-2.5-5.6-5.1-11.2-7.8-16.7a4.85,4.85,0,0,1,.4-5.4q26.85-43.2,53.7-86.5c.6-.9,1.1-1.8,1.9-3.2h-3.7c-12.9-.1-25.8-.2-38.8-.2a4,4,0,0,1-4-2.4c-3.2-6.1-6.6-12-9.8-18.1a3.66,3.66,0,0,1-.1-2.9c3.5-6.4,7.1-12.7,10.9-19a4.79,4.79,0,0,1,3-1.7,29,29,0,0,1,5.1-.1c26.8,0,53.6.1,80.4,0a4.05,4.05,0,0,1,4.3,2.7c2.5,5.4,5,10.8,7.9,16,1.4,2.6,1.1,4.5-.4,6.9Q508,195,481.3,238c-.6.9-1.1,1.8-1.8,3H483c13,0,26,0,38.9.1a4.1,4.1,0,0,1,3.1,1.4C528.8,248.67,532.4,255,535.8,261.27Zm-3.5,2.7a2,2,0,0,0,.2-1.7c-3-5.3-6.1-10.6-9.3-16.2-3.1,5.6-6.2,10.8-9.1,16a2,2,0,0,0-.2,1.7c3,5.3,6.1,10.6,9.3,16.2C526.4,274.37,529.4,269.17,532.3,264Zm-.7-112.9a4.06,4.06,0,0,0,.3-4.9c-2.5-4.8-4.8-9.7-7.3-14.5a3.47,3.47,0,0,0-2.6-1.6c-27.6-.1-55.3-.1-82.9,0a3.19,3.19,0,0,0-2.4,1.1c-3.1,5.1-6,10.3-9.2,15.9a15.14,15.14,0,0,0,2.9.1h84.2c.9,0,2.5.3,2.6.8a4.21,4.21,0,0,1-.7,2.9l-66.9,108.3c-.3.5-.6,1-1.1,2,4.8,0,9.2.1,13.6-.1.7-.1,1.7-1.2,2.2-2,11.1-17.7,22.1-35.5,33.2-53.3Q514.45,178.32,531.6,151.07Zm-12.3,130.6a2.92,2.92,0,0,0,.9-.2c-2.5-4.5-5.2-8.7-7.4-13.2-1.4-3.1-3.4-3.9-6.7-3.9-19.9.2-39.8.1-59.7.1-.9,0-2.3-.4-2.5-1a4.11,4.11,0,0,1,.8-2.6q33.45-54.3,67-108.5c.3-.4.5-.9,1.1-1.9-5.3.1-10.2-.1-15.1.1a4.37,4.37,0,0,0-2.4,2.1q-25.65,41.1-51.1,82.3c-5.6,8.9-11,17.8-16.6,26.7a3.63,3.63,0,0,0-.3,4c2.3,4.7,4.4,9.5,6.7,14.2a3.61,3.61,0,0,0,2.5,1.8Zm-7.5-22.5c2.7-4.8,5.5-9.6,8.5-14.9-14.2,0-27.9,0-41.5.1a2.5,2.5,0,0,0-1.8.8c-3.3,5.2-6.5,10.4-9.9,15.9,1.1.1,1.8.2,2.6.2,12.8,0,25.6-.1,38.5,0A3.64,3.64,0,0,0,511.8,259.17Zm-19.2-108.5v-.1H427.7c.4.9.6,1.6,1,2.3,1.4,2.7,3.3,5.2,4.3,8.1,2,5.5,5.5,7,11.3,6.7,11.7-.5,23.5-.3,35.3-.2a4,4,0,0,0,4.1-2.3C486.5,160.37,489.5,155.67,492.6,150.67Z"/><path d="M410.9,262.07a4,4,0,0,1,0,3.4c-3.5,6.2-7.1,12.4-10.6,18.6a3.55,3.55,0,0,1-3.7,2.1q-35.55-.15-71.1-.1a5.83,5.83,0,0,1-2.9-.6c-5.7-3.2-11.2-6.6-16.9-9.8a4,4,0,0,1-2.2-4q.15-71.25,0-142.6c0-2.6.8-3.5,3.5-3.5,13.8.1,27.7,0,41.6,0h48c1.6,0,2.7.2,3.6,1.8,3.4,6.2,6.9,12.3,10.5,18.4a3.76,3.76,0,0,1,0,4.3c-3.5,6-7,12-10.3,18.1a3.63,3.63,0,0,1-3.7,2.1H345.2v14h3.4c10.8,0,21.5.1,32.3,0a4,4,0,0,1,4.1,2.4c3.3,6.1,6.7,12.1,10,18.3a3.6,3.6,0,0,1,0,3.2c-3.4,6.2-7,12.2-10.4,18.4a4.45,4.45,0,0,1-4.4,2.4c-10.7-.1-21.3,0-32,0h-3v12.4l3.4.1c16.1,0,32.1.1,48.2,0a4.17,4.17,0,0,1,4.3,2.5C404.3,250.07,407.7,256,410.9,262.07ZM407.5,149a2.33,2.33,0,0,0,0-2c-3-5.3-6.1-10.6-9.3-16.2-3.2,5.6-6.3,10.9-9.2,16.3a2.33,2.33,0,0,0,0,2c2.9,5.3,6,10.6,9.2,16.2C401.5,159.57,404.5,154.27,407.5,149Zm-.5,116.5H345.2c-3.1,0-3.5-.4-3.5-3.7,0-17.9.1-35.9,0-53.8,0-2.4.8-3.2,3.2-3.2,14,.1,27.9.1,41.9.1h4.4c-2.4-4.5-5-8.4-6.8-12.6-1.7-3.9-4.1-4.9-8.2-4.8-10.1.3-20.2.1-30.3.1-4,0-4.1-.1-4.1-4.2v-33.5H326.1v132.9c.9,0,1.7.1,2.5.1,22-.1,44.1-.1,66.1,0a3.55,3.55,0,0,0,3.7-2.1C401.1,275.67,404,270.77,407,265.47Zm-61.7-3.6h61.6c-.3-.7-.5-1.3-.8-1.9-2.1-4.1-4.5-8-6.5-12.1-1.2-2.4-2.6-3.2-5.3-3.2-11.2.2-22.3.2-33.4.2H345.2Zm49.9-132.8H307v140.5a4.09,4.09,0,0,0,2.5,4.3c4.2,2.3,8.4,4.8,13,7.5l-.1-3.9v-128c0-2.6.8-3.5,3.5-3.5,18.8.2,37.7.1,56.5.3a4.37,4.37,0,0,0,4.5-2.7C389.5,138.77,392.3,134.07,395.2,129.07Zm-49.9,37.7h49.9c-3.2-5.7-6.2-11-9.3-16.3a2.62,2.62,0,0,0-1.8-.9H345.3Zm45.7,41.6H345.2l.1,17.3h3.6c10,0,20-.1,30,0a3.37,3.37,0,0,0,3.4-2C385.1,218.67,388,213.67,391,208.37Z"/><path d="M272.1,23.87c3,2.3,4.2,4.9,4.1,9.8q-.15,48.9-.1,97.8v246.8c0,9.7,0,9.7-6.8,9.7-10,0-20.4,2.6-29.7-.9-9.1-3.5-16.7-14-25.5-20-7.4-5-9.6-11.7-9.5-23.2.6-41.4.2-82.9.2-124.4v-9.3c-1.7,2.8-2.7,4.3-3.5,5.8-13.8,25.7-27.4,51.4-41.3,77-1.2,2.2-3.7,4.1-5.7,4.1q-19.65.6-39.3,0c-1.8,0-4.1-1.9-5.1-3.9-12.1-24.1-23.9-48.4-35.9-72.7-.6-.9-1.3-1.7-2.6-3.8v162.1c0,9.1,0,9.1-6.6,9.1-10,0-20.4,2.6-29.7-.9s-17.1-13.9-26-20c-7-4.9-9.1-11.1-9.1-22.2Q.6,189.82.1,34.87c0-5.6,1.1-8.8,4.7-11.4C14,16.57,23,9.17,31.9,1.77c2.6-2.1,4.6-2.5,7.4-.3,9.8,8.1,19.7,15.8,29.6,23.8a16.39,16.39,0,0,1,3.6,5q31.65,59.7,63.3,119.5c.5.9,1,1.7,1.8,3.2,1-1.6,2-2.9,2.8-4.4q31.8-59.55,63.7-119a13.35,13.35,0,0,1,3.4-4.4c9.7-7.9,19.5-15.4,29.2-23.4,2.9-2.4,5-2.2,7.8.1C253.6,9.47,262.8,16.87,272.1,23.87ZM270,379.27V37.07c-7.6,6-14.8,11.3-21.7,17.5a47.31,47.31,0,0,0-9.8,12q-58,107.55-115.8,215.5c-1,1.9-2.1,4-3.8,7.2,11,0,20.8-.2,30.7.1,3.7.1,6-1.5,8.2-5.7q39.3-73.8,78.8-147.3c1-1.9,3.2-2.6,4.8-3.9.6,2.1,1.8,4.1,1.8,6.1q.15,116.1,0,232.1v8.6Zm-2.6-349.5c-8.9-7.1-17.1-13.8-25.3-20.2a2.74,2.74,0,0,0-3-.3c-8.3,6.5-16.6,13.2-25.6,20.5,9,7.2,17.4,13.9,25.7,20.4a2.27,2.27,0,0,0,2.5,0C250.1,43.67,258.4,37,267.4,29.77Zm-30.2,346.6V148.77c-9.1,16.9-17.2,32.1-25.3,47.4a14.34,14.34,0,0,0-1.4,6.1q-.15,74.1,0,148.2c0,1.7.6,4.3,1.5,5C220.1,362.47,228.4,369.17,237.2,376.37Zm-124-90.2,123-228.9L208.3,35c-30.1,56.3-59.9,111.9-89.6,167.5-3.4,6.4-4.4,6.6-7.8.1q-37.2-69.3-74.4-138.5c-1.1-2.1-2.3-4.5-3.8-5.8-8.6-7-17.3-13.8-26.8-21.5v312.5c0,2,.2,5.2,1.1,6,8.2,7.2,16.6,14,25.6,21.4.1-2.6.3-4.1.3-5.6q0-115.35.1-230.8c0-2.5,1.1-5,1.7-7.6,1.7,1.5,4,2.4,5,4.5q35.4,71.25,70.3,142.6C111,281.77,112,283.67,113.2,286.17Zm20.9-125.9L67.8,35,40,57.27l74.7,139.1C121.3,184.27,127.5,172.57,134.1,160.27ZM65.6,208a13.46,13.46,0,0,0-.9-5.6c-8.2-17.1-16.5-33.9-25.7-52.5v229.8H65.4c.1-1.4.2-2.4.2-3.5ZM62.7,29.77C53.8,22.57,45.6,16,37.3,9.57a3.54,3.54,0,0,0-3.8.4c-8,6.2-15.9,12.7-24.7,19.8,9,7.2,17.1,13.8,25.4,20.3a2.32,2.32,0,0,0,2.5.4C45.2,43.87,53.7,37.07,62.7,29.77Z"/><path class="cls-2" d="M345.2,241.37V229h3c10.7,0,21.3-.1,32,0a4.45,4.45,0,0,0,4.4-2.4c3.4-6.2,7-12.2,10.4-18.4a3.6,3.6,0,0,0,0-3.2c-3.3-6.2-6.7-12.2-10-18.3a4,4,0,0,0-4.1-2.4c-10.8.1-21.5,0-32.3,0h-3.4v-14h51.5a3.63,3.63,0,0,0,3.7-2.1c3.3-6.1,6.8-12.1,10.3-18.1a3.76,3.76,0,0,0,0-4.3c-3.6-6.1-7.1-12.2-10.5-18.4-.9-1.6-2-1.8-3.6-1.8h-48c-13.9,0-27.8.1-41.6,0-2.7,0-3.5.9-3.5,3.5q.15,71.25,0,142.6a4,4,0,0,0,2.2,4c5.7,3.2,11.2,6.6,16.9,9.8a5.83,5.83,0,0,0,2.9.6q35.55,0,71.1.1a3.55,3.55,0,0,0,3.7-2.1c3.5-6.2,7.1-12.4,10.6-18.6a4,4,0,0,0,0-3.4c-3.2-6.1-6.6-12-9.8-18.1a4.17,4.17,0,0,0-4.3-2.5c-16.1.1-32.1,0-48.2,0Z"/><path class="cls-2" d="M341.8,149.87v33.5c0,4.1.1,4.2,4.1,4.2,10.1,0,20.2.2,30.3-.1,4.1-.1,6.5.9,8.2,4.8,1.8,4.2,4.4,8.1,6.8,12.6h-4.4c-14,0-27.9,0-41.9-.1-2.4,0-3.2.8-3.2,3.2.1,17.9,0,35.9,0,53.8,0,3.3.4,3.7,3.5,3.7H407c-3,5.3-5.9,10.2-8.6,15.3a3.55,3.55,0,0,1-3.7,2.1c-22-.1-44.1-.1-66.1,0-.8,0-1.6-.1-2.5-.1V149.87Z"/><path class="cls-2" d="M322.5,281.37c-4.6-2.7-8.8-5.2-13-7.5a4.09,4.09,0,0,1-2.5-4.3V129.07h88.2c-2.9,5-5.7,9.7-8.3,14.5a4.37,4.37,0,0,1-4.5,2.7c-18.8-.2-37.7-.1-56.5-.3-2.7,0-3.5.9-3.5,3.5v128Z"/><path class="cls-2" d="M345.2,244.87h15.7c11.1,0,22.2,0,33.4-.2,2.7,0,4.1.8,5.3,3.2,2,4.1,4.4,8,6.5,12.1.3.6.5,1.2.8,1.9H345.3Z"/><path class="cls-2" d="M395.2,166.77H345.3v-17.2h38.8a2.62,2.62,0,0,1,1.8.9C389,155.77,392,161.07,395.2,166.77Z"/><path class="cls-2" d="M345.2,208.37H391c-3,5.3-5.9,10.3-8.7,15.3a3.37,3.37,0,0,1-3.4,2c-10-.1-20,0-30,0h-3.6Z"/><path class="cls-2" d="M398.2,130.77c3.2,5.6,6.3,10.9,9.3,16.2a2.33,2.33,0,0,1,0,2c-3,5.3-6,10.6-9.3,16.3-3.2-5.6-6.3-10.9-9.2-16.2a2.33,2.33,0,0,1,0-2C391.9,141.67,395,136.37,398.2,130.77Z"/><path class="cls-2" d="M479.9,171.07c-.8,1.4-1.3,2.3-1.9,3.2q-26.85,43.2-53.7,86.5a4.85,4.85,0,0,0-.4,5.4c2.7,5.5,5.3,11.1,7.8,16.7A3.17,3.17,0,0,0,435,285c29.1,0,58.1,0,87.2-.1a3.85,3.85,0,0,0,2.9-1.7c3.6-6,7.1-12.2,10.5-18.3a4.53,4.53,0,0,0,.2-3.6c-3.4-6.3-7-12.6-10.8-18.8a4.1,4.1,0,0,0-3.1-1.4C509,241,496,241,483,241h-3.5c.7-1.2,1.2-2.1,1.8-3q26.7-42.9,53.4-85.7c1.5-2.4,1.8-4.3.4-6.9-2.9-5.2-5.4-10.6-7.9-16a4.05,4.05,0,0,0-4.3-2.7c-26.8.1-53.6,0-80.4,0a29,29,0,0,0-5.1.1,4.79,4.79,0,0,0-3,1.7c-3.8,6.3-7.4,12.6-10.9,19a3.66,3.66,0,0,0,.1,2.9c3.2,6.1,6.6,12,9.8,18.1a4,4,0,0,0,4,2.4c13,0,25.9.1,38.8.2Z"/><path class="cls-2" d="M427.5,147.07c3.2-5.6,6.1-10.8,9.2-15.9a3.19,3.19,0,0,1,2.4-1.1c27.6-.1,55.3-.1,82.9,0a3.47,3.47,0,0,1,2.6,1.6c2.5,4.8,4.8,9.7,7.3,14.5a4.06,4.06,0,0,1-.3,4.9q-17.1,27.3-34.1,54.7c-11.1,17.8-22.1,35.6-33.2,53.3-.5.8-1.5,1.9-2.2,2-4.4.2-8.8.1-13.6.1.5-1,.8-1.5,1.1-2l66.9-108.3a4.21,4.21,0,0,0,.7-2.9c-.1-.5-1.7-.8-2.6-.8H430.4A15.14,15.14,0,0,1,427.5,147.07Z"/><path class="cls-2" d="M512.8,150.47c-.6,1-.8,1.5-1.1,1.9q-33.45,54.15-67,108.5a4.11,4.11,0,0,0-.8,2.6c.2.6,1.6,1,2.5,1,19.9,0,39.8.1,59.7-.1,3.3,0,5.3.8,6.7,3.9,2.2,4.5,4.9,8.7,7.4,13.2a2.92,2.92,0,0,1-.9.2H436.5a3.61,3.61,0,0,1-2.5-1.8c-2.3-4.7-4.4-9.5-6.7-14.2a3.63,3.63,0,0,1,.3-4c5.6-8.9,11-17.8,16.6-26.7q25.5-41.1,51.1-82.3a4.37,4.37,0,0,1,2.4-2.1C502.6,150.37,507.5,150.57,512.8,150.47Z"/><path class="cls-2" d="M492.6,150.67c-3.1,5-6.1,9.7-8.9,14.5a4,4,0,0,1-4.1,2.3c-11.8-.1-23.6-.3-35.3.2-5.8.3-9.3-1.2-11.3-6.7-1-2.9-2.9-5.4-4.3-8.1-.4-.7-.6-1.4-1-2.3h64.9Z"/><path class="cls-2" d="M520.3,244.27c-3,5.3-5.8,10.1-8.5,14.9a3.64,3.64,0,0,1-3.6,2.1c-12.9-.1-25.7,0-38.5,0-.8,0-1.5-.1-2.6-.2,3.4-5.5,6.6-10.7,9.9-15.9a2.5,2.5,0,0,1,1.8-.8C492.4,244.27,506.1,244.27,520.3,244.27Z"/><path class="cls-2" d="M523.2,280c-3.2-5.6-6.3-10.9-9.3-16.2a2,2,0,0,1,.2-1.7c2.9-5.2,6-10.4,9.1-16,3.2,5.6,6.3,10.9,9.3,16.2a2,2,0,0,1-.2,1.7C529.4,269.17,526.4,274.37,523.2,280Z"/></g></g></g></svg>