<svg xmlns="http://www.w3.org/2000/svg" viewBox="0 0 276.02 388.87"><defs><style>.cls-1{fill:#fff;}</style></defs><g id="Camada_2" data-name="Camada 2"><g id="Camada_1-2" data-name="Camada 1"><g id="Camada_2-2" data-name="Camada 2"><g id="Camada_1-2-2" data-name="Camada 1-2"><g id="Camada_2-2-2" data-name="Camada 2-2"><g id="Camada_1-2-2-2" data-name="Camada 1-2-2"><path class="cls-1" d="M71.44,216.69V378.8c0,9.11,0,9.13-6.63,9.12-10,0-20.43,2.65-29.7-.89S18,373.08,9.15,367C2.15,362.11,0,355.9,0,344.82q.55-155,.13-309.94c0-5.58,1.07-8.75,4.65-11.42C14,16.62,23,9.24,31.94,1.8c2.59-2.14,4.63-2.54,7.36-.28,9.79,8.09,19.75,15.76,29.57,23.77a16.66,16.66,0,0,1,3.6,5Q104.14,90,135.74,149.82c.47.88,1,1.71,1.83,3.17,1-1.58,2-2.88,2.75-4.36Q172.18,89.14,204,29.6a14.66,14.66,0,0,1,3.39-4.42c9.7-7.86,19.53-15.4,29.16-23.4,2.86-2.37,5-2.23,7.78.1,9.08,7.58,18.25,15,27.55,22,3,2.31,4.16,4.94,4.14,9.81-.15,32.59-.08,65.18-.08,97.77V378.24c0,9.67,0,9.7-6.79,9.68-9.95,0-20.42,2.61-29.7-.91-9.09-3.46-16.7-14-25.48-19.95-7.45-5-9.63-11.71-9.47-23.21.57-41.44.22-82.91.22-124.37v-9.26c-1.71,2.81-2.69,4.25-3.54,5.84-13.76,25.69-27.44,51.45-41.33,77-1.19,2.2-3.74,4.09-5.68,4.14q-19.66.56-39.32,0c-1.76-.05-4.12-1.88-5.14-3.92-12.07-24.11-23.94-48.42-35.87-72.66C73.38,219.64,72.73,218.78,71.44,216.69ZM5.92,36.82V349.33c0,2,.18,5.16,1.09,6,8.23,7.2,16.64,14,25.58,21.37.13-2.64.27-4.13.27-5.61q0-115.39.07-230.8c0-2.52,1.13-5,1.72-7.55,1.7,1.47,4,2.39,5,4.49Q75,208.41,110,279.86c1,2,2,3.88,3.23,6.36l123-228.95L208.34,35.05c-30.12,56.28-59.9,111.88-89.63,167.54-3.42,6.39-4.39,6.56-7.85.12Q73.65,133.43,36.42,64.16c-1.13-2.1-2.26-4.52-3.81-5.81C24.09,51.25,15.44,44.45,5.92,36.82Zm113,252.52c11,0,20.84-.22,30.71.12,3.69.12,6-1.47,8.24-5.68q39.24-73.8,78.8-147.25c1-1.91,3.16-2.65,4.78-3.93.62,2.05,1.78,4.1,1.78,6.15q.12,116.07,0,232.14v8.58H270V37.06c-7.57,6-14.81,11.33-21.67,17.46a45.47,45.47,0,0,0-9.78,12q-58,107.6-115.81,215.48c-1.09,2-2.13,4.11-3.81,7.34ZM39.05,149.87V379.62H65.49c.09-1.36.21-2.41.21-3.47V208a14.11,14.11,0,0,0-.92-5.64C56.53,185.33,48.19,168.46,39.05,149.87Zm95.05,10.44L67.82,35,40,57.31l74.73,139.15C121.25,184.26,127.49,172.63,134.1,160.31Zm103.09-11.5c-9.05,16.92-17.23,32.11-25.28,47.43a14.17,14.17,0,0,0-1.37,6.07q-.1,74.1,0,148.21c0,1.72.56,4.25,1.46,5,8.14,7,16.42,13.72,25.18,20.94ZM8.8,29.75c9,7.21,17.13,13.81,25.35,20.3a2.34,2.34,0,0,0,2.54.38c8.51-6.62,17-13.41,26.05-20.66C53.8,22.58,45.65,15.93,37.38,9.57c-1-.74-2.78-.36-3.83.45C25.55,16.22,17.64,22.66,8.8,29.75Zm258.59,0C258.48,22.61,250.33,16,242.11,9.57a2.76,2.76,0,0,0-3-.28c-8.34,6.52-16.6,13.24-25.59,20.49,9,7.21,17.36,13.9,25.72,20.44a2.26,2.26,0,0,0,2.54,0c8.33-6.55,16.62-13.22,25.61-20.47Z"/></g></g></g></g></g></g></svg>