<svg xmlns="http://www.w3.org/2000/svg" viewBox="0 0 292.38 292.38"><defs><style>.cls-1{fill:#fff;}.cls-2{fill:#edcd00;}</style></defs><g id="Camada_2" data-name="Camada 2"><g id="Capa_1" data-name="Capa 1"><rect class="cls-1" x="79.48" y="84.28" width="133.92" height="122.4"/><path class="cls-2" d="M146.19,0C65.58,0,0,65.58,0,146.19S65.58,292.38,146.19,292.38s146.19-65.59,146.19-146.19S226.8,0,146.19,0ZM195,152.15h-42.8V195a6,6,0,0,1-11.94,0V152.15H97.42a6,6,0,1,1,0-11.93h42.8V97.42a6,6,0,1,1,11.93,0v42.8H195a6,6,0,1,1,0,11.93Z"/></g></g></svg>