<svg xmlns="http://www.w3.org/2000/svg" viewBox="0 0 194.32 12.29"><defs><style>.cls-1{fill:#1d1d1b;}</style></defs><g id="Layer_2" data-name="Layer 2"><g id="Layer_1-2" data-name="Layer 1"><path class="cls-1" d="M2.26,3.63l-.93,7H0L1.36,1.53H3.17l1.35,9.13H3.19Z"/><path class="cls-1" d="M11,8.89a1.68,1.68,0,0,1-1.89,1.92A1.68,1.68,0,0,1,7.17,8.89V1.53H8.49V8.89c0,.41.19.62.57.62s.58-.21.58-.62V1.53H11Z"/><path class="cls-1" d="M17.44,1.53v1.3H16.2v7.83H14.88V2.83H13.65V1.53Z"/><path class="cls-1" d="M23.87,8.89A1.68,1.68,0,0,1,22,10.81a1.68,1.68,0,0,1-1.89-1.92V3.3A1.68,1.68,0,0,1,22,1.39,1.68,1.68,0,0,1,23.87,3.3ZM22.55,3.3c0-.41-.19-.61-.57-.61h0c-.38,0-.56.2-.56.61V8.89c0,.41.19.62.57.62s.57-.21.57-.62Z"/><path class="cls-1" d="M29.76,7.79l1.53-6.26h1.32v9.13H31.35V5.54l-1.13,5.12h-.89L28.17,5.54v5.12H26.9V1.53h1.31Z"/><path class="cls-1" d="M37.57,3.63l-.94,7H35.31l1.36-9.13h1.8l1.36,9.13H38.5Z"/><path class="cls-1" d="M44,10.8c-1-.11-1.56-.74-1.56-1.91V3.3a1.68,1.68,0,0,1,1.89-1.91A1.68,1.68,0,0,1,46.26,3.3V4.53H45V3.3c0-.41-.2-.61-.58-.61h0c-.37,0-.56.2-.56.61V8.89c0,.41.19.62.57.62S45,9.3,45,8.89V7.66h1.31V8.89q0,1.81-1.68,1.92l-.1.25a.75.75,0,0,1,.33-.09.48.48,0,0,1,.27.09.41.41,0,0,1,.13.33v.46c0,.26-.17.41-.49.43h-.25c-.37,0-.55-.16-.55-.44v-.14h.55v.14c0,.05,0,.07.09.07s.1,0,.1-.07v-.46c0-.05,0-.08-.09-.08h0a.11.11,0,0,0-.11.07h-.53Z"/><path class="cls-1" d="M51.22,3.63l-.93,7H49l1.36-9.13h1.81l1.35,9.13H52.15Zm-1-2.3L49.62,1l.17-.33a1,1,0,0,1,.8-.66h0a1.63,1.63,0,0,1,.8.31.8.8,0,0,0,.39.15A.22.22,0,0,0,52,.35L52.21,0l.61.4-.19.31a.92.92,0,0,1-.74.5h0a1.6,1.6,0,0,1-.8-.31,2.69,2.69,0,0,0-.36-.2h0c-.09,0-.17.09-.26.26Z"/><path class="cls-1" d="M60,8.89a1.89,1.89,0,1,1-3.78,0V3.3A1.89,1.89,0,1,1,60,3.3ZM58.64,3.3c0-.41-.19-.61-.57-.61h0c-.38,0-.56.2-.56.61V8.89c0,.41.19.62.57.62s.57-.21.57-.62Z"/><path class="cls-1" d="M70.67,1.53v1.3H69.43v7.83H68.12V2.83H66.88V1.53Z"/><path class="cls-1" d="M73.27,1.53h1.91c1.17,0,1.76.64,1.76,1.92V3.6a1.53,1.53,0,0,1-1,1.59l1.48,5.47H75.94L74.75,5.42l-.17,0v5.21H73.27Zm1.31,1.3V4.22h.31a1.07,1.07,0,0,0,.37,0,.56.56,0,0,0,.36-.58V3.45c0-.41-.19-.62-.57-.62Z"/><path class="cls-1" d="M80.06,1.53h1.31v9.13H80.06Z"/><path class="cls-1" d="M84.51,1.53h1.95c1.22,0,1.84.64,1.84,1.92v.16a1.31,1.31,0,0,1-.72,1.27,1.31,1.31,0,0,1,.72,1.27V8.74c0,1.28-.59,1.92-1.76,1.92h-2Zm1.74,2.7a1,1,0,0,0,.37-.05A.55.55,0,0,0,87,3.61V3.45c0-.41-.19-.62-.57-.62h-.58v1.4Zm.16,5.13c.38,0,.57-.2.57-.62V6.15a.56.56,0,0,0-.36-.58,1.07,1.07,0,0,0-.37,0h-.42V9.36Z"/><path class="cls-1" d="M95,8.89a1.89,1.89,0,1,1-3.78,0V1.53h1.31V8.89c0,.41.2.62.58.62s.57-.21.57-.62V1.53H95Z"/><path class="cls-1" d="M101.49,1.53v1.3h-1.23v7.83H98.94V2.83H97.71V1.53Z"/><path class="cls-1" d="M106.17,3.63l-.93,7h-1.33l1.36-9.13h1.81l1.35,9.13H107.1Zm.34-2.45h-.73L106.44,0h1Z"/><path class="cls-1" d="M111.22,1.53h1.92c1.17,0,1.76.64,1.76,1.92V3.6a1.53,1.53,0,0,1-1,1.59l1.48,5.47h-1.45l-1.18-5.24-.17,0v5.21h-1.32Zm1.32,1.3V4.22h.3a1.1,1.1,0,0,0,.38,0,.56.56,0,0,0,.36-.58V3.45c0-.41-.19-.62-.57-.62Z"/><path class="cls-1" d="M118,1.53h1.32v9.13H118Z"/><path class="cls-1" d="M124.31,3.63l-.93,7h-1.33l1.36-9.13h1.81l1.35,9.13h-1.33Z"/><path class="cls-1" d="M133.54,1.53h2c1.17,0,1.75.64,1.75,1.92v5.3c0,1.27-.61,1.91-1.84,1.91h-1.94Zm1.32,1.3V9.36h.57c.38,0,.58-.2.58-.61V3.45c0-.41-.2-.62-.58-.62Z"/><path class="cls-1" d="M140.35,1.53h3.41v1.3h-2.1v1.4h1.81v1.3h-1.81V9.36h2.1v1.3h-3.41Z"/><path class="cls-1" d="M153.66,10.66h-1.8l-.93-5.9-.43-3.23h1.33l.92,7,.94-7H155l-.43,3.24Z"/><path class="cls-1" d="M157.46,1.53h3.42v1.3h-2.1v1.4h1.8v1.3h-1.8V9.36h2.1v1.3h-3.42Z"/><path class="cls-1" d="M163.76,1.53h1.92c1.17,0,1.75.64,1.75,1.92V3.6a1.52,1.52,0,0,1-1,1.59l1.48,5.47h-1.44l-1.19-5.24-.16,0v5.21h-1.32Zm1.32,1.3V4.22h.3a1.13,1.13,0,0,0,.38,0,.55.55,0,0,0,.35-.58V3.45c0-.41-.19-.62-.57-.62Z"/><path class="cls-1" d="M170.49,1.53h2c1.17,0,1.75.64,1.75,1.92v5.3c0,1.27-.61,1.91-1.84,1.91h-1.94Zm1.31,1.3V9.36h.58c.38,0,.58-.2.58-.61V3.45c0-.41-.2-.62-.58-.62Z"/><path class="cls-1" d="M179.13,3.63l-.93,7h-1.32l1.36-9.13H180l1.36,9.13h-1.34Z"/><path class="cls-1" d="M184.09,1.53h2c1.17,0,1.76.64,1.76,1.92v5.3c0,1.27-.61,1.91-1.84,1.91h-1.95Zm1.32,1.3V9.36H186c.38,0,.57-.2.57-.61V3.45c0-.41-.19-.62-.57-.62Z"/><path class="cls-1" d="M190.9,1.53h3.42v1.3h-2.1v1.4H194v1.3h-1.81V9.36h2.1v1.3H190.9Z"/></g></g></svg>