<svg xmlns="http://www.w3.org/2000/svg" viewBox="0 0 1946.9 1523.9"><defs><style>.cls-1{fill:none;}</style></defs><g id="Camada_2" data-name="Camada 2"><g id="Camada_1-2" data-name="Camada 1"><g id="Camada_2-2" data-name="Camada 2"><g id="home-anim"><g id="home"><g id="light-blue"><line class="cls-1" x1="915.6" y1="1175.7" x2="761.1" y2="1330.2"/><line class="cls-1" x1="1351.7" y1="739.6" x2="1197.2" y2="894.1"/><line class="cls-1" x1="1787.8" y1="303.5" x2="1633.3" y2="458"/><line class="cls-1" x1="150.1" y1="956.3" x2="304.6" y2="801.8"/><line class="cls-1" x1="358.8" y1="590.6" x2="204.3" y2="745.1"/><line class="cls-1" x1="586.2" y1="520.2" x2="740.7" y2="365.7"/><line class="cls-1" x1="794.9" y1="154.5" x2="640.4" y2="309"/><line class="cls-1" x1="196.2" y1="1290.3" x2="350.7" y2="1135.8"/><line class="cls-1" x1="404.9" y1="924.5" x2="250.4" y2="1079.1"/><line class="cls-1" x1="632.3" y1="854.2" x2="786.8" y2="699.7"/><line class="cls-1" x1="841" y1="488.5" x2="686.5" y2="643"/><line class="cls-1" x1="1068.4" y1="418.1" x2="1222.9" y2="263.6"/><line class="cls-1" x1="442.4" y1="1267.2" x2="287.8" y2="1421.7"/><line class="cls-1" x1="669.7" y1="1196.9" x2="824.2" y2="1042.3"/><line class="cls-1" x1="878.4" y1="831.1" x2="723.9" y2="985.7"/><line class="cls-1" x1="1105.8" y1="760.8" x2="1260.3" y2="606.3"/><line class="cls-1" x1="1314.5" y1="395" x2="1160" y2="549.6"/><line class="cls-1" x1="1541.9" y1="324.7" x2="1696.4" y2="170.2"/></g><g id="red"><line class="cls-1" x1="979.4" y1="1116.2" x2="1134" y2="961.7"/><line class="cls-1" x1="1415.5" y1="680.1" x2="1570" y2="525.6"/><line class="cls-1" x1="484.9" y1="237" x2="330.4" y2="391.5"/><line class="cls-1" x1="522.3" y1="579.7" x2="367.8" y2="734.2"/><line class="cls-1" x1="422.6" y1="531.1" x2="577.1" y2="376.6"/><line class="cls-1" x1="958.4" y1="143.6" x2="803.9" y2="298.1"/><line class="cls-1" x1="568.5" y1="913.6" x2="414" y2="1068.2"/><line class="cls-1" x1="468.8" y1="865.1" x2="623.3" y2="710.6"/><line class="cls-1" x1="1004.6" y1="477.6" x2="850" y2="632.1"/><line class="cls-1" x1="904.8" y1="429" x2="1059.4" y2="274.5"/><line class="cls-1" x1="605.9" y1="1256.3" x2="451.4" y2="1410.8"/><line class="cls-1" x1="506.2" y1="1207.8" x2="660.7" y2="1053.2"/><line class="cls-1" x1="1042" y1="820.2" x2="887.5" y2="974.8"/><line class="cls-1" x1="942.3" y1="771.7" x2="1096.8" y2="617.2"/><line class="cls-1" x1="1478.1" y1="384.1" x2="1323.5" y2="538.7"/><line class="cls-1" x1="1378.3" y1="335.6" x2="1532.9" y2="181.1"/></g><g id="blue"><line class="cls-1" x1="510.6" y1="1432.4" x2="819.7" y2="1123.3"/><line class="cls-1" x1="946.7" y1="996.3" x2="1255.8" y2="687.3"/><line class="cls-1" x1="1382.8" y1="560.2" x2="1691.9" y2="251.2"/><line class="cls-1" x1="517.6" y1="356.9" x2="208.6" y2="666"/><line class="cls-1" x1="555" y1="699.6" x2="246" y2="1008.7"/><line class="cls-1" x1="389.9" y1="411.2" x2="699" y2="102.2"/><line class="cls-1" x1="991.1" y1="263.5" x2="682.1" y2="572.6"/><line class="cls-1" y1="1181.3" x2="309" y2="872.2"/><line class="cls-1" x1="601.2" y1="1033.6" x2="292.1" y2="1342.6"/><line class="cls-1" x1="436.1" y1="745.2" x2="745.1" y2="436.1"/><line class="cls-1" x1="1037.3" y1="597.5" x2="728.2" y2="906.5"/><line class="cls-1" x1="872.1" y1="309.1" x2="1181.2"/><line class="cls-1" x1="1473.4" y1="161.4" x2="1164.3" y2="470.4"/><line class="cls-1" x1="37.4" y1="1523.9" x2="346.4" y2="1214.9"/><line class="cls-1" x1="473.5" y1="1087.8" x2="782.5" y2="778.8"/><line class="cls-1" x1="1074.7" y1="940.2" x2="765.6" y2="1249.2"/><line class="cls-1" x1="909.6" y1="651.8" x2="1218.6" y2="342.7"/><line class="cls-1" x1="1510.8" y1="504.1" x2="1201.7" y2="813.1"/><line class="cls-1" x1="1946.9" y1="68" x2="1637.8" y2="377"/></g></g></g></g></g></g></svg>